<svg width="506" height="212" viewBox="0 0 506 212" fill="none" xmlns="http://www.w3.org/2000/svg">
<g clip-path="url(#clip0_1044_18752)">
<rect width="506" height="212" fill="white"/>
<rect opacity="0.4" y="185.46" width="506" height="26.5399" fill="#F2F4F8"/>
<rect opacity="0.4" y="132.38" width="506" height="26.5399" fill="#F2F4F8"/>
<rect opacity="0.4" y="79.3003" width="506" height="26.5399" fill="#F2F4F8"/>
<rect opacity="0.4" y="26.2205" width="506" height="26.5399" fill="#F2F4F8"/>
<rect x="0.5" y="0.180542" width="505" height="211.319" stroke="#DDE1E6"/>
<path fill-rule="evenodd" clip-rule="evenodd" d="M52.3996 86.2H53.5996C54.5937 86.2 55.3996 85.3942 55.3996 84.4V79.6C55.3996 78.6059 54.5937 77.8 53.5996 77.8H52.3996C51.4055 77.8 50.5996 78.6059 50.5996 79.6V84.4C50.5996 85.3942 51.4055 86.2 52.3996 86.2ZM51.7996 79.6C51.7996 79.2687 52.0682 79 52.3996 79H53.5996C53.931 79 54.1996 79.2687 54.1996 79.6V84.4C54.1996 84.7314 53.931 85 53.5996 85H52.3996C52.0682 85 51.7996 84.7314 51.7996 84.4V79.6Z" fill="#161616"/>
<path d="M58.0545 88L57 87.46L59.6804 82L57 76.54L58.0545 76L61 82L58.0545 88Z" fill="#161616"/>
<rect x="47" y="76" width="1" height="12" fill="#161616"/>
<line x1="69" y1="81.5" x2="331" y2="81.5" stroke="black"/>
<path fill-rule="evenodd" clip-rule="evenodd" d="M52.3996 134.2H53.5996C54.5937 134.2 55.3996 133.394 55.3996 132.4V127.6C55.3996 126.606 54.5937 125.8 53.5996 125.8H52.3996C51.4055 125.8 50.5996 126.606 50.5996 127.6V132.4C50.5996 133.394 51.4055 134.2 52.3996 134.2ZM51.7996 127.6C51.7996 127.269 52.0682 127 52.3996 127H53.5996C53.931 127 54.1996 127.269 54.1996 127.6V132.4C54.1996 132.731 53.931 133 53.5996 133H52.3996C52.0682 133 51.7996 132.731 51.7996 132.4V127.6Z" fill="#161616"/>
<path d="M58.0545 136L57 135.46L59.6804 130L57 124.54L58.0545 124L61 130L58.0545 136Z" fill="#161616"/>
<rect x="47" y="124" width="1" height="12" fill="#161616"/>
<line x1="69" y1="129.5" x2="331" y2="129.5" stroke="black"/>
<rect width="70" height="144" transform="translate(183 34)" fill="#1192E8"/>
<path d="M111.162 112.269C110.658 113.691 109.892 115.791 109.892 117.095C109.892 117.552 110.264 117.755 110.79 117.755C111.665 117.755 113.306 117.027 113.306 116.688C113.306 116.604 113.197 116.57 113.088 116.57C112.825 116.57 112.431 116.722 112.19 116.824C111.906 116.79 111.753 116.62 111.753 116.383C111.753 114.318 114.248 108.391 114.882 107.138C115.145 106.664 115.429 105.969 115.429 105.834C115.429 105.715 115.298 105.715 115.211 105.715C114.751 105.715 113.766 106.173 113.591 106.494C113.306 107.087 113.263 107.172 113 107.798C112.278 109.407 110.111 112.201 107.945 114.165C107.266 114.758 105.121 116.722 103.567 116.722C102.517 116.722 101.86 116.028 101.86 114.91C101.86 113.725 102.714 112.201 104.027 109.881C104.815 108.492 105.471 107.29 105.471 106.528C105.471 105.732 104.771 105.715 104.377 105.715C102.692 105.715 100.591 106.765 100.591 107.121C100.591 107.222 100.744 107.222 100.832 107.222C101.094 107.222 101.488 107.087 101.838 106.901C101.992 106.816 102.342 106.647 102.933 106.647C103.414 106.647 103.611 106.884 103.611 107.256C103.611 108.001 102.823 109.39 101.904 111.016C100.46 113.556 100 114.639 100 115.621C100 116.739 100.569 117.653 102.123 117.653C103.48 117.653 105.471 116.959 107.704 115.35C109.214 114.25 110.199 113.234 111.14 112.252L111.162 112.269Z" fill="white"/>
<path d="M120.226 118.38C122.94 118.188 124.384 117.081 124.384 116.065C124.384 114.993 122.867 113.921 120.226 113.74V113.13C120.226 112.735 120.226 112.577 121.598 112.577H122.064V112.205C121.408 112.238 120.314 112.238 119.613 112.238C118.913 112.238 117.804 112.238 117.147 112.205V112.577H117.614C118.986 112.577 118.986 112.735 118.986 113.13V113.751C116.549 113.921 114.93 114.959 114.93 116.054C114.93 117.206 116.622 118.199 118.986 118.368V118.989C118.986 119.384 118.986 119.542 117.614 119.542H117.147V119.915C117.804 119.881 118.898 119.881 119.599 119.881C120.299 119.881 121.408 119.881 122.064 119.915V119.542H121.598C120.226 119.542 120.226 119.384 120.226 118.989V118.38ZM118.986 118.052C117.716 117.939 116.403 117.477 116.403 116.065C116.403 114.801 117.439 114.203 118.986 114.067V118.052ZM120.226 114.067C121.51 114.146 122.911 114.598 122.911 116.054C122.911 117.499 121.568 117.962 120.226 118.052V114.067Z" fill="white"/>
<path d="M130.123 122.737C130.24 122.737 130.415 122.737 130.415 122.602C130.415 122.557 130.401 122.545 130.211 122.399C128.212 120.942 127.716 118.843 127.716 117.093C127.716 113.842 129.452 112.317 130.196 111.798C130.401 111.651 130.415 111.64 130.415 111.584C130.415 111.527 130.357 111.448 130.211 111.448C129.977 111.448 129.248 112.024 129.131 112.126C127.176 113.706 126.768 115.738 126.768 117.093C126.768 119.621 128.139 121.653 130.123 122.737Z" fill="white"/>
<path d="M140.01 113.232L139.66 113.503C139.412 113.706 139.368 113.785 139.368 113.864C139.368 114 139.528 114.124 139.704 114.124C139.864 114.124 139.937 114.045 139.981 114.011C140.185 113.83 140.535 113.492 141.221 113.243C141.367 113.187 141.527 113.13 141.527 112.972C141.527 112.826 141.381 112.769 141.308 112.724C140.827 112.498 140.696 112.238 140.623 112.069C140.594 111.979 140.521 111.821 140.287 111.821C140.068 111.821 139.952 111.968 139.952 112.08C139.952 112.148 140.054 112.442 140.302 112.713H135.195C134.962 112.713 134.641 112.713 134.641 112.972C134.641 113.232 134.962 113.232 135.195 113.232H140.01Z" fill="white"/>
<path d="M140.239 115.445C140.341 115.354 140.414 115.287 140.414 115.219C140.414 115.117 140.312 115.049 140.21 115.049C140.108 115.049 140.078 115.072 139.947 115.185L136.489 118.018C135.657 116.246 135.657 116.224 135.322 115.738C135.176 115.501 134.811 114.937 133.44 114.937C132.477 114.937 132.083 115.557 132.083 115.716C132.083 115.806 132.17 115.862 132.302 115.862C132.477 115.862 132.491 115.806 132.535 115.716C132.71 115.377 133.104 115.253 133.323 115.253C134.125 115.253 135.293 118.109 135.57 118.764L131.966 121.721C131.82 121.845 131.791 121.857 131.791 121.936C131.791 122.037 131.893 122.105 132.01 122.105C132.054 122.105 132.112 122.105 132.273 121.97L135.73 119.136C136.868 121.755 137.16 121.868 137.715 122.06C137.948 122.139 138.342 122.218 138.78 122.218C139.684 122.218 140.122 121.631 140.122 121.439C140.122 121.337 140.035 121.292 139.903 121.292C139.743 121.292 139.714 121.349 139.67 121.439C139.553 121.687 139.203 121.902 138.882 121.902C138.444 121.902 137.934 121.021 137.729 120.683C137.394 120.118 137.394 120.096 136.635 118.402L140.239 115.445Z" fill="white"/>
<path d="M144.728 116.353C144.728 116.15 144.532 116.014 144.28 116.014C143.984 116.014 143.667 116.234 143.667 116.48C143.667 116.692 143.864 116.819 144.105 116.819C144.455 116.819 144.728 116.565 144.728 116.353ZM144.072 119.308C144.116 119.223 144.214 119.02 144.258 118.944C144.291 118.868 144.335 118.783 144.335 118.639C144.335 118.165 143.787 117.902 143.24 117.902C142.124 117.902 141.588 119.02 141.588 119.206C141.588 119.249 141.632 119.325 141.785 119.325C141.938 119.325 141.971 119.274 142.004 119.198C142.31 118.376 142.89 118.182 143.196 118.182C143.415 118.182 143.492 118.292 143.492 118.487C143.492 118.656 143.426 118.783 143.404 118.842L142.835 119.926C142.704 120.171 142.704 120.188 142.562 120.476C142.42 120.73 142.365 120.84 142.365 120.984C142.365 121.416 142.868 121.721 143.47 121.721C144.575 121.721 145.122 120.603 145.122 120.417C145.122 120.4 145.111 120.298 144.915 120.298C144.761 120.298 144.75 120.341 144.685 120.502C144.51 120.933 144.061 121.441 143.503 121.441C143.306 121.441 143.207 121.34 143.207 121.137C143.207 120.967 143.273 120.84 143.415 120.578L144.072 119.308Z" fill="white"/>
<path d="M151.217 117.093C151.217 116.02 150.984 114.733 150.079 113.401C149.364 112.363 148.036 111.448 147.774 111.448C147.628 111.448 147.584 111.527 147.584 111.584C147.584 111.629 147.584 111.651 147.759 111.787C149.802 113.288 150.269 115.354 150.269 117.093C150.269 120.333 148.532 121.868 147.788 122.387C147.599 122.534 147.584 122.545 147.584 122.602C147.584 122.658 147.628 122.737 147.774 122.737C148.007 122.737 148.737 122.161 148.853 122.06C150.808 120.479 151.217 118.447 151.217 117.093Z" fill="white"/>
<rect x="315" y="113" width="32" height="32" fill="#121619"/>
<path d="M338 128.89L340.427 124.667L338.408 123.5L335.865 127.898C331.573 126.308 326.774 126.916 323.014 129.527C319.254 132.138 317.008 136.422 317 141H319.333C319.336 137.252 321.14 133.733 324.181 131.543C327.222 129.352 331.131 128.756 334.687 129.94L331 136.333C329.944 136.332 329.018 137.041 328.744 138.061C328.47 139.081 328.915 140.158 329.83 140.687C330.744 141.215 331.9 141.064 332.647 140.317C333.394 139.57 333.546 138.415 333.018 137.5L336.833 130.908C340.439 132.99 342.662 136.836 342.667 141H345C344.995 136.003 342.327 131.388 338 128.89Z" fill="white"/>
<path d="M374.962 136.932V136.05H373.632V132.55C373.632 131.668 373.086 130.912 372.302 130.758V130.534C373.086 130.38 373.632 129.624 373.632 128.742V125.242H374.962V124.36H373.786C373.044 124.36 372.666 124.864 372.666 125.508V128.868C372.666 129.666 372.092 130.1 371.308 130.1V131.192C372.092 131.192 372.666 131.626 372.666 132.424V135.784C372.666 136.428 373.044 136.932 373.786 136.932H374.962ZM390.512 133.964H384.66L390.316 126.292V125.228H383.694V126.264H389.042L383.4 133.936V135H390.512V133.964ZM398.954 124.36V125.242H400.284V128.742C400.284 129.624 400.83 130.38 401.614 130.534V130.758C400.83 130.912 400.284 131.668 400.284 132.55V136.05H398.954V136.932H400.13C400.872 136.932 401.25 136.428 401.25 135.784V132.424C401.25 131.626 401.824 131.192 402.608 131.192V130.1C401.824 130.1 401.25 129.666 401.25 128.868V125.508C401.25 124.864 400.872 124.36 400.13 124.36H398.954Z" fill="black"/>
<path d="M416.478 130.8H418.76L420.874 135H422.204L419.964 130.688C421.238 130.394 421.924 129.428 421.924 128C421.924 126.222 420.902 125.228 419.194 125.228H415.302V135H416.478V130.8ZM416.478 129.792V126.264H419.194C420.118 126.264 420.664 126.768 420.664 127.664V128.392C420.664 129.288 420.118 129.792 419.194 129.792H416.478ZM426.816 135.168C428.174 135.168 429.21 134.496 429.672 133.516L428.874 132.942C428.496 133.74 427.796 134.188 426.886 134.188C425.542 134.188 424.744 133.25 424.744 132.004V131.668H429.938V131.136C429.938 129.092 428.748 127.608 426.816 127.608C424.856 127.608 423.568 129.092 423.568 131.388C423.568 133.684 424.856 135.168 426.816 135.168ZM426.816 128.546C427.964 128.546 428.734 129.4 428.734 130.674V130.828H424.744V130.73C424.744 129.47 425.598 128.546 426.816 128.546ZM437.824 135V134.02H436.998V130.044C436.998 128.518 435.962 127.608 434.226 127.608C432.924 127.608 432.056 128.252 431.664 129.022L432.336 129.652C432.728 128.994 433.302 128.574 434.17 128.574C435.318 128.574 435.878 129.134 435.878 130.156V130.87H434.45C432.35 130.87 431.37 131.626 431.37 132.984C431.37 134.328 432.266 135.168 433.792 135.168C434.8 135.168 435.57 134.706 435.878 133.824H435.948C436.032 134.496 436.368 135 437.194 135H437.824ZM433.974 134.216C433.106 134.216 432.546 133.81 432.546 133.096V132.802C432.546 132.102 433.12 131.71 434.394 131.71H435.878V132.9C435.878 133.642 435.08 134.216 433.974 134.216ZM441.766 135V134.02H440.702V124.64H439.582V133.838C439.582 134.51 440.002 135 440.772 135H441.766ZM443.501 137.114L447.155 124.64H446.147L442.493 137.114H443.501ZM450.364 135V130.576H454.606V129.54H450.364V126.264H455.012V125.228H449.188V135H450.364ZM462.376 135V134.02H461.55V130.044C461.55 128.518 460.514 127.608 458.778 127.608C457.476 127.608 456.608 128.252 456.216 129.022L456.888 129.652C457.28 128.994 457.854 128.574 458.722 128.574C459.87 128.574 460.43 129.134 460.43 130.156V130.87H459.002C456.902 130.87 455.922 131.626 455.922 132.984C455.922 134.328 456.818 135.168 458.344 135.168C459.352 135.168 460.122 134.706 460.43 133.824H460.5C460.584 134.496 460.92 135 461.746 135H462.376ZM458.526 134.216C457.658 134.216 457.098 133.81 457.098 133.096V132.802C457.098 132.102 457.672 131.71 458.946 131.71H460.43V132.9C460.43 133.642 459.632 134.216 458.526 134.216ZM464.134 135H465.254V132.424L466.332 131.318L468.726 135H470.084L467.144 130.632L469.818 127.776H468.46L466.416 129.974L465.31 131.206H465.254V124.64H464.134V135ZM474.161 135.168C475.519 135.168 476.555 134.496 477.017 133.516L476.219 132.942C475.841 133.74 475.141 134.188 474.231 134.188C472.887 134.188 472.089 133.25 472.089 132.004V131.668H477.283V131.136C477.283 129.092 476.093 127.608 474.161 127.608C472.201 127.608 470.913 129.092 470.913 131.388C470.913 133.684 472.201 135.168 474.161 135.168ZM474.161 128.546C475.309 128.546 476.079 129.4 476.079 130.674V130.828H472.089V130.73C472.089 129.47 472.943 128.546 474.161 128.546Z" fill="black"/>
<path d="M208.254 115.294C208.152 115.693 208.129 115.807 207.331 115.807C207.114 115.807 207 115.807 207 116.013C207 116.138 207.068 116.138 207.296 116.138H210.911C213.214 116.138 215.46 113.755 215.46 111.213C215.46 109.571 214.48 108.351 212.849 108.351H209.189C208.972 108.351 208.87 108.351 208.87 108.567C208.87 108.681 208.972 108.681 209.144 108.681C209.839 108.681 209.839 108.773 209.839 108.898C209.839 108.921 209.839 108.989 209.793 109.16L208.254 115.294ZM210.66 109.126C210.763 108.704 210.808 108.681 211.253 108.681H212.507C213.579 108.681 214.559 109.263 214.559 110.836C214.559 111.406 214.331 113.39 213.225 114.645C212.906 115.021 212.04 115.807 210.728 115.807H209.429C209.269 115.807 209.246 115.807 209.178 115.796C209.052 115.785 209.041 115.762 209.041 115.671C209.041 115.591 209.064 115.522 209.087 115.42L210.66 109.126Z" fill="white"/>
<path d="M219.75 118.909C219.75 118.875 219.75 118.852 219.556 118.658C218.416 117.506 217.778 115.625 217.778 113.299C217.778 111.087 218.314 109.183 219.636 107.838C219.75 107.735 219.75 107.712 219.75 107.678C219.75 107.61 219.693 107.587 219.648 107.587C219.499 107.587 218.565 108.408 218.006 109.525C217.424 110.677 217.162 111.897 217.162 113.299C217.162 114.314 217.322 115.671 217.915 116.891C218.587 118.259 219.522 119 219.648 119C219.693 119 219.75 118.977 219.75 118.909Z" fill="white"/>
<path d="M226.503 106.323C226.366 106.448 225.944 106.847 225.944 107.007C225.944 107.121 226.047 107.223 226.161 107.223C226.264 107.223 226.309 107.155 226.389 107.041C226.663 106.699 226.97 106.482 227.233 106.334C227.347 106.266 227.427 106.231 227.427 106.106C227.427 106.003 227.335 105.946 227.267 105.889C226.948 105.673 226.868 105.365 226.834 105.228C226.799 105.137 226.765 105 226.606 105C226.537 105 226.4 105.046 226.4 105.217C226.4 105.319 226.469 105.593 226.685 105.901H222.854C222.661 105.901 222.467 105.901 222.467 106.117C222.467 106.323 222.672 106.323 222.854 106.323H226.503Z" fill="white"/>
<path d="M225.437 110.403C225.437 109.24 225.072 108.111 224.137 108.111C222.541 108.111 220.842 111.452 220.842 113.96C220.842 114.485 220.956 116.252 222.153 116.252C223.704 116.252 225.437 112.991 225.437 110.403ZM221.982 112.011C222.153 111.338 222.392 110.38 222.848 109.571C223.225 108.887 223.624 108.339 224.125 108.339C224.502 108.339 224.753 108.659 224.753 109.753C224.753 110.164 224.718 110.734 224.388 112.011H221.982ZM224.308 112.353C224.023 113.47 223.783 114.188 223.373 114.907C223.042 115.488 222.643 116.024 222.164 116.024C221.811 116.024 221.526 115.751 221.526 114.622C221.526 113.881 221.708 113.105 221.891 112.353H224.308Z" fill="white"/>
<path d="M229.114 113.299C229.114 112.433 229 111.019 228.361 109.696C227.688 108.328 226.753 107.587 226.628 107.587C226.582 107.587 226.525 107.61 226.525 107.678C226.525 107.712 226.525 107.735 226.719 107.929C227.859 109.08 228.498 110.962 228.498 113.288C228.498 115.5 227.962 117.404 226.639 118.749C226.525 118.852 226.525 118.875 226.525 118.909C226.525 118.977 226.582 119 226.628 119C226.776 119 227.711 118.179 228.27 117.062C228.851 115.899 229.114 114.667 229.114 113.299Z" fill="white"/>
<rect x="121" y="65" width="32" height="32" fill="#6929C4"/>
<path d="M132.486 70.832V77.424C132.486 80.672 133.478 82.192 136.454 82.192C139.43 82.192 140.518 80.672 140.518 77.424V70.832H139.174V77.744C139.174 79.872 138.486 80.992 136.502 80.992C134.518 80.992 133.83 79.872 133.83 77.744V70.832H132.486Z" fill="white"/>
<line x1="82.67" y1="89.4641" x2="100.701" y2="73.6244" stroke="black"/>
<path d="M84.3315 75V69.988C84.3315 69.064 85.1995 68.616 86.0955 68.616C87.1735 68.616 87.7335 69.274 87.7335 70.562V75H88.8535V70.366C88.8535 68.616 87.9155 67.608 86.4315 67.608C85.3535 67.608 84.7375 68.14 84.3875 68.952H84.3315V67.776H83.2115V75H84.3315Z" fill="black"/>
<path d="M214.232 91.228V96.996C214.232 99.838 215.1 101.168 217.704 101.168C220.308 101.168 221.26 99.838 221.26 96.996V91.228H220.084V97.276C220.084 99.138 219.482 100.118 217.746 100.118C216.01 100.118 215.408 99.138 215.408 97.276V91.228H214.232Z" fill="white"/>
</g>
<path d="M134.235 85.5253C134.235 85.4446 134.172 85.4446 134.154 85.4446C134.137 85.4446 134.101 85.4446 134.029 85.5342L133.411 86.2778C133.366 86.2061 133.187 85.8926 132.838 85.6865C132.452 85.4446 132.067 85.4446 131.933 85.4446C130.016 85.4446 128 87.3976 128 89.5118C128 90.99 129.021 91.9396 130.365 91.9396C131.01 91.9396 131.825 91.7245 132.273 91.1602C132.372 91.5006 132.569 91.7425 132.632 91.7425C132.676 91.7425 132.685 91.7156 132.694 91.7156C132.703 91.6977 132.775 91.3841 132.82 91.2229L132.963 90.6495C133.035 90.3539 133.071 90.2285 133.133 89.9597C133.223 89.6193 133.241 89.5924 133.733 89.5835C133.769 89.5835 133.877 89.5835 133.877 89.4133C133.877 89.3237 133.787 89.3237 133.76 89.3237C133.608 89.3237 133.438 89.3416 133.277 89.3416H132.793C132.417 89.3416 132.022 89.3237 131.655 89.3237C131.574 89.3237 131.467 89.3237 131.467 89.4849C131.467 89.5745 131.539 89.5745 131.539 89.5835H131.763C132.47 89.5835 132.47 89.6551 132.47 89.7895C132.47 89.7985 132.3 90.7033 132.13 90.972C131.789 91.4737 131.082 91.6798 130.553 91.6798C129.863 91.6798 128.744 91.3214 128.744 89.7716C128.744 89.1714 128.959 87.8007 129.828 86.7884C130.392 86.1434 131.225 85.7044 132.013 85.7044C133.071 85.7044 133.447 86.6092 133.447 87.4334C133.447 87.5768 133.411 87.7738 133.411 87.8993C133.411 87.9799 133.501 87.9799 133.527 87.9799C133.626 87.9799 133.635 87.9709 133.671 87.8097L134.235 85.5253Z" fill="white"/>
<path d="M137.383 93.9283C137.383 93.9014 137.383 93.8835 137.231 93.7312C136.335 92.8264 135.833 91.3483 135.833 89.5207C135.833 87.7828 136.254 86.2867 137.294 85.2296C137.383 85.149 137.383 85.1311 137.383 85.1042C137.383 85.0504 137.338 85.0325 137.303 85.0325C137.186 85.0325 136.452 85.6775 136.013 86.5555C135.556 87.4603 135.35 88.4188 135.35 89.5207C135.35 90.318 135.475 91.3841 135.941 92.3427C136.469 93.4177 137.204 94 137.303 94C137.338 94 137.383 93.9821 137.383 93.9283Z" fill="white"/>
<path d="M142.691 84.0392C142.583 84.1377 142.252 84.4513 142.252 84.5767C142.252 84.6663 142.332 84.7469 142.422 84.7469C142.503 84.7469 142.539 84.6932 142.601 84.6036C142.816 84.3348 143.058 84.1646 143.264 84.0481C143.354 83.9944 143.416 83.9675 143.416 83.869C143.416 83.7883 143.345 83.7436 143.291 83.6988C143.04 83.5286 142.978 83.2867 142.951 83.1792C142.924 83.1075 142.897 83 142.771 83C142.718 83 142.61 83.0358 142.61 83.1702C142.61 83.2508 142.664 83.4658 142.834 83.7077H139.824C139.672 83.7077 139.52 83.7077 139.52 83.8779C139.52 84.0392 139.681 84.0392 139.824 84.0392H142.691Z" fill="white"/>
<path d="M141.851 87.2453C141.851 86.3315 141.564 85.4446 140.829 85.4446C139.575 85.4446 138.24 88.0695 138.24 90.0403C138.24 90.4524 138.33 91.841 139.27 91.841C140.489 91.841 141.851 89.2789 141.851 87.2453ZM139.136 88.5084C139.27 87.9799 139.459 87.2274 139.817 86.5913C140.113 86.0538 140.426 85.6238 140.82 85.6238C141.116 85.6238 141.313 85.8746 141.313 86.7347C141.313 87.0572 141.286 87.5051 141.026 88.5084H139.136ZM140.964 88.7772C140.74 89.6551 140.552 90.2195 140.229 90.7839C139.969 91.2408 139.656 91.6618 139.279 91.6618C139.002 91.6618 138.778 91.4468 138.778 90.5599C138.778 89.9776 138.921 89.3685 139.064 88.7772H140.964Z" fill="white"/>
<path d="M144.741 89.5207C144.741 88.8399 144.651 87.729 144.149 86.6899C143.621 85.6148 142.886 85.0325 142.788 85.0325C142.752 85.0325 142.707 85.0504 142.707 85.1042C142.707 85.1311 142.707 85.149 142.859 85.3013C143.755 86.2061 144.257 87.6842 144.257 89.5118C144.257 91.2497 143.836 92.7458 142.797 93.8029C142.707 93.8835 142.707 93.9014 142.707 93.9283C142.707 93.9821 142.752 94 142.788 94C142.904 94 143.639 93.355 144.078 92.477C144.535 91.5633 144.741 90.5958 144.741 89.5207Z" fill="white"/>
<defs>
<clipPath id="clip0_1044_18752">
<rect width="506" height="212" fill="white"/>
</clipPath>
</defs>
</svg>
