<svg width="535" height="304" viewBox="0 0 535 304" fill="none" xmlns="http://www.w3.org/2000/svg">
<g clip-path="url(#clip0_967_18703)">
<rect width="535" height="304" fill="white"/>
<rect opacity="0.4" y="266" width="535" height="38" fill="#F2F4F8"/>
<rect opacity="0.4" y="190" width="535" height="38" fill="#F2F4F8"/>
<rect opacity="0.4" y="114" width="535" height="38" fill="#F2F4F8"/>
<rect opacity="0.4" y="38" width="535" height="38" fill="#F2F4F8"/>
<rect x="0.5" y="0.5" width="534" height="303" stroke="#DDE1E6"/>
<rect width="150" height="88" transform="translate(32 32)" fill="#6929C4"/>
<rect width="150" height="88" transform="translate(32 186)" fill="#6929C4"/>
<rect width="150" height="88" transform="translate(353 109)" fill="#6929C4"/>
<path d="M314 153H310C307.239 153 305 150.761 305 148V97C305 94.2386 302.761 92 300 92H206" stroke="#343A3F"/>
<path d="M314 153H310C307.239 153 305 155.239 305 158V214C305 216.761 302.761 219 300 219H206" stroke="#343A3F"/>
<path d="M325 154.5L329 153L325 151.5V154.5Z" fill="#343A3F"/>
<line x1="325" y1="153" x2="314" y2="153" stroke="#343A3F"/>
<path d="M82.302 81H85.578C88.014 81 89.582 79.376 89.582 76.114C89.582 72.852 88.014 71.228 85.578 71.228H82.302V81ZM83.478 79.964V72.264H85.578C87.188 72.264 88.322 73.384 88.322 75.316V76.912C88.322 78.844 87.188 79.964 85.578 79.964H83.478ZM97.6226 81V80.02H96.7966V76.044C96.7966 74.518 95.7606 73.608 94.0246 73.608C92.7226 73.608 91.8546 74.252 91.4626 75.022L92.1346 75.652C92.5266 74.994 93.1006 74.574 93.9686 74.574C95.1166 74.574 95.6766 75.134 95.6766 76.156V76.87H94.2486C92.1486 76.87 91.1686 77.626 91.1686 78.984C91.1686 80.328 92.0646 81.168 93.5906 81.168C94.5986 81.168 95.3686 80.706 95.6766 79.824H95.7466C95.8306 80.496 96.1666 81 96.9926 81H97.6226ZM93.7726 80.216C92.9046 80.216 92.3446 79.81 92.3446 79.096V78.802C92.3446 78.102 92.9186 77.71 94.1926 77.71H95.6766V78.9C95.6766 79.642 94.8786 80.216 93.7726 80.216ZM102.377 81V80.02H100.907V74.756H102.489V73.776H100.907V71.774H99.8991V73.118C99.8991 73.608 99.7451 73.776 99.2691 73.776H98.5971V74.756H99.7871V79.81C99.7871 80.51 100.207 81 100.977 81H102.377ZM110.329 81V80.02H109.503V76.044C109.503 74.518 108.467 73.608 106.731 73.608C105.429 73.608 104.561 74.252 104.169 75.022L104.841 75.652C105.233 74.994 105.807 74.574 106.675 74.574C107.823 74.574 108.383 75.134 108.383 76.156V76.87H106.955C104.855 76.87 103.875 77.626 103.875 78.984C103.875 80.328 104.771 81.168 106.297 81.168C107.305 81.168 108.075 80.706 108.383 79.824H108.453C108.537 80.496 108.873 81 109.699 81H110.329ZM106.479 80.216C105.611 80.216 105.051 79.81 105.051 79.096V78.802C105.051 78.102 105.625 77.71 106.899 77.71H108.383V78.9C108.383 79.642 107.585 80.216 106.479 80.216ZM114.258 81.168C115.91 81.168 116.932 80.314 116.932 78.914C116.932 77.822 116.316 77.122 114.72 76.884L114.16 76.8C113.264 76.66 112.774 76.38 112.774 75.68C112.774 74.994 113.264 74.56 114.188 74.56C115.112 74.56 115.728 74.994 116.05 75.442L116.792 74.77C116.204 74.042 115.434 73.608 114.272 73.608C112.802 73.608 111.696 74.308 111.696 75.736C111.696 77.08 112.69 77.626 114.02 77.822L114.594 77.906C115.546 78.046 115.854 78.48 115.854 79.04C115.854 79.782 115.294 80.216 114.342 80.216C113.432 80.216 112.76 79.81 112.2 79.11L111.402 79.754C112.046 80.608 112.928 81.168 114.258 81.168ZM121.786 81.168C123.144 81.168 124.18 80.496 124.642 79.516L123.844 78.942C123.466 79.74 122.766 80.188 121.856 80.188C120.512 80.188 119.714 79.25 119.714 78.004V77.668H124.908V77.136C124.908 75.092 123.718 73.608 121.786 73.608C119.826 73.608 118.538 75.092 118.538 77.388C118.538 79.684 119.826 81.168 121.786 81.168ZM121.786 74.546C122.934 74.546 123.704 75.4 123.704 76.674V76.828H119.714V76.73C119.714 75.47 120.568 74.546 121.786 74.546ZM129.91 81V80.02H128.44V74.756H130.022V73.776H128.44V71.774H127.432V73.118C127.432 73.608 127.278 73.776 126.802 73.776H126.13V74.756H127.32V79.81C127.32 80.51 127.74 81 128.51 81H129.91Z" fill="white"/>
<path d="M208.478 66.8H210.76L212.874 71H214.204L211.964 66.688C213.238 66.394 213.924 65.428 213.924 64C213.924 62.222 212.902 61.228 211.194 61.228H207.302V71H208.478V66.8ZM208.478 65.792V62.264H211.194C212.118 62.264 212.664 62.768 212.664 63.664V64.392C212.664 65.288 212.118 65.792 211.194 65.792H208.478ZM218.816 71.168C220.174 71.168 221.21 70.496 221.672 69.516L220.874 68.942C220.496 69.74 219.796 70.188 218.886 70.188C217.542 70.188 216.744 69.25 216.744 68.004V67.668H221.938V67.136C221.938 65.092 220.748 63.608 218.816 63.608C216.856 63.608 215.568 65.092 215.568 67.388C215.568 69.684 216.856 71.168 218.816 71.168ZM218.816 64.546C219.964 64.546 220.734 65.4 220.734 66.674V66.828H216.744V66.73C216.744 65.47 217.598 64.546 218.816 64.546ZM229.824 71V70.02H228.998V66.044C228.998 64.518 227.962 63.608 226.226 63.608C224.924 63.608 224.056 64.252 223.664 65.022L224.336 65.652C224.728 64.994 225.302 64.574 226.17 64.574C227.318 64.574 227.878 65.134 227.878 66.156V66.87H226.45C224.35 66.87 223.37 67.626 223.37 68.984C223.37 70.328 224.266 71.168 225.792 71.168C226.8 71.168 227.57 70.706 227.878 69.824H227.948C228.032 70.496 228.368 71 229.194 71H229.824ZM225.974 70.216C225.106 70.216 224.546 69.81 224.546 69.096V68.802C224.546 68.102 225.12 67.71 226.394 67.71H227.878V68.9C227.878 69.642 227.08 70.216 225.974 70.216ZM233.766 71V70.02H232.702V60.64H231.582V69.838C231.582 70.51 232.002 71 232.772 71H233.766ZM245.101 71V69.964H240.313V66.576H244.821V65.54H240.313V62.264H245.101V61.228H239.137V71H245.101ZM246.451 71H247.697L249.727 68.172H249.769L251.645 71H252.961L250.357 67.276L252.905 63.776H251.659L249.755 66.464H249.713L247.879 63.776H246.563L249.125 67.36L246.451 71ZM260.483 71V70.02H259.657V66.044C259.657 64.518 258.621 63.608 256.885 63.608C255.583 63.608 254.715 64.252 254.323 65.022L254.995 65.652C255.387 64.994 255.961 64.574 256.829 64.574C257.977 64.574 258.537 65.134 258.537 66.156V66.87H257.109C255.009 66.87 254.029 67.626 254.029 68.984C254.029 70.328 254.925 71.168 256.451 71.168C257.459 71.168 258.229 70.706 258.537 69.824H258.607C258.691 70.496 259.027 71 259.853 71H260.483ZM256.633 70.216C255.765 70.216 255.205 69.81 255.205 69.096V68.802C255.205 68.102 255.779 67.71 257.053 67.71H258.537V68.9C258.537 69.642 257.739 70.216 256.633 70.216ZM263.361 71V65.988C263.361 65.064 264.201 64.616 265.083 64.616C266.147 64.616 266.637 65.274 266.637 66.562V71H267.757V65.988C267.757 65.064 268.569 64.616 269.451 64.616C270.543 64.616 271.033 65.288 271.033 66.562V71H272.153V66.366C272.153 64.616 271.271 63.608 269.801 63.608C268.569 63.608 267.869 64.294 267.603 65.078H267.575C267.183 64.042 266.315 63.608 265.363 63.608C264.243 63.608 263.739 64.21 263.417 64.952H263.361V63.776H262.241V71H263.361ZM274.624 73.8H275.744V69.824H275.8C276.234 70.72 276.92 71.168 277.914 71.168C279.72 71.168 280.854 69.698 280.854 67.388C280.854 65.078 279.72 63.608 277.914 63.608C276.92 63.608 276.178 64.042 275.8 64.952H275.744V63.776H274.624V73.8ZM277.606 70.16C276.584 70.16 275.744 69.628 275.744 68.69V66.002C275.744 65.204 276.584 64.616 277.606 64.616C278.866 64.616 279.65 65.484 279.65 66.772V68.004C279.65 69.292 278.866 70.16 277.606 70.16ZM285.089 71V70.02H284.025V60.64H282.905V69.838C282.905 70.51 283.325 71 284.095 71H285.089ZM289.596 71.168C290.954 71.168 291.99 70.496 292.452 69.516L291.654 68.942C291.276 69.74 290.576 70.188 289.666 70.188C288.322 70.188 287.524 69.25 287.524 68.004V67.668H292.718V67.136C292.718 65.092 291.528 63.608 289.596 63.608C287.636 63.608 286.348 65.092 286.348 67.388C286.348 69.684 287.636 71.168 289.596 71.168ZM289.596 64.546C290.744 64.546 291.514 65.4 291.514 66.674V66.828H287.524V66.73C287.524 65.47 288.378 64.546 289.596 64.546ZM296.893 71.168C298.545 71.168 299.567 70.314 299.567 68.914C299.567 67.822 298.951 67.122 297.355 66.884L296.795 66.8C295.899 66.66 295.409 66.38 295.409 65.68C295.409 64.994 295.899 64.56 296.823 64.56C297.747 64.56 298.363 64.994 298.685 65.442L299.427 64.77C298.839 64.042 298.069 63.608 296.907 63.608C295.437 63.608 294.331 64.308 294.331 65.736C294.331 67.08 295.325 67.626 296.655 67.822L297.229 67.906C298.181 68.046 298.489 68.48 298.489 69.04C298.489 69.782 297.929 70.216 296.977 70.216C296.067 70.216 295.395 69.81 294.835 69.11L294.037 69.754C294.681 70.608 295.563 71.168 296.893 71.168Z" fill="#121619"/>
<path d="M208.478 250V245.576H212.72V244.54H208.478V241.264H213.126V240.228H207.302V250H208.478ZM220.49 250V249.02H219.664V245.044C219.664 243.518 218.628 242.608 216.892 242.608C215.59 242.608 214.722 243.252 214.33 244.022L215.002 244.652C215.394 243.994 215.968 243.574 216.836 243.574C217.984 243.574 218.544 244.134 218.544 245.156V245.87H217.116C215.016 245.87 214.036 246.626 214.036 247.984C214.036 249.328 214.932 250.168 216.458 250.168C217.466 250.168 218.236 249.706 218.544 248.824H218.614C218.698 249.496 219.034 250 219.86 250H220.49ZM216.64 249.216C215.772 249.216 215.212 248.81 215.212 248.096V247.802C215.212 247.102 215.786 246.71 217.06 246.71H218.544V247.9C218.544 248.642 217.746 249.216 216.64 249.216ZM222.248 250H223.368V247.424L224.446 246.318L226.84 250H228.198L225.258 245.632L227.932 242.776H226.574L224.53 244.974L223.424 246.206H223.368V239.64H222.248V250ZM232.275 250.168C233.633 250.168 234.669 249.496 235.131 248.516L234.333 247.942C233.955 248.74 233.255 249.188 232.345 249.188C231.001 249.188 230.203 248.25 230.203 247.004V246.668H235.397V246.136C235.397 244.092 234.207 242.608 232.275 242.608C230.315 242.608 229.027 244.092 229.027 246.388C229.027 248.684 230.315 250.168 232.275 250.168ZM232.275 243.546C233.423 243.546 234.193 244.4 234.193 245.674V245.828H230.203V245.73C230.203 244.47 231.057 243.546 232.275 243.546ZM246.947 250V248.964H242.159V245.576H246.667V244.54H242.159V241.264H246.947V240.228H240.983V250H246.947ZM248.297 250H249.543L251.573 247.172H251.615L253.491 250H254.807L252.203 246.276L254.751 242.776H253.505L251.601 245.464H251.559L249.725 242.776H248.409L250.971 246.36L248.297 250ZM262.329 250V249.02H261.503V245.044C261.503 243.518 260.467 242.608 258.731 242.608C257.429 242.608 256.561 243.252 256.169 244.022L256.841 244.652C257.233 243.994 257.807 243.574 258.675 243.574C259.823 243.574 260.383 244.134 260.383 245.156V245.87H258.955C256.855 245.87 255.875 246.626 255.875 247.984C255.875 249.328 256.771 250.168 258.297 250.168C259.305 250.168 260.075 249.706 260.383 248.824H260.453C260.537 249.496 260.873 250 261.699 250H262.329ZM258.479 249.216C257.611 249.216 257.051 248.81 257.051 248.096V247.802C257.051 247.102 257.625 246.71 258.899 246.71H260.383V247.9C260.383 248.642 259.585 249.216 258.479 249.216ZM265.207 250V244.988C265.207 244.064 266.047 243.616 266.929 243.616C267.993 243.616 268.483 244.274 268.483 245.562V250H269.603V244.988C269.603 244.064 270.415 243.616 271.297 243.616C272.389 243.616 272.879 244.288 272.879 245.562V250H273.999V245.366C273.999 243.616 273.117 242.608 271.647 242.608C270.415 242.608 269.715 243.294 269.449 244.078H269.421C269.029 243.042 268.161 242.608 267.209 242.608C266.089 242.608 265.585 243.21 265.263 243.952H265.207V242.776H264.087V250H265.207ZM276.47 252.8H277.59V248.824H277.646C278.08 249.72 278.766 250.168 279.76 250.168C281.566 250.168 282.7 248.698 282.7 246.388C282.7 244.078 281.566 242.608 279.76 242.608C278.766 242.608 278.024 243.042 277.646 243.952H277.59V242.776H276.47V252.8ZM279.452 249.16C278.43 249.16 277.59 248.628 277.59 247.69V245.002C277.59 244.204 278.43 243.616 279.452 243.616C280.712 243.616 281.496 244.484 281.496 245.772V247.004C281.496 248.292 280.712 249.16 279.452 249.16ZM286.935 250V249.02H285.871V239.64H284.751V248.838C284.751 249.51 285.171 250 285.941 250H286.935ZM291.441 250.168C292.799 250.168 293.835 249.496 294.297 248.516L293.499 247.942C293.121 248.74 292.421 249.188 291.511 249.188C290.167 249.188 289.369 248.25 289.369 247.004V246.668H294.563V246.136C294.563 244.092 293.373 242.608 291.441 242.608C289.481 242.608 288.193 244.092 288.193 246.388C288.193 248.684 289.481 250.168 291.441 250.168ZM291.441 243.546C292.589 243.546 293.359 244.4 293.359 245.674V245.828H289.369V245.73C289.369 244.47 290.223 243.546 291.441 243.546ZM298.739 250.168C300.391 250.168 301.413 249.314 301.413 247.914C301.413 246.822 300.797 246.122 299.201 245.884L298.641 245.8C297.745 245.66 297.255 245.38 297.255 244.68C297.255 243.994 297.745 243.56 298.669 243.56C299.593 243.56 300.209 243.994 300.531 244.442L301.273 243.77C300.685 243.042 299.915 242.608 298.753 242.608C297.283 242.608 296.177 243.308 296.177 244.736C296.177 246.08 297.171 246.626 298.501 246.822L299.075 246.906C300.027 247.046 300.335 247.48 300.335 248.04C300.335 248.782 299.775 249.216 298.823 249.216C297.913 249.216 297.241 248.81 296.681 248.11L295.883 248.754C296.527 249.608 297.409 250.168 298.739 250.168Z" fill="#121619"/>
<path d="M81.63 235H82.722V229.974H79.418V231.01H81.574V231.976C81.574 233.418 80.44 234.118 79.082 234.118C77.22 234.118 76.072 232.83 76.072 230.898V229.316C76.072 227.384 77.248 226.11 78.97 226.11C80.202 226.11 81.112 226.754 81.56 227.79L82.526 227.202C81.896 225.928 80.72 225.06 78.97 225.06C76.464 225.06 74.812 226.866 74.812 230.114C74.812 233.39 76.478 235.168 78.872 235.168C80.356 235.168 81.35 234.482 81.588 233.572H81.63V235ZM87.8004 235.168C89.1584 235.168 90.1944 234.496 90.6564 233.516L89.8584 232.942C89.4804 233.74 88.7804 234.188 87.8704 234.188C86.5264 234.188 85.7284 233.25 85.7284 232.004V231.668H90.9224V231.136C90.9224 229.092 89.7324 227.608 87.8004 227.608C85.8404 227.608 84.5524 229.092 84.5524 231.388C84.5524 233.684 85.8404 235.168 87.8004 235.168ZM87.8004 228.546C88.9484 228.546 89.7184 229.4 89.7184 230.674V230.828H85.7284V230.73C85.7284 229.47 86.5824 228.546 87.8004 228.546ZM94.048 235V229.988C94.048 229.064 94.916 228.616 95.812 228.616C96.89 228.616 97.45 229.274 97.45 230.562V235H98.57V230.366C98.57 228.616 97.632 227.608 96.148 227.608C95.07 227.608 94.454 228.14 94.104 228.952H94.048V227.776H92.928V235H94.048ZM103.761 235.168C105.119 235.168 106.155 234.496 106.617 233.516L105.819 232.942C105.441 233.74 104.741 234.188 103.831 234.188C102.487 234.188 101.689 233.25 101.689 232.004V231.668H106.883V231.136C106.883 229.092 105.693 227.608 103.761 227.608C101.801 227.608 100.513 229.092 100.513 231.388C100.513 233.684 101.801 235.168 103.761 235.168ZM103.761 228.546C104.909 228.546 105.679 229.4 105.679 230.674V230.828H101.689V230.73C101.689 229.47 102.543 228.546 103.761 228.546ZM110.009 235V230.1C110.009 229.414 110.737 228.896 111.941 228.896H112.599V227.776H112.165C110.989 227.776 110.331 228.42 110.079 229.106H110.009V227.776H108.889V235H110.009ZM120.015 235V234.02H119.189V230.044C119.189 228.518 118.153 227.608 116.417 227.608C115.115 227.608 114.247 228.252 113.855 229.022L114.527 229.652C114.919 228.994 115.493 228.574 116.361 228.574C117.509 228.574 118.069 229.134 118.069 230.156V230.87H116.641C114.541 230.87 113.561 231.626 113.561 232.984C113.561 234.328 114.457 235.168 115.983 235.168C116.991 235.168 117.761 234.706 118.069 233.824H118.139C118.223 234.496 118.559 235 119.385 235H120.015ZM116.165 234.216C115.297 234.216 114.737 233.81 114.737 233.096V232.802C114.737 232.102 115.311 231.71 116.585 231.71H118.069V232.9C118.069 233.642 117.271 234.216 116.165 234.216ZM124.769 235V234.02H123.299V228.756H124.881V227.776H123.299V225.774H122.291V227.118C122.291 227.608 122.137 227.776 121.661 227.776H120.989V228.756H122.179V233.81C122.179 234.51 122.599 235 123.369 235H124.769ZM129.517 235.168C131.449 235.168 132.779 233.684 132.779 231.388C132.779 229.092 131.449 227.608 129.517 227.608C127.585 227.608 126.255 229.092 126.255 231.388C126.255 233.684 127.585 235.168 129.517 235.168ZM129.517 234.174C128.313 234.174 127.459 233.432 127.459 231.906V230.87C127.459 229.344 128.313 228.602 129.517 228.602C130.721 228.602 131.575 229.344 131.575 230.87V231.906C131.575 233.432 130.721 234.174 129.517 234.174ZM135.901 235V230.1C135.901 229.414 136.629 228.896 137.833 228.896H138.491V227.776H138.057C136.881 227.776 136.223 228.42 135.971 229.106H135.901V227.776H134.781V235H135.901Z" fill="white"/>
<path d="M385.302 158H388.578C391.014 158 392.582 156.376 392.582 153.114C392.582 149.852 391.014 148.228 388.578 148.228H385.302V158ZM386.478 156.964V149.264H388.578C390.188 149.264 391.322 150.384 391.322 152.316V153.912C391.322 155.844 390.188 156.964 388.578 156.964H386.478ZM395.303 149.082C395.779 149.082 395.989 148.83 395.989 148.452V148.27C395.989 147.892 395.779 147.64 395.303 147.64C394.827 147.64 394.617 147.892 394.617 148.27V148.452C394.617 148.83 394.827 149.082 395.303 149.082ZM394.743 158H395.863V150.776H394.743V158ZM400.573 158.168C402.225 158.168 403.247 157.314 403.247 155.914C403.247 154.822 402.631 154.122 401.035 153.884L400.475 153.8C399.579 153.66 399.089 153.38 399.089 152.68C399.089 151.994 399.579 151.56 400.503 151.56C401.427 151.56 402.043 151.994 402.365 152.442L403.107 151.77C402.519 151.042 401.749 150.608 400.587 150.608C399.117 150.608 398.011 151.308 398.011 152.736C398.011 154.08 399.005 154.626 400.335 154.822L400.909 154.906C401.861 155.046 402.169 155.48 402.169 156.04C402.169 156.782 401.609 157.216 400.657 157.216C399.747 157.216 399.075 156.81 398.515 156.11L397.717 156.754C398.361 157.608 399.243 158.168 400.573 158.168ZM408.073 158.168C409.445 158.168 410.383 157.496 410.845 156.46L410.033 155.914C409.641 156.74 408.983 157.174 408.073 157.174C406.743 157.174 406.057 156.264 406.057 155.004V153.772C406.057 152.512 406.743 151.602 408.073 151.602C408.955 151.602 409.571 152.036 409.837 152.778L410.775 152.302C410.355 151.308 409.501 150.608 408.073 150.608C406.043 150.608 404.853 152.078 404.853 154.388C404.853 156.698 406.043 158.168 408.073 158.168ZM413.706 158V153.1C413.706 152.414 414.434 151.896 415.638 151.896H416.296V150.776H415.862C414.686 150.776 414.028 151.42 413.776 152.106H413.706V150.776H412.586V158H413.706ZM418.446 149.082C418.922 149.082 419.132 148.83 419.132 148.452V148.27C419.132 147.892 418.922 147.64 418.446 147.64C417.97 147.64 417.76 147.892 417.76 148.27V148.452C417.76 148.83 417.97 149.082 418.446 149.082ZM417.886 158H419.006V150.776H417.886V158ZM422.666 158V152.988C422.666 152.064 423.506 151.616 424.388 151.616C425.452 151.616 425.942 152.274 425.942 153.562V158H427.062V152.988C427.062 152.064 427.874 151.616 428.756 151.616C429.848 151.616 430.338 152.288 430.338 153.562V158H431.458V153.366C431.458 151.616 430.576 150.608 429.106 150.608C427.874 150.608 427.174 151.294 426.908 152.078H426.88C426.488 151.042 425.62 150.608 424.668 150.608C423.548 150.608 423.044 151.21 422.722 151.952H422.666V150.776H421.546V158H422.666ZM434.489 149.082C434.965 149.082 435.175 148.83 435.175 148.452V148.27C435.175 147.892 434.965 147.64 434.489 147.64C434.013 147.64 433.803 147.892 433.803 148.27V148.452C433.803 148.83 434.013 149.082 434.489 149.082ZM433.929 158H435.049V150.776H433.929V158ZM438.709 158V152.988C438.709 152.064 439.577 151.616 440.473 151.616C441.551 151.616 442.111 152.274 442.111 153.562V158H443.231V153.366C443.231 151.616 442.293 150.608 440.809 150.608C439.731 150.608 439.115 151.14 438.765 151.952H438.709V150.776H437.589V158H438.709ZM451.586 158V157.02H450.76V153.044C450.76 151.518 449.724 150.608 447.988 150.608C446.686 150.608 445.818 151.252 445.426 152.022L446.098 152.652C446.49 151.994 447.064 151.574 447.932 151.574C449.08 151.574 449.64 152.134 449.64 153.156V153.87H448.212C446.112 153.87 445.132 154.626 445.132 155.984C445.132 157.328 446.028 158.168 447.554 158.168C448.562 158.168 449.332 157.706 449.64 156.824H449.71C449.794 157.496 450.13 158 450.956 158H451.586ZM447.736 157.216C446.868 157.216 446.308 156.81 446.308 156.096V155.802C446.308 155.102 446.882 154.71 448.156 154.71H449.64V155.9C449.64 156.642 448.842 157.216 447.736 157.216ZM456.341 158V157.02H454.871V151.756H456.453V150.776H454.871V148.774H453.863V150.118C453.863 150.608 453.709 150.776 453.233 150.776H452.561V151.756H453.751V156.81C453.751 157.51 454.171 158 454.941 158H456.341ZM461.088 158.168C463.02 158.168 464.35 156.684 464.35 154.388C464.35 152.092 463.02 150.608 461.088 150.608C459.156 150.608 457.826 152.092 457.826 154.388C457.826 156.684 459.156 158.168 461.088 158.168ZM461.088 157.174C459.884 157.174 459.03 156.432 459.03 154.906V153.87C459.03 152.344 459.884 151.602 461.088 151.602C462.292 151.602 463.146 152.344 463.146 153.87V154.906C463.146 156.432 462.292 157.174 461.088 157.174ZM467.472 158V153.1C467.472 152.414 468.2 151.896 469.404 151.896H470.062V150.776H469.628C468.452 150.776 467.794 151.42 467.542 152.106H467.472V150.776H466.352V158H467.472Z" fill="white"/>
</g>
<defs>
<clipPath id="clip0_967_18703">
<rect width="535" height="304" fill="white"/>
</clipPath>
</defs>
</svg>
