<svg width="740" height="473" viewBox="0 0 740 473" fill="none" xmlns="http://www.w3.org/2000/svg">
<rect width="740" height="473" fill="white"/>
<rect opacity="0.4" y="413.875" width="740" height="59.125" fill="#F2F4F8"/>
<rect opacity="0.4" y="295.625" width="740" height="59.125" fill="#F2F4F8"/>
<rect opacity="0.4" y="177.375" width="740" height="59.125" fill="#F2F4F8"/>
<rect opacity="0.4" y="59.125" width="740" height="59.125" fill="#F2F4F8"/>
<rect x="0.5" y="0.5" width="739" height="472" stroke="#DDE1E6"/>
<rect x="112" y="76" width="78" height="253" fill="#DDE1E6"/>
<rect x="164" y="414" width="32" height="32" fill="#DDE1E6"/>
<path d="M726 331L730 329.5L726 328V331Z" fill="#343A3F"/>
<line x1="726" y1="329.5" x2="112" y2="329.5" stroke="#343A3F"/>
<path d="M660 437L664 435.5L660 434V437Z" fill="#343A3F"/>
<line x1="660" y1="435.5" x2="613" y2="435.5" stroke="#343A3F"/>
<path d="M112 330L112 75" stroke="black"/>
<line x1="189.5" y1="330" x2="189.5" y2="76" stroke="black"/>
<line x1="294.5" y1="330" x2="294.5" y2="76" stroke="black"/>
<line x1="372.5" y1="330" x2="372.5" y2="123" stroke="black"/>
<line x1="450.5" y1="329" x2="450.5" y2="122" stroke="black"/>
<line x1="528.5" y1="329" x2="528.5" y2="122" stroke="black"/>
<line x1="606.5" y1="329" x2="606.5" y2="75" stroke="black"/>
<line x1="711.5" y1="329" x2="711.5" y2="75" stroke="black"/>
<rect width="32" height="32" transform="translate(131 266)" fill="#0F62FE"/>
<rect width="32" height="32" transform="translate(198 201)" fill="#0F62FE"/>
<rect width="32" height="32" transform="translate(223 266)" fill="#0F62FE"/>
<rect width="32" height="32" transform="translate(223 136)" fill="#6929C4"/>
<rect width="32" height="32" transform="translate(248 201)" fill="#6929C4"/>
<rect width="32" height="32" transform="translate(615 201)" fill="#6929C4"/>
<rect width="32" height="32" transform="translate(639 266)" fill="#6929C4"/>
<rect width="32" height="32" transform="translate(665 201)" fill="#0F62FE"/>
<rect width="32" height="32" transform="translate(313 414)" fill="#0F62FE"/>
<rect width="32" height="32" transform="translate(465 414)" fill="#6929C4"/>
<rect width="32" height="32" transform="translate(615 136)" fill="#0F62FE"/>
<rect width="32" height="32" transform="translate(665 136)" fill="#6929C4"/>
<rect width="32" height="32" transform="translate(131 201)" fill="#0F62FE"/>
<rect width="32" height="32" transform="translate(131 136)" fill="#0F62FE"/>
<rect width="32" height="32" transform="translate(315 266)" fill="#6929C4"/>
<rect width="32" height="32" transform="translate(315 201)" fill="#0F62FE"/>
<rect width="32" height="32" transform="translate(315 136)" fill="#0F62FE"/>
<rect width="32" height="32" transform="translate(393 266)" fill="#6929C4"/>
<rect width="32" height="32" transform="translate(393 201)" fill="#6929C4"/>
<rect width="32" height="32" transform="translate(393 136)" fill="#0F62FE"/>
<rect width="32" height="32" transform="translate(471 266)" fill="#6929C4"/>
<rect width="32" height="32" transform="translate(471 201)" fill="#6929C4"/>
<rect width="32" height="32" transform="translate(471 136)" fill="#0F62FE"/>
<rect width="32" height="32" transform="translate(549 266)" fill="#0F62FE"/>
<rect width="32" height="32" transform="translate(549 201)" fill="#0F62FE"/>
<rect width="32" height="32" transform="translate(549 136)" fill="#0F62FE"/>
<path d="M13.7718 51V50.02H12.3998V42.208H13.7718V41.228H9.85176V42.208H11.2238V50.02H9.85176V51H13.7718ZM17.0872 51V45.988C17.0872 45.064 17.9272 44.616 18.8092 44.616C19.8732 44.616 20.3632 45.274 20.3632 46.562V51H21.4832V45.988C21.4832 45.064 22.2952 44.616 23.1772 44.616C24.2692 44.616 24.7592 45.288 24.7592 46.562V51H25.8792V46.366C25.8792 44.616 24.9972 43.608 23.5272 43.608C22.2952 43.608 21.5952 44.294 21.3292 45.078H21.3012C20.9092 44.042 20.0412 43.608 19.0892 43.608C17.9692 43.608 17.4652 44.21 17.1432 44.952H17.0872V43.776H15.9672V51H17.0872ZM28.3499 53.8H29.4699V49.824H29.5259C29.9599 50.72 30.6459 51.168 31.6399 51.168C33.4459 51.168 34.5799 49.698 34.5799 47.388C34.5799 45.078 33.4459 43.608 31.6399 43.608C30.6459 43.608 29.9039 44.042 29.5259 44.952H29.4699V43.776H28.3499V53.8ZM31.3319 50.16C30.3099 50.16 29.4699 49.628 29.4699 48.69V46.002C29.4699 45.204 30.3099 44.616 31.3319 44.616C32.5919 44.616 33.3759 45.484 33.3759 46.772V48.004C33.3759 49.292 32.5919 50.16 31.3319 50.16ZM38.815 51V50.02H37.751V40.64H36.631V49.838C36.631 50.51 37.051 51 37.821 51H38.815ZM43.3214 51.168C44.6794 51.168 45.7154 50.496 46.1774 49.516L45.3794 48.942C45.0014 49.74 44.3014 50.188 43.3914 50.188C42.0474 50.188 41.2494 49.25 41.2494 48.004V47.668H46.4434V47.136C46.4434 45.092 45.2534 43.608 43.3214 43.608C41.3614 43.608 40.0734 45.092 40.0734 47.388C40.0734 49.684 41.3614 51.168 43.3214 51.168ZM43.3214 44.546C44.4694 44.546 45.2394 45.4 45.2394 46.674V46.828H41.2494V46.73C41.2494 45.47 42.1034 44.546 43.3214 44.546ZM49.569 51V45.988C49.569 45.064 50.409 44.616 51.291 44.616C52.355 44.616 52.845 45.274 52.845 46.562V51H53.965V45.988C53.965 45.064 54.777 44.616 55.659 44.616C56.751 44.616 57.241 45.288 57.241 46.562V51H58.361V46.366C58.361 44.616 57.479 43.608 56.009 43.608C54.777 43.608 54.077 44.294 53.811 45.078H53.783C53.391 44.042 52.523 43.608 51.571 43.608C50.451 43.608 49.947 44.21 49.625 44.952H49.569V43.776H48.449V51H49.569ZM63.5477 51.168C64.9057 51.168 65.9417 50.496 66.4037 49.516L65.6057 48.942C65.2277 49.74 64.5277 50.188 63.6177 50.188C62.2737 50.188 61.4757 49.25 61.4757 48.004V47.668H66.6697V47.136C66.6697 45.092 65.4797 43.608 63.5477 43.608C61.5877 43.608 60.2997 45.092 60.2997 47.388C60.2997 49.684 61.5877 51.168 63.5477 51.168ZM63.5477 44.546C64.6957 44.546 65.4657 45.4 65.4657 46.674V46.828H61.4757V46.73C61.4757 45.47 62.3297 44.546 63.5477 44.546ZM69.7953 51V45.988C69.7953 45.064 70.6633 44.616 71.5593 44.616C72.6373 44.616 73.1973 45.274 73.1973 46.562V51H74.3173V46.366C74.3173 44.616 73.3793 43.608 71.8953 43.608C70.8173 43.608 70.2013 44.14 69.8513 44.952H69.7953V43.776H68.6753V51H69.7953ZM79.7883 51V50.02H78.3183V44.756H79.9003V43.776H78.3183V41.774H77.3103V43.118C77.3103 43.608 77.1563 43.776 76.6803 43.776H76.0083V44.756H77.1983V49.81C77.1983 50.51 77.6183 51 78.3883 51H79.7883ZM87.7405 51V50.02H86.9145V46.044C86.9145 44.518 85.8785 43.608 84.1425 43.608C82.8405 43.608 81.9725 44.252 81.5805 45.022L82.2525 45.652C82.6445 44.994 83.2185 44.574 84.0865 44.574C85.2345 44.574 85.7945 45.134 85.7945 46.156V46.87H84.3665C82.2665 46.87 81.2865 47.626 81.2865 48.984C81.2865 50.328 82.1825 51.168 83.7085 51.168C84.7165 51.168 85.4865 50.706 85.7945 49.824H85.8645C85.9485 50.496 86.2845 51 87.1105 51H87.7405ZM83.8905 50.216C83.0225 50.216 82.4625 49.81 82.4625 49.096V48.802C82.4625 48.102 83.0365 47.71 84.3105 47.71H85.7945V48.9C85.7945 49.642 84.9965 50.216 83.8905 50.216ZM92.495 51V50.02H91.025V44.756H92.607V43.776H91.025V41.774H90.017V43.118C90.017 43.608 89.863 43.776 89.387 43.776H88.715V44.756H89.905V49.81C89.905 50.51 90.325 51 91.095 51H92.495ZM95.1272 42.082C95.6032 42.082 95.8132 41.83 95.8132 41.452V41.27C95.8132 40.892 95.6032 40.64 95.1272 40.64C94.6512 40.64 94.4412 40.892 94.4412 41.27V41.452C94.4412 41.83 94.6512 42.082 95.1272 42.082ZM94.5672 51H95.6872V43.776H94.5672V51ZM100.957 51.168C102.889 51.168 104.219 49.684 104.219 47.388C104.219 45.092 102.889 43.608 100.957 43.608C99.0252 43.608 97.6952 45.092 97.6952 47.388C97.6952 49.684 99.0252 51.168 100.957 51.168ZM100.957 50.174C99.7532 50.174 98.8992 49.432 98.8992 47.906V46.87C98.8992 45.344 99.7532 44.602 100.957 44.602C102.161 44.602 103.015 45.344 103.015 46.87V47.906C103.015 49.432 102.161 50.174 100.957 50.174ZM107.341 51V45.988C107.341 45.064 108.209 44.616 109.105 44.616C110.183 44.616 110.743 45.274 110.743 46.562V51H111.863V46.366C111.863 44.616 110.925 43.608 109.441 43.608C108.363 43.608 107.747 44.14 107.397 44.952H107.341V43.776H106.221V51H107.341Z" fill="black"/>
<path d="M22.33 107L25.62 97.228H24.402L22.778 102.156L21.672 105.824H21.602L20.524 102.156L18.914 97.228H17.654L20.902 107H22.33ZM32.7114 107V106.02H31.8854V102.044C31.8854 100.518 30.8494 99.608 29.1134 99.608C27.8114 99.608 26.9434 100.252 26.5514 101.022L27.2234 101.652C27.6154 100.994 28.1894 100.574 29.0574 100.574C30.2054 100.574 30.7654 101.134 30.7654 102.156V102.87H29.3374C27.2374 102.87 26.2574 103.626 26.2574 104.984C26.2574 106.328 27.1534 107.168 28.6794 107.168C29.6874 107.168 30.4574 106.706 30.7654 105.824H30.8354C30.9194 106.496 31.2554 107 32.0814 107H32.7114ZM28.8614 106.216C27.9934 106.216 27.4334 105.81 27.4334 105.096V104.802C27.4334 104.102 28.0074 103.71 29.2814 103.71H30.7654V104.9C30.7654 105.642 29.9674 106.216 28.8614 106.216ZM35.5899 107V102.1C35.5899 101.414 36.3179 100.896 37.5219 100.896H38.1799V99.776H37.7459C36.5699 99.776 35.9119 100.42 35.6599 101.106H35.5899V99.776H34.4699V107H35.5899ZM40.3305 98.082C40.8065 98.082 41.0165 97.83 41.0165 97.452V97.27C41.0165 96.892 40.8065 96.64 40.3305 96.64C39.8545 96.64 39.6445 96.892 39.6445 97.27V97.452C39.6445 97.83 39.8545 98.082 40.3305 98.082ZM39.7705 107H40.8905V99.776H39.7705V107ZM49.3105 107V106.02H48.4845V102.044C48.4845 100.518 47.4485 99.608 45.7125 99.608C44.4105 99.608 43.5425 100.252 43.1505 101.022L43.8225 101.652C44.2145 100.994 44.7885 100.574 45.6565 100.574C46.8045 100.574 47.3645 101.134 47.3645 102.156V102.87H45.9365C43.8365 102.87 42.8565 103.626 42.8565 104.984C42.8565 106.328 43.7525 107.168 45.2785 107.168C46.2865 107.168 47.0565 106.706 47.3645 105.824H47.4345C47.5185 106.496 47.8545 107 48.6805 107H49.3105ZM45.4605 106.216C44.5925 106.216 44.0325 105.81 44.0325 105.096V104.802C44.0325 104.102 44.6065 103.71 45.8805 103.71H47.3645V104.9C47.3645 105.642 46.5665 106.216 45.4605 106.216ZM51.0691 107H52.1891V105.824H52.2451C52.6791 106.72 53.3651 107.168 54.3591 107.168C56.1651 107.168 57.2991 105.698 57.2991 103.388C57.2991 101.078 56.1651 99.608 54.3591 99.608C53.3651 99.608 52.6231 100.042 52.2451 100.952H52.1891V96.64H51.0691V107ZM54.0511 106.16C53.0291 106.16 52.1891 105.628 52.1891 104.69V102.002C52.1891 101.204 53.0291 100.616 54.0511 100.616C55.3111 100.616 56.0951 101.484 56.0951 102.772V104.004C56.0951 105.292 55.3111 106.16 54.0511 106.16ZM61.5342 107V106.02H60.4702V96.64H59.3502V105.838C59.3502 106.51 59.7702 107 60.5402 107H61.5342ZM66.0406 107.168C67.3986 107.168 68.4346 106.496 68.8966 105.516L68.0986 104.942C67.7206 105.74 67.0206 106.188 66.1106 106.188C64.7666 106.188 63.9686 105.25 63.9686 104.004V103.668H69.1626V103.136C69.1626 101.092 67.9726 99.608 66.0406 99.608C64.0806 99.608 62.7926 101.092 62.7926 103.388C62.7926 105.684 64.0806 107.168 66.0406 107.168ZM66.0406 100.546C67.1886 100.546 67.9586 101.4 67.9586 102.674V102.828H63.9686V102.73C63.9686 101.47 64.8226 100.546 66.0406 100.546ZM77.6328 107V106.02H76.1628V100.756H77.7448V99.776H76.1628V97.774H75.1548V99.118C75.1548 99.608 75.0008 99.776 74.5248 99.776H73.8528V100.756H75.0428V105.81C75.0428 106.51 75.4628 107 76.2328 107H77.6328ZM82.407 104.69L82.015 105.866H81.945L81.609 104.69L79.873 99.776H78.753L81.455 107.28L80.909 108.82H79.775V109.8H80.349C81.413 109.8 81.707 109.548 82.029 108.68L85.263 99.776H84.157L82.407 104.69ZM86.8513 109.8H87.9713V105.824H88.0273C88.4613 106.72 89.1473 107.168 90.1413 107.168C91.9473 107.168 93.0813 105.698 93.0813 103.388C93.0813 101.078 91.9473 99.608 90.1413 99.608C89.1473 99.608 88.4053 100.042 88.0273 100.952H87.9713V99.776H86.8513V109.8ZM89.8333 106.16C88.8113 106.16 87.9713 105.628 87.9713 104.69V102.002C87.9713 101.204 88.8113 100.616 89.8333 100.616C91.0933 100.616 91.8773 101.484 91.8773 102.772V104.004C91.8773 105.292 91.0933 106.16 89.8333 106.16ZM97.8484 107.168C99.2064 107.168 100.242 106.496 100.704 105.516L99.9064 104.942C99.5284 105.74 98.8284 106.188 97.9184 106.188C96.5744 106.188 95.7764 105.25 95.7764 104.004V103.668H100.97V103.136C100.97 101.092 99.7804 99.608 97.8484 99.608C95.8884 99.608 94.6004 101.092 94.6004 103.388C94.6004 105.684 95.8884 107.168 97.8484 107.168ZM97.8484 100.546C98.9964 100.546 99.7664 101.4 99.7664 102.674V102.828H95.7764V102.73C95.7764 101.47 96.6304 100.546 97.8484 100.546Z" fill="black"/>
<path d="M627.815 102.168C629.439 102.168 630.629 101.314 631.245 99.942L630.307 99.354C629.915 100.418 629.061 101.118 627.815 101.118C626.135 101.118 625.141 99.9 625.141 97.898V96.442C625.141 94.44 626.135 93.11 627.815 93.11C629.019 93.11 629.831 93.768 630.223 94.776L631.175 94.202C630.559 92.844 629.439 92.06 627.815 92.06C625.351 92.06 623.881 93.908 623.881 97.17C623.881 100.432 625.351 102.168 627.815 102.168ZM635.844 102.168C637.776 102.168 639.106 100.684 639.106 98.388C639.106 96.092 637.776 94.608 635.844 94.608C633.912 94.608 632.582 96.092 632.582 98.388C632.582 100.684 633.912 102.168 635.844 102.168ZM635.844 101.174C634.64 101.174 633.786 100.432 633.786 98.906V97.87C633.786 96.344 634.64 95.602 635.844 95.602C637.048 95.602 637.902 96.344 637.902 97.87V98.906C637.902 100.432 637.048 101.174 635.844 101.174ZM642.228 102V96.988C642.228 96.064 643.096 95.616 643.992 95.616C645.07 95.616 645.63 96.274 645.63 97.562V102H646.75V97.366C646.75 95.616 645.812 94.608 644.328 94.608C643.25 94.608 642.634 95.14 642.284 95.952H642.228V94.776H641.108V102H642.228ZM652.221 102V101.02H650.751V95.756H652.333V94.776H650.751V92.774H649.743V94.118C649.743 94.608 649.589 94.776 649.113 94.776H648.441V95.756H649.631V100.81C649.631 101.51 650.051 102 650.821 102H652.221ZM654.854 93.082C655.33 93.082 655.54 92.83 655.54 92.452V92.27C655.54 91.892 655.33 91.64 654.854 91.64C654.378 91.64 654.168 91.892 654.168 92.27V92.452C654.168 92.83 654.378 93.082 654.854 93.082ZM654.294 102H655.414V94.776H654.294V102ZM659.074 102V96.988C659.074 96.064 659.942 95.616 660.838 95.616C661.916 95.616 662.476 96.274 662.476 97.562V102H663.596V97.366C663.596 95.616 662.658 94.608 661.174 94.608C660.096 94.608 659.48 95.14 659.13 95.952H659.074V94.776H657.954V102H659.074ZM670.523 102H671.643V94.776H670.523V99.774C670.523 100.726 669.655 101.16 668.773 101.16C667.695 101.16 667.121 100.502 667.121 99.214V94.776H666.001V99.41C666.001 101.16 666.953 102.168 668.437 102.168C669.641 102.168 670.187 101.51 670.467 100.824H670.523V102ZM676.918 102.168C678.85 102.168 680.18 100.684 680.18 98.388C680.18 96.092 678.85 94.608 676.918 94.608C674.986 94.608 673.656 96.092 673.656 98.388C673.656 100.684 674.986 102.168 676.918 102.168ZM676.918 101.174C675.714 101.174 674.86 100.432 674.86 98.906V97.87C674.86 96.344 675.714 95.602 676.918 95.602C678.122 95.602 678.976 96.344 678.976 97.87V98.906C678.976 100.432 678.122 101.174 676.918 101.174ZM686.634 102H687.754V94.776H686.634V99.774C686.634 100.726 685.766 101.16 684.884 101.16C683.806 101.16 683.232 100.502 683.232 99.214V94.776H682.112V99.41C682.112 101.16 683.064 102.168 684.548 102.168C685.752 102.168 686.298 101.51 686.578 100.824H686.634V102ZM692.469 102.168C694.121 102.168 695.143 101.314 695.143 99.914C695.143 98.822 694.527 98.122 692.931 97.884L692.371 97.8C691.475 97.66 690.985 97.38 690.985 96.68C690.985 95.994 691.475 95.56 692.399 95.56C693.323 95.56 693.939 95.994 694.261 96.442L695.003 95.77C694.415 95.042 693.645 94.608 692.483 94.608C691.013 94.608 689.907 95.308 689.907 96.736C689.907 98.08 690.901 98.626 692.231 98.822L692.805 98.906C693.757 99.046 694.065 99.48 694.065 100.04C694.065 100.782 693.505 101.216 692.553 101.216C691.643 101.216 690.971 100.81 690.411 100.11L689.613 100.754C690.257 101.608 691.139 102.168 692.469 102.168Z" fill="black"/>
<path d="M426.718 106H429.994C432.43 106 433.998 104.376 433.998 101.114C433.998 97.852 432.43 96.228 429.994 96.228H426.718V106ZM427.894 104.964V97.264H429.994C431.604 97.264 432.738 98.384 432.738 100.316V101.912C432.738 103.844 431.604 104.964 429.994 104.964H427.894ZM436.718 97.082C437.194 97.082 437.404 96.83 437.404 96.452V96.27C437.404 95.892 437.194 95.64 436.718 95.64C436.242 95.64 436.032 95.892 436.032 96.27V96.452C436.032 96.83 436.242 97.082 436.718 97.082ZM436.158 106H437.278V98.776H436.158V106ZM441.988 106.168C443.64 106.168 444.662 105.314 444.662 103.914C444.662 102.822 444.046 102.122 442.45 101.884L441.89 101.8C440.994 101.66 440.504 101.38 440.504 100.68C440.504 99.994 440.994 99.56 441.918 99.56C442.842 99.56 443.458 99.994 443.78 100.442L444.522 99.77C443.934 99.042 443.164 98.608 442.002 98.608C440.532 98.608 439.426 99.308 439.426 100.736C439.426 102.08 440.42 102.626 441.75 102.822L442.324 102.906C443.276 103.046 443.584 103.48 443.584 104.04C443.584 104.782 443.024 105.216 442.072 105.216C441.162 105.216 440.49 104.81 439.93 104.11L439.132 104.754C439.776 105.608 440.658 106.168 441.988 106.168ZM449.488 106.168C450.86 106.168 451.798 105.496 452.26 104.46L451.448 103.914C451.056 104.74 450.398 105.174 449.488 105.174C448.158 105.174 447.472 104.264 447.472 103.004V101.772C447.472 100.512 448.158 99.602 449.488 99.602C450.37 99.602 450.986 100.036 451.252 100.778L452.19 100.302C451.77 99.308 450.916 98.608 449.488 98.608C447.458 98.608 446.268 100.078 446.268 102.388C446.268 104.698 447.458 106.168 449.488 106.168ZM455.121 106V101.1C455.121 100.414 455.849 99.896 457.053 99.896H457.711V98.776H457.277C456.101 98.776 455.443 99.42 455.191 100.106H455.121V98.776H454.001V106H455.121ZM461.95 106.168C463.308 106.168 464.344 105.496 464.806 104.516L464.008 103.942C463.63 104.74 462.93 105.188 462.02 105.188C460.676 105.188 459.878 104.25 459.878 103.004V102.668H465.072V102.136C465.072 100.092 463.882 98.608 461.95 98.608C459.99 98.608 458.702 100.092 458.702 102.388C458.702 104.684 459.99 106.168 461.95 106.168ZM461.95 99.546C463.098 99.546 463.868 100.4 463.868 101.674V101.828H459.878V101.73C459.878 100.47 460.732 99.546 461.95 99.546ZM470.073 106V105.02H468.603V99.756H470.185V98.776H468.603V96.774H467.595V98.118C467.595 98.608 467.441 98.776 466.965 98.776H466.293V99.756H467.483V104.81C467.483 105.51 467.903 106 468.673 106H470.073ZM474.807 106.168C476.165 106.168 477.201 105.496 477.663 104.516L476.865 103.942C476.487 104.74 475.787 105.188 474.877 105.188C473.533 105.188 472.735 104.25 472.735 103.004V102.668H477.929V102.136C477.929 100.092 476.739 98.608 474.807 98.608C472.847 98.608 471.559 100.092 471.559 102.388C471.559 104.684 472.847 106.168 474.807 106.168ZM474.807 99.546C475.955 99.546 476.725 100.4 476.725 101.674V101.828H472.735V101.73C472.735 100.47 473.589 99.546 474.807 99.546Z" fill="black"/>
<path d="M199.796 51V46.576H204.038V45.54H199.796V42.264H204.444V41.228H198.62V51H199.796ZM211.808 51V50.02H210.982V46.044C210.982 44.518 209.946 43.608 208.21 43.608C206.908 43.608 206.04 44.252 205.648 45.022L206.32 45.652C206.712 44.994 207.286 44.574 208.154 44.574C209.302 44.574 209.862 45.134 209.862 46.156V46.87H208.434C206.334 46.87 205.354 47.626 205.354 48.984C205.354 50.328 206.25 51.168 207.776 51.168C208.784 51.168 209.554 50.706 209.862 49.824H209.932C210.016 50.496 210.352 51 211.178 51H211.808ZM207.958 50.216C207.09 50.216 206.53 49.81 206.53 49.096V48.802C206.53 48.102 207.104 47.71 208.378 47.71H209.862V48.9C209.862 49.642 209.064 50.216 207.958 50.216ZM218.019 51H219.139V43.776H218.019V48.774C218.019 49.726 217.151 50.16 216.269 50.16C215.191 50.16 214.617 49.502 214.617 48.214V43.776H213.497V48.41C213.497 50.16 214.449 51.168 215.933 51.168C217.137 51.168 217.683 50.51 217.963 49.824H218.019V51ZM223.868 51V50.02H222.804V40.64H221.684V49.838C221.684 50.51 222.104 51 222.874 51H223.868ZM228.586 51V50.02H227.116V44.756H228.698V43.776H227.116V41.774H226.108V43.118C226.108 43.608 225.954 43.776 225.478 43.776H224.806V44.756H225.996V49.81C225.996 50.51 226.416 51 227.186 51H228.586ZM233.815 47.346V46.142H230.161V47.346H233.815ZM239.132 51V50.02H237.662V44.756H239.244V43.776H237.662V41.774H236.654V43.118C236.654 43.608 236.5 43.776 236.024 43.776H235.352V44.756H236.542V49.81C236.542 50.51 236.962 51 237.732 51H239.132ZM243.88 51.168C245.812 51.168 247.142 49.684 247.142 47.388C247.142 45.092 245.812 43.608 243.88 43.608C241.948 43.608 240.618 45.092 240.618 47.388C240.618 49.684 241.948 51.168 243.88 51.168ZM243.88 50.174C242.676 50.174 241.822 49.432 241.822 47.906V46.87C241.822 45.344 242.676 44.602 243.88 44.602C245.084 44.602 245.938 45.344 245.938 46.87V47.906C245.938 49.432 245.084 50.174 243.88 50.174ZM251.328 51V50.02H250.264V40.64H249.144V49.838C249.144 50.51 249.564 51 250.334 51H251.328ZM255.834 51.168C257.192 51.168 258.228 50.496 258.69 49.516L257.892 48.942C257.514 49.74 256.814 50.188 255.904 50.188C254.56 50.188 253.762 49.25 253.762 48.004V47.668H258.956V47.136C258.956 45.092 257.766 43.608 255.834 43.608C253.874 43.608 252.586 45.092 252.586 47.388C252.586 49.684 253.874 51.168 255.834 51.168ZM255.834 44.546C256.982 44.546 257.752 45.4 257.752 46.674V46.828H253.762V46.73C253.762 45.47 254.616 44.546 255.834 44.546ZM262.082 51V46.1C262.082 45.414 262.81 44.896 264.014 44.896H264.672V43.776H264.238C263.062 43.776 262.404 44.42 262.152 45.106H262.082V43.776H260.962V51H262.082ZM272.088 51V50.02H271.262V46.044C271.262 44.518 270.226 43.608 268.49 43.608C267.188 43.608 266.32 44.252 265.928 45.022L266.6 45.652C266.992 44.994 267.566 44.574 268.434 44.574C269.582 44.574 270.142 45.134 270.142 46.156V46.87H268.714C266.614 46.87 265.634 47.626 265.634 48.984C265.634 50.328 266.53 51.168 268.056 51.168C269.064 51.168 269.834 50.706 270.142 49.824H270.212C270.296 50.496 270.632 51 271.458 51H272.088ZM268.238 50.216C267.37 50.216 266.81 49.81 266.81 49.096V48.802C266.81 48.102 267.384 47.71 268.658 47.71H270.142V48.9C270.142 49.642 269.344 50.216 268.238 50.216ZM274.966 51V45.988C274.966 45.064 275.834 44.616 276.73 44.616C277.808 44.616 278.368 45.274 278.368 46.562V51H279.488V46.366C279.488 44.616 278.55 43.608 277.066 43.608C275.988 43.608 275.372 44.14 275.022 44.952H274.966V43.776H273.846V51H274.966ZM284.959 51V50.02H283.489V44.756H285.071V43.776H283.489V41.774H282.481V43.118C282.481 43.608 282.327 43.776 281.851 43.776H281.179V44.756H282.369V49.81C282.369 50.51 282.789 51 283.559 51H284.959Z" fill="black"/>
<path d="M469.512 51H470.688V41.228H469.512V45.54H464.57V41.228H463.394V51H464.57V46.576H469.512V51ZM476.042 48.69L475.65 49.866H475.58L475.244 48.69L473.508 43.776H472.388L475.09 51.28L474.544 52.82H473.41V53.8H473.984C475.048 53.8 475.342 53.548 475.664 52.68L478.898 43.776H477.792L476.042 48.69ZM480.486 51H481.606V49.824H481.662C482.096 50.72 482.782 51.168 483.776 51.168C485.582 51.168 486.716 49.698 486.716 47.388C486.716 45.078 485.582 43.608 483.776 43.608C482.782 43.608 482.04 44.042 481.662 44.952H481.606V40.64H480.486V51ZM483.468 50.16C482.446 50.16 481.606 49.628 481.606 48.69V46.002C481.606 45.204 482.446 44.616 483.468 44.616C484.728 44.616 485.512 45.484 485.512 46.772V48.004C485.512 49.292 484.728 50.16 483.468 50.16ZM489.888 51V46.1C489.888 45.414 490.616 44.896 491.82 44.896H492.478V43.776H492.044C490.868 43.776 490.21 44.42 489.958 45.106H489.888V43.776H488.768V51H489.888ZM494.628 42.082C495.104 42.082 495.314 41.83 495.314 41.452V41.27C495.314 40.892 495.104 40.64 494.628 40.64C494.152 40.64 493.942 40.892 493.942 41.27V41.452C493.942 41.83 494.152 42.082 494.628 42.082ZM494.068 51H495.188V43.776H494.068V51ZM502.348 51H503.468V40.64H502.348V44.952H502.292C501.914 44.042 501.172 43.608 500.178 43.608C498.372 43.608 497.238 45.078 497.238 47.388C497.238 49.698 498.372 51.168 500.178 51.168C501.172 51.168 501.858 50.72 502.292 49.824H502.348V51ZM500.486 50.16C499.226 50.16 498.442 49.292 498.442 48.004V46.772C498.442 45.484 499.226 44.616 500.486 44.616C501.508 44.616 502.348 45.204 502.348 46.002V48.69C502.348 49.628 501.508 50.16 500.486 50.16ZM514.098 53.8H515.218V43.776H514.098V44.952H514.042C513.664 44.042 512.922 43.608 511.928 43.608C510.122 43.608 508.988 45.078 508.988 47.388C508.988 49.698 510.122 51.168 511.928 51.168C512.922 51.168 513.608 50.72 514.042 49.824H514.098V53.8ZM512.236 50.16C510.976 50.16 510.192 49.292 510.192 48.004V46.772C510.192 45.484 510.976 44.616 512.236 44.616C513.258 44.616 514.098 45.204 514.098 46.002V48.69C514.098 49.628 513.258 50.16 512.236 50.16ZM522.211 51H523.331V43.776H522.211V48.774C522.211 49.726 521.343 50.16 520.461 50.16C519.383 50.16 518.809 49.502 518.809 48.214V43.776H517.689V48.41C517.689 50.16 518.641 51.168 520.125 51.168C521.329 51.168 521.875 50.51 522.155 49.824H522.211V51ZM531.756 51V50.02H530.93V46.044C530.93 44.518 529.894 43.608 528.158 43.608C526.856 43.608 525.988 44.252 525.596 45.022L526.268 45.652C526.66 44.994 527.234 44.574 528.102 44.574C529.25 44.574 529.81 45.134 529.81 46.156V46.87H528.382C526.282 46.87 525.302 47.626 525.302 48.984C525.302 50.328 526.198 51.168 527.724 51.168C528.732 51.168 529.502 50.706 529.81 49.824H529.88C529.964 50.496 530.3 51 531.126 51H531.756ZM527.906 50.216C527.038 50.216 526.478 49.81 526.478 49.096V48.802C526.478 48.102 527.052 47.71 528.326 47.71H529.81V48.9C529.81 49.642 529.012 50.216 527.906 50.216ZM534.634 51V45.988C534.634 45.064 535.502 44.616 536.398 44.616C537.476 44.616 538.036 45.274 538.036 46.562V51H539.156V46.366C539.156 44.616 538.218 43.608 536.734 43.608C535.656 43.608 535.04 44.14 534.69 44.952H534.634V43.776H533.514V51H534.634ZM544.627 51V50.02H543.157V44.756H544.739V43.776H543.157V41.774H542.149V43.118C542.149 43.608 541.995 43.776 541.519 43.776H540.847V44.756H542.037V49.81C542.037 50.51 542.457 51 543.227 51H544.627ZM551.152 51H552.272V43.776H551.152V48.774C551.152 49.726 550.284 50.16 549.402 50.16C548.324 50.16 547.75 49.502 547.75 48.214V43.776H546.63V48.41C546.63 50.16 547.582 51.168 549.066 51.168C550.27 51.168 550.816 50.51 551.096 49.824H551.152V51ZM555.937 51V45.988C555.937 45.064 556.777 44.616 557.659 44.616C558.723 44.616 559.213 45.274 559.213 46.562V51H560.333V45.988C560.333 45.064 561.145 44.616 562.027 44.616C563.119 44.616 563.609 45.288 563.609 46.562V51H564.729V46.366C564.729 44.616 563.847 43.608 562.377 43.608C561.145 43.608 560.445 44.294 560.179 45.078H560.151C559.759 44.042 558.891 43.608 557.939 43.608C556.819 43.608 556.315 44.21 555.993 44.952H555.937V43.776H554.817V51H555.937ZM570.629 47.346V46.142H566.975V47.346H570.629ZM575.776 51.168C577.148 51.168 578.086 50.496 578.548 49.46L577.736 48.914C577.344 49.74 576.686 50.174 575.776 50.174C574.446 50.174 573.76 49.264 573.76 48.004V46.772C573.76 45.512 574.446 44.602 575.776 44.602C576.658 44.602 577.274 45.036 577.54 45.778L578.478 45.302C578.058 44.308 577.204 43.608 575.776 43.608C573.746 43.608 572.556 45.078 572.556 47.388C572.556 49.698 573.746 51.168 575.776 51.168ZM582.473 51V50.02H581.409V40.64H580.289V49.838C580.289 50.51 580.709 51 581.479 51H582.473ZM590.143 51V50.02H589.317V46.044C589.317 44.518 588.281 43.608 586.545 43.608C585.243 43.608 584.375 44.252 583.983 45.022L584.655 45.652C585.047 44.994 585.621 44.574 586.489 44.574C587.637 44.574 588.197 45.134 588.197 46.156V46.87H586.769C584.669 46.87 583.689 47.626 583.689 48.984C583.689 50.328 584.585 51.168 586.111 51.168C587.119 51.168 587.889 50.706 588.197 49.824H588.267C588.351 50.496 588.687 51 589.513 51H590.143ZM586.293 50.216C585.425 50.216 584.865 49.81 584.865 49.096V48.802C584.865 48.102 585.439 47.71 586.713 47.71H588.197V48.9C588.197 49.642 587.399 50.216 586.293 50.216ZM594.072 51.168C595.724 51.168 596.746 50.314 596.746 48.914C596.746 47.822 596.13 47.122 594.534 46.884L593.974 46.8C593.078 46.66 592.588 46.38 592.588 45.68C592.588 44.994 593.078 44.56 594.002 44.56C594.926 44.56 595.542 44.994 595.864 45.442L596.606 44.77C596.018 44.042 595.248 43.608 594.086 43.608C592.616 43.608 591.51 44.308 591.51 45.736C591.51 47.08 592.504 47.626 593.834 47.822L594.408 47.906C595.36 48.046 595.668 48.48 595.668 49.04C595.668 49.782 595.108 50.216 594.156 50.216C593.246 50.216 592.574 49.81 592.014 49.11L591.216 49.754C591.86 50.608 592.742 51.168 594.072 51.168ZM600.972 51.168C602.624 51.168 603.646 50.314 603.646 48.914C603.646 47.822 603.03 47.122 601.434 46.884L600.874 46.8C599.978 46.66 599.488 46.38 599.488 45.68C599.488 44.994 599.978 44.56 600.902 44.56C601.826 44.56 602.442 44.994 602.764 45.442L603.506 44.77C602.918 44.042 602.148 43.608 600.986 43.608C599.516 43.608 598.41 44.308 598.41 45.736C598.41 47.08 599.404 47.626 600.734 47.822L601.308 47.906C602.26 48.046 602.568 48.48 602.568 49.04C602.568 49.782 602.008 50.216 601.056 50.216C600.146 50.216 599.474 49.81 598.914 49.11L598.116 49.754C598.76 50.608 599.642 51.168 600.972 51.168ZM606.344 42.082C606.82 42.082 607.03 41.83 607.03 41.452V41.27C607.03 40.892 606.82 40.64 606.344 40.64C605.868 40.64 605.658 40.892 605.658 41.27V41.452C605.658 41.83 605.868 42.082 606.344 42.082ZM605.784 51H606.904V43.776H605.784V51ZM612.132 51.168C613.504 51.168 614.442 50.496 614.904 49.46L614.092 48.914C613.7 49.74 613.042 50.174 612.132 50.174C610.802 50.174 610.116 49.264 610.116 48.004V46.772C610.116 45.512 610.802 44.602 612.132 44.602C613.014 44.602 613.63 45.036 613.896 45.778L614.834 45.302C614.414 44.308 613.56 43.608 612.132 43.608C610.102 43.608 608.912 45.078 608.912 47.388C608.912 49.698 610.102 51.168 612.132 51.168ZM622.525 51V50.02H621.699V46.044C621.699 44.518 620.663 43.608 618.927 43.608C617.625 43.608 616.757 44.252 616.365 45.022L617.037 45.652C617.429 44.994 618.003 44.574 618.871 44.574C620.019 44.574 620.579 45.134 620.579 46.156V46.87H619.151C617.051 46.87 616.071 47.626 616.071 48.984C616.071 50.328 616.967 51.168 618.493 51.168C619.501 51.168 620.271 50.706 620.579 49.824H620.649C620.733 50.496 621.069 51 621.895 51H622.525ZM618.675 50.216C617.807 50.216 617.247 49.81 617.247 49.096V48.802C617.247 48.102 617.821 47.71 619.095 47.71H620.579V48.9C620.579 49.642 619.781 50.216 618.675 50.216ZM626.468 51V50.02H625.404V40.64H624.284V49.838C624.284 50.51 624.704 51 625.474 51H626.468Z" fill="black"/>
<path d="M331.091 106L327.675 96.228H326.177L322.761 106H323.951L324.931 103.116H328.879L329.859 106H331.091ZM328.585 102.08H325.211L326.863 97.32H326.933L328.585 102.08ZM333.877 106V100.988C333.877 100.064 334.745 99.616 335.641 99.616C336.719 99.616 337.279 100.274 337.279 101.562V106H338.399V101.366C338.399 99.616 337.461 98.608 335.977 98.608C334.899 98.608 334.283 99.14 333.933 99.952H333.877V98.776H332.757V106H333.877ZM343.467 103.69L343.075 104.866H343.005L342.669 103.69L340.933 98.776H339.813L342.515 106.28L341.969 107.82H340.835V108.8H341.409C342.473 108.8 342.767 108.548 343.089 107.68L346.323 98.776H345.217L343.467 103.69Z" fill="black"/>
<path d="M44.7644 161H45.8564V155.974H42.5524V157.01H44.7084V157.976C44.7084 159.418 43.5744 160.118 42.2164 160.118C40.3544 160.118 39.2064 158.83 39.2064 156.898V155.316C39.2064 153.384 40.3824 152.11 42.1044 152.11C43.3364 152.11 44.2464 152.754 44.6944 153.79L45.6604 153.202C45.0304 151.928 43.8544 151.06 42.1044 151.06C39.5984 151.06 37.9464 152.866 37.9464 156.114C37.9464 159.39 39.6124 161.168 42.0064 161.168C43.4904 161.168 44.4844 160.482 44.7224 159.572H44.7644V161ZM50.9348 161.168C52.2928 161.168 53.3288 160.496 53.7908 159.516L52.9928 158.942C52.6148 159.74 51.9148 160.188 51.0048 160.188C49.6608 160.188 48.8628 159.25 48.8628 158.004V157.668H54.0568V157.136C54.0568 155.092 52.8668 153.608 50.9348 153.608C48.9748 153.608 47.6868 155.092 47.6868 157.388C47.6868 159.684 48.9748 161.168 50.9348 161.168ZM50.9348 154.546C52.0828 154.546 52.8528 155.4 52.8528 156.674V156.828H48.8628V156.73C48.8628 155.47 49.7168 154.546 50.9348 154.546ZM57.1824 161V155.988C57.1824 155.064 58.0504 154.616 58.9464 154.616C60.0244 154.616 60.5844 155.274 60.5844 156.562V161H61.7044V156.366C61.7044 154.616 60.7664 153.608 59.2824 153.608C58.2044 153.608 57.5884 154.14 57.2384 154.952H57.1824V153.776H56.0624V161H57.1824ZM66.8954 161.168C68.2534 161.168 69.2894 160.496 69.7514 159.516L68.9534 158.942C68.5754 159.74 67.8754 160.188 66.9654 160.188C65.6214 160.188 64.8234 159.25 64.8234 158.004V157.668H70.0174V157.136C70.0174 155.092 68.8274 153.608 66.8954 153.608C64.9354 153.608 63.6474 155.092 63.6474 157.388C63.6474 159.684 64.9354 161.168 66.8954 161.168ZM66.8954 154.546C68.0434 154.546 68.8134 155.4 68.8134 156.674V156.828H64.8234V156.73C64.8234 155.47 65.6774 154.546 66.8954 154.546ZM73.143 161V156.1C73.143 155.414 73.871 154.896 75.075 154.896H75.733V153.776H75.299C74.123 153.776 73.465 154.42 73.213 155.106H73.143V153.776H72.023V161H73.143ZM83.1489 161V160.02H82.3229V156.044C82.3229 154.518 81.2869 153.608 79.5509 153.608C78.2489 153.608 77.3809 154.252 76.9889 155.022L77.6609 155.652C78.0529 154.994 78.6269 154.574 79.4949 154.574C80.6429 154.574 81.2029 155.134 81.2029 156.156V156.87H79.7749C77.6749 156.87 76.6949 157.626 76.6949 158.984C76.6949 160.328 77.5909 161.168 79.1169 161.168C80.1249 161.168 80.8949 160.706 81.2029 159.824H81.2729C81.3569 160.496 81.6929 161 82.5189 161H83.1489ZM79.2989 160.216C78.4309 160.216 77.8709 159.81 77.8709 159.096V158.802C77.8709 158.102 78.4449 157.71 79.7189 157.71H81.2029V158.9C81.2029 159.642 80.4049 160.216 79.2989 160.216ZM87.9035 161V160.02H86.4335V154.756H88.0155V153.776H86.4335V151.774H85.4255V153.118C85.4255 153.608 85.2715 153.776 84.7955 153.776H84.1235V154.756H85.3135V159.81C85.3135 160.51 85.7335 161 86.5035 161H87.9035ZM92.651 161.168C94.583 161.168 95.913 159.684 95.913 157.388C95.913 155.092 94.583 153.608 92.651 153.608C90.719 153.608 89.389 155.092 89.389 157.388C89.389 159.684 90.719 161.168 92.651 161.168ZM92.651 160.174C91.447 160.174 90.593 159.432 90.593 157.906V156.87C90.593 155.344 91.447 154.602 92.651 154.602C93.855 154.602 94.709 155.344 94.709 156.87V157.906C94.709 159.432 93.855 160.174 92.651 160.174ZM99.035 161V156.1C99.035 155.414 99.763 154.896 100.967 154.896H101.625V153.776H101.191C100.015 153.776 99.357 154.42 99.105 155.106H99.035V153.776H97.915V161H99.035Z" fill="black"/>
<path d="M12.5588 230H15.8348C18.2708 230 19.8388 228.376 19.8388 225.114C19.8388 221.852 18.2708 220.228 15.8348 220.228H12.5588V230ZM13.7348 228.964V221.264H15.8348C17.4448 221.264 18.5788 222.384 18.5788 224.316V225.912C18.5788 227.844 17.4448 228.964 15.8348 228.964H13.7348ZM24.7154 230.168C26.0734 230.168 27.1094 229.496 27.5714 228.516L26.7734 227.942C26.3954 228.74 25.6954 229.188 24.7854 229.188C23.4414 229.188 22.6434 228.25 22.6434 227.004V226.668H27.8374V226.136C27.8374 224.092 26.6474 222.608 24.7154 222.608C22.7554 222.608 21.4674 224.092 21.4674 226.388C21.4674 228.684 22.7554 230.168 24.7154 230.168ZM24.7154 223.546C25.8634 223.546 26.6334 224.4 26.6334 225.674V225.828H22.6434V225.73C22.6434 224.47 23.4974 223.546 24.7154 223.546ZM32.013 230.168C33.665 230.168 34.687 229.314 34.687 227.914C34.687 226.822 34.071 226.122 32.475 225.884L31.915 225.8C31.019 225.66 30.529 225.38 30.529 224.68C30.529 223.994 31.019 223.56 31.943 223.56C32.867 223.56 33.483 223.994 33.805 224.442L34.547 223.77C33.959 223.042 33.189 222.608 32.027 222.608C30.557 222.608 29.451 223.308 29.451 224.736C29.451 226.08 30.445 226.626 31.775 226.822L32.349 226.906C33.301 227.046 33.609 227.48 33.609 228.04C33.609 228.782 33.049 229.216 32.097 229.216C31.187 229.216 30.515 228.81 29.955 228.11L29.157 228.754C29.801 229.608 30.683 230.168 32.013 230.168ZM39.5132 230.168C40.8852 230.168 41.8232 229.496 42.2852 228.46L41.4732 227.914C41.0812 228.74 40.4232 229.174 39.5132 229.174C38.1832 229.174 37.4972 228.264 37.4972 227.004V225.772C37.4972 224.512 38.1832 223.602 39.5132 223.602C40.3952 223.602 41.0112 224.036 41.2772 224.778L42.2152 224.302C41.7952 223.308 40.9412 222.608 39.5132 222.608C37.4832 222.608 36.2932 224.078 36.2932 226.388C36.2932 228.698 37.4832 230.168 39.5132 230.168ZM45.1463 230V225.1C45.1463 224.414 45.8743 223.896 47.0783 223.896H47.7363V222.776H47.3023C46.1263 222.776 45.4683 223.42 45.2163 224.106H45.1463V222.776H44.0263V230H45.1463ZM49.8869 221.082C50.3629 221.082 50.5729 220.83 50.5729 220.452V220.27C50.5729 219.892 50.3629 219.64 49.8869 219.64C49.4109 219.64 49.2009 219.892 49.2009 220.27V220.452C49.2009 220.83 49.4109 221.082 49.8869 221.082ZM49.3269 230H50.4469V222.776H49.3269V230ZM54.1069 230V224.988C54.1069 224.064 54.9469 223.616 55.8289 223.616C56.8929 223.616 57.3829 224.274 57.3829 225.562V230H58.5029V224.988C58.5029 224.064 59.3149 223.616 60.1969 223.616C61.2889 223.616 61.7789 224.288 61.7789 225.562V230H62.8989V225.366C62.8989 223.616 62.0169 222.608 60.5469 222.608C59.3149 222.608 58.6149 223.294 58.3489 224.078H58.3209C57.9289 223.042 57.0609 222.608 56.1089 222.608C54.9889 222.608 54.4849 223.21 54.1629 223.952H54.1069V222.776H52.9869V230H54.1069ZM65.9295 221.082C66.4055 221.082 66.6155 220.83 66.6155 220.452V220.27C66.6155 219.892 66.4055 219.64 65.9295 219.64C65.4535 219.64 65.2435 219.892 65.2435 220.27V220.452C65.2435 220.83 65.4535 221.082 65.9295 221.082ZM65.3695 230H66.4895V222.776H65.3695V230ZM70.1495 230V224.988C70.1495 224.064 71.0175 223.616 71.9135 223.616C72.9915 223.616 73.5515 224.274 73.5515 225.562V230H74.6715V225.366C74.6715 223.616 73.7335 222.608 72.2495 222.608C71.1715 222.608 70.5555 223.14 70.2055 223.952H70.1495V222.776H69.0295V230H70.1495ZM83.0266 230V229.02H82.2006V225.044C82.2006 223.518 81.1646 222.608 79.4286 222.608C78.1266 222.608 77.2586 223.252 76.8666 224.022L77.5386 224.652C77.9306 223.994 78.5046 223.574 79.3726 223.574C80.5206 223.574 81.0806 224.134 81.0806 225.156V225.87H79.6526C77.5526 225.87 76.5726 226.626 76.5726 227.984C76.5726 229.328 77.4686 230.168 78.9946 230.168C80.0026 230.168 80.7726 229.706 81.0806 228.824H81.1506C81.2346 229.496 81.5706 230 82.3966 230H83.0266ZM79.1766 229.216C78.3086 229.216 77.7486 228.81 77.7486 228.096V227.802C77.7486 227.102 78.3226 226.71 79.5966 226.71H81.0806V227.9C81.0806 228.642 80.2826 229.216 79.1766 229.216ZM87.7811 230V229.02H86.3111V223.756H87.8931V222.776H86.3111V220.774H85.3031V222.118C85.3031 222.608 85.1491 222.776 84.6731 222.776H84.0011V223.756H85.1911V228.81C85.1911 229.51 85.6111 230 86.3811 230H87.7811ZM92.5286 230.168C94.4606 230.168 95.7906 228.684 95.7906 226.388C95.7906 224.092 94.4606 222.608 92.5286 222.608C90.5966 222.608 89.2666 224.092 89.2666 226.388C89.2666 228.684 90.5966 230.168 92.5286 230.168ZM92.5286 229.174C91.3246 229.174 90.4706 228.432 90.4706 226.906V225.87C90.4706 224.344 91.3246 223.602 92.5286 223.602C93.7326 223.602 94.5866 224.344 94.5866 225.87V226.906C94.5866 228.432 93.7326 229.174 92.5286 229.174ZM98.9126 230V225.1C98.9126 224.414 99.6406 223.896 100.845 223.896H101.503V222.776H101.069C99.8926 222.776 99.2346 223.42 98.9826 224.106H98.9126V222.776H97.7926V230H98.9126Z" fill="black"/>
<path d="M35.7577 299H39.0337C41.4697 299 43.0377 297.376 43.0377 294.114C43.0377 290.852 41.4697 289.228 39.0337 289.228H35.7577V299ZM36.9337 297.964V290.264H39.0337C40.6437 290.264 41.7777 291.384 41.7777 293.316V294.912C41.7777 296.844 40.6437 297.964 39.0337 297.964H36.9337ZM51.0783 299V298.02H50.2523V294.044C50.2523 292.518 49.2163 291.608 47.4803 291.608C46.1783 291.608 45.3103 292.252 44.9183 293.022L45.5903 293.652C45.9823 292.994 46.5563 292.574 47.4243 292.574C48.5723 292.574 49.1323 293.134 49.1323 294.156V294.87H47.7043C45.6043 294.87 44.6243 295.626 44.6243 296.984C44.6243 298.328 45.5203 299.168 47.0463 299.168C48.0543 299.168 48.8243 298.706 49.1323 297.824H49.2023C49.2863 298.496 49.6223 299 50.4483 299H51.0783ZM47.2283 298.216C46.3603 298.216 45.8003 297.81 45.8003 297.096V296.802C45.8003 296.102 46.3743 295.71 47.6483 295.71H49.1323V296.9C49.1323 297.642 48.3343 298.216 47.2283 298.216ZM55.8328 299V298.02H54.3628V292.756H55.9448V291.776H54.3628V289.774H53.3548V291.118C53.3548 291.608 53.2008 291.776 52.7248 291.776H52.0528V292.756H53.2428V297.81C53.2428 298.51 53.6628 299 54.4328 299H55.8328ZM63.785 299V298.02H62.959V294.044C62.959 292.518 61.923 291.608 60.187 291.608C58.885 291.608 58.017 292.252 57.625 293.022L58.297 293.652C58.689 292.994 59.263 292.574 60.131 292.574C61.279 292.574 61.839 293.134 61.839 294.156V294.87H60.411C58.311 294.87 57.331 295.626 57.331 296.984C57.331 298.328 58.227 299.168 59.753 299.168C60.761 299.168 61.531 298.706 61.839 297.824H61.909C61.993 298.496 62.329 299 63.155 299H63.785ZM59.935 298.216C59.067 298.216 58.507 297.81 58.507 297.096V296.802C58.507 296.102 59.081 295.71 60.355 295.71H61.839V296.9C61.839 297.642 61.041 298.216 59.935 298.216ZM75.5221 290.264V289.228H68.1301V290.264H71.2381V299H72.4141V290.264H75.5221ZM79.3253 296.69L78.9333 297.866H78.8633L78.5273 296.69L76.7913 291.776H75.6713L78.3733 299.28L77.8273 300.82H76.6933V301.8H77.2673C78.3313 301.8 78.6253 301.548 78.9473 300.68L82.1813 291.776H81.0753L79.3253 296.69ZM83.7696 301.8H84.8896V297.824H84.9456C85.3796 298.72 86.0656 299.168 87.0596 299.168C88.8656 299.168 89.9996 297.698 89.9996 295.388C89.9996 293.078 88.8656 291.608 87.0596 291.608C86.0656 291.608 85.3236 292.042 84.9456 292.952H84.8896V291.776H83.7696V301.8ZM86.7516 298.16C85.7296 298.16 84.8896 297.628 84.8896 296.69V294.002C84.8896 293.204 85.7296 292.616 86.7516 292.616C88.0116 292.616 88.7956 293.484 88.7956 294.772V296.004C88.7956 297.292 88.0116 298.16 86.7516 298.16ZM94.7667 299.168C96.1247 299.168 97.1607 298.496 97.6227 297.516L96.8247 296.942C96.4467 297.74 95.7467 298.188 94.8367 298.188C93.4927 298.188 92.6947 297.25 92.6947 296.004V295.668H97.8887V295.136C97.8887 293.092 96.6987 291.608 94.7667 291.608C92.8067 291.608 91.5187 293.092 91.5187 295.388C91.5187 297.684 92.8067 299.168 94.7667 299.168ZM94.7667 292.546C95.9147 292.546 96.6847 293.4 96.6847 294.674V294.828H92.6947V294.73C92.6947 293.47 93.5487 292.546 94.7667 292.546Z" fill="black"/>
<path d="M124.715 361H127.991C130.427 361 131.995 359.376 131.995 356.114C131.995 352.852 130.427 351.228 127.991 351.228H124.715V361ZM125.891 359.964V352.264H127.991C129.601 352.264 130.735 353.384 130.735 355.316V356.912C130.735 358.844 129.601 359.964 127.991 359.964H125.891ZM140.035 361V360.02H139.209V356.044C139.209 354.518 138.173 353.608 136.437 353.608C135.135 353.608 134.267 354.252 133.875 355.022L134.547 355.652C134.939 354.994 135.513 354.574 136.381 354.574C137.529 354.574 138.089 355.134 138.089 356.156V356.87H136.661C134.561 356.87 133.581 357.626 133.581 358.984C133.581 360.328 134.477 361.168 136.003 361.168C137.011 361.168 137.781 360.706 138.089 359.824H138.159C138.243 360.496 138.579 361 139.405 361H140.035ZM136.185 360.216C135.317 360.216 134.757 359.81 134.757 359.096V358.802C134.757 358.102 135.331 357.71 136.605 357.71H138.089V358.9C138.089 359.642 137.291 360.216 136.185 360.216ZM143.978 361V360.02H142.914V350.64H141.794V359.838C141.794 360.51 142.214 361 142.984 361H143.978ZM147.884 361V360.02H146.82V350.64H145.7V359.838C145.7 360.51 146.12 361 146.89 361H147.884ZM155.554 361V360.02H154.728V356.044C154.728 354.518 153.692 353.608 151.956 353.608C150.654 353.608 149.786 354.252 149.394 355.022L150.066 355.652C150.458 354.994 151.032 354.574 151.9 354.574C153.048 354.574 153.608 355.134 153.608 356.156V356.87H152.18C150.08 356.87 149.1 357.626 149.1 358.984C149.1 360.328 149.996 361.168 151.522 361.168C152.53 361.168 153.3 360.706 153.608 359.824H153.678C153.762 360.496 154.098 361 154.924 361H155.554ZM151.704 360.216C150.836 360.216 150.276 359.81 150.276 359.096V358.802C150.276 358.102 150.85 357.71 152.124 357.71H153.608V358.9C153.608 359.642 152.81 360.216 151.704 360.216ZM157.873 352.082C158.349 352.082 158.559 351.83 158.559 351.452V351.27C158.559 350.892 158.349 350.64 157.873 350.64C157.397 350.64 157.187 350.892 157.187 351.27V351.452C157.187 351.83 157.397 352.082 157.873 352.082ZM157.313 361H158.433V353.776H157.313V361ZM162.093 361V356.1C162.093 355.414 162.821 354.896 164.025 354.896H164.683V353.776H164.249C163.073 353.776 162.415 354.42 162.163 355.106H162.093V353.776H160.973V361H162.093ZM168.921 361.168C170.279 361.168 171.315 360.496 171.777 359.516L170.979 358.942C170.601 359.74 169.901 360.188 168.991 360.188C167.647 360.188 166.849 359.25 166.849 358.004V357.668H172.043V357.136C172.043 355.092 170.853 353.608 168.921 353.608C166.961 353.608 165.673 355.092 165.673 357.388C165.673 359.684 166.961 361.168 168.921 361.168ZM168.921 354.546C170.069 354.546 170.839 355.4 170.839 356.674V356.828H166.849V356.73C166.849 355.47 167.703 354.546 168.921 354.546ZM177.615 357.346V356.142H173.961V357.346H177.615ZM109.643 381H112.919C115.355 381 116.923 379.376 116.923 376.114C116.923 372.852 115.355 371.228 112.919 371.228H109.643V381ZM110.819 379.964V372.264H112.919C114.529 372.264 115.663 373.384 115.663 375.316V376.912C115.663 378.844 114.529 379.964 112.919 379.964H110.819ZM121.799 381.168C123.157 381.168 124.193 380.496 124.655 379.516L123.857 378.942C123.479 379.74 122.779 380.188 121.869 380.188C120.525 380.188 119.727 379.25 119.727 378.004V377.668H124.921V377.136C124.921 375.092 123.731 373.608 121.799 373.608C119.839 373.608 118.551 375.092 118.551 377.388C118.551 379.684 119.839 381.168 121.799 381.168ZM121.799 374.546C122.947 374.546 123.717 375.4 123.717 376.674V376.828H119.727V376.73C119.727 375.47 120.581 374.546 121.799 374.546ZM128.047 381V375.988C128.047 375.064 128.887 374.616 129.769 374.616C130.833 374.616 131.323 375.274 131.323 376.562V381H132.443V375.988C132.443 375.064 133.255 374.616 134.137 374.616C135.229 374.616 135.719 375.288 135.719 376.562V381H136.839V376.366C136.839 374.616 135.957 373.608 134.487 373.608C133.255 373.608 132.555 374.294 132.289 375.078H132.261C131.869 374.042 131.001 373.608 130.049 373.608C128.929 373.608 128.425 374.21 128.103 374.952H128.047V373.776H126.927V381H128.047ZM142.026 381.168C143.384 381.168 144.42 380.496 144.882 379.516L144.084 378.942C143.706 379.74 143.006 380.188 142.096 380.188C140.752 380.188 139.954 379.25 139.954 378.004V377.668H145.148V377.136C145.148 375.092 143.958 373.608 142.026 373.608C140.066 373.608 138.778 375.092 138.778 377.388C138.778 379.684 140.066 381.168 142.026 381.168ZM142.026 374.546C143.174 374.546 143.944 375.4 143.944 376.674V376.828H139.954V376.73C139.954 375.47 140.808 374.546 142.026 374.546ZM148.273 381V376.1C148.273 375.414 149.001 374.896 150.205 374.896H150.863V373.776H150.429C149.253 373.776 148.595 374.42 148.343 375.106H148.273V373.776H147.153V381H148.273ZM154.624 381.168C156.276 381.168 157.298 380.314 157.298 378.914C157.298 377.822 156.682 377.122 155.086 376.884L154.526 376.8C153.63 376.66 153.14 376.38 153.14 375.68C153.14 374.994 153.63 374.56 154.554 374.56C155.478 374.56 156.094 374.994 156.416 375.442L157.158 374.77C156.57 374.042 155.8 373.608 154.638 373.608C153.168 373.608 152.062 374.308 152.062 375.736C152.062 377.08 153.056 377.626 154.386 377.822L154.96 377.906C155.912 378.046 156.22 378.48 156.22 379.04C156.22 379.782 155.66 380.216 154.708 380.216C153.798 380.216 153.126 379.81 152.566 379.11L151.768 379.754C152.412 380.608 153.294 381.168 154.624 381.168ZM165.621 381.168C166.979 381.168 168.015 380.496 168.477 379.516L167.679 378.942C167.301 379.74 166.601 380.188 165.691 380.188C164.347 380.188 163.549 379.25 163.549 378.004V377.668H168.743V377.136C168.743 375.092 167.553 373.608 165.621 373.608C163.661 373.608 162.373 375.092 162.373 377.388C162.373 379.684 163.661 381.168 165.621 381.168ZM165.621 374.546C166.769 374.546 167.539 375.4 167.539 376.674V376.828H163.549V376.73C163.549 375.47 164.403 374.546 165.621 374.546ZM173.744 381V380.02H172.274V374.756H173.856V373.776H172.274V371.774H171.266V373.118C171.266 373.608 171.112 373.776 170.636 373.776H169.964V374.756H171.154V379.81C171.154 380.51 171.574 381 172.344 381H173.744ZM185.165 381V380.02H184.339V376.044C184.339 374.518 183.303 373.608 181.567 373.608C180.265 373.608 179.397 374.252 179.005 375.022L179.677 375.652C180.069 374.994 180.643 374.574 181.511 374.574C182.659 374.574 183.219 375.134 183.219 376.156V376.87H181.791C179.691 376.87 178.711 377.626 178.711 378.984C178.711 380.328 179.607 381.168 181.133 381.168C182.141 381.168 182.911 380.706 183.219 379.824H183.289C183.373 380.496 183.709 381 184.535 381H185.165ZM181.315 380.216C180.447 380.216 179.887 379.81 179.887 379.096V378.802C179.887 378.102 180.461 377.71 181.735 377.71H183.219V378.9C183.219 379.642 182.421 380.216 181.315 380.216ZM189.108 381V380.02H188.044V370.64H186.924V379.838C186.924 380.51 187.344 381 188.114 381H189.108ZM191.749 381.168C192.337 381.168 192.603 380.832 192.603 380.356V380.174C192.603 379.698 192.337 379.362 191.749 379.362C191.161 379.362 190.895 379.698 190.895 380.174V380.356C190.895 380.832 191.161 381.168 191.749 381.168Z" fill="black"/>
<path d="M221.713 371V369.964H217.555V361.228H216.379V371H221.713ZM225.625 371V370.02H224.561V360.64H223.441V369.838C223.441 370.51 223.861 371 224.631 371H225.625ZM230.145 371.168C232.077 371.168 233.407 369.684 233.407 367.388C233.407 365.092 232.077 363.608 230.145 363.608C228.213 363.608 226.883 365.092 226.883 367.388C226.883 369.684 228.213 371.168 230.145 371.168ZM230.145 370.174C228.941 370.174 228.087 369.432 228.087 367.906V366.87C228.087 365.344 228.941 364.602 230.145 364.602C231.349 364.602 232.203 365.344 232.203 366.87V367.906C232.203 369.432 231.349 370.174 230.145 370.174ZM238.043 368.69L237.651 369.866H237.581L237.245 368.69L235.509 363.776H234.389L237.091 371.28L236.545 372.82H235.411V373.8H235.985C237.049 373.8 237.343 373.548 237.665 372.68L240.899 363.776H239.793L238.043 368.69ZM247.039 371H248.159V360.64H247.039V364.952H246.983C246.605 364.042 245.863 363.608 244.869 363.608C243.063 363.608 241.929 365.078 241.929 367.388C241.929 369.698 243.063 371.168 244.869 371.168C245.863 371.168 246.549 370.72 246.983 369.824H247.039V371ZM245.177 370.16C243.917 370.16 243.133 369.292 243.133 368.004V366.772C243.133 365.484 243.917 364.616 245.177 364.616C246.199 364.616 247.039 365.204 247.039 366.002V368.69C247.039 369.628 246.199 370.16 245.177 370.16ZM256.884 371.168C258.242 371.168 259.278 370.496 259.74 369.516L258.942 368.942C258.564 369.74 257.864 370.188 256.954 370.188C255.61 370.188 254.812 369.25 254.812 368.004V367.668H260.006V367.136C260.006 365.092 258.816 363.608 256.884 363.608C254.924 363.608 253.636 365.092 253.636 367.388C253.636 369.684 254.924 371.168 256.884 371.168ZM256.884 364.546C258.032 364.546 258.802 365.4 258.802 366.674V366.828H254.812V366.73C254.812 365.47 255.666 364.546 256.884 364.546ZM265.008 371V370.02H263.538V364.756H265.12V363.776H263.538V361.774H262.53V363.118C262.53 363.608 262.376 363.776 261.9 363.776H261.228V364.756H262.418V369.81C262.418 370.51 262.838 371 263.608 371H265.008ZM276.429 371V370.02H275.603V366.044C275.603 364.518 274.567 363.608 272.831 363.608C271.529 363.608 270.661 364.252 270.269 365.022L270.941 365.652C271.333 364.994 271.907 364.574 272.775 364.574C273.923 364.574 274.483 365.134 274.483 366.156V366.87H273.055C270.955 366.87 269.975 367.626 269.975 368.984C269.975 370.328 270.871 371.168 272.397 371.168C273.405 371.168 274.175 370.706 274.483 369.824H274.553C274.637 370.496 274.973 371 275.799 371H276.429ZM272.579 370.216C271.711 370.216 271.151 369.81 271.151 369.096V368.802C271.151 368.102 271.725 367.71 272.999 367.71H274.483V368.9C274.483 369.642 273.685 370.216 272.579 370.216ZM280.371 371V370.02H279.307V360.64H278.187V369.838C278.187 370.51 278.607 371 279.377 371H280.371ZM283.013 371.168C283.601 371.168 283.867 370.832 283.867 370.356V370.174C283.867 369.698 283.601 369.362 283.013 369.362C282.425 369.362 282.159 369.698 282.159 370.174V370.356C282.159 370.832 282.425 371.168 283.013 371.168Z" fill="black"/>
<path d="M242.312 440.316H240.814V439.126C242.956 438.832 244.3 437.096 244.3 434.114C244.3 430.838 242.676 429.06 240.156 429.06C237.636 429.06 236.012 430.838 236.012 434.114C236.012 437.18 237.44 438.944 239.694 439.154V440.148C239.694 440.806 240.1 441.296 240.87 441.296H242.312V440.316ZM240.156 438.118C238.462 438.118 237.272 436.858 237.272 434.926V433.302C237.272 431.37 238.462 430.11 240.156 430.11C241.85 430.11 243.04 431.37 243.04 433.302V434.926C243.04 436.858 241.85 438.118 240.156 438.118ZM250.914 439H252.034V431.776H250.914V436.774C250.914 437.726 250.046 438.16 249.164 438.16C248.086 438.16 247.512 437.502 247.512 436.214V431.776H246.392V436.41C246.392 438.16 247.344 439.168 248.828 439.168C250.032 439.168 250.578 438.51 250.858 437.824H250.914V439ZM260.459 439V438.02H259.633V434.044C259.633 432.518 258.597 431.608 256.861 431.608C255.559 431.608 254.691 432.252 254.299 433.022L254.971 433.652C255.363 432.994 255.937 432.574 256.805 432.574C257.953 432.574 258.513 433.134 258.513 434.156V434.87H257.085C254.985 434.87 254.005 435.626 254.005 436.984C254.005 438.328 254.901 439.168 256.427 439.168C257.435 439.168 258.205 438.706 258.513 437.824H258.583C258.667 438.496 259.003 439 259.829 439H260.459ZM256.609 438.216C255.741 438.216 255.181 437.81 255.181 437.096V436.802C255.181 436.102 255.755 435.71 257.029 435.71H258.513V436.9C258.513 437.642 257.715 438.216 256.609 438.216ZM263.337 439V433.988C263.337 433.064 264.205 432.616 265.101 432.616C266.179 432.616 266.739 433.274 266.739 434.562V439H267.859V434.366C267.859 432.616 266.921 431.608 265.437 431.608C264.359 431.608 263.743 432.14 263.393 432.952H263.337V431.776H262.217V439H263.337ZM273.33 439V438.02H271.86V432.756H273.442V431.776H271.86V429.774H270.852V431.118C270.852 431.608 270.698 431.776 270.222 431.776H269.55V432.756H270.74V437.81C270.74 438.51 271.16 439 271.93 439H273.33ZM279.855 439H280.975V431.776H279.855V436.774C279.855 437.726 278.987 438.16 278.105 438.16C277.027 438.16 276.453 437.502 276.453 436.214V431.776H275.333V436.41C275.333 438.16 276.285 439.168 277.769 439.168C278.973 439.168 279.519 438.51 279.799 437.824H279.855V439ZM284.64 439V433.988C284.64 433.064 285.48 432.616 286.362 432.616C287.426 432.616 287.916 433.274 287.916 434.562V439H289.036V433.988C289.036 433.064 289.848 432.616 290.73 432.616C291.822 432.616 292.312 433.288 292.312 434.562V439H293.432V434.366C293.432 432.616 292.55 431.608 291.08 431.608C289.848 431.608 289.148 432.294 288.882 433.078H288.854C288.462 432.042 287.594 431.608 286.642 431.608C285.522 431.608 285.018 432.21 284.696 432.952H284.64V431.776H283.52V439H284.64ZM296.756 439.168C297.344 439.168 297.61 438.832 297.61 438.356V438.174C297.61 437.698 297.344 437.362 296.756 437.362C296.168 437.362 295.902 437.698 295.902 438.174V438.356C295.902 438.832 296.168 439.168 296.756 439.168ZM296.756 433.414C297.344 433.414 297.61 433.078 297.61 432.602V432.42C297.61 431.944 297.344 431.608 296.756 431.608C296.168 431.608 295.902 431.944 295.902 432.42V432.602C295.902 433.078 296.168 433.414 296.756 433.414Z" fill="black"/>
<path d="M104.07 430.264V429.228H96.6778V430.264H99.7858V439H100.962V430.264H104.07ZM109.486 439H110.606V431.776H109.486V436.774C109.486 437.726 108.618 438.16 107.736 438.16C106.658 438.16 106.084 437.502 106.084 436.214V431.776H104.964V436.41C104.964 438.16 105.916 439.168 107.4 439.168C108.604 439.168 109.15 438.51 109.43 437.824H109.486V439ZM116.147 439V438.02H114.677V432.756H116.259V431.776H114.677V429.774H113.669V431.118C113.669 431.608 113.515 431.776 113.039 431.776H112.367V432.756H113.557V437.81C113.557 438.51 113.977 439 114.747 439H116.147ZM120.895 439.168C122.827 439.168 124.157 437.684 124.157 435.388C124.157 433.092 122.827 431.608 120.895 431.608C118.963 431.608 117.633 433.092 117.633 435.388C117.633 437.684 118.963 439.168 120.895 439.168ZM120.895 438.174C119.691 438.174 118.837 437.432 118.837 435.906V434.87C118.837 433.344 119.691 432.602 120.895 432.602C122.099 432.602 122.953 433.344 122.953 434.87V435.906C122.953 437.432 122.099 438.174 120.895 438.174ZM127.279 439V434.1C127.279 433.414 128.007 432.896 129.211 432.896H129.869V431.776H129.435C128.259 431.776 127.601 432.42 127.349 433.106H127.279V431.776H126.159V439H127.279ZM132.019 430.082C132.495 430.082 132.705 429.83 132.705 429.452V429.27C132.705 428.892 132.495 428.64 132.019 428.64C131.543 428.64 131.333 428.892 131.333 429.27V429.452C131.333 429.83 131.543 430.082 132.019 430.082ZM131.459 439H132.579V431.776H131.459V439ZM140.999 439V438.02H140.173V434.044C140.173 432.518 139.137 431.608 137.401 431.608C136.099 431.608 135.231 432.252 134.839 433.022L135.511 433.652C135.903 432.994 136.477 432.574 137.345 432.574C138.493 432.574 139.053 433.134 139.053 434.156V434.87H137.625C135.525 434.87 134.545 435.626 134.545 436.984C134.545 438.328 135.441 439.168 136.967 439.168C137.975 439.168 138.745 438.706 139.053 437.824H139.123C139.207 438.496 139.543 439 140.369 439H140.999ZM137.149 438.216C136.281 438.216 135.721 437.81 135.721 437.096V436.802C135.721 436.102 136.295 435.71 137.569 435.71H139.053V436.9C139.053 437.642 138.255 438.216 137.149 438.216ZM144.942 439V438.02H143.878V428.64H142.758V437.838C142.758 438.51 143.178 439 143.948 439H144.942ZM147.586 439.168C148.174 439.168 148.44 438.832 148.44 438.356V438.174C148.44 437.698 148.174 437.362 147.586 437.362C146.998 437.362 146.732 437.698 146.732 438.174V438.356C146.732 438.832 146.998 439.168 147.586 439.168ZM147.586 433.414C148.174 433.414 148.44 433.078 148.44 432.602V432.42C148.44 431.944 148.174 431.608 147.586 431.608C146.998 431.608 146.732 431.944 146.732 432.42V432.602C146.732 433.078 146.998 433.414 147.586 433.414Z" fill="black"/>
<path d="M394.79 439.168C396.414 439.168 397.604 438.314 398.22 436.942L397.282 436.354C396.89 437.418 396.036 438.118 394.79 438.118C393.11 438.118 392.116 436.9 392.116 434.898V433.442C392.116 431.44 393.11 430.11 394.79 430.11C395.994 430.11 396.806 430.768 397.198 431.776L398.15 431.202C397.534 429.844 396.414 429.06 394.79 429.06C392.326 429.06 390.856 430.908 390.856 434.17C390.856 437.432 392.326 439.168 394.79 439.168ZM402.273 439V438.02H401.209V428.64H400.089V437.838C400.089 438.51 400.509 439 401.279 439H402.273ZM409.943 439V438.02H409.117V434.044C409.117 432.518 408.081 431.608 406.345 431.608C405.043 431.608 404.175 432.252 403.783 433.022L404.455 433.652C404.847 432.994 405.421 432.574 406.289 432.574C407.437 432.574 407.997 433.134 407.997 434.156V434.87H406.569C404.469 434.87 403.489 435.626 403.489 436.984C403.489 438.328 404.385 439.168 405.911 439.168C406.919 439.168 407.689 438.706 407.997 437.824H408.067C408.151 438.496 408.487 439 409.313 439H409.943ZM406.093 438.216C405.225 438.216 404.665 437.81 404.665 437.096V436.802C404.665 436.102 405.239 435.71 406.513 435.71H407.997V436.9C407.997 437.642 407.199 438.216 406.093 438.216ZM413.872 439.168C415.524 439.168 416.546 438.314 416.546 436.914C416.546 435.822 415.93 435.122 414.334 434.884L413.774 434.8C412.878 434.66 412.388 434.38 412.388 433.68C412.388 432.994 412.878 432.56 413.802 432.56C414.726 432.56 415.342 432.994 415.664 433.442L416.406 432.77C415.818 432.042 415.048 431.608 413.886 431.608C412.416 431.608 411.31 432.308 411.31 433.736C411.31 435.08 412.304 435.626 413.634 435.822L414.208 435.906C415.16 436.046 415.468 436.48 415.468 437.04C415.468 437.782 414.908 438.216 413.956 438.216C413.046 438.216 412.374 437.81 411.814 437.11L411.016 437.754C411.66 438.608 412.542 439.168 413.872 439.168ZM420.772 439.168C422.424 439.168 423.446 438.314 423.446 436.914C423.446 435.822 422.83 435.122 421.234 434.884L420.674 434.8C419.778 434.66 419.288 434.38 419.288 433.68C419.288 432.994 419.778 432.56 420.702 432.56C421.626 432.56 422.242 432.994 422.564 433.442L423.306 432.77C422.718 432.042 421.948 431.608 420.786 431.608C419.316 431.608 418.21 432.308 418.21 433.736C418.21 435.08 419.204 435.626 420.534 435.822L421.108 435.906C422.06 436.046 422.368 436.48 422.368 437.04C422.368 437.782 421.808 438.216 420.856 438.216C419.946 438.216 419.274 437.81 418.714 437.11L417.916 437.754C418.56 438.608 419.442 439.168 420.772 439.168ZM426.144 430.082C426.62 430.082 426.83 429.83 426.83 429.452V429.27C426.83 428.892 426.62 428.64 426.144 428.64C425.668 428.64 425.458 428.892 425.458 429.27V429.452C425.458 429.83 425.668 430.082 426.144 430.082ZM425.584 439H426.704V431.776H425.584V439ZM431.932 439.168C433.304 439.168 434.242 438.496 434.704 437.46L433.892 436.914C433.5 437.74 432.842 438.174 431.932 438.174C430.602 438.174 429.916 437.264 429.916 436.004V434.772C429.916 433.512 430.602 432.602 431.932 432.602C432.814 432.602 433.43 433.036 433.696 433.778L434.634 433.302C434.214 432.308 433.36 431.608 431.932 431.608C429.902 431.608 428.712 433.078 428.712 435.388C428.712 437.698 429.902 439.168 431.932 439.168ZM442.325 439V438.02H441.499V434.044C441.499 432.518 440.463 431.608 438.727 431.608C437.425 431.608 436.557 432.252 436.165 433.022L436.837 433.652C437.229 432.994 437.803 432.574 438.671 432.574C439.819 432.574 440.379 433.134 440.379 434.156V434.87H438.951C436.851 434.87 435.871 435.626 435.871 436.984C435.871 438.328 436.767 439.168 438.293 439.168C439.301 439.168 440.071 438.706 440.379 437.824H440.449C440.533 438.496 440.869 439 441.695 439H442.325ZM438.475 438.216C437.607 438.216 437.047 437.81 437.047 437.096V436.802C437.047 436.102 437.621 435.71 438.895 435.71H440.379V436.9C440.379 437.642 439.581 438.216 438.475 438.216ZM446.268 439V438.02H445.204V428.64H444.084V437.838C444.084 438.51 444.504 439 445.274 439H446.268ZM448.912 439.168C449.5 439.168 449.766 438.832 449.766 438.356V438.174C449.766 437.698 449.5 437.362 448.912 437.362C448.324 437.362 448.058 437.698 448.058 438.174V438.356C448.058 438.832 448.324 439.168 448.912 439.168ZM448.912 433.414C449.5 433.414 449.766 433.078 449.766 432.602V432.42C449.766 431.944 449.5 431.608 448.912 431.608C448.324 431.608 448.058 431.944 448.058 432.42V432.602C448.058 433.078 448.324 433.414 448.912 433.414Z" fill="black"/>
<path d="M546.83 430.264V429.228H539.438V430.264H542.546V439H543.722V430.264H546.83ZM549.051 430.082C549.527 430.082 549.737 429.83 549.737 429.452V429.27C549.737 428.892 549.527 428.64 549.051 428.64C548.575 428.64 548.365 428.892 548.365 429.27V429.452C548.365 429.83 548.575 430.082 549.051 430.082ZM548.491 439H549.611V431.776H548.491V439ZM553.271 439V433.988C553.271 433.064 554.111 432.616 554.993 432.616C556.057 432.616 556.547 433.274 556.547 434.562V439H557.667V433.988C557.667 433.064 558.479 432.616 559.361 432.616C560.453 432.616 560.943 433.288 560.943 434.562V439H562.063V434.366C562.063 432.616 561.181 431.608 559.711 431.608C558.479 431.608 557.779 432.294 557.513 433.078H557.485C557.093 432.042 556.225 431.608 555.273 431.608C554.153 431.608 553.649 432.21 553.327 432.952H553.271V431.776H552.151V439H553.271ZM567.25 439.168C568.608 439.168 569.644 438.496 570.106 437.516L569.308 436.942C568.93 437.74 568.23 438.188 567.32 438.188C565.976 438.188 565.178 437.25 565.178 436.004V435.668H570.372V435.136C570.372 433.092 569.182 431.608 567.25 431.608C565.29 431.608 564.002 433.092 564.002 435.388C564.002 437.684 565.29 439.168 567.25 439.168ZM567.25 432.546C568.398 432.546 569.168 433.4 569.168 434.674V434.828H565.178V434.73C565.178 433.47 566.032 432.546 567.25 432.546ZM574.562 439V438.02H573.498V428.64H572.378V437.838C572.378 438.51 572.798 439 573.568 439H574.562ZM576.912 430.082C577.388 430.082 577.598 429.83 577.598 429.452V429.27C577.598 428.892 577.388 428.64 576.912 428.64C576.436 428.64 576.226 428.892 576.226 429.27V429.452C576.226 429.83 576.436 430.082 576.912 430.082ZM576.352 439H577.472V431.776H576.352V439ZM581.132 439V433.988C581.132 433.064 582 432.616 582.896 432.616C583.974 432.616 584.534 433.274 584.534 434.562V439H585.654V434.366C585.654 432.616 584.716 431.608 583.232 431.608C582.154 431.608 581.538 432.14 581.188 432.952H581.132V431.776H580.012V439H581.132ZM590.845 439.168C592.203 439.168 593.239 438.496 593.701 437.516L592.903 436.942C592.525 437.74 591.825 438.188 590.915 438.188C589.571 438.188 588.773 437.25 588.773 436.004V435.668H593.967V435.136C593.967 433.092 592.777 431.608 590.845 431.608C588.885 431.608 587.597 433.092 587.597 435.388C587.597 437.684 588.885 439.168 590.845 439.168ZM590.845 432.546C591.993 432.546 592.763 433.4 592.763 434.674V434.828H588.773V434.73C588.773 433.47 589.627 432.546 590.845 432.546ZM596.827 439.168C597.415 439.168 597.681 438.832 597.681 438.356V438.174C597.681 437.698 597.415 437.362 596.827 437.362C596.239 437.362 595.973 437.698 595.973 438.174V438.356C595.973 438.832 596.239 439.168 596.827 439.168ZM596.827 433.414C597.415 433.414 597.681 433.078 597.681 432.602V432.42C597.681 431.944 597.415 431.608 596.827 431.608C596.239 431.608 595.973 431.944 595.973 432.42V432.602C595.973 433.078 596.239 433.414 596.827 433.414Z" fill="black"/>
<path d="M387.045 368.964H381.193L386.849 361.292V360.228H380.227V361.264H385.575L379.933 368.936V370H387.045V368.964ZM391.547 370.168C392.905 370.168 393.941 369.496 394.403 368.516L393.605 367.942C393.227 368.74 392.527 369.188 391.617 369.188C390.273 369.188 389.475 368.25 389.475 367.004V366.668H394.669V366.136C394.669 364.092 393.479 362.608 391.547 362.608C389.587 362.608 388.299 364.092 388.299 366.388C388.299 368.684 389.587 370.168 391.547 370.168ZM391.547 363.546C392.695 363.546 393.465 364.4 393.465 365.674V365.828H389.475V365.73C389.475 364.47 390.329 363.546 391.547 363.546ZM397.795 370V364.988C397.795 364.064 398.663 363.616 399.559 363.616C400.637 363.616 401.197 364.274 401.197 365.562V370H402.317V365.366C402.317 363.616 401.379 362.608 399.895 362.608C398.817 362.608 398.201 363.14 397.851 363.952H397.795V362.776H396.675V370H397.795ZM410.882 370.798C410.882 369.608 410.112 368.88 408.32 368.88H406.78C406.122 368.88 405.674 368.768 405.674 368.334C405.674 367.886 406.15 367.648 406.626 367.522C406.836 367.564 407.088 367.592 407.326 367.592C408.978 367.592 410.056 366.57 410.056 365.1C410.056 364.33 409.748 363.686 409.23 363.238V362.776H410.602V361.796H409.524C408.922 361.796 408.684 362.202 408.684 362.762V362.888C408.292 362.706 407.83 362.608 407.312 362.608C405.674 362.608 404.596 363.63 404.596 365.1C404.596 366.108 405.1 366.906 405.954 367.312V367.368C405.226 367.55 404.708 367.9 404.708 368.628C404.708 369.118 404.946 369.44 405.352 369.636V369.79C404.638 369.986 404.204 370.406 404.204 371.19C404.204 372.324 405.128 372.968 407.382 372.968C409.706 372.968 410.882 372.282 410.882 370.798ZM409.832 370.882C409.832 371.666 409.104 372.058 407.858 372.058H406.822C405.688 372.058 405.254 371.54 405.254 370.91C405.254 370.462 405.464 370.14 405.926 369.93H408.334C409.454 369.93 409.832 370.308 409.832 370.882ZM407.326 366.696C406.374 366.696 405.772 366.248 405.772 365.296V364.904C405.772 363.952 406.374 363.504 407.326 363.504C408.278 363.504 408.88 363.952 408.88 364.904V365.296C408.88 366.248 408.278 366.696 407.326 366.696ZM418.533 370.168C419.891 370.168 420.927 369.496 421.389 368.516L420.591 367.942C420.213 368.74 419.513 369.188 418.603 369.188C417.259 369.188 416.461 368.25 416.461 367.004V366.668H421.655V366.136C421.655 364.092 420.465 362.608 418.533 362.608C416.573 362.608 415.285 364.092 415.285 366.388C415.285 368.684 416.573 370.168 418.533 370.168ZM418.533 363.546C419.681 363.546 420.451 364.4 420.451 365.674V365.828H416.461V365.73C416.461 364.47 417.315 363.546 418.533 363.546ZM426.657 370V369.02H425.187V363.756H426.769V362.776H425.187V360.774H424.179V362.118C424.179 362.608 424.025 362.776 423.549 362.776H422.877V363.756H424.067V368.81C424.067 369.51 424.487 370 425.257 370H426.657ZM438.077 370V369.02H437.251V365.044C437.251 363.518 436.215 362.608 434.479 362.608C433.177 362.608 432.309 363.252 431.917 364.022L432.589 364.652C432.981 363.994 433.555 363.574 434.423 363.574C435.571 363.574 436.131 364.134 436.131 365.156V365.87H434.703C432.603 365.87 431.623 366.626 431.623 367.984C431.623 369.328 432.519 370.168 434.045 370.168C435.053 370.168 435.823 369.706 436.131 368.824H436.201C436.285 369.496 436.621 370 437.447 370H438.077ZM434.227 369.216C433.359 369.216 432.799 368.81 432.799 368.096V367.802C432.799 367.102 433.373 366.71 434.647 366.71H436.131V367.9C436.131 368.642 435.333 369.216 434.227 369.216ZM442.02 370V369.02H440.956V359.64H439.836V368.838C439.836 369.51 440.256 370 441.026 370H442.02ZM444.661 370.168C445.249 370.168 445.515 369.832 445.515 369.356V369.174C445.515 368.698 445.249 368.362 444.661 368.362C444.073 368.362 443.807 368.698 443.807 369.174V369.356C443.807 369.832 444.073 370.168 444.661 370.168Z" fill="black"/>
<path d="M464.269 371.168C466.369 371.168 467.629 370.02 467.629 368.228C467.629 366.772 466.803 365.932 464.899 365.498L464.101 365.316C462.869 365.036 462.267 364.616 462.267 363.692C462.267 362.642 463.037 362.096 464.283 362.096C465.417 362.096 466.159 362.558 466.691 363.3L467.573 362.656C466.845 361.62 465.809 361.06 464.339 361.06C462.421 361.06 461.105 361.998 461.105 363.734C461.105 365.232 462.085 366.016 463.863 366.422L464.661 366.604C465.949 366.898 466.467 367.36 466.467 368.284C466.467 369.404 465.711 370.132 464.311 370.132C463.177 370.132 462.365 369.642 461.679 368.732L460.811 369.46C461.595 370.524 462.701 371.168 464.269 371.168ZM470.268 362.082C470.744 362.082 470.954 361.83 470.954 361.452V361.27C470.954 360.892 470.744 360.64 470.268 360.64C469.792 360.64 469.582 360.892 469.582 361.27V361.452C469.582 361.83 469.792 362.082 470.268 362.082ZM469.708 371H470.828V363.776H469.708V371ZM476.364 371V370.02H474.894V364.756H476.476V363.776H474.894V361.774H473.886V363.118C473.886 363.608 473.732 363.776 473.256 363.776H472.584V364.756H473.774V369.81C473.774 370.51 474.194 371 474.964 371H476.364ZM482.888 371H484.008V363.776H482.888V368.774C482.888 369.726 482.02 370.16 481.138 370.16C480.06 370.16 479.486 369.502 479.486 368.214V363.776H478.366V368.41C478.366 370.16 479.318 371.168 480.802 371.168C482.006 371.168 482.552 370.51 482.832 369.824H482.888V371ZM492.738 371.168C494.096 371.168 495.132 370.496 495.594 369.516L494.796 368.942C494.418 369.74 493.718 370.188 492.808 370.188C491.464 370.188 490.666 369.25 490.666 368.004V367.668H495.86V367.136C495.86 365.092 494.67 363.608 492.738 363.608C490.778 363.608 489.49 365.092 489.49 367.388C489.49 369.684 490.778 371.168 492.738 371.168ZM492.738 364.546C493.886 364.546 494.656 365.4 494.656 366.674V366.828H490.666V366.73C490.666 365.47 491.52 364.546 492.738 364.546ZM500.862 371V370.02H499.392V364.756H500.974V363.776H499.392V361.774H498.384V363.118C498.384 363.608 498.23 363.776 497.754 363.776H497.082V364.756H498.272V369.81C498.272 370.51 498.692 371 499.462 371H500.862ZM512.282 371V370.02H511.456V366.044C511.456 364.518 510.42 363.608 508.684 363.608C507.382 363.608 506.514 364.252 506.122 365.022L506.794 365.652C507.186 364.994 507.76 364.574 508.628 364.574C509.776 364.574 510.336 365.134 510.336 366.156V366.87H508.908C506.808 366.87 505.828 367.626 505.828 368.984C505.828 370.328 506.724 371.168 508.25 371.168C509.258 371.168 510.028 370.706 510.336 369.824H510.406C510.49 370.496 510.826 371 511.652 371H512.282ZM508.432 370.216C507.564 370.216 507.004 369.81 507.004 369.096V368.802C507.004 368.102 507.578 367.71 508.852 367.71H510.336V368.9C510.336 369.642 509.538 370.216 508.432 370.216ZM516.225 371V370.02H515.161V360.64H514.041V369.838C514.041 370.51 514.461 371 515.231 371H516.225ZM518.866 371.168C519.454 371.168 519.72 370.832 519.72 370.356V370.174C519.72 369.698 519.454 369.362 518.866 369.362C518.278 369.362 518.012 369.698 518.012 370.174V370.356C518.012 370.832 518.278 371.168 518.866 371.168Z" fill="black"/>
<path d="M548.626 371H549.802V361.228H548.626V365.54H543.684V361.228H542.508V371H543.684V366.576H548.626V371ZM556.906 371H558.026V363.776H556.906V368.774C556.906 369.726 556.038 370.16 555.156 370.16C554.078 370.16 553.504 369.502 553.504 368.214V363.776H552.384V368.41C552.384 370.16 553.336 371.168 554.82 371.168C556.024 371.168 556.57 370.51 556.85 369.824H556.906V371ZM566.756 371.168C568.114 371.168 569.15 370.496 569.612 369.516L568.814 368.942C568.436 369.74 567.736 370.188 566.826 370.188C565.482 370.188 564.684 369.25 564.684 368.004V367.668H569.878V367.136C569.878 365.092 568.688 363.608 566.756 363.608C564.796 363.608 563.508 365.092 563.508 367.388C563.508 369.684 564.796 371.168 566.756 371.168ZM566.756 364.546C567.904 364.546 568.674 365.4 568.674 366.674V366.828H564.684V366.73C564.684 365.47 565.538 364.546 566.756 364.546ZM574.879 371V370.02H573.409V364.756H574.991V363.776H573.409V361.774H572.401V363.118C572.401 363.608 572.247 363.776 571.771 363.776H571.099V364.756H572.289V369.81C572.289 370.51 572.709 371 573.479 371H574.879ZM586.3 371V370.02H585.474V366.044C585.474 364.518 584.438 363.608 582.702 363.608C581.4 363.608 580.532 364.252 580.14 365.022L580.812 365.652C581.204 364.994 581.778 364.574 582.646 364.574C583.794 364.574 584.354 365.134 584.354 366.156V366.87H582.926C580.826 366.87 579.846 367.626 579.846 368.984C579.846 370.328 580.742 371.168 582.268 371.168C583.276 371.168 584.046 370.706 584.354 369.824H584.424C584.508 370.496 584.844 371 585.67 371H586.3ZM582.45 370.216C581.582 370.216 581.022 369.81 581.022 369.096V368.802C581.022 368.102 581.596 367.71 582.87 367.71H584.354V368.9C584.354 369.642 583.556 370.216 582.45 370.216ZM590.243 371V370.02H589.179V360.64H588.059V369.838C588.059 370.51 588.479 371 589.249 371H590.243ZM592.884 371.168C593.472 371.168 593.738 370.832 593.738 370.356V370.174C593.738 369.698 593.472 369.362 592.884 369.362C592.296 369.362 592.03 369.698 592.03 370.174V370.356C592.03 370.832 592.296 371.168 592.884 371.168Z" fill="black"/>
<path d="M650.789 361L654.079 351.228H652.861L651.237 356.156L650.131 359.824H650.061L648.983 356.156L647.373 351.228H646.113L649.361 361H650.789ZM661.472 362.316H659.974V361.126C662.116 360.832 663.46 359.096 663.46 356.114C663.46 352.838 661.836 351.06 659.316 351.06C656.796 351.06 655.172 352.838 655.172 356.114C655.172 359.18 656.6 360.944 658.854 361.154V362.148C658.854 362.806 659.26 363.296 660.03 363.296H661.472V362.316ZM659.316 360.118C657.622 360.118 656.432 358.858 656.432 356.926V355.302C656.432 353.37 657.622 352.11 659.316 352.11C661.01 352.11 662.2 353.37 662.2 355.302V356.926C662.2 358.858 661.01 360.118 659.316 360.118ZM672.062 361H673.154V355.974H669.85V357.01H672.006V357.976C672.006 359.418 670.872 360.118 669.514 360.118C667.652 360.118 666.504 358.83 666.504 356.898V355.316C666.504 353.384 667.68 352.11 669.402 352.11C670.634 352.11 671.544 352.754 671.992 353.79L672.958 353.202C672.328 351.928 671.152 351.06 669.402 351.06C666.896 351.06 665.244 352.866 665.244 356.114C665.244 359.39 666.91 361.168 669.304 361.168C670.788 361.168 671.782 360.482 672.02 359.572H672.062V361ZM623.484 376.632C623.484 379.362 624.632 381.742 626.018 382.918H627.082C625.57 381.574 624.534 379.208 624.534 377.248V376.044C624.534 374.084 625.528 371.76 627.082 370.36H626.018C624.59 371.578 623.484 373.93 623.484 376.632ZM631.358 381V380.02H629.888V374.756H631.47V373.776H629.888V371.774H628.88V373.118C628.88 373.608 628.726 373.776 628.25 373.776H627.578V374.756H628.768V379.81C628.768 380.51 629.188 381 629.958 381H631.358ZM633.43 381H634.55V375.988C634.55 375.064 635.418 374.616 636.314 374.616C637.392 374.616 637.952 375.274 637.952 376.562V381H639.072V376.366C639.072 374.616 638.134 373.608 636.65 373.608C635.572 373.608 634.956 374.14 634.606 374.952H634.55V370.64H633.43V381ZM642.107 372.082C642.583 372.082 642.793 371.83 642.793 371.452V371.27C642.793 370.892 642.583 370.64 642.107 370.64C641.631 370.64 641.421 370.892 641.421 371.27V371.452C641.421 371.83 641.631 372.082 642.107 372.082ZM641.547 381H642.667V373.776H641.547V381ZM647.377 381.168C649.029 381.168 650.051 380.314 650.051 378.914C650.051 377.822 649.435 377.122 647.839 376.884L647.279 376.8C646.383 376.66 645.893 376.38 645.893 375.68C645.893 374.994 646.383 374.56 647.307 374.56C648.231 374.56 648.847 374.994 649.169 375.442L649.911 374.77C649.323 374.042 648.553 373.608 647.391 373.608C645.921 373.608 644.815 374.308 644.815 375.736C644.815 377.08 645.809 377.626 647.139 377.822L647.713 377.906C648.665 378.046 648.973 378.48 648.973 379.04C648.973 379.782 648.413 380.216 647.461 380.216C646.551 380.216 645.879 379.81 645.319 379.11L644.521 379.754C645.165 380.608 646.047 381.168 647.377 381.168ZM656.834 381H658.192L659.2 377.528L659.816 375.33H659.844L660.474 377.528L661.482 381H662.868L664.786 373.776H663.736L662.952 376.898L662.21 380.062H662.182L661.286 376.898L660.348 373.776H659.354L658.444 376.898L657.562 380.062H657.534L656.764 376.898L655.994 373.776H654.902L656.834 381ZM669.225 381.168C671.157 381.168 672.487 379.684 672.487 377.388C672.487 375.092 671.157 373.608 669.225 373.608C667.293 373.608 665.963 375.092 665.963 377.388C665.963 379.684 667.293 381.168 669.225 381.168ZM669.225 380.174C668.021 380.174 667.167 379.432 667.167 377.906V376.87C667.167 375.344 668.021 374.602 669.225 374.602C670.429 374.602 671.283 375.344 671.283 376.87V377.906C671.283 379.432 670.429 380.174 669.225 380.174ZM675.609 381V376.1C675.609 375.414 676.337 374.896 677.541 374.896H678.199V373.776H677.765C676.589 373.776 675.931 374.42 675.679 375.106H675.609V373.776H674.489V381H675.609ZM679.79 381H680.91V378.424L681.988 377.318L684.382 381H685.74L682.8 376.632L685.474 373.776H684.116L682.072 375.974L680.966 377.206H680.91V370.64H679.79V381ZM689.366 381.168C691.018 381.168 692.04 380.314 692.04 378.914C692.04 377.822 691.424 377.122 689.828 376.884L689.268 376.8C688.372 376.66 687.882 376.38 687.882 375.68C687.882 374.994 688.372 374.56 689.296 374.56C690.22 374.56 690.836 374.994 691.158 375.442L691.9 374.77C691.312 374.042 690.542 373.608 689.38 373.608C687.91 373.608 686.804 374.308 686.804 375.736C686.804 377.08 687.798 377.626 689.128 377.822L689.702 377.906C690.654 378.046 690.962 378.48 690.962 379.04C690.962 379.782 690.402 380.216 689.45 380.216C688.54 380.216 687.868 379.81 687.308 379.11L686.51 379.754C687.154 380.608 688.036 381.168 689.366 381.168ZM696.516 376.632C696.516 373.93 695.41 371.578 693.982 370.36H692.918C694.472 371.76 695.466 374.084 695.466 376.044V377.248C695.466 379.208 694.43 381.574 692.918 382.918H693.982C695.368 381.742 696.516 379.362 696.516 376.632Z" fill="black"/>
<line x1="416" y1="102.5" x2="374" y2="102.5" stroke="black"/>
<line x1="487" y1="102.5" x2="529" y2="102.5" stroke="black"/>
<line x1="373.5" y1="97" x2="373.5" y2="108" stroke="black"/>
<line x1="447" y1="46.5" x2="376" y2="46.5" stroke="black"/>
<line x1="375.5" y1="41" x2="375.5" y2="52" stroke="black"/>
<line x1="190" y1="46.5" x2="121" y2="46.5" stroke="black"/>
<line x1="120.5" y1="41" x2="120.5" y2="52" stroke="black"/>
<line x1="529.5" y1="97" x2="529.5" y2="108" stroke="black"/>
<line x1="643" y1="46.5" x2="714" y2="46.5" stroke="black"/>
<line x1="712.5" y1="41" x2="712.5" y2="52" stroke="black"/>
<line x1="292" y1="46.5" x2="370" y2="46.5" stroke="black"/>
<line x1="370.5" y1="41" x2="370.5" y2="52" stroke="black"/>
<line x1="246.5" y1="349" x2="246.5" y2="329" stroke="black"/>
<path d="M246.5 348.5L346.5 329.5" stroke="black"/>
<path d="M246.5 348.5L153 329.5" stroke="black"/>
<rect x="634" y="324" width="57" height="14" fill="#FAFBFC"/>
<path d="M641.995 333V332.16H640.735V327.648H642.091V326.808H640.735V325.092H639.871V326.244C639.871 326.664 639.739 326.808 639.331 326.808H638.755V327.648H639.775V331.98C639.775 332.58 640.135 333 640.795 333H641.995ZM644.434 325.356C644.842 325.356 645.022 325.14 645.022 324.816V324.66C645.022 324.336 644.842 324.12 644.434 324.12C644.026 324.12 643.846 324.336 643.846 324.66V324.816C643.846 325.14 644.026 325.356 644.434 325.356ZM643.954 333H644.914V326.808H643.954V333ZM648.234 333V328.704C648.234 327.912 648.954 327.528 649.71 327.528C650.622 327.528 651.042 328.092 651.042 329.196V333H652.002V328.704C652.002 327.912 652.698 327.528 653.454 327.528C654.39 327.528 654.81 328.104 654.81 329.196V333H655.77V329.028C655.77 327.528 655.014 326.664 653.754 326.664C652.698 326.664 652.098 327.252 651.87 327.924H651.846C651.51 327.036 650.766 326.664 649.95 326.664C648.99 326.664 648.558 327.18 648.282 327.816H648.234V326.808H647.274V333H648.234ZM660.399 333.144C661.563 333.144 662.451 332.568 662.847 331.728L662.163 331.236C661.839 331.92 661.239 332.304 660.459 332.304C659.307 332.304 658.623 331.5 658.623 330.432V330.144H663.075V329.688C663.075 327.936 662.055 326.664 660.399 326.664C658.719 326.664 657.615 327.936 657.615 329.904C657.615 331.872 658.719 333.144 660.399 333.144ZM660.399 327.468C661.383 327.468 662.043 328.2 662.043 329.292V329.424H658.623V329.34C658.623 328.26 659.355 327.468 660.399 327.468ZM666.849 333V332.16H665.937V324.12H664.977V332.004C664.977 332.58 665.337 333 665.997 333H666.849ZM669.046 325.356C669.454 325.356 669.634 325.14 669.634 324.816V324.66C669.634 324.336 669.454 324.12 669.046 324.12C668.638 324.12 668.458 324.336 668.458 324.66V324.816C668.458 325.14 668.638 325.356 669.046 325.356ZM668.566 333H669.526V326.808H668.566V333ZM672.846 333V328.704C672.846 327.912 673.59 327.528 674.358 327.528C675.282 327.528 675.762 328.092 675.762 329.196V333H676.722V329.028C676.722 327.528 675.918 326.664 674.646 326.664C673.722 326.664 673.194 327.12 672.894 327.816H672.846V326.808H671.886V333H672.846ZM681.355 333.144C682.519 333.144 683.407 332.568 683.803 331.728L683.119 331.236C682.795 331.92 682.195 332.304 681.415 332.304C680.263 332.304 679.579 331.5 679.579 330.432V330.144H684.031V329.688C684.031 327.936 683.011 326.664 681.355 326.664C679.675 326.664 678.571 327.936 678.571 329.904C678.571 331.872 679.675 333.144 681.355 333.144ZM681.355 327.468C682.339 327.468 682.999 328.2 682.999 329.292V329.424H679.579V329.34C679.579 328.26 680.311 327.468 681.355 327.468Z" fill="black"/>
</svg>
