<svg width="187" height="176" viewBox="0 0 187 176" fill="none" xmlns="http://www.w3.org/2000/svg">
<path d="M1.148 14V4.228H7.434V5.866H2.996V8.232H6.86V9.87H2.996V14H1.148ZM10.1721 5.628C9.79874 5.628 9.52808 5.544 9.36008 5.376C9.20141 5.208 9.12208 4.99333 9.12208 4.732V4.452C9.12208 4.19067 9.20141 3.976 9.36008 3.808C9.52808 3.64 9.79874 3.556 10.1721 3.556C10.5361 3.556 10.8021 3.64 10.9701 3.808C11.1381 3.976 11.2221 4.19067 11.2221 4.452V4.732C11.2221 4.99333 11.1381 5.208 10.9701 5.376C10.8021 5.544 10.5361 5.628 10.1721 5.628ZM9.27608 6.692H11.0681V14H9.27608V6.692ZM13.3052 14V6.692H15.0972V7.91H15.1672C15.3166 7.518 15.5499 7.19133 15.8672 6.93C16.1939 6.65933 16.6419 6.524 17.2112 6.524C17.9672 6.524 18.5459 6.77133 18.9472 7.266C19.3486 7.76067 19.5492 8.46533 19.5492 9.38V14H17.7572V9.562C17.7572 9.03933 17.6639 8.64733 17.4772 8.386C17.2906 8.12467 16.9826 7.994 16.5532 7.994C16.3666 7.994 16.1846 8.022 16.0072 8.078C15.8392 8.12467 15.6852 8.19933 15.5452 8.302C15.4146 8.39533 15.3072 8.51667 15.2232 8.666C15.1392 8.806 15.0972 8.974 15.0972 9.17V14H13.3052ZM27.0717 14C26.6797 14 26.367 13.888 26.1337 13.664C25.9097 13.4307 25.7697 13.1227 25.7137 12.74H25.6297C25.5084 13.216 25.261 13.5753 24.8877 13.818C24.5144 14.0513 24.0524 14.168 23.5017 14.168C22.755 14.168 22.181 13.972 21.7797 13.58C21.3784 13.188 21.1777 12.6653 21.1777 12.012C21.1777 11.256 21.4484 10.696 21.9897 10.332C22.531 9.95867 23.301 9.772 24.2997 9.772H25.5457V9.24C25.5457 8.82933 25.4384 8.512 25.2237 8.288C25.009 8.064 24.6637 7.952 24.1877 7.952C23.7677 7.952 23.427 8.04533 23.1657 8.232C22.9137 8.40933 22.699 8.624 22.5217 8.876L21.4577 7.924C21.7284 7.504 22.0877 7.168 22.5357 6.916C22.9837 6.65467 23.5764 6.524 24.3137 6.524C25.303 6.524 26.0544 6.748 26.5677 7.196C27.081 7.644 27.3377 8.288 27.3377 9.128V12.572H28.0657V14H27.0717ZM24.1037 12.866C24.505 12.866 24.8457 12.7773 25.1257 12.6C25.4057 12.4227 25.5457 12.1613 25.5457 11.816V10.85H24.3977C23.4644 10.85 22.9977 11.1487 22.9977 11.746V11.984C22.9977 12.2827 23.091 12.5067 23.2777 12.656C23.4737 12.796 23.749 12.866 24.1037 12.866ZM31.468 14C30.852 14 30.3993 13.846 30.11 13.538C29.8207 13.23 29.676 12.796 29.676 12.236V3.64H31.468V12.572H32.434V14H31.468ZM42.7958 14C42.4038 14 42.0912 13.888 41.8578 13.664C41.6338 13.4307 41.4938 13.1227 41.4378 12.74H41.3538C41.2325 13.216 40.9852 13.5753 40.6118 13.818C40.2385 14.0513 39.7765 14.168 39.2258 14.168C38.4792 14.168 37.9052 13.972 37.5038 13.58C37.1025 13.188 36.9018 12.6653 36.9018 12.012C36.9018 11.256 37.1725 10.696 37.7138 10.332C38.2552 9.95867 39.0252 9.772 40.0238 9.772H41.2698V9.24C41.2698 8.82933 41.1625 8.512 40.9478 8.288C40.7332 8.064 40.3878 7.952 39.9118 7.952C39.4918 7.952 39.1512 8.04533 38.8898 8.232C38.6378 8.40933 38.4232 8.624 38.2458 8.876L37.1818 7.924C37.4525 7.504 37.8118 7.168 38.2598 6.916C38.7078 6.65467 39.3005 6.524 40.0378 6.524C41.0272 6.524 41.7785 6.748 42.2918 7.196C42.8052 7.644 43.0618 8.288 43.0618 9.128V12.572H43.7898V14H42.7958ZM39.8278 12.866C40.2292 12.866 40.5698 12.7773 40.8498 12.6C41.1298 12.4227 41.2698 12.1613 41.2698 11.816V10.85H40.1218C39.1885 10.85 38.7218 11.1487 38.7218 11.746V11.984C38.7218 12.2827 38.8152 12.5067 39.0018 12.656C39.1978 12.796 39.4732 12.866 39.8278 12.866ZM45.4001 14V6.692H47.1921V7.91H47.2621C47.4021 7.52733 47.6261 7.20067 47.9341 6.93C48.2421 6.65933 48.6715 6.524 49.2221 6.524C49.7261 6.524 50.1601 6.64533 50.5241 6.888C50.8881 7.13067 51.1588 7.49933 51.3361 7.994H51.3641C51.4948 7.58333 51.7515 7.238 52.1341 6.958C52.5261 6.66867 53.0161 6.524 53.6041 6.524C54.3228 6.524 54.8735 6.77133 55.2561 7.266C55.6481 7.76067 55.8441 8.46533 55.8441 9.38V14H54.0521V9.562C54.0521 8.51667 53.6601 7.994 52.8761 7.994C52.6988 7.994 52.5261 8.022 52.3581 8.078C52.1995 8.12467 52.0548 8.19933 51.9241 8.302C51.8028 8.39533 51.7048 8.51667 51.6301 8.666C51.5555 8.806 51.5181 8.974 51.5181 9.17V14H49.7261V9.562C49.7261 8.51667 49.3341 7.994 48.5501 7.994C48.3821 7.994 48.2141 8.022 48.0461 8.078C47.8875 8.12467 47.7428 8.19933 47.6121 8.302C47.4908 8.39533 47.3881 8.51667 47.3041 8.666C47.2295 8.806 47.1921 8.974 47.1921 9.17V14H45.4001ZM57.9879 6.692H59.7799V7.896H59.8359C59.9665 7.476 60.2139 7.14467 60.5779 6.902C60.9419 6.65 61.3665 6.524 61.8519 6.524C62.7852 6.524 63.4945 6.85533 63.9799 7.518C64.4745 8.17133 64.7219 9.10933 64.7219 10.332C64.7219 11.564 64.4745 12.5113 63.9799 13.174C63.4945 13.8367 62.7852 14.168 61.8519 14.168C61.3665 14.168 60.9419 14.042 60.5779 13.79C60.2232 13.538 59.9759 13.202 59.8359 12.782H59.7799V16.8H57.9879V6.692ZM61.2779 12.684C61.7445 12.684 62.1225 12.53 62.4119 12.222C62.7012 11.914 62.8459 11.4987 62.8459 10.976V9.716C62.8459 9.19333 62.7012 8.778 62.4119 8.47C62.1225 8.15267 61.7445 7.994 61.2779 7.994C60.8485 7.994 60.4892 8.10133 60.1999 8.316C59.9199 8.53067 59.7799 8.81533 59.7799 9.17V11.494C59.7799 11.8767 59.9199 12.1707 60.1999 12.376C60.4892 12.5813 60.8485 12.684 61.2779 12.684ZM68.3344 14C67.7184 14 67.2657 13.846 66.9764 13.538C66.6871 13.23 66.5424 12.796 66.5424 12.236V3.64H68.3344V12.572H69.3004V14H68.3344ZM71.7136 5.628C71.3403 5.628 71.0696 5.544 70.9016 5.376C70.743 5.208 70.6636 4.99333 70.6636 4.732V4.452C70.6636 4.19067 70.743 3.976 70.9016 3.808C71.0696 3.64 71.3403 3.556 71.7136 3.556C72.0776 3.556 72.3436 3.64 72.5116 3.808C72.6796 3.976 72.7636 4.19067 72.7636 4.452V4.732C72.7636 4.99333 72.6796 5.208 72.5116 5.376C72.3436 5.544 72.0776 5.628 71.7136 5.628ZM70.8176 6.692H72.6096V14H70.8176V6.692ZM77.1288 14C76.5128 14 76.0415 13.8413 75.7148 13.524C75.3975 13.1973 75.2388 12.7353 75.2388 12.138V8.12H74.1608V6.692H74.7208C74.9915 6.692 75.1735 6.63133 75.2668 6.51C75.3695 6.37933 75.4208 6.188 75.4208 5.936V4.69H77.0308V6.692H78.5288V8.12H77.0308V12.572H78.4168V14H77.1288ZM84.6111 12.782H84.5411C84.4758 12.9687 84.3871 13.146 84.2751 13.314C84.1724 13.4727 84.0371 13.6173 83.8691 13.748C83.7104 13.8787 83.5144 13.9813 83.2811 14.056C83.0571 14.1307 82.7958 14.168 82.4971 14.168C81.7411 14.168 81.1624 13.9207 80.7611 13.426C80.3598 12.9313 80.1591 12.2267 80.1591 11.312V6.692H81.9511V11.13C81.9511 11.634 82.0491 12.0213 82.2451 12.292C82.4411 12.5533 82.7538 12.684 83.1831 12.684C83.3604 12.684 83.5331 12.6607 83.7011 12.614C83.8784 12.5673 84.0324 12.4973 84.1631 12.404C84.2938 12.3013 84.4011 12.18 84.4851 12.04C84.5691 11.8907 84.6111 11.718 84.6111 11.522V6.692H86.4031V14H84.6111V12.782ZM93.1696 12.782H93.0996C92.9689 13.202 92.7216 13.538 92.3576 13.79C91.9936 14.042 91.5689 14.168 91.0836 14.168C90.1596 14.168 89.4502 13.8367 88.9556 13.174C88.4702 12.5113 88.2276 11.564 88.2276 10.332C88.2276 9.10933 88.4702 8.17133 88.9556 7.518C89.4502 6.85533 90.1596 6.524 91.0836 6.524C91.5689 6.524 91.9936 6.65 92.3576 6.902C92.7216 7.14467 92.9689 7.476 93.0996 7.896H93.1696V3.64H94.9616V14H93.1696V12.782ZM91.6576 12.684C92.0869 12.684 92.4462 12.5813 92.7356 12.376C93.0249 12.1707 93.1696 11.8767 93.1696 11.494V9.17C93.1696 8.81533 93.0249 8.53067 92.7356 8.316C92.4462 8.10133 92.0869 7.994 91.6576 7.994C91.1909 7.994 90.8129 8.15267 90.5236 8.47C90.2436 8.778 90.1036 9.19333 90.1036 9.716V10.976C90.1036 11.4987 90.2436 11.914 90.5236 12.222C90.8129 12.53 91.1909 12.684 91.6576 12.684ZM100.142 14.168C99.6008 14.168 99.1154 14.0793 98.6861 13.902C98.2661 13.7153 97.9068 13.4587 97.6081 13.132C97.3188 12.796 97.0948 12.3947 96.9361 11.928C96.7774 11.452 96.6981 10.92 96.6981 10.332C96.6981 9.75333 96.7728 9.23067 96.9221 8.764C97.0808 8.29733 97.3048 7.90067 97.5941 7.574C97.8834 7.238 98.2381 6.98133 98.6581 6.804C99.0781 6.61733 99.5541 6.524 100.086 6.524C100.655 6.524 101.15 6.622 101.57 6.818C101.99 7.014 102.335 7.28 102.606 7.616C102.877 7.952 103.077 8.344 103.208 8.792C103.348 9.23067 103.418 9.702 103.418 10.206V10.794H98.5601V10.976C98.5601 11.508 98.7094 11.9373 99.0081 12.264C99.3068 12.5813 99.7501 12.74 100.338 12.74C100.786 12.74 101.15 12.6467 101.43 12.46C101.719 12.2733 101.976 12.0353 102.2 11.746L103.166 12.824C102.867 13.244 102.457 13.5753 101.934 13.818C101.421 14.0513 100.823 14.168 100.142 14.168ZM100.114 7.868C99.6381 7.868 99.2601 8.02667 98.9801 8.344C98.7001 8.66133 98.5601 9.072 98.5601 9.576V9.688H101.556V9.562C101.556 9.058 101.43 8.652 101.178 8.344C100.935 8.02667 100.581 7.868 100.114 7.868ZM111.521 14.168C110.999 14.168 110.527 14.0793 110.107 13.902C109.697 13.7247 109.342 13.468 109.043 13.132C108.754 12.796 108.53 12.3947 108.371 11.928C108.213 11.452 108.133 10.92 108.133 10.332C108.133 9.744 108.213 9.21667 108.371 8.75C108.53 8.28333 108.754 7.88667 109.043 7.56C109.342 7.224 109.697 6.96733 110.107 6.79C110.527 6.61267 110.999 6.524 111.521 6.524C112.044 6.524 112.515 6.61267 112.935 6.79C113.355 6.96733 113.71 7.224 113.999 7.56C114.298 7.88667 114.527 8.28333 114.685 8.75C114.844 9.21667 114.923 9.744 114.923 10.332C114.923 10.92 114.844 11.452 114.685 11.928C114.527 12.3947 114.298 12.796 113.999 13.132C113.71 13.468 113.355 13.7247 112.935 13.902C112.515 14.0793 112.044 14.168 111.521 14.168ZM111.521 12.726C111.997 12.726 112.371 12.5813 112.641 12.292C112.912 12.0027 113.047 11.578 113.047 11.018V9.66C113.047 9.10933 112.912 8.68933 112.641 8.4C112.371 8.11067 111.997 7.966 111.521 7.966C111.055 7.966 110.686 8.11067 110.415 8.4C110.145 8.68933 110.009 9.10933 110.009 9.66V11.018C110.009 11.578 110.145 12.0027 110.415 12.292C110.686 12.5813 111.055 12.726 111.521 12.726ZM116.954 8.106H115.876V6.692H116.954V5.642C116.954 4.998 117.122 4.50333 117.458 4.158C117.803 3.81267 118.307 3.64 118.97 3.64H120.244V5.068H118.746V6.692H120.244V8.106H118.746V14H116.954V8.106ZM125.953 15.932V3.36H127.465V15.932H125.953ZM133.701 14.168C133.075 14.168 132.534 14.056 132.077 13.832C131.619 13.5987 131.241 13.2673 130.943 12.838C130.644 12.4087 130.42 11.8813 130.271 11.256C130.131 10.6307 130.061 9.91667 130.061 9.114C130.061 8.32067 130.131 7.61133 130.271 6.986C130.42 6.35133 130.644 5.81933 130.943 5.39C131.241 4.96067 131.619 4.634 132.077 4.41C132.534 4.17667 133.075 4.06 133.701 4.06C134.942 4.06 135.857 4.50333 136.445 5.39C137.042 6.27667 137.341 7.518 137.341 9.114C137.341 10.71 137.042 11.9513 136.445 12.838C135.857 13.7247 134.942 14.168 133.701 14.168ZM133.701 12.614C134.326 12.614 134.76 12.3807 135.003 11.914C135.255 11.438 135.381 10.7987 135.381 9.996V8.232C135.381 7.42933 135.255 6.79467 135.003 6.328C134.76 5.852 134.326 5.614 133.701 5.614C133.075 5.614 132.637 5.852 132.385 6.328C132.142 6.79467 132.021 7.42933 132.021 8.232V9.996C132.021 10.7987 132.142 11.438 132.385 11.914C132.637 12.3807 133.075 12.614 133.701 12.614ZM139.441 12.236L143.221 9.926V9.828L139.441 7.518V5.698L145.069 9.282V10.458L139.441 14.07V12.236Z" fill="#121619"/>
<path d="M1.148 118V108.228H7.434V109.866H2.996V112.232H6.86V113.87H2.996V118H1.148ZM10.1721 109.628C9.79874 109.628 9.52808 109.544 9.36008 109.376C9.20141 109.208 9.12208 108.993 9.12208 108.732V108.452C9.12208 108.191 9.20141 107.976 9.36008 107.808C9.52808 107.64 9.79874 107.556 10.1721 107.556C10.5361 107.556 10.8021 107.64 10.9701 107.808C11.1381 107.976 11.2221 108.191 11.2221 108.452V108.732C11.2221 108.993 11.1381 109.208 10.9701 109.376C10.8021 109.544 10.5361 109.628 10.1721 109.628ZM9.27608 110.692H11.0681V118H9.27608V110.692ZM13.3052 118V110.692H15.0972V111.91H15.1672C15.3166 111.518 15.5499 111.191 15.8672 110.93C16.1939 110.659 16.6419 110.524 17.2112 110.524C17.9672 110.524 18.5459 110.771 18.9472 111.266C19.3486 111.761 19.5492 112.465 19.5492 113.38V118H17.7572V113.562C17.7572 113.039 17.6639 112.647 17.4772 112.386C17.2906 112.125 16.9826 111.994 16.5532 111.994C16.3666 111.994 16.1846 112.022 16.0072 112.078C15.8392 112.125 15.6852 112.199 15.5452 112.302C15.4146 112.395 15.3072 112.517 15.2232 112.666C15.1392 112.806 15.0972 112.974 15.0972 113.17V118H13.3052ZM27.0717 118C26.6797 118 26.367 117.888 26.1337 117.664C25.9097 117.431 25.7697 117.123 25.7137 116.74H25.6297C25.5084 117.216 25.261 117.575 24.8877 117.818C24.5144 118.051 24.0524 118.168 23.5017 118.168C22.755 118.168 22.181 117.972 21.7797 117.58C21.3784 117.188 21.1777 116.665 21.1777 116.012C21.1777 115.256 21.4484 114.696 21.9897 114.332C22.531 113.959 23.301 113.772 24.2997 113.772H25.5457V113.24C25.5457 112.829 25.4384 112.512 25.2237 112.288C25.009 112.064 24.6637 111.952 24.1877 111.952C23.7677 111.952 23.427 112.045 23.1657 112.232C22.9137 112.409 22.699 112.624 22.5217 112.876L21.4577 111.924C21.7284 111.504 22.0877 111.168 22.5357 110.916C22.9837 110.655 23.5764 110.524 24.3137 110.524C25.303 110.524 26.0544 110.748 26.5677 111.196C27.081 111.644 27.3377 112.288 27.3377 113.128V116.572H28.0657V118H27.0717ZM24.1037 116.866C24.505 116.866 24.8457 116.777 25.1257 116.6C25.4057 116.423 25.5457 116.161 25.5457 115.816V114.85H24.3977C23.4644 114.85 22.9977 115.149 22.9977 115.746V115.984C22.9977 116.283 23.091 116.507 23.2777 116.656C23.4737 116.796 23.749 116.866 24.1037 116.866ZM31.468 118C30.852 118 30.3993 117.846 30.11 117.538C29.8207 117.23 29.676 116.796 29.676 116.236V107.64H31.468V116.572H32.434V118H31.468ZM42.7958 118C42.4038 118 42.0912 117.888 41.8578 117.664C41.6338 117.431 41.4938 117.123 41.4378 116.74H41.3538C41.2325 117.216 40.9852 117.575 40.6118 117.818C40.2385 118.051 39.7765 118.168 39.2258 118.168C38.4792 118.168 37.9052 117.972 37.5038 117.58C37.1025 117.188 36.9018 116.665 36.9018 116.012C36.9018 115.256 37.1725 114.696 37.7138 114.332C38.2552 113.959 39.0252 113.772 40.0238 113.772H41.2698V113.24C41.2698 112.829 41.1625 112.512 40.9478 112.288C40.7332 112.064 40.3878 111.952 39.9118 111.952C39.4918 111.952 39.1512 112.045 38.8898 112.232C38.6378 112.409 38.4232 112.624 38.2458 112.876L37.1818 111.924C37.4525 111.504 37.8118 111.168 38.2598 110.916C38.7078 110.655 39.3005 110.524 40.0378 110.524C41.0272 110.524 41.7785 110.748 42.2918 111.196C42.8052 111.644 43.0618 112.288 43.0618 113.128V116.572H43.7898V118H42.7958ZM39.8278 116.866C40.2292 116.866 40.5698 116.777 40.8498 116.6C41.1298 116.423 41.2698 116.161 41.2698 115.816V114.85H40.1218C39.1885 114.85 38.7218 115.149 38.7218 115.746V115.984C38.7218 116.283 38.8152 116.507 39.0018 116.656C39.1978 116.796 39.4732 116.866 39.8278 116.866ZM45.4001 118V110.692H47.1921V111.91H47.2621C47.4021 111.527 47.6261 111.201 47.9341 110.93C48.2421 110.659 48.6715 110.524 49.2221 110.524C49.7261 110.524 50.1601 110.645 50.5241 110.888C50.8881 111.131 51.1588 111.499 51.3361 111.994H51.3641C51.4948 111.583 51.7515 111.238 52.1341 110.958C52.5261 110.669 53.0161 110.524 53.6041 110.524C54.3228 110.524 54.8735 110.771 55.2561 111.266C55.6481 111.761 55.8441 112.465 55.8441 113.38V118H54.0521V113.562C54.0521 112.517 53.6601 111.994 52.8761 111.994C52.6988 111.994 52.5261 112.022 52.3581 112.078C52.1995 112.125 52.0548 112.199 51.9241 112.302C51.8028 112.395 51.7048 112.517 51.6301 112.666C51.5555 112.806 51.5181 112.974 51.5181 113.17V118H49.7261V113.562C49.7261 112.517 49.3341 111.994 48.5501 111.994C48.3821 111.994 48.2141 112.022 48.0461 112.078C47.8875 112.125 47.7428 112.199 47.6121 112.302C47.4908 112.395 47.3881 112.517 47.3041 112.666C47.2295 112.806 47.1921 112.974 47.1921 113.17V118H45.4001ZM57.9879 110.692H59.7799V111.896H59.8359C59.9665 111.476 60.2139 111.145 60.5779 110.902C60.9419 110.65 61.3665 110.524 61.8519 110.524C62.7852 110.524 63.4945 110.855 63.9799 111.518C64.4745 112.171 64.7219 113.109 64.7219 114.332C64.7219 115.564 64.4745 116.511 63.9799 117.174C63.4945 117.837 62.7852 118.168 61.8519 118.168C61.3665 118.168 60.9419 118.042 60.5779 117.79C60.2232 117.538 59.9759 117.202 59.8359 116.782H59.7799V120.8H57.9879V110.692ZM61.2779 116.684C61.7445 116.684 62.1225 116.53 62.4119 116.222C62.7012 115.914 62.8459 115.499 62.8459 114.976V113.716C62.8459 113.193 62.7012 112.778 62.4119 112.47C62.1225 112.153 61.7445 111.994 61.2779 111.994C60.8485 111.994 60.4892 112.101 60.1999 112.316C59.9199 112.531 59.7799 112.815 59.7799 113.17V115.494C59.7799 115.877 59.9199 116.171 60.1999 116.376C60.4892 116.581 60.8485 116.684 61.2779 116.684ZM68.3344 118C67.7184 118 67.2657 117.846 66.9764 117.538C66.6871 117.23 66.5424 116.796 66.5424 116.236V107.64H68.3344V116.572H69.3004V118H68.3344ZM71.7136 109.628C71.3403 109.628 71.0696 109.544 70.9016 109.376C70.743 109.208 70.6636 108.993 70.6636 108.732V108.452C70.6636 108.191 70.743 107.976 70.9016 107.808C71.0696 107.64 71.3403 107.556 71.7136 107.556C72.0776 107.556 72.3436 107.64 72.5116 107.808C72.6796 107.976 72.7636 108.191 72.7636 108.452V108.732C72.7636 108.993 72.6796 109.208 72.5116 109.376C72.3436 109.544 72.0776 109.628 71.7136 109.628ZM70.8176 110.692H72.6096V118H70.8176V110.692ZM77.1288 118C76.5128 118 76.0415 117.841 75.7148 117.524C75.3975 117.197 75.2388 116.735 75.2388 116.138V112.12H74.1608V110.692H74.7208C74.9915 110.692 75.1735 110.631 75.2668 110.51C75.3695 110.379 75.4208 110.188 75.4208 109.936V108.69H77.0308V110.692H78.5288V112.12H77.0308V116.572H78.4168V118H77.1288ZM84.6111 116.782H84.5411C84.4758 116.969 84.3871 117.146 84.2751 117.314C84.1724 117.473 84.0371 117.617 83.8691 117.748C83.7104 117.879 83.5144 117.981 83.2811 118.056C83.0571 118.131 82.7958 118.168 82.4971 118.168C81.7411 118.168 81.1624 117.921 80.7611 117.426C80.3598 116.931 80.1591 116.227 80.1591 115.312V110.692H81.9511V115.13C81.9511 115.634 82.0491 116.021 82.2451 116.292C82.4411 116.553 82.7538 116.684 83.1831 116.684C83.3604 116.684 83.5331 116.661 83.7011 116.614C83.8784 116.567 84.0324 116.497 84.1631 116.404C84.2938 116.301 84.4011 116.18 84.4851 116.04C84.5691 115.891 84.6111 115.718 84.6111 115.522V110.692H86.4031V118H84.6111V116.782ZM93.1696 116.782H93.0996C92.9689 117.202 92.7216 117.538 92.3576 117.79C91.9936 118.042 91.5689 118.168 91.0836 118.168C90.1596 118.168 89.4502 117.837 88.9556 117.174C88.4702 116.511 88.2276 115.564 88.2276 114.332C88.2276 113.109 88.4702 112.171 88.9556 111.518C89.4502 110.855 90.1596 110.524 91.0836 110.524C91.5689 110.524 91.9936 110.65 92.3576 110.902C92.7216 111.145 92.9689 111.476 93.0996 111.896H93.1696V107.64H94.9616V118H93.1696V116.782ZM91.6576 116.684C92.0869 116.684 92.4462 116.581 92.7356 116.376C93.0249 116.171 93.1696 115.877 93.1696 115.494V113.17C93.1696 112.815 93.0249 112.531 92.7356 112.316C92.4462 112.101 92.0869 111.994 91.6576 111.994C91.1909 111.994 90.8129 112.153 90.5236 112.47C90.2436 112.778 90.1036 113.193 90.1036 113.716V114.976C90.1036 115.499 90.2436 115.914 90.5236 116.222C90.8129 116.53 91.1909 116.684 91.6576 116.684ZM100.142 118.168C99.6008 118.168 99.1154 118.079 98.6861 117.902C98.2661 117.715 97.9068 117.459 97.6081 117.132C97.3188 116.796 97.0948 116.395 96.9361 115.928C96.7774 115.452 96.6981 114.92 96.6981 114.332C96.6981 113.753 96.7728 113.231 96.9221 112.764C97.0808 112.297 97.3048 111.901 97.5941 111.574C97.8834 111.238 98.2381 110.981 98.6581 110.804C99.0781 110.617 99.5541 110.524 100.086 110.524C100.655 110.524 101.15 110.622 101.57 110.818C101.99 111.014 102.335 111.28 102.606 111.616C102.877 111.952 103.077 112.344 103.208 112.792C103.348 113.231 103.418 113.702 103.418 114.206V114.794H98.5601V114.976C98.5601 115.508 98.7094 115.937 99.0081 116.264C99.3068 116.581 99.7501 116.74 100.338 116.74C100.786 116.74 101.15 116.647 101.43 116.46C101.719 116.273 101.976 116.035 102.2 115.746L103.166 116.824C102.867 117.244 102.457 117.575 101.934 117.818C101.421 118.051 100.823 118.168 100.142 118.168ZM100.114 111.868C99.6381 111.868 99.2601 112.027 98.9801 112.344C98.7001 112.661 98.5601 113.072 98.5601 113.576V113.688H101.556V113.562C101.556 113.058 101.43 112.652 101.178 112.344C100.935 112.027 100.581 111.868 100.114 111.868ZM111.521 118.168C110.999 118.168 110.527 118.079 110.107 117.902C109.697 117.725 109.342 117.468 109.043 117.132C108.754 116.796 108.53 116.395 108.371 115.928C108.213 115.452 108.133 114.92 108.133 114.332C108.133 113.744 108.213 113.217 108.371 112.75C108.53 112.283 108.754 111.887 109.043 111.56C109.342 111.224 109.697 110.967 110.107 110.79C110.527 110.613 110.999 110.524 111.521 110.524C112.044 110.524 112.515 110.613 112.935 110.79C113.355 110.967 113.71 111.224 113.999 111.56C114.298 111.887 114.527 112.283 114.685 112.75C114.844 113.217 114.923 113.744 114.923 114.332C114.923 114.92 114.844 115.452 114.685 115.928C114.527 116.395 114.298 116.796 113.999 117.132C113.71 117.468 113.355 117.725 112.935 117.902C112.515 118.079 112.044 118.168 111.521 118.168ZM111.521 116.726C111.997 116.726 112.371 116.581 112.641 116.292C112.912 116.003 113.047 115.578 113.047 115.018V113.66C113.047 113.109 112.912 112.689 112.641 112.4C112.371 112.111 111.997 111.966 111.521 111.966C111.055 111.966 110.686 112.111 110.415 112.4C110.145 112.689 110.009 113.109 110.009 113.66V115.018C110.009 115.578 110.145 116.003 110.415 116.292C110.686 116.581 111.055 116.726 111.521 116.726ZM116.954 112.106H115.876V110.692H116.954V109.642C116.954 108.998 117.122 108.503 117.458 108.158C117.803 107.813 118.307 107.64 118.97 107.64H120.244V109.068H118.746V110.692H120.244V112.106H118.746V118H116.954V112.106ZM125.953 119.932V107.36H127.465V119.932H125.953ZM130.775 118V116.502H133.463V109.558H133.337L131.209 112.078L130.061 111.112L132.483 108.228H135.269V116.502H137.509V118H130.775ZM139.441 116.236L143.221 113.926V113.828L139.441 111.518V109.698L145.069 113.282V114.458L139.441 118.07V116.236Z" fill="#121619"/>
<path d="M56.416 56.118V53.444H53.938V52.002H56.416V49.314H57.984V52.002H60.462V53.444H57.984V56.118H56.416Z" fill="black"/>
<path d="M127.938 51.89V50.448H134.462V51.89H127.938ZM127.938 55.012V53.556H134.462V55.012H127.938Z" fill="black"/>
<circle cx="167" cy="52" r="19.5" fill="#BE95FF" stroke="#491D8B"/>
<path d="M183 54L187 52.5L183 51V54Z" fill="#491D8B"/>
<line x1="183" y1="52.5" x2="166" y2="52.5" stroke="#491D8B"/>
<circle cx="20" cy="52" r="20" fill="#DDE1E6"/>
<circle cx="20" cy="52" r="7.5" fill="#BE95FF" stroke="#491D8B"/>
<path d="M23 51L27 52.5L23 54V51Z" fill="#491D8B"/>
<line y1="-0.5" x2="3" y2="-0.5" transform="matrix(-1 4.37115e-08 4.37115e-08 1 23 53)" stroke="#491D8B"/>
<circle cx="93" cy="52" r="20" fill="#DDE1E6"/>
<circle cx="93" cy="52" r="7.5" fill="#BE95FF" stroke="#491D8B"/>
<path d="M96 51L100 52.5L96 54V51Z" fill="#491D8B"/>
<line y1="-0.5" x2="3" y2="-0.5" transform="matrix(-1 4.37115e-08 4.37115e-08 1 96 53)" stroke="#491D8B"/>
<circle cx="167" cy="156" r="20" fill="#DDE1E6"/>
<path d="M56.416 160.118V157.444H53.938V156.002H56.416V153.314H57.984V156.002H60.462V157.444H57.984V160.118H56.416Z" fill="black"/>
<path d="M127.938 155.89V154.448H134.462V155.89H127.938ZM127.938 159.012V157.556H134.462V159.012H127.938Z" fill="black"/>
<circle cx="20" cy="156" r="20" fill="#DDE1E6"/>
<circle cx="20" cy="156" r="7.5" fill="#BE95FF" stroke="#491D8B"/>
<path d="M17 155L13 156.5L17 158V155Z" fill="#491D8B"/>
<line x1="17" y1="156.5" x2="20" y2="156.5" stroke="#491D8B"/>
<circle cx="93" cy="156" r="20" fill="#DDE1E6"/>
<circle cx="93" cy="156" r="7.5" fill="#BE95FF" stroke="#491D8B"/>
<path d="M96 155L100 156.5L96 158V155Z" fill="#491D8B"/>
<line y1="-0.5" x2="3" y2="-0.5" transform="matrix(-1 4.37115e-08 4.37115e-08 1 96 157)" stroke="#491D8B"/>
</svg>
