<svg width="650" height="425" viewBox="0 0 650 425" fill="none" xmlns="http://www.w3.org/2000/svg">
<rect width="650" height="425" fill="white"/>
<path d="M49.66 43.52H42.32L46.08 40.14C47.86 38.54 49.14 37.02 49.14 34.86C49.14 32.48 47.58 30.8 44.86 30.8C42.16 30.8 40.92 32.44 40.38 34.08L41.88 34.66C42.26 33.34 43.06 32.3 44.78 32.3C46.5 32.3 47.36 33.36 47.36 34.9V35.14C47.36 36.48 46.36 37.88 45.06 39.08L40.5 43.28V45H49.66V43.52ZM53.7122 45.24C54.5522 45.24 54.9322 44.76 54.9322 44.08V43.82C54.9322 43.14 54.5522 42.66 53.7122 42.66C52.8722 42.66 52.4922 43.14 52.4922 43.82V44.08C52.4922 44.76 52.8722 45.24 53.7122 45.24ZM64.708 45V39.04H68.588C71.088 39.04 72.488 37.5 72.488 35.04C72.488 32.58 71.088 31.04 68.588 31.04H63.028V45H64.708ZM64.708 32.52H68.588C69.908 32.52 70.688 33.24 70.688 34.52V35.56C70.688 36.84 69.908 37.56 68.588 37.56H64.708V32.52ZM76.4016 45V38C76.4016 37.02 77.4416 36.28 79.1616 36.28H80.1016V34.68H79.4816C77.8016 34.68 76.8616 35.6 76.5016 36.58H76.4016V34.68H74.8016V45H76.4016ZM85.9277 45.24C87.8677 45.24 89.3477 44.28 90.0077 42.88L88.8677 42.06C88.3277 43.2 87.3277 43.84 86.0277 43.84C84.1077 43.84 82.9677 42.5 82.9677 40.72V40.24H90.3877V39.48C90.3877 36.56 88.6877 34.44 85.9277 34.44C83.1277 34.44 81.2877 36.56 81.2877 39.84C81.2877 43.12 83.1277 45.24 85.9277 45.24ZM85.9277 35.78C87.5677 35.78 88.6677 37 88.6677 38.82V39.04H82.9677V38.9C82.9677 37.1 84.1877 35.78 85.9277 35.78ZM93.0242 49H94.6242V43.32H94.7042C95.3242 44.6 96.3042 45.24 97.7242 45.24C100.304 45.24 101.924 43.14 101.924 39.84C101.924 36.54 100.304 34.44 97.7242 34.44C96.3042 34.44 95.2442 35.06 94.7042 36.36H94.6242V34.68H93.0242V49ZM97.2842 43.8C95.8242 43.8 94.6242 43.04 94.6242 41.7V37.86C94.6242 36.72 95.8242 35.88 97.2842 35.88C99.0842 35.88 100.204 37.12 100.204 38.96V40.72C100.204 42.56 99.0842 43.8 97.2842 43.8ZM113.026 45V43.6H111.846V37.92C111.846 35.74 110.366 34.44 107.886 34.44C106.026 34.44 104.786 35.36 104.226 36.46L105.186 37.36C105.746 36.42 106.566 35.82 107.806 35.82C109.446 35.82 110.246 36.62 110.246 38.08V39.1H108.206C105.206 39.1 103.806 40.18 103.806 42.12C103.806 44.04 105.086 45.24 107.266 45.24C108.706 45.24 109.806 44.58 110.246 43.32H110.346C110.466 44.28 110.946 45 112.126 45H113.026ZM107.526 43.88C106.286 43.88 105.486 43.3 105.486 42.28V41.86C105.486 40.86 106.306 40.3 108.126 40.3H110.246V42C110.246 43.06 109.106 43.88 107.526 43.88ZM116.909 45V38C116.909 37.02 117.949 36.28 119.669 36.28H120.609V34.68H119.989C118.309 34.68 117.369 35.6 117.009 36.58H116.909V34.68H115.309V45H116.909ZM126.435 45.24C128.375 45.24 129.855 44.28 130.515 42.88L129.375 42.06C128.835 43.2 127.835 43.84 126.535 43.84C124.615 43.84 123.475 42.5 123.475 40.72V40.24H130.895V39.48C130.895 36.56 129.195 34.44 126.435 34.44C123.635 34.44 121.795 36.56 121.795 39.84C121.795 43.12 123.635 45.24 126.435 45.24ZM126.435 35.78C128.075 35.78 129.175 37 129.175 38.82V39.04H123.475V38.9C123.475 37.1 124.695 35.78 126.435 35.78ZM146.659 45V43.6H145.479V37.92C145.479 35.74 143.999 34.44 141.519 34.44C139.659 34.44 138.419 35.36 137.859 36.46L138.819 37.36C139.379 36.42 140.199 35.82 141.439 35.82C143.079 35.82 143.879 36.62 143.879 38.08V39.1H141.839C138.839 39.1 137.439 40.18 137.439 42.12C137.439 44.04 138.719 45.24 140.899 45.24C142.339 45.24 143.439 44.58 143.879 43.32H143.979C144.099 44.28 144.579 45 145.759 45H146.659ZM141.159 43.88C139.919 43.88 139.119 43.3 139.119 42.28V41.86C139.119 40.86 139.939 40.3 141.759 40.3H143.879V42C143.879 43.06 142.739 43.88 141.159 43.88ZM150.542 45V37.84C150.542 36.52 151.782 35.88 153.062 35.88C154.602 35.88 155.402 36.82 155.402 38.66V45H157.002V38.38C157.002 35.88 155.662 34.44 153.542 34.44C152.002 34.44 151.122 35.2 150.622 36.36H150.542V34.68H148.942V45H150.542ZM163.409 45.24C165.769 45.24 167.229 44.02 167.229 42.02C167.229 40.46 166.349 39.46 164.069 39.12L163.269 39C161.989 38.8 161.289 38.4 161.289 37.4C161.289 36.42 161.989 35.8 163.309 35.8C164.629 35.8 165.509 36.42 165.969 37.06L167.029 36.1C166.189 35.06 165.089 34.44 163.429 34.44C161.329 34.44 159.749 35.44 159.749 37.48C159.749 39.4 161.169 40.18 163.069 40.46L163.889 40.58C165.249 40.78 165.689 41.4 165.689 42.2C165.689 43.26 164.889 43.88 163.529 43.88C162.229 43.88 161.269 43.3 160.469 42.3L159.329 43.22C160.249 44.44 161.509 45.24 163.409 45.24ZM178.455 45V43.6H177.275V37.92C177.275 35.74 175.795 34.44 173.315 34.44C171.455 34.44 170.215 35.36 169.655 36.46L170.615 37.36C171.175 36.42 171.995 35.82 173.235 35.82C174.875 35.82 175.675 36.62 175.675 38.08V39.1H173.635C170.635 39.1 169.235 40.18 169.235 42.12C169.235 44.04 170.515 45.24 172.695 45.24C174.135 45.24 175.235 44.58 175.675 43.32H175.775C175.895 44.28 176.375 45 177.555 45H178.455ZM172.955 43.88C171.715 43.88 170.915 43.3 170.915 42.28V41.86C170.915 40.86 171.735 40.3 173.555 40.3H175.675V42C175.675 43.06 174.535 43.88 172.955 43.88ZM185.019 45V43.6H182.919V36.08H185.179V34.68H182.919V31.82H181.479V33.74C181.479 34.44 181.259 34.68 180.579 34.68H179.619V36.08H181.319V43.3C181.319 44.3 181.919 45 183.019 45H185.019ZM194.671 45V43.6H188.531L194.511 35.88V34.68H186.891V36.08H192.571L186.711 43.66V45H194.671Z" fill="#262626"/>
<rect x="38" y="59" width="578" height="344" fill="#0043CE"/>
<rect x="73" y="99" width="240" height="124" fill="#262626"/>
<path d="M94.0024 132V126.636H97.4944C99.7444 126.636 101.004 125.25 101.004 123.036C101.004 120.822 99.7444 119.436 97.4944 119.436H92.4904V132H94.0024ZM94.0024 120.768H97.4944C98.6824 120.768 99.3844 121.416 99.3844 122.568V123.504C99.3844 124.656 98.6824 125.304 97.4944 125.304H94.0024V120.768ZM110.647 132V130.74H109.585V125.628C109.585 123.666 108.253 122.496 106.021 122.496C104.347 122.496 103.231 123.324 102.727 124.314L103.591 125.124C104.095 124.278 104.833 123.738 105.949 123.738C107.425 123.738 108.145 124.458 108.145 125.772V126.69H106.309C103.609 126.69 102.349 127.662 102.349 129.408C102.349 131.136 103.501 132.216 105.463 132.216C106.759 132.216 107.749 131.622 108.145 130.488H108.235C108.343 131.352 108.775 132 109.837 132H110.647ZM105.697 130.992C104.581 130.992 103.861 130.47 103.861 129.552V129.174C103.861 128.274 104.599 127.77 106.237 127.77H108.145V129.3C108.145 130.254 107.119 130.992 105.697 130.992ZM114.142 132V125.7C114.142 124.818 115.078 124.152 116.626 124.152H117.472V122.712H116.914C115.402 122.712 114.556 123.54 114.232 124.422H114.142V122.712H112.702V132H114.142ZM126.801 132V130.74H125.739V125.628C125.739 123.666 124.407 122.496 122.175 122.496C120.501 122.496 119.385 123.324 118.881 124.314L119.745 125.124C120.249 124.278 120.987 123.738 122.103 123.738C123.579 123.738 124.299 124.458 124.299 125.772V126.69H122.463C119.763 126.69 118.503 127.662 118.503 129.408C118.503 131.136 119.655 132.216 121.617 132.216C122.913 132.216 123.903 131.622 124.299 130.488H124.389C124.497 131.352 124.929 132 125.991 132H126.801ZM121.851 130.992C120.735 130.992 120.015 130.47 120.015 129.552V129.174C120.015 128.274 120.753 127.77 122.391 127.77H124.299V129.3C124.299 130.254 123.273 130.992 121.851 130.992ZM130.296 132V125.556C130.296 124.368 131.376 123.792 132.51 123.792C133.878 123.792 134.508 124.638 134.508 126.294V132H135.948V125.556C135.948 124.368 136.992 123.792 138.126 123.792C139.53 123.792 140.16 124.656 140.16 126.294V132H141.6V126.042C141.6 123.792 140.466 122.496 138.576 122.496C136.992 122.496 136.092 123.378 135.75 124.386H135.714C135.21 123.054 134.094 122.496 132.87 122.496C131.43 122.496 130.782 123.27 130.368 124.224H130.296V122.712H128.856V132H130.296ZM148.063 132.216C149.809 132.216 151.141 131.352 151.735 130.092L150.709 129.354C150.223 130.38 149.323 130.956 148.153 130.956C146.425 130.956 145.399 129.75 145.399 128.148V127.716H152.077V127.032C152.077 124.404 150.547 122.496 148.063 122.496C145.543 122.496 143.887 124.404 143.887 127.356C143.887 130.308 145.543 132.216 148.063 132.216ZM148.063 123.702C149.539 123.702 150.529 124.8 150.529 126.438V126.636H145.399V126.51C145.399 124.89 146.497 123.702 148.063 123.702ZM158.302 132V130.74H156.412V123.972H158.446V122.712H156.412V120.138H155.116V121.866C155.116 122.496 154.918 122.712 154.306 122.712H153.442V123.972H154.972V130.47C154.972 131.37 155.512 132 156.502 132H158.302ZM162.2 132V125.7C162.2 124.818 163.136 124.152 164.684 124.152H165.53V122.712H164.972C163.46 122.712 162.614 123.54 162.29 124.422H162.2V122.712H160.76V132H162.2ZM168.09 120.534C168.702 120.534 168.972 120.21 168.972 119.724V119.49C168.972 119.004 168.702 118.68 168.09 118.68C167.478 118.68 167.208 119.004 167.208 119.49V119.724C167.208 120.21 167.478 120.534 168.09 120.534ZM167.37 132H168.81V122.712H167.37V132ZM178.098 132V130.74H172.572L177.954 123.792V122.712H171.096V123.972H176.208L170.934 130.794V132H178.098ZM183.536 132.216C185.282 132.216 186.614 131.352 187.208 130.092L186.182 129.354C185.696 130.38 184.796 130.956 183.626 130.956C181.898 130.956 180.872 129.75 180.872 128.148V127.716H187.55V127.032C187.55 124.404 186.02 122.496 183.536 122.496C181.016 122.496 179.36 124.404 179.36 127.356C179.36 130.308 181.016 132.216 183.536 132.216ZM183.536 123.702C185.012 123.702 186.002 124.8 186.002 126.438V126.636H180.872V126.51C180.872 124.89 181.97 123.702 183.536 123.702ZM195.863 132H197.303V118.68H195.863V124.224H195.791C195.305 123.054 194.351 122.496 193.073 122.496C190.751 122.496 189.293 124.386 189.293 127.356C189.293 130.326 190.751 132.216 193.073 132.216C194.351 132.216 195.233 131.64 195.791 130.488H195.863V132ZM193.469 130.92C191.849 130.92 190.841 129.804 190.841 128.148V126.564C190.841 124.908 191.849 123.792 193.469 123.792C194.783 123.792 195.863 124.548 195.863 125.574V129.03C195.863 130.236 194.783 130.92 193.469 130.92ZM210.558 135.6H211.998V122.712H210.558V124.224H210.486C210 123.054 209.046 122.496 207.768 122.496C205.446 122.496 203.988 124.386 203.988 127.356C203.988 130.326 205.446 132.216 207.768 132.216C209.046 132.216 209.928 131.64 210.486 130.488H210.558V135.6ZM208.164 130.92C206.544 130.92 205.536 129.804 205.536 128.148V126.564C205.536 124.908 206.544 123.792 208.164 123.792C209.478 123.792 210.558 124.548 210.558 125.574V129.03C210.558 130.236 209.478 130.92 208.164 130.92ZM220.783 132H222.223V122.712H220.783V129.138C220.783 130.362 219.667 130.92 218.533 130.92C217.147 130.92 216.409 130.074 216.409 128.418V122.712H214.969V128.67C214.969 130.92 216.193 132.216 218.101 132.216C219.649 132.216 220.351 131.37 220.711 130.488H220.783V132ZM232.85 132V130.74H231.788V125.628C231.788 123.666 230.456 122.496 228.224 122.496C226.55 122.496 225.434 123.324 224.93 124.314L225.794 125.124C226.298 124.278 227.036 123.738 228.152 123.738C229.628 123.738 230.348 124.458 230.348 125.772V126.69H228.512C225.812 126.69 224.552 127.662 224.552 129.408C224.552 131.136 225.704 132.216 227.666 132.216C228.962 132.216 229.952 131.622 230.348 130.488H230.438C230.546 131.352 230.978 132 232.04 132H232.85ZM227.9 130.992C226.784 130.992 226.064 130.47 226.064 129.552V129.174C226.064 128.274 226.802 127.77 228.44 127.77H230.348V129.3C230.348 130.254 229.322 130.992 227.9 130.992ZM236.345 132V125.556C236.345 124.368 237.461 123.792 238.613 123.792C239.999 123.792 240.719 124.638 240.719 126.294V132H242.159V126.042C242.159 123.792 240.953 122.496 239.045 122.496C237.659 122.496 236.867 123.18 236.417 124.224H236.345V122.712H234.905V132H236.345ZM248.987 132V130.74H247.097V123.972H249.131V122.712H247.097V120.138H245.801V121.866C245.801 122.496 245.603 122.712 244.991 122.712H244.127V123.972H245.657V130.47C245.657 131.37 246.197 132 247.187 132H248.987ZM257.17 132H258.61V122.712H257.17V129.138C257.17 130.362 256.054 130.92 254.92 130.92C253.534 130.92 252.796 130.074 252.796 128.418V122.712H251.356V128.67C251.356 130.92 252.58 132.216 254.488 132.216C256.036 132.216 256.738 131.37 257.098 130.488H257.17V132ZM263.116 132V125.556C263.116 124.368 264.196 123.792 265.33 123.792C266.698 123.792 267.328 124.638 267.328 126.294V132H268.768V125.556C268.768 124.368 269.812 123.792 270.946 123.792C272.35 123.792 272.98 124.656 272.98 126.294V132H274.42V126.042C274.42 123.792 273.286 122.496 271.396 122.496C269.812 122.496 268.912 123.378 268.57 124.386H268.534C268.03 123.054 266.914 122.496 265.69 122.496C264.25 122.496 263.602 123.27 263.188 124.224H263.116V122.712H261.676V132H263.116ZM95.8024 160.216C97.5664 160.216 98.7724 159.352 99.3664 158.02L98.3224 157.318C97.8184 158.38 96.9724 158.938 95.8024 158.938C94.0924 158.938 93.2104 157.768 93.2104 156.148V154.564C93.2104 152.944 94.0924 151.774 95.8024 151.774C96.9364 151.774 97.7284 152.332 98.0704 153.286L99.2764 152.674C98.7364 151.396 97.6384 150.496 95.8024 150.496C93.1924 150.496 91.6624 152.386 91.6624 155.356C91.6624 158.326 93.1924 160.216 95.8024 160.216ZM102.119 148.534C102.731 148.534 103.001 148.21 103.001 147.724V147.49C103.001 147.004 102.731 146.68 102.119 146.68C101.507 146.68 101.237 147.004 101.237 147.49V147.724C101.237 148.21 101.507 148.534 102.119 148.534ZM101.399 160H102.839V150.712H101.399V160ZM107.339 160V153.7C107.339 152.818 108.275 152.152 109.823 152.152H110.669V150.712H110.111C108.599 150.712 107.753 151.54 107.429 152.422H107.339V150.712H105.899V160H107.339ZM115.877 160.216C117.641 160.216 118.847 159.352 119.441 158.02L118.397 157.318C117.893 158.38 117.047 158.938 115.877 158.938C114.167 158.938 113.285 157.768 113.285 156.148V154.564C113.285 152.944 114.167 151.774 115.877 151.774C117.011 151.774 117.803 152.332 118.145 153.286L119.351 152.674C118.811 151.396 117.713 150.496 115.877 150.496C113.267 150.496 111.737 152.386 111.737 155.356C111.737 158.326 113.267 160.216 115.877 160.216ZM127.197 160H128.637V150.712H127.197V157.138C127.197 158.362 126.081 158.92 124.947 158.92C123.561 158.92 122.823 158.074 122.823 156.418V150.712H121.383V156.67C121.383 158.92 122.607 160.216 124.515 160.216C126.063 160.216 126.765 159.37 127.125 158.488H127.197V160ZM132.424 148.534C133.036 148.534 133.306 148.21 133.306 147.724V147.49C133.306 147.004 133.036 146.68 132.424 146.68C131.812 146.68 131.542 147.004 131.542 147.49V147.724C131.542 148.21 131.812 148.534 132.424 148.534ZM131.704 160H133.144V150.712H131.704V160ZM140.056 160V158.74H138.166V151.972H140.2V150.712H138.166V148.138H136.87V149.866C136.87 150.496 136.672 150.712 136.06 150.712H135.196V151.972H136.726V158.47C136.726 159.37 137.266 160 138.256 160H140.056ZM145.304 160.216C147.428 160.216 148.742 159.118 148.742 157.318C148.742 155.914 147.95 155.014 145.898 154.708L145.178 154.6C144.026 154.42 143.396 154.06 143.396 153.16C143.396 152.278 144.026 151.72 145.214 151.72C146.402 151.72 147.194 152.278 147.608 152.854L148.562 151.99C147.806 151.054 146.816 150.496 145.322 150.496C143.432 150.496 142.01 151.396 142.01 153.232C142.01 154.96 143.288 155.662 144.998 155.914L145.736 156.022C146.96 156.202 147.356 156.76 147.356 157.48C147.356 158.434 146.636 158.992 145.412 158.992C144.242 158.992 143.378 158.47 142.658 157.57L141.632 158.398C142.46 159.496 143.594 160.216 145.304 160.216Z" fill="white"/>
<rect x="340" y="99" width="240" height="124" fill="#262626"/>
<path d="M364.188 132L368.418 119.436H366.852L364.764 125.772L363.342 130.488H363.252L361.866 125.772L359.796 119.436H358.176L362.352 132H364.188ZM377.33 132V130.74H376.268V125.628C376.268 123.666 374.936 122.496 372.704 122.496C371.03 122.496 369.914 123.324 369.41 124.314L370.274 125.124C370.778 124.278 371.516 123.738 372.632 123.738C374.108 123.738 374.828 124.458 374.828 125.772V126.69H372.992C370.292 126.69 369.032 127.662 369.032 129.408C369.032 131.136 370.184 132.216 372.146 132.216C373.442 132.216 374.432 131.622 374.828 130.488H374.918C375.026 131.352 375.458 132 376.52 132H377.33ZM372.38 130.992C371.264 130.992 370.544 130.47 370.544 129.552V129.174C370.544 128.274 371.282 127.77 372.92 127.77H374.828V129.3C374.828 130.254 373.802 130.992 372.38 130.992ZM380.825 132V125.7C380.825 124.818 381.761 124.152 383.309 124.152H384.155V122.712H383.597C382.085 122.712 381.239 123.54 380.915 124.422H380.825V122.712H379.385V132H380.825ZM386.715 120.534C387.327 120.534 387.597 120.21 387.597 119.724V119.49C387.597 119.004 387.327 118.68 386.715 118.68C386.103 118.68 385.833 119.004 385.833 119.49V119.724C385.833 120.21 386.103 120.534 386.715 120.534ZM385.995 132H387.435V122.712H385.995V132ZM398.055 132V130.74H396.993V125.628C396.993 123.666 395.661 122.496 393.429 122.496C391.755 122.496 390.639 123.324 390.135 124.314L390.999 125.124C391.503 124.278 392.241 123.738 393.357 123.738C394.833 123.738 395.553 124.458 395.553 125.772V126.69H393.717C391.017 126.69 389.757 127.662 389.757 129.408C389.757 131.136 390.909 132.216 392.871 132.216C394.167 132.216 395.157 131.622 395.553 130.488H395.643C395.751 131.352 396.183 132 397.245 132H398.055ZM393.105 130.992C391.989 130.992 391.269 130.47 391.269 129.552V129.174C391.269 128.274 392.007 127.77 393.645 127.77H395.553V129.3C395.553 130.254 394.527 130.992 393.105 130.992ZM403.962 132V130.74H402.072V123.972H404.106V122.712H402.072V120.138H400.776V121.866C400.776 122.496 400.578 122.712 399.966 122.712H399.102V123.972H400.632V130.47C400.632 131.37 401.172 132 402.162 132H403.962ZM407.141 120.534C407.753 120.534 408.023 120.21 408.023 119.724V119.49C408.023 119.004 407.753 118.68 407.141 118.68C406.529 118.68 406.259 119.004 406.259 119.49V119.724C406.259 120.21 406.529 120.534 407.141 120.534ZM406.421 132H407.861V122.712H406.421V132ZM414.431 132.216C416.915 132.216 418.625 130.308 418.625 127.356C418.625 124.404 416.915 122.496 414.431 122.496C411.947 122.496 410.237 124.404 410.237 127.356C410.237 130.308 411.947 132.216 414.431 132.216ZM414.431 130.938C412.883 130.938 411.785 129.984 411.785 128.022V126.69C411.785 124.728 412.883 123.774 414.431 123.774C415.979 123.774 417.077 124.728 417.077 126.69V128.022C417.077 129.984 415.979 130.938 414.431 130.938ZM422.433 132V125.556C422.433 124.368 423.549 123.792 424.701 123.792C426.087 123.792 426.807 124.638 426.807 126.294V132H428.247V126.042C428.247 123.792 427.041 122.496 425.133 122.496C423.747 122.496 422.955 123.18 422.505 124.224H422.433V122.712H420.993V132H422.433ZM438.783 132V130.74H437.721V125.628C437.721 123.666 436.389 122.496 434.157 122.496C432.483 122.496 431.367 123.324 430.863 124.314L431.727 125.124C432.231 124.278 432.969 123.738 434.085 123.738C435.561 123.738 436.281 124.458 436.281 125.772V126.69H434.445C431.745 126.69 430.485 127.662 430.485 129.408C430.485 131.136 431.637 132.216 433.599 132.216C434.895 132.216 435.885 131.622 436.281 130.488H436.371C436.479 131.352 436.911 132 437.973 132H438.783ZM433.833 130.992C432.717 130.992 431.997 130.47 431.997 129.552V129.174C431.997 128.274 432.735 127.77 434.373 127.77H436.281V129.3C436.281 130.254 435.255 130.992 433.833 130.992ZM443.647 132V130.74H442.279V118.68H440.839V130.506C440.839 131.37 441.379 132 442.369 132H443.647ZM451.653 132V126.312H457.107V124.98H451.653V120.768H457.629V119.436H450.141V132H451.653ZM463.104 132.216C465.588 132.216 467.298 130.308 467.298 127.356C467.298 124.404 465.588 122.496 463.104 122.496C460.62 122.496 458.91 124.404 458.91 127.356C458.91 130.308 460.62 132.216 463.104 132.216ZM463.104 130.938C461.556 130.938 460.458 129.984 460.458 128.022V126.69C460.458 124.728 461.556 123.774 463.104 123.774C464.652 123.774 465.75 124.728 465.75 126.69V128.022C465.75 129.984 464.652 130.938 463.104 130.938ZM471.107 132V125.7C471.107 124.818 472.043 124.152 473.591 124.152H474.437V122.712H473.879C472.367 122.712 471.521 123.54 471.197 124.422H471.107V122.712H469.667V132H471.107ZM477.716 132V125.556C477.716 124.368 478.796 123.792 479.93 123.792C481.298 123.792 481.928 124.638 481.928 126.294V132H483.368V125.556C483.368 124.368 484.412 123.792 485.546 123.792C486.95 123.792 487.58 124.656 487.58 126.294V132H489.02V126.042C489.02 123.792 487.886 122.496 485.996 122.496C484.412 122.496 483.512 123.378 483.17 124.386H483.134C482.63 123.054 481.514 122.496 480.29 122.496C478.85 122.496 478.202 123.27 477.788 124.224H477.716V122.712H476.276V132H477.716ZM492.909 129.894C492.153 129.894 491.811 130.326 491.811 130.956V131.208C491.811 131.694 492.027 132.054 492.513 132.162C492.315 133.008 491.883 133.638 491.163 134.394H492.369C493.395 133.512 494.007 132.18 494.007 131.208V130.956C494.007 130.326 493.665 129.894 492.909 129.894ZM508.709 132V130.74H507.647V125.628C507.647 123.666 506.315 122.496 504.083 122.496C502.409 122.496 501.293 123.324 500.789 124.314L501.653 125.124C502.157 124.278 502.895 123.738 504.011 123.738C505.487 123.738 506.207 124.458 506.207 125.772V126.69H504.371C501.671 126.69 500.411 127.662 500.411 129.408C500.411 131.136 501.563 132.216 503.525 132.216C504.821 132.216 505.811 131.622 506.207 130.488H506.297C506.405 131.352 506.837 132 507.899 132H508.709ZM503.759 130.992C502.643 130.992 501.923 130.47 501.923 129.552V129.174C501.923 128.274 502.661 127.77 504.299 127.77H506.207V129.3C506.207 130.254 505.181 130.992 503.759 130.992ZM512.204 132V125.556C512.204 124.368 513.32 123.792 514.472 123.792C515.858 123.792 516.578 124.638 516.578 126.294V132H518.018V126.042C518.018 123.792 516.812 122.496 514.904 122.496C513.518 122.496 512.726 123.18 512.276 124.224H512.204V122.712H510.764V132H512.204ZM526.935 132H528.375V118.68H526.935V124.224H526.863C526.377 123.054 525.423 122.496 524.145 122.496C521.823 122.496 520.365 124.386 520.365 127.356C520.365 130.326 521.823 132.216 524.145 132.216C525.423 132.216 526.305 131.64 526.863 130.488H526.935V132ZM524.541 130.92C522.921 130.92 521.913 129.804 521.913 128.148V126.564C521.913 124.908 522.921 123.792 524.541 123.792C525.855 123.792 526.935 124.548 526.935 125.574V129.03C526.935 130.236 525.855 130.92 524.541 130.92ZM368.94 160L364.548 147.436H362.622L358.23 160H359.76L361.02 156.292H366.096L367.356 160H368.94ZM365.718 154.96H361.38L363.504 148.84H363.594L365.718 154.96ZM372.318 160V153.556C372.318 152.368 373.434 151.792 374.586 151.792C375.972 151.792 376.692 152.638 376.692 154.294V160H378.132V154.042C378.132 151.792 376.926 150.496 375.018 150.496C373.632 150.496 372.84 151.18 372.39 152.224H372.318V150.712H370.878V160H372.318ZM383.898 160.216C386.022 160.216 387.336 159.118 387.336 157.318C387.336 155.914 386.544 155.014 384.492 154.708L383.772 154.6C382.62 154.42 381.99 154.06 381.99 153.16C381.99 152.278 382.62 151.72 383.808 151.72C384.996 151.72 385.788 152.278 386.202 152.854L387.156 151.99C386.4 151.054 385.41 150.496 383.916 150.496C382.026 150.496 380.604 151.396 380.604 153.232C380.604 154.96 381.882 155.662 383.592 155.914L384.33 156.022C385.554 156.202 385.95 156.76 385.95 157.48C385.95 158.434 385.23 158.992 384.006 158.992C382.836 158.992 381.972 158.47 381.252 157.57L380.226 158.398C381.054 159.496 382.188 160.216 383.898 160.216ZM397.44 160V158.74H396.378V153.628C396.378 151.666 395.046 150.496 392.814 150.496C391.14 150.496 390.024 151.324 389.52 152.314L390.384 153.124C390.888 152.278 391.626 151.738 392.742 151.738C394.218 151.738 394.938 152.458 394.938 153.772V154.69H393.102C390.402 154.69 389.142 155.662 389.142 157.408C389.142 159.136 390.294 160.216 392.256 160.216C393.552 160.216 394.542 159.622 394.938 158.488H395.028C395.136 159.352 395.568 160 396.63 160H397.44ZM392.49 158.992C391.374 158.992 390.654 158.47 390.654 157.552V157.174C390.654 156.274 391.392 155.77 393.03 155.77H394.938V157.3C394.938 158.254 393.912 158.992 392.49 158.992ZM403.347 160V158.74H401.457V151.972H403.491V150.712H401.457V148.138H400.161V149.866C400.161 150.496 399.963 150.712 399.351 150.712H398.487V151.972H400.017V158.47C400.017 159.37 400.557 160 401.547 160H403.347ZM412.033 160V158.74H406.507L411.889 151.792V150.712H405.031V151.972H410.143L404.869 158.794V160H412.033Z" fill="white"/>
<rect x="73" y="243" width="240" height="124" fill="#262626"/>
<path d="M100.356 276H101.868V263.436H100.356V268.98H94.0024V263.436H92.4904V276H94.0024V270.312H100.356V276ZM108.565 276.216C110.311 276.216 111.643 275.352 112.237 274.092L111.211 273.354C110.725 274.38 109.825 274.956 108.655 274.956C106.927 274.956 105.901 273.75 105.901 272.148V271.716H112.579V271.032C112.579 268.404 111.049 266.496 108.565 266.496C106.045 266.496 104.389 268.404 104.389 271.356C104.389 274.308 106.045 276.216 108.565 276.216ZM108.565 267.702C110.041 267.702 111.031 268.8 111.031 270.438V270.636H105.901V270.51C105.901 268.89 106.999 267.702 108.565 267.702ZM120.676 276H122.116V266.712H120.676V273.138C120.676 274.362 119.56 274.92 118.426 274.92C117.04 274.92 116.302 274.074 116.302 272.418V266.712H114.862V272.67C114.862 274.92 116.086 276.216 117.994 276.216C119.542 276.216 120.244 275.37 120.604 274.488H120.676V276ZM126.622 276V269.7C126.622 268.818 127.558 268.152 129.106 268.152H129.952V266.712H129.394C127.882 266.712 127.036 267.54 126.712 268.422H126.622V266.712H125.182V276H126.622ZM132.512 264.534C133.124 264.534 133.394 264.21 133.394 263.724V263.49C133.394 263.004 133.124 262.68 132.512 262.68C131.9 262.68 131.63 263.004 131.63 263.49V263.724C131.63 264.21 131.9 264.534 132.512 264.534ZM131.792 276H133.232V266.712H131.792V276ZM139.082 276.216C141.206 276.216 142.52 275.118 142.52 273.318C142.52 271.914 141.728 271.014 139.676 270.708L138.956 270.6C137.804 270.42 137.174 270.06 137.174 269.16C137.174 268.278 137.804 267.72 138.992 267.72C140.18 267.72 140.972 268.278 141.386 268.854L142.34 267.99C141.584 267.054 140.594 266.496 139.1 266.496C137.21 266.496 135.788 267.396 135.788 269.232C135.788 270.96 137.066 271.662 138.776 271.914L139.514 272.022C140.738 272.202 141.134 272.76 141.134 273.48C141.134 274.434 140.414 274.992 139.19 274.992C138.02 274.992 137.156 274.47 136.436 273.57L135.41 274.398C136.238 275.496 137.372 276.216 139.082 276.216ZM148.792 276V274.74H146.902V267.972H148.936V266.712H146.902V264.138H145.606V265.866C145.606 266.496 145.408 266.712 144.796 266.712H143.932V267.972H145.462V274.47C145.462 275.37 146.002 276 146.992 276H148.792ZM151.971 264.534C152.583 264.534 152.853 264.21 152.853 263.724V263.49C152.853 263.004 152.583 262.68 151.971 262.68C151.359 262.68 151.089 263.004 151.089 263.49V263.724C151.089 264.21 151.359 264.534 151.971 264.534ZM151.251 276H152.691V266.712H151.251V276ZM159.207 276.216C160.971 276.216 162.177 275.352 162.771 274.02L161.727 273.318C161.223 274.38 160.377 274.938 159.207 274.938C157.497 274.938 156.615 273.768 156.615 272.148V270.564C156.615 268.944 157.497 267.774 159.207 267.774C160.341 267.774 161.133 268.332 161.475 269.286L162.681 268.674C162.141 267.396 161.043 266.496 159.207 266.496C156.597 266.496 155.067 268.386 155.067 271.356C155.067 274.326 156.597 276.216 159.207 276.216ZM178.651 276L174.259 263.436H172.333L167.941 276H169.471L170.731 272.292H175.807L177.067 276H178.651ZM175.429 270.96H171.091L173.215 264.84H173.305L175.429 270.96ZM182.029 276V269.556C182.029 268.368 183.145 267.792 184.297 267.792C185.683 267.792 186.403 268.638 186.403 270.294V276H187.843V270.042C187.843 267.792 186.637 266.496 184.729 266.496C183.343 266.496 182.551 267.18 182.101 268.224H182.029V266.712H180.589V276H182.029ZM193.609 276.216C195.733 276.216 197.047 275.118 197.047 273.318C197.047 271.914 196.255 271.014 194.203 270.708L193.483 270.6C192.331 270.42 191.701 270.06 191.701 269.16C191.701 268.278 192.331 267.72 193.519 267.72C194.707 267.72 195.499 268.278 195.913 268.854L196.867 267.99C196.111 267.054 195.121 266.496 193.627 266.496C191.737 266.496 190.315 267.396 190.315 269.232C190.315 270.96 191.593 271.662 193.303 271.914L194.041 272.022C195.265 272.202 195.661 272.76 195.661 273.48C195.661 274.434 194.941 274.992 193.717 274.992C192.547 274.992 191.683 274.47 190.963 273.57L189.937 274.398C190.765 275.496 191.899 276.216 193.609 276.216ZM207.151 276V274.74H206.089V269.628C206.089 267.666 204.757 266.496 202.525 266.496C200.851 266.496 199.735 267.324 199.231 268.314L200.095 269.124C200.599 268.278 201.337 267.738 202.453 267.738C203.929 267.738 204.649 268.458 204.649 269.772V270.69H202.813C200.113 270.69 198.853 271.662 198.853 273.408C198.853 275.136 200.005 276.216 201.967 276.216C203.263 276.216 204.253 275.622 204.649 274.488H204.739C204.847 275.352 205.279 276 206.341 276H207.151ZM202.201 274.992C201.085 274.992 200.365 274.47 200.365 273.552V273.174C200.365 272.274 201.103 271.77 202.741 271.77H204.649V273.3C204.649 274.254 203.623 274.992 202.201 274.992ZM213.058 276V274.74H211.168V267.972H213.202V266.712H211.168V264.138H209.872V265.866C209.872 266.496 209.674 266.712 209.062 266.712H208.198V267.972H209.728V274.47C209.728 275.37 210.268 276 211.258 276H213.058ZM221.744 276V274.74H216.218L221.6 267.792V266.712H214.742V267.972H219.854L214.58 274.794V276H221.744ZM227.182 276.216C228.928 276.216 230.26 275.352 230.854 274.092L229.828 273.354C229.342 274.38 228.442 274.956 227.272 274.956C225.544 274.956 224.518 273.75 224.518 272.148V271.716H231.196V271.032C231.196 268.404 229.666 266.496 227.182 266.496C224.662 266.496 223.006 268.404 223.006 271.356C223.006 274.308 224.662 276.216 227.182 276.216ZM227.182 267.702C228.658 267.702 229.648 268.8 229.648 270.438V270.636H224.518V270.51C224.518 268.89 225.616 267.702 227.182 267.702Z" fill="white"/>
<rect x="340" y="242" width="240" height="124" fill="#262626"/>
<path d="M361.002 275V269.636H364.494C366.744 269.636 368.004 268.25 368.004 266.036C368.004 263.822 366.744 262.436 364.494 262.436H359.49V275H361.002ZM361.002 263.768H364.494C365.682 263.768 366.384 264.416 366.384 265.568V266.504C366.384 267.656 365.682 268.304 364.494 268.304H361.002V263.768ZM371.527 275V268.7C371.527 267.818 372.463 267.152 374.011 267.152H374.857V265.712H374.299C372.787 265.712 371.941 266.54 371.617 267.422H371.527V265.712H370.087V275H371.527ZM380.118 275.216C382.602 275.216 384.312 273.308 384.312 270.356C384.312 267.404 382.602 265.496 380.118 265.496C377.634 265.496 375.924 267.404 375.924 270.356C375.924 273.308 377.634 275.216 380.118 275.216ZM380.118 273.938C378.57 273.938 377.472 272.984 377.472 271.022V269.69C377.472 267.728 378.57 266.774 380.118 266.774C381.666 266.774 382.764 267.728 382.764 269.69V271.022C382.764 272.984 381.666 273.938 380.118 273.938ZM386.68 275H388.12V273.488H388.192C388.75 274.64 389.632 275.216 390.91 275.216C393.232 275.216 394.69 273.326 394.69 270.356C394.69 267.386 393.232 265.496 390.91 265.496C389.632 265.496 388.678 266.054 388.192 267.224H388.12V261.68H386.68V275ZM390.514 273.92C389.2 273.92 388.12 273.236 388.12 272.03V268.574C388.12 267.548 389.2 266.792 390.514 266.792C392.134 266.792 393.142 267.908 393.142 269.564V271.148C393.142 272.804 392.134 273.92 390.514 273.92ZM399.93 275V273.74H398.562V261.68H397.122V273.506C397.122 274.37 397.662 275 398.652 275H399.93ZM405.518 275.216C407.264 275.216 408.596 274.352 409.19 273.092L408.164 272.354C407.678 273.38 406.778 273.956 405.608 273.956C403.88 273.956 402.854 272.75 402.854 271.148V270.716H409.532V270.032C409.532 267.404 408.002 265.496 405.518 265.496C402.998 265.496 401.342 267.404 401.342 270.356C401.342 273.308 402.998 275.216 405.518 275.216ZM405.518 266.702C406.994 266.702 407.984 267.8 407.984 269.438V269.636H402.854V269.51C402.854 267.89 403.952 266.702 405.518 266.702ZM413.345 275V268.556C413.345 267.368 414.425 266.792 415.559 266.792C416.927 266.792 417.557 267.638 417.557 269.294V275H418.997V268.556C418.997 267.368 420.041 266.792 421.175 266.792C422.579 266.792 423.209 267.656 423.209 269.294V275H424.649V269.042C424.649 266.792 423.515 265.496 421.625 265.496C420.041 265.496 419.141 266.378 418.799 267.386H418.763C418.259 266.054 417.143 265.496 415.919 265.496C414.479 265.496 413.831 266.27 413.417 267.224H413.345V265.712H411.905V275H413.345ZM432.03 270.302V268.754H427.332V270.302H432.03ZM438.13 275.216C440.83 275.216 442.45 273.74 442.45 271.436C442.45 269.564 441.388 268.484 438.94 267.926L437.914 267.692C436.33 267.332 435.556 266.792 435.556 265.604C435.556 264.254 436.546 263.552 438.148 263.552C439.606 263.552 440.56 264.146 441.244 265.1L442.378 264.272C441.442 262.94 440.11 262.22 438.22 262.22C435.754 262.22 434.062 263.426 434.062 265.658C434.062 267.584 435.322 268.592 437.608 269.114L438.634 269.348C440.29 269.726 440.956 270.32 440.956 271.508C440.956 272.948 439.984 273.884 438.184 273.884C436.726 273.884 435.682 273.254 434.8 272.084L433.684 273.02C434.692 274.388 436.114 275.216 438.13 275.216ZM444.917 278.6H446.357V273.488H446.429C446.987 274.64 447.869 275.216 449.147 275.216C451.469 275.216 452.927 273.326 452.927 270.356C452.927 267.386 451.469 265.496 449.147 265.496C447.869 265.496 446.915 266.054 446.429 267.224H446.357V265.712H444.917V278.6ZM448.751 273.92C447.437 273.92 446.357 273.236 446.357 272.03V268.574C446.357 267.548 447.437 266.792 448.751 266.792C450.371 266.792 451.379 267.908 451.379 269.564V271.148C451.379 272.804 450.371 273.92 448.751 273.92ZM458.85 275.216C460.596 275.216 461.928 274.352 462.522 273.092L461.496 272.354C461.01 273.38 460.11 273.956 458.94 273.956C457.212 273.956 456.186 272.75 456.186 271.148V270.716H462.864V270.032C462.864 267.404 461.334 265.496 458.85 265.496C456.33 265.496 454.674 267.404 454.674 270.356C454.674 273.308 456.33 275.216 458.85 275.216ZM458.85 266.702C460.326 266.702 461.316 267.8 461.316 269.438V269.636H456.186V269.51C456.186 267.89 457.284 266.702 458.85 266.702ZM468.693 275.216C470.457 275.216 471.663 274.352 472.257 273.02L471.213 272.318C470.709 273.38 469.863 273.938 468.693 273.938C466.983 273.938 466.101 272.768 466.101 271.148V269.564C466.101 267.944 466.983 266.774 468.693 266.774C469.827 266.774 470.619 267.332 470.961 268.286L472.167 267.674C471.627 266.396 470.529 265.496 468.693 265.496C466.083 265.496 464.553 267.386 464.553 270.356C464.553 273.326 466.083 275.216 468.693 275.216ZM475.01 263.534C475.622 263.534 475.892 263.21 475.892 262.724V262.49C475.892 262.004 475.622 261.68 475.01 261.68C474.398 261.68 474.128 262.004 474.128 262.49V262.724C474.128 263.21 474.398 263.534 475.01 263.534ZM474.29 275H475.73V265.712H474.29V275ZM479.294 275H480.734V266.972H484.496V275H485.936V265.712H480.734V262.94H482.732V261.68H481.328C479.96 261.68 479.294 262.562 479.294 263.84V265.712H477.782V266.972H479.294V275ZM485.216 263.534C485.828 263.534 486.098 263.21 486.098 262.724V262.49C486.098 262.004 485.828 261.68 485.216 261.68C484.604 261.68 484.334 262.004 484.334 262.49V262.724C484.334 263.21 484.604 263.534 485.216 263.534ZM492.459 275.216C494.223 275.216 495.429 274.352 496.023 273.02L494.979 272.318C494.475 273.38 493.629 273.938 492.459 273.938C490.749 273.938 489.867 272.768 489.867 271.148V269.564C489.867 267.944 490.749 266.774 492.459 266.774C493.593 266.774 494.385 267.332 494.727 268.286L495.933 267.674C495.393 266.396 494.295 265.496 492.459 265.496C489.849 265.496 488.319 267.386 488.319 270.356C488.319 273.326 489.849 275.216 492.459 275.216ZM368.94 303L364.548 290.436H362.622L358.23 303H359.76L361.02 299.292H366.096L367.356 303H368.94ZM365.718 297.96H361.38L363.504 291.84H363.594L365.718 297.96ZM372.318 303V296.556C372.318 295.368 373.434 294.792 374.586 294.792C375.972 294.792 376.692 295.638 376.692 297.294V303H378.132V297.042C378.132 294.792 376.926 293.496 375.018 293.496C373.632 293.496 372.84 294.18 372.39 295.224H372.318V293.712H370.878V303H372.318ZM383.898 303.216C386.022 303.216 387.336 302.118 387.336 300.318C387.336 298.914 386.544 298.014 384.492 297.708L383.772 297.6C382.62 297.42 381.99 297.06 381.99 296.16C381.99 295.278 382.62 294.72 383.808 294.72C384.996 294.72 385.788 295.278 386.202 295.854L387.156 294.99C386.4 294.054 385.41 293.496 383.916 293.496C382.026 293.496 380.604 294.396 380.604 296.232C380.604 297.96 381.882 298.662 383.592 298.914L384.33 299.022C385.554 299.202 385.95 299.76 385.95 300.48C385.95 301.434 385.23 301.992 384.006 301.992C382.836 301.992 381.972 301.47 381.252 300.57L380.226 301.398C381.054 302.496 382.188 303.216 383.898 303.216ZM397.44 303V301.74H396.378V296.628C396.378 294.666 395.046 293.496 392.814 293.496C391.14 293.496 390.024 294.324 389.52 295.314L390.384 296.124C390.888 295.278 391.626 294.738 392.742 294.738C394.218 294.738 394.938 295.458 394.938 296.772V297.69H393.102C390.402 297.69 389.142 298.662 389.142 300.408C389.142 302.136 390.294 303.216 392.256 303.216C393.552 303.216 394.542 302.622 394.938 301.488H395.028C395.136 302.352 395.568 303 396.63 303H397.44ZM392.49 301.992C391.374 301.992 390.654 301.47 390.654 300.552V300.174C390.654 299.274 391.392 298.77 393.03 298.77H394.938V300.3C394.938 301.254 393.912 301.992 392.49 301.992ZM405.723 303V301.74H400.197L405.579 294.792V293.712H398.721V294.972H403.833L398.559 301.794V303H405.723ZM411.696 303V301.74H409.806V294.972H411.84V293.712H409.806V291.138H408.51V292.866C408.51 293.496 408.312 293.712 407.7 293.712H406.836V294.972H408.366V301.47C408.366 302.37 408.906 303 409.896 303H411.696ZM417.577 303.216C419.323 303.216 420.655 302.352 421.249 301.092L420.223 300.354C419.737 301.38 418.837 301.956 417.667 301.956C415.939 301.956 414.913 300.75 414.913 299.148V298.716H421.591V298.032C421.591 295.404 420.061 293.496 417.577 293.496C415.057 293.496 413.401 295.404 413.401 298.356C413.401 301.308 415.057 303.216 417.577 303.216ZM417.577 294.702C419.053 294.702 420.043 295.8 420.043 297.438V297.636H414.913V297.51C414.913 295.89 416.011 294.702 417.577 294.702Z" fill="white"/>
</svg>
