<svg width="380" height="203" viewBox="0 0 380 203" fill="none" xmlns="http://www.w3.org/2000/svg">
<rect width="380" height="203" fill="white"/>
<line x1="18" y1="88.75" x2="168" y2="88.75" stroke="black" stroke-width="0.5"/>
<line x1="18" y1="98.75" x2="168" y2="98.75" stroke="black" stroke-width="0.5"/>
<line x1="18" y1="108.75" x2="168" y2="108.75" stroke="black" stroke-width="0.5"/>
<line x1="18" y1="118.75" x2="168" y2="118.75" stroke="black" stroke-width="0.5"/>
<line x1="18" y1="128.75" x2="168" y2="128.75" stroke="black" stroke-width="0.5"/>
<line x1="169" y1="107.75" x2="215" y2="107.75" stroke="black" stroke-width="0.5"/>
<line x1="169" y1="109.75" x2="215" y2="109.75" stroke="black" stroke-width="0.5"/>
<line x1="169" y1="117.75" x2="215" y2="117.75" stroke="black" stroke-width="0.5"/>
<line x1="169" y1="119.75" x2="215" y2="119.75" stroke="black" stroke-width="0.5"/>
<line x1="169" y1="127.75" x2="215" y2="127.75" stroke="black" stroke-width="0.5"/>
<line x1="169" y1="129.75" x2="215" y2="129.75" stroke="black" stroke-width="0.5"/>
<line x1="169" y1="87.75" x2="215" y2="87.75" stroke="black" stroke-width="0.5"/>
<line x1="169" y1="89.75" x2="215" y2="89.75" stroke="black" stroke-width="0.5"/>
<line x1="169" y1="97.75" x2="215" y2="97.75" stroke="black" stroke-width="0.5"/>
<line x1="169" y1="99.75" x2="215" y2="99.75" stroke="black" stroke-width="0.5"/>
<rect x="41" y="79" width="49" height="59" fill="#0043CE"/>
<path d="M52.1369 93.2H53.1149L54.0209 95H54.5909L53.6309 93.152C54.1769 93.026 54.4709 92.612 54.4709 92C54.4709 91.238 54.0329 90.812 53.3009 90.812H51.6329V95H52.1369V93.2ZM52.1369 92.768V91.256H53.3009C53.6969 91.256 53.9309 91.472 53.9309 91.856V92.168C53.9309 92.552 53.6969 92.768 53.3009 92.768H52.1369ZM56.6589 95.072C57.2409 95.072 57.6849 94.784 57.8829 94.364L57.5409 94.118C57.3789 94.46 57.0789 94.652 56.6889 94.652C56.1129 94.652 55.7709 94.25 55.7709 93.716V93.572H57.9969V93.344C57.9969 92.468 57.4869 91.832 56.6589 91.832C55.8189 91.832 55.2669 92.468 55.2669 93.452C55.2669 94.436 55.8189 95.072 56.6589 95.072ZM56.6589 92.234C57.1509 92.234 57.4809 92.6 57.4809 93.146V93.212H55.7709V93.17C55.7709 92.63 56.1369 92.234 56.6589 92.234ZM59.1159 95H59.5959V92.324H60.2619V91.904H59.5959V90.98H60.2619V90.56H59.7939C59.3379 90.56 59.1159 90.854 59.1159 91.28V91.904H58.6119V92.324H59.1159V95ZM62.1938 95.072C62.7758 95.072 63.2198 94.784 63.4178 94.364L63.0758 94.118C62.9138 94.46 62.6138 94.652 62.2238 94.652C61.6478 94.652 61.3058 94.25 61.3058 93.716V93.572H63.5318V93.344C63.5318 92.468 63.0218 91.832 62.1938 91.832C61.3538 91.832 60.8018 92.468 60.8018 93.452C60.8018 94.436 61.3538 95.072 62.1938 95.072ZM62.1938 92.234C62.6858 92.234 63.0158 92.6 63.0158 93.146V93.212H61.3058V93.17C61.3058 92.63 61.6718 92.234 62.1938 92.234ZM64.9627 95V92.9C64.9627 92.606 65.2747 92.384 65.7907 92.384H66.0727V91.904H65.8867C65.3827 91.904 65.1007 92.18 64.9927 92.474H64.9627V91.904H64.4827V95H64.9627ZM67.9806 95.072C68.5626 95.072 69.0066 94.784 69.2046 94.364L68.8626 94.118C68.7006 94.46 68.4006 94.652 68.0106 94.652C67.4346 94.652 67.0926 94.25 67.0926 93.716V93.572H69.3186V93.344C69.3186 92.468 68.8086 91.832 67.9806 91.832C67.1406 91.832 66.5886 92.468 66.5886 93.452C66.5886 94.436 67.1406 95.072 67.9806 95.072ZM67.9806 92.234C68.4726 92.234 68.8026 92.6 68.8026 93.146V93.212H67.0926V93.17C67.0926 92.63 67.4586 92.234 67.9806 92.234ZM70.7495 95V92.852C70.7495 92.456 71.1215 92.264 71.5055 92.264C71.9675 92.264 72.2075 92.546 72.2075 93.098V95H72.6875V93.014C72.6875 92.264 72.2855 91.832 71.6495 91.832C71.1875 91.832 70.9235 92.06 70.7735 92.408H70.7495V91.904H70.2695V95H70.7495ZM74.9917 95.072C75.5797 95.072 75.9817 94.784 76.1797 94.34L75.8317 94.106C75.6637 94.46 75.3817 94.646 74.9917 94.646C74.4217 94.646 74.1277 94.256 74.1277 93.716V93.188C74.1277 92.648 74.4217 92.258 74.9917 92.258C75.3697 92.258 75.6337 92.444 75.7477 92.762L76.1497 92.558C75.9697 92.132 75.6037 91.832 74.9917 91.832C74.1217 91.832 73.6117 92.462 73.6117 93.452C73.6117 94.442 74.1217 95.072 74.9917 95.072ZM78.1461 95.072C78.7281 95.072 79.1721 94.784 79.3701 94.364L79.0281 94.118C78.8661 94.46 78.5661 94.652 78.1761 94.652C77.6001 94.652 77.2581 94.25 77.2581 93.716V93.572H79.4841V93.344C79.4841 92.468 78.9741 91.832 78.1461 91.832C77.3061 91.832 76.7541 92.468 76.7541 93.452C76.7541 94.436 77.3061 95.072 78.1461 95.072ZM78.1461 92.234C78.6381 92.234 78.9681 92.6 78.9681 93.146V93.212H77.2581V93.17C77.2581 92.63 77.6241 92.234 78.1461 92.234ZM50.0179 101V99.212H51.1819C51.9319 99.212 52.3519 98.75 52.3519 98.012C52.3519 97.274 51.9319 96.812 51.1819 96.812H49.5139V101H50.0179ZM50.0179 97.256H51.1819C51.5779 97.256 51.8119 97.472 51.8119 97.856V98.168C51.8119 98.552 51.5779 98.768 51.1819 98.768H50.0179V97.256ZM53.6859 101V98.9C53.6859 98.606 53.9979 98.384 54.5139 98.384H54.7959V97.904H54.6099C54.1059 97.904 53.8239 98.18 53.7159 98.474H53.6859V97.904H53.2059V101H53.6859ZM56.7038 101.072C57.2858 101.072 57.7298 100.784 57.9278 100.364L57.5858 100.118C57.4238 100.46 57.1238 100.652 56.7338 100.652C56.1578 100.652 55.8158 100.25 55.8158 99.716V99.572H58.0418V99.344C58.0418 98.468 57.5318 97.832 56.7038 97.832C55.8638 97.832 55.3118 98.468 55.3118 99.452C55.3118 100.436 55.8638 101.072 56.7038 101.072ZM56.7038 98.234C57.1958 98.234 57.5258 98.6 57.5258 99.146V99.212H55.8158V99.17C55.8158 98.63 56.1818 98.234 56.7038 98.234ZM58.9927 102.2H59.4727V100.496H59.4967C59.6827 100.88 59.9767 101.072 60.4027 101.072C61.1767 101.072 61.6627 100.442 61.6627 99.452C61.6627 98.462 61.1767 97.832 60.4027 97.832C59.9767 97.832 59.6587 98.018 59.4967 98.408H59.4727V97.904H58.9927V102.2ZM60.2707 100.64C59.8327 100.64 59.4727 100.412 59.4727 100.01V98.858C59.4727 98.516 59.8327 98.264 60.2707 98.264C60.8107 98.264 61.1467 98.636 61.1467 99.188V99.716C61.1467 100.268 60.8107 100.64 60.2707 100.64ZM65.1532 101V100.58H64.7992V98.876C64.7992 98.222 64.3552 97.832 63.6112 97.832C63.0532 97.832 62.6812 98.108 62.5132 98.438L62.8012 98.708C62.9692 98.426 63.2152 98.246 63.5872 98.246C64.0792 98.246 64.3192 98.486 64.3192 98.924V99.23H63.7072C62.8072 99.23 62.3872 99.554 62.3872 100.136C62.3872 100.712 62.7712 101.072 63.4252 101.072C63.8572 101.072 64.1872 100.874 64.3192 100.496H64.3492C64.3852 100.784 64.5292 101 64.8832 101H65.1532ZM63.5032 100.664C63.1312 100.664 62.8912 100.49 62.8912 100.184V100.058C62.8912 99.758 63.1372 99.59 63.6832 99.59H64.3192V100.1C64.3192 100.418 63.9772 100.664 63.5032 100.664ZM66.4783 101V98.9C66.4783 98.606 66.7903 98.384 67.3063 98.384H67.5883V97.904H67.4023C66.8983 97.904 66.6163 98.18 66.5083 98.474H66.4783V97.904H65.9983V101H66.4783ZM70.858 101V100.58H70.504V98.876C70.504 98.222 70.06 97.832 69.316 97.832C68.758 97.832 68.386 98.108 68.218 98.438L68.506 98.708C68.674 98.426 68.92 98.246 69.292 98.246C69.784 98.246 70.024 98.486 70.024 98.924V99.23H69.412C68.512 99.23 68.092 99.554 68.092 100.136C68.092 100.712 68.476 101.072 69.13 101.072C69.562 101.072 69.892 100.874 70.024 100.496H70.054C70.09 100.784 70.234 101 70.588 101H70.858ZM69.208 100.664C68.836 100.664 68.596 100.49 68.596 100.184V100.058C68.596 99.758 68.842 99.59 69.388 99.59H70.024V100.1C70.024 100.418 69.682 100.664 69.208 100.664ZM72.987 101V100.58H72.357V98.324H73.035V97.904H72.357V97.046H71.925V97.622C71.925 97.832 71.859 97.904 71.655 97.904H71.367V98.324H71.877V100.49C71.877 100.79 72.057 101 72.387 101H72.987ZM74.2066 97.178C74.4106 97.178 74.5006 97.07 74.5006 96.908V96.83C74.5006 96.668 74.4106 96.56 74.2066 96.56C74.0026 96.56 73.9126 96.668 73.9126 96.83V96.908C73.9126 97.07 74.0026 97.178 74.2066 97.178ZM73.9666 101H74.4466V97.904H73.9666V101ZM76.7966 101.072C77.6246 101.072 78.1946 100.436 78.1946 99.452C78.1946 98.468 77.6246 97.832 76.7966 97.832C75.9686 97.832 75.3986 98.468 75.3986 99.452C75.3986 100.436 75.9686 101.072 76.7966 101.072ZM76.7966 100.646C76.2806 100.646 75.9146 100.328 75.9146 99.674V99.23C75.9146 98.576 76.2806 98.258 76.7966 98.258C77.3126 98.258 77.6786 98.576 77.6786 99.23V99.674C77.6786 100.328 77.3126 100.646 76.7966 100.646ZM79.624 101V98.852C79.624 98.456 79.996 98.264 80.38 98.264C80.842 98.264 81.082 98.546 81.082 99.098V101H81.562V99.014C81.562 98.264 81.16 97.832 80.524 97.832C80.062 97.832 79.798 98.06 79.648 98.408H79.624V97.904H79.144V101H79.624Z" fill="white"/>
<path d="M39.708 69L38.244 64.812H37.602L36.138 69H36.648L37.068 67.764H38.76L39.18 69H39.708ZM38.634 67.32H37.188L37.896 65.28H37.926L38.634 67.32ZM40.8338 69V66.852C40.8338 66.456 41.2058 66.264 41.5898 66.264C42.0518 66.264 42.2918 66.546 42.2918 67.098V69H42.7718V67.014C42.7718 66.264 42.3698 65.832 41.7338 65.832C41.2718 65.832 41.0078 66.06 40.8578 66.408H40.8338V65.904H40.3538V69H40.8338ZM44.6939 69.072C45.4019 69.072 45.8399 68.706 45.8399 68.106C45.8399 67.638 45.5759 67.338 44.8919 67.236L44.6519 67.2C44.2679 67.14 44.0579 67.02 44.0579 66.72C44.0579 66.426 44.2679 66.24 44.6639 66.24C45.0599 66.24 45.3239 66.426 45.4619 66.618L45.7799 66.33C45.5279 66.018 45.1979 65.832 44.6999 65.832C44.0699 65.832 43.5959 66.132 43.5959 66.744C43.5959 67.32 44.0219 67.554 44.5919 67.638L44.8379 67.674C45.2459 67.734 45.3779 67.92 45.3779 68.16C45.3779 68.478 45.1379 68.664 44.7299 68.664C44.3399 68.664 44.0519 68.49 43.8119 68.19L43.4699 68.466C43.7459 68.832 44.1239 69.072 44.6939 69.072ZM49.2077 69V68.58H48.8537V66.876C48.8537 66.222 48.4097 65.832 47.6657 65.832C47.1077 65.832 46.7357 66.108 46.5677 66.438L46.8557 66.708C47.0237 66.426 47.2697 66.246 47.6417 66.246C48.1337 66.246 48.3737 66.486 48.3737 66.924V67.23H47.7617C46.8617 67.23 46.4417 67.554 46.4417 68.136C46.4417 68.712 46.8257 69.072 47.4797 69.072C47.9117 69.072 48.2417 68.874 48.3737 68.496H48.4037C48.4397 68.784 48.5837 69 48.9377 69H49.2077ZM47.5577 68.664C47.1857 68.664 46.9457 68.49 46.9457 68.184V68.058C46.9457 67.758 47.1917 67.59 47.7377 67.59H48.3737V68.1C48.3737 68.418 48.0317 68.664 47.5577 68.664ZM51.1768 69V68.58H50.5468V66.324H51.2248V65.904H50.5468V65.046H50.1148V65.622C50.1148 65.832 50.0488 65.904 49.8448 65.904H49.5568V66.324H50.0668V68.49C50.0668 68.79 50.2468 69 50.5768 69H51.1768ZM54.0723 69V68.58H52.2303L54.0243 66.264V65.904H51.7383V66.324H53.4423L51.6843 68.598V69H54.0723Z" fill="#4B4B4B"/>
<rect x="98" y="79" width="49" height="59" fill="#0043CE"/>
<path d="M108.636 95L110.046 90.812H109.524L108.828 92.924L108.354 94.496H108.324L107.862 92.924L107.172 90.812H106.632L108.024 95H108.636ZM113.176 95V94.58H112.822V92.876C112.822 92.222 112.378 91.832 111.634 91.832C111.076 91.832 110.704 92.108 110.536 92.438L110.824 92.708C110.992 92.426 111.238 92.246 111.61 92.246C112.102 92.246 112.342 92.486 112.342 92.924V93.23H111.73C110.83 93.23 110.41 93.554 110.41 94.136C110.41 94.712 110.794 95.072 111.448 95.072C111.88 95.072 112.21 94.874 112.342 94.496H112.372C112.408 94.784 112.552 95 112.906 95H113.176ZM111.526 94.664C111.154 94.664 110.914 94.49 110.914 94.184V94.058C110.914 93.758 111.16 93.59 111.706 93.59H112.342V94.1C112.342 94.418 112 94.664 111.526 94.664ZM114.501 95V92.9C114.501 92.606 114.813 92.384 115.329 92.384H115.611V91.904H115.425C114.921 91.904 114.639 92.18 114.531 92.474H114.501V91.904H114.021V95H114.501ZM116.624 91.178C116.828 91.178 116.918 91.07 116.918 90.908V90.83C116.918 90.668 116.828 90.56 116.624 90.56C116.42 90.56 116.33 90.668 116.33 90.83V90.908C116.33 91.07 116.42 91.178 116.624 91.178ZM116.384 95H116.864V91.904H116.384V95ZM120.564 95V94.58H120.21V92.876C120.21 92.222 119.766 91.832 119.022 91.832C118.464 91.832 118.092 92.108 117.924 92.438L118.212 92.708C118.38 92.426 118.626 92.246 118.998 92.246C119.49 92.246 119.73 92.486 119.73 92.924V93.23H119.118C118.218 93.23 117.798 93.554 117.798 94.136C117.798 94.712 118.182 95.072 118.836 95.072C119.268 95.072 119.598 94.874 119.73 94.496H119.76C119.796 94.784 119.94 95 120.294 95H120.564ZM118.914 94.664C118.542 94.664 118.302 94.49 118.302 94.184V94.058C118.302 93.758 118.548 93.59 119.094 93.59H119.73V94.1C119.73 94.418 119.388 94.664 118.914 94.664ZM122.693 95V94.58H122.063V92.324H122.741V91.904H122.063V91.046H121.631V91.622C121.631 91.832 121.565 91.904 121.361 91.904H121.073V92.324H121.583V94.49C121.583 94.79 121.763 95 122.093 95H122.693ZM123.913 91.178C124.117 91.178 124.207 91.07 124.207 90.908V90.83C124.207 90.668 124.117 90.56 123.913 90.56C123.709 90.56 123.619 90.668 123.619 90.83V90.908C123.619 91.07 123.709 91.178 123.913 91.178ZM123.673 95H124.153V91.904H123.673V95ZM126.503 95.072C127.331 95.072 127.901 94.436 127.901 93.452C127.901 92.468 127.331 91.832 126.503 91.832C125.675 91.832 125.105 92.468 125.105 93.452C125.105 94.436 125.675 95.072 126.503 95.072ZM126.503 94.646C125.987 94.646 125.621 94.328 125.621 93.674V93.23C125.621 92.576 125.987 92.258 126.503 92.258C127.019 92.258 127.385 92.576 127.385 93.23V93.674C127.385 94.328 127.019 94.646 126.503 94.646ZM129.33 95V92.852C129.33 92.456 129.702 92.264 130.086 92.264C130.548 92.264 130.788 92.546 130.788 93.098V95H131.268V93.014C131.268 92.264 130.866 91.832 130.23 91.832C129.768 91.832 129.504 92.06 129.354 92.408H129.33V91.904H128.85V95H129.33ZM134.941 95V94.58H134.587V92.876C134.587 92.222 134.143 91.832 133.399 91.832C132.841 91.832 132.469 92.108 132.301 92.438L132.589 92.708C132.757 92.426 133.003 92.246 133.375 92.246C133.867 92.246 134.107 92.486 134.107 92.924V93.23H133.495C132.595 93.23 132.175 93.554 132.175 94.136C132.175 94.712 132.559 95.072 133.213 95.072C133.645 95.072 133.975 94.874 134.107 94.496H134.137C134.173 94.784 134.317 95 134.671 95H134.941ZM133.291 94.664C132.919 94.664 132.679 94.49 132.679 94.184V94.058C132.679 93.758 132.925 93.59 133.471 93.59H134.107V94.1C134.107 94.418 133.765 94.664 133.291 94.664ZM136.722 95V94.58H136.266V90.56H135.786V94.502C135.786 94.79 135.966 95 136.296 95H136.722ZM116.323 101V99.104H118.141V98.66H116.323V97.256H118.315V96.812H115.819V101H116.323ZM120.3 101.072C121.128 101.072 121.698 100.436 121.698 99.452C121.698 98.468 121.128 97.832 120.3 97.832C119.472 97.832 118.902 98.468 118.902 99.452C118.902 100.436 119.472 101.072 120.3 101.072ZM120.3 100.646C119.784 100.646 119.418 100.328 119.418 99.674V99.23C119.418 98.576 119.784 98.258 120.3 98.258C120.816 98.258 121.182 98.576 121.182 99.23V99.674C121.182 100.328 120.816 100.646 120.3 100.646ZM123.128 101V98.9C123.128 98.606 123.44 98.384 123.956 98.384H124.238V97.904H124.052C123.548 97.904 123.266 98.18 123.158 98.474H123.128V97.904H122.648V101H123.128ZM125.491 101V98.852C125.491 98.456 125.851 98.264 126.229 98.264C126.685 98.264 126.895 98.546 126.895 99.098V101H127.375V98.852C127.375 98.456 127.723 98.264 128.101 98.264C128.569 98.264 128.779 98.552 128.779 99.098V101H129.259V99.014C129.259 98.264 128.881 97.832 128.251 97.832C127.723 97.832 127.423 98.126 127.309 98.462H127.297C127.129 98.018 126.757 97.832 126.349 97.832C125.869 97.832 125.653 98.09 125.515 98.408H125.491V97.904H125.011V101H125.491Z" fill="white"/>
<rect x="209" y="79" width="49" height="59" fill="#262626"/>
<rect x="209" y="79" width="49" height="59" fill="#262626"/>
<path d="M216.126 97.072C216.822 97.072 217.332 96.706 217.596 96.118L217.194 95.866C217.026 96.322 216.66 96.622 216.126 96.622C215.406 96.622 214.98 96.1 214.98 95.242V94.618C214.98 93.76 215.406 93.19 216.126 93.19C216.642 93.19 216.99 93.472 217.158 93.904L217.566 93.658C217.302 93.076 216.822 92.74 216.126 92.74C215.07 92.74 214.44 93.532 214.44 94.93C214.44 96.328 215.07 97.072 216.126 97.072ZM219.658 97.072C220.486 97.072 221.056 96.436 221.056 95.452C221.056 94.468 220.486 93.832 219.658 93.832C218.83 93.832 218.26 94.468 218.26 95.452C218.26 96.436 218.83 97.072 219.658 97.072ZM219.658 96.646C219.142 96.646 218.776 96.328 218.776 95.674V95.23C218.776 94.576 219.142 94.258 219.658 94.258C220.174 94.258 220.54 94.576 220.54 95.23V95.674C220.54 96.328 220.174 96.646 219.658 96.646ZM222.936 97.072C223.644 97.072 224.082 96.706 224.082 96.106C224.082 95.638 223.818 95.338 223.134 95.236L222.894 95.2C222.51 95.14 222.3 95.02 222.3 94.72C222.3 94.426 222.51 94.24 222.906 94.24C223.302 94.24 223.566 94.426 223.704 94.618L224.022 94.33C223.77 94.018 223.44 93.832 222.942 93.832C222.312 93.832 221.838 94.132 221.838 94.744C221.838 95.32 222.264 95.554 222.834 95.638L223.08 95.674C223.488 95.734 223.62 95.92 223.62 96.16C223.62 96.478 223.38 96.664 222.972 96.664C222.582 96.664 222.294 96.49 222.054 96.19L221.712 96.466C221.988 96.832 222.366 97.072 222.936 97.072ZM226.333 97V96.58H225.703V94.324H226.381V93.904H225.703V93.046H225.271V93.622C225.271 93.832 225.205 93.904 225.001 93.904H224.713V94.324H225.223V96.49C225.223 96.79 225.403 97 225.733 97H226.333ZM229.442 97V95.104H231.26V94.66H229.442V93.256H231.434V92.812H228.938V97H229.442ZM234.157 97H234.637V93.904H234.157V96.046C234.157 96.454 233.785 96.64 233.407 96.64C232.945 96.64 232.699 96.358 232.699 95.806V93.904H232.219V95.89C232.219 96.64 232.627 97.072 233.263 97.072C233.779 97.072 234.013 96.79 234.133 96.496H234.157V97ZM236.299 97V94.852C236.299 94.456 236.671 94.264 237.055 94.264C237.517 94.264 237.757 94.546 237.757 95.098V97H238.237V95.014C238.237 94.264 237.835 93.832 237.199 93.832C236.737 93.832 236.473 94.06 236.323 94.408H236.299V93.904H235.819V97H236.299ZM240.542 97.072C241.13 97.072 241.532 96.784 241.73 96.34L241.382 96.106C241.214 96.46 240.932 96.646 240.542 96.646C239.972 96.646 239.678 96.256 239.678 95.716V95.188C239.678 94.648 239.972 94.258 240.542 94.258C240.92 94.258 241.184 94.444 241.298 94.762L241.7 94.558C241.52 94.132 241.154 93.832 240.542 93.832C239.672 93.832 239.162 94.462 239.162 95.452C239.162 96.442 239.672 97.072 240.542 97.072ZM243.851 97V96.58H243.221V94.324H243.899V93.904H243.221V93.046H242.789V93.622C242.789 93.832 242.723 93.904 242.519 93.904H242.231V94.324H242.741V96.49C242.741 96.79 242.921 97 243.251 97H243.851ZM245.071 93.178C245.275 93.178 245.365 93.07 245.365 92.908V92.83C245.365 92.668 245.275 92.56 245.071 92.56C244.867 92.56 244.777 92.668 244.777 92.83V92.908C244.777 93.07 244.867 93.178 245.071 93.178ZM244.831 97H245.311V93.904H244.831V97ZM247.661 97.072C248.489 97.072 249.059 96.436 249.059 95.452C249.059 94.468 248.489 93.832 247.661 93.832C246.833 93.832 246.263 94.468 246.263 95.452C246.263 96.436 246.833 97.072 247.661 97.072ZM247.661 96.646C247.145 96.646 246.779 96.328 246.779 95.674V95.23C246.779 94.576 247.145 94.258 247.661 94.258C248.177 94.258 248.543 94.576 248.543 95.23V95.674C248.543 96.328 248.177 96.646 247.661 96.646ZM250.488 97V94.852C250.488 94.456 250.86 94.264 251.244 94.264C251.706 94.264 251.946 94.546 251.946 95.098V97H252.426V95.014C252.426 94.264 252.024 93.832 251.388 93.832C250.926 93.832 250.662 94.06 250.512 94.408H250.488V93.904H250.008V97H250.488Z" fill="white"/>
<g clip-path="url(#clip0_255_694)">
<path d="M230.305 112.614C230.305 112.591 230.293 112.534 230.225 112.534C230.203 112.534 230.191 112.546 230.112 112.625L229.612 113.182C229.543 113.08 229.214 112.534 228.407 112.534C226.782 112.534 225.157 114.137 225.157 115.819C225.157 117.012 226.009 117.807 227.123 117.807C227.748 117.807 228.305 117.523 228.691 117.182C229.362 116.591 229.487 115.932 229.487 115.909C229.487 115.83 229.407 115.83 229.396 115.83C229.35 115.83 229.316 115.853 229.305 115.909C229.237 116.114 229.066 116.637 228.566 117.057C228.066 117.455 227.612 117.58 227.237 117.58C226.589 117.58 225.816 117.205 225.816 116.08C225.816 115.659 225.964 114.489 226.691 113.637C227.134 113.125 227.816 112.762 228.464 112.762C229.203 112.762 229.634 113.319 229.634 114.159C229.634 114.455 229.612 114.455 229.612 114.534C229.612 114.603 229.691 114.603 229.714 114.603C229.805 114.603 229.805 114.591 229.85 114.455L230.305 112.614Z" fill="white"/>
<path d="M232.886 119.387C232.886 119.364 232.886 119.353 232.761 119.228C231.863 118.318 231.624 116.943 231.624 115.83C231.624 114.568 231.897 113.307 232.795 112.409C232.886 112.318 232.886 112.307 232.886 112.284C232.886 112.228 232.863 112.205 232.818 112.205C232.738 112.205 232.09 112.705 231.659 113.625C231.295 114.421 231.204 115.228 231.204 115.83C231.204 116.398 231.284 117.273 231.681 118.103C232.124 118.989 232.738 119.466 232.818 119.466C232.863 119.466 232.886 119.443 232.886 119.387Z" fill="white"/>
<path d="M236.598 114.023C236.598 113.546 236.473 112.534 235.734 112.534C234.723 112.534 233.609 114.58 233.609 116.239C233.609 116.921 233.814 117.728 234.473 117.728C235.496 117.728 236.598 115.648 236.598 114.023ZM234.371 115.012C234.496 114.557 234.643 113.978 234.939 113.455C235.132 113.103 235.393 112.694 235.723 112.694C236.075 112.694 236.121 113.159 236.121 113.569C236.121 113.932 236.064 114.296 235.893 115.012H234.371ZM235.825 115.25C235.746 115.58 235.598 116.194 235.314 116.716C235.064 117.216 234.791 117.569 234.473 117.569C234.234 117.569 234.087 117.353 234.087 116.682C234.087 116.375 234.132 115.955 234.314 115.25H235.825Z" fill="white"/>
<path d="M238.354 115.564C238.354 115.485 238.286 115.371 238.149 115.371C238.013 115.371 237.865 115.507 237.865 115.655C237.865 115.735 237.922 115.848 238.07 115.848C238.206 115.848 238.354 115.701 238.354 115.564ZM237.32 118.144C237.297 118.212 237.274 118.269 237.274 118.36C237.274 118.598 237.468 118.78 237.752 118.78C238.252 118.78 238.479 118.087 238.479 118.007C238.479 117.939 238.411 117.939 238.399 117.939C238.331 117.939 238.32 117.973 238.297 118.03C238.184 118.439 237.968 118.644 237.763 118.644C237.661 118.644 237.638 118.576 237.638 118.462C237.638 118.348 237.672 118.257 237.718 118.144C237.774 118.007 237.831 117.871 237.877 117.735C237.922 117.61 238.115 117.155 238.127 117.087C238.149 117.042 238.161 116.985 238.161 116.928C238.161 116.689 237.956 116.496 237.684 116.496C237.172 116.496 236.945 117.189 236.945 117.28C236.945 117.337 237.013 117.337 237.036 117.337C237.104 117.337 237.104 117.314 237.127 117.257C237.252 116.826 237.479 116.644 237.661 116.644C237.74 116.644 237.786 116.678 237.786 116.814C237.786 116.939 237.763 117.007 237.638 117.326L237.32 118.144Z" fill="white"/>
<path d="M241.212 115.83C241.212 115.273 241.133 114.398 240.735 113.568C240.303 112.682 239.678 112.205 239.61 112.205C239.565 112.205 239.531 112.239 239.531 112.284C239.531 112.307 239.531 112.318 239.667 112.455C240.383 113.171 240.792 114.318 240.792 115.83C240.792 117.08 240.531 118.353 239.633 119.262C239.531 119.353 239.531 119.364 239.531 119.387C239.531 119.432 239.565 119.466 239.61 119.466C239.678 119.466 240.337 118.966 240.758 118.046C241.133 117.25 241.212 116.443 241.212 115.83Z" fill="white"/>
</g>
<g clip-path="url(#clip1_255_694)">
<path d="M11.5883 86.7913C11.5883 86.7132 11.5883 86.6279 11.503 86.6279C11.4107 86.6279 11.4107 86.7132 11.4107 86.7913V91.0029C11.4107 91.0811 11.4107 91.1663 11.503 91.1663C11.5883 91.1663 11.5883 91.0811 11.5883 91.0029V86.7913Z" fill="black"/>
<path d="M14.2077 88.5811C14.2077 88.2189 14.1864 87.8566 14.0302 87.5228C13.8242 87.0825 13.4478 87.0115 13.2631 87.0115C12.9861 87.0115 12.6594 87.1322 12.4677 87.5512C12.3256 87.8637 12.3043 88.2189 12.3043 88.5811C12.3043 88.922 12.3185 89.3268 12.5103 89.6748C12.702 90.037 13.0359 90.1294 13.256 90.1294C13.4975 90.1294 13.8455 90.037 14.0444 89.6038C14.1864 89.2913 14.2077 88.9362 14.2077 88.5811ZM13.256 90.0299C13.0785 90.0299 12.8086 89.9163 12.7305 89.4831C12.6807 89.2132 12.6807 88.7941 12.6807 88.5243C12.6807 88.2331 12.6807 87.9348 12.7163 87.6933C12.8015 87.1535 13.1424 87.1109 13.256 87.1109C13.4052 87.1109 13.7035 87.1961 13.7887 87.6436C13.8384 87.8993 13.8384 88.2402 13.8384 88.5243C13.8384 88.8652 13.8384 89.1706 13.7887 89.4618C13.7177 89.895 13.462 90.0299 13.256 90.0299Z" fill="black"/>
<path d="M15.6249 88.9717C15.6462 88.922 15.6462 88.9078 15.6462 88.8936C15.6462 88.8865 15.6462 88.8722 15.6249 88.8225L14.8365 86.7345C14.8081 86.6563 14.7797 86.6279 14.73 86.6279C14.6802 86.6279 14.6376 86.6705 14.6376 86.7203C14.6376 86.7345 14.6376 86.7416 14.6589 86.7913L15.4615 88.8936L14.6589 90.9887C14.6376 91.0384 14.6376 91.0526 14.6376 91.074C14.6376 91.1237 14.6802 91.1663 14.73 91.1663C14.7868 91.1663 14.8081 91.1166 14.8223 91.074L15.6249 88.9717Z" fill="black"/>
</g>
<g clip-path="url(#clip2_255_694)">
<path d="M11.5883 126.791C11.5883 126.713 11.5883 126.628 11.503 126.628C11.4107 126.628 11.4107 126.713 11.4107 126.791V131.003C11.4107 131.081 11.4107 131.166 11.503 131.166C11.5883 131.166 11.5883 131.081 11.5883 131.003V126.791Z" fill="black"/>
<path d="M14.2077 128.581C14.2077 128.219 14.1864 127.857 14.0302 127.523C13.8242 127.082 13.4478 127.011 13.2631 127.011C12.9861 127.011 12.6594 127.132 12.4677 127.551C12.3256 127.864 12.3043 128.219 12.3043 128.581C12.3043 128.922 12.3185 129.327 12.5103 129.675C12.702 130.037 13.0359 130.129 13.256 130.129C13.4975 130.129 13.8455 130.037 14.0444 129.604C14.1864 129.291 14.2077 128.936 14.2077 128.581ZM13.256 130.03C13.0785 130.03 12.8086 129.916 12.7305 129.483C12.6807 129.213 12.6807 128.794 12.6807 128.524C12.6807 128.233 12.6807 127.935 12.7163 127.693C12.8015 127.154 13.1424 127.111 13.256 127.111C13.4052 127.111 13.7035 127.196 13.7887 127.644C13.8384 127.899 13.8384 128.24 13.8384 128.524C13.8384 128.865 13.8384 129.171 13.7887 129.462C13.7177 129.895 13.462 130.03 13.256 130.03Z" fill="black"/>
<path d="M15.6249 128.972C15.6462 128.922 15.6462 128.908 15.6462 128.894C15.6462 128.886 15.6462 128.872 15.6249 128.823L14.8365 126.734C14.8081 126.656 14.7797 126.628 14.73 126.628C14.6802 126.628 14.6376 126.671 14.6376 126.72C14.6376 126.734 14.6376 126.742 14.6589 126.791L15.4615 128.894L14.6589 130.989C14.6376 131.038 14.6376 131.053 14.6376 131.074C14.6376 131.124 14.6802 131.166 14.73 131.166C14.7868 131.166 14.8081 131.117 14.8223 131.074L15.6249 128.972Z" fill="black"/>
</g>
<path d="M11.9546 109.503C11.9359 109.597 11.8984 109.738 11.8984 109.766C11.8984 109.869 11.9827 109.925 12.0765 109.925C12.1515 109.925 12.2546 109.878 12.3015 109.756C12.3015 109.747 12.3765 109.466 12.414 109.316L12.5452 108.781C12.5734 108.641 12.6109 108.51 12.6484 108.378C12.6671 108.275 12.714 108.097 12.7234 108.078C12.8077 107.891 13.1265 107.347 13.6984 107.347C13.9702 107.347 14.0171 107.572 14.0171 107.769C14.0171 108.135 13.7265 108.903 13.6327 109.156C13.5765 109.297 13.5671 109.372 13.5671 109.438C13.5671 109.719 13.7827 109.925 14.064 109.925C14.6265 109.925 14.8421 109.053 14.8421 109.006C14.8421 108.941 14.7952 108.941 14.7765 108.941C14.7109 108.941 14.7109 108.96 14.6827 109.053C14.5609 109.456 14.364 109.794 14.0734 109.794C13.9702 109.794 13.9327 109.738 13.9327 109.597C13.9327 109.447 13.9796 109.306 14.0359 109.175C14.1484 108.856 14.4015 108.2 14.4015 107.853C14.4015 107.46 14.1484 107.216 13.7171 107.216C13.1734 107.216 12.8827 107.6 12.7796 107.741C12.7515 107.403 12.5077 107.216 12.2265 107.216C11.9546 107.216 11.8421 107.45 11.7859 107.553C11.6827 107.76 11.6077 108.116 11.6077 108.135C11.6077 108.2 11.664 108.2 11.6734 108.2C11.739 108.2 11.739 108.191 11.7765 108.06C11.8796 107.638 12.0015 107.347 12.2171 107.347C12.3296 107.347 12.3952 107.422 12.3952 107.619C12.3952 107.75 12.3765 107.816 12.3015 108.125L11.9546 109.503Z" fill="black"/>
<g clip-path="url(#clip3_255_694)">
<path d="M13.7717 99.9861C13.5959 99.9861 13.4397 100.133 13.4397 100.308C13.4397 100.494 13.5959 100.64 13.7717 100.64C13.9573 100.64 14.1038 100.494 14.1038 100.308C14.1038 100.133 13.9573 99.9861 13.7717 99.9861Z" fill="black"/>
<path d="M13.7717 98.2593C13.5959 98.2593 13.4397 98.4058 13.4397 98.5815C13.4397 98.7671 13.5959 98.9136 13.7717 98.9136C13.9573 98.9136 14.1038 98.7671 14.1038 98.5815C14.1038 98.4058 13.9573 98.2593 13.7717 98.2593Z" fill="black"/>
<path d="M13.7717 96.5322C13.5959 96.5322 13.4397 96.6787 13.4397 96.8545C13.4397 97.04 13.5959 97.1865 13.7717 97.1865C13.9573 97.1865 14.1038 97.04 14.1038 96.8545C14.1038 96.6787 13.9573 96.5322 13.7717 96.5322Z" fill="black"/>
</g>
<g clip-path="url(#clip4_255_694)">
<path d="M13.7717 119.986C13.5959 119.986 13.4397 120.133 13.4397 120.308C13.4397 120.494 13.5959 120.64 13.7717 120.64C13.9573 120.64 14.1038 120.494 14.1038 120.308C14.1038 120.133 13.9573 119.986 13.7717 119.986Z" fill="black"/>
<path d="M13.7717 118.259C13.5959 118.259 13.4397 118.406 13.4397 118.582C13.4397 118.767 13.5959 118.914 13.7717 118.914C13.9573 118.914 14.1038 118.767 14.1038 118.582C14.1038 118.406 13.9573 118.259 13.7717 118.259Z" fill="black"/>
<path d="M13.7717 116.532C13.5959 116.532 13.4397 116.679 13.4397 116.854C13.4397 117.04 13.5959 117.187 13.7717 117.187C13.9573 117.187 14.1038 117.04 14.1038 116.854C14.1038 116.679 13.9573 116.532 13.7717 116.532Z" fill="black"/>
</g>
<g clip-path="url(#clip5_255_694)">
<path d="M60.4942 64.9375C60.5539 64.7159 60.6476 64.554 61.0823 64.5369C61.1079 64.5369 61.176 64.5284 61.176 64.4261C61.176 64.4261 61.176 64.3665 61.1079 64.3665C60.9289 64.3665 60.7329 64.3835 60.5539 64.3835C60.3664 64.3835 60.1618 64.3665 59.9829 64.3665C59.9488 64.3665 59.8891 64.3665 59.8891 64.4773C59.8891 64.5369 59.9402 64.5369 59.9829 64.5369C60.2982 64.5454 60.3579 64.6562 60.3579 64.7755C60.3579 64.7926 60.3408 64.8778 60.3408 64.8863L59.8465 66.8295C59.6675 67.5625 59.0368 68.0312 58.4914 68.0312C58.1249 68.0312 57.8351 67.7926 57.8351 67.3238C57.8351 67.3153 57.8351 67.1449 57.8948 66.9062L58.4147 64.7841C58.4658 64.588 58.4743 64.5369 58.8749 64.5369C59.0198 64.5369 59.0624 64.5369 59.0624 64.4261C59.0624 64.3665 59.0027 64.3665 58.9857 64.3665C58.8323 64.3665 58.4402 64.3835 58.2868 64.3835C58.1334 64.3835 57.7414 64.3665 57.588 64.3665C57.5454 64.3665 57.4857 64.3665 57.4857 64.4773C57.4857 64.5369 57.5283 64.5369 57.6391 64.5369C57.6476 64.5369 57.7499 64.5369 57.8437 64.5454C57.9374 64.5625 57.9885 64.5625 57.9885 64.6392C57.9885 64.6648 57.9289 64.8949 57.8948 65.0227L57.7755 65.5C57.7243 65.713 57.4687 66.7358 57.4431 66.8466C57.409 66.9915 57.409 67.0767 57.409 67.1619C57.409 67.8182 57.9033 68.2017 58.4743 68.2017C59.1562 68.2017 59.8295 67.588 60.0084 66.8721L60.4942 64.9375Z" fill="#4B4B4B"/>
<path d="M61.5378 68.4373C61.4015 68.6503 61.2821 68.7441 61.0605 68.7611C61.0179 68.7611 60.9668 68.7611 60.9668 68.8378C60.9668 68.8804 61.0009 68.8975 61.0265 68.8975C61.1202 68.8975 61.248 68.8804 61.3503 68.8804C61.4696 68.8804 61.6316 68.8975 61.7424 68.8975C61.7594 68.8975 61.8191 68.8975 61.8191 68.8123C61.8191 68.7611 61.7679 68.7611 61.7509 68.7611C61.7253 68.7526 61.589 68.7526 61.589 68.6503C61.589 68.5992 61.623 68.5395 61.6401 68.5054L61.9469 68.0282H63.0378L63.123 68.6588C63.1145 68.7015 63.089 68.7611 62.8674 68.7611C62.8162 68.7611 62.7651 68.7611 62.7651 68.8463C62.7651 68.8634 62.7736 68.8975 62.8248 68.8975C62.9355 68.8975 63.2083 68.8804 63.3191 68.8804C63.3873 68.8804 63.4725 68.889 63.5407 68.889C63.6088 68.889 63.6855 68.8975 63.7537 68.8975C63.8049 68.8975 63.8304 68.8634 63.8304 68.8208C63.8304 68.7611 63.7878 68.7611 63.7282 68.7611C63.5066 68.7611 63.498 68.727 63.4895 68.6418L63.1486 66.2895C63.1401 66.2128 63.1316 66.1873 63.0634 66.1873C62.9867 66.1873 62.9696 66.2213 62.9355 66.2725L61.5378 68.4373ZM62.0407 67.8918L62.8333 66.6475L63.0123 67.8918H62.0407Z" fill="#4B4B4B"/>
<path d="M66.0866 69.3864C66.0866 69.3693 66.0866 69.3608 65.9929 69.267C65.3196 68.5852 65.1406 67.554 65.1406 66.7187C65.1406 65.7727 65.3451 64.8267 66.0184 64.1534C66.0866 64.0852 66.0866 64.0767 66.0866 64.0597C66.0866 64.017 66.0696 64 66.0355 64C65.9758 64 65.49 64.375 65.1662 65.0653C64.8934 65.6619 64.8253 66.267 64.8253 66.7187C64.8253 67.1449 64.8849 67.8011 65.1832 68.4233C65.5156 69.0881 65.9758 69.446 66.0355 69.446C66.0696 69.446 66.0866 69.429 66.0866 69.3864Z" fill="#4B4B4B"/>
<path d="M68.8708 65.3635C68.8708 65.0056 68.7771 64.2471 68.2231 64.2471C67.4646 64.2471 66.6293 65.7812 66.6293 67.0255C66.6293 67.5368 66.7827 68.142 67.2771 68.142C68.0441 68.142 68.8708 66.5823 68.8708 65.3635ZM67.2004 66.105C67.2941 65.7641 67.4049 65.3295 67.6265 64.9374C67.7714 64.6732 67.9674 64.3664 68.2146 64.3664C68.4788 64.3664 68.5129 64.7158 68.5129 65.0226C68.5129 65.2954 68.4702 65.5681 68.3424 66.105H67.2004ZM68.2913 66.284C68.2316 66.5312 68.1208 66.9914 67.9077 67.3834C67.7202 67.7584 67.5157 68.0226 67.2771 68.0226C67.0981 68.0226 66.9873 67.8607 66.9873 67.3579C66.9873 67.1278 67.0214 66.8124 67.1577 66.284H68.2913Z" fill="#4B4B4B"/>
<path d="M70.1877 66.5196C70.1877 66.46 70.1366 66.3748 70.0343 66.3748C69.9321 66.3748 69.8213 66.477 69.8213 66.5878C69.8213 66.6475 69.8639 66.7327 69.9747 66.7327C70.0769 66.7327 70.1877 66.6219 70.1877 66.5196ZM69.4122 68.4543C69.3951 68.5054 69.3781 68.5481 69.3781 68.6162C69.3781 68.7952 69.523 68.9316 69.736 68.9316C70.111 68.9316 70.2815 68.4117 70.2815 68.352C70.2815 68.3009 70.2304 68.3009 70.2218 68.3009C70.1707 68.3009 70.1622 68.3265 70.1451 68.3691C70.0599 68.6759 69.898 68.8293 69.7446 68.8293C69.6679 68.8293 69.6508 68.7782 69.6508 68.6929C69.6508 68.6077 69.6764 68.5395 69.7105 68.4543C69.7531 68.352 69.7957 68.2498 69.8298 68.1475C69.8639 68.0537 70.0088 67.7128 70.0173 67.6617C70.0343 67.6276 70.0429 67.585 70.0429 67.5424C70.0429 67.3634 69.8894 67.2185 69.6849 67.2185C69.3014 67.2185 69.1309 67.7384 69.1309 67.8066C69.1309 67.8492 69.1821 67.8492 69.1991 67.8492C69.2502 67.8492 69.2502 67.8321 69.2673 67.7895C69.361 67.4657 69.5315 67.3293 69.6679 67.3293C69.7275 67.3293 69.7616 67.3549 69.7616 67.4571C69.7616 67.5509 69.7446 67.602 69.6508 67.8407L69.4122 68.4543Z" fill="#4B4B4B"/>
<path d="M72.3317 66.7187C72.3317 66.3011 72.272 65.6449 71.9737 65.0227C71.6499 64.358 71.1811 64 71.13 64C71.0959 64 71.0703 64.0256 71.0703 64.0597C71.0703 64.0767 71.0703 64.0852 71.1726 64.1875C71.7095 64.7244 72.0163 65.5852 72.0163 66.7187C72.0163 67.6562 71.8203 68.6108 71.147 69.2926C71.0703 69.3608 71.0703 69.3693 71.0703 69.3864C71.0703 69.4205 71.0959 69.446 71.13 69.446C71.1811 69.446 71.6754 69.071 71.9908 68.3807C72.272 67.7841 72.3317 67.179 72.3317 66.7187Z" fill="#4B4B4B"/>
</g>
<rect x="36.5" y="74.5" width="115" height="68" stroke="#A2A9B0" stroke-dasharray="3 3"/>
<path d="M115.396 114.455C115.475 114.159 115.6 113.943 116.18 113.921C116.214 113.921 116.305 113.909 116.305 113.773C116.305 113.773 116.305 113.693 116.214 113.693C115.975 113.693 115.714 113.716 115.475 113.716C115.225 113.716 114.953 113.693 114.714 113.693C114.668 113.693 114.589 113.693 114.589 113.841C114.589 113.921 114.657 113.921 114.714 113.921C115.134 113.932 115.214 114.08 115.214 114.239C115.214 114.262 115.191 114.375 115.191 114.387L114.532 116.977C114.293 117.955 113.453 118.58 112.725 118.58C112.237 118.58 111.85 118.262 111.85 117.637C111.85 117.625 111.85 117.398 111.93 117.08L112.623 114.25C112.691 113.989 112.703 113.921 113.237 113.921C113.43 113.921 113.487 113.921 113.487 113.773C113.487 113.693 113.407 113.693 113.384 113.693C113.18 113.693 112.657 113.716 112.453 113.716C112.248 113.716 111.725 113.693 111.521 113.693C111.464 113.693 111.384 113.693 111.384 113.841C111.384 113.921 111.441 113.921 111.589 113.921C111.6 113.921 111.737 113.921 111.862 113.932C111.987 113.955 112.055 113.955 112.055 114.057C112.055 114.091 111.975 114.398 111.93 114.568L111.771 115.205C111.703 115.489 111.362 116.852 111.328 117C111.282 117.193 111.282 117.307 111.282 117.421C111.282 118.296 111.941 118.807 112.703 118.807C113.612 118.807 114.509 117.989 114.748 117.034L115.396 114.455Z" fill="white"/>
<path d="M119.367 116.871C119.549 116.598 119.719 116.473 119.992 116.451C120.049 116.451 120.105 116.451 120.105 116.348C120.105 116.326 120.094 116.269 120.037 116.269C119.912 116.269 119.753 116.292 119.628 116.292C119.469 116.292 119.253 116.269 119.105 116.269C119.06 116.269 119.003 116.292 119.003 116.382C119.003 116.451 119.071 116.451 119.094 116.451C119.253 116.462 119.299 116.53 119.299 116.598C119.299 116.678 119.264 116.723 119.208 116.803L117.549 119.257L117.083 116.667C117.071 116.621 117.071 116.61 117.071 116.587C117.071 116.451 117.355 116.451 117.389 116.451C117.48 116.451 117.549 116.451 117.549 116.348C117.549 116.337 117.537 116.269 117.458 116.269C117.31 116.269 116.958 116.292 116.81 116.292C116.685 116.292 116.367 116.269 116.242 116.269C116.196 116.269 116.139 116.292 116.139 116.382C116.139 116.451 116.208 116.451 116.264 116.451C116.549 116.451 116.56 116.485 116.583 116.621L117.139 119.701C117.151 119.803 117.162 119.837 117.253 119.837C117.355 119.837 117.378 119.803 117.435 119.723L119.367 116.871Z" fill="white"/>
<path d="M123.166 120.387C123.166 120.364 123.166 120.353 123.041 120.228C122.144 119.318 121.905 117.943 121.905 116.83C121.905 115.568 122.178 114.307 123.076 113.409C123.166 113.318 123.166 113.307 123.166 113.284C123.166 113.228 123.144 113.205 123.098 113.205C123.019 113.205 122.371 113.705 121.939 114.625C121.576 115.421 121.485 116.228 121.485 116.83C121.485 117.398 121.564 118.273 121.962 119.103C122.405 119.989 123.019 120.466 123.098 120.466C123.144 120.466 123.166 120.443 123.166 120.387Z" fill="white"/>
<path d="M126.879 115.023C126.879 114.546 126.754 113.534 126.015 113.534C125.004 113.534 123.89 115.58 123.89 117.239C123.89 117.921 124.095 118.728 124.754 118.728C125.776 118.728 126.879 116.648 126.879 115.023ZM124.651 116.012C124.776 115.557 124.924 114.978 125.22 114.455C125.413 114.103 125.674 113.694 126.004 113.694C126.356 113.694 126.401 114.159 126.401 114.569C126.401 114.932 126.345 115.296 126.174 116.012H124.651ZM126.106 116.25C126.026 116.58 125.879 117.194 125.595 117.716C125.345 118.216 125.072 118.569 124.754 118.569C124.515 118.569 124.367 118.353 124.367 117.682C124.367 117.375 124.413 116.955 124.595 116.25H126.106Z" fill="white"/>
<path d="M128.635 116.564C128.635 116.485 128.566 116.371 128.43 116.371C128.294 116.371 128.146 116.507 128.146 116.655C128.146 116.735 128.203 116.848 128.351 116.848C128.487 116.848 128.635 116.701 128.635 116.564ZM127.601 119.144C127.578 119.212 127.555 119.269 127.555 119.36C127.555 119.598 127.748 119.78 128.032 119.78C128.532 119.78 128.76 119.087 128.76 119.007C128.76 118.939 128.691 118.939 128.68 118.939C128.612 118.939 128.601 118.973 128.578 119.03C128.464 119.439 128.248 119.644 128.044 119.644C127.941 119.644 127.919 119.576 127.919 119.462C127.919 119.348 127.953 119.257 127.998 119.144C128.055 119.007 128.112 118.871 128.157 118.735C128.203 118.61 128.396 118.155 128.407 118.087C128.43 118.042 128.441 117.985 128.441 117.928C128.441 117.689 128.237 117.496 127.964 117.496C127.453 117.496 127.226 118.189 127.226 118.28C127.226 118.337 127.294 118.337 127.316 118.337C127.385 118.337 127.385 118.314 127.407 118.257C127.532 117.826 127.76 117.644 127.941 117.644C128.021 117.644 128.066 117.678 128.066 117.814C128.066 117.939 128.044 118.007 127.919 118.326L127.601 119.144Z" fill="white"/>
<path d="M131.493 116.83C131.493 116.273 131.414 115.398 131.016 114.568C130.584 113.682 129.959 113.205 129.891 113.205C129.845 113.205 129.811 113.239 129.811 113.284C129.811 113.307 129.811 113.318 129.948 113.455C130.664 114.171 131.073 115.318 131.073 116.83C131.073 118.08 130.811 119.353 129.914 120.262C129.811 120.353 129.811 120.364 129.811 120.387C129.811 120.432 129.845 120.466 129.891 120.466C129.959 120.466 130.618 119.966 131.039 119.046C131.414 118.25 131.493 117.443 131.493 116.83Z" fill="white"/>
<path d="M64.8353 114.6C64.9228 114.275 65.0603 114.038 65.6978 114.013C65.7353 114.013 65.8353 114 65.8353 113.85C65.8353 113.85 65.8353 113.763 65.7353 113.763C65.4728 113.763 65.1853 113.788 64.9228 113.788C64.6478 113.788 64.3478 113.763 64.0853 113.763C64.0353 113.763 63.9478 113.763 63.9478 113.925C63.9478 114.013 64.0228 114.013 64.0853 114.013C64.5478 114.025 64.6353 114.188 64.6353 114.363C64.6353 114.388 64.6103 114.513 64.6103 114.525L63.8853 117.375C63.6228 118.45 62.6978 119.138 61.8978 119.138C61.3603 119.138 60.9353 118.788 60.9353 118.1C60.9353 118.088 60.9353 117.838 61.0228 117.488L61.7853 114.375C61.8603 114.088 61.8728 114.013 62.4603 114.013C62.6728 114.013 62.7353 114.013 62.7353 113.85C62.7353 113.763 62.6478 113.763 62.6228 113.763C62.3978 113.763 61.8228 113.788 61.5978 113.788C61.3728 113.788 60.7978 113.763 60.5728 113.763C60.5103 113.763 60.4228 113.763 60.4228 113.925C60.4228 114.013 60.4853 114.013 60.6478 114.013C60.6603 114.013 60.8103 114.013 60.9478 114.025C61.0853 114.05 61.1603 114.05 61.1603 114.163C61.1603 114.2 61.0728 114.538 61.0228 114.725L60.8478 115.425C60.7728 115.738 60.3978 117.238 60.3603 117.4C60.3103 117.613 60.3103 117.738 60.3103 117.863C60.3103 118.825 61.0353 119.388 61.8728 119.388C62.8728 119.388 63.8603 118.488 64.1228 117.438L64.8353 114.6Z" fill="white"/>
<path d="M67.5159 116.995C67.5534 116.833 67.5659 116.82 67.6909 116.795H68.0534C68.5659 116.795 69.2034 116.795 69.2034 117.37C69.2034 117.608 69.1034 117.958 68.8409 118.158C68.6159 118.333 68.2659 118.42 67.8784 118.42H67.1659L67.5159 116.995ZM68.5284 118.508C69.1909 118.358 69.7784 117.958 69.7784 117.458C69.7784 116.983 69.2159 116.595 68.4034 116.595H66.6909C66.5909 116.595 66.5159 116.595 66.5159 116.72C66.5159 116.795 66.5784 116.795 66.6909 116.795C66.7034 116.795 66.8034 116.795 66.9034 116.808C67.0284 116.82 67.0284 116.833 67.0284 116.895C67.0284 116.895 67.0284 116.933 67.0159 117.008L66.2659 119.97C66.2284 120.158 66.2159 120.208 65.7784 120.208C65.6784 120.208 65.6159 120.208 65.6159 120.32C65.6159 120.383 65.6534 120.408 65.7034 120.408C65.8034 120.408 65.9409 120.395 66.0409 120.395C66.1534 120.395 66.3159 120.383 66.4159 120.383C66.5284 120.383 66.6534 120.395 66.7659 120.395C66.8909 120.395 67.0284 120.408 67.1409 120.408C67.1784 120.408 67.2659 120.408 67.2659 120.295C67.2659 120.208 67.2034 120.208 67.0784 120.208C66.9909 120.208 66.9659 120.208 66.8659 120.195C66.7409 120.183 66.7409 120.17 66.7409 120.108C66.7409 120.108 66.7409 120.07 66.7659 119.995L67.1159 118.583H67.8784C68.3534 118.583 68.5659 118.82 68.5659 119.083C68.5659 119.158 68.5159 119.345 68.4784 119.47C68.4159 119.733 68.3909 119.808 68.3909 119.908C68.3909 120.345 68.8034 120.52 69.2159 120.52C69.7284 120.52 69.9534 119.97 69.9534 119.87C69.9534 119.858 69.9409 119.795 69.8534 119.795C69.7784 119.795 69.7659 119.833 69.7534 119.895C69.6784 120.133 69.4659 120.358 69.2409 120.358C69.0909 120.358 68.9784 120.308 68.9784 119.995C68.9784 119.858 69.0159 119.57 69.0409 119.42C69.0659 119.27 69.0659 119.22 69.0659 119.158C69.0659 119.095 69.0659 118.908 68.9034 118.745C68.8034 118.633 68.6534 118.558 68.5284 118.508Z" fill="white"/>
<rect x="162" y="85" width="8" height="8" fill="#121619"/>
<path d="M169.5 86H168V86.5H168.845L168 87.5V88H169.5V87.5H168.655L169.5 86.5V86Z" fill="white"/>
<path d="M167 89.405L167.52 88.5L167.088 88.25L166.543 89.1925C165.623 88.8516 164.594 88.982 163.789 89.5415C162.983 90.101 162.502 91.0191 162.5 92H163C163.001 91.1968 163.387 90.4429 164.039 89.9734C164.69 89.504 165.528 89.3762 166.29 89.63L165.5 91C165.274 90.9998 165.075 91.1516 165.017 91.3702C164.958 91.5888 165.053 91.8196 165.249 91.9329C165.445 92.0461 165.693 92.0136 165.853 91.8536C166.013 91.6936 166.046 91.446 165.932 91.25L166.75 89.8375C167.523 90.2836 167.999 91.1077 168 92H168.5C168.499 90.9293 167.927 89.9403 167 89.405Z" fill="white"/>
<rect x="162" y="95" width="8" height="8" fill="#121619"/>
<path d="M169.5 96H168V96.5H168.845L168 97.5V98H169.5V97.5H168.655L169.5 96.5V96Z" fill="white"/>
<path d="M167 99.405L167.52 98.5L167.088 98.25L166.543 99.1925C165.623 98.8516 164.594 98.982 163.789 99.5415C162.983 100.101 162.502 101.019 162.5 102H163C163.001 101.197 163.387 100.443 164.039 99.9734C164.69 99.504 165.528 99.3762 166.29 99.63L165.5 101C165.274 101 165.075 101.152 165.017 101.37C164.958 101.589 165.053 101.82 165.249 101.933C165.445 102.046 165.693 102.014 165.853 101.854C166.013 101.694 166.046 101.446 165.932 101.25L166.75 99.8375C167.523 100.284 167.999 101.108 168 102H168.5C168.499 100.929 167.927 99.9403 167 99.405Z" fill="white"/>
<rect x="162" y="85" width="8" height="8" fill="#121619"/>
<path d="M169.5 86H168V86.5H168.845L168 87.5V88H169.5V87.5H168.655L169.5 86.5V86Z" fill="white"/>
<path d="M167 89.405L167.52 88.5L167.088 88.25L166.543 89.1925C165.623 88.8516 164.594 88.982 163.789 89.5415C162.983 90.101 162.502 91.0191 162.5 92H163C163.001 91.1968 163.387 90.4429 164.039 89.9734C164.69 89.504 165.528 89.3762 166.29 89.63L165.5 91C165.274 90.9998 165.075 91.1516 165.017 91.3702C164.958 91.5888 165.053 91.8196 165.249 91.9329C165.445 92.0461 165.693 92.0136 165.853 91.8536C166.013 91.6936 166.046 91.446 165.932 91.25L166.75 89.8375C167.523 90.2836 167.999 91.1077 168 92H168.5C168.499 90.9293 167.927 89.9403 167 89.405Z" fill="white"/>
<rect x="162" y="105" width="8" height="8" fill="#121619"/>
<path d="M169.5 106H168V106.5H168.845L168 107.5V108H169.5V107.5H168.655L169.5 106.5V106Z" fill="white"/>
<path d="M167 109.405L167.52 108.5L167.088 108.25L166.543 109.192C165.623 108.852 164.594 108.982 163.789 109.541C162.983 110.101 162.502 111.019 162.5 112H163C163.001 111.197 163.387 110.443 164.039 109.973C164.69 109.504 165.528 109.376 166.29 109.63L165.5 111C165.274 111 165.075 111.152 165.017 111.37C164.958 111.589 165.053 111.82 165.249 111.933C165.445 112.046 165.693 112.014 165.853 111.854C166.013 111.694 166.046 111.446 165.932 111.25L166.75 109.837C167.523 110.284 167.999 111.108 168 112H168.5C168.499 110.929 167.927 109.94 167 109.405Z" fill="white"/>
<rect x="162" y="115" width="8" height="8" fill="#121619"/>
<path d="M169.5 116H168V116.5H168.845L168 117.5V118H169.5V117.5H168.655L169.5 116.5V116Z" fill="white"/>
<path d="M167 119.405L167.52 118.5L167.088 118.25L166.543 119.192C165.623 118.852 164.594 118.982 163.789 119.541C162.983 120.101 162.502 121.019 162.5 122H163C163.001 121.197 163.387 120.443 164.039 119.973C164.69 119.504 165.528 119.376 166.29 119.63L165.5 121C165.274 121 165.075 121.152 165.017 121.37C164.958 121.589 165.053 121.82 165.249 121.933C165.445 122.046 165.693 122.014 165.853 121.854C166.013 121.694 166.046 121.446 165.932 121.25L166.75 119.837C167.523 120.284 167.999 121.108 168 122H168.5C168.499 120.929 167.927 119.94 167 119.405Z" fill="white"/>
<rect x="162" y="125" width="8" height="8" fill="#121619"/>
<path d="M169.5 126H168V126.5H168.845L168 127.5V128H169.5V127.5H168.655L169.5 126.5V126Z" fill="white"/>
<path d="M167 129.405L167.52 128.5L167.088 128.25L166.543 129.192C165.623 128.852 164.594 128.982 163.789 129.541C162.983 130.101 162.502 131.019 162.5 132H163C163.001 131.197 163.387 130.443 164.039 129.973C164.69 129.504 165.528 129.376 166.29 129.63L165.5 131C165.274 131 165.075 131.152 165.017 131.37C164.958 131.589 165.053 131.82 165.249 131.933C165.445 132.046 165.693 132.014 165.853 131.854C166.013 131.694 166.046 131.446 165.932 131.25L166.75 129.837C167.523 130.284 167.999 131.108 168 132H168.5C168.499 130.929 167.927 129.94 167 129.405Z" fill="white"/>
<defs>
<clipPath id="clip0_255_694">
<rect width="16.7273" height="8" fill="white" transform="translate(225 112)"/>
</clipPath>
<clipPath id="clip1_255_694">
<rect width="5" height="5" fill="white" transform="translate(11 86.5)"/>
</clipPath>
<clipPath id="clip2_255_694">
<rect width="5" height="5" fill="white" transform="translate(11 126.5)"/>
</clipPath>
<clipPath id="clip3_255_694">
<rect width="5" height="1.25" fill="white" transform="matrix(0 -1 1 0 13 101)"/>
</clipPath>
<clipPath id="clip4_255_694">
<rect width="5" height="1.25" fill="white" transform="matrix(0 -1 1 0 13 121)"/>
</clipPath>
<clipPath id="clip5_255_694">
<rect width="15.2727" height="6" fill="white" transform="translate(57 64)"/>
</clipPath>
</defs>
</svg>
