<svg width="650" height="425" viewBox="0 0 650 425" fill="none" xmlns="http://www.w3.org/2000/svg">
<rect width="650" height="425" fill="white"/>
<path d="M42.7 36.96V38.42H44.34C46.3 38.42 47.34 39.36 47.34 41V41.16C47.34 42.8 46.3 43.74 44.34 43.74C42.64 43.74 41.82 43 41.1 41.9L39.84 42.86C40.7 44.06 41.94 45.24 44.36 45.24C47.2 45.24 49.1 43.58 49.1 41.18C49.1 39.08 47.66 37.96 46.16 37.66V37.58C47.64 37.2 48.84 36.12 48.84 34.32C48.84 32.06 46.96 30.8 44.6 30.8C42.36 30.8 41.14 31.96 40.44 33.08L41.68 34.04C42.26 32.98 43.12 32.3 44.56 32.3C46.04 32.3 47.06 33.04 47.06 34.5V34.64C47.06 35.98 46.1 36.96 44.22 36.96H42.7ZM53.7122 45.24C54.5522 45.24 54.9322 44.76 54.9322 44.08V43.82C54.9322 43.14 54.5522 42.66 53.7122 42.66C52.8722 42.66 52.4922 43.14 52.4922 43.82V44.08C52.4922 44.76 52.8722 45.24 53.7122 45.24ZM71.548 45V43.52H64.708V38.68H71.148V37.2H64.708V32.52H71.548V31.04H63.028V45H71.548ZM78.6681 45L82.3081 34.68H80.7681L78.9281 39.8L77.8081 43.32H77.7081L76.5881 39.8L74.7881 34.68H73.1881L76.8081 45H78.6681ZM92.5961 45V43.6H91.4161V37.92C91.4161 35.74 89.9361 34.44 87.4561 34.44C85.5961 34.44 84.3561 35.36 83.7961 36.46L84.7561 37.36C85.3161 36.42 86.1361 35.82 87.3761 35.82C89.0161 35.82 89.8161 36.62 89.8161 38.08V39.1H87.7761C84.7761 39.1 83.3761 40.18 83.3761 42.12C83.3761 44.04 84.6561 45.24 86.8361 45.24C88.2761 45.24 89.3761 44.58 89.8161 43.32H89.9161C90.0361 44.28 90.5161 45 91.6961 45H92.5961ZM87.0961 43.88C85.8561 43.88 85.0561 43.3 85.0561 42.28V41.86C85.0561 40.86 85.8761 40.3 87.6961 40.3H89.8161V42C89.8161 43.06 88.6761 43.88 87.0961 43.88ZM97.9997 45V43.6H96.4797V30.2H94.8797V43.34C94.8797 44.3 95.4797 45 96.5797 45H97.9997ZM106.689 45H108.289V34.68H106.689V41.82C106.689 43.18 105.449 43.8 104.189 43.8C102.649 43.8 101.829 42.86 101.829 41.02V34.68H100.229V41.3C100.229 43.8 101.589 45.24 103.709 45.24C105.429 45.24 106.209 44.3 106.609 43.32H106.689V45ZM120.096 45V43.6H118.916V37.92C118.916 35.74 117.436 34.44 114.956 34.44C113.096 34.44 111.856 35.36 111.296 36.46L112.256 37.36C112.816 36.42 113.636 35.82 114.876 35.82C116.516 35.82 117.316 36.62 117.316 38.08V39.1H115.276C112.276 39.1 110.876 40.18 110.876 42.12C110.876 44.04 112.156 45.24 114.336 45.24C115.776 45.24 116.876 44.58 117.316 43.32H117.416C117.536 44.28 118.016 45 119.196 45H120.096ZM114.596 43.88C113.356 43.88 112.556 43.3 112.556 42.28V41.86C112.556 40.86 113.376 40.3 115.196 40.3H117.316V42C117.316 43.06 116.176 43.88 114.596 43.88ZM126.66 45V43.6H124.56V36.08H126.82V34.68H124.56V31.82H123.12V33.74C123.12 34.44 122.9 34.68 122.22 34.68H121.26V36.08H122.96V43.3C122.96 44.3 123.56 45 124.66 45H126.66ZM133.193 45.24C135.133 45.24 136.613 44.28 137.273 42.88L136.133 42.06C135.593 43.2 134.593 43.84 133.293 43.84C131.373 43.84 130.233 42.5 130.233 40.72V40.24H137.653V39.48C137.653 36.56 135.953 34.44 133.193 34.44C130.393 34.44 128.553 36.56 128.553 39.84C128.553 43.12 130.393 45.24 133.193 45.24ZM133.193 35.78C134.833 35.78 135.933 37 135.933 38.82V39.04H130.233V38.9C130.233 37.1 131.453 35.78 133.193 35.78ZM148.856 45.24C150.816 45.24 152.156 44.28 152.816 42.8L151.656 42.02C151.096 43.2 150.156 43.82 148.856 43.82C146.956 43.82 145.976 42.52 145.976 40.72V38.96C145.976 37.16 146.956 35.86 148.856 35.86C150.116 35.86 150.996 36.48 151.376 37.54L152.716 36.86C152.116 35.44 150.896 34.44 148.856 34.44C145.956 34.44 144.256 36.54 144.256 39.84C144.256 43.14 145.956 45.24 148.856 45.24ZM158.858 45.24C161.618 45.24 163.518 43.12 163.518 39.84C163.518 36.56 161.618 34.44 158.858 34.44C156.098 34.44 154.198 36.56 154.198 39.84C154.198 43.12 156.098 45.24 158.858 45.24ZM158.858 43.82C157.138 43.82 155.918 42.76 155.918 40.58V39.1C155.918 36.92 157.138 35.86 158.858 35.86C160.578 35.86 161.798 36.92 161.798 39.1V40.58C161.798 42.76 160.578 43.82 158.858 43.82ZM169.249 45.24C171.609 45.24 173.069 44.02 173.069 42.02C173.069 40.46 172.189 39.46 169.909 39.12L169.109 39C167.829 38.8 167.129 38.4 167.129 37.4C167.129 36.42 167.829 35.8 169.149 35.8C170.469 35.8 171.349 36.42 171.809 37.06L172.869 36.1C172.029 35.06 170.929 34.44 169.269 34.44C167.169 34.44 165.589 35.44 165.589 37.48C165.589 39.4 167.009 40.18 168.909 40.46L169.729 40.58C171.089 40.78 171.529 41.4 171.529 42.2C171.529 43.26 170.729 43.88 169.369 43.88C168.069 43.88 167.109 43.3 166.309 42.3L165.169 43.22C166.089 44.44 167.349 45.24 169.249 45.24ZM180.039 45V43.6H177.939V36.08H180.199V34.68H177.939V31.82H176.499V33.74C176.499 34.44 176.279 34.68 175.599 34.68H174.639V36.08H176.339V43.3C176.339 44.3 176.939 45 178.039 45H180.039ZM188.057 45H189.657V36.08H191.877V34.68H189.657V31.6H191.877V30.2H190.317C188.797 30.2 188.057 31.18 188.057 32.6V34.68H186.377V36.08H188.057V45ZM200.341 45H201.941V34.68H200.341V41.82C200.341 43.18 199.101 43.8 197.841 43.8C196.301 43.8 195.481 42.86 195.481 41.02V34.68H193.881V41.3C193.881 43.8 195.241 45.24 197.361 45.24C199.081 45.24 199.861 44.3 200.261 43.32H200.341V45ZM206.948 45V37.84C206.948 36.52 208.188 35.88 209.468 35.88C211.008 35.88 211.808 36.82 211.808 38.66V45H213.408V38.38C213.408 35.88 212.068 34.44 209.948 34.44C208.408 34.44 207.528 35.2 207.028 36.36H206.948V34.68H205.348V45H206.948ZM220.556 45.24C222.516 45.24 223.856 44.28 224.516 42.8L223.356 42.02C222.796 43.2 221.856 43.82 220.556 43.82C218.656 43.82 217.676 42.52 217.676 40.72V38.96C217.676 37.16 218.656 35.86 220.556 35.86C221.816 35.86 222.696 36.48 223.076 37.54L224.416 36.86C223.816 35.44 222.596 34.44 220.556 34.44C217.656 34.44 215.956 36.54 215.956 39.84C215.956 43.14 217.656 45.24 220.556 45.24ZM231.054 45V43.6H228.954V36.08H231.214V34.68H228.954V31.82H227.514V33.74C227.514 34.44 227.294 34.68 226.614 34.68H225.654V36.08H227.354V43.3C227.354 44.3 227.954 45 229.054 45H231.054ZM234.586 32.26C235.266 32.26 235.566 31.9 235.566 31.36V31.1C235.566 30.56 235.266 30.2 234.586 30.2C233.906 30.2 233.606 30.56 233.606 31.1V31.36C233.606 31.9 233.906 32.26 234.586 32.26ZM233.786 45H235.386V34.68H233.786V45ZM242.686 45.24C245.446 45.24 247.346 43.12 247.346 39.84C247.346 36.56 245.446 34.44 242.686 34.44C239.926 34.44 238.026 36.56 238.026 39.84C238.026 43.12 239.926 45.24 242.686 45.24ZM242.686 43.82C240.966 43.82 239.746 42.76 239.746 40.58V39.1C239.746 36.92 240.966 35.86 242.686 35.86C244.406 35.86 245.626 36.92 245.626 39.1V40.58C245.626 42.76 244.406 43.82 242.686 43.82ZM251.577 45V37.84C251.577 36.52 252.817 35.88 254.097 35.88C255.637 35.88 256.437 36.82 256.437 38.66V45H258.037V38.38C258.037 35.88 256.697 34.44 254.577 34.44C253.037 34.44 252.157 35.2 251.657 36.36H251.577V34.68H249.977V45H251.577Z" fill="#262626"/>
<rect x="38" y="59" width="578" height="344" fill="#0043CE"/>
<rect x="73" y="99" width="240" height="124" fill="#262626"/>
<path d="M96.9184 132.216C99.0064 132.216 100.536 131.118 101.328 129.354L100.122 128.598C99.6184 129.966 98.5204 130.866 96.9184 130.866C94.7584 130.866 93.4804 129.3 93.4804 126.726V124.854C93.4804 122.28 94.7584 120.57 96.9184 120.57C98.4664 120.57 99.5104 121.416 100.014 122.712L101.238 121.974C100.446 120.228 99.0064 119.22 96.9184 119.22C93.7504 119.22 91.8604 121.596 91.8604 125.79C91.8604 129.984 93.7504 132.216 96.9184 132.216ZM107.036 132.216C109.52 132.216 111.23 130.308 111.23 127.356C111.23 124.404 109.52 122.496 107.036 122.496C104.552 122.496 102.842 124.404 102.842 127.356C102.842 130.308 104.552 132.216 107.036 132.216ZM107.036 130.938C105.488 130.938 104.39 129.984 104.39 128.022V126.69C104.39 124.728 105.488 123.774 107.036 123.774C108.584 123.774 109.682 124.728 109.682 126.69V128.022C109.682 129.984 108.584 130.938 107.036 130.938ZM116.388 132.216C118.512 132.216 119.826 131.118 119.826 129.318C119.826 127.914 119.034 127.014 116.982 126.708L116.262 126.6C115.11 126.42 114.48 126.06 114.48 125.16C114.48 124.278 115.11 123.72 116.298 123.72C117.486 123.72 118.278 124.278 118.692 124.854L119.646 123.99C118.89 123.054 117.9 122.496 116.406 122.496C114.516 122.496 113.094 123.396 113.094 125.232C113.094 126.96 114.372 127.662 116.082 127.914L116.82 128.022C118.044 128.202 118.44 128.76 118.44 129.48C118.44 130.434 117.72 130.992 116.496 130.992C115.326 130.992 114.462 130.47 113.742 129.57L112.716 130.398C113.544 131.496 114.678 132.216 116.388 132.216ZM126.099 132V130.74H124.209V123.972H126.243V122.712H124.209V120.138H122.913V121.866C122.913 122.496 122.715 122.712 122.103 122.712H121.239V123.972H122.769V130.47C122.769 131.37 123.309 132 124.299 132H126.099ZM134.467 132V126.312H139.921V124.98H134.467V120.768H140.443V119.436H132.955V132H134.467ZM148.133 132H149.573V122.712H148.133V129.138C148.133 130.362 147.017 130.92 145.883 130.92C144.497 130.92 143.759 130.074 143.759 128.418V122.712H142.319V128.67C142.319 130.92 143.543 132.216 145.451 132.216C146.999 132.216 147.701 131.37 148.061 130.488H148.133V132ZM154.079 132V125.556C154.079 124.368 155.195 123.792 156.347 123.792C157.733 123.792 158.453 124.638 158.453 126.294V132H159.893V126.042C159.893 123.792 158.687 122.496 156.779 122.496C155.393 122.496 154.601 123.18 154.151 124.224H154.079V122.712H152.639V132H154.079ZM166.326 132.216C168.09 132.216 169.296 131.352 169.89 130.02L168.846 129.318C168.342 130.38 167.496 130.938 166.326 130.938C164.616 130.938 163.734 129.768 163.734 128.148V126.564C163.734 124.944 164.616 123.774 166.326 123.774C167.46 123.774 168.252 124.332 168.594 125.286L169.8 124.674C169.26 123.396 168.162 122.496 166.326 122.496C163.716 122.496 162.186 124.386 162.186 127.356C162.186 130.326 163.716 132.216 166.326 132.216ZM175.775 132V130.74H173.885V123.972H175.919V122.712H173.885V120.138H172.589V121.866C172.589 122.496 172.391 122.712 171.779 122.712H170.915V123.972H172.445V130.47C172.445 131.37 172.985 132 173.975 132H175.775ZM178.953 120.534C179.565 120.534 179.835 120.21 179.835 119.724V119.49C179.835 119.004 179.565 118.68 178.953 118.68C178.341 118.68 178.071 119.004 178.071 119.49V119.724C178.071 120.21 178.341 120.534 178.953 120.534ZM178.233 132H179.673V122.712H178.233V132ZM186.243 132.216C188.727 132.216 190.437 130.308 190.437 127.356C190.437 124.404 188.727 122.496 186.243 122.496C183.759 122.496 182.049 124.404 182.049 127.356C182.049 130.308 183.759 132.216 186.243 132.216ZM186.243 130.938C184.695 130.938 183.597 129.984 183.597 128.022V126.69C183.597 124.728 184.695 123.774 186.243 123.774C187.791 123.774 188.889 124.728 188.889 126.69V128.022C188.889 129.984 187.791 130.938 186.243 130.938ZM194.245 132V125.556C194.245 124.368 195.361 123.792 196.513 123.792C197.899 123.792 198.619 124.638 198.619 126.294V132H200.059V126.042C200.059 123.792 198.853 122.496 196.945 122.496C195.559 122.496 194.767 123.18 194.317 124.224H194.245V122.712H192.805V132H194.245ZM205.826 132.216C207.95 132.216 209.264 131.118 209.264 129.318C209.264 127.914 208.472 127.014 206.42 126.708L205.7 126.6C204.548 126.42 203.918 126.06 203.918 125.16C203.918 124.278 204.548 123.72 205.736 123.72C206.924 123.72 207.716 124.278 208.13 124.854L209.084 123.99C208.328 123.054 207.338 122.496 205.844 122.496C203.954 122.496 202.532 123.396 202.532 125.232C202.532 126.96 203.81 127.662 205.52 127.914L206.258 128.022C207.482 128.202 207.878 128.76 207.878 129.48C207.878 130.434 207.158 130.992 205.934 130.992C204.764 130.992 203.9 130.47 203.18 129.57L202.154 130.398C202.982 131.496 204.116 132.216 205.826 132.216Z" fill="white"/>
<rect x="340" y="99" width="240" height="124" fill="#262626"/>
<path d="M361.002 132V126.636H364.494C366.744 126.636 368.004 125.25 368.004 123.036C368.004 120.822 366.744 119.436 364.494 119.436H359.49V132H361.002ZM361.002 120.768H364.494C365.682 120.768 366.384 121.416 366.384 122.568V123.504C366.384 124.656 365.682 125.304 364.494 125.304H361.002V120.768ZM371.527 132V125.7C371.527 124.818 372.463 124.152 374.011 124.152H374.857V122.712H374.299C372.787 122.712 371.941 123.54 371.617 124.422H371.527V122.712H370.087V132H371.527ZM377.416 120.534C378.028 120.534 378.298 120.21 378.298 119.724V119.49C378.298 119.004 378.028 118.68 377.416 118.68C376.804 118.68 376.534 119.004 376.534 119.49V119.724C376.534 120.21 376.804 120.534 377.416 120.534ZM376.696 132H378.136V122.712H376.696V132ZM382.636 132V125.556C382.636 124.368 383.716 123.792 384.85 123.792C386.218 123.792 386.848 124.638 386.848 126.294V132H388.288V125.556C388.288 124.368 389.332 123.792 390.466 123.792C391.87 123.792 392.5 124.656 392.5 126.294V132H393.94V126.042C393.94 123.792 392.806 122.496 390.916 122.496C389.332 122.496 388.432 123.378 388.09 124.386H388.054C387.55 123.054 386.434 122.496 385.21 122.496C383.77 122.496 383.122 123.27 382.708 124.224H382.636V122.712H381.196V132H382.636ZM397.631 120.534C398.243 120.534 398.513 120.21 398.513 119.724V119.49C398.513 119.004 398.243 118.68 397.631 118.68C397.019 118.68 396.749 119.004 396.749 119.49V119.724C396.749 120.21 397.019 120.534 397.631 120.534ZM396.911 132H398.351V122.712H396.911V132ZM405.263 132V130.74H403.373V123.972H405.407V122.712H403.373V120.138H402.077V121.866C402.077 122.496 401.879 122.712 401.267 122.712H400.403V123.972H401.933V130.47C401.933 131.37 402.473 132 403.463 132H405.263ZM408.441 120.534C409.053 120.534 409.323 120.21 409.323 119.724V119.49C409.323 119.004 409.053 118.68 408.441 118.68C407.829 118.68 407.559 119.004 407.559 119.49V119.724C407.559 120.21 407.829 120.534 408.441 120.534ZM407.721 132H409.161V122.712H407.721V132ZM415.947 132L419.223 122.712H417.837L416.181 127.32L415.173 130.488H415.083L414.075 127.32L412.455 122.712H411.015L414.273 132H415.947ZM424.432 132.216C426.178 132.216 427.51 131.352 428.104 130.092L427.078 129.354C426.592 130.38 425.692 130.956 424.522 130.956C422.794 130.956 421.768 129.75 421.768 128.148V127.716H428.446V127.032C428.446 124.404 426.916 122.496 424.432 122.496C421.912 122.496 420.256 124.404 420.256 127.356C420.256 130.308 421.912 132.216 424.432 132.216ZM424.432 123.702C425.908 123.702 426.898 124.8 426.898 126.438V126.636H421.768V126.51C421.768 124.89 422.866 123.702 424.432 123.702ZM433.609 132.216C435.733 132.216 437.047 131.118 437.047 129.318C437.047 127.914 436.255 127.014 434.203 126.708L433.483 126.6C432.331 126.42 431.701 126.06 431.701 125.16C431.701 124.278 432.331 123.72 433.519 123.72C434.707 123.72 435.499 124.278 435.913 124.854L436.867 123.99C436.111 123.054 435.121 122.496 433.627 122.496C431.737 122.496 430.315 123.396 430.315 125.232C430.315 126.96 431.593 127.662 433.303 127.914L434.041 128.022C435.265 128.202 435.661 128.76 435.661 129.48C435.661 130.434 434.941 130.992 433.717 130.992C432.547 130.992 431.683 130.47 430.963 129.57L429.937 130.398C430.765 131.496 431.899 132.216 433.609 132.216ZM440.689 132.216C441.445 132.216 441.787 131.784 441.787 131.172V130.938C441.787 130.326 441.445 129.894 440.689 129.894C439.933 129.894 439.591 130.326 439.591 130.938V131.172C439.591 131.784 439.933 132.216 440.689 132.216ZM440.689 124.818C441.445 124.818 441.787 124.386 441.787 123.774V123.54C441.787 122.928 441.445 122.496 440.689 122.496C439.933 122.496 439.591 122.928 439.591 123.54V123.774C439.591 124.386 439.933 124.818 440.689 124.818ZM452.772 132.216C455.472 132.216 457.092 130.74 457.092 128.436C457.092 126.564 456.03 125.484 453.582 124.926L452.556 124.692C450.972 124.332 450.198 123.792 450.198 122.604C450.198 121.254 451.188 120.552 452.79 120.552C454.248 120.552 455.202 121.146 455.886 122.1L457.02 121.272C456.084 119.94 454.752 119.22 452.862 119.22C450.396 119.22 448.704 120.426 448.704 122.658C448.704 124.584 449.964 125.592 452.25 126.114L453.276 126.348C454.932 126.726 455.598 127.32 455.598 128.508C455.598 129.948 454.626 130.884 452.826 130.884C451.368 130.884 450.324 130.254 449.442 129.084L448.326 130.02C449.334 131.388 450.756 132.216 452.772 132.216ZM467.119 132V130.74H466.057V125.628C466.057 123.666 464.725 122.496 462.493 122.496C460.819 122.496 459.703 123.324 459.199 124.314L460.063 125.124C460.567 124.278 461.305 123.738 462.421 123.738C463.897 123.738 464.617 124.458 464.617 125.772V126.69H462.781C460.081 126.69 458.821 127.662 458.821 129.408C458.821 131.136 459.973 132.216 461.935 132.216C463.231 132.216 464.221 131.622 464.617 130.488H464.707C464.815 131.352 465.247 132 466.309 132H467.119ZM462.169 130.992C461.053 130.992 460.333 130.47 460.333 129.552V129.174C460.333 128.274 461.071 127.77 462.709 127.77H464.617V129.3C464.617 130.254 463.591 130.992 462.169 130.992ZM470.615 132V125.556C470.615 124.368 471.695 123.792 472.829 123.792C474.197 123.792 474.827 124.638 474.827 126.294V132H476.267V125.556C476.267 124.368 477.311 123.792 478.445 123.792C479.849 123.792 480.479 124.656 480.479 126.294V132H481.919V126.042C481.919 123.792 480.785 122.496 478.895 122.496C477.311 122.496 476.411 123.378 476.069 124.386H476.033C475.529 123.054 474.413 122.496 473.189 122.496C471.749 122.496 471.101 123.27 470.687 124.224H470.615V122.712H469.175V132H470.615ZM484.889 135.6H486.329V130.488H486.401C486.959 131.64 487.841 132.216 489.119 132.216C491.441 132.216 492.899 130.326 492.899 127.356C492.899 124.386 491.441 122.496 489.119 122.496C487.841 122.496 486.887 123.054 486.401 124.224H486.329V122.712H484.889V135.6ZM488.723 130.92C487.409 130.92 486.329 130.236 486.329 129.03V125.574C486.329 124.548 487.409 123.792 488.723 123.792C490.343 123.792 491.351 124.908 491.351 126.564V128.148C491.351 129.804 490.343 130.92 488.723 130.92ZM498.139 132V130.74H496.771V118.68H495.331V130.506C495.331 131.37 495.871 132 496.861 132H498.139ZM503.727 132.216C505.473 132.216 506.805 131.352 507.399 130.092L506.373 129.354C505.887 130.38 504.987 130.956 503.817 130.956C502.089 130.956 501.063 129.75 501.063 128.148V127.716H507.741V127.032C507.741 124.404 506.211 122.496 503.727 122.496C501.207 122.496 499.551 124.404 499.551 127.356C499.551 130.308 501.207 132.216 503.727 132.216ZM503.727 123.702C505.203 123.702 506.193 124.8 506.193 126.438V126.636H501.063V126.51C501.063 124.89 502.161 123.702 503.727 123.702ZM511.554 132V125.7C511.554 124.818 512.49 124.152 514.038 124.152H514.884V122.712H514.326C512.814 122.712 511.968 123.54 511.644 124.422H511.554V122.712H510.114V132H511.554ZM528.537 132V130.74H527.475V125.628C527.475 123.666 526.143 122.496 523.911 122.496C522.237 122.496 521.121 123.324 520.617 124.314L521.481 125.124C521.985 124.278 522.723 123.738 523.839 123.738C525.315 123.738 526.035 124.458 526.035 125.772V126.69H524.199C521.499 126.69 520.239 127.662 520.239 129.408C520.239 131.136 521.391 132.216 523.353 132.216C524.649 132.216 525.639 131.622 526.035 130.488H526.125C526.233 131.352 526.665 132 527.727 132H528.537ZM523.587 130.992C522.471 130.992 521.751 130.47 521.751 129.552V129.174C521.751 128.274 522.489 127.77 524.127 127.77H526.035V129.3C526.035 130.254 525.009 130.992 523.587 130.992ZM532.033 132V125.556C532.033 124.368 533.149 123.792 534.301 123.792C535.687 123.792 536.407 124.638 536.407 126.294V132H537.847V126.042C537.847 123.792 536.641 122.496 534.733 122.496C533.347 122.496 532.555 123.18 532.105 124.224H532.033V122.712H530.593V132H532.033ZM546.763 132H548.203V118.68H546.763V124.224H546.691C546.205 123.054 545.251 122.496 543.973 122.496C541.651 122.496 540.193 124.386 540.193 127.356C540.193 130.326 541.651 132.216 543.973 132.216C545.251 132.216 546.133 131.64 546.691 130.488H546.763V132ZM544.369 130.92C542.749 130.92 541.741 129.804 541.741 128.148V126.564C541.741 124.908 542.749 123.792 544.369 123.792C545.683 123.792 546.763 124.548 546.763 125.574V129.03C546.763 130.236 545.683 130.92 544.369 130.92ZM367.158 160V158.668H361.002V154.312H366.798V152.98H361.002V148.768H367.158V147.436H359.49V160H367.158ZM372.631 160.216C374.755 160.216 376.069 159.118 376.069 157.318C376.069 155.914 375.277 155.014 373.225 154.708L372.505 154.6C371.353 154.42 370.723 154.06 370.723 153.16C370.723 152.278 371.353 151.72 372.541 151.72C373.729 151.72 374.521 152.278 374.935 152.854L375.889 151.99C375.133 151.054 374.143 150.496 372.649 150.496C370.759 150.496 369.337 151.396 369.337 153.232C369.337 154.96 370.615 155.662 372.325 155.914L373.063 156.022C374.287 156.202 374.683 156.76 374.683 157.48C374.683 158.434 373.963 158.992 372.739 158.992C371.569 158.992 370.705 158.47 369.985 157.57L368.959 158.398C369.787 159.496 370.921 160.216 372.631 160.216ZM382.341 160V158.74H380.451V151.972H382.485V150.712H380.451V148.138H379.155V149.866C379.155 150.496 378.957 150.712 378.345 150.712H377.481V151.972H379.011V158.47C379.011 159.37 379.551 160 380.541 160H382.341ZM385.52 148.534C386.132 148.534 386.402 148.21 386.402 147.724V147.49C386.402 147.004 386.132 146.68 385.52 146.68C384.908 146.68 384.638 147.004 384.638 147.49V147.724C384.638 148.21 384.908 148.534 385.52 148.534ZM384.8 160H386.24V150.712H384.8V160ZM390.74 160V153.556C390.74 152.368 391.82 151.792 392.954 151.792C394.322 151.792 394.952 152.638 394.952 154.294V160H396.392V153.556C396.392 152.368 397.436 151.792 398.57 151.792C399.974 151.792 400.604 152.656 400.604 154.294V160H402.044V154.042C402.044 151.792 400.91 150.496 399.02 150.496C397.436 150.496 396.536 151.378 396.194 152.386H396.158C395.654 151.054 394.538 150.496 393.314 150.496C391.874 150.496 391.226 151.27 390.812 152.224H390.74V150.712H389.3V160H390.74ZM412.574 160V158.74H411.512V153.628C411.512 151.666 410.18 150.496 407.948 150.496C406.274 150.496 405.158 151.324 404.654 152.314L405.518 153.124C406.022 152.278 406.76 151.738 407.876 151.738C409.352 151.738 410.072 152.458 410.072 153.772V154.69H408.236C405.536 154.69 404.276 155.662 404.276 157.408C404.276 159.136 405.428 160.216 407.39 160.216C408.686 160.216 409.676 159.622 410.072 158.488H410.162C410.27 159.352 410.702 160 411.764 160H412.574ZM407.624 158.992C406.508 158.992 405.788 158.47 405.788 157.552V157.174C405.788 156.274 406.526 155.77 408.164 155.77H410.072V157.3C410.072 158.254 409.046 158.992 407.624 158.992ZM418.482 160V158.74H416.592V151.972H418.626V150.712H416.592V148.138H415.296V149.866C415.296 150.496 415.098 150.712 414.486 150.712H413.622V151.972H415.152V158.47C415.152 159.37 415.692 160 416.682 160H418.482ZM424.38 160.216C426.864 160.216 428.574 158.308 428.574 155.356C428.574 152.404 426.864 150.496 424.38 150.496C421.896 150.496 420.186 152.404 420.186 155.356C420.186 158.308 421.896 160.216 424.38 160.216ZM424.38 158.938C422.832 158.938 421.734 157.984 421.734 156.022V154.69C421.734 152.728 422.832 151.774 424.38 151.774C425.928 151.774 427.026 152.728 427.026 154.69V156.022C427.026 157.984 425.928 158.938 424.38 158.938ZM432.382 160V153.7C432.382 152.818 433.318 152.152 434.866 152.152H435.712V150.712H435.154C433.642 150.712 432.796 151.54 432.472 152.422H432.382V150.712H430.942V160H432.382Z" fill="white"/>
<rect x="73" y="243" width="240" height="124" fill="#262626"/>
<path d="M92.4904 276H93.9664V265.416H94.0564L95.1184 267.522L98.1244 272.994L101.13 267.522L102.192 265.416H102.282V276H103.758V263.436H101.814L98.1964 270.204H98.1064L94.5064 263.436H92.4904V276ZM110.446 276.216C112.192 276.216 113.524 275.352 114.118 274.092L113.092 273.354C112.606 274.38 111.706 274.956 110.536 274.956C108.808 274.956 107.782 273.75 107.782 272.148V271.716H114.46V271.032C114.46 268.404 112.93 266.496 110.446 266.496C107.926 266.496 106.27 268.404 106.27 271.356C106.27 274.308 107.926 276.216 110.446 276.216ZM110.446 267.702C111.922 267.702 112.912 268.8 112.912 270.438V270.636H107.782V270.51C107.782 268.89 108.88 267.702 110.446 267.702ZM124.393 276V274.74H123.331V269.628C123.331 267.666 121.999 266.496 119.767 266.496C118.093 266.496 116.977 267.324 116.473 268.314L117.337 269.124C117.841 268.278 118.579 267.738 119.695 267.738C121.171 267.738 121.891 268.458 121.891 269.772V270.69H120.055C117.355 270.69 116.095 271.662 116.095 273.408C116.095 275.136 117.247 276.216 119.209 276.216C120.505 276.216 121.495 275.622 121.891 274.488H121.981C122.089 275.352 122.521 276 123.583 276H124.393ZM119.443 274.992C118.327 274.992 117.607 274.47 117.607 273.552V273.174C117.607 272.274 118.345 271.77 119.983 271.77H121.891V273.3C121.891 274.254 120.865 274.992 119.443 274.992ZM129.238 276.216C131.362 276.216 132.676 275.118 132.676 273.318C132.676 271.914 131.884 271.014 129.832 270.708L129.112 270.6C127.96 270.42 127.33 270.06 127.33 269.16C127.33 268.278 127.96 267.72 129.148 267.72C130.336 267.72 131.128 268.278 131.542 268.854L132.496 267.99C131.74 267.054 130.75 266.496 129.256 266.496C127.366 266.496 125.944 267.396 125.944 269.232C125.944 270.96 127.222 271.662 128.932 271.914L129.67 272.022C130.894 272.202 131.29 272.76 131.29 273.48C131.29 274.434 130.57 274.992 129.346 274.992C128.176 274.992 127.312 274.47 126.592 273.57L125.566 274.398C126.394 275.496 127.528 276.216 129.238 276.216ZM140.943 276H142.383V266.712H140.943V273.138C140.943 274.362 139.827 274.92 138.693 274.92C137.307 274.92 136.569 274.074 136.569 272.418V266.712H135.129V272.67C135.129 274.92 136.353 276.216 138.261 276.216C139.809 276.216 140.511 275.37 140.871 274.488H140.943V276ZM146.89 276V269.7C146.89 268.818 147.826 268.152 149.374 268.152H150.22V266.712H149.662C148.15 266.712 147.304 267.54 146.98 268.422H146.89V266.712H145.45V276H146.89ZM155.463 276.216C157.209 276.216 158.541 275.352 159.135 274.092L158.109 273.354C157.623 274.38 156.723 274.956 155.553 274.956C153.825 274.956 152.799 273.75 152.799 272.148V271.716H159.477V271.032C159.477 268.404 157.947 266.496 155.463 266.496C152.943 266.496 151.287 268.404 151.287 271.356C151.287 274.308 152.943 276.216 155.463 276.216ZM155.463 267.702C156.939 267.702 157.929 268.8 157.929 270.438V270.636H152.799V270.51C152.799 268.89 153.897 267.702 155.463 267.702ZM163.29 276V269.556C163.29 268.368 164.37 267.792 165.504 267.792C166.872 267.792 167.502 268.638 167.502 270.294V276H168.942V269.556C168.942 268.368 169.986 267.792 171.12 267.792C172.524 267.792 173.154 268.656 173.154 270.294V276H174.594V270.042C174.594 267.792 173.46 266.496 171.57 266.496C169.986 266.496 169.086 267.378 168.744 268.386H168.708C168.204 267.054 167.088 266.496 165.864 266.496C164.424 266.496 163.776 267.27 163.362 268.224H163.29V266.712H161.85V276H163.29ZM181.057 276.216C182.803 276.216 184.135 275.352 184.729 274.092L183.703 273.354C183.217 274.38 182.317 274.956 181.147 274.956C179.419 274.956 178.393 273.75 178.393 272.148V271.716H185.071V271.032C185.071 268.404 183.541 266.496 181.057 266.496C178.537 266.496 176.881 268.404 176.881 271.356C176.881 274.308 178.537 276.216 181.057 276.216ZM181.057 267.702C182.533 267.702 183.523 268.8 183.523 270.438V270.636H178.393V270.51C178.393 268.89 179.491 267.702 181.057 267.702ZM188.884 276V269.556C188.884 268.368 190 267.792 191.152 267.792C192.538 267.792 193.258 268.638 193.258 270.294V276H194.698V270.042C194.698 267.792 193.492 266.496 191.584 266.496C190.198 266.496 189.406 267.18 188.956 268.224H188.884V266.712H187.444V276H188.884ZM201.527 276V274.74H199.637V267.972H201.671V266.712H199.637V264.138H198.341V265.866C198.341 266.496 198.143 266.712 197.531 266.712H196.667V267.972H198.197V274.47C198.197 275.37 198.737 276 199.727 276H201.527ZM211.911 276.216C214.611 276.216 216.231 274.74 216.231 272.436C216.231 270.564 215.169 269.484 212.721 268.926L211.695 268.692C210.111 268.332 209.337 267.792 209.337 266.604C209.337 265.254 210.327 264.552 211.929 264.552C213.387 264.552 214.341 265.146 215.025 266.1L216.159 265.272C215.223 263.94 213.891 263.22 212.001 263.22C209.535 263.22 207.843 264.426 207.843 266.658C207.843 268.584 209.103 269.592 211.389 270.114L212.415 270.348C214.071 270.726 214.737 271.32 214.737 272.508C214.737 273.948 213.765 274.884 211.965 274.884C210.507 274.884 209.463 274.254 208.581 273.084L207.465 274.02C208.473 275.388 209.895 276.216 211.911 276.216ZM222.55 276V274.74H220.66V267.972H222.694V266.712H220.66V264.138H219.364V265.866C219.364 266.496 219.166 266.712 218.554 266.712H217.69V267.972H219.22V274.47C219.22 275.37 219.76 276 220.75 276H222.55ZM226.449 276V269.7C226.449 268.818 227.385 268.152 228.933 268.152H229.779V266.712H229.221C227.709 266.712 226.863 267.54 226.539 268.422H226.449V266.712H225.009V276H226.449ZM239.108 276V274.74H238.046V269.628C238.046 267.666 236.714 266.496 234.482 266.496C232.808 266.496 231.692 267.324 231.188 268.314L232.052 269.124C232.556 268.278 233.294 267.738 234.41 267.738C235.886 267.738 236.606 268.458 236.606 269.772V270.69H234.77C232.07 270.69 230.81 271.662 230.81 273.408C230.81 275.136 231.962 276.216 233.924 276.216C235.22 276.216 236.21 275.622 236.606 274.488H236.696C236.804 275.352 237.236 276 238.298 276H239.108ZM234.158 274.992C233.042 274.992 232.322 274.47 232.322 273.552V273.174C232.322 272.274 233.06 271.77 234.698 271.77H236.606V273.3C236.606 274.254 235.58 274.992 234.158 274.992ZM245.015 276V274.74H243.125V267.972H245.159V266.712H243.125V264.138H241.829V265.866C241.829 266.496 241.631 266.712 241.019 266.712H240.155V267.972H241.685V274.47C241.685 275.37 242.225 276 243.215 276H245.015ZM250.895 276.216C252.641 276.216 253.973 275.352 254.567 274.092L253.541 273.354C253.055 274.38 252.155 274.956 250.985 274.956C249.257 274.956 248.231 273.75 248.231 272.148V271.716H254.909V271.032C254.909 268.404 253.379 266.496 250.895 266.496C248.375 266.496 246.719 268.404 246.719 271.356C246.719 274.308 248.375 276.216 250.895 276.216ZM250.895 267.702C252.371 267.702 253.361 268.8 253.361 270.438V270.636H248.231V270.51C248.231 268.89 249.329 267.702 250.895 267.702ZM265.112 277.026C265.112 275.496 264.122 274.56 261.818 274.56H259.838C258.992 274.56 258.416 274.416 258.416 273.858C258.416 273.282 259.028 272.976 259.64 272.814C259.91 272.868 260.234 272.904 260.54 272.904C262.664 272.904 264.05 271.59 264.05 269.7C264.05 268.71 263.654 267.882 262.988 267.306V266.712H264.752V265.452H263.366C262.592 265.452 262.286 265.974 262.286 266.694V266.856C261.782 266.622 261.188 266.496 260.522 266.496C258.416 266.496 257.03 267.81 257.03 269.7C257.03 270.996 257.678 272.022 258.776 272.544V272.616C257.84 272.85 257.174 273.3 257.174 274.236C257.174 274.866 257.48 275.28 258.002 275.532V275.73C257.084 275.982 256.526 276.522 256.526 277.53C256.526 278.988 257.714 279.816 260.612 279.816C263.6 279.816 265.112 278.934 265.112 277.026ZM263.762 277.134C263.762 278.142 262.826 278.646 261.224 278.646H259.892C258.434 278.646 257.876 277.98 257.876 277.17C257.876 276.594 258.146 276.18 258.74 275.91H261.836C263.276 275.91 263.762 276.396 263.762 277.134ZM260.54 271.752C259.316 271.752 258.542 271.176 258.542 269.952V269.448C258.542 268.224 259.316 267.648 260.54 267.648C261.764 267.648 262.538 268.224 262.538 269.448V269.952C262.538 271.176 261.764 271.752 260.54 271.752ZM270.354 273.03L269.85 274.542H269.76L269.328 273.03L267.096 266.712H265.656L269.13 276.36L268.428 278.34H266.97V279.6H267.708C269.076 279.6 269.454 279.276 269.868 278.16L274.026 266.712H272.604L270.354 273.03ZM276.96 276.216C277.716 276.216 278.058 275.784 278.058 275.172V274.938C278.058 274.326 277.716 273.894 276.96 273.894C276.204 273.894 275.862 274.326 275.862 274.938V275.172C275.862 275.784 276.204 276.216 276.96 276.216ZM276.96 268.818C277.716 268.818 278.058 268.386 278.058 267.774V267.54C278.058 266.928 277.716 266.496 276.96 266.496C276.204 266.496 275.862 266.928 275.862 267.54V267.774C275.862 268.386 276.204 268.818 276.96 268.818ZM96.0184 304.216C98.7184 304.216 100.338 302.74 100.338 300.436C100.338 298.564 99.2764 297.484 96.8284 296.926L95.8024 296.692C94.2184 296.332 93.4444 295.792 93.4444 294.604C93.4444 293.254 94.4344 292.552 96.0364 292.552C97.4944 292.552 98.4484 293.146 99.1324 294.1L100.266 293.272C99.3304 291.94 97.9984 291.22 96.1084 291.22C93.6424 291.22 91.9504 292.426 91.9504 294.658C91.9504 296.584 93.2104 297.592 95.4964 298.114L96.5224 298.348C98.1784 298.726 98.8444 299.32 98.8444 300.508C98.8444 301.948 97.8724 302.884 96.0724 302.884C94.6144 302.884 93.5704 302.254 92.6884 301.084L91.5724 302.02C92.5804 303.388 94.0024 304.216 96.0184 304.216ZM102.805 307.6H104.245V302.488H104.317C104.875 303.64 105.757 304.216 107.035 304.216C109.357 304.216 110.815 302.326 110.815 299.356C110.815 296.386 109.357 294.496 107.035 294.496C105.757 294.496 104.803 295.054 104.317 296.224H104.245V294.712H102.805V307.6ZM106.639 302.92C105.325 302.92 104.245 302.236 104.245 301.03V297.574C104.245 296.548 105.325 295.792 106.639 295.792C108.259 295.792 109.267 296.908 109.267 298.564V300.148C109.267 301.804 108.259 302.92 106.639 302.92ZM116.739 304.216C118.485 304.216 119.817 303.352 120.411 302.092L119.385 301.354C118.899 302.38 117.999 302.956 116.829 302.956C115.101 302.956 114.075 301.75 114.075 300.148V299.716H120.753V299.032C120.753 296.404 119.223 294.496 116.739 294.496C114.219 294.496 112.563 296.404 112.563 299.356C112.563 302.308 114.219 304.216 116.739 304.216ZM116.739 295.702C118.215 295.702 119.205 296.8 119.205 298.438V298.636H114.075V298.51C114.075 296.89 115.173 295.702 116.739 295.702ZM126.618 304.216C128.364 304.216 129.696 303.352 130.29 302.092L129.264 301.354C128.778 302.38 127.878 302.956 126.708 302.956C124.98 302.956 123.954 301.75 123.954 300.148V299.716H130.632V299.032C130.632 296.404 129.102 294.496 126.618 294.496C124.098 294.496 122.442 296.404 122.442 299.356C122.442 302.308 124.098 304.216 126.618 304.216ZM126.618 295.702C128.094 295.702 129.084 296.8 129.084 298.438V298.636H123.954V298.51C123.954 296.89 125.052 295.702 126.618 295.702ZM138.945 304H140.385V290.68H138.945V296.224H138.873C138.387 295.054 137.433 294.496 136.155 294.496C133.833 294.496 132.375 296.386 132.375 299.356C132.375 302.326 133.833 304.216 136.155 304.216C137.433 304.216 138.315 303.64 138.873 302.488H138.945V304ZM136.551 302.92C134.931 302.92 133.923 301.804 133.923 300.148V298.564C133.923 296.908 134.931 295.792 136.551 295.792C137.865 295.792 138.945 296.548 138.945 297.574V301.03C138.945 302.236 137.865 302.92 136.551 302.92ZM151.426 304L154.702 294.712H153.316L151.66 299.32L150.652 302.488H150.562L149.554 299.32L147.934 294.712H146.494L149.752 304H151.426ZM159.349 304.216C161.473 304.216 162.787 303.118 162.787 301.318C162.787 299.914 161.995 299.014 159.943 298.708L159.223 298.6C158.071 298.42 157.441 298.06 157.441 297.16C157.441 296.278 158.071 295.72 159.259 295.72C160.447 295.72 161.239 296.278 161.653 296.854L162.607 295.99C161.851 295.054 160.861 294.496 159.367 294.496C157.477 294.496 156.055 295.396 156.055 297.232C156.055 298.96 157.333 299.662 159.043 299.914L159.781 300.022C161.005 300.202 161.401 300.76 161.401 301.48C161.401 302.434 160.681 302.992 159.457 302.992C158.287 302.992 157.423 302.47 156.703 301.57L155.677 302.398C156.505 303.496 157.639 304.216 159.349 304.216ZM179.179 304L174.787 291.436H172.861L168.469 304H169.999L171.259 300.292H176.335L177.595 304H179.179ZM175.957 298.96H171.619L173.743 292.84H173.833L175.957 298.96ZM184.572 304.216C186.336 304.216 187.542 303.352 188.136 302.02L187.092 301.318C186.588 302.38 185.742 302.938 184.572 302.938C182.862 302.938 181.98 301.768 181.98 300.148V298.564C181.98 296.944 182.862 295.774 184.572 295.774C185.706 295.774 186.498 296.332 186.84 297.286L188.046 296.674C187.506 295.396 186.408 294.496 184.572 294.496C181.962 294.496 180.432 296.386 180.432 299.356C180.432 302.326 181.962 304.216 184.572 304.216ZM193.519 304.216C195.283 304.216 196.489 303.352 197.083 302.02L196.039 301.318C195.535 302.38 194.689 302.938 193.519 302.938C191.809 302.938 190.927 301.768 190.927 300.148V298.564C190.927 296.944 191.809 295.774 193.519 295.774C194.653 295.774 195.445 296.332 195.787 297.286L196.993 296.674C196.453 295.396 195.355 294.496 193.519 294.496C190.909 294.496 189.379 296.386 189.379 299.356C189.379 302.326 190.909 304.216 193.519 304.216ZM204.84 304H206.28V294.712H204.84V301.138C204.84 302.362 203.724 302.92 202.59 302.92C201.204 302.92 200.466 302.074 200.466 300.418V294.712H199.026V300.67C199.026 302.92 200.25 304.216 202.158 304.216C203.706 304.216 204.408 303.37 204.768 302.488H204.84V304ZM210.786 304V297.7C210.786 296.818 211.722 296.152 213.27 296.152H214.116V294.712H213.558C212.046 294.712 211.2 295.54 210.876 296.422H210.786V294.712H209.346V304H210.786ZM223.445 304V302.74H222.383V297.628C222.383 295.666 221.051 294.496 218.819 294.496C217.145 294.496 216.029 295.324 215.525 296.314L216.389 297.124C216.893 296.278 217.631 295.738 218.747 295.738C220.223 295.738 220.943 296.458 220.943 297.772V298.69H219.107C216.407 298.69 215.147 299.662 215.147 301.408C215.147 303.136 216.299 304.216 218.261 304.216C219.557 304.216 220.547 303.622 220.943 302.488H221.033C221.141 303.352 221.573 304 222.635 304H223.445ZM218.495 302.992C217.379 302.992 216.659 302.47 216.659 301.552V301.174C216.659 300.274 217.397 299.77 219.035 299.77H220.943V301.3C220.943 302.254 219.917 302.992 218.495 302.992ZM228.957 304.216C230.721 304.216 231.927 303.352 232.521 302.02L231.477 301.318C230.973 302.38 230.127 302.938 228.957 302.938C227.247 302.938 226.365 301.768 226.365 300.148V298.564C226.365 296.944 227.247 295.774 228.957 295.774C230.091 295.774 230.883 296.332 231.225 297.286L232.431 296.674C231.891 295.396 230.793 294.496 228.957 294.496C226.347 294.496 224.817 296.386 224.817 299.356C224.817 302.326 226.347 304.216 228.957 304.216ZM238.027 301.03L237.523 302.542H237.433L237.001 301.03L234.769 294.712H233.329L236.803 304.36L236.101 306.34H234.643V307.6H235.381C236.749 307.6 237.127 307.276 237.541 306.16L241.699 294.712H240.277L238.027 301.03Z" fill="white"/>
<rect x="340" y="242" width="240" height="124" fill="#262626"/>
<path d="M367.158 275V273.668H361.002V269.312H366.798V267.98H361.002V263.768H367.158V262.436H359.49V275H367.158ZM371.281 275V268.7C371.281 267.818 372.217 267.152 373.765 267.152H374.611V265.712H374.053C372.541 265.712 371.695 266.54 371.371 267.422H371.281V265.712H369.841V275H371.281ZM377.89 275V268.7C377.89 267.818 378.826 267.152 380.374 267.152H381.22V265.712H380.662C379.15 265.712 378.304 266.54 377.98 267.422H377.89V265.712H376.45V275H377.89ZM386.481 275.216C388.965 275.216 390.675 273.308 390.675 270.356C390.675 267.404 388.965 265.496 386.481 265.496C383.997 265.496 382.287 267.404 382.287 270.356C382.287 273.308 383.997 275.216 386.481 275.216ZM386.481 273.938C384.933 273.938 383.835 272.984 383.835 271.022V269.69C383.835 267.728 384.933 266.774 386.481 266.774C388.029 266.774 389.127 267.728 389.127 269.69V271.022C389.127 272.984 388.029 273.938 386.481 273.938ZM394.484 275V268.7C394.484 267.818 395.42 267.152 396.968 267.152H397.814V265.712H397.256C395.744 265.712 394.898 266.54 394.574 267.422H394.484V265.712H393.044V275H394.484ZM404.051 275H405.527V264.416H405.617L406.679 266.522L409.685 271.994L412.691 266.522L413.753 264.416H413.843V275H415.319V262.436H413.375L409.757 269.204H409.667L406.067 262.436H404.051V275ZM419.234 263.534C419.846 263.534 420.116 263.21 420.116 262.724V262.49C420.116 262.004 419.846 261.68 419.234 261.68C418.622 261.68 418.352 262.004 418.352 262.49V262.724C418.352 263.21 418.622 263.534 419.234 263.534ZM418.514 275H419.954V265.712H418.514V275ZM426.866 275V273.74H424.976V266.972H427.01V265.712H424.976V263.138H423.68V264.866C423.68 265.496 423.482 265.712 422.87 265.712H422.006V266.972H423.536V273.47C423.536 274.37 424.076 275 425.066 275H426.866ZM430.045 263.534C430.657 263.534 430.927 263.21 430.927 262.724V262.49C430.927 262.004 430.657 261.68 430.045 261.68C429.433 261.68 429.163 262.004 429.163 262.49V262.724C429.163 263.21 429.433 263.534 430.045 263.534ZM429.325 275H430.765V265.712H429.325V275ZM441.655 276.026C441.655 274.496 440.665 273.56 438.361 273.56H436.381C435.535 273.56 434.959 273.416 434.959 272.858C434.959 272.282 435.571 271.976 436.183 271.814C436.453 271.868 436.777 271.904 437.083 271.904C439.207 271.904 440.593 270.59 440.593 268.7C440.593 267.71 440.197 266.882 439.531 266.306V265.712H441.295V264.452H439.909C439.135 264.452 438.829 264.974 438.829 265.694V265.856C438.325 265.622 437.731 265.496 437.065 265.496C434.959 265.496 433.573 266.81 433.573 268.7C433.573 269.996 434.221 271.022 435.319 271.544V271.616C434.383 271.85 433.717 272.3 433.717 273.236C433.717 273.866 434.023 274.28 434.545 274.532V274.73C433.627 274.982 433.069 275.522 433.069 276.53C433.069 277.988 434.257 278.816 437.155 278.816C440.143 278.816 441.655 277.934 441.655 276.026ZM440.305 276.134C440.305 277.142 439.369 277.646 437.767 277.646H436.435C434.977 277.646 434.419 276.98 434.419 276.17C434.419 275.594 434.689 275.18 435.283 274.91H438.379C439.819 274.91 440.305 275.396 440.305 276.134ZM437.083 270.752C435.859 270.752 435.085 270.176 435.085 268.952V268.448C435.085 267.224 435.859 266.648 437.083 266.648C438.307 266.648 439.081 267.224 439.081 268.448V268.952C439.081 270.176 438.307 270.752 437.083 270.752ZM450.842 275V273.74H449.78V268.628C449.78 266.666 448.448 265.496 446.216 265.496C444.542 265.496 443.426 266.324 442.922 267.314L443.786 268.124C444.29 267.278 445.028 266.738 446.144 266.738C447.62 266.738 448.34 267.458 448.34 268.772V269.69H446.504C443.804 269.69 442.544 270.662 442.544 272.408C442.544 274.136 443.696 275.216 445.658 275.216C446.954 275.216 447.944 274.622 448.34 273.488H448.43C448.538 274.352 448.97 275 450.032 275H450.842ZM445.892 273.992C444.776 273.992 444.056 273.47 444.056 272.552V272.174C444.056 271.274 444.794 270.77 446.432 270.77H448.34V272.3C448.34 273.254 447.314 273.992 445.892 273.992ZM456.749 275V273.74H454.859V266.972H456.893V265.712H454.859V263.138H453.563V264.866C453.563 265.496 453.365 265.712 452.753 265.712H451.889V266.972H453.419V273.47C453.419 274.37 453.959 275 454.949 275H456.749ZM459.928 263.534C460.54 263.534 460.81 263.21 460.81 262.724V262.49C460.81 262.004 460.54 261.68 459.928 261.68C459.316 261.68 459.046 262.004 459.046 262.49V262.724C459.046 263.21 459.316 263.534 459.928 263.534ZM459.208 275H460.648V265.712H459.208V275ZM467.218 275.216C469.702 275.216 471.412 273.308 471.412 270.356C471.412 267.404 469.702 265.496 467.218 265.496C464.734 265.496 463.024 267.404 463.024 270.356C463.024 273.308 464.734 275.216 467.218 275.216ZM467.218 273.938C465.67 273.938 464.572 272.984 464.572 271.022V269.69C464.572 267.728 465.67 266.774 467.218 266.774C468.766 266.774 469.864 267.728 469.864 269.69V271.022C469.864 272.984 468.766 273.938 467.218 273.938ZM475.22 275V268.556C475.22 267.368 476.336 266.792 477.488 266.792C478.874 266.792 479.594 267.638 479.594 269.294V275H481.034V269.042C481.034 266.792 479.828 265.496 477.92 265.496C476.534 265.496 475.742 266.18 475.292 267.224H475.22V265.712H473.78V275H475.22ZM495.824 275V273.74H494.762V268.628C494.762 266.666 493.43 265.496 491.198 265.496C489.524 265.496 488.408 266.324 487.904 267.314L488.768 268.124C489.272 267.278 490.01 266.738 491.126 266.738C492.602 266.738 493.322 267.458 493.322 268.772V269.69H491.486C488.786 269.69 487.526 270.662 487.526 272.408C487.526 274.136 488.678 275.216 490.64 275.216C491.936 275.216 492.926 274.622 493.322 273.488H493.412C493.52 274.352 493.952 275 495.014 275H495.824ZM490.874 273.992C489.758 273.992 489.038 273.47 489.038 272.552V272.174C489.038 271.274 489.776 270.77 491.414 270.77H493.322V272.3C493.322 273.254 492.296 273.992 490.874 273.992ZM499.32 275V268.556C499.32 267.368 500.436 266.792 501.588 266.792C502.974 266.792 503.694 267.638 503.694 269.294V275H505.134V269.042C505.134 266.792 503.928 265.496 502.02 265.496C500.634 265.496 499.842 266.18 499.392 267.224H499.32V265.712H497.88V275H499.32ZM514.05 275H515.49V261.68H514.05V267.224H513.978C513.492 266.054 512.538 265.496 511.26 265.496C508.938 265.496 507.48 267.386 507.48 270.356C507.48 273.326 508.938 275.216 511.26 275.216C512.538 275.216 513.42 274.64 513.978 273.488H514.05V275ZM511.656 273.92C510.036 273.92 509.028 272.804 509.028 271.148V269.564C509.028 267.908 510.036 266.792 511.656 266.792C512.97 266.792 514.05 267.548 514.05 268.574V272.03C514.05 273.236 512.97 273.92 511.656 273.92ZM363.018 303.216C365.718 303.216 367.338 301.74 367.338 299.436C367.338 297.564 366.276 296.484 363.828 295.926L362.802 295.692C361.218 295.332 360.444 294.792 360.444 293.604C360.444 292.254 361.434 291.552 363.036 291.552C364.494 291.552 365.448 292.146 366.132 293.1L367.266 292.272C366.33 290.94 364.998 290.22 363.108 290.22C360.642 290.22 358.95 291.426 358.95 293.658C358.95 295.584 360.21 296.592 362.496 297.114L363.522 297.348C365.178 297.726 365.844 298.32 365.844 299.508C365.844 300.948 364.872 301.884 363.072 301.884C361.614 301.884 360.57 301.254 359.688 300.084L358.572 301.02C359.58 302.388 361.002 303.216 363.018 303.216ZM375.529 303H376.969V293.712H375.529V300.138C375.529 301.362 374.413 301.92 373.279 301.92C371.893 301.92 371.155 301.074 371.155 299.418V293.712H369.715V299.67C369.715 301.92 370.939 303.216 372.847 303.216C374.395 303.216 375.097 302.37 375.457 301.488H375.529V303ZM380.036 306.6H381.476V301.488H381.548C382.106 302.64 382.988 303.216 384.266 303.216C386.588 303.216 388.046 301.326 388.046 298.356C388.046 295.386 386.588 293.496 384.266 293.496C382.988 293.496 382.034 294.054 381.548 295.224H381.476V293.712H380.036V306.6ZM383.87 301.92C382.556 301.92 381.476 301.236 381.476 300.03V296.574C381.476 295.548 382.556 294.792 383.87 294.792C385.49 294.792 386.498 295.908 386.498 297.564V299.148C386.498 300.804 385.49 301.92 383.87 301.92ZM390.477 306.6H391.917V301.488H391.989C392.547 302.64 393.429 303.216 394.707 303.216C397.029 303.216 398.487 301.326 398.487 298.356C398.487 295.386 397.029 293.496 394.707 293.496C393.429 293.496 392.475 294.054 391.989 295.224H391.917V293.712H390.477V306.6ZM394.311 301.92C392.997 301.92 391.917 301.236 391.917 300.03V296.574C391.917 295.548 392.997 294.792 394.311 294.792C395.931 294.792 396.939 295.908 396.939 297.564V299.148C396.939 300.804 395.931 301.92 394.311 301.92ZM402.359 303V296.7C402.359 295.818 403.295 295.152 404.843 295.152H405.689V293.712H405.131C403.619 293.712 402.773 294.54 402.449 295.422H402.359V293.712H400.919V303H402.359ZM410.932 303.216C412.678 303.216 414.01 302.352 414.604 301.092L413.578 300.354C413.092 301.38 412.192 301.956 411.022 301.956C409.294 301.956 408.268 300.75 408.268 299.148V298.716H414.946V298.032C414.946 295.404 413.416 293.496 410.932 293.496C408.412 293.496 406.756 295.404 406.756 298.356C406.756 301.308 408.412 303.216 410.932 303.216ZM410.932 294.702C412.408 294.702 413.398 295.8 413.398 297.438V297.636H408.268V297.51C408.268 295.89 409.366 294.702 410.932 294.702ZM420.109 303.216C422.233 303.216 423.547 302.118 423.547 300.318C423.547 298.914 422.755 298.014 420.703 297.708L419.983 297.6C418.831 297.42 418.201 297.06 418.201 296.16C418.201 295.278 418.831 294.72 420.019 294.72C421.207 294.72 421.999 295.278 422.413 295.854L423.367 294.99C422.611 294.054 421.621 293.496 420.127 293.496C418.237 293.496 416.815 294.396 416.815 296.232C416.815 297.96 418.093 298.662 419.803 298.914L420.541 299.022C421.765 299.202 422.161 299.76 422.161 300.48C422.161 301.434 421.441 301.992 420.217 301.992C419.047 301.992 418.183 301.47 417.463 300.57L416.437 301.398C417.265 302.496 418.399 303.216 420.109 303.216ZM428.775 303.216C430.899 303.216 432.213 302.118 432.213 300.318C432.213 298.914 431.421 298.014 429.369 297.708L428.649 297.6C427.497 297.42 426.867 297.06 426.867 296.16C426.867 295.278 427.497 294.72 428.685 294.72C429.873 294.72 430.665 295.278 431.079 295.854L432.033 294.99C431.277 294.054 430.287 293.496 428.793 293.496C426.903 293.496 425.481 294.396 425.481 296.232C425.481 297.96 426.759 298.662 428.469 298.914L429.207 299.022C430.431 299.202 430.827 299.76 430.827 300.48C430.827 301.434 430.107 301.992 428.883 301.992C427.713 301.992 426.849 301.47 426.129 300.57L425.103 301.398C425.931 302.496 427.065 303.216 428.775 303.216ZM435.477 291.534C436.089 291.534 436.359 291.21 436.359 290.724V290.49C436.359 290.004 436.089 289.68 435.477 289.68C434.865 289.68 434.595 290.004 434.595 290.49V290.724C434.595 291.21 434.865 291.534 435.477 291.534ZM434.757 303H436.197V293.712H434.757V303ZM442.767 303.216C445.251 303.216 446.961 301.308 446.961 298.356C446.961 295.404 445.251 293.496 442.767 293.496C440.283 293.496 438.573 295.404 438.573 298.356C438.573 301.308 440.283 303.216 442.767 303.216ZM442.767 301.938C441.219 301.938 440.121 300.984 440.121 299.022V297.69C440.121 295.728 441.219 294.774 442.767 294.774C444.315 294.774 445.413 295.728 445.413 297.69V299.022C445.413 300.984 444.315 301.938 442.767 301.938ZM450.769 303V296.556C450.769 295.368 451.885 294.792 453.037 294.792C454.423 294.792 455.143 295.638 455.143 297.294V303H456.583V297.042C456.583 294.792 455.377 293.496 453.469 293.496C452.083 293.496 451.291 294.18 450.841 295.224H450.769V293.712H449.329V303H450.769ZM469.537 303H470.977V293.712H469.537V300.138C469.537 301.362 468.421 301.92 467.287 301.92C465.901 301.92 465.163 301.074 465.163 299.418V293.712H463.723V299.67C463.723 301.92 464.947 303.216 466.855 303.216C468.403 303.216 469.105 302.37 469.465 301.488H469.537V303ZM476.834 303.216C478.958 303.216 480.272 302.118 480.272 300.318C480.272 298.914 479.48 298.014 477.428 297.708L476.708 297.6C475.556 297.42 474.926 297.06 474.926 296.16C474.926 295.278 475.556 294.72 476.744 294.72C477.932 294.72 478.724 295.278 479.138 295.854L480.092 294.99C479.336 294.054 478.346 293.496 476.852 293.496C474.962 293.496 473.54 294.396 473.54 296.232C473.54 297.96 474.818 298.662 476.528 298.914L477.266 299.022C478.49 299.202 478.886 299.76 478.886 300.48C478.886 301.434 478.166 301.992 476.942 301.992C475.772 301.992 474.908 301.47 474.188 300.57L473.162 301.398C473.99 302.496 475.124 303.216 476.834 303.216ZM483.535 291.534C484.147 291.534 484.417 291.21 484.417 290.724V290.49C484.417 290.004 484.147 289.68 483.535 289.68C482.923 289.68 482.653 290.004 482.653 290.49V290.724C482.653 291.21 482.923 291.534 483.535 291.534ZM482.815 303H484.255V293.712H482.815V303ZM488.755 303V296.556C488.755 295.368 489.871 294.792 491.023 294.792C492.409 294.792 493.129 295.638 493.129 297.294V303H494.569V297.042C494.569 294.792 493.363 293.496 491.455 293.496C490.069 293.496 489.277 294.18 488.827 295.224H488.755V293.712H487.315V303H488.755ZM505.376 304.026C505.376 302.496 504.386 301.56 502.082 301.56H500.102C499.256 301.56 498.68 301.416 498.68 300.858C498.68 300.282 499.292 299.976 499.904 299.814C500.174 299.868 500.498 299.904 500.804 299.904C502.928 299.904 504.314 298.59 504.314 296.7C504.314 295.71 503.918 294.882 503.252 294.306V293.712H505.016V292.452H503.63C502.856 292.452 502.55 292.974 502.55 293.694V293.856C502.046 293.622 501.452 293.496 500.786 293.496C498.68 293.496 497.294 294.81 497.294 296.7C497.294 297.996 497.942 299.022 499.04 299.544V299.616C498.104 299.85 497.438 300.3 497.438 301.236C497.438 301.866 497.744 302.28 498.266 302.532V302.73C497.348 302.982 496.79 303.522 496.79 304.53C496.79 305.988 497.978 306.816 500.876 306.816C503.864 306.816 505.376 305.934 505.376 304.026ZM504.026 304.134C504.026 305.142 503.09 305.646 501.488 305.646H500.156C498.698 305.646 498.14 304.98 498.14 304.17C498.14 303.594 498.41 303.18 499.004 302.91H502.1C503.54 302.91 504.026 303.396 504.026 304.134ZM500.804 298.752C499.58 298.752 498.806 298.176 498.806 296.952V296.448C498.806 295.224 499.58 294.648 500.804 294.648C502.028 294.648 502.802 295.224 502.802 296.448V296.952C502.802 298.176 502.028 298.752 500.804 298.752ZM518.923 304.692H516.997V303.162C519.751 302.784 521.479 300.552 521.479 296.718C521.479 292.506 519.391 290.22 516.151 290.22C512.911 290.22 510.823 292.506 510.823 296.718C510.823 300.66 512.659 302.928 515.557 303.198V304.476C515.557 305.322 516.079 305.952 517.069 305.952H518.923V304.692ZM516.151 301.866C513.973 301.866 512.443 300.246 512.443 297.762V295.674C512.443 293.19 513.973 291.57 516.151 291.57C518.329 291.57 519.859 293.19 519.859 295.674V297.762C519.859 300.246 518.329 301.866 516.151 301.866ZM524.773 291.534C525.385 291.534 525.655 291.21 525.655 290.724V290.49C525.655 290.004 525.385 289.68 524.773 289.68C524.161 289.68 523.891 290.004 523.891 290.49V290.724C523.891 291.21 524.161 291.534 524.773 291.534ZM524.053 303H525.493V293.712H524.053V303ZM531.343 303.216C533.467 303.216 534.781 302.118 534.781 300.318C534.781 298.914 533.989 298.014 531.937 297.708L531.217 297.6C530.065 297.42 529.435 297.06 529.435 296.16C529.435 295.278 530.065 294.72 531.253 294.72C532.441 294.72 533.233 295.278 533.647 295.854L534.601 294.99C533.845 294.054 532.855 293.496 531.361 293.496C529.471 293.496 528.049 294.396 528.049 296.232C528.049 297.96 529.327 298.662 531.037 298.914L531.775 299.022C532.999 299.202 533.395 299.76 533.395 300.48C533.395 301.434 532.675 301.992 531.451 301.992C530.281 301.992 529.417 301.47 528.697 300.57L527.671 301.398C528.499 302.496 529.633 303.216 531.343 303.216ZM537.325 303H538.765V299.688L540.151 298.266L543.229 303H544.975L541.195 297.384L544.633 293.712H542.887L540.259 296.538L538.837 298.122H538.765V289.68H537.325V303ZM547.537 291.534C548.149 291.534 548.419 291.21 548.419 290.724V290.49C548.419 290.004 548.149 289.68 547.537 289.68C546.925 289.68 546.655 290.004 546.655 290.49V290.724C546.655 291.21 546.925 291.534 547.537 291.534ZM546.817 303H548.257V293.712H546.817V303ZM555.169 303V301.74H553.279V294.972H555.313V293.712H553.279V291.138H551.983V292.866C551.983 293.496 551.785 293.712 551.173 293.712H550.309V294.972H551.839V301.47C551.839 302.37 552.379 303 553.369 303H555.169ZM361.002 325.6H363.936L366.654 331H368.364L365.484 325.456C367.122 325.078 368.004 323.836 368.004 322C368.004 319.714 366.69 318.436 364.494 318.436H359.49V331H361.002V325.6ZM361.002 324.304V319.768H364.494C365.682 319.768 366.384 320.416 366.384 321.568V322.504C366.384 323.656 365.682 324.304 364.494 324.304H361.002ZM376.584 331H378.024V321.712H376.584V328.138C376.584 329.362 375.468 329.92 374.334 329.92C372.948 329.92 372.21 329.074 372.21 327.418V321.712H370.77V327.67C370.77 329.92 371.994 331.216 373.902 331.216C375.45 331.216 376.152 330.37 376.512 329.488H376.584V331ZM382.531 331V324.556C382.531 323.368 383.647 322.792 384.799 322.792C386.185 322.792 386.905 323.638 386.905 325.294V331H388.345V325.042C388.345 322.792 387.139 321.496 385.231 321.496C383.845 321.496 383.053 322.18 382.603 323.224H382.531V321.712H381.091V331H382.531ZM395.173 331V329.74H393.283V322.972H395.317V321.712H393.283V319.138H391.987V320.866C391.987 321.496 391.789 321.712 391.177 321.712H390.313V322.972H391.843V329.47C391.843 330.37 392.383 331 393.373 331H395.173ZM398.352 319.534C398.964 319.534 399.234 319.21 399.234 318.724V318.49C399.234 318.004 398.964 317.68 398.352 317.68C397.74 317.68 397.47 318.004 397.47 318.49V318.724C397.47 319.21 397.74 319.534 398.352 319.534ZM397.632 331H399.072V321.712H397.632V331ZM403.572 331V324.556C403.572 323.368 404.652 322.792 405.786 322.792C407.154 322.792 407.784 323.638 407.784 325.294V331H409.224V324.556C409.224 323.368 410.268 322.792 411.402 322.792C412.806 322.792 413.436 323.656 413.436 325.294V331H414.876V325.042C414.876 322.792 413.742 321.496 411.852 321.496C410.268 321.496 409.368 322.378 409.026 323.386H408.99C408.486 322.054 407.37 321.496 406.146 321.496C404.706 321.496 404.058 322.27 403.644 323.224H403.572V321.712H402.132V331H403.572ZM421.338 331.216C423.084 331.216 424.416 330.352 425.01 329.092L423.984 328.354C423.498 329.38 422.598 329.956 421.428 329.956C419.7 329.956 418.674 328.75 418.674 327.148V326.716H425.352V326.032C425.352 323.404 423.822 321.496 421.338 321.496C418.818 321.496 417.162 323.404 417.162 326.356C417.162 329.308 418.818 331.216 421.338 331.216ZM421.338 322.702C422.814 322.702 423.804 323.8 423.804 325.438V325.636H418.674V325.51C418.674 323.89 419.772 322.702 421.338 322.702Z" fill="white"/>
</svg>
