<svg width="650" height="425" viewBox="0 0 650 425" fill="none" xmlns="http://www.w3.org/2000/svg">
<rect width="650" height="425" fill="white"/>
<path d="M48.1 45V42.26H50.12V40.86H48.1V31.04H45.6L39.76 40.78V42.26H46.5V45H48.1ZM46.4 32.34H46.5V40.86H41.34L46.4 32.34ZM53.7122 45.24C54.5522 45.24 54.9322 44.76 54.9322 44.08V43.82C54.9322 43.14 54.5522 42.66 53.7122 42.66C52.8722 42.66 52.4922 43.14 52.4922 43.82V44.08C52.4922 44.76 52.8722 45.24 53.7122 45.24ZM68.248 45.24C71.848 45.24 74.168 42.7 74.168 38.02C74.168 33.34 71.848 30.8 68.248 30.8C64.648 30.8 62.328 33.34 62.328 38.02C62.328 42.7 64.648 45.24 68.248 45.24ZM68.248 43.74C65.828 43.74 64.128 41.94 64.128 39.18V36.86C64.128 34.1 65.828 32.3 68.248 32.3C70.668 32.3 72.368 34.1 72.368 36.86V39.18C72.368 41.94 70.668 43.74 68.248 43.74ZM77.0281 49H78.6281V43.32H78.7081C79.3281 44.6 80.3081 45.24 81.7281 45.24C84.3081 45.24 85.9281 43.14 85.9281 39.84C85.9281 36.54 84.3081 34.44 81.7281 34.44C80.3081 34.44 79.2481 35.06 78.7081 36.36H78.6281V34.68H77.0281V49ZM81.2881 43.8C79.8281 43.8 78.6281 43.04 78.6281 41.7V37.86C78.6281 36.72 79.8281 35.88 81.2881 35.88C83.0881 35.88 84.2081 37.12 84.2081 38.96V40.72C84.2081 42.56 83.0881 43.8 81.2881 43.8ZM92.7925 45V43.6H90.6925V36.08H92.9525V34.68H90.6925V31.82H89.2525V33.74C89.2525 34.44 89.0325 34.68 88.3525 34.68H87.3925V36.08H89.0925V43.3C89.0925 44.3 89.6925 45 90.7925 45H92.7925ZM96.3242 32.26C97.0042 32.26 97.3042 31.9 97.3042 31.36V31.1C97.3042 30.56 97.0042 30.2 96.3242 30.2C95.6442 30.2 95.3442 30.56 95.3442 31.1V31.36C95.3442 31.9 95.6442 32.26 96.3242 32.26ZM95.5242 45H97.1242V34.68H95.5242V45ZM102.124 45V37.84C102.124 36.52 103.324 35.88 104.584 35.88C106.104 35.88 106.804 36.82 106.804 38.66V45H108.404V37.84C108.404 36.52 109.564 35.88 110.824 35.88C112.384 35.88 113.084 36.84 113.084 38.66V45H114.684V38.38C114.684 35.88 113.424 34.44 111.324 34.44C109.564 34.44 108.564 35.42 108.184 36.54H108.144C107.584 35.06 106.344 34.44 104.984 34.44C103.384 34.44 102.664 35.3 102.204 36.36H102.124V34.68H100.524V45H102.124ZM118.785 32.26C119.465 32.26 119.765 31.9 119.765 31.36V31.1C119.765 30.56 119.465 30.2 118.785 30.2C118.105 30.2 117.805 30.56 117.805 31.1V31.36C117.805 31.9 118.105 32.26 118.785 32.26ZM117.985 45H119.585V34.68H117.985V45ZM129.905 45V43.6H123.765L129.745 35.88V34.68H122.125V36.08H127.805L121.945 43.66V45H129.905ZM135.947 45.24C137.887 45.24 139.367 44.28 140.027 42.88L138.887 42.06C138.347 43.2 137.347 43.84 136.047 43.84C134.127 43.84 132.987 42.5 132.987 40.72V40.24H140.407V39.48C140.407 36.56 138.707 34.44 135.947 34.44C133.147 34.44 131.307 36.56 131.307 39.84C131.307 43.12 133.147 45.24 135.947 45.24ZM135.947 35.78C137.587 35.78 138.687 37 138.687 38.82V39.04H132.987V38.9C132.987 37.1 134.207 35.78 135.947 35.78ZM147.77 49H149.37V43.32H149.45C150.07 44.6 151.05 45.24 152.47 45.24C155.05 45.24 156.67 43.14 156.67 39.84C156.67 36.54 155.05 34.44 152.47 34.44C151.05 34.44 149.99 35.06 149.45 36.36H149.37V34.68H147.77V49ZM152.03 43.8C150.57 43.8 149.37 43.04 149.37 41.7V37.86C149.37 36.72 150.57 35.88 152.03 35.88C153.83 35.88 154.95 37.12 154.95 38.96V40.72C154.95 42.56 153.83 43.8 152.03 43.8ZM167.772 45V43.6H166.592V37.92C166.592 35.74 165.112 34.44 162.632 34.44C160.772 34.44 159.532 35.36 158.972 36.46L159.932 37.36C160.492 36.42 161.312 35.82 162.552 35.82C164.192 35.82 164.992 36.62 164.992 38.08V39.1H162.952C159.952 39.1 158.552 40.18 158.552 42.12C158.552 44.04 159.832 45.24 162.012 45.24C163.452 45.24 164.552 44.58 164.992 43.32H165.092C165.212 44.28 165.692 45 166.872 45H167.772ZM162.272 43.88C161.032 43.88 160.232 43.3 160.232 42.28V41.86C160.232 40.86 161.052 40.3 162.872 40.3H164.992V42C164.992 43.06 163.852 43.88 162.272 43.88ZM171.655 45V38C171.655 37.02 172.695 36.28 174.415 36.28H175.355V34.68H174.735C173.055 34.68 172.115 35.6 171.755 36.58H171.655V34.68H170.055V45H171.655ZM185.721 45V43.6H184.541V37.92C184.541 35.74 183.061 34.44 180.581 34.44C178.721 34.44 177.481 35.36 176.921 36.46L177.881 37.36C178.441 36.42 179.261 35.82 180.501 35.82C182.141 35.82 182.941 36.62 182.941 38.08V39.1H180.901C177.901 39.1 176.501 40.18 176.501 42.12C176.501 44.04 177.781 45.24 179.961 45.24C181.401 45.24 182.501 44.58 182.941 43.32H183.041C183.161 44.28 183.641 45 184.821 45H185.721ZM180.221 43.88C178.981 43.88 178.181 43.3 178.181 42.28V41.86C178.181 40.86 179.001 40.3 180.821 40.3H182.941V42C182.941 43.06 181.801 43.88 180.221 43.88ZM189.605 45V37.84C189.605 36.52 190.805 35.88 192.065 35.88C193.585 35.88 194.285 36.82 194.285 38.66V45H195.885V37.84C195.885 36.52 197.045 35.88 198.305 35.88C199.865 35.88 200.565 36.84 200.565 38.66V45H202.165V38.38C202.165 35.88 200.905 34.44 198.805 34.44C197.045 34.44 196.045 35.42 195.665 36.54H195.625C195.065 35.06 193.825 34.44 192.465 34.44C190.865 34.44 190.145 35.3 189.685 36.36H189.605V34.68H188.005V45H189.605ZM209.346 45.24C211.286 45.24 212.766 44.28 213.426 42.88L212.286 42.06C211.746 43.2 210.746 43.84 209.446 43.84C207.526 43.84 206.386 42.5 206.386 40.72V40.24H213.806V39.48C213.806 36.56 212.106 34.44 209.346 34.44C206.546 34.44 204.706 36.56 204.706 39.84C204.706 43.12 206.546 45.24 209.346 45.24ZM209.346 35.78C210.986 35.78 212.086 37 212.086 38.82V39.04H206.386V38.9C206.386 37.1 207.606 35.78 209.346 35.78ZM220.722 45V43.6H218.622V36.08H220.882V34.68H218.622V31.82H217.182V33.74C217.182 34.44 216.962 34.68 216.282 34.68H215.322V36.08H217.022V43.3C217.022 44.3 217.622 45 218.722 45H220.722ZM227.256 45.24C229.196 45.24 230.676 44.28 231.336 42.88L230.196 42.06C229.656 43.2 228.656 43.84 227.356 43.84C225.436 43.84 224.296 42.5 224.296 40.72V40.24H231.716V39.48C231.716 36.56 230.016 34.44 227.256 34.44C224.456 34.44 222.616 36.56 222.616 39.84C222.616 43.12 224.456 45.24 227.256 45.24ZM227.256 35.78C228.896 35.78 229.996 37 229.996 38.82V39.04H224.296V38.9C224.296 37.1 225.516 35.78 227.256 35.78ZM235.952 45V38C235.952 37.02 236.992 36.28 238.712 36.28H239.652V34.68H239.032C237.352 34.68 236.412 35.6 236.052 36.58H235.952V34.68H234.352V45H235.952ZM244.796 45.24C247.156 45.24 248.616 44.02 248.616 42.02C248.616 40.46 247.736 39.46 245.456 39.12L244.656 39C243.376 38.8 242.676 38.4 242.676 37.4C242.676 36.42 243.376 35.8 244.696 35.8C246.016 35.8 246.896 36.42 247.356 37.06L248.416 36.1C247.576 35.06 246.476 34.44 244.816 34.44C242.716 34.44 241.136 35.44 241.136 37.48C241.136 39.4 242.556 40.18 244.456 40.46L245.276 40.58C246.636 40.78 247.076 41.4 247.076 42.2C247.076 43.26 246.276 43.88 244.916 43.88C243.616 43.88 242.656 43.3 241.856 42.3L240.716 43.22C241.636 44.44 242.896 45.24 244.796 45.24ZM260.449 45V43.6H258.349V36.08H260.609V34.68H258.349V31.82H256.909V33.74C256.909 34.44 256.689 34.68 256.009 34.68H255.049V36.08H256.749V43.3C256.749 44.3 257.349 45 258.449 45H260.449ZM267.002 45.24C269.762 45.24 271.662 43.12 271.662 39.84C271.662 36.56 269.762 34.44 267.002 34.44C264.242 34.44 262.342 36.56 262.342 39.84C262.342 43.12 264.242 45.24 267.002 45.24ZM267.002 43.82C265.282 43.82 264.062 42.76 264.062 40.58V39.1C264.062 36.92 265.282 35.86 267.002 35.86C268.722 35.86 269.942 36.92 269.942 39.1V40.58C269.942 42.76 268.722 43.82 267.002 43.82ZM287.72 46.14C287.72 44.44 286.62 43.4 284.06 43.4H281.86C280.92 43.4 280.28 43.24 280.28 42.62C280.28 41.98 280.96 41.64 281.64 41.46C281.94 41.52 282.3 41.56 282.64 41.56C285 41.56 286.54 40.1 286.54 38C286.54 36.9 286.1 35.98 285.36 35.34V34.68H287.32V33.28H285.78C284.92 33.28 284.58 33.86 284.58 34.66V34.84C284.02 34.58 283.36 34.44 282.62 34.44C280.28 34.44 278.74 35.9 278.74 38C278.74 39.44 279.46 40.58 280.68 41.16V41.24C279.64 41.5 278.9 42 278.9 43.04C278.9 43.74 279.24 44.2 279.82 44.48V44.7C278.8 44.98 278.18 45.58 278.18 46.7C278.18 48.32 279.5 49.24 282.72 49.24C286.04 49.24 287.72 48.26 287.72 46.14ZM286.22 46.26C286.22 47.38 285.18 47.94 283.4 47.94H281.92C280.3 47.94 279.68 47.2 279.68 46.3C279.68 45.66 279.98 45.2 280.64 44.9H284.08C285.68 44.9 286.22 45.44 286.22 46.26ZM282.64 40.28C281.28 40.28 280.42 39.64 280.42 38.28V37.72C280.42 36.36 281.28 35.72 282.64 35.72C284 35.72 284.86 36.36 284.86 37.72V38.28C284.86 39.64 284 40.28 282.64 40.28ZM293.35 45.24C295.29 45.24 296.77 44.28 297.43 42.88L296.29 42.06C295.75 43.2 294.75 43.84 293.45 43.84C291.53 43.84 290.39 42.5 290.39 40.72V40.24H297.81V39.48C297.81 36.56 296.11 34.44 293.35 34.44C290.55 34.44 288.71 36.56 288.71 39.84C288.71 43.12 290.55 45.24 293.35 45.24ZM293.35 35.78C294.99 35.78 296.09 37 296.09 38.82V39.04H290.39V38.9C290.39 37.1 291.61 35.78 293.35 35.78ZM304.726 45V43.6H302.626V36.08H304.886V34.68H302.626V31.82H301.186V33.74C301.186 34.44 300.966 34.68 300.286 34.68H299.326V36.08H301.026V43.3C301.026 44.3 301.626 45 302.726 45H304.726ZM313.784 45V38C313.784 37.02 314.824 36.28 316.544 36.28H317.484V34.68H316.864C315.184 34.68 314.244 35.6 313.884 36.58H313.784V34.68H312.184V45H313.784ZM323.31 45.24C325.25 45.24 326.73 44.28 327.39 42.88L326.25 42.06C325.71 43.2 324.71 43.84 323.41 43.84C321.49 43.84 320.35 42.5 320.35 40.72V40.24H327.77V39.48C327.77 36.56 326.07 34.44 323.31 34.44C320.51 34.44 318.67 36.56 318.67 39.84C318.67 43.12 320.51 45.24 323.31 45.24ZM323.31 35.78C324.95 35.78 326.05 37 326.05 38.82V39.04H320.35V38.9C320.35 37.1 321.57 35.78 323.31 35.78ZM333.507 45.24C335.867 45.24 337.327 44.02 337.327 42.02C337.327 40.46 336.447 39.46 334.167 39.12L333.367 39C332.087 38.8 331.387 38.4 331.387 37.4C331.387 36.42 332.087 35.8 333.407 35.8C334.727 35.8 335.607 36.42 336.067 37.06L337.127 36.1C336.287 35.06 335.187 34.44 333.527 34.44C331.427 34.44 329.847 35.44 329.847 37.48C329.847 39.4 331.267 40.18 333.167 40.46L333.987 40.58C335.347 40.78 335.787 41.4 335.787 42.2C335.787 43.26 334.987 43.88 333.627 43.88C332.327 43.88 331.367 43.3 330.567 42.3L329.427 43.22C330.347 44.44 331.607 45.24 333.507 45.24ZM346.513 45H348.113V34.68H346.513V41.82C346.513 43.18 345.273 43.8 344.013 43.8C342.473 43.8 341.653 42.86 341.653 41.02V34.68H340.053V41.3C340.053 43.8 341.413 45.24 343.533 45.24C345.253 45.24 346.033 44.3 346.433 43.32H346.513V45ZM354.64 45V43.6H353.12V30.2H351.52V43.34C351.52 44.3 352.12 45 353.22 45H354.64ZM361.152 45V43.6H359.052V36.08H361.312V34.68H359.052V31.82H357.612V33.74C357.612 34.44 357.392 34.68 356.712 34.68H355.752V36.08H357.452V43.3C357.452 44.3 358.052 45 359.152 45H361.152Z" fill="#262626"/>
<rect x="38" y="59" width="578" height="344" fill="#0043CE"/>
<rect x="73" y="99" width="240" height="124" fill="#262626"/>
<path d="M92.4904 132H98.1964C100.05 132 101.436 130.434 101.436 128.364C101.436 126.276 99.8704 125.502 98.9704 125.448V125.34C99.7984 125.214 101.004 124.548 101.004 122.676C101.004 120.714 99.7264 119.436 97.6564 119.436H92.4904V132ZM94.0024 126.168H97.7284C99.0244 126.168 99.8164 126.852 99.8164 128.112V128.724C99.8164 129.984 99.0244 130.668 97.7284 130.668H94.0024V126.168ZM94.0024 120.768H97.4764C98.6644 120.768 99.3844 121.398 99.3844 122.514V123.126C99.3844 124.242 98.6644 124.872 97.4764 124.872H94.0024V120.768ZM107.616 132.216C110.1 132.216 111.81 130.308 111.81 127.356C111.81 124.404 110.1 122.496 107.616 122.496C105.132 122.496 103.422 124.404 103.422 127.356C103.422 130.308 105.132 132.216 107.616 132.216ZM107.616 130.938C106.068 130.938 104.97 129.984 104.97 128.022V126.69C104.97 124.728 106.068 123.774 107.616 123.774C109.164 123.774 110.262 124.728 110.262 126.69V128.022C110.262 129.984 109.164 130.938 107.616 130.938ZM117.688 132.216C120.172 132.216 121.882 130.308 121.882 127.356C121.882 124.404 120.172 122.496 117.688 122.496C115.204 122.496 113.494 124.404 113.494 127.356C113.494 130.308 115.204 132.216 117.688 132.216ZM117.688 130.938C116.14 130.938 115.042 129.984 115.042 128.022V126.69C115.042 124.728 116.14 123.774 117.688 123.774C119.236 123.774 120.334 124.728 120.334 126.69V128.022C120.334 129.984 119.236 130.938 117.688 130.938ZM128.103 132V130.74H126.213V123.972H128.247V122.712H126.213V120.138H124.917V121.866C124.917 122.496 124.719 122.712 124.107 122.712H123.243V123.972H124.773V130.47C124.773 131.37 125.313 132 126.303 132H128.103ZM133.351 132.216C135.475 132.216 136.789 131.118 136.789 129.318C136.789 127.914 135.997 127.014 133.945 126.708L133.225 126.6C132.073 126.42 131.443 126.06 131.443 125.16C131.443 124.278 132.073 123.72 133.261 123.72C134.449 123.72 135.241 124.278 135.655 124.854L136.609 123.99C135.853 123.054 134.863 122.496 133.369 122.496C131.479 122.496 130.057 123.396 130.057 125.232C130.057 126.96 131.335 127.662 133.045 127.914L133.783 128.022C135.007 128.202 135.403 128.76 135.403 129.48C135.403 130.434 134.683 130.992 133.459 130.992C132.289 130.992 131.425 130.47 130.705 129.57L129.679 130.398C130.507 131.496 131.641 132.216 133.351 132.216ZM143.062 132V130.74H141.172V123.972H143.206V122.712H141.172V120.138H139.876V121.866C139.876 122.496 139.678 122.712 139.066 122.712H138.202V123.972H139.732V130.47C139.732 131.37 140.272 132 141.262 132H143.062ZM146.96 132V125.7C146.96 124.818 147.896 124.152 149.444 124.152H150.29V122.712H149.732C148.22 122.712 147.374 123.54 147.05 124.422H146.96V122.712H145.52V132H146.96ZM159.619 132V130.74H158.557V125.628C158.557 123.666 157.225 122.496 154.993 122.496C153.319 122.496 152.203 123.324 151.699 124.314L152.563 125.124C153.067 124.278 153.805 123.738 154.921 123.738C156.397 123.738 157.117 124.458 157.117 125.772V126.69H155.281C152.581 126.69 151.321 127.662 151.321 129.408C151.321 131.136 152.473 132.216 154.435 132.216C155.731 132.216 156.721 131.622 157.117 130.488H157.207C157.315 131.352 157.747 132 158.809 132H159.619ZM154.669 130.992C153.553 130.992 152.833 130.47 152.833 129.552V129.174C152.833 128.274 153.571 127.77 155.209 127.77H157.117V129.3C157.117 130.254 156.091 130.992 154.669 130.992ZM161.675 135.6H163.115V130.488H163.187C163.745 131.64 164.627 132.216 165.905 132.216C168.227 132.216 169.685 130.326 169.685 127.356C169.685 124.386 168.227 122.496 165.905 122.496C164.627 122.496 163.673 123.054 163.187 124.224H163.115V122.712H161.675V135.6ZM165.509 130.92C164.195 130.92 163.115 130.236 163.115 129.03V125.574C163.115 124.548 164.195 123.792 165.509 123.792C167.129 123.792 168.137 124.908 168.137 126.564V128.148C168.137 129.804 167.129 130.92 165.509 130.92ZM172.116 135.6H173.556V130.488H173.628C174.186 131.64 175.068 132.216 176.346 132.216C178.668 132.216 180.126 130.326 180.126 127.356C180.126 124.386 178.668 122.496 176.346 122.496C175.068 122.496 174.114 123.054 173.628 124.224H173.556V122.712H172.116V135.6ZM175.95 130.92C174.636 130.92 173.556 130.236 173.556 129.03V125.574C173.556 124.548 174.636 123.792 175.95 123.792C177.57 123.792 178.578 124.908 178.578 126.564V128.148C178.578 129.804 177.57 130.92 175.95 130.92ZM183.277 120.534C183.889 120.534 184.159 120.21 184.159 119.724V119.49C184.159 119.004 183.889 118.68 183.277 118.68C182.665 118.68 182.395 119.004 182.395 119.49V119.724C182.395 120.21 182.665 120.534 183.277 120.534ZM182.557 132H183.997V122.712H182.557V132ZM188.497 132V125.556C188.497 124.368 189.613 123.792 190.765 123.792C192.151 123.792 192.871 124.638 192.871 126.294V132H194.311V126.042C194.311 123.792 193.105 122.496 191.197 122.496C189.811 122.496 189.019 123.18 188.569 124.224H188.497V122.712H187.057V132H188.497ZM205.118 133.026C205.118 131.496 204.128 130.56 201.824 130.56H199.844C198.998 130.56 198.422 130.416 198.422 129.858C198.422 129.282 199.034 128.976 199.646 128.814C199.916 128.868 200.24 128.904 200.546 128.904C202.67 128.904 204.056 127.59 204.056 125.7C204.056 124.71 203.66 123.882 202.994 123.306V122.712H204.758V121.452H203.372C202.598 121.452 202.292 121.974 202.292 122.694V122.856C201.788 122.622 201.194 122.496 200.528 122.496C198.422 122.496 197.036 123.81 197.036 125.7C197.036 126.996 197.684 128.022 198.782 128.544V128.616C197.846 128.85 197.18 129.3 197.18 130.236C197.18 130.866 197.486 131.28 198.008 131.532V131.73C197.09 131.982 196.532 132.522 196.532 133.53C196.532 134.988 197.72 135.816 200.618 135.816C203.606 135.816 205.118 134.934 205.118 133.026ZM203.768 133.134C203.768 134.142 202.832 134.646 201.23 134.646H199.898C198.44 134.646 197.882 133.98 197.882 133.17C197.882 132.594 198.152 132.18 198.746 131.91H201.842C203.282 131.91 203.768 132.396 203.768 133.134ZM200.546 127.752C199.322 127.752 198.548 127.176 198.548 125.952V125.448C198.548 124.224 199.322 123.648 200.546 123.648C201.77 123.648 202.544 124.224 202.544 125.448V125.952C202.544 127.176 201.77 127.752 200.546 127.752ZM97.1884 160.216C100.428 160.216 102.516 157.93 102.516 153.718C102.516 149.506 100.428 147.22 97.1884 147.22C93.9484 147.22 91.8604 149.506 91.8604 153.718C91.8604 157.93 93.9484 160.216 97.1884 160.216ZM97.1884 158.866C95.0104 158.866 93.4804 157.246 93.4804 154.762V152.674C93.4804 150.19 95.0104 148.57 97.1884 148.57C99.3664 148.57 100.896 150.19 100.896 152.674V154.762C100.896 157.246 99.3664 158.866 97.1884 158.866ZM105.091 163.6H106.531V158.488H106.603C107.161 159.64 108.043 160.216 109.321 160.216C111.643 160.216 113.101 158.326 113.101 155.356C113.101 152.386 111.643 150.496 109.321 150.496C108.043 150.496 107.089 151.054 106.603 152.224H106.531V150.712H105.091V163.6ZM108.925 158.92C107.611 158.92 106.531 158.236 106.531 157.03V153.574C106.531 152.548 107.611 151.792 108.925 151.792C110.545 151.792 111.553 152.908 111.553 154.564V156.148C111.553 157.804 110.545 158.92 108.925 158.92ZM119.278 160V158.74H117.388V151.972H119.422V150.712H117.388V148.138H116.092V149.866C116.092 150.496 115.894 150.712 115.282 150.712H114.418V151.972H115.948V158.47C115.948 159.37 116.488 160 117.478 160H119.278ZM122.457 148.534C123.069 148.534 123.339 148.21 123.339 147.724V147.49C123.339 147.004 123.069 146.68 122.457 146.68C121.845 146.68 121.575 147.004 121.575 147.49V147.724C121.575 148.21 121.845 148.534 122.457 148.534ZM121.737 160H123.177V150.712H121.737V160ZM127.677 160V153.556C127.677 152.368 128.757 151.792 129.891 151.792C131.259 151.792 131.889 152.638 131.889 154.294V160H133.329V153.556C133.329 152.368 134.373 151.792 135.507 151.792C136.911 151.792 137.541 152.656 137.541 154.294V160H138.981V154.042C138.981 151.792 137.847 150.496 135.957 150.496C134.373 150.496 133.473 151.378 133.131 152.386H133.095C132.591 151.054 131.475 150.496 130.251 150.496C128.811 150.496 128.163 151.27 127.749 152.224H127.677V150.712H126.237V160H127.677ZM142.672 148.534C143.284 148.534 143.554 148.21 143.554 147.724V147.49C143.554 147.004 143.284 146.68 142.672 146.68C142.06 146.68 141.79 147.004 141.79 147.49V147.724C141.79 148.21 142.06 148.534 142.672 148.534ZM141.952 160H143.392V150.712H141.952V160ZM152.68 160V158.74H147.154L152.536 151.792V150.712H145.678V151.972H150.79L145.516 158.794V160H152.68ZM162.361 160V158.74H161.299V153.628C161.299 151.666 159.967 150.496 157.735 150.496C156.061 150.496 154.945 151.324 154.441 152.314L155.305 153.124C155.809 152.278 156.547 151.738 157.663 151.738C159.139 151.738 159.859 152.458 159.859 153.772V154.69H158.023C155.323 154.69 154.063 155.662 154.063 157.408C154.063 159.136 155.215 160.216 157.177 160.216C158.473 160.216 159.463 159.622 159.859 158.488H159.949C160.057 159.352 160.489 160 161.551 160H162.361ZM157.411 158.992C156.295 158.992 155.575 158.47 155.575 157.552V157.174C155.575 156.274 156.313 155.77 157.951 155.77H159.859V157.3C159.859 158.254 158.833 158.992 157.411 158.992ZM168.269 160V158.74H166.379V151.972H168.413V150.712H166.379V148.138H165.083V149.866C165.083 150.496 164.885 150.712 164.273 150.712H163.409V151.972H164.939V158.47C164.939 159.37 165.479 160 166.469 160H168.269ZM171.447 148.534C172.059 148.534 172.329 148.21 172.329 147.724V147.49C172.329 147.004 172.059 146.68 171.447 146.68C170.835 146.68 170.565 147.004 170.565 147.49V147.724C170.565 148.21 170.835 148.534 171.447 148.534ZM170.727 160H172.167V150.712H170.727V160ZM178.737 160.216C181.221 160.216 182.931 158.308 182.931 155.356C182.931 152.404 181.221 150.496 178.737 150.496C176.253 150.496 174.543 152.404 174.543 155.356C174.543 158.308 176.253 160.216 178.737 160.216ZM178.737 158.938C177.189 158.938 176.091 157.984 176.091 156.022V154.69C176.091 152.728 177.189 151.774 178.737 151.774C180.285 151.774 181.383 152.728 181.383 154.69V156.022C181.383 157.984 180.285 158.938 178.737 158.938ZM186.74 160V153.556C186.74 152.368 187.856 151.792 189.008 151.792C190.394 151.792 191.114 152.638 191.114 154.294V160H192.554V154.042C192.554 151.792 191.348 150.496 189.44 150.496C188.054 150.496 187.262 151.18 186.812 152.224H186.74V150.712H185.3V160H186.74Z" fill="white"/>
<rect x="340" y="99" width="240" height="124" fill="#262626"/>
<path d="M366.348 132V130.668H361.002V119.436H359.49V132H366.348ZM371.698 132.216C374.182 132.216 375.892 130.308 375.892 127.356C375.892 124.404 374.182 122.496 371.698 122.496C369.214 122.496 367.504 124.404 367.504 127.356C367.504 130.308 369.214 132.216 371.698 132.216ZM371.698 130.938C370.15 130.938 369.052 129.984 369.052 128.022V126.69C369.052 124.728 370.15 123.774 371.698 123.774C373.246 123.774 374.344 124.728 374.344 126.69V128.022C374.344 129.984 373.246 130.938 371.698 130.938ZM381.716 132.216C383.48 132.216 384.686 131.352 385.28 130.02L384.236 129.318C383.732 130.38 382.886 130.938 381.716 130.938C380.006 130.938 379.124 129.768 379.124 128.148V126.564C379.124 124.944 380.006 123.774 381.716 123.774C382.85 123.774 383.642 124.332 383.984 125.286L385.19 124.674C384.65 123.396 383.552 122.496 381.716 122.496C379.106 122.496 377.576 124.386 377.576 127.356C377.576 130.326 379.106 132.216 381.716 132.216ZM394.873 132V130.74H393.811V125.628C393.811 123.666 392.479 122.496 390.247 122.496C388.573 122.496 387.457 123.324 386.953 124.314L387.817 125.124C388.321 124.278 389.059 123.738 390.175 123.738C391.651 123.738 392.371 124.458 392.371 125.772V126.69H390.535C387.835 126.69 386.575 127.662 386.575 129.408C386.575 131.136 387.727 132.216 389.689 132.216C390.985 132.216 391.975 131.622 392.371 130.488H392.461C392.569 131.352 393.001 132 394.063 132H394.873ZM389.923 130.992C388.807 130.992 388.087 130.47 388.087 129.552V129.174C388.087 128.274 388.825 127.77 390.463 127.77H392.371V129.3C392.371 130.254 391.345 130.992 389.923 130.992ZM399.736 132V130.74H398.368V118.68H396.928V130.506C396.928 131.37 397.468 132 398.458 132H399.736ZM413.647 132V130.74H412.585V125.628C412.585 123.666 411.253 122.496 409.021 122.496C407.347 122.496 406.231 123.324 405.727 124.314L406.591 125.124C407.095 124.278 407.833 123.738 408.949 123.738C410.425 123.738 411.145 124.458 411.145 125.772V126.69H409.309C406.609 126.69 405.349 127.662 405.349 129.408C405.349 131.136 406.501 132.216 408.463 132.216C409.759 132.216 410.749 131.622 411.145 130.488H411.235C411.343 131.352 411.775 132 412.837 132H413.647ZM408.697 130.992C407.581 130.992 406.861 130.47 406.861 129.552V129.174C406.861 128.274 407.599 127.77 409.237 127.77H411.145V129.3C411.145 130.254 410.119 130.992 408.697 130.992ZM417.142 132V125.556C417.142 124.368 418.258 123.792 419.41 123.792C420.796 123.792 421.516 124.638 421.516 126.294V132H422.956V126.042C422.956 123.792 421.75 122.496 419.842 122.496C418.456 122.496 417.664 123.18 417.214 124.224H417.142V122.712H415.702V132H417.142ZM431.872 132H433.312V118.68H431.872V124.224H431.8C431.314 123.054 430.36 122.496 429.082 122.496C426.76 122.496 425.302 124.386 425.302 127.356C425.302 130.326 426.76 132.216 429.082 132.216C430.36 132.216 431.242 131.64 431.8 130.488H431.872V132ZM429.478 130.92C427.858 130.92 426.85 129.804 426.85 128.148V126.564C426.85 124.908 427.858 123.792 429.478 123.792C430.792 123.792 431.872 124.548 431.872 125.574V129.03C431.872 130.236 430.792 130.92 429.478 130.92ZM448.908 132H450.312V125.538H446.064V126.87H448.836V128.112C448.836 129.966 447.378 130.866 445.632 130.866C443.238 130.866 441.762 129.21 441.762 126.726V124.692C441.762 122.208 443.274 120.57 445.488 120.57C447.072 120.57 448.242 121.398 448.818 122.73L450.06 121.974C449.25 120.336 447.738 119.22 445.488 119.22C442.266 119.22 440.142 121.542 440.142 125.718C440.142 129.93 442.284 132.216 445.362 132.216C447.27 132.216 448.548 131.334 448.854 130.164H448.908V132ZM455.951 132V130.74H454.583V118.68H453.143V130.506C453.143 131.37 453.683 132 454.673 132H455.951ZM461.558 132.216C464.042 132.216 465.752 130.308 465.752 127.356C465.752 124.404 464.042 122.496 461.558 122.496C459.074 122.496 457.364 124.404 457.364 127.356C457.364 130.308 459.074 132.216 461.558 132.216ZM461.558 130.938C460.01 130.938 458.912 129.984 458.912 128.022V126.69C458.912 124.728 460.01 123.774 461.558 123.774C463.106 123.774 464.204 124.728 464.204 126.69V128.022C464.204 129.984 463.106 130.938 461.558 130.938ZM468.12 132H469.56V130.488H469.632C470.19 131.64 471.072 132.216 472.35 132.216C474.672 132.216 476.13 130.326 476.13 127.356C476.13 124.386 474.672 122.496 472.35 122.496C471.072 122.496 470.118 123.054 469.632 124.224H469.56V118.68H468.12V132ZM471.954 130.92C470.64 130.92 469.56 130.236 469.56 129.03V125.574C469.56 124.548 470.64 123.792 471.954 123.792C473.574 123.792 474.582 124.908 474.582 126.564V128.148C474.582 129.804 473.574 130.92 471.954 130.92ZM486.121 132V130.74H485.059V125.628C485.059 123.666 483.727 122.496 481.495 122.496C479.821 122.496 478.705 123.324 478.201 124.314L479.065 125.124C479.569 124.278 480.307 123.738 481.423 123.738C482.899 123.738 483.619 124.458 483.619 125.772V126.69H481.783C479.083 126.69 477.823 127.662 477.823 129.408C477.823 131.136 478.975 132.216 480.937 132.216C482.233 132.216 483.223 131.622 483.619 130.488H483.709C483.817 131.352 484.249 132 485.311 132H486.121ZM481.171 130.992C480.055 130.992 479.335 130.47 479.335 129.552V129.174C479.335 128.274 480.073 127.77 481.711 127.77H483.619V129.3C483.619 130.254 482.593 130.992 481.171 130.992ZM490.984 132V130.74H489.616V118.68H488.176V130.506C488.176 131.37 488.716 132 489.706 132H490.984ZM364.188 160.216C367.428 160.216 369.516 157.93 369.516 153.718C369.516 149.506 367.428 147.22 364.188 147.22C360.948 147.22 358.86 149.506 358.86 153.718C358.86 157.93 360.948 160.216 364.188 160.216ZM364.188 158.866C362.01 158.866 360.48 157.246 360.48 154.762V152.674C360.48 150.19 362.01 148.57 364.188 148.57C366.366 148.57 367.896 150.19 367.896 152.674V154.762C367.896 157.246 366.366 158.866 364.188 158.866ZM372.091 163.6H373.531V158.488H373.603C374.161 159.64 375.043 160.216 376.321 160.216C378.643 160.216 380.101 158.326 380.101 155.356C380.101 152.386 378.643 150.496 376.321 150.496C375.043 150.496 374.089 151.054 373.603 152.224H373.531V150.712H372.091V163.6ZM375.925 158.92C374.611 158.92 373.531 158.236 373.531 157.03V153.574C373.531 152.548 374.611 151.792 375.925 151.792C377.545 151.792 378.553 152.908 378.553 154.564V156.148C378.553 157.804 377.545 158.92 375.925 158.92ZM386.278 160V158.74H384.388V151.972H386.422V150.712H384.388V148.138H383.092V149.866C383.092 150.496 382.894 150.712 382.282 150.712H381.418V151.972H382.948V158.47C382.948 159.37 383.488 160 384.478 160H386.278ZM389.457 148.534C390.069 148.534 390.339 148.21 390.339 147.724V147.49C390.339 147.004 390.069 146.68 389.457 146.68C388.845 146.68 388.575 147.004 388.575 147.49V147.724C388.575 148.21 388.845 148.534 389.457 148.534ZM388.737 160H390.177V150.712H388.737V160ZM394.677 160V153.556C394.677 152.368 395.757 151.792 396.891 151.792C398.259 151.792 398.889 152.638 398.889 154.294V160H400.329V153.556C400.329 152.368 401.373 151.792 402.507 151.792C403.911 151.792 404.541 152.656 404.541 154.294V160H405.981V154.042C405.981 151.792 404.847 150.496 402.957 150.496C401.373 150.496 400.473 151.378 400.131 152.386H400.095C399.591 151.054 398.475 150.496 397.251 150.496C395.811 150.496 395.163 151.27 394.749 152.224H394.677V150.712H393.237V160H394.677ZM415.18 160V158.74H409.654L415.036 151.792V150.712H408.178V151.972H413.29L408.016 158.794V160H415.18ZM420.618 160.216C422.364 160.216 423.696 159.352 424.29 158.092L423.264 157.354C422.778 158.38 421.878 158.956 420.708 158.956C418.98 158.956 417.954 157.75 417.954 156.148V155.716H424.632V155.032C424.632 152.404 423.102 150.496 420.618 150.496C418.098 150.496 416.442 152.404 416.442 155.356C416.442 158.308 418.098 160.216 420.618 160.216ZM420.618 151.702C422.094 151.702 423.084 152.8 423.084 154.438V154.636H417.954V154.51C417.954 152.89 419.052 151.702 420.618 151.702ZM428.445 160V153.7C428.445 152.818 429.381 152.152 430.929 152.152H431.775V150.712H431.217C429.705 150.712 428.859 151.54 428.535 152.422H428.445V150.712H427.005V160H428.445ZM436.404 160.216C438.528 160.216 439.842 159.118 439.842 157.318C439.842 155.914 439.05 155.014 436.998 154.708L436.278 154.6C435.126 154.42 434.496 154.06 434.496 153.16C434.496 152.278 435.126 151.72 436.314 151.72C437.502 151.72 438.294 152.278 438.708 152.854L439.662 151.99C438.906 151.054 437.916 150.496 436.422 150.496C434.532 150.496 433.11 151.396 433.11 153.232C433.11 154.96 434.388 155.662 436.098 155.914L436.836 156.022C438.06 156.202 438.456 156.76 438.456 157.48C438.456 158.434 437.736 158.992 436.512 158.992C435.342 158.992 434.478 158.47 433.758 157.57L432.732 158.398C433.56 159.496 434.694 160.216 436.404 160.216Z" fill="white"/>
<rect x="73" y="243" width="240" height="124" fill="#262626"/>
<path d="M92.4904 276H98.1964C100.05 276 101.436 274.434 101.436 272.364C101.436 270.276 99.8704 269.502 98.9704 269.448V269.34C99.7984 269.214 101.004 268.548 101.004 266.676C101.004 264.714 99.7264 263.436 97.6564 263.436H92.4904V276ZM94.0024 270.168H97.7284C99.0244 270.168 99.8164 270.852 99.8164 272.112V272.724C99.8164 273.984 99.0244 274.668 97.7284 274.668H94.0024V270.168ZM94.0024 264.768H97.4764C98.6644 264.768 99.3844 265.398 99.3844 266.514V267.126C99.3844 268.242 98.6644 268.872 97.4764 268.872H94.0024V264.768ZM111.666 276V274.74H110.604V269.628C110.604 267.666 109.272 266.496 107.04 266.496C105.366 266.496 104.25 267.324 103.746 268.314L104.61 269.124C105.114 268.278 105.852 267.738 106.968 267.738C108.444 267.738 109.164 268.458 109.164 269.772V270.69H107.328C104.628 270.69 103.368 271.662 103.368 273.408C103.368 275.136 104.52 276.216 106.482 276.216C107.778 276.216 108.768 275.622 109.164 274.488H109.254C109.362 275.352 109.794 276 110.856 276H111.666ZM106.716 274.992C105.6 274.992 104.88 274.47 104.88 273.552V273.174C104.88 272.274 105.618 271.77 107.256 271.77H109.164V273.3C109.164 274.254 108.138 274.992 106.716 274.992ZM115.161 276V269.7C115.161 268.818 116.097 268.152 117.645 268.152H118.491V266.712H117.933C116.421 266.712 115.575 267.54 115.251 268.422H115.161V266.712H113.721V276H115.161ZM121.771 276V269.7C121.771 268.818 122.707 268.152 124.255 268.152H125.101V266.712H124.543C123.031 266.712 122.185 267.54 121.861 268.422H121.771V266.712H120.331V276H121.771ZM130.344 276.216C132.09 276.216 133.422 275.352 134.016 274.092L132.99 273.354C132.504 274.38 131.604 274.956 130.434 274.956C128.706 274.956 127.68 273.75 127.68 272.148V271.716H134.358V271.032C134.358 268.404 132.828 266.496 130.344 266.496C127.824 266.496 126.168 268.404 126.168 271.356C126.168 274.308 127.824 276.216 130.344 276.216ZM130.344 267.702C131.82 267.702 132.81 268.8 132.81 270.438V270.636H127.68V270.51C127.68 268.89 128.778 267.702 130.344 267.702ZM138.171 276V269.556C138.171 268.368 139.287 267.792 140.439 267.792C141.825 267.792 142.545 268.638 142.545 270.294V276H143.985V270.042C143.985 267.792 142.779 266.496 140.871 266.496C139.485 266.496 138.693 267.18 138.243 268.224H138.171V266.712H136.731V276H138.171ZM152.872 276V270.636H156.364C158.614 270.636 159.874 269.25 159.874 267.036C159.874 264.822 158.614 263.436 156.364 263.436H151.36V276H152.872ZM152.872 264.768H156.364C157.552 264.768 158.254 265.416 158.254 266.568V267.504C158.254 268.656 157.552 269.304 156.364 269.304H152.872V264.768ZM164.94 276V274.74H163.572V262.68H162.132V274.506C162.132 275.37 162.672 276 163.662 276H164.94ZM174.596 276V274.74H173.534V269.628C173.534 267.666 172.202 266.496 169.97 266.496C168.296 266.496 167.18 267.324 166.676 268.314L167.54 269.124C168.044 268.278 168.782 267.738 169.898 267.738C171.374 267.738 172.094 268.458 172.094 269.772V270.69H170.258C167.558 270.69 166.298 271.662 166.298 273.408C166.298 275.136 167.45 276.216 169.412 276.216C170.708 276.216 171.698 275.622 172.094 274.488H172.184C172.292 275.352 172.724 276 173.786 276H174.596ZM169.646 274.992C168.53 274.992 167.81 274.47 167.81 273.552V273.174C167.81 272.274 168.548 271.77 170.186 271.77H172.094V273.3C172.094 274.254 171.068 274.992 169.646 274.992ZM180.503 276V274.74H178.613V267.972H180.647V266.712H178.613V264.138H177.317V265.866C177.317 266.496 177.119 266.712 176.507 266.712H175.643V267.972H177.173V274.47C177.173 275.37 177.713 276 178.703 276H180.503ZM186.383 276.216C188.129 276.216 189.461 275.352 190.055 274.092L189.029 273.354C188.543 274.38 187.643 274.956 186.473 274.956C184.745 274.956 183.719 273.75 183.719 272.148V271.716H190.397V271.032C190.397 268.404 188.867 266.496 186.383 266.496C183.863 266.496 182.207 268.404 182.207 271.356C182.207 274.308 183.863 276.216 186.383 276.216ZM186.383 267.702C187.859 267.702 188.849 268.8 188.849 270.438V270.636H183.719V270.51C183.719 268.89 184.817 267.702 186.383 267.702ZM200.33 276V274.74H199.268V269.628C199.268 267.666 197.936 266.496 195.704 266.496C194.03 266.496 192.914 267.324 192.41 268.314L193.274 269.124C193.778 268.278 194.516 267.738 195.632 267.738C197.108 267.738 197.828 268.458 197.828 269.772V270.69H195.992C193.292 270.69 192.032 271.662 192.032 273.408C192.032 275.136 193.184 276.216 195.146 276.216C196.442 276.216 197.432 275.622 197.828 274.488H197.918C198.026 275.352 198.458 276 199.52 276H200.33ZM195.38 274.992C194.264 274.992 193.544 274.47 193.544 273.552V273.174C193.544 272.274 194.282 271.77 195.92 271.77H197.828V273.3C197.828 274.254 196.802 274.992 195.38 274.992ZM208.109 276H209.549V266.712H208.109V273.138C208.109 274.362 206.993 274.92 205.859 274.92C204.473 274.92 203.735 274.074 203.735 272.418V266.712H202.295V272.67C202.295 274.92 203.519 276.216 205.427 276.216C206.975 276.216 207.677 275.37 208.037 274.488H208.109V276ZM215.406 276.216C217.53 276.216 218.844 275.118 218.844 273.318C218.844 271.914 218.052 271.014 216 270.708L215.28 270.6C214.128 270.42 213.498 270.06 213.498 269.16C213.498 268.278 214.128 267.72 215.316 267.72C216.504 267.72 217.296 268.278 217.71 268.854L218.664 267.99C217.908 267.054 216.918 266.496 215.424 266.496C213.534 266.496 212.112 267.396 212.112 269.232C212.112 270.96 213.39 271.662 215.1 271.914L215.838 272.022C217.062 272.202 217.458 272.76 217.458 273.48C217.458 274.434 216.738 274.992 215.514 274.992C214.344 274.992 213.48 274.47 212.76 273.57L211.734 274.398C212.562 275.496 213.696 276.216 215.406 276.216Z" fill="white"/>
<rect x="340" y="242" width="240" height="124" fill="#262626"/>
<path d="M367.626 275H369.03V268.538H364.782V269.87H367.554V271.112C367.554 272.966 366.096 273.866 364.35 273.866C361.956 273.866 360.48 272.21 360.48 269.726V267.692C360.48 265.208 361.992 263.57 364.206 263.57C365.79 263.57 366.96 264.398 367.536 265.73L368.778 264.974C367.968 263.336 366.456 262.22 364.206 262.22C360.984 262.22 358.86 264.542 358.86 268.718C358.86 272.93 361.002 275.216 364.08 275.216C365.988 275.216 367.266 274.334 367.572 273.164H367.626V275ZM373.302 275V268.7C373.302 267.818 374.238 267.152 375.786 267.152H376.632V265.712H376.074C374.562 265.712 373.716 266.54 373.392 267.422H373.302V265.712H371.862V275H373.302ZM385.961 275V273.74H384.899V268.628C384.899 266.666 383.567 265.496 381.335 265.496C379.661 265.496 378.545 266.324 378.041 267.314L378.905 268.124C379.409 267.278 380.147 266.738 381.263 266.738C382.739 266.738 383.459 267.458 383.459 268.772V269.69H381.623C378.923 269.69 377.663 270.662 377.663 272.408C377.663 274.136 378.815 275.216 380.777 275.216C382.073 275.216 383.063 274.622 383.459 273.488H383.549C383.657 274.352 384.089 275 385.151 275H385.961ZM381.011 273.992C379.895 273.992 379.175 273.47 379.175 272.552V272.174C379.175 271.274 379.913 270.77 381.551 270.77H383.459V272.3C383.459 273.254 382.433 273.992 381.011 273.992ZM393.956 275H395.396V261.68H393.956V267.224H393.884C393.398 266.054 392.444 265.496 391.166 265.496C388.844 265.496 387.386 267.386 387.386 270.356C387.386 273.326 388.844 275.216 391.166 275.216C392.444 275.216 393.326 274.64 393.884 273.488H393.956V275ZM391.562 273.92C389.942 273.92 388.934 272.804 388.934 271.148V269.564C388.934 267.908 389.942 266.792 391.562 266.792C392.876 266.792 393.956 267.548 393.956 268.574V272.03C393.956 273.236 392.876 273.92 391.562 273.92ZM399.178 263.534C399.79 263.534 400.06 263.21 400.06 262.724V262.49C400.06 262.004 399.79 261.68 399.178 261.68C398.566 261.68 398.296 262.004 398.296 262.49V262.724C398.296 263.21 398.566 263.534 399.178 263.534ZM398.458 275H399.898V265.712H398.458V275ZM406.45 275.216C408.196 275.216 409.528 274.352 410.122 273.092L409.096 272.354C408.61 273.38 407.71 273.956 406.54 273.956C404.812 273.956 403.786 272.75 403.786 271.148V270.716H410.464V270.032C410.464 267.404 408.934 265.496 406.45 265.496C403.93 265.496 402.274 267.404 402.274 270.356C402.274 273.308 403.93 275.216 406.45 275.216ZM406.45 266.702C407.926 266.702 408.916 267.8 408.916 269.438V269.636H403.786V269.51C403.786 267.89 404.884 266.702 406.45 266.702ZM414.277 275V268.556C414.277 267.368 415.393 266.792 416.545 266.792C417.931 266.792 418.651 267.638 418.651 269.294V275H420.091V269.042C420.091 266.792 418.885 265.496 416.977 265.496C415.591 265.496 414.799 266.18 414.349 267.224H414.277V265.712H412.837V275H414.277ZM426.919 275V273.74H425.029V266.972H427.063V265.712H425.029V263.138H423.733V264.866C423.733 265.496 423.535 265.712 422.923 265.712H422.059V266.972H423.589V273.47C423.589 274.37 424.129 275 425.119 275H426.919ZM433.436 270.302V268.754H428.738V270.302H433.436ZM436.36 275H442.066C443.92 275 445.306 273.434 445.306 271.364C445.306 269.276 443.74 268.502 442.84 268.448V268.34C443.668 268.214 444.874 267.548 444.874 265.676C444.874 263.714 443.596 262.436 441.526 262.436H436.36V275ZM437.872 269.168H441.598C442.894 269.168 443.686 269.852 443.686 271.112V271.724C443.686 272.984 442.894 273.668 441.598 273.668H437.872V269.168ZM437.872 263.768H441.346C442.534 263.768 443.254 264.398 443.254 265.514V266.126C443.254 267.242 442.534 267.872 441.346 267.872H437.872V263.768ZM455.535 275V273.74H454.473V268.628C454.473 266.666 453.141 265.496 450.909 265.496C449.235 265.496 448.119 266.324 447.615 267.314L448.479 268.124C448.983 267.278 449.721 266.738 450.837 266.738C452.313 266.738 453.033 267.458 453.033 268.772V269.69H451.197C448.497 269.69 447.237 270.662 447.237 272.408C447.237 274.136 448.389 275.216 450.351 275.216C451.647 275.216 452.637 274.622 453.033 273.488H453.123C453.231 274.352 453.663 275 454.725 275H455.535ZM450.585 273.992C449.469 273.992 448.749 273.47 448.749 272.552V272.174C448.749 271.274 449.487 270.77 451.125 270.77H453.033V272.3C453.033 273.254 452.007 273.992 450.585 273.992ZM460.381 275.216C462.505 275.216 463.819 274.118 463.819 272.318C463.819 270.914 463.027 270.014 460.975 269.708L460.255 269.6C459.103 269.42 458.473 269.06 458.473 268.16C458.473 267.278 459.103 266.72 460.291 266.72C461.479 266.72 462.271 267.278 462.685 267.854L463.639 266.99C462.883 266.054 461.893 265.496 460.399 265.496C458.509 265.496 457.087 266.396 457.087 268.232C457.087 269.96 458.365 270.662 460.075 270.914L460.813 271.022C462.037 271.202 462.433 271.76 462.433 272.48C462.433 273.434 461.713 273.992 460.489 273.992C459.319 273.992 458.455 273.47 457.735 272.57L456.709 273.398C457.537 274.496 458.671 275.216 460.381 275.216ZM469.854 275.216C471.6 275.216 472.932 274.352 473.526 273.092L472.5 272.354C472.014 273.38 471.114 273.956 469.944 273.956C468.216 273.956 467.19 272.75 467.19 271.148V270.716H473.868V270.032C473.868 267.404 472.338 265.496 469.854 265.496C467.334 265.496 465.678 267.404 465.678 270.356C465.678 273.308 467.334 275.216 469.854 275.216ZM469.854 266.702C471.33 266.702 472.32 267.8 472.32 269.438V269.636H467.19V269.51C467.19 267.89 468.288 266.702 469.854 266.702ZM482.181 275H483.621V261.68H482.181V267.224H482.109C481.623 266.054 480.669 265.496 479.391 265.496C477.069 265.496 475.611 267.386 475.611 270.356C475.611 273.326 477.069 275.216 479.391 275.216C480.669 275.216 481.551 274.64 482.109 273.488H482.181V275ZM479.787 273.92C478.167 273.92 477.159 272.804 477.159 271.148V269.564C477.159 267.908 478.167 266.792 479.787 266.792C481.101 266.792 482.181 267.548 482.181 268.574V272.03C482.181 273.236 481.101 273.92 479.787 273.92ZM498.496 275V273.74H497.434V268.628C497.434 266.666 496.102 265.496 493.87 265.496C492.196 265.496 491.08 266.324 490.576 267.314L491.44 268.124C491.944 267.278 492.682 266.738 493.798 266.738C495.274 266.738 495.994 267.458 495.994 268.772V269.69H494.158C491.458 269.69 490.198 270.662 490.198 272.408C490.198 274.136 491.35 275.216 493.312 275.216C494.608 275.216 495.598 274.622 495.994 273.488H496.084C496.192 274.352 496.624 275 497.686 275H498.496ZM493.546 273.992C492.43 273.992 491.71 273.47 491.71 272.552V272.174C491.71 271.274 492.448 270.77 494.086 270.77H495.994V272.3C495.994 273.254 494.968 273.992 493.546 273.992ZM501.991 275V268.556C501.991 267.368 503.107 266.792 504.259 266.792C505.645 266.792 506.365 267.638 506.365 269.294V275H507.805V269.042C507.805 266.792 506.599 265.496 504.691 265.496C503.305 265.496 502.513 266.18 502.063 267.224H501.991V265.712H500.551V275H501.991ZM516.722 275H518.162V261.68H516.722V267.224H516.65C516.164 266.054 515.21 265.496 513.932 265.496C511.61 265.496 510.152 267.386 510.152 270.356C510.152 273.326 511.61 275.216 513.932 275.216C515.21 275.216 516.092 274.64 516.65 273.488H516.722V275ZM514.328 273.92C512.708 273.92 511.7 272.804 511.7 271.148V269.564C511.7 267.908 512.708 266.792 514.328 266.792C515.642 266.792 516.722 267.548 516.722 268.574V272.03C516.722 273.236 515.642 273.92 514.328 273.92ZM367.626 303H369.03V296.538H364.782V297.87H367.554V299.112C367.554 300.966 366.096 301.866 364.35 301.866C361.956 301.866 360.48 300.21 360.48 297.726V295.692C360.48 293.208 361.992 291.57 364.206 291.57C365.79 291.57 366.96 292.398 367.536 293.73L368.778 292.974C367.968 291.336 366.456 290.22 364.206 290.22C360.984 290.22 358.86 292.542 358.86 296.718C358.86 300.93 361.002 303.216 364.08 303.216C365.988 303.216 367.266 302.334 367.572 301.164H367.626V303ZM373.302 303V296.7C373.302 295.818 374.238 295.152 375.786 295.152H376.632V293.712H376.074C374.562 293.712 373.716 294.54 373.392 295.422H373.302V293.712H371.862V303H373.302ZM385.961 303V301.74H384.899V296.628C384.899 294.666 383.567 293.496 381.335 293.496C379.661 293.496 378.545 294.324 378.041 295.314L378.905 296.124C379.409 295.278 380.147 294.738 381.263 294.738C382.739 294.738 383.459 295.458 383.459 296.772V297.69H381.623C378.923 297.69 377.663 298.662 377.663 300.408C377.663 302.136 378.815 303.216 380.777 303.216C382.073 303.216 383.063 302.622 383.459 301.488H383.549C383.657 302.352 384.089 303 385.151 303H385.961ZM381.011 301.992C379.895 301.992 379.175 301.47 379.175 300.552V300.174C379.175 299.274 379.913 298.77 381.551 298.77H383.459V300.3C383.459 301.254 382.433 301.992 381.011 301.992ZM393.956 303H395.396V289.68H393.956V295.224H393.884C393.398 294.054 392.444 293.496 391.166 293.496C388.844 293.496 387.386 295.386 387.386 298.356C387.386 301.326 388.844 303.216 391.166 303.216C392.444 303.216 393.326 302.64 393.884 301.488H393.956V303ZM391.562 301.92C389.942 301.92 388.934 300.804 388.934 299.148V297.564C388.934 295.908 389.942 294.792 391.562 294.792C392.876 294.792 393.956 295.548 393.956 296.574V300.03C393.956 301.236 392.876 301.92 391.562 301.92ZM399.178 291.534C399.79 291.534 400.06 291.21 400.06 290.724V290.49C400.06 290.004 399.79 289.68 399.178 289.68C398.566 289.68 398.296 290.004 398.296 290.49V290.724C398.296 291.21 398.566 291.534 399.178 291.534ZM398.458 303H399.898V293.712H398.458V303ZM406.45 303.216C408.196 303.216 409.528 302.352 410.122 301.092L409.096 300.354C408.61 301.38 407.71 301.956 406.54 301.956C404.812 301.956 403.786 300.75 403.786 299.148V298.716H410.464V298.032C410.464 295.404 408.934 293.496 406.45 293.496C403.93 293.496 402.274 295.404 402.274 298.356C402.274 301.308 403.93 303.216 406.45 303.216ZM406.45 294.702C407.926 294.702 408.916 295.8 408.916 297.438V297.636H403.786V297.51C403.786 295.89 404.884 294.702 406.45 294.702ZM414.277 303V296.556C414.277 295.368 415.393 294.792 416.545 294.792C417.931 294.792 418.651 295.638 418.651 297.294V303H420.091V297.042C420.091 294.792 418.885 293.496 416.977 293.496C415.591 293.496 414.799 294.18 414.349 295.224H414.277V293.712H412.837V303H414.277ZM426.919 303V301.74H425.029V294.972H427.063V293.712H425.029V291.138H423.733V292.866C423.733 293.496 423.535 293.712 422.923 293.712H422.059V294.972H423.589V301.47C423.589 302.37 424.129 303 425.119 303H426.919ZM433.436 298.302V296.754H428.738V298.302H433.436ZM437.872 303V297.312H443.326V295.98H437.872V291.768H443.848V290.436H436.36V303H437.872ZM447.359 303V296.7C447.359 295.818 448.295 295.152 449.843 295.152H450.689V293.712H450.131C448.619 293.712 447.773 294.54 447.449 295.422H447.359V293.712H445.919V303H447.359ZM455.932 303.216C457.678 303.216 459.01 302.352 459.604 301.092L458.578 300.354C458.092 301.38 457.192 301.956 456.022 301.956C454.294 301.956 453.268 300.75 453.268 299.148V298.716H459.946V298.032C459.946 295.404 458.416 293.496 455.932 293.496C453.412 293.496 451.756 295.404 451.756 298.356C451.756 301.308 453.412 303.216 455.932 303.216ZM455.932 294.702C457.408 294.702 458.398 295.8 458.398 297.438V297.636H453.268V297.51C453.268 295.89 454.366 294.702 455.932 294.702ZM465.811 303.216C467.557 303.216 468.889 302.352 469.483 301.092L468.457 300.354C467.971 301.38 467.071 301.956 465.901 301.956C464.173 301.956 463.147 300.75 463.147 299.148V298.716H469.825V298.032C469.825 295.404 468.295 293.496 465.811 293.496C463.291 293.496 461.635 295.404 461.635 298.356C461.635 301.308 463.291 303.216 465.811 303.216ZM465.811 294.702C467.287 294.702 468.277 295.8 468.277 297.438V297.636H463.147V297.51C463.147 295.89 464.245 294.702 465.811 294.702ZM481.294 303.216C484.534 303.216 486.622 300.93 486.622 296.718C486.622 292.506 484.534 290.22 481.294 290.22C478.054 290.22 475.966 292.506 475.966 296.718C475.966 300.93 478.054 303.216 481.294 303.216ZM481.294 301.866C479.116 301.866 477.586 300.246 477.586 297.762V295.674C477.586 293.19 479.116 291.57 481.294 291.57C483.472 291.57 485.002 293.19 485.002 295.674V297.762C485.002 300.246 483.472 301.866 481.294 301.866ZM489.196 306.6H490.636V301.488H490.708C491.266 302.64 492.148 303.216 493.426 303.216C495.748 303.216 497.206 301.326 497.206 298.356C497.206 295.386 495.748 293.496 493.426 293.496C492.148 293.496 491.194 294.054 490.708 295.224H490.636V293.712H489.196V306.6ZM493.03 301.92C491.716 301.92 490.636 301.236 490.636 300.03V296.574C490.636 295.548 491.716 294.792 493.03 294.792C494.65 294.792 495.658 295.908 495.658 297.564V299.148C495.658 300.804 494.65 301.92 493.03 301.92ZM503.384 303V301.74H501.494V294.972H503.528V293.712H501.494V291.138H500.198V292.866C500.198 293.496 500 293.712 499.388 293.712H498.524V294.972H500.054V301.47C500.054 302.37 500.594 303 501.584 303H503.384ZM506.562 291.534C507.175 291.534 507.445 291.21 507.445 290.724V290.49C507.445 290.004 507.175 289.68 506.562 289.68C505.951 289.68 505.681 290.004 505.681 290.49V290.724C505.681 291.21 505.951 291.534 506.562 291.534ZM505.843 303H507.283V293.712H505.843V303ZM511.783 303V296.556C511.783 295.368 512.863 294.792 513.997 294.792C515.365 294.792 515.995 295.638 515.995 297.294V303H517.435V296.556C517.435 295.368 518.479 294.792 519.613 294.792C521.017 294.792 521.647 295.656 521.647 297.294V303H523.087V297.042C523.087 294.792 521.953 293.496 520.062 293.496C518.479 293.496 517.579 294.378 517.237 295.386H517.201C516.697 294.054 515.581 293.496 514.357 293.496C512.917 293.496 512.269 294.27 511.855 295.224H511.783V293.712H510.343V303H511.783ZM526.777 291.534C527.389 291.534 527.659 291.21 527.659 290.724V290.49C527.659 290.004 527.389 289.68 526.777 289.68C526.165 289.68 525.895 290.004 525.895 290.49V290.724C525.895 291.21 526.165 291.534 526.777 291.534ZM526.057 303H527.497V293.712H526.057V303ZM536.785 303V301.74H531.259L536.641 294.792V293.712H529.783V294.972H534.895L529.621 301.794V303H536.785ZM542.223 303.216C543.969 303.216 545.301 302.352 545.895 301.092L544.869 300.354C544.383 301.38 543.483 301.956 542.313 301.956C540.585 301.956 539.559 300.75 539.559 299.148V298.716H546.237V298.032C546.237 295.404 544.707 293.496 542.223 293.496C539.703 293.496 538.047 295.404 538.047 298.356C538.047 301.308 539.703 303.216 542.223 303.216ZM542.223 294.702C543.699 294.702 544.689 295.8 544.689 297.438V297.636H539.559V297.51C539.559 295.89 540.657 294.702 542.223 294.702ZM550.05 303V296.7C550.05 295.818 550.986 295.152 552.534 295.152H553.38V293.712H552.822C551.31 293.712 550.464 294.54 550.14 295.422H550.05V293.712H548.61V303H550.05ZM558.009 303.216C560.133 303.216 561.447 302.118 561.447 300.318C561.447 298.914 560.655 298.014 558.603 297.708L557.883 297.6C556.731 297.42 556.101 297.06 556.101 296.16C556.101 295.278 556.731 294.72 557.919 294.72C559.107 294.72 559.899 295.278 560.313 295.854L561.267 294.99C560.511 294.054 559.521 293.496 558.027 293.496C556.137 293.496 554.715 294.396 554.715 296.232C554.715 297.96 555.993 298.662 557.703 298.914L558.441 299.022C559.665 299.202 560.061 299.76 560.061 300.48C560.061 301.434 559.341 301.992 558.117 301.992C556.947 301.992 556.083 301.47 555.363 300.57L554.337 301.398C555.165 302.496 556.299 303.216 558.009 303.216Z" fill="white"/>
</svg>
