<svg width="380" height="203" viewBox="0 0 380 203" fill="none" xmlns="http://www.w3.org/2000/svg">
<rect width="380" height="203" fill="white"/>
<line x1="18" y1="88.75" x2="168" y2="88.75" stroke="black" stroke-width="0.5"/>
<line x1="18" y1="98.75" x2="168" y2="98.75" stroke="black" stroke-width="0.5"/>
<line x1="18" y1="108.75" x2="168" y2="108.75" stroke="black" stroke-width="0.5"/>
<line x1="18" y1="118.75" x2="168" y2="118.75" stroke="black" stroke-width="0.5"/>
<line x1="18" y1="128.75" x2="168" y2="128.75" stroke="black" stroke-width="0.5"/>
<line x1="169" y1="107.75" x2="215" y2="107.75" stroke="black" stroke-width="0.5"/>
<line x1="169" y1="109.75" x2="215" y2="109.75" stroke="black" stroke-width="0.5"/>
<line x1="169" y1="117.75" x2="215" y2="117.75" stroke="black" stroke-width="0.5"/>
<line x1="169" y1="119.75" x2="215" y2="119.75" stroke="black" stroke-width="0.5"/>
<line x1="169" y1="127.75" x2="215" y2="127.75" stroke="black" stroke-width="0.5"/>
<line x1="169" y1="129.75" x2="215" y2="129.75" stroke="black" stroke-width="0.5"/>
<line x1="169" y1="87.75" x2="215" y2="87.75" stroke="black" stroke-width="0.5"/>
<line x1="169" y1="89.75" x2="215" y2="89.75" stroke="black" stroke-width="0.5"/>
<line x1="169" y1="97.75" x2="215" y2="97.75" stroke="black" stroke-width="0.5"/>
<line x1="169" y1="99.75" x2="215" y2="99.75" stroke="black" stroke-width="0.5"/>
<line x1="247" y1="107.75" x2="285" y2="107.75" stroke="black" stroke-width="0.5"/>
<line x1="247" y1="109.75" x2="285" y2="109.75" stroke="black" stroke-width="0.5"/>
<line x1="122" y1="39.75" x2="312" y2="39.75" stroke="#4B4B4B" stroke-width="0.5"/>
<line x1="311.75" y1="81" x2="311.751" y2="40" stroke="black" stroke-width="0.5"/>
<path d="M121.823 71.6768C121.921 71.7744 122.079 71.7744 122.177 71.6768L123.768 70.0858C123.865 69.9882 123.865 69.8299 123.768 69.7322C123.67 69.6346 123.512 69.6346 123.414 69.7322L122 71.1464L120.586 69.7322C120.488 69.6346 120.33 69.6346 120.232 69.7322C120.135 69.8299 120.135 69.9882 120.232 70.0858L121.823 71.6768ZM122.25 71.5V39.5H121.75V71.5H122.25Z" fill="#4B4B4B"/>
<rect x="41" y="79" width="49" height="59" fill="#0043CE"/>
<path d="M52.1369 93.2H53.1149L54.0209 95H54.5909L53.6309 93.152C54.1769 93.026 54.4709 92.612 54.4709 92C54.4709 91.238 54.0329 90.812 53.3009 90.812H51.6329V95H52.1369V93.2ZM52.1369 92.768V91.256H53.3009C53.6969 91.256 53.9309 91.472 53.9309 91.856V92.168C53.9309 92.552 53.6969 92.768 53.3009 92.768H52.1369ZM56.6589 95.072C57.2409 95.072 57.6849 94.784 57.8829 94.364L57.5409 94.118C57.3789 94.46 57.0789 94.652 56.6889 94.652C56.1129 94.652 55.7709 94.25 55.7709 93.716V93.572H57.9969V93.344C57.9969 92.468 57.4869 91.832 56.6589 91.832C55.8189 91.832 55.2669 92.468 55.2669 93.452C55.2669 94.436 55.8189 95.072 56.6589 95.072ZM56.6589 92.234C57.1509 92.234 57.4809 92.6 57.4809 93.146V93.212H55.7709V93.17C55.7709 92.63 56.1369 92.234 56.6589 92.234ZM59.1159 95H59.5959V92.324H60.2619V91.904H59.5959V90.98H60.2619V90.56H59.7939C59.3379 90.56 59.1159 90.854 59.1159 91.28V91.904H58.6119V92.324H59.1159V95ZM62.1938 95.072C62.7758 95.072 63.2198 94.784 63.4178 94.364L63.0758 94.118C62.9138 94.46 62.6138 94.652 62.2238 94.652C61.6478 94.652 61.3058 94.25 61.3058 93.716V93.572H63.5318V93.344C63.5318 92.468 63.0218 91.832 62.1938 91.832C61.3538 91.832 60.8018 92.468 60.8018 93.452C60.8018 94.436 61.3538 95.072 62.1938 95.072ZM62.1938 92.234C62.6858 92.234 63.0158 92.6 63.0158 93.146V93.212H61.3058V93.17C61.3058 92.63 61.6718 92.234 62.1938 92.234ZM64.9627 95V92.9C64.9627 92.606 65.2747 92.384 65.7907 92.384H66.0727V91.904H65.8867C65.3827 91.904 65.1007 92.18 64.9927 92.474H64.9627V91.904H64.4827V95H64.9627ZM67.9806 95.072C68.5626 95.072 69.0066 94.784 69.2046 94.364L68.8626 94.118C68.7006 94.46 68.4006 94.652 68.0106 94.652C67.4346 94.652 67.0926 94.25 67.0926 93.716V93.572H69.3186V93.344C69.3186 92.468 68.8086 91.832 67.9806 91.832C67.1406 91.832 66.5886 92.468 66.5886 93.452C66.5886 94.436 67.1406 95.072 67.9806 95.072ZM67.9806 92.234C68.4726 92.234 68.8026 92.6 68.8026 93.146V93.212H67.0926V93.17C67.0926 92.63 67.4586 92.234 67.9806 92.234ZM70.7495 95V92.852C70.7495 92.456 71.1215 92.264 71.5055 92.264C71.9675 92.264 72.2075 92.546 72.2075 93.098V95H72.6875V93.014C72.6875 92.264 72.2855 91.832 71.6495 91.832C71.1875 91.832 70.9235 92.06 70.7735 92.408H70.7495V91.904H70.2695V95H70.7495ZM74.9917 95.072C75.5797 95.072 75.9817 94.784 76.1797 94.34L75.8317 94.106C75.6637 94.46 75.3817 94.646 74.9917 94.646C74.4217 94.646 74.1277 94.256 74.1277 93.716V93.188C74.1277 92.648 74.4217 92.258 74.9917 92.258C75.3697 92.258 75.6337 92.444 75.7477 92.762L76.1497 92.558C75.9697 92.132 75.6037 91.832 74.9917 91.832C74.1217 91.832 73.6117 92.462 73.6117 93.452C73.6117 94.442 74.1217 95.072 74.9917 95.072ZM78.1461 95.072C78.7281 95.072 79.1721 94.784 79.3701 94.364L79.0281 94.118C78.8661 94.46 78.5661 94.652 78.1761 94.652C77.6001 94.652 77.2581 94.25 77.2581 93.716V93.572H79.4841V93.344C79.4841 92.468 78.9741 91.832 78.1461 91.832C77.3061 91.832 76.7541 92.468 76.7541 93.452C76.7541 94.436 77.3061 95.072 78.1461 95.072ZM78.1461 92.234C78.6381 92.234 78.9681 92.6 78.9681 93.146V93.212H77.2581V93.17C77.2581 92.63 77.6241 92.234 78.1461 92.234ZM50.0179 101V99.212H51.1819C51.9319 99.212 52.3519 98.75 52.3519 98.012C52.3519 97.274 51.9319 96.812 51.1819 96.812H49.5139V101H50.0179ZM50.0179 97.256H51.1819C51.5779 97.256 51.8119 97.472 51.8119 97.856V98.168C51.8119 98.552 51.5779 98.768 51.1819 98.768H50.0179V97.256ZM53.6859 101V98.9C53.6859 98.606 53.9979 98.384 54.5139 98.384H54.7959V97.904H54.6099C54.1059 97.904 53.8239 98.18 53.7159 98.474H53.6859V97.904H53.2059V101H53.6859ZM56.7038 101.072C57.2858 101.072 57.7298 100.784 57.9278 100.364L57.5858 100.118C57.4238 100.46 57.1238 100.652 56.7338 100.652C56.1578 100.652 55.8158 100.25 55.8158 99.716V99.572H58.0418V99.344C58.0418 98.468 57.5318 97.832 56.7038 97.832C55.8638 97.832 55.3118 98.468 55.3118 99.452C55.3118 100.436 55.8638 101.072 56.7038 101.072ZM56.7038 98.234C57.1958 98.234 57.5258 98.6 57.5258 99.146V99.212H55.8158V99.17C55.8158 98.63 56.1818 98.234 56.7038 98.234ZM58.9927 102.2H59.4727V100.496H59.4967C59.6827 100.88 59.9767 101.072 60.4027 101.072C61.1767 101.072 61.6627 100.442 61.6627 99.452C61.6627 98.462 61.1767 97.832 60.4027 97.832C59.9767 97.832 59.6587 98.018 59.4967 98.408H59.4727V97.904H58.9927V102.2ZM60.2707 100.64C59.8327 100.64 59.4727 100.412 59.4727 100.01V98.858C59.4727 98.516 59.8327 98.264 60.2707 98.264C60.8107 98.264 61.1467 98.636 61.1467 99.188V99.716C61.1467 100.268 60.8107 100.64 60.2707 100.64ZM65.1532 101V100.58H64.7992V98.876C64.7992 98.222 64.3552 97.832 63.6112 97.832C63.0532 97.832 62.6812 98.108 62.5132 98.438L62.8012 98.708C62.9692 98.426 63.2152 98.246 63.5872 98.246C64.0792 98.246 64.3192 98.486 64.3192 98.924V99.23H63.7072C62.8072 99.23 62.3872 99.554 62.3872 100.136C62.3872 100.712 62.7712 101.072 63.4252 101.072C63.8572 101.072 64.1872 100.874 64.3192 100.496H64.3492C64.3852 100.784 64.5292 101 64.8832 101H65.1532ZM63.5032 100.664C63.1312 100.664 62.8912 100.49 62.8912 100.184V100.058C62.8912 99.758 63.1372 99.59 63.6832 99.59H64.3192V100.1C64.3192 100.418 63.9772 100.664 63.5032 100.664ZM66.4783 101V98.9C66.4783 98.606 66.7903 98.384 67.3063 98.384H67.5883V97.904H67.4023C66.8983 97.904 66.6163 98.18 66.5083 98.474H66.4783V97.904H65.9983V101H66.4783ZM70.858 101V100.58H70.504V98.876C70.504 98.222 70.06 97.832 69.316 97.832C68.758 97.832 68.386 98.108 68.218 98.438L68.506 98.708C68.674 98.426 68.92 98.246 69.292 98.246C69.784 98.246 70.024 98.486 70.024 98.924V99.23H69.412C68.512 99.23 68.092 99.554 68.092 100.136C68.092 100.712 68.476 101.072 69.13 101.072C69.562 101.072 69.892 100.874 70.024 100.496H70.054C70.09 100.784 70.234 101 70.588 101H70.858ZM69.208 100.664C68.836 100.664 68.596 100.49 68.596 100.184V100.058C68.596 99.758 68.842 99.59 69.388 99.59H70.024V100.1C70.024 100.418 69.682 100.664 69.208 100.664ZM72.987 101V100.58H72.357V98.324H73.035V97.904H72.357V97.046H71.925V97.622C71.925 97.832 71.859 97.904 71.655 97.904H71.367V98.324H71.877V100.49C71.877 100.79 72.057 101 72.387 101H72.987ZM74.2066 97.178C74.4106 97.178 74.5006 97.07 74.5006 96.908V96.83C74.5006 96.668 74.4106 96.56 74.2066 96.56C74.0026 96.56 73.9126 96.668 73.9126 96.83V96.908C73.9126 97.07 74.0026 97.178 74.2066 97.178ZM73.9666 101H74.4466V97.904H73.9666V101ZM76.7966 101.072C77.6246 101.072 78.1946 100.436 78.1946 99.452C78.1946 98.468 77.6246 97.832 76.7966 97.832C75.9686 97.832 75.3986 98.468 75.3986 99.452C75.3986 100.436 75.9686 101.072 76.7966 101.072ZM76.7966 100.646C76.2806 100.646 75.9146 100.328 75.9146 99.674V99.23C75.9146 98.576 76.2806 98.258 76.7966 98.258C77.3126 98.258 77.6786 98.576 77.6786 99.23V99.674C77.6786 100.328 77.3126 100.646 76.7966 100.646ZM79.624 101V98.852C79.624 98.456 79.996 98.264 80.38 98.264C80.842 98.264 81.082 98.546 81.082 99.098V101H81.562V99.014C81.562 98.264 81.16 97.832 80.524 97.832C80.062 97.832 79.798 98.06 79.648 98.408H79.624V97.904H79.144V101H79.624Z" fill="white"/>
<path d="M147.326 35L145.618 30.114H144.869L143.161 35H143.756L144.246 33.558H146.22L146.71 35H147.326ZM146.073 33.04H144.386L145.212 30.66H145.247L146.073 33.04ZM150.389 35H150.949V29.82H150.389V31.976H150.361C150.172 31.521 149.801 31.304 149.304 31.304C148.401 31.304 147.834 32.039 147.834 33.194C147.834 34.349 148.401 35.084 149.304 35.084C149.801 35.084 150.144 34.86 150.361 34.412H150.389V35ZM149.458 34.58C148.828 34.58 148.436 34.146 148.436 33.502V32.886C148.436 32.242 148.828 31.808 149.458 31.808C149.969 31.808 150.389 32.102 150.389 32.501V33.845C150.389 34.314 149.969 34.58 149.458 34.58ZM152.14 35.91H151.552V36.4H151.916C152.455 36.4 152.7 36.057 152.7 35.56V31.388H152.14V35.91ZM152.42 30.541C152.658 30.541 152.763 30.415 152.763 30.226V30.135C152.763 29.946 152.658 29.82 152.42 29.82C152.182 29.82 152.077 29.946 152.077 30.135V30.226C152.077 30.415 152.182 30.541 152.42 30.541ZM156.116 35H156.676V31.388H156.116V33.887C156.116 34.363 155.682 34.58 155.241 34.58C154.702 34.58 154.415 34.251 154.415 33.607V31.388H153.855V33.705C153.855 34.58 154.331 35.084 155.073 35.084C155.675 35.084 155.948 34.755 156.088 34.412H156.116V35ZM158.953 35.084C159.779 35.084 160.29 34.657 160.29 33.957C160.29 33.411 159.982 33.061 159.184 32.942L158.904 32.9C158.456 32.83 158.211 32.69 158.211 32.34C158.211 31.997 158.456 31.78 158.918 31.78C159.38 31.78 159.688 31.997 159.849 32.221L160.22 31.885C159.926 31.521 159.541 31.304 158.96 31.304C158.225 31.304 157.672 31.654 157.672 32.368C157.672 33.04 158.169 33.313 158.834 33.411L159.121 33.453C159.597 33.523 159.751 33.74 159.751 34.02C159.751 34.391 159.471 34.608 158.995 34.608C158.54 34.608 158.204 34.405 157.924 34.055L157.525 34.377C157.847 34.804 158.288 35.084 158.953 35.084ZM162.73 35V34.51H161.995V31.878H162.786V31.388H161.995V30.387H161.491V31.059C161.491 31.304 161.414 31.388 161.176 31.388H160.84V31.878H161.435V34.405C161.435 34.755 161.645 35 162.03 35H162.73ZM165.34 36.4H165.9V34.412H165.928C166.145 34.86 166.488 35.084 166.985 35.084C167.888 35.084 168.455 34.349 168.455 33.194C168.455 32.039 167.888 31.304 166.985 31.304C166.488 31.304 166.117 31.521 165.928 31.976H165.9V31.388H165.34V36.4ZM166.831 34.58C166.32 34.58 165.9 34.314 165.9 33.845V32.501C165.9 32.102 166.32 31.808 166.831 31.808C167.461 31.808 167.853 32.242 167.853 32.886V33.502C167.853 34.146 167.461 34.58 166.831 34.58ZM172.341 35V34.51H171.928V32.522C171.928 31.759 171.41 31.304 170.542 31.304C169.891 31.304 169.457 31.626 169.261 32.011L169.597 32.326C169.793 31.997 170.08 31.787 170.514 31.787C171.088 31.787 171.368 32.067 171.368 32.578V32.935H170.654C169.604 32.935 169.114 33.313 169.114 33.992C169.114 34.664 169.562 35.084 170.325 35.084C170.829 35.084 171.214 34.853 171.368 34.412H171.403C171.445 34.748 171.613 35 172.026 35H172.341ZM170.416 34.608C169.982 34.608 169.702 34.405 169.702 34.048V33.901C169.702 33.551 169.989 33.355 170.626 33.355H171.368V33.95C171.368 34.321 170.969 34.608 170.416 34.608ZM173.7 35V32.55C173.7 32.207 174.064 31.948 174.666 31.948H174.995V31.388H174.778C174.19 31.388 173.861 31.71 173.735 32.053H173.7V31.388H173.14V35H173.7ZM178.623 35V34.51H178.21V32.522C178.21 31.759 177.692 31.304 176.824 31.304C176.173 31.304 175.739 31.626 175.543 32.011L175.879 32.326C176.075 31.997 176.362 31.787 176.796 31.787C177.37 31.787 177.65 32.067 177.65 32.578V32.935H176.936C175.886 32.935 175.396 33.313 175.396 33.992C175.396 34.664 175.844 35.084 176.607 35.084C177.111 35.084 177.496 34.853 177.65 34.412H177.685C177.727 34.748 177.895 35 178.308 35H178.623ZM176.698 34.608C176.264 34.608 175.984 34.405 175.984 34.048V33.901C175.984 33.551 176.271 33.355 176.908 33.355H177.65V33.95C177.65 34.321 177.251 34.608 176.698 34.608ZM179.982 35V32.494C179.982 32.032 180.402 31.808 180.843 31.808C181.375 31.808 181.62 32.137 181.62 32.781V35H182.18V32.494C182.18 32.032 182.586 31.808 183.027 31.808C183.573 31.808 183.818 32.144 183.818 32.781V35H184.378V32.683C184.378 31.808 183.937 31.304 183.202 31.304C182.586 31.304 182.236 31.647 182.103 32.039H182.089C181.893 31.521 181.459 31.304 180.983 31.304C180.423 31.304 180.171 31.605 180.01 31.976H179.982V31.388H179.422V35H179.982ZM186.891 35.084C187.57 35.084 188.088 34.748 188.319 34.258L187.92 33.971C187.731 34.37 187.381 34.594 186.926 34.594C186.254 34.594 185.855 34.125 185.855 33.502V33.334H188.452V33.068C188.452 32.046 187.857 31.304 186.891 31.304C185.911 31.304 185.267 32.046 185.267 33.194C185.267 34.342 185.911 35.084 186.891 35.084ZM186.891 31.773C187.465 31.773 187.85 32.2 187.85 32.837V32.914H185.855V32.865C185.855 32.235 186.282 31.773 186.891 31.773ZM190.873 35V34.51H190.138V31.878H190.929V31.388H190.138V30.387H189.634V31.059C189.634 31.304 189.557 31.388 189.319 31.388H188.983V31.878H189.578V34.405C189.578 34.755 189.788 35 190.173 35H190.873ZM193.16 35.084C193.839 35.084 194.357 34.748 194.588 34.258L194.189 33.971C194 34.37 193.65 34.594 193.195 34.594C192.523 34.594 192.124 34.125 192.124 33.502V33.334H194.721V33.068C194.721 32.046 194.126 31.304 193.16 31.304C192.18 31.304 191.536 32.046 191.536 33.194C191.536 34.342 192.18 35.084 193.16 35.084ZM193.16 31.773C193.734 31.773 194.119 32.2 194.119 32.837V32.914H192.124V32.865C192.124 32.235 192.551 31.773 193.16 31.773ZM196.204 35V32.55C196.204 32.207 196.568 31.948 197.17 31.948H197.499V31.388H197.282C196.694 31.388 196.365 31.71 196.239 32.053H196.204V31.388H195.644V35H196.204ZM199.299 35.084C200.125 35.084 200.636 34.657 200.636 33.957C200.636 33.411 200.328 33.061 199.53 32.942L199.25 32.9C198.802 32.83 198.557 32.69 198.557 32.34C198.557 31.997 198.802 31.78 199.264 31.78C199.726 31.78 200.034 31.997 200.195 32.221L200.566 31.885C200.272 31.521 199.887 31.304 199.306 31.304C198.571 31.304 198.018 31.654 198.018 32.368C198.018 33.04 198.515 33.313 199.18 33.411L199.467 33.453C199.943 33.523 200.097 33.74 200.097 34.02C200.097 34.391 199.817 34.608 199.341 34.608C198.886 34.608 198.55 34.405 198.27 34.055L197.871 34.377C198.193 34.804 198.634 35.084 199.299 35.084ZM203.868 35H204.547L205.051 33.264L205.359 32.165H205.373L205.688 33.264L206.192 35H206.885L207.844 31.388H207.319L206.927 32.949L206.556 34.531H206.542L206.094 32.949L205.625 31.388H205.128L204.673 32.949L204.232 34.531H204.218L203.833 32.949L203.448 31.388H202.902L203.868 35ZM208.933 30.541C209.171 30.541 209.276 30.415 209.276 30.226V30.135C209.276 29.946 209.171 29.82 208.933 29.82C208.695 29.82 208.59 29.946 208.59 30.135V30.226C208.59 30.415 208.695 30.541 208.933 30.541ZM208.653 35H209.213V31.388H208.653V35ZM211.901 35V34.51H211.166V31.878H211.957V31.388H211.166V30.387H210.662V31.059C210.662 31.304 210.585 31.388 210.347 31.388H210.011V31.878H210.606V34.405C210.606 34.755 210.816 35 211.201 35H211.901ZM212.857 35H213.417V32.494C213.417 32.032 213.851 31.808 214.299 31.808C214.838 31.808 215.118 32.137 215.118 32.781V35H215.678V32.683C215.678 31.808 215.209 31.304 214.467 31.304C213.928 31.304 213.62 31.57 213.445 31.976H213.417V29.82H212.857V35ZM219.05 35V32.55C219.05 32.207 219.414 31.948 220.016 31.948H220.345V31.388H220.128C219.54 31.388 219.211 31.71 219.085 32.053H219.05V31.388H218.49V35H219.05ZM222.384 35.084C223.063 35.084 223.581 34.748 223.812 34.258L223.413 33.971C223.224 34.37 222.874 34.594 222.419 34.594C221.747 34.594 221.348 34.125 221.348 33.502V33.334H223.945V33.068C223.945 32.046 223.35 31.304 222.384 31.304C221.404 31.304 220.76 32.046 220.76 33.194C220.76 34.342 221.404 35.084 222.384 35.084ZM222.384 31.773C222.958 31.773 223.343 32.2 223.343 32.837V32.914H221.348V32.865C221.348 32.235 221.775 31.773 222.384 31.773ZM225.952 35.084C226.778 35.084 227.289 34.657 227.289 33.957C227.289 33.411 226.981 33.061 226.183 32.942L225.903 32.9C225.455 32.83 225.21 32.69 225.21 32.34C225.21 31.997 225.455 31.78 225.917 31.78C226.379 31.78 226.687 31.997 226.848 32.221L227.219 31.885C226.925 31.521 226.54 31.304 225.959 31.304C225.224 31.304 224.671 31.654 224.671 32.368C224.671 33.04 225.168 33.313 225.833 33.411L226.12 33.453C226.596 33.523 226.75 33.74 226.75 34.02C226.75 34.391 226.47 34.608 225.994 34.608C225.539 34.608 225.203 34.405 224.923 34.055L224.524 34.377C224.846 34.804 225.287 35.084 225.952 35.084ZM230.505 35H231.065V31.388H230.505V33.887C230.505 34.363 230.071 34.58 229.63 34.58C229.091 34.58 228.804 34.251 228.804 33.607V31.388H228.244V33.705C228.244 34.58 228.72 35.084 229.462 35.084C230.064 35.084 230.337 34.755 230.477 34.412H230.505V35ZM233.349 35V34.51H232.817V29.82H232.257V34.419C232.257 34.755 232.467 35 232.852 35H233.349ZM235.628 35V34.51H234.893V31.878H235.684V31.388H234.893V30.387H234.389V31.059C234.389 31.304 234.312 31.388 234.074 31.388H233.738V31.878H234.333V34.405C234.333 34.755 234.543 35 234.928 35H235.628ZM237.669 35.084C238.495 35.084 239.006 34.657 239.006 33.957C239.006 33.411 238.698 33.061 237.9 32.942L237.62 32.9C237.172 32.83 236.927 32.69 236.927 32.34C236.927 31.997 237.172 31.78 237.634 31.78C238.096 31.78 238.404 31.997 238.565 32.221L238.936 31.885C238.642 31.521 238.257 31.304 237.676 31.304C236.941 31.304 236.388 31.654 236.388 32.368C236.388 33.04 236.885 33.313 237.55 33.411L237.837 33.453C238.313 33.523 238.467 33.74 238.467 34.02C238.467 34.391 238.187 34.608 237.711 34.608C237.256 34.608 236.92 34.405 236.64 34.055L236.241 34.377C236.563 34.804 237.004 35.084 237.669 35.084ZM240.318 34.181C240.024 34.181 239.891 34.349 239.891 34.594V34.692C239.891 34.881 239.975 35.021 240.164 35.063C240.087 35.392 239.919 35.637 239.639 35.931H240.108C240.507 35.588 240.745 35.07 240.745 34.692V34.594C240.745 34.349 240.612 34.181 240.318 34.181ZM246.463 35V34.51H246.05V32.522C246.05 31.759 245.532 31.304 244.664 31.304C244.013 31.304 243.579 31.626 243.383 32.011L243.719 32.326C243.915 31.997 244.202 31.787 244.636 31.787C245.21 31.787 245.49 32.067 245.49 32.578V32.935H244.776C243.726 32.935 243.236 33.313 243.236 33.992C243.236 34.664 243.684 35.084 244.447 35.084C244.951 35.084 245.336 34.853 245.49 34.412H245.525C245.567 34.748 245.735 35 246.148 35H246.463ZM244.538 34.608C244.104 34.608 243.824 34.405 243.824 34.048V33.901C243.824 33.551 244.111 33.355 244.748 33.355H245.49V33.95C245.49 34.321 245.091 34.608 244.538 34.608ZM247.822 35V32.494C247.822 32.032 248.256 31.808 248.704 31.808C249.243 31.808 249.523 32.137 249.523 32.781V35H250.083V32.683C250.083 31.808 249.614 31.304 248.872 31.304C248.333 31.304 248.025 31.57 247.85 31.976H247.822V31.388H247.262V35H247.822ZM253.551 35H254.111V29.82H253.551V31.976H253.523C253.334 31.521 252.963 31.304 252.466 31.304C251.563 31.304 250.996 32.039 250.996 33.194C250.996 34.349 251.563 35.084 252.466 35.084C252.963 35.084 253.306 34.86 253.523 34.412H253.551V35ZM252.62 34.58C251.99 34.58 251.598 34.146 251.598 33.502V32.886C251.598 32.242 251.99 31.808 252.62 31.808C253.131 31.808 253.551 32.102 253.551 32.501V33.845C253.551 34.314 253.131 34.58 252.62 34.58ZM257.515 35V32.55C257.515 32.207 257.879 31.948 258.481 31.948H258.81V31.388H258.593C258.005 31.388 257.676 31.71 257.55 32.053H257.515V31.388H256.955V35H257.515ZM260.849 35.084C261.528 35.084 262.046 34.748 262.277 34.258L261.878 33.971C261.689 34.37 261.339 34.594 260.884 34.594C260.212 34.594 259.813 34.125 259.813 33.502V33.334H262.41V33.068C262.41 32.046 261.815 31.304 260.849 31.304C259.869 31.304 259.225 32.046 259.225 33.194C259.225 34.342 259.869 35.084 260.849 35.084ZM260.849 31.773C261.423 31.773 261.808 32.2 261.808 32.837V32.914H259.813V32.865C259.813 32.235 260.24 31.773 260.849 31.773ZM265.117 33.173V32.571H263.29V33.173H265.117ZM266.758 35V32.55C266.758 32.207 267.122 31.948 267.724 31.948H268.053V31.388H267.836C267.248 31.388 266.919 31.71 266.793 32.053H266.758V31.388H266.198V35H266.758ZM270.994 35H271.554V31.388H270.994V33.887C270.994 34.363 270.56 34.58 270.119 34.58C269.58 34.58 269.293 34.251 269.293 33.607V31.388H268.733V33.705C268.733 34.58 269.209 35.084 269.951 35.084C270.553 35.084 270.826 34.755 270.966 34.412H270.994V35ZM273.306 35V32.494C273.306 32.032 273.74 31.808 274.188 31.808C274.727 31.808 275.007 32.137 275.007 32.781V35H275.567V32.683C275.567 31.808 275.098 31.304 274.356 31.304C273.817 31.304 273.509 31.57 273.334 31.976H273.306V31.388H272.746V35H273.306Z" fill="#4B4B4B"/>
<path d="M103.651 165H105.87C106.591 165 107.13 164.391 107.13 163.586C107.13 162.774 106.521 162.473 106.171 162.452V162.41C106.493 162.361 106.962 162.102 106.962 161.374C106.962 160.611 106.465 160.114 105.66 160.114H103.651V165ZM104.239 162.732H105.688C106.192 162.732 106.5 162.998 106.5 163.488V163.726C106.5 164.216 106.192 164.482 105.688 164.482H104.239V162.732ZM104.239 160.632H105.59C106.052 160.632 106.332 160.877 106.332 161.311V161.549C106.332 161.983 106.052 162.228 105.59 162.228H104.239V160.632ZM109.533 165.084C110.499 165.084 111.164 164.342 111.164 163.194C111.164 162.046 110.499 161.304 109.533 161.304C108.567 161.304 107.902 162.046 107.902 163.194C107.902 164.342 108.567 165.084 109.533 165.084ZM109.533 164.587C108.931 164.587 108.504 164.216 108.504 163.453V162.935C108.504 162.172 108.931 161.801 109.533 161.801C110.135 161.801 110.562 162.172 110.562 162.935V163.453C110.562 164.216 110.135 164.587 109.533 164.587ZM113.45 165.084C114.416 165.084 115.081 164.342 115.081 163.194C115.081 162.046 114.416 161.304 113.45 161.304C112.484 161.304 111.819 162.046 111.819 163.194C111.819 164.342 112.484 165.084 113.45 165.084ZM113.45 164.587C112.848 164.587 112.421 164.216 112.421 163.453V162.935C112.421 162.172 112.848 161.801 113.45 161.801C114.052 161.801 114.479 162.172 114.479 162.935V163.453C114.479 164.216 114.052 164.587 113.45 164.587ZM117.5 165V164.51H116.765V161.878H117.556V161.388H116.765V160.387H116.261V161.059C116.261 161.304 116.184 161.388 115.946 161.388H115.61V161.878H116.205V164.405C116.205 164.755 116.415 165 116.8 165H117.5ZM119.541 165.084C120.367 165.084 120.878 164.657 120.878 163.957C120.878 163.411 120.57 163.061 119.772 162.942L119.492 162.9C119.044 162.83 118.799 162.69 118.799 162.34C118.799 161.997 119.044 161.78 119.506 161.78C119.968 161.78 120.276 161.997 120.437 162.221L120.808 161.885C120.514 161.521 120.129 161.304 119.548 161.304C118.813 161.304 118.26 161.654 118.26 162.368C118.26 163.04 118.757 163.313 119.422 163.411L119.709 163.453C120.185 163.523 120.339 163.74 120.339 164.02C120.339 164.391 120.059 164.608 119.583 164.608C119.128 164.608 118.792 164.405 118.512 164.055L118.113 164.377C118.435 164.804 118.876 165.084 119.541 165.084ZM123.318 165V164.51H122.583V161.878H123.374V161.388H122.583V160.387H122.079V161.059C122.079 161.304 122.002 161.388 121.764 161.388H121.428V161.878H122.023V164.405C122.023 164.755 122.233 165 122.618 165H123.318ZM124.834 165V162.55C124.834 162.207 125.198 161.948 125.8 161.948H126.129V161.388H125.912C125.324 161.388 124.995 161.71 124.869 162.053H124.834V161.388H124.274V165H124.834ZM129.757 165V164.51H129.344V162.522C129.344 161.759 128.826 161.304 127.958 161.304C127.307 161.304 126.873 161.626 126.677 162.011L127.013 162.326C127.209 161.997 127.496 161.787 127.93 161.787C128.504 161.787 128.784 162.067 128.784 162.578V162.935H128.07C127.02 162.935 126.53 163.313 126.53 163.992C126.53 164.664 126.978 165.084 127.741 165.084C128.245 165.084 128.63 164.853 128.784 164.412H128.819C128.861 164.748 129.029 165 129.442 165H129.757ZM127.832 164.608C127.398 164.608 127.118 164.405 127.118 164.048V163.901C127.118 163.551 127.405 163.355 128.042 163.355H128.784V163.95C128.784 164.321 128.385 164.608 127.832 164.608ZM130.556 166.4H131.116V164.412H131.144C131.361 164.86 131.704 165.084 132.201 165.084C133.104 165.084 133.671 164.349 133.671 163.194C133.671 162.039 133.104 161.304 132.201 161.304C131.704 161.304 131.333 161.521 131.144 161.976H131.116V161.388H130.556V166.4ZM132.047 164.58C131.536 164.58 131.116 164.314 131.116 163.845V162.501C131.116 162.102 131.536 161.808 132.047 161.808C132.677 161.808 133.069 162.242 133.069 162.886V163.502C133.069 164.146 132.677 164.58 132.047 164.58ZM135.043 165.084C135.337 165.084 135.47 164.916 135.47 164.678V164.587C135.47 164.349 135.337 164.181 135.043 164.181C134.749 164.181 134.616 164.349 134.616 164.587V164.678C134.616 164.916 134.749 165.084 135.043 165.084ZM135.043 162.207C135.337 162.207 135.47 162.039 135.47 161.801V161.71C135.47 161.472 135.337 161.304 135.043 161.304C134.749 161.304 134.616 161.472 134.616 161.71V161.801C134.616 162.039 134.749 162.207 135.043 162.207Z" fill="#4B4B4B"/>
<path d="M141.548 161.669C141.548 161.275 141.445 160.441 140.836 160.441C140.001 160.441 139.083 162.128 139.083 163.497C139.083 164.06 139.251 164.725 139.795 164.725C140.639 164.725 141.548 163.01 141.548 161.669ZM139.711 162.485C139.814 162.11 139.936 161.632 140.18 161.2C140.339 160.91 140.555 160.572 140.826 160.572C141.117 160.572 141.155 160.957 141.155 161.294C141.155 161.594 141.108 161.894 140.967 162.485H139.711ZM140.911 162.682C140.845 162.953 140.723 163.46 140.489 163.891C140.283 164.303 140.058 164.594 139.795 164.594C139.598 164.594 139.476 164.416 139.476 163.863C139.476 163.61 139.514 163.263 139.664 162.682H140.911Z" fill="#4B4B4B"/>
<path d="M143.794 164.225C143.794 163.766 143.738 163.428 143.55 163.138C143.419 162.95 143.156 162.781 142.828 162.781C141.853 162.781 141.853 163.925 141.853 164.225C141.853 164.525 141.853 165.641 142.828 165.641C143.794 165.641 143.794 164.525 143.794 164.225ZM142.828 165.519C142.631 165.519 142.378 165.406 142.294 165.069C142.238 164.825 142.238 164.478 142.238 164.169C142.238 163.859 142.238 163.541 142.294 163.316C142.388 162.988 142.65 162.894 142.828 162.894C143.053 162.894 143.269 163.034 143.344 163.278C143.41 163.503 143.419 163.803 143.419 164.169C143.419 164.478 143.419 164.788 143.363 165.05C143.278 165.434 142.997 165.519 142.828 165.519Z" fill="#4B4B4B"/>
<path d="M39.708 69L38.244 64.812H37.602L36.138 69H36.648L37.068 67.764H38.76L39.18 69H39.708ZM38.634 67.32H37.188L37.896 65.28H37.926L38.634 67.32ZM40.8338 69V66.852C40.8338 66.456 41.2058 66.264 41.5898 66.264C42.0518 66.264 42.2918 66.546 42.2918 67.098V69H42.7718V67.014C42.7718 66.264 42.3698 65.832 41.7338 65.832C41.2718 65.832 41.0078 66.06 40.8578 66.408H40.8338V65.904H40.3538V69H40.8338ZM44.6939 69.072C45.4019 69.072 45.8399 68.706 45.8399 68.106C45.8399 67.638 45.5759 67.338 44.8919 67.236L44.6519 67.2C44.2679 67.14 44.0579 67.02 44.0579 66.72C44.0579 66.426 44.2679 66.24 44.6639 66.24C45.0599 66.24 45.3239 66.426 45.4619 66.618L45.7799 66.33C45.5279 66.018 45.1979 65.832 44.6999 65.832C44.0699 65.832 43.5959 66.132 43.5959 66.744C43.5959 67.32 44.0219 67.554 44.5919 67.638L44.8379 67.674C45.2459 67.734 45.3779 67.92 45.3779 68.16C45.3779 68.478 45.1379 68.664 44.7299 68.664C44.3399 68.664 44.0519 68.49 43.8119 68.19L43.4699 68.466C43.7459 68.832 44.1239 69.072 44.6939 69.072ZM49.2077 69V68.58H48.8537V66.876C48.8537 66.222 48.4097 65.832 47.6657 65.832C47.1077 65.832 46.7357 66.108 46.5677 66.438L46.8557 66.708C47.0237 66.426 47.2697 66.246 47.6417 66.246C48.1337 66.246 48.3737 66.486 48.3737 66.924V67.23H47.7617C46.8617 67.23 46.4417 67.554 46.4417 68.136C46.4417 68.712 46.8257 69.072 47.4797 69.072C47.9117 69.072 48.2417 68.874 48.3737 68.496H48.4037C48.4397 68.784 48.5837 69 48.9377 69H49.2077ZM47.5577 68.664C47.1857 68.664 46.9457 68.49 46.9457 68.184V68.058C46.9457 67.758 47.1917 67.59 47.7377 67.59H48.3737V68.1C48.3737 68.418 48.0317 68.664 47.5577 68.664ZM51.1768 69V68.58H50.5468V66.324H51.2248V65.904H50.5468V65.046H50.1148V65.622C50.1148 65.832 50.0488 65.904 49.8448 65.904H49.5568V66.324H50.0668V68.49C50.0668 68.79 50.2468 69 50.5768 69H51.1768ZM54.0723 69V68.58H52.2303L54.0243 66.264V65.904H51.7383V66.324H53.4423L51.6843 68.598V69H54.0723Z" fill="#4B4B4B"/>
<path d="M33.048 53.564H32.406V53.054C33.324 52.928 33.9 52.184 33.9 50.906C33.9 49.502 33.204 48.74 32.124 48.74C31.044 48.74 30.348 49.502 30.348 50.906C30.348 52.22 30.96 52.976 31.926 53.066V53.492C31.926 53.774 32.1 53.984 32.43 53.984H33.048V53.564ZM32.124 52.622C31.398 52.622 30.888 52.082 30.888 51.254V50.558C30.888 49.73 31.398 49.19 32.124 49.19C32.85 49.19 33.36 49.73 33.36 50.558V51.254C33.36 52.082 32.85 52.622 32.124 52.622ZM36.666 53H37.146V49.904H36.666V52.046C36.666 52.454 36.294 52.64 35.916 52.64C35.454 52.64 35.208 52.358 35.208 51.806V49.904H34.728V51.89C34.728 52.64 35.136 53.072 35.772 53.072C36.288 53.072 36.522 52.79 36.642 52.496H36.666V53ZM40.6882 53V52.58H40.3342V50.876C40.3342 50.222 39.8902 49.832 39.1462 49.832C38.5882 49.832 38.2162 50.108 38.0482 50.438L38.3362 50.708C38.5042 50.426 38.7502 50.246 39.1222 50.246C39.6142 50.246 39.8542 50.486 39.8542 50.924V51.23H39.2422C38.3422 51.23 37.9222 51.554 37.9222 52.136C37.9222 52.712 38.3062 53.072 38.9602 53.072C39.3922 53.072 39.7222 52.874 39.8542 52.496H39.8842C39.9202 52.784 40.0642 53 40.4182 53H40.6882ZM39.0382 52.664C38.6662 52.664 38.4262 52.49 38.4262 52.184V52.058C38.4262 51.758 38.6722 51.59 39.2182 51.59H39.8542V52.1C39.8542 52.418 39.5122 52.664 39.0382 52.664ZM41.8533 53V50.852C41.8533 50.456 42.2253 50.264 42.6093 50.264C43.0713 50.264 43.3113 50.546 43.3113 51.098V53H43.7913V51.014C43.7913 50.264 43.3893 49.832 42.7533 49.832C42.2913 49.832 42.0273 50.06 41.8773 50.408H41.8533V49.904H41.3733V53H41.8533ZM46.0674 53V52.58H45.4374V50.324H46.1154V49.904H45.4374V49.046H45.0054V49.622C45.0054 49.832 44.9394 49.904 44.7354 49.904H44.4474V50.324H44.9574V52.49C44.9574 52.79 45.1374 53 45.4674 53H46.0674ZM48.795 53H49.275V49.904H48.795V52.046C48.795 52.454 48.423 52.64 48.045 52.64C47.583 52.64 47.337 52.358 47.337 51.806V49.904H46.857V51.89C46.857 52.64 47.265 53.072 47.901 53.072C48.417 53.072 48.651 52.79 48.771 52.496H48.795V53ZM50.7771 53V50.852C50.7771 50.456 51.1371 50.264 51.5151 50.264C51.9711 50.264 52.1811 50.546 52.1811 51.098V53H52.6611V50.852C52.6611 50.456 53.0091 50.264 53.3871 50.264C53.8551 50.264 54.0651 50.552 54.0651 51.098V53H54.5451V51.014C54.5451 50.264 54.1671 49.832 53.5371 49.832C53.0091 49.832 52.7091 50.126 52.5951 50.462H52.5831C52.4151 50.018 52.0431 49.832 51.6351 49.832C51.1551 49.832 50.9391 50.09 50.8011 50.408H50.7771V49.904H50.2971V53H50.7771Z" fill="#4B4B4B"/>
<path d="M206.034 68.072C206.73 68.072 207.24 67.706 207.504 67.118L207.102 66.866C206.934 67.322 206.568 67.622 206.034 67.622C205.314 67.622 204.888 67.1 204.888 66.242V65.618C204.888 64.76 205.314 64.19 206.034 64.19C206.55 64.19 206.898 64.472 207.066 64.904L207.474 64.658C207.21 64.076 206.73 63.74 206.034 63.74C204.978 63.74 204.348 64.532 204.348 65.93C204.348 67.328 204.978 68.072 206.034 68.072ZM209.173 68V67.58H208.717V63.56H208.237V67.502C208.237 67.79 208.417 68 208.747 68H209.173ZM212.391 68V67.58H212.037V65.876C212.037 65.222 211.593 64.832 210.849 64.832C210.291 64.832 209.919 65.108 209.751 65.438L210.039 65.708C210.207 65.426 210.453 65.246 210.825 65.246C211.317 65.246 211.557 65.486 211.557 65.924V66.23H210.945C210.045 66.23 209.625 66.554 209.625 67.136C209.625 67.712 210.009 68.072 210.663 68.072C211.095 68.072 211.425 67.874 211.557 67.496H211.587C211.623 67.784 211.767 68 212.121 68H212.391ZM210.741 67.664C210.369 67.664 210.129 67.49 210.129 67.184V67.058C210.129 66.758 210.375 66.59 210.921 66.59H211.557V67.1C211.557 67.418 211.215 67.664 210.741 67.664ZM214.006 68.072C214.714 68.072 215.152 67.706 215.152 67.106C215.152 66.638 214.888 66.338 214.204 66.236L213.964 66.2C213.58 66.14 213.37 66.02 213.37 65.72C213.37 65.426 213.58 65.24 213.976 65.24C214.372 65.24 214.636 65.426 214.774 65.618L215.092 65.33C214.84 65.018 214.51 64.832 214.012 64.832C213.382 64.832 212.908 65.132 212.908 65.744C212.908 66.32 213.334 66.554 213.904 66.638L214.15 66.674C214.558 66.734 214.69 66.92 214.69 67.16C214.69 67.478 214.45 67.664 214.042 67.664C213.652 67.664 213.364 67.49 213.124 67.19L212.782 67.466C213.058 67.832 213.436 68.072 214.006 68.072ZM216.895 68.072C217.603 68.072 218.041 67.706 218.041 67.106C218.041 66.638 217.777 66.338 217.093 66.236L216.853 66.2C216.469 66.14 216.259 66.02 216.259 65.72C216.259 65.426 216.469 65.24 216.865 65.24C217.261 65.24 217.525 65.426 217.663 65.618L217.981 65.33C217.729 65.018 217.399 64.832 216.901 64.832C216.271 64.832 215.797 65.132 215.797 65.744C215.797 66.32 216.223 66.554 216.793 66.638L217.039 66.674C217.447 66.734 217.579 66.92 217.579 67.16C217.579 67.478 217.339 67.664 216.931 67.664C216.541 67.664 216.253 67.49 216.013 67.19L215.671 67.466C215.947 67.832 216.325 68.072 216.895 68.072ZM219.129 64.178C219.333 64.178 219.423 64.07 219.423 63.908V63.83C219.423 63.668 219.333 63.56 219.129 63.56C218.925 63.56 218.835 63.668 218.835 63.83V63.908C218.835 64.07 218.925 64.178 219.129 64.178ZM218.889 68H219.369V64.904H218.889V68ZM221.541 68.072C222.129 68.072 222.531 67.784 222.729 67.34L222.381 67.106C222.213 67.46 221.931 67.646 221.541 67.646C220.971 67.646 220.677 67.256 220.677 66.716V66.188C220.677 65.648 220.971 65.258 221.541 65.258C221.919 65.258 222.183 65.444 222.297 65.762L222.699 65.558C222.519 65.132 222.153 64.832 221.541 64.832C220.671 64.832 220.161 65.462 220.161 66.452C220.161 67.442 220.671 68.072 221.541 68.072ZM225.926 68V67.58H225.572V65.876C225.572 65.222 225.128 64.832 224.384 64.832C223.826 64.832 223.454 65.108 223.286 65.438L223.574 65.708C223.742 65.426 223.988 65.246 224.36 65.246C224.852 65.246 225.092 65.486 225.092 65.924V66.23H224.48C223.58 66.23 223.16 66.554 223.16 67.136C223.16 67.712 223.544 68.072 224.198 68.072C224.63 68.072 224.96 67.874 225.092 67.496H225.122C225.158 67.784 225.302 68 225.656 68H225.926ZM224.276 67.664C223.904 67.664 223.664 67.49 223.664 67.184V67.058C223.664 66.758 223.91 66.59 224.456 66.59H225.092V67.1C225.092 67.418 224.75 67.664 224.276 67.664ZM227.548 68V67.58H227.092V63.56H226.612V67.502C226.612 67.79 226.792 68 227.122 68H227.548Z" fill="#4B4B4B"/>
<rect x="98" y="79" width="49" height="59" fill="#0043CE"/>
<path d="M108.636 95L110.046 90.812H109.524L108.828 92.924L108.354 94.496H108.324L107.862 92.924L107.172 90.812H106.632L108.024 95H108.636ZM113.176 95V94.58H112.822V92.876C112.822 92.222 112.378 91.832 111.634 91.832C111.076 91.832 110.704 92.108 110.536 92.438L110.824 92.708C110.992 92.426 111.238 92.246 111.61 92.246C112.102 92.246 112.342 92.486 112.342 92.924V93.23H111.73C110.83 93.23 110.41 93.554 110.41 94.136C110.41 94.712 110.794 95.072 111.448 95.072C111.88 95.072 112.21 94.874 112.342 94.496H112.372C112.408 94.784 112.552 95 112.906 95H113.176ZM111.526 94.664C111.154 94.664 110.914 94.49 110.914 94.184V94.058C110.914 93.758 111.16 93.59 111.706 93.59H112.342V94.1C112.342 94.418 112 94.664 111.526 94.664ZM114.501 95V92.9C114.501 92.606 114.813 92.384 115.329 92.384H115.611V91.904H115.425C114.921 91.904 114.639 92.18 114.531 92.474H114.501V91.904H114.021V95H114.501ZM116.624 91.178C116.828 91.178 116.918 91.07 116.918 90.908V90.83C116.918 90.668 116.828 90.56 116.624 90.56C116.42 90.56 116.33 90.668 116.33 90.83V90.908C116.33 91.07 116.42 91.178 116.624 91.178ZM116.384 95H116.864V91.904H116.384V95ZM120.564 95V94.58H120.21V92.876C120.21 92.222 119.766 91.832 119.022 91.832C118.464 91.832 118.092 92.108 117.924 92.438L118.212 92.708C118.38 92.426 118.626 92.246 118.998 92.246C119.49 92.246 119.73 92.486 119.73 92.924V93.23H119.118C118.218 93.23 117.798 93.554 117.798 94.136C117.798 94.712 118.182 95.072 118.836 95.072C119.268 95.072 119.598 94.874 119.73 94.496H119.76C119.796 94.784 119.94 95 120.294 95H120.564ZM118.914 94.664C118.542 94.664 118.302 94.49 118.302 94.184V94.058C118.302 93.758 118.548 93.59 119.094 93.59H119.73V94.1C119.73 94.418 119.388 94.664 118.914 94.664ZM122.693 95V94.58H122.063V92.324H122.741V91.904H122.063V91.046H121.631V91.622C121.631 91.832 121.565 91.904 121.361 91.904H121.073V92.324H121.583V94.49C121.583 94.79 121.763 95 122.093 95H122.693ZM123.913 91.178C124.117 91.178 124.207 91.07 124.207 90.908V90.83C124.207 90.668 124.117 90.56 123.913 90.56C123.709 90.56 123.619 90.668 123.619 90.83V90.908C123.619 91.07 123.709 91.178 123.913 91.178ZM123.673 95H124.153V91.904H123.673V95ZM126.503 95.072C127.331 95.072 127.901 94.436 127.901 93.452C127.901 92.468 127.331 91.832 126.503 91.832C125.675 91.832 125.105 92.468 125.105 93.452C125.105 94.436 125.675 95.072 126.503 95.072ZM126.503 94.646C125.987 94.646 125.621 94.328 125.621 93.674V93.23C125.621 92.576 125.987 92.258 126.503 92.258C127.019 92.258 127.385 92.576 127.385 93.23V93.674C127.385 94.328 127.019 94.646 126.503 94.646ZM129.33 95V92.852C129.33 92.456 129.702 92.264 130.086 92.264C130.548 92.264 130.788 92.546 130.788 93.098V95H131.268V93.014C131.268 92.264 130.866 91.832 130.23 91.832C129.768 91.832 129.504 92.06 129.354 92.408H129.33V91.904H128.85V95H129.33ZM134.941 95V94.58H134.587V92.876C134.587 92.222 134.143 91.832 133.399 91.832C132.841 91.832 132.469 92.108 132.301 92.438L132.589 92.708C132.757 92.426 133.003 92.246 133.375 92.246C133.867 92.246 134.107 92.486 134.107 92.924V93.23H133.495C132.595 93.23 132.175 93.554 132.175 94.136C132.175 94.712 132.559 95.072 133.213 95.072C133.645 95.072 133.975 94.874 134.107 94.496H134.137C134.173 94.784 134.317 95 134.671 95H134.941ZM133.291 94.664C132.919 94.664 132.679 94.49 132.679 94.184V94.058C132.679 93.758 132.925 93.59 133.471 93.59H134.107V94.1C134.107 94.418 133.765 94.664 133.291 94.664ZM136.722 95V94.58H136.266V90.56H135.786V94.502C135.786 94.79 135.966 95 136.296 95H136.722ZM116.323 101V99.104H118.141V98.66H116.323V97.256H118.315V96.812H115.819V101H116.323ZM120.3 101.072C121.128 101.072 121.698 100.436 121.698 99.452C121.698 98.468 121.128 97.832 120.3 97.832C119.472 97.832 118.902 98.468 118.902 99.452C118.902 100.436 119.472 101.072 120.3 101.072ZM120.3 100.646C119.784 100.646 119.418 100.328 119.418 99.674V99.23C119.418 98.576 119.784 98.258 120.3 98.258C120.816 98.258 121.182 98.576 121.182 99.23V99.674C121.182 100.328 120.816 100.646 120.3 100.646ZM123.128 101V98.9C123.128 98.606 123.44 98.384 123.956 98.384H124.238V97.904H124.052C123.548 97.904 123.266 98.18 123.158 98.474H123.128V97.904H122.648V101H123.128ZM125.491 101V98.852C125.491 98.456 125.851 98.264 126.229 98.264C126.685 98.264 126.895 98.546 126.895 99.098V101H127.375V98.852C127.375 98.456 127.723 98.264 128.101 98.264C128.569 98.264 128.779 98.552 128.779 99.098V101H129.259V99.014C129.259 98.264 128.881 97.832 128.251 97.832C127.723 97.832 127.423 98.126 127.309 98.462H127.297C127.129 98.018 126.757 97.832 126.349 97.832C125.869 97.832 125.653 98.09 125.515 98.408H125.491V97.904H125.011V101H125.491Z" fill="white"/>
<g clip-path="url(#clip0_255_478)">
<path d="M282.317 31.5174C282.317 31.1594 282.223 30.4009 281.669 30.4009C280.91 30.4009 280.075 31.935 280.075 33.1793C280.075 33.6907 280.229 34.2958 280.723 34.2958C281.49 34.2958 282.317 32.7361 282.317 31.5174ZM280.646 32.2588C280.74 31.9179 280.851 31.4833 281.072 31.0912C281.217 30.827 281.413 30.5202 281.66 30.5202C281.925 30.5202 281.959 30.8696 281.959 31.1764C281.959 31.4492 281.916 31.7219 281.788 32.2588H280.646ZM281.737 32.4378C281.677 32.685 281.567 33.1452 281.354 33.5372C281.166 33.9122 280.962 34.1764 280.723 34.1764C280.544 34.1764 280.433 34.0145 280.433 33.5117C280.433 33.2816 280.467 32.9662 280.604 32.4378H281.737Z" fill="#4B4B4B"/>
<path d="M283.634 32.6732C283.634 32.6135 283.583 32.5283 283.48 32.5283C283.378 32.5283 283.267 32.6306 283.267 32.7414C283.267 32.801 283.31 32.8863 283.421 32.8863C283.523 32.8863 283.634 32.7755 283.634 32.6732ZM282.858 34.6079C282.841 34.659 282.824 34.7016 282.824 34.7698C282.824 34.9488 282.969 35.0851 283.182 35.0851C283.557 35.0851 283.727 34.5653 283.727 34.5056C283.727 34.4545 283.676 34.4545 283.668 34.4545C283.617 34.4545 283.608 34.48 283.591 34.5226C283.506 34.8295 283.344 34.9829 283.19 34.9829C283.114 34.9829 283.097 34.9317 283.097 34.8465C283.097 34.7613 283.122 34.6931 283.156 34.6079C283.199 34.5056 283.242 34.4033 283.276 34.301C283.31 34.2073 283.455 33.8664 283.463 33.8153C283.48 33.7812 283.489 33.7385 283.489 33.6959C283.489 33.517 283.335 33.3721 283.131 33.3721C282.747 33.3721 282.577 33.892 282.577 33.9601C282.577 34.0028 282.628 34.0028 282.645 34.0028C282.696 34.0028 282.696 33.9857 282.713 33.9431C282.807 33.6192 282.977 33.4829 283.114 33.4829C283.173 33.4829 283.208 33.5084 283.208 33.6107C283.208 33.7045 283.19 33.7556 283.097 33.9942L282.858 34.6079Z" fill="#4B4B4B"/>
<path d="M285.69 34.1902H286.858C286.909 34.1902 286.994 34.1902 286.994 34.105C286.994 34.0027 286.909 34.0027 286.858 34.0027H285.69V32.8351C285.69 32.7925 285.69 32.6987 285.605 32.6987C285.511 32.6987 285.511 32.784 285.511 32.8351V34.0027H284.344C284.292 34.0027 284.199 34.0027 284.199 34.0965C284.199 34.1902 284.284 34.1902 284.344 34.1902H285.511V35.3578C285.511 35.409 285.511 35.5027 285.596 35.5027C285.69 35.5027 285.69 35.409 285.69 35.3578V34.1902Z" fill="#4B4B4B"/>
<path d="M288.543 32.6306C288.543 32.5283 288.543 32.5283 288.432 32.5283C288.185 32.767 287.844 32.767 287.69 32.767V32.9033C287.776 32.9033 288.031 32.9033 288.236 32.801V34.7357C288.236 34.8635 288.236 34.9147 287.861 34.9147H287.716V35.051C287.784 35.051 288.253 35.034 288.389 35.034C288.508 35.034 288.986 35.051 289.071 35.051V34.9147H288.926C288.543 34.9147 288.543 34.8635 288.543 34.7357V32.6306Z" fill="#4B4B4B"/>
</g>
<rect x="209" y="79" width="49" height="59" fill="#262626"/>
<rect x="209" y="79" width="49" height="59" fill="#262626"/>
<path d="M216.126 97.072C216.822 97.072 217.332 96.706 217.596 96.118L217.194 95.866C217.026 96.322 216.66 96.622 216.126 96.622C215.406 96.622 214.98 96.1 214.98 95.242V94.618C214.98 93.76 215.406 93.19 216.126 93.19C216.642 93.19 216.99 93.472 217.158 93.904L217.566 93.658C217.302 93.076 216.822 92.74 216.126 92.74C215.07 92.74 214.44 93.532 214.44 94.93C214.44 96.328 215.07 97.072 216.126 97.072ZM219.658 97.072C220.486 97.072 221.056 96.436 221.056 95.452C221.056 94.468 220.486 93.832 219.658 93.832C218.83 93.832 218.26 94.468 218.26 95.452C218.26 96.436 218.83 97.072 219.658 97.072ZM219.658 96.646C219.142 96.646 218.776 96.328 218.776 95.674V95.23C218.776 94.576 219.142 94.258 219.658 94.258C220.174 94.258 220.54 94.576 220.54 95.23V95.674C220.54 96.328 220.174 96.646 219.658 96.646ZM222.936 97.072C223.644 97.072 224.082 96.706 224.082 96.106C224.082 95.638 223.818 95.338 223.134 95.236L222.894 95.2C222.51 95.14 222.3 95.02 222.3 94.72C222.3 94.426 222.51 94.24 222.906 94.24C223.302 94.24 223.566 94.426 223.704 94.618L224.022 94.33C223.77 94.018 223.44 93.832 222.942 93.832C222.312 93.832 221.838 94.132 221.838 94.744C221.838 95.32 222.264 95.554 222.834 95.638L223.08 95.674C223.488 95.734 223.62 95.92 223.62 96.16C223.62 96.478 223.38 96.664 222.972 96.664C222.582 96.664 222.294 96.49 222.054 96.19L221.712 96.466C221.988 96.832 222.366 97.072 222.936 97.072ZM226.333 97V96.58H225.703V94.324H226.381V93.904H225.703V93.046H225.271V93.622C225.271 93.832 225.205 93.904 225.001 93.904H224.713V94.324H225.223V96.49C225.223 96.79 225.403 97 225.733 97H226.333ZM229.442 97V95.104H231.26V94.66H229.442V93.256H231.434V92.812H228.938V97H229.442ZM234.157 97H234.637V93.904H234.157V96.046C234.157 96.454 233.785 96.64 233.407 96.64C232.945 96.64 232.699 96.358 232.699 95.806V93.904H232.219V95.89C232.219 96.64 232.627 97.072 233.263 97.072C233.779 97.072 234.013 96.79 234.133 96.496H234.157V97ZM236.299 97V94.852C236.299 94.456 236.671 94.264 237.055 94.264C237.517 94.264 237.757 94.546 237.757 95.098V97H238.237V95.014C238.237 94.264 237.835 93.832 237.199 93.832C236.737 93.832 236.473 94.06 236.323 94.408H236.299V93.904H235.819V97H236.299ZM240.542 97.072C241.13 97.072 241.532 96.784 241.73 96.34L241.382 96.106C241.214 96.46 240.932 96.646 240.542 96.646C239.972 96.646 239.678 96.256 239.678 95.716V95.188C239.678 94.648 239.972 94.258 240.542 94.258C240.92 94.258 241.184 94.444 241.298 94.762L241.7 94.558C241.52 94.132 241.154 93.832 240.542 93.832C239.672 93.832 239.162 94.462 239.162 95.452C239.162 96.442 239.672 97.072 240.542 97.072ZM243.851 97V96.58H243.221V94.324H243.899V93.904H243.221V93.046H242.789V93.622C242.789 93.832 242.723 93.904 242.519 93.904H242.231V94.324H242.741V96.49C242.741 96.79 242.921 97 243.251 97H243.851ZM245.071 93.178C245.275 93.178 245.365 93.07 245.365 92.908V92.83C245.365 92.668 245.275 92.56 245.071 92.56C244.867 92.56 244.777 92.668 244.777 92.83V92.908C244.777 93.07 244.867 93.178 245.071 93.178ZM244.831 97H245.311V93.904H244.831V97ZM247.661 97.072C248.489 97.072 249.059 96.436 249.059 95.452C249.059 94.468 248.489 93.832 247.661 93.832C246.833 93.832 246.263 94.468 246.263 95.452C246.263 96.436 246.833 97.072 247.661 97.072ZM247.661 96.646C247.145 96.646 246.779 96.328 246.779 95.674V95.23C246.779 94.576 247.145 94.258 247.661 94.258C248.177 94.258 248.543 94.576 248.543 95.23V95.674C248.543 96.328 248.177 96.646 247.661 96.646ZM250.488 97V94.852C250.488 94.456 250.86 94.264 251.244 94.264C251.706 94.264 251.946 94.546 251.946 95.098V97H252.426V95.014C252.426 94.264 252.024 93.832 251.388 93.832C250.926 93.832 250.662 94.06 250.512 94.408H250.488V93.904H250.008V97H250.488Z" fill="white"/>
<g clip-path="url(#clip1_255_478)">
<path d="M230.305 112.614C230.305 112.591 230.293 112.534 230.225 112.534C230.203 112.534 230.191 112.546 230.112 112.625L229.612 113.182C229.543 113.08 229.214 112.534 228.407 112.534C226.782 112.534 225.157 114.137 225.157 115.819C225.157 117.012 226.009 117.807 227.123 117.807C227.748 117.807 228.305 117.523 228.691 117.182C229.362 116.591 229.487 115.932 229.487 115.909C229.487 115.83 229.407 115.83 229.396 115.83C229.35 115.83 229.316 115.853 229.305 115.909C229.237 116.114 229.066 116.637 228.566 117.057C228.066 117.455 227.612 117.58 227.237 117.58C226.589 117.58 225.816 117.205 225.816 116.08C225.816 115.659 225.964 114.489 226.691 113.637C227.134 113.125 227.816 112.762 228.464 112.762C229.203 112.762 229.634 113.319 229.634 114.159C229.634 114.455 229.612 114.455 229.612 114.534C229.612 114.603 229.691 114.603 229.714 114.603C229.805 114.603 229.805 114.591 229.85 114.455L230.305 112.614Z" fill="white"/>
<path d="M232.886 119.387C232.886 119.364 232.886 119.353 232.761 119.228C231.863 118.318 231.624 116.943 231.624 115.83C231.624 114.568 231.897 113.307 232.795 112.409C232.886 112.318 232.886 112.307 232.886 112.284C232.886 112.228 232.863 112.205 232.818 112.205C232.738 112.205 232.09 112.705 231.659 113.625C231.295 114.421 231.204 115.228 231.204 115.83C231.204 116.398 231.284 117.273 231.681 118.103C232.124 118.989 232.738 119.466 232.818 119.466C232.863 119.466 232.886 119.443 232.886 119.387Z" fill="white"/>
<path d="M236.598 114.023C236.598 113.546 236.473 112.534 235.734 112.534C234.723 112.534 233.609 114.58 233.609 116.239C233.609 116.921 233.814 117.728 234.473 117.728C235.496 117.728 236.598 115.648 236.598 114.023ZM234.371 115.012C234.496 114.557 234.643 113.978 234.939 113.455C235.132 113.103 235.393 112.694 235.723 112.694C236.075 112.694 236.121 113.159 236.121 113.569C236.121 113.932 236.064 114.296 235.893 115.012H234.371ZM235.825 115.25C235.746 115.58 235.598 116.194 235.314 116.716C235.064 117.216 234.791 117.569 234.473 117.569C234.234 117.569 234.087 117.353 234.087 116.682C234.087 116.375 234.132 115.955 234.314 115.25H235.825Z" fill="white"/>
<path d="M238.354 115.564C238.354 115.485 238.286 115.371 238.149 115.371C238.013 115.371 237.865 115.507 237.865 115.655C237.865 115.735 237.922 115.848 238.07 115.848C238.206 115.848 238.354 115.701 238.354 115.564ZM237.32 118.144C237.297 118.212 237.274 118.269 237.274 118.36C237.274 118.598 237.468 118.78 237.752 118.78C238.252 118.78 238.479 118.087 238.479 118.007C238.479 117.939 238.411 117.939 238.399 117.939C238.331 117.939 238.32 117.973 238.297 118.03C238.184 118.439 237.968 118.644 237.763 118.644C237.661 118.644 237.638 118.576 237.638 118.462C237.638 118.348 237.672 118.257 237.718 118.144C237.774 118.007 237.831 117.871 237.877 117.735C237.922 117.61 238.115 117.155 238.127 117.087C238.149 117.042 238.161 116.985 238.161 116.928C238.161 116.689 237.956 116.496 237.684 116.496C237.172 116.496 236.945 117.189 236.945 117.28C236.945 117.337 237.013 117.337 237.036 117.337C237.104 117.337 237.104 117.314 237.127 117.257C237.252 116.826 237.479 116.644 237.661 116.644C237.74 116.644 237.786 116.678 237.786 116.814C237.786 116.939 237.763 117.007 237.638 117.326L237.32 118.144Z" fill="white"/>
<path d="M241.212 115.83C241.212 115.273 241.133 114.398 240.735 113.568C240.303 112.682 239.678 112.205 239.61 112.205C239.565 112.205 239.531 112.239 239.531 112.284C239.531 112.307 239.531 112.318 239.667 112.455C240.383 113.171 240.792 114.318 240.792 115.83C240.792 117.08 240.531 118.353 239.633 119.262C239.531 119.353 239.531 119.364 239.531 119.387C239.531 119.432 239.565 119.466 239.61 119.466C239.678 119.466 240.337 118.966 240.758 118.046C241.133 117.25 241.212 116.443 241.212 115.83Z" fill="white"/>
</g>
<rect x="266" y="79" width="93" height="59" fill="#262626"/>
<rect x="266" y="79" width="93" height="59" fill="#262626"/>
<path d="M296.547 110.072C297.627 110.072 298.323 109.31 298.323 107.906C298.323 106.502 297.627 105.74 296.547 105.74C295.467 105.74 294.771 106.502 294.771 107.906C294.771 109.31 295.467 110.072 296.547 110.072ZM296.547 109.622C295.821 109.622 295.311 109.082 295.311 108.254V107.558C295.311 106.73 295.821 106.19 296.547 106.19C297.273 106.19 297.783 106.73 297.783 107.558V108.254C297.783 109.082 297.273 109.622 296.547 109.622ZM299.341 111.2H299.821V109.496H299.845C300.031 109.88 300.325 110.072 300.751 110.072C301.525 110.072 302.011 109.442 302.011 108.452C302.011 107.462 301.525 106.832 300.751 106.832C300.325 106.832 300.007 107.018 299.845 107.408H299.821V106.904H299.341V111.2ZM300.619 109.64C300.181 109.64 299.821 109.412 299.821 109.01V107.858C299.821 107.516 300.181 107.264 300.619 107.264C301.159 107.264 301.495 107.636 301.495 108.188V108.716C301.495 109.268 301.159 109.64 300.619 109.64ZM304.23 110V109.58H303.6V107.324H304.278V106.904H303.6V106.046H303.168V106.622C303.168 106.832 303.102 106.904 302.898 106.904H302.61V107.324H303.12V109.49C303.12 109.79 303.3 110 303.63 110H304.23ZM305.45 106.178C305.654 106.178 305.744 106.07 305.744 105.908V105.83C305.744 105.668 305.654 105.56 305.45 105.56C305.246 105.56 305.156 105.668 305.156 105.83V105.908C305.156 106.07 305.246 106.178 305.45 106.178ZM305.21 110H305.69V106.904H305.21V110ZM307.35 110V107.852C307.35 107.456 307.71 107.264 308.088 107.264C308.544 107.264 308.754 107.546 308.754 108.098V110H309.234V107.852C309.234 107.456 309.582 107.264 309.96 107.264C310.428 107.264 310.638 107.552 310.638 108.098V110H311.118V108.014C311.118 107.264 310.74 106.832 310.11 106.832C309.582 106.832 309.282 107.126 309.168 107.462H309.156C308.988 107.018 308.616 106.832 308.208 106.832C307.728 106.832 307.512 107.09 307.374 107.408H307.35V106.904H306.87V110H307.35ZM312.508 106.178C312.712 106.178 312.802 106.07 312.802 105.908V105.83C312.802 105.668 312.712 105.56 312.508 105.56C312.304 105.56 312.214 105.668 312.214 105.83V105.908C312.214 106.07 312.304 106.178 312.508 106.178ZM312.268 110H312.748V106.904H312.268V110ZM316.004 110V109.58H314.162L315.956 107.264V106.904H313.67V107.324H315.374L313.616 109.598V110H316.004ZM319.391 110V109.58H319.037V107.876C319.037 107.222 318.593 106.832 317.849 106.832C317.291 106.832 316.919 107.108 316.751 107.438L317.039 107.708C317.207 107.426 317.453 107.246 317.825 107.246C318.317 107.246 318.557 107.486 318.557 107.924V108.23H317.945C317.045 108.23 316.625 108.554 316.625 109.136C316.625 109.712 317.009 110.072 317.663 110.072C318.095 110.072 318.425 109.874 318.557 109.496H318.587C318.623 109.784 318.767 110 319.121 110H319.391ZM317.741 109.664C317.369 109.664 317.129 109.49 317.129 109.184V109.058C317.129 108.758 317.375 108.59 317.921 108.59H318.557V109.1C318.557 109.418 318.215 109.664 317.741 109.664ZM321.52 110V109.58H320.89V107.324H321.568V106.904H320.89V106.046H320.458V106.622C320.458 106.832 320.392 106.904 320.188 106.904H319.9V107.324H320.41V109.49C320.41 109.79 320.59 110 320.92 110H321.52ZM322.74 106.178C322.944 106.178 323.034 106.07 323.034 105.908V105.83C323.034 105.668 322.944 105.56 322.74 105.56C322.536 105.56 322.446 105.668 322.446 105.83V105.908C322.446 106.07 322.536 106.178 322.74 106.178ZM322.5 110H322.98V106.904H322.5V110ZM325.33 110.072C326.158 110.072 326.728 109.436 326.728 108.452C326.728 107.468 326.158 106.832 325.33 106.832C324.502 106.832 323.932 107.468 323.932 108.452C323.932 109.436 324.502 110.072 325.33 110.072ZM325.33 109.646C324.814 109.646 324.448 109.328 324.448 108.674V108.23C324.448 107.576 324.814 107.258 325.33 107.258C325.846 107.258 326.212 107.576 326.212 108.23V108.674C326.212 109.328 325.846 109.646 325.33 109.646ZM328.157 110V107.852C328.157 107.456 328.529 107.264 328.913 107.264C329.375 107.264 329.615 107.546 329.615 108.098V110H330.095V108.014C330.095 107.264 329.693 106.832 329.057 106.832C328.595 106.832 328.331 107.06 328.181 107.408H328.157V106.904H327.677V110H328.157Z" fill="white"/>
<g clip-path="url(#clip2_255_478)">
<path d="M11.5882 86.7913C11.5882 86.7132 11.5882 86.6279 11.503 86.6279C11.4107 86.6279 11.4107 86.7132 11.4107 86.7913V91.0029C11.4107 91.0811 11.4107 91.1663 11.503 91.1663C11.5882 91.1663 11.5882 91.0811 11.5882 91.0029V86.7913Z" fill="black"/>
<path d="M14.2077 88.5811C14.2077 88.2189 14.1864 87.8566 14.0302 87.5228C13.8242 87.0825 13.4478 87.0115 13.2631 87.0115C12.9862 87.0115 12.6595 87.1322 12.4677 87.5512C12.3256 87.8637 12.3043 88.2189 12.3043 88.5811C12.3043 88.922 12.3185 89.3268 12.5103 89.6748C12.7021 90.037 13.0359 90.1294 13.256 90.1294C13.4975 90.1294 13.8455 90.037 14.0444 89.6038C14.1864 89.2913 14.2077 88.9362 14.2077 88.5811ZM13.256 90.0299C13.0785 90.0299 12.8086 89.9163 12.7305 89.4831C12.6808 89.2132 12.6808 88.7941 12.6808 88.5243C12.6808 88.2331 12.6808 87.9348 12.7163 87.6933C12.8015 87.1535 13.1424 87.1109 13.256 87.1109C13.4052 87.1109 13.7035 87.1961 13.7887 87.6436C13.8384 87.8993 13.8384 88.2402 13.8384 88.5243C13.8384 88.8652 13.8384 89.1706 13.7887 89.4618C13.7177 89.895 13.462 90.0299 13.256 90.0299Z" fill="black"/>
<path d="M15.6248 88.9717C15.6461 88.922 15.6461 88.9078 15.6461 88.8936C15.6461 88.8865 15.6461 88.8722 15.6248 88.8225L14.8365 86.7345C14.8081 86.6563 14.7796 86.6279 14.7299 86.6279C14.6802 86.6279 14.6376 86.6705 14.6376 86.7203C14.6376 86.7345 14.6376 86.7416 14.6589 86.7913L15.4615 88.8936L14.6589 90.9887C14.6376 91.0384 14.6376 91.0526 14.6376 91.074C14.6376 91.1237 14.6802 91.1663 14.7299 91.1663C14.7868 91.1663 14.8081 91.1166 14.8223 91.074L15.6248 88.9717Z" fill="black"/>
</g>
<g clip-path="url(#clip3_255_478)">
<path d="M11.5882 126.791C11.5882 126.713 11.5882 126.628 11.503 126.628C11.4107 126.628 11.4107 126.713 11.4107 126.791V131.003C11.4107 131.081 11.4107 131.166 11.503 131.166C11.5882 131.166 11.5882 131.081 11.5882 131.003V126.791Z" fill="black"/>
<path d="M14.2077 128.581C14.2077 128.219 14.1864 127.857 14.0302 127.523C13.8242 127.082 13.4478 127.011 13.2631 127.011C12.9862 127.011 12.6595 127.132 12.4677 127.551C12.3256 127.864 12.3043 128.219 12.3043 128.581C12.3043 128.922 12.3185 129.327 12.5103 129.675C12.7021 130.037 13.0359 130.129 13.256 130.129C13.4975 130.129 13.8455 130.037 14.0444 129.604C14.1864 129.291 14.2077 128.936 14.2077 128.581ZM13.256 130.03C13.0785 130.03 12.8086 129.916 12.7305 129.483C12.6808 129.213 12.6808 128.794 12.6808 128.524C12.6808 128.233 12.6808 127.935 12.7163 127.693C12.8015 127.154 13.1424 127.111 13.256 127.111C13.4052 127.111 13.7035 127.196 13.7887 127.644C13.8384 127.899 13.8384 128.24 13.8384 128.524C13.8384 128.865 13.8384 129.171 13.7887 129.462C13.7177 129.895 13.462 130.03 13.256 130.03Z" fill="black"/>
<path d="M15.6248 128.972C15.6461 128.922 15.6461 128.908 15.6461 128.894C15.6461 128.886 15.6461 128.872 15.6248 128.823L14.8365 126.734C14.8081 126.656 14.7796 126.628 14.7299 126.628C14.6802 126.628 14.6376 126.671 14.6376 126.72C14.6376 126.734 14.6376 126.742 14.6589 126.791L15.4615 128.894L14.6589 130.989C14.6376 131.038 14.6376 131.053 14.6376 131.074C14.6376 131.124 14.6802 131.166 14.7299 131.166C14.7868 131.166 14.8081 131.117 14.8223 131.074L15.6248 128.972Z" fill="black"/>
</g>
<path d="M11.9546 109.503C11.9359 109.597 11.8984 109.738 11.8984 109.766C11.8984 109.869 11.9827 109.925 12.0765 109.925C12.1515 109.925 12.2546 109.878 12.3015 109.756C12.3015 109.747 12.3765 109.466 12.414 109.316L12.5452 108.781C12.5734 108.641 12.6109 108.51 12.6484 108.378C12.6671 108.275 12.714 108.097 12.7234 108.078C12.8077 107.891 13.1265 107.347 13.6984 107.347C13.9702 107.347 14.0171 107.572 14.0171 107.769C14.0171 108.135 13.7265 108.903 13.6327 109.156C13.5765 109.297 13.5671 109.372 13.5671 109.438C13.5671 109.719 13.7827 109.925 14.064 109.925C14.6265 109.925 14.8421 109.053 14.8421 109.006C14.8421 108.941 14.7952 108.941 14.7765 108.941C14.7109 108.941 14.7109 108.96 14.6827 109.053C14.5609 109.456 14.364 109.794 14.0734 109.794C13.9702 109.794 13.9327 109.738 13.9327 109.597C13.9327 109.447 13.9796 109.306 14.0359 109.175C14.1484 108.856 14.4015 108.2 14.4015 107.853C14.4015 107.46 14.1484 107.216 13.7171 107.216C13.1734 107.216 12.8827 107.6 12.7796 107.741C12.7515 107.403 12.5077 107.216 12.2265 107.216C11.9546 107.216 11.8421 107.45 11.7859 107.553C11.6827 107.76 11.6077 108.116 11.6077 108.135C11.6077 108.2 11.664 108.2 11.6734 108.2C11.739 108.2 11.739 108.191 11.7765 108.06C11.8796 107.638 12.0015 107.347 12.2171 107.347C12.3296 107.347 12.3952 107.422 12.3952 107.619C12.3952 107.75 12.3765 107.816 12.3015 108.125L11.9546 109.503Z" fill="black"/>
<g clip-path="url(#clip4_255_478)">
<path d="M13.7717 99.9861C13.5959 99.9861 13.4397 100.133 13.4397 100.308C13.4397 100.494 13.5959 100.64 13.7717 100.64C13.9573 100.64 14.1038 100.494 14.1038 100.308C14.1038 100.133 13.9573 99.9861 13.7717 99.9861Z" fill="black"/>
<path d="M13.7717 98.2593C13.5959 98.2593 13.4397 98.4058 13.4397 98.5815C13.4397 98.7671 13.5959 98.9136 13.7717 98.9136C13.9573 98.9136 14.1038 98.7671 14.1038 98.5815C14.1038 98.4058 13.9573 98.2593 13.7717 98.2593Z" fill="black"/>
<path d="M13.7717 96.5322C13.5959 96.5322 13.4397 96.6787 13.4397 96.8545C13.4397 97.04 13.5959 97.1865 13.7717 97.1865C13.9573 97.1865 14.1038 97.04 14.1038 96.8545C14.1038 96.6787 13.9573 96.5322 13.7717 96.5322Z" fill="black"/>
</g>
<g clip-path="url(#clip5_255_478)">
<path d="M13.7717 119.986C13.5959 119.986 13.4397 120.133 13.4397 120.308C13.4397 120.494 13.5959 120.64 13.7717 120.64C13.9573 120.64 14.1038 120.494 14.1038 120.308C14.1038 120.133 13.9573 119.986 13.7717 119.986Z" fill="black"/>
<path d="M13.7717 118.259C13.5959 118.259 13.4397 118.406 13.4397 118.582C13.4397 118.767 13.5959 118.914 13.7717 118.914C13.9573 118.914 14.1038 118.767 14.1038 118.582C14.1038 118.406 13.9573 118.259 13.7717 118.259Z" fill="black"/>
<path d="M13.7717 116.532C13.5959 116.532 13.4397 116.679 13.4397 116.854C13.4397 117.04 13.5959 117.187 13.7717 117.187C13.9573 117.187 14.1038 117.04 14.1038 116.854C14.1038 116.679 13.9573 116.532 13.7717 116.532Z" fill="black"/>
</g>
<g clip-path="url(#clip6_255_478)">
<path d="M60.4942 64.9375C60.5539 64.7159 60.6476 64.554 61.0823 64.5369C61.1079 64.5369 61.176 64.5284 61.176 64.4261C61.176 64.4261 61.176 64.3665 61.1079 64.3665C60.9289 64.3665 60.7329 64.3835 60.5539 64.3835C60.3664 64.3835 60.1618 64.3665 59.9829 64.3665C59.9488 64.3665 59.8891 64.3665 59.8891 64.4773C59.8891 64.5369 59.9402 64.5369 59.9829 64.5369C60.2982 64.5454 60.3579 64.6562 60.3579 64.7755C60.3579 64.7926 60.3408 64.8778 60.3408 64.8863L59.8465 66.8295C59.6675 67.5625 59.0368 68.0312 58.4914 68.0312C58.1249 68.0312 57.8351 67.7926 57.8351 67.3238C57.8351 67.3153 57.8351 67.1449 57.8948 66.9062L58.4147 64.7841C58.4658 64.588 58.4743 64.5369 58.8749 64.5369C59.0198 64.5369 59.0624 64.5369 59.0624 64.4261C59.0624 64.3665 59.0027 64.3665 58.9857 64.3665C58.8323 64.3665 58.4402 64.3835 58.2868 64.3835C58.1334 64.3835 57.7414 64.3665 57.588 64.3665C57.5454 64.3665 57.4857 64.3665 57.4857 64.4773C57.4857 64.5369 57.5283 64.5369 57.6391 64.5369C57.6476 64.5369 57.7499 64.5369 57.8437 64.5454C57.9374 64.5625 57.9885 64.5625 57.9885 64.6392C57.9885 64.6648 57.9289 64.8949 57.8948 65.0227L57.7755 65.5C57.7243 65.713 57.4687 66.7358 57.4431 66.8466C57.409 66.9915 57.409 67.0767 57.409 67.1619C57.409 67.8182 57.9033 68.2017 58.4743 68.2017C59.1562 68.2017 59.8295 67.588 60.0084 66.8721L60.4942 64.9375Z" fill="#4B4B4B"/>
<path d="M61.5378 68.4373C61.4015 68.6503 61.2822 68.7441 61.0606 68.7611C61.0179 68.7611 60.9668 68.7611 60.9668 68.8378C60.9668 68.8804 61.0009 68.8975 61.0265 68.8975C61.1202 68.8975 61.2481 68.8804 61.3503 68.8804C61.4697 68.8804 61.6316 68.8975 61.7424 68.8975C61.7594 68.8975 61.8191 68.8975 61.8191 68.8123C61.8191 68.7611 61.7679 68.7611 61.7509 68.7611C61.7253 68.7526 61.589 68.7526 61.589 68.6503C61.589 68.5992 61.6231 68.5395 61.6401 68.5054L61.9469 68.0282H63.0378L63.1231 68.6588C63.1145 68.7015 63.089 68.7611 62.8674 68.7611C62.8162 68.7611 62.7651 68.7611 62.7651 68.8463C62.7651 68.8634 62.7736 68.8975 62.8248 68.8975C62.9356 68.8975 63.2083 68.8804 63.3191 68.8804C63.3873 68.8804 63.4725 68.889 63.5407 68.889C63.6089 68.889 63.6856 68.8975 63.7537 68.8975C63.8049 68.8975 63.8304 68.8634 63.8304 68.8208C63.8304 68.7611 63.7878 68.7611 63.7282 68.7611C63.5066 68.7611 63.4981 68.727 63.4895 68.6418L63.1486 66.2895C63.1401 66.2128 63.1316 66.1873 63.0634 66.1873C62.9867 66.1873 62.9697 66.2213 62.9356 66.2725L61.5378 68.4373ZM62.0407 67.8918L62.8333 66.6475L63.0123 67.8918H62.0407Z" fill="#4B4B4B"/>
<path d="M66.0866 69.3864C66.0866 69.3693 66.0866 69.3608 65.9929 69.267C65.3196 68.5852 65.1406 67.554 65.1406 66.7187C65.1406 65.7727 65.3452 64.8267 66.0185 64.1534C66.0866 64.0852 66.0866 64.0767 66.0866 64.0597C66.0866 64.017 66.0696 64 66.0355 64C65.9758 64 65.49 64.375 65.1662 65.0653C64.8935 65.6619 64.8253 66.267 64.8253 66.7187C64.8253 67.1449 64.8849 67.8011 65.1832 68.4233C65.5156 69.0881 65.9758 69.446 66.0355 69.446C66.0696 69.446 66.0866 69.429 66.0866 69.3864Z" fill="#4B4B4B"/>
<path d="M68.8708 65.3635C68.8708 65.0056 68.777 64.2471 68.2231 64.2471C67.4645 64.2471 66.6293 65.7812 66.6293 67.0255C66.6293 67.5368 66.7827 68.142 67.277 68.142C68.0441 68.142 68.8708 66.5823 68.8708 65.3635ZM67.2003 66.105C67.2941 65.7641 67.4049 65.3295 67.6265 64.9374C67.7714 64.6732 67.9674 64.3664 68.2145 64.3664C68.4788 64.3664 68.5128 64.7158 68.5128 65.0226C68.5128 65.2954 68.4702 65.5681 68.3424 66.105H67.2003ZM68.2913 66.284C68.2316 66.5312 68.1208 66.9914 67.9077 67.3834C67.7202 67.7584 67.5157 68.0226 67.277 68.0226C67.0981 68.0226 66.9873 67.8607 66.9873 67.3579C66.9873 67.1278 67.0214 66.8124 67.1577 66.284H68.2913Z" fill="#4B4B4B"/>
<path d="M70.1878 66.5196C70.1878 66.46 70.1366 66.3748 70.0344 66.3748C69.9321 66.3748 69.8213 66.477 69.8213 66.5878C69.8213 66.6475 69.8639 66.7327 69.9747 66.7327C70.077 66.7327 70.1878 66.6219 70.1878 66.5196ZM69.4122 68.4543C69.3952 68.5054 69.3781 68.5481 69.3781 68.6162C69.3781 68.7952 69.523 68.9316 69.7361 68.9316C70.1111 68.9316 70.2815 68.4117 70.2815 68.352C70.2815 68.3009 70.2304 68.3009 70.2219 68.3009C70.1707 68.3009 70.1622 68.3265 70.1452 68.3691C70.0599 68.6759 69.898 68.8293 69.7446 68.8293C69.6679 68.8293 69.6508 68.7782 69.6508 68.6929C69.6508 68.6077 69.6764 68.5395 69.7105 68.4543C69.7531 68.352 69.7957 68.2498 69.8298 68.1475C69.8639 68.0537 70.0088 67.7128 70.0173 67.6617C70.0344 67.6276 70.0429 67.585 70.0429 67.5424C70.0429 67.3634 69.8895 67.2185 69.6849 67.2185C69.3014 67.2185 69.131 67.7384 69.131 67.8066C69.131 67.8492 69.1821 67.8492 69.1991 67.8492C69.2503 67.8492 69.2503 67.8321 69.2673 67.7895C69.3611 67.4657 69.5315 67.3293 69.6679 67.3293C69.7275 67.3293 69.7616 67.3549 69.7616 67.4571C69.7616 67.5509 69.7446 67.602 69.6508 67.8407L69.4122 68.4543Z" fill="#4B4B4B"/>
<path d="M72.3316 66.7187C72.3316 66.3011 72.272 65.6449 71.9737 65.0227C71.6498 64.358 71.1811 64 71.1299 64C71.0959 64 71.0703 64.0256 71.0703 64.0597C71.0703 64.0767 71.0703 64.0852 71.1726 64.1875C71.7095 64.7244 72.0163 65.5852 72.0163 66.7187C72.0163 67.6562 71.8203 68.6108 71.147 69.2926C71.0703 69.3608 71.0703 69.3693 71.0703 69.3864C71.0703 69.4205 71.0959 69.446 71.1299 69.446C71.1811 69.446 71.6754 69.071 71.9907 68.3807C72.272 67.7841 72.3316 67.179 72.3316 66.7187Z" fill="#4B4B4B"/>
</g>
<rect x="36.5" y="74.5" width="115" height="68" stroke="#A2A9B0" stroke-dasharray="3 3"/>
<rect x="30.5" y="57.5" width="145" height="96" stroke="#A2A9B0" stroke-dasharray="3 3"/>
<rect x="204.5" y="72.5" width="159" height="72" stroke="#A2A9B0" stroke-dasharray="3 3"/>
<path d="M115.396 114.455C115.475 114.159 115.6 113.943 116.18 113.921C116.214 113.921 116.305 113.909 116.305 113.773C116.305 113.773 116.305 113.693 116.214 113.693C115.975 113.693 115.714 113.716 115.475 113.716C115.225 113.716 114.953 113.693 114.714 113.693C114.668 113.693 114.589 113.693 114.589 113.841C114.589 113.921 114.657 113.921 114.714 113.921C115.134 113.932 115.214 114.08 115.214 114.239C115.214 114.262 115.191 114.375 115.191 114.387L114.532 116.977C114.293 117.955 113.453 118.58 112.725 118.58C112.237 118.58 111.85 118.262 111.85 117.637C111.85 117.625 111.85 117.398 111.93 117.08L112.623 114.25C112.691 113.989 112.703 113.921 113.237 113.921C113.43 113.921 113.487 113.921 113.487 113.773C113.487 113.693 113.407 113.693 113.384 113.693C113.18 113.693 112.657 113.716 112.453 113.716C112.248 113.716 111.725 113.693 111.521 113.693C111.464 113.693 111.384 113.693 111.384 113.841C111.384 113.921 111.441 113.921 111.589 113.921C111.6 113.921 111.737 113.921 111.862 113.932C111.987 113.955 112.055 113.955 112.055 114.057C112.055 114.091 111.975 114.398 111.93 114.568L111.771 115.205C111.703 115.489 111.362 116.852 111.328 117C111.282 117.193 111.282 117.307 111.282 117.421C111.282 118.296 111.941 118.807 112.703 118.807C113.612 118.807 114.509 117.989 114.748 117.034L115.396 114.455Z" fill="white"/>
<path d="M119.367 116.871C119.549 116.598 119.719 116.473 119.992 116.451C120.049 116.451 120.105 116.451 120.105 116.348C120.105 116.326 120.094 116.269 120.037 116.269C119.912 116.269 119.753 116.292 119.628 116.292C119.469 116.292 119.253 116.269 119.105 116.269C119.06 116.269 119.003 116.292 119.003 116.382C119.003 116.451 119.071 116.451 119.094 116.451C119.253 116.462 119.299 116.53 119.299 116.598C119.299 116.678 119.264 116.723 119.208 116.803L117.549 119.257L117.083 116.667C117.071 116.621 117.071 116.61 117.071 116.587C117.071 116.451 117.355 116.451 117.389 116.451C117.48 116.451 117.549 116.451 117.549 116.348C117.549 116.337 117.537 116.269 117.458 116.269C117.31 116.269 116.958 116.292 116.81 116.292C116.685 116.292 116.367 116.269 116.242 116.269C116.196 116.269 116.139 116.292 116.139 116.382C116.139 116.451 116.208 116.451 116.264 116.451C116.549 116.451 116.56 116.485 116.583 116.621L117.139 119.701C117.151 119.803 117.162 119.837 117.253 119.837C117.355 119.837 117.378 119.803 117.435 119.723L119.367 116.871Z" fill="white"/>
<path d="M123.166 120.387C123.166 120.364 123.166 120.353 123.041 120.228C122.144 119.318 121.905 117.943 121.905 116.83C121.905 115.568 122.178 114.307 123.076 113.409C123.166 113.318 123.166 113.307 123.166 113.284C123.166 113.228 123.144 113.205 123.098 113.205C123.019 113.205 122.371 113.705 121.939 114.625C121.576 115.421 121.485 116.228 121.485 116.83C121.485 117.398 121.564 118.273 121.962 119.103C122.405 119.989 123.019 120.466 123.098 120.466C123.144 120.466 123.166 120.443 123.166 120.387Z" fill="white"/>
<path d="M126.879 115.023C126.879 114.546 126.754 113.534 126.015 113.534C125.004 113.534 123.89 115.58 123.89 117.239C123.89 117.921 124.095 118.728 124.754 118.728C125.776 118.728 126.879 116.648 126.879 115.023ZM124.651 116.012C124.776 115.557 124.924 114.978 125.22 114.455C125.413 114.103 125.674 113.694 126.004 113.694C126.356 113.694 126.401 114.159 126.401 114.569C126.401 114.932 126.345 115.296 126.174 116.012H124.651ZM126.106 116.25C126.026 116.58 125.879 117.194 125.595 117.716C125.345 118.216 125.072 118.569 124.754 118.569C124.515 118.569 124.367 118.353 124.367 117.682C124.367 117.375 124.413 116.955 124.595 116.25H126.106Z" fill="white"/>
<path d="M128.635 116.564C128.635 116.485 128.566 116.371 128.43 116.371C128.294 116.371 128.146 116.507 128.146 116.655C128.146 116.735 128.203 116.848 128.351 116.848C128.487 116.848 128.635 116.701 128.635 116.564ZM127.601 119.144C127.578 119.212 127.555 119.269 127.555 119.36C127.555 119.598 127.748 119.78 128.032 119.78C128.532 119.78 128.76 119.087 128.76 119.007C128.76 118.939 128.691 118.939 128.68 118.939C128.612 118.939 128.601 118.973 128.578 119.03C128.464 119.439 128.248 119.644 128.044 119.644C127.941 119.644 127.919 119.576 127.919 119.462C127.919 119.348 127.953 119.257 127.998 119.144C128.055 119.007 128.112 118.871 128.157 118.735C128.203 118.61 128.396 118.155 128.407 118.087C128.43 118.042 128.441 117.985 128.441 117.928C128.441 117.689 128.237 117.496 127.964 117.496C127.453 117.496 127.226 118.189 127.226 118.28C127.226 118.337 127.294 118.337 127.316 118.337C127.385 118.337 127.385 118.314 127.407 118.257C127.532 117.826 127.76 117.644 127.941 117.644C128.021 117.644 128.066 117.678 128.066 117.814C128.066 117.939 128.044 118.007 127.919 118.326L127.601 119.144Z" fill="white"/>
<path d="M131.493 116.83C131.493 116.273 131.414 115.398 131.016 114.568C130.584 113.682 129.959 113.205 129.891 113.205C129.845 113.205 129.811 113.239 129.811 113.284C129.811 113.307 129.811 113.318 129.948 113.455C130.664 114.171 131.073 115.318 131.073 116.83C131.073 118.08 130.811 119.353 129.914 120.262C129.811 120.353 129.811 120.364 129.811 120.387C129.811 120.432 129.845 120.466 129.891 120.466C129.959 120.466 130.618 119.966 131.039 119.046C131.414 118.25 131.493 117.443 131.493 116.83Z" fill="white"/>
<path d="M64.8353 114.6C64.9228 114.275 65.0603 114.038 65.6978 114.013C65.7353 114.013 65.8353 114 65.8353 113.85C65.8353 113.85 65.8353 113.763 65.7353 113.763C65.4728 113.763 65.1853 113.788 64.9228 113.788C64.6478 113.788 64.3478 113.763 64.0853 113.763C64.0353 113.763 63.9478 113.763 63.9478 113.925C63.9478 114.013 64.0228 114.013 64.0853 114.013C64.5478 114.025 64.6353 114.188 64.6353 114.363C64.6353 114.388 64.6103 114.513 64.6103 114.525L63.8853 117.375C63.6228 118.45 62.6978 119.138 61.8978 119.138C61.3603 119.138 60.9353 118.788 60.9353 118.1C60.9353 118.088 60.9353 117.838 61.0228 117.488L61.7853 114.375C61.8603 114.088 61.8728 114.013 62.4603 114.013C62.6728 114.013 62.7353 114.013 62.7353 113.85C62.7353 113.763 62.6478 113.763 62.6228 113.763C62.3978 113.763 61.8228 113.788 61.5978 113.788C61.3728 113.788 60.7978 113.763 60.5728 113.763C60.5103 113.763 60.4228 113.763 60.4228 113.925C60.4228 114.013 60.4853 114.013 60.6478 114.013C60.6603 114.013 60.8103 114.013 60.9478 114.025C61.0853 114.05 61.1603 114.05 61.1603 114.163C61.1603 114.2 61.0728 114.538 61.0228 114.725L60.8478 115.425C60.7728 115.738 60.3978 117.238 60.3603 117.4C60.3103 117.613 60.3103 117.738 60.3103 117.863C60.3103 118.825 61.0353 119.388 61.8728 119.388C62.8728 119.388 63.8603 118.488 64.1228 117.438L64.8353 114.6Z" fill="white"/>
<path d="M67.516 116.995C67.5535 116.833 67.566 116.82 67.691 116.795H68.0535C68.566 116.795 69.2035 116.795 69.2035 117.37C69.2035 117.608 69.1035 117.958 68.841 118.158C68.616 118.333 68.266 118.42 67.8785 118.42H67.166L67.516 116.995ZM68.5285 118.508C69.191 118.358 69.7785 117.958 69.7785 117.458C69.7785 116.983 69.216 116.595 68.4035 116.595H66.691C66.591 116.595 66.516 116.595 66.516 116.72C66.516 116.795 66.5785 116.795 66.691 116.795C66.7035 116.795 66.8035 116.795 66.9035 116.808C67.0285 116.82 67.0285 116.833 67.0285 116.895C67.0285 116.895 67.0285 116.933 67.016 117.008L66.266 119.97C66.2285 120.158 66.216 120.208 65.7785 120.208C65.6785 120.208 65.616 120.208 65.616 120.32C65.616 120.383 65.6535 120.408 65.7035 120.408C65.8035 120.408 65.941 120.395 66.041 120.395C66.1535 120.395 66.316 120.383 66.416 120.383C66.5285 120.383 66.6535 120.395 66.766 120.395C66.891 120.395 67.0285 120.408 67.141 120.408C67.1785 120.408 67.266 120.408 67.266 120.295C67.266 120.208 67.2035 120.208 67.0785 120.208C66.991 120.208 66.966 120.208 66.866 120.195C66.741 120.183 66.741 120.17 66.741 120.108C66.741 120.108 66.741 120.07 66.766 119.995L67.116 118.583H67.8785C68.3535 118.583 68.566 118.82 68.566 119.083C68.566 119.158 68.516 119.345 68.4785 119.47C68.416 119.733 68.391 119.808 68.391 119.908C68.391 120.345 68.8035 120.52 69.216 120.52C69.7285 120.52 69.9535 119.97 69.9535 119.87C69.9535 119.858 69.941 119.795 69.8535 119.795C69.7785 119.795 69.766 119.833 69.7535 119.895C69.6785 120.133 69.466 120.358 69.241 120.358C69.091 120.358 68.9785 120.308 68.9785 119.995C68.9785 119.858 69.016 119.57 69.041 119.42C69.066 119.27 69.066 119.22 69.066 119.158C69.066 119.095 69.066 118.908 68.9035 118.745C68.8035 118.633 68.6535 118.558 68.5285 118.508Z" fill="white"/>
<line x1="258.828" y1="112.86" x2="264.42" y2="104.57" stroke="black" stroke-width="0.5"/>
<rect x="162" y="85" width="8" height="8" fill="#121619"/>
<path d="M169.5 86H168V86.5H168.845L168 87.5V88H169.5V87.5H168.655L169.5 86.5V86Z" fill="white"/>
<path d="M167 89.405L167.52 88.5L167.088 88.25L166.543 89.1925C165.623 88.8516 164.594 88.982 163.789 89.5415C162.983 90.101 162.502 91.0191 162.5 92H163C163.001 91.1968 163.387 90.4429 164.039 89.9734C164.69 89.504 165.528 89.3762 166.29 89.63L165.5 91C165.274 90.9998 165.075 91.1516 165.017 91.3702C164.958 91.5888 165.053 91.8196 165.249 91.9329C165.445 92.0461 165.693 92.0136 165.853 91.8536C166.013 91.6936 166.046 91.446 165.932 91.25L166.75 89.8375C167.523 90.2836 167.999 91.1077 168 92H168.5C168.499 90.9293 167.927 89.9403 167 89.405Z" fill="white"/>
<rect x="162" y="95" width="8" height="8" fill="#121619"/>
<path d="M169.5 96H168V96.5H168.845L168 97.5V98H169.5V97.5H168.655L169.5 96.5V96Z" fill="white"/>
<path d="M167 99.405L167.52 98.5L167.088 98.25L166.543 99.1925C165.623 98.8516 164.594 98.982 163.789 99.5415C162.983 100.101 162.502 101.019 162.5 102H163C163.001 101.197 163.387 100.443 164.039 99.9734C164.69 99.504 165.528 99.3762 166.29 99.63L165.5 101C165.274 101 165.075 101.152 165.017 101.37C164.958 101.589 165.053 101.82 165.249 101.933C165.445 102.046 165.693 102.014 165.853 101.854C166.013 101.694 166.046 101.446 165.932 101.25L166.75 99.8375C167.523 100.284 167.999 101.108 168 102H168.5C168.499 100.929 167.927 99.9403 167 99.405Z" fill="white"/>
<rect x="162" y="85" width="8" height="8" fill="#121619"/>
<path d="M169.5 86H168V86.5H168.845L168 87.5V88H169.5V87.5H168.655L169.5 86.5V86Z" fill="white"/>
<path d="M167 89.405L167.52 88.5L167.088 88.25L166.543 89.1925C165.623 88.8516 164.594 88.982 163.789 89.5415C162.983 90.101 162.502 91.0191 162.5 92H163C163.001 91.1968 163.387 90.4429 164.039 89.9734C164.69 89.504 165.528 89.3762 166.29 89.63L165.5 91C165.274 90.9998 165.075 91.1516 165.017 91.3702C164.958 91.5888 165.053 91.8196 165.249 91.9329C165.445 92.0461 165.693 92.0136 165.853 91.8536C166.013 91.6936 166.046 91.446 165.932 91.25L166.75 89.8375C167.523 90.2836 167.999 91.1077 168 92H168.5C168.499 90.9293 167.927 89.9403 167 89.405Z" fill="white"/>
<rect x="162" y="105" width="8" height="8" fill="#121619"/>
<path d="M169.5 106H168V106.5H168.845L168 107.5V108H169.5V107.5H168.655L169.5 106.5V106Z" fill="white"/>
<path d="M167 109.405L167.52 108.5L167.088 108.25L166.543 109.192C165.623 108.852 164.594 108.982 163.789 109.541C162.983 110.101 162.502 111.019 162.5 112H163C163.001 111.197 163.387 110.443 164.039 109.973C164.69 109.504 165.528 109.376 166.29 109.63L165.5 111C165.274 111 165.075 111.152 165.017 111.37C164.958 111.589 165.053 111.82 165.249 111.933C165.445 112.046 165.693 112.014 165.853 111.854C166.013 111.694 166.046 111.446 165.932 111.25L166.75 109.837C167.523 110.284 167.999 111.108 168 112H168.5C168.499 110.929 167.927 109.94 167 109.405Z" fill="white"/>
<rect x="162" y="115" width="8" height="8" fill="#121619"/>
<path d="M169.5 116H168V116.5H168.845L168 117.5V118H169.5V117.5H168.655L169.5 116.5V116Z" fill="white"/>
<path d="M167 119.405L167.52 118.5L167.088 118.25L166.543 119.192C165.623 118.852 164.594 118.982 163.789 119.541C162.983 120.101 162.502 121.019 162.5 122H163C163.001 121.197 163.387 120.443 164.039 119.973C164.69 119.504 165.528 119.376 166.29 119.63L165.5 121C165.274 121 165.075 121.152 165.017 121.37C164.958 121.589 165.053 121.82 165.249 121.933C165.445 122.046 165.693 122.014 165.853 121.854C166.013 121.694 166.046 121.446 165.932 121.25L166.75 119.837C167.523 120.284 167.999 121.108 168 122H168.5C168.499 120.929 167.927 119.94 167 119.405Z" fill="white"/>
<rect x="162" y="125" width="8" height="8" fill="#121619"/>
<path d="M169.5 126H168V126.5H168.845L168 127.5V128H169.5V127.5H168.655L169.5 126.5V126Z" fill="white"/>
<path d="M167 129.405L167.52 128.5L167.088 128.25L166.543 129.192C165.623 128.852 164.594 128.982 163.789 129.541C162.983 130.101 162.502 131.019 162.5 132H163C163.001 131.197 163.387 130.443 164.039 129.973C164.69 129.504 165.528 129.376 166.29 129.63L165.5 131C165.274 131 165.075 131.152 165.017 131.37C164.958 131.589 165.053 131.82 165.249 131.933C165.445 132.046 165.693 132.014 165.853 131.854C166.013 131.694 166.046 131.446 165.932 131.25L166.75 129.837C167.523 130.284 167.999 131.108 168 132H168.5C168.499 130.929 167.927 129.94 167 129.405Z" fill="white"/>
<path d="M123.177 144.823C123.079 144.726 122.921 144.726 122.823 144.823L121.232 146.414C121.135 146.512 121.135 146.67 121.232 146.768C121.33 146.865 121.488 146.865 121.586 146.768L123 145.354L124.414 146.768C124.512 146.865 124.67 146.865 124.768 146.768C124.865 146.67 124.865 146.512 124.768 146.414L123.177 144.823ZM123.25 157V145H122.75V157H123.25Z" fill="#4B4B4B"/>
<defs>
<clipPath id="clip0_255_478">
<rect width="9.27273" height="6" fill="white" transform="translate(280 30)"/>
</clipPath>
<clipPath id="clip1_255_478">
<rect width="16.7273" height="8" fill="white" transform="translate(225 112)"/>
</clipPath>
<clipPath id="clip2_255_478">
<rect width="5" height="5" fill="white" transform="translate(11 86.5)"/>
</clipPath>
<clipPath id="clip3_255_478">
<rect width="5" height="5" fill="white" transform="translate(11 126.5)"/>
</clipPath>
<clipPath id="clip4_255_478">
<rect width="5" height="1.25" fill="white" transform="matrix(0 -1 1 0 13 101)"/>
</clipPath>
<clipPath id="clip5_255_478">
<rect width="5" height="1.25" fill="white" transform="matrix(0 -1 1 0 13 121)"/>
</clipPath>
<clipPath id="clip6_255_478">
<rect width="15.2727" height="6" fill="white" transform="translate(57 64)"/>
</clipPath>
</defs>
</svg>
