<svg width="380" height="203" viewBox="0 0 380 203" fill="none" xmlns="http://www.w3.org/2000/svg">
<rect width="380" height="203" fill="white"/>
<line x1="18" y1="88.75" x2="168" y2="88.75" stroke="black" stroke-width="0.5"/>
<line x1="18" y1="98.75" x2="168" y2="98.75" stroke="black" stroke-width="0.5"/>
<line x1="18" y1="108.75" x2="168" y2="108.75" stroke="black" stroke-width="0.5"/>
<line x1="18" y1="118.75" x2="168" y2="118.75" stroke="black" stroke-width="0.5"/>
<line x1="18" y1="128.75" x2="168" y2="128.75" stroke="black" stroke-width="0.5"/>
<rect x="41" y="79" width="49" height="59" fill="#0043CE"/>
<path d="M52.1369 93.2H53.1149L54.0209 95H54.5909L53.6309 93.152C54.1769 93.026 54.4709 92.612 54.4709 92C54.4709 91.238 54.0329 90.812 53.3009 90.812H51.6329V95H52.1369V93.2ZM52.1369 92.768V91.256H53.3009C53.6969 91.256 53.9309 91.472 53.9309 91.856V92.168C53.9309 92.552 53.6969 92.768 53.3009 92.768H52.1369ZM56.6589 95.072C57.2409 95.072 57.6849 94.784 57.8829 94.364L57.5409 94.118C57.3789 94.46 57.0789 94.652 56.6889 94.652C56.1129 94.652 55.7709 94.25 55.7709 93.716V93.572H57.9969V93.344C57.9969 92.468 57.4869 91.832 56.6589 91.832C55.8189 91.832 55.2669 92.468 55.2669 93.452C55.2669 94.436 55.8189 95.072 56.6589 95.072ZM56.6589 92.234C57.1509 92.234 57.4809 92.6 57.4809 93.146V93.212H55.7709V93.17C55.7709 92.63 56.1369 92.234 56.6589 92.234ZM59.1159 95H59.5959V92.324H60.2619V91.904H59.5959V90.98H60.2619V90.56H59.7939C59.3379 90.56 59.1159 90.854 59.1159 91.28V91.904H58.6119V92.324H59.1159V95ZM62.1938 95.072C62.7758 95.072 63.2198 94.784 63.4178 94.364L63.0758 94.118C62.9138 94.46 62.6138 94.652 62.2238 94.652C61.6478 94.652 61.3058 94.25 61.3058 93.716V93.572H63.5318V93.344C63.5318 92.468 63.0218 91.832 62.1938 91.832C61.3538 91.832 60.8018 92.468 60.8018 93.452C60.8018 94.436 61.3538 95.072 62.1938 95.072ZM62.1938 92.234C62.6858 92.234 63.0158 92.6 63.0158 93.146V93.212H61.3058V93.17C61.3058 92.63 61.6718 92.234 62.1938 92.234ZM64.9627 95V92.9C64.9627 92.606 65.2747 92.384 65.7907 92.384H66.0727V91.904H65.8867C65.3827 91.904 65.1007 92.18 64.9927 92.474H64.9627V91.904H64.4827V95H64.9627ZM67.9806 95.072C68.5626 95.072 69.0066 94.784 69.2046 94.364L68.8626 94.118C68.7006 94.46 68.4006 94.652 68.0106 94.652C67.4346 94.652 67.0926 94.25 67.0926 93.716V93.572H69.3186V93.344C69.3186 92.468 68.8086 91.832 67.9806 91.832C67.1406 91.832 66.5886 92.468 66.5886 93.452C66.5886 94.436 67.1406 95.072 67.9806 95.072ZM67.9806 92.234C68.4726 92.234 68.8026 92.6 68.8026 93.146V93.212H67.0926V93.17C67.0926 92.63 67.4586 92.234 67.9806 92.234ZM70.7495 95V92.852C70.7495 92.456 71.1215 92.264 71.5055 92.264C71.9675 92.264 72.2075 92.546 72.2075 93.098V95H72.6875V93.014C72.6875 92.264 72.2855 91.832 71.6495 91.832C71.1875 91.832 70.9235 92.06 70.7735 92.408H70.7495V91.904H70.2695V95H70.7495ZM74.9917 95.072C75.5797 95.072 75.9817 94.784 76.1797 94.34L75.8317 94.106C75.6637 94.46 75.3817 94.646 74.9917 94.646C74.4217 94.646 74.1277 94.256 74.1277 93.716V93.188C74.1277 92.648 74.4217 92.258 74.9917 92.258C75.3697 92.258 75.6337 92.444 75.7477 92.762L76.1497 92.558C75.9697 92.132 75.6037 91.832 74.9917 91.832C74.1217 91.832 73.6117 92.462 73.6117 93.452C73.6117 94.442 74.1217 95.072 74.9917 95.072ZM78.1461 95.072C78.7281 95.072 79.1721 94.784 79.3701 94.364L79.0281 94.118C78.8661 94.46 78.5661 94.652 78.1761 94.652C77.6001 94.652 77.2581 94.25 77.2581 93.716V93.572H79.4841V93.344C79.4841 92.468 78.9741 91.832 78.1461 91.832C77.3061 91.832 76.7541 92.468 76.7541 93.452C76.7541 94.436 77.3061 95.072 78.1461 95.072ZM78.1461 92.234C78.6381 92.234 78.9681 92.6 78.9681 93.146V93.212H77.2581V93.17C77.2581 92.63 77.6241 92.234 78.1461 92.234ZM50.0179 101V99.212H51.1819C51.9319 99.212 52.3519 98.75 52.3519 98.012C52.3519 97.274 51.9319 96.812 51.1819 96.812H49.5139V101H50.0179ZM50.0179 97.256H51.1819C51.5779 97.256 51.8119 97.472 51.8119 97.856V98.168C51.8119 98.552 51.5779 98.768 51.1819 98.768H50.0179V97.256ZM53.6859 101V98.9C53.6859 98.606 53.9979 98.384 54.5139 98.384H54.7959V97.904H54.6099C54.1059 97.904 53.8239 98.18 53.7159 98.474H53.6859V97.904H53.2059V101H53.6859ZM56.7038 101.072C57.2858 101.072 57.7298 100.784 57.9278 100.364L57.5858 100.118C57.4238 100.46 57.1238 100.652 56.7338 100.652C56.1578 100.652 55.8158 100.25 55.8158 99.716V99.572H58.0418V99.344C58.0418 98.468 57.5318 97.832 56.7038 97.832C55.8638 97.832 55.3118 98.468 55.3118 99.452C55.3118 100.436 55.8638 101.072 56.7038 101.072ZM56.7038 98.234C57.1958 98.234 57.5258 98.6 57.5258 99.146V99.212H55.8158V99.17C55.8158 98.63 56.1818 98.234 56.7038 98.234ZM58.9927 102.2H59.4727V100.496H59.4967C59.6827 100.88 59.9767 101.072 60.4027 101.072C61.1767 101.072 61.6627 100.442 61.6627 99.452C61.6627 98.462 61.1767 97.832 60.4027 97.832C59.9767 97.832 59.6587 98.018 59.4967 98.408H59.4727V97.904H58.9927V102.2ZM60.2707 100.64C59.8327 100.64 59.4727 100.412 59.4727 100.01V98.858C59.4727 98.516 59.8327 98.264 60.2707 98.264C60.8107 98.264 61.1467 98.636 61.1467 99.188V99.716C61.1467 100.268 60.8107 100.64 60.2707 100.64ZM65.1532 101V100.58H64.7992V98.876C64.7992 98.222 64.3552 97.832 63.6112 97.832C63.0532 97.832 62.6812 98.108 62.5132 98.438L62.8012 98.708C62.9692 98.426 63.2152 98.246 63.5872 98.246C64.0792 98.246 64.3192 98.486 64.3192 98.924V99.23H63.7072C62.8072 99.23 62.3872 99.554 62.3872 100.136C62.3872 100.712 62.7712 101.072 63.4252 101.072C63.8572 101.072 64.1872 100.874 64.3192 100.496H64.3492C64.3852 100.784 64.5292 101 64.8832 101H65.1532ZM63.5032 100.664C63.1312 100.664 62.8912 100.49 62.8912 100.184V100.058C62.8912 99.758 63.1372 99.59 63.6832 99.59H64.3192V100.1C64.3192 100.418 63.9772 100.664 63.5032 100.664ZM66.4783 101V98.9C66.4783 98.606 66.7903 98.384 67.3063 98.384H67.5883V97.904H67.4023C66.8983 97.904 66.6163 98.18 66.5083 98.474H66.4783V97.904H65.9983V101H66.4783ZM70.858 101V100.58H70.504V98.876C70.504 98.222 70.06 97.832 69.316 97.832C68.758 97.832 68.386 98.108 68.218 98.438L68.506 98.708C68.674 98.426 68.92 98.246 69.292 98.246C69.784 98.246 70.024 98.486 70.024 98.924V99.23H69.412C68.512 99.23 68.092 99.554 68.092 100.136C68.092 100.712 68.476 101.072 69.13 101.072C69.562 101.072 69.892 100.874 70.024 100.496H70.054C70.09 100.784 70.234 101 70.588 101H70.858ZM69.208 100.664C68.836 100.664 68.596 100.49 68.596 100.184V100.058C68.596 99.758 68.842 99.59 69.388 99.59H70.024V100.1C70.024 100.418 69.682 100.664 69.208 100.664ZM72.987 101V100.58H72.357V98.324H73.035V97.904H72.357V97.046H71.925V97.622C71.925 97.832 71.859 97.904 71.655 97.904H71.367V98.324H71.877V100.49C71.877 100.79 72.057 101 72.387 101H72.987ZM74.2066 97.178C74.4106 97.178 74.5006 97.07 74.5006 96.908V96.83C74.5006 96.668 74.4106 96.56 74.2066 96.56C74.0026 96.56 73.9126 96.668 73.9126 96.83V96.908C73.9126 97.07 74.0026 97.178 74.2066 97.178ZM73.9666 101H74.4466V97.904H73.9666V101ZM76.7966 101.072C77.6246 101.072 78.1946 100.436 78.1946 99.452C78.1946 98.468 77.6246 97.832 76.7966 97.832C75.9686 97.832 75.3986 98.468 75.3986 99.452C75.3986 100.436 75.9686 101.072 76.7966 101.072ZM76.7966 100.646C76.2806 100.646 75.9146 100.328 75.9146 99.674V99.23C75.9146 98.576 76.2806 98.258 76.7966 98.258C77.3126 98.258 77.6786 98.576 77.6786 99.23V99.674C77.6786 100.328 77.3126 100.646 76.7966 100.646ZM79.624 101V98.852C79.624 98.456 79.996 98.264 80.38 98.264C80.842 98.264 81.082 98.546 81.082 99.098V101H81.562V99.014C81.562 98.264 81.16 97.832 80.524 97.832C80.062 97.832 79.798 98.06 79.648 98.408H79.624V97.904H79.144V101H79.624Z" fill="white"/>
<g clip-path="url(#clip0_255_1110)">
<path d="M11.5883 86.7913C11.5883 86.7132 11.5883 86.6279 11.503 86.6279C11.4107 86.6279 11.4107 86.7132 11.4107 86.7913V91.0029C11.4107 91.0811 11.4107 91.1663 11.503 91.1663C11.5883 91.1663 11.5883 91.0811 11.5883 91.0029V86.7913Z" fill="black"/>
<path d="M14.2077 88.5811C14.2077 88.2189 14.1864 87.8566 14.0302 87.5228C13.8242 87.0825 13.4478 87.0115 13.2631 87.0115C12.9861 87.0115 12.6594 87.1322 12.4677 87.5512C12.3256 87.8637 12.3043 88.2189 12.3043 88.5811C12.3043 88.922 12.3185 89.3268 12.5103 89.6748C12.702 90.037 13.0359 90.1294 13.256 90.1294C13.4975 90.1294 13.8455 90.037 14.0444 89.6038C14.1864 89.2913 14.2077 88.9362 14.2077 88.5811ZM13.256 90.0299C13.0785 90.0299 12.8086 89.9163 12.7305 89.4831C12.6807 89.2132 12.6807 88.7941 12.6807 88.5243C12.6807 88.2331 12.6807 87.9348 12.7163 87.6933C12.8015 87.1535 13.1424 87.1109 13.256 87.1109C13.4052 87.1109 13.7035 87.1961 13.7887 87.6436C13.8384 87.8993 13.8384 88.2402 13.8384 88.5243C13.8384 88.8652 13.8384 89.1706 13.7887 89.4618C13.7177 89.895 13.462 90.0299 13.256 90.0299Z" fill="black"/>
<path d="M15.6249 88.9717C15.6462 88.922 15.6462 88.9078 15.6462 88.8936C15.6462 88.8865 15.6462 88.8722 15.6249 88.8225L14.8365 86.7345C14.8081 86.6563 14.7797 86.6279 14.73 86.6279C14.6802 86.6279 14.6376 86.6705 14.6376 86.7203C14.6376 86.7345 14.6376 86.7416 14.6589 86.7913L15.4615 88.8936L14.6589 90.9887C14.6376 91.0384 14.6376 91.0526 14.6376 91.074C14.6376 91.1237 14.6802 91.1663 14.73 91.1663C14.7868 91.1663 14.8081 91.1166 14.8223 91.074L15.6249 88.9717Z" fill="black"/>
</g>
<g clip-path="url(#clip1_255_1110)">
<path d="M11.5883 126.791C11.5883 126.713 11.5883 126.628 11.503 126.628C11.4107 126.628 11.4107 126.713 11.4107 126.791V131.003C11.4107 131.081 11.4107 131.166 11.503 131.166C11.5883 131.166 11.5883 131.081 11.5883 131.003V126.791Z" fill="black"/>
<path d="M14.2077 128.581C14.2077 128.219 14.1864 127.857 14.0302 127.523C13.8242 127.082 13.4478 127.011 13.2631 127.011C12.9861 127.011 12.6594 127.132 12.4677 127.551C12.3256 127.864 12.3043 128.219 12.3043 128.581C12.3043 128.922 12.3185 129.327 12.5103 129.675C12.702 130.037 13.0359 130.129 13.256 130.129C13.4975 130.129 13.8455 130.037 14.0444 129.604C14.1864 129.291 14.2077 128.936 14.2077 128.581ZM13.256 130.03C13.0785 130.03 12.8086 129.916 12.7305 129.483C12.6807 129.213 12.6807 128.794 12.6807 128.524C12.6807 128.233 12.6807 127.935 12.7163 127.693C12.8015 127.154 13.1424 127.111 13.256 127.111C13.4052 127.111 13.7035 127.196 13.7887 127.644C13.8384 127.899 13.8384 128.24 13.8384 128.524C13.8384 128.865 13.8384 129.171 13.7887 129.462C13.7177 129.895 13.462 130.03 13.256 130.03Z" fill="black"/>
<path d="M15.6249 128.972C15.6462 128.922 15.6462 128.908 15.6462 128.894C15.6462 128.886 15.6462 128.872 15.6249 128.823L14.8365 126.734C14.8081 126.656 14.7797 126.628 14.73 126.628C14.6802 126.628 14.6376 126.671 14.6376 126.72C14.6376 126.734 14.6376 126.742 14.6589 126.791L15.4615 128.894L14.6589 130.989C14.6376 131.038 14.6376 131.053 14.6376 131.074C14.6376 131.124 14.6802 131.166 14.73 131.166C14.7868 131.166 14.8081 131.117 14.8223 131.074L15.6249 128.972Z" fill="black"/>
</g>
<path d="M11.9546 109.503C11.9359 109.597 11.8984 109.738 11.8984 109.766C11.8984 109.869 11.9827 109.925 12.0765 109.925C12.1515 109.925 12.2546 109.878 12.3015 109.756C12.3015 109.747 12.3765 109.466 12.414 109.316L12.5452 108.781C12.5734 108.641 12.6109 108.51 12.6484 108.378C12.6671 108.275 12.714 108.097 12.7234 108.078C12.8077 107.891 13.1265 107.347 13.6984 107.347C13.9702 107.347 14.0171 107.572 14.0171 107.769C14.0171 108.135 13.7265 108.903 13.6327 109.156C13.5765 109.297 13.5671 109.372 13.5671 109.438C13.5671 109.719 13.7827 109.925 14.064 109.925C14.6265 109.925 14.8421 109.053 14.8421 109.006C14.8421 108.941 14.7952 108.941 14.7765 108.941C14.7109 108.941 14.7109 108.96 14.6827 109.053C14.5609 109.456 14.364 109.794 14.0734 109.794C13.9702 109.794 13.9327 109.738 13.9327 109.597C13.9327 109.447 13.9796 109.306 14.0359 109.175C14.1484 108.856 14.4015 108.2 14.4015 107.853C14.4015 107.46 14.1484 107.216 13.7171 107.216C13.1734 107.216 12.8827 107.6 12.7796 107.741C12.7515 107.403 12.5077 107.216 12.2265 107.216C11.9546 107.216 11.8421 107.45 11.7859 107.553C11.6827 107.76 11.6077 108.116 11.6077 108.135C11.6077 108.2 11.664 108.2 11.6734 108.2C11.739 108.2 11.739 108.191 11.7765 108.06C11.8796 107.638 12.0015 107.347 12.2171 107.347C12.3296 107.347 12.3952 107.422 12.3952 107.619C12.3952 107.75 12.3765 107.816 12.3015 108.125L11.9546 109.503Z" fill="black"/>
<g clip-path="url(#clip2_255_1110)">
<path d="M13.7717 99.9861C13.5959 99.9861 13.4397 100.133 13.4397 100.308C13.4397 100.494 13.5959 100.64 13.7717 100.64C13.9573 100.64 14.1038 100.494 14.1038 100.308C14.1038 100.133 13.9573 99.9861 13.7717 99.9861Z" fill="black"/>
<path d="M13.7717 98.2593C13.5959 98.2593 13.4397 98.4058 13.4397 98.5815C13.4397 98.7671 13.5959 98.9136 13.7717 98.9136C13.9573 98.9136 14.1038 98.7671 14.1038 98.5815C14.1038 98.4058 13.9573 98.2593 13.7717 98.2593Z" fill="black"/>
<path d="M13.7717 96.5322C13.5959 96.5322 13.4397 96.6787 13.4397 96.8545C13.4397 97.04 13.5959 97.1865 13.7717 97.1865C13.9573 97.1865 14.1038 97.04 14.1038 96.8545C14.1038 96.6787 13.9573 96.5322 13.7717 96.5322Z" fill="black"/>
</g>
<g clip-path="url(#clip3_255_1110)">
<path d="M13.7717 119.986C13.5959 119.986 13.4397 120.133 13.4397 120.308C13.4397 120.494 13.5959 120.64 13.7717 120.64C13.9573 120.64 14.1038 120.494 14.1038 120.308C14.1038 120.133 13.9573 119.986 13.7717 119.986Z" fill="black"/>
<path d="M13.7717 118.259C13.5959 118.259 13.4397 118.406 13.4397 118.582C13.4397 118.767 13.5959 118.914 13.7717 118.914C13.9573 118.914 14.1038 118.767 14.1038 118.582C14.1038 118.406 13.9573 118.259 13.7717 118.259Z" fill="black"/>
<path d="M13.7717 116.532C13.5959 116.532 13.4397 116.679 13.4397 116.854C13.4397 117.04 13.5959 117.187 13.7717 117.187C13.9573 117.187 14.1038 117.04 14.1038 116.854C14.1038 116.679 13.9573 116.532 13.7717 116.532Z" fill="black"/>
</g>
<path d="M115.396 114.455C115.475 114.159 115.6 113.943 116.18 113.921C116.214 113.921 116.305 113.909 116.305 113.773C116.305 113.773 116.305 113.693 116.214 113.693C115.975 113.693 115.714 113.716 115.475 113.716C115.225 113.716 114.953 113.693 114.714 113.693C114.668 113.693 114.589 113.693 114.589 113.841C114.589 113.921 114.657 113.921 114.714 113.921C115.134 113.932 115.214 114.08 115.214 114.239C115.214 114.262 115.191 114.375 115.191 114.387L114.532 116.977C114.293 117.955 113.453 118.58 112.725 118.58C112.237 118.58 111.85 118.262 111.85 117.637C111.85 117.625 111.85 117.398 111.93 117.08L112.623 114.25C112.691 113.989 112.703 113.921 113.237 113.921C113.43 113.921 113.487 113.921 113.487 113.773C113.487 113.693 113.407 113.693 113.384 113.693C113.18 113.693 112.657 113.716 112.453 113.716C112.248 113.716 111.725 113.693 111.521 113.693C111.464 113.693 111.384 113.693 111.384 113.841C111.384 113.921 111.441 113.921 111.589 113.921C111.6 113.921 111.737 113.921 111.862 113.932C111.987 113.955 112.055 113.955 112.055 114.057C112.055 114.091 111.975 114.398 111.93 114.568L111.771 115.205C111.703 115.489 111.362 116.852 111.328 117C111.282 117.193 111.282 117.307 111.282 117.421C111.282 118.296 111.941 118.807 112.703 118.807C113.612 118.807 114.509 117.989 114.748 117.034L115.396 114.455Z" fill="white"/>
<path d="M119.367 116.871C119.549 116.598 119.719 116.473 119.992 116.451C120.049 116.451 120.105 116.451 120.105 116.348C120.105 116.326 120.094 116.269 120.037 116.269C119.912 116.269 119.753 116.292 119.628 116.292C119.469 116.292 119.253 116.269 119.105 116.269C119.06 116.269 119.003 116.292 119.003 116.382C119.003 116.451 119.071 116.451 119.094 116.451C119.253 116.462 119.299 116.53 119.299 116.598C119.299 116.678 119.264 116.723 119.208 116.803L117.549 119.257L117.083 116.667C117.071 116.621 117.071 116.61 117.071 116.587C117.071 116.451 117.355 116.451 117.389 116.451C117.48 116.451 117.549 116.451 117.549 116.348C117.549 116.337 117.537 116.269 117.458 116.269C117.31 116.269 116.958 116.292 116.81 116.292C116.685 116.292 116.367 116.269 116.242 116.269C116.196 116.269 116.139 116.292 116.139 116.382C116.139 116.451 116.208 116.451 116.264 116.451C116.549 116.451 116.56 116.485 116.583 116.621L117.139 119.701C117.151 119.803 117.162 119.837 117.253 119.837C117.355 119.837 117.378 119.803 117.435 119.723L119.367 116.871Z" fill="white"/>
<path d="M123.166 120.387C123.166 120.364 123.166 120.353 123.041 120.228C122.144 119.318 121.905 117.943 121.905 116.83C121.905 115.568 122.178 114.307 123.076 113.409C123.166 113.318 123.166 113.307 123.166 113.284C123.166 113.228 123.144 113.205 123.098 113.205C123.019 113.205 122.371 113.705 121.939 114.625C121.576 115.421 121.485 116.228 121.485 116.83C121.485 117.398 121.564 118.273 121.962 119.103C122.405 119.989 123.019 120.466 123.098 120.466C123.144 120.466 123.166 120.443 123.166 120.387Z" fill="white"/>
<path d="M126.879 115.023C126.879 114.546 126.754 113.534 126.015 113.534C125.004 113.534 123.89 115.58 123.89 117.239C123.89 117.921 124.095 118.728 124.754 118.728C125.776 118.728 126.879 116.648 126.879 115.023ZM124.651 116.012C124.776 115.557 124.924 114.978 125.22 114.455C125.413 114.103 125.674 113.694 126.004 113.694C126.356 113.694 126.401 114.159 126.401 114.569C126.401 114.932 126.345 115.296 126.174 116.012H124.651ZM126.106 116.25C126.026 116.58 125.879 117.194 125.595 117.716C125.345 118.216 125.072 118.569 124.754 118.569C124.515 118.569 124.367 118.353 124.367 117.682C124.367 117.375 124.413 116.955 124.595 116.25H126.106Z" fill="white"/>
<path d="M128.635 116.564C128.635 116.485 128.566 116.371 128.43 116.371C128.294 116.371 128.146 116.507 128.146 116.655C128.146 116.735 128.203 116.848 128.351 116.848C128.487 116.848 128.635 116.701 128.635 116.564ZM127.601 119.144C127.578 119.212 127.555 119.269 127.555 119.36C127.555 119.598 127.748 119.78 128.032 119.78C128.532 119.78 128.76 119.087 128.76 119.007C128.76 118.939 128.691 118.939 128.68 118.939C128.612 118.939 128.601 118.973 128.578 119.03C128.464 119.439 128.248 119.644 128.044 119.644C127.941 119.644 127.919 119.576 127.919 119.462C127.919 119.348 127.953 119.257 127.998 119.144C128.055 119.007 128.112 118.871 128.157 118.735C128.203 118.61 128.396 118.155 128.407 118.087C128.43 118.042 128.441 117.985 128.441 117.928C128.441 117.689 128.237 117.496 127.964 117.496C127.453 117.496 127.226 118.189 127.226 118.28C127.226 118.337 127.294 118.337 127.316 118.337C127.385 118.337 127.385 118.314 127.407 118.257C127.532 117.826 127.76 117.644 127.941 117.644C128.021 117.644 128.066 117.678 128.066 117.814C128.066 117.939 128.044 118.007 127.919 118.326L127.601 119.144Z" fill="white"/>
<path d="M131.493 116.83C131.493 116.273 131.414 115.398 131.016 114.568C130.584 113.682 129.959 113.205 129.891 113.205C129.845 113.205 129.811 113.239 129.811 113.284C129.811 113.307 129.811 113.318 129.948 113.455C130.664 114.171 131.073 115.318 131.073 116.83C131.073 118.08 130.811 119.353 129.914 120.262C129.811 120.353 129.811 120.364 129.811 120.387C129.811 120.432 129.845 120.466 129.891 120.466C129.959 120.466 130.618 119.966 131.039 119.046C131.414 118.25 131.493 117.443 131.493 116.83Z" fill="white"/>
<path d="M64.8353 114.6C64.9228 114.275 65.0603 114.038 65.6978 114.013C65.7353 114.013 65.8353 114 65.8353 113.85C65.8353 113.85 65.8353 113.763 65.7353 113.763C65.4728 113.763 65.1853 113.788 64.9228 113.788C64.6478 113.788 64.3478 113.763 64.0853 113.763C64.0353 113.763 63.9478 113.763 63.9478 113.925C63.9478 114.013 64.0228 114.013 64.0853 114.013C64.5478 114.025 64.6353 114.188 64.6353 114.363C64.6353 114.388 64.6103 114.513 64.6103 114.525L63.8853 117.375C63.6228 118.45 62.6978 119.138 61.8978 119.138C61.3603 119.138 60.9353 118.788 60.9353 118.1C60.9353 118.088 60.9353 117.838 61.0228 117.488L61.7853 114.375C61.8603 114.088 61.8728 114.013 62.4603 114.013C62.6728 114.013 62.7353 114.013 62.7353 113.85C62.7353 113.763 62.6478 113.763 62.6228 113.763C62.3978 113.763 61.8228 113.788 61.5978 113.788C61.3728 113.788 60.7978 113.763 60.5728 113.763C60.5103 113.763 60.4228 113.763 60.4228 113.925C60.4228 114.013 60.4853 114.013 60.6478 114.013C60.6603 114.013 60.8103 114.013 60.9478 114.025C61.0853 114.05 61.1603 114.05 61.1603 114.163C61.1603 114.2 61.0728 114.538 61.0228 114.725L60.8478 115.425C60.7728 115.738 60.3978 117.238 60.3603 117.4C60.3103 117.613 60.3103 117.738 60.3103 117.863C60.3103 118.825 61.0353 119.388 61.8728 119.388C62.8728 119.388 63.8603 118.488 64.1228 117.438L64.8353 114.6Z" fill="white"/>
<path d="M67.5159 116.995C67.5534 116.833 67.5659 116.82 67.6909 116.795H68.0534C68.5659 116.795 69.2034 116.795 69.2034 117.37C69.2034 117.608 69.1034 117.958 68.8409 118.158C68.6159 118.333 68.2659 118.42 67.8784 118.42H67.1659L67.5159 116.995ZM68.5284 118.508C69.1909 118.358 69.7784 117.958 69.7784 117.458C69.7784 116.983 69.2159 116.595 68.4034 116.595H66.6909C66.5909 116.595 66.5159 116.595 66.5159 116.72C66.5159 116.795 66.5784 116.795 66.6909 116.795C66.7034 116.795 66.8034 116.795 66.9034 116.808C67.0284 116.82 67.0284 116.833 67.0284 116.895C67.0284 116.895 67.0284 116.933 67.0159 117.008L66.2659 119.97C66.2284 120.158 66.2159 120.208 65.7784 120.208C65.6784 120.208 65.6159 120.208 65.6159 120.32C65.6159 120.383 65.6534 120.408 65.7034 120.408C65.8034 120.408 65.9409 120.395 66.0409 120.395C66.1534 120.395 66.3159 120.383 66.4159 120.383C66.5284 120.383 66.6534 120.395 66.7659 120.395C66.8909 120.395 67.0284 120.408 67.1409 120.408C67.1784 120.408 67.2659 120.408 67.2659 120.295C67.2659 120.208 67.2034 120.208 67.0784 120.208C66.9909 120.208 66.9659 120.208 66.8659 120.195C66.7409 120.183 66.7409 120.17 66.7409 120.108C66.7409 120.108 66.7409 120.07 66.7659 119.995L67.1159 118.583H67.8784C68.3534 118.583 68.5659 118.82 68.5659 119.083C68.5659 119.158 68.5159 119.345 68.4784 119.47C68.4159 119.733 68.3909 119.808 68.3909 119.908C68.3909 120.345 68.8034 120.52 69.2159 120.52C69.7284 120.52 69.9534 119.97 69.9534 119.87C69.9534 119.858 69.9409 119.795 69.8534 119.795C69.7784 119.795 69.7659 119.833 69.7534 119.895C69.6784 120.133 69.4659 120.358 69.2409 120.358C69.0909 120.358 68.9784 120.308 68.9784 119.995C68.9784 119.858 69.0159 119.57 69.0409 119.42C69.0659 119.27 69.0659 119.22 69.0659 119.158C69.0659 119.095 69.0659 118.908 68.9034 118.745C68.8034 118.633 68.6534 118.558 68.5284 118.508Z" fill="white"/>
<defs>
<clipPath id="clip0_255_1110">
<rect width="5" height="5" fill="white" transform="translate(11 86.5)"/>
</clipPath>
<clipPath id="clip1_255_1110">
<rect width="5" height="5" fill="white" transform="translate(11 126.5)"/>
</clipPath>
<clipPath id="clip2_255_1110">
<rect width="5" height="1.25" fill="white" transform="matrix(0 -1 1 0 13 101)"/>
</clipPath>
<clipPath id="clip3_255_1110">
<rect width="5" height="1.25" fill="white" transform="matrix(0 -1 1 0 13 121)"/>
</clipPath>
</defs>
</svg>
