<svg width="650" height="425" viewBox="0 0 650 425" fill="none" xmlns="http://www.w3.org/2000/svg">
<rect width="650" height="425" fill="white"/>
<path d="M39.94 44V42.52H36.34V30.04H33.72L30.02 33.5L31 34.56L34.52 31.28H34.66V42.52H30.76V44H39.94ZM43.7122 44.24C44.5522 44.24 44.9322 43.76 44.9322 43.08V42.82C44.9322 42.14 44.5522 41.66 43.7122 41.66C42.8722 41.66 42.4922 42.14 42.4922 42.82V43.08C42.4922 43.76 42.8722 44.24 43.7122 44.24ZM57.968 44V42.6H56.008V31.44H57.968V30.04H52.368V31.44H54.328V42.6H52.368V44H57.968ZM62.4758 44V36.84C62.4758 35.52 63.7158 34.88 64.9958 34.88C66.5358 34.88 67.3358 35.82 67.3358 37.66V44H68.9358V37.38C68.9358 34.88 67.5958 33.44 65.4758 33.44C63.9358 33.44 63.0558 34.2 62.5558 35.36H62.4758V33.68H60.8758V44H62.4758ZM73.043 31.26C73.723 31.26 74.023 30.9 74.023 30.36V30.1C74.023 29.56 73.723 29.2 73.043 29.2C72.363 29.2 72.063 29.56 72.063 30.1V30.36C72.063 30.9 72.363 31.26 73.043 31.26ZM72.243 44H73.843V33.68H72.243V44ZM81.523 44V42.6H79.423V35.08H81.683V33.68H79.423V30.82H77.983V32.74C77.983 33.44 77.763 33.68 77.083 33.68H76.123V35.08H77.823V42.3C77.823 43.3 78.423 44 79.523 44H81.523ZM85.0547 31.26C85.7347 31.26 86.0347 30.9 86.0347 30.36V30.1C86.0347 29.56 85.7347 29.2 85.0547 29.2C84.3747 29.2 84.0747 29.56 84.0747 30.1V30.36C84.0747 30.9 84.3747 31.26 85.0547 31.26ZM84.2547 44H85.8547V33.68H84.2547V44ZM97.6547 44V42.6H96.4747V36.92C96.4747 34.74 94.9947 33.44 92.5147 33.44C90.6547 33.44 89.4147 34.36 88.8547 35.46L89.8147 36.36C90.3747 35.42 91.1947 34.82 92.4347 34.82C94.0747 34.82 94.8747 35.62 94.8747 37.08V38.1H92.8347C89.8347 38.1 88.4347 39.18 88.4347 41.12C88.4347 43.04 89.7147 44.24 91.8947 44.24C93.3347 44.24 94.4347 43.58 94.8747 42.32H94.9747C95.0947 43.28 95.5747 44 96.7547 44H97.6547ZM92.1547 42.88C90.9147 42.88 90.1147 42.3 90.1147 41.28V40.86C90.1147 39.86 90.9347 39.3 92.7547 39.3H94.8747V41C94.8747 42.06 93.7347 42.88 92.1547 42.88ZM103.058 44V42.6H101.538V29.2H99.9383V42.34C99.9383 43.3 100.538 44 101.638 44H103.058ZM106.188 31.26C106.868 31.26 107.168 30.9 107.168 30.36V30.1C107.168 29.56 106.868 29.2 106.188 29.2C105.508 29.2 105.208 29.56 105.208 30.1V30.36C105.208 30.9 105.508 31.26 106.188 31.26ZM105.388 44H106.988V33.68H105.388V44ZM117.308 44V42.6H111.168L117.148 34.88V33.68H109.528V35.08H115.208L109.347 42.66V44H117.308ZM123.35 44.24C125.29 44.24 126.77 43.28 127.43 41.88L126.29 41.06C125.75 42.2 124.75 42.84 123.45 42.84C121.53 42.84 120.39 41.5 120.39 39.72V39.24H127.81V38.48C127.81 35.56 126.11 33.44 123.35 33.44C120.55 33.44 118.71 35.56 118.71 38.84C118.71 42.12 120.55 44.24 123.35 44.24ZM123.35 34.78C124.99 34.78 126.09 36 126.09 37.82V38.04H120.39V37.9C120.39 36.1 121.61 34.78 123.35 34.78ZM135.173 48H136.773V42.32H136.853C137.473 43.6 138.453 44.24 139.873 44.24C142.453 44.24 144.073 42.14 144.073 38.84C144.073 35.54 142.453 33.44 139.873 33.44C138.453 33.44 137.393 34.06 136.853 35.36H136.773V33.68H135.173V48ZM139.433 42.8C137.973 42.8 136.773 42.04 136.773 40.7V36.86C136.773 35.72 137.973 34.88 139.433 34.88C141.233 34.88 142.353 36.12 142.353 37.96V39.72C142.353 41.56 141.233 42.8 139.433 42.8ZM148.374 44V37C148.374 36.02 149.414 35.28 151.134 35.28H152.074V33.68H151.454C149.774 33.68 148.834 34.6 148.474 35.58H148.374V33.68H146.774V44H148.374ZM157.92 44.24C160.68 44.24 162.58 42.12 162.58 38.84C162.58 35.56 160.68 33.44 157.92 33.44C155.16 33.44 153.26 35.56 153.26 38.84C153.26 42.12 155.16 44.24 157.92 44.24ZM157.92 42.82C156.2 42.82 154.98 41.76 154.98 39.58V38.1C154.98 35.92 156.2 34.86 157.92 34.86C159.64 34.86 160.86 35.92 160.86 38.1V39.58C160.86 41.76 159.64 42.82 157.92 42.82ZM165.212 44H166.812V42.32H166.892C167.512 43.6 168.492 44.24 169.912 44.24C172.492 44.24 174.112 42.14 174.112 38.84C174.112 35.54 172.492 33.44 169.912 33.44C168.492 33.44 167.432 34.06 166.892 35.36H166.812V29.2H165.212V44ZM169.472 42.8C168.012 42.8 166.812 42.04 166.812 40.7V36.86C166.812 35.72 168.012 34.88 169.472 34.88C171.272 34.88 172.392 36.12 172.392 37.96V39.72C172.392 41.56 171.272 42.8 169.472 42.8ZM179.933 44V42.6H178.413V29.2H176.813V42.34C176.813 43.3 177.413 44 178.513 44H179.933ZM186.143 44.24C188.083 44.24 189.563 43.28 190.223 41.88L189.083 41.06C188.543 42.2 187.543 42.84 186.243 42.84C184.323 42.84 183.183 41.5 183.183 39.72V39.24H190.603V38.48C190.603 35.56 188.903 33.44 186.143 33.44C183.343 33.44 181.503 35.56 181.503 38.84C181.503 42.12 183.343 44.24 186.143 44.24ZM186.143 34.78C187.783 34.78 188.883 36 188.883 37.82V38.04H183.183V37.9C183.183 36.1 184.403 34.78 186.143 34.78ZM194.839 44V36.84C194.839 35.52 196.039 34.88 197.299 34.88C198.819 34.88 199.519 35.82 199.519 37.66V44H201.119V36.84C201.119 35.52 202.279 34.88 203.539 34.88C205.099 34.88 205.799 35.84 205.799 37.66V44H207.399V37.38C207.399 34.88 206.139 33.44 204.039 33.44C202.279 33.44 201.279 34.42 200.899 35.54H200.859C200.299 34.06 199.059 33.44 197.699 33.44C196.099 33.44 195.379 34.3 194.919 35.36H194.839V33.68H193.239V44H194.839Z" fill="#262626"/>
<rect x="28" y="58" width="578" height="344" fill="#0043CE"/>
<rect x="63" y="98" width="240" height="124" fill="#262626"/>
<path d="M82.4904 131H86.7024C89.8344 131 91.8504 128.912 91.8504 124.718C91.8504 120.524 89.8344 118.436 86.7024 118.436H82.4904V131ZM84.0024 129.668V119.768H86.7024C88.7724 119.768 90.2304 121.208 90.2304 123.692V125.744C90.2304 128.228 88.7724 129.668 86.7024 129.668H84.0024ZM97.9146 131.216C99.6606 131.216 100.993 130.352 101.587 129.092L100.561 128.354C100.075 129.38 99.1746 129.956 98.0046 129.956C96.2766 129.956 95.2506 128.75 95.2506 127.148V126.716H101.929V126.032C101.929 123.404 100.399 121.496 97.9146 121.496C95.3946 121.496 93.7386 123.404 93.7386 126.356C93.7386 129.308 95.3946 131.216 97.9146 131.216ZM97.9146 122.702C99.3906 122.702 100.381 123.8 100.381 125.438V125.636H95.2506V125.51C95.2506 123.89 96.3486 122.702 97.9146 122.702ZM104.805 131H106.245V122.972H108.243V121.712H106.245V118.94H108.243V117.68H106.839C105.471 117.68 104.805 118.562 104.805 119.84V121.712H103.293V122.972H104.805V131ZM117.697 131V129.74H116.635V124.628C116.635 122.666 115.303 121.496 113.071 121.496C111.397 121.496 110.281 122.324 109.777 123.314L110.641 124.124C111.145 123.278 111.883 122.738 112.999 122.738C114.475 122.738 115.195 123.458 115.195 124.772V125.69H113.359C110.659 125.69 109.399 126.662 109.399 128.408C109.399 130.136 110.551 131.216 112.513 131.216C113.809 131.216 114.799 130.622 115.195 129.488H115.285C115.393 130.352 115.825 131 116.887 131H117.697ZM112.747 129.992C111.631 129.992 110.911 129.47 110.911 128.552V128.174C110.911 127.274 111.649 126.77 113.287 126.77H115.195V128.3C115.195 129.254 114.169 129.992 112.747 129.992ZM125.477 131H126.917V121.712H125.477V128.138C125.477 129.362 124.361 129.92 123.227 129.92C121.841 129.92 121.103 129.074 121.103 127.418V121.712H119.663V127.67C119.663 129.92 120.887 131.216 122.795 131.216C124.343 131.216 125.045 130.37 125.405 129.488H125.477V131ZM132.791 131V129.74H131.423V117.68H129.983V129.506C129.983 130.37 130.523 131 131.513 131H132.791ZM138.652 131V129.74H136.762V122.972H138.796V121.712H136.762V119.138H135.466V120.866C135.466 121.496 135.268 121.712 134.656 121.712H133.792V122.972H135.322V129.47C135.322 130.37 135.862 131 136.852 131H138.652ZM149.036 131.216C151.736 131.216 153.356 129.74 153.356 127.436C153.356 125.564 152.294 124.484 149.846 123.926L148.82 123.692C147.236 123.332 146.462 122.792 146.462 121.604C146.462 120.254 147.452 119.552 149.054 119.552C150.512 119.552 151.466 120.146 152.15 121.1L153.284 120.272C152.348 118.94 151.016 118.22 149.126 118.22C146.66 118.22 144.968 119.426 144.968 121.658C144.968 123.584 146.228 124.592 148.514 125.114L149.54 125.348C151.196 125.726 151.862 126.32 151.862 127.508C151.862 128.948 150.89 129.884 149.09 129.884C147.632 129.884 146.588 129.254 145.706 128.084L144.59 129.02C145.598 130.388 147.02 131.216 149.036 131.216ZM159.675 131V129.74H157.785V122.972H159.819V121.712H157.785V119.138H156.489V120.866C156.489 121.496 156.291 121.712 155.679 121.712H154.815V122.972H156.345V129.47C156.345 130.37 156.885 131 157.875 131H159.675ZM169.694 131V129.74H168.632V124.628C168.632 122.666 167.3 121.496 165.068 121.496C163.394 121.496 162.278 122.324 161.774 123.314L162.638 124.124C163.142 123.278 163.88 122.738 164.996 122.738C166.472 122.738 167.192 123.458 167.192 124.772V125.69H165.356C162.656 125.69 161.396 126.662 161.396 128.408C161.396 130.136 162.548 131.216 164.51 131.216C165.806 131.216 166.796 130.622 167.192 129.488H167.282C167.39 130.352 167.822 131 168.884 131H169.694ZM164.744 129.992C163.628 129.992 162.908 129.47 162.908 128.552V128.174C162.908 127.274 163.646 126.77 165.284 126.77H167.192V128.3C167.192 129.254 166.166 129.992 164.744 129.992ZM175.601 131V129.74H173.711V122.972H175.745V121.712H173.711V119.138H172.415V120.866C172.415 121.496 172.217 121.712 171.605 121.712H170.741V122.972H172.271V129.47C172.271 130.37 172.811 131 173.801 131H175.601ZM181.481 131.216C183.227 131.216 184.559 130.352 185.153 129.092L184.127 128.354C183.641 129.38 182.741 129.956 181.571 129.956C179.843 129.956 178.817 128.75 178.817 127.148V126.716H185.495V126.032C185.495 123.404 183.965 121.496 181.481 121.496C178.961 121.496 177.305 123.404 177.305 126.356C177.305 129.308 178.961 131.216 181.481 131.216ZM181.481 122.702C182.957 122.702 183.947 123.8 183.947 125.438V125.636H178.817V125.51C178.817 123.89 179.915 122.702 181.481 122.702Z" fill="white"/>
<rect x="330" y="98" width="240" height="124" fill="#262626"/>
<path d="M353.918 131.216C356.006 131.216 357.536 130.118 358.328 128.354L357.122 127.598C356.618 128.966 355.52 129.866 353.918 129.866C351.758 129.866 350.48 128.3 350.48 125.726V123.854C350.48 121.28 351.758 119.57 353.918 119.57C355.466 119.57 356.51 120.416 357.014 121.712L358.238 120.974C357.446 119.228 356.006 118.22 353.918 118.22C350.75 118.22 348.86 120.596 348.86 124.79C348.86 128.984 350.75 131.216 353.918 131.216ZM363.334 131V129.74H361.966V117.68H360.526V129.506C360.526 130.37 361.066 131 362.056 131H363.334ZM372.99 131V129.74H371.928V124.628C371.928 122.666 370.596 121.496 368.364 121.496C366.69 121.496 365.574 122.324 365.07 123.314L365.934 124.124C366.438 123.278 367.176 122.738 368.292 122.738C369.768 122.738 370.488 123.458 370.488 124.772V125.69H368.652C365.952 125.69 364.692 126.662 364.692 128.408C364.692 130.136 365.844 131.216 367.806 131.216C369.102 131.216 370.092 130.622 370.488 129.488H370.578C370.686 130.352 371.118 131 372.18 131H372.99ZM368.04 129.992C366.924 129.992 366.204 129.47 366.204 128.552V128.174C366.204 127.274 366.942 126.77 368.58 126.77H370.488V128.3C370.488 129.254 369.462 129.992 368.04 129.992ZM377.836 131.216C379.96 131.216 381.274 130.118 381.274 128.318C381.274 126.914 380.482 126.014 378.43 125.708L377.71 125.6C376.558 125.42 375.928 125.06 375.928 124.16C375.928 123.278 376.558 122.72 377.746 122.72C378.934 122.72 379.726 123.278 380.14 123.854L381.094 122.99C380.338 122.054 379.348 121.496 377.854 121.496C375.964 121.496 374.542 122.396 374.542 124.232C374.542 125.96 375.82 126.662 377.53 126.914L378.268 127.022C379.492 127.202 379.888 127.76 379.888 128.48C379.888 129.434 379.168 129.992 377.944 129.992C376.774 129.992 375.91 129.47 375.19 128.57L374.164 129.398C374.992 130.496 376.126 131.216 377.836 131.216ZM386.502 131.216C388.626 131.216 389.94 130.118 389.94 128.318C389.94 126.914 389.148 126.014 387.096 125.708L386.376 125.6C385.224 125.42 384.594 125.06 384.594 124.16C384.594 123.278 385.224 122.72 386.412 122.72C387.6 122.72 388.392 123.278 388.806 123.854L389.76 122.99C389.004 122.054 388.014 121.496 386.52 121.496C384.63 121.496 383.208 122.396 383.208 124.232C383.208 125.96 384.486 126.662 386.196 126.914L386.934 127.022C388.158 127.202 388.554 127.76 388.554 128.48C388.554 129.434 387.834 129.992 386.61 129.992C385.44 129.992 384.576 129.47 383.856 128.57L382.83 129.398C383.658 130.496 384.792 131.216 386.502 131.216ZM393.203 119.534C393.815 119.534 394.085 119.21 394.085 118.724V118.49C394.085 118.004 393.815 117.68 393.203 117.68C392.591 117.68 392.321 118.004 392.321 118.49V118.724C392.321 119.21 392.591 119.534 393.203 119.534ZM392.483 131H393.923V121.712H392.483V131ZM400.439 131.216C402.203 131.216 403.409 130.352 404.003 129.02L402.959 128.318C402.455 129.38 401.609 129.938 400.439 129.938C398.729 129.938 397.847 128.768 397.847 127.148V125.564C397.847 123.944 398.729 122.774 400.439 122.774C401.573 122.774 402.365 123.332 402.707 124.286L403.913 123.674C403.373 122.396 402.275 121.496 400.439 121.496C397.829 121.496 396.299 123.386 396.299 126.356C396.299 129.326 397.829 131.216 400.439 131.216ZM413.596 131V129.74H412.534V124.628C412.534 122.666 411.202 121.496 408.97 121.496C407.296 121.496 406.18 122.324 405.676 123.314L406.54 124.124C407.044 123.278 407.782 122.738 408.898 122.738C410.374 122.738 411.094 123.458 411.094 124.772V125.69H409.258C406.558 125.69 405.298 126.662 405.298 128.408C405.298 130.136 406.45 131.216 408.412 131.216C409.708 131.216 410.698 130.622 411.094 129.488H411.184C411.292 130.352 411.724 131 412.786 131H413.596ZM408.646 129.992C407.53 129.992 406.81 129.47 406.81 128.552V128.174C406.81 127.274 407.548 126.77 409.186 126.77H411.094V128.3C411.094 129.254 410.068 129.992 408.646 129.992ZM418.459 131V129.74H417.091V117.68H415.651V129.506C415.651 130.37 416.191 131 417.181 131H418.459ZM426.465 125.6H429.399L432.117 131H433.827L430.947 125.456C432.585 125.078 433.467 123.836 433.467 122C433.467 119.714 432.153 118.436 429.957 118.436H424.953V131H426.465V125.6ZM426.465 124.304V119.768H429.957C431.145 119.768 431.847 120.416 431.847 121.568V122.504C431.847 123.656 431.145 124.304 429.957 124.304H426.465ZM439.551 131.216C441.297 131.216 442.629 130.352 443.223 129.092L442.197 128.354C441.711 129.38 440.811 129.956 439.641 129.956C437.913 129.956 436.887 128.75 436.887 127.148V126.716H443.565V126.032C443.565 123.404 442.035 121.496 439.551 121.496C437.031 121.496 435.375 123.404 435.375 126.356C435.375 129.308 437.031 131.216 439.551 131.216ZM439.551 122.702C441.027 122.702 442.017 123.8 442.017 125.438V125.636H436.887V125.51C436.887 123.89 437.985 122.702 439.551 122.702ZM446.442 131H447.882V122.972H449.88V121.712H447.882V118.94H449.88V117.68H448.476C447.108 117.68 446.442 118.562 446.442 119.84V121.712H444.93V122.972H446.442V131ZM455.196 131.216C456.942 131.216 458.274 130.352 458.868 129.092L457.842 128.354C457.356 129.38 456.456 129.956 455.286 129.956C453.558 129.956 452.532 128.75 452.532 127.148V126.716H459.21V126.032C459.21 123.404 457.68 121.496 455.196 121.496C452.676 121.496 451.02 123.404 451.02 126.356C451.02 129.308 452.676 131.216 455.196 131.216ZM455.196 122.702C456.672 122.702 457.662 123.8 457.662 125.438V125.636H452.532V125.51C452.532 123.89 453.63 122.702 455.196 122.702ZM463.023 131V124.7C463.023 123.818 463.959 123.152 465.507 123.152H466.353V121.712H465.795C464.283 121.712 463.437 122.54 463.113 123.422H463.023V121.712H461.583V131H463.023ZM471.596 131.216C473.342 131.216 474.674 130.352 475.268 129.092L474.242 128.354C473.756 129.38 472.856 129.956 471.686 129.956C469.958 129.956 468.932 128.75 468.932 127.148V126.716H475.61V126.032C475.61 123.404 474.08 121.496 471.596 121.496C469.076 121.496 467.42 123.404 467.42 126.356C467.42 129.308 469.076 131.216 471.596 131.216ZM471.596 122.702C473.072 122.702 474.062 123.8 474.062 125.438V125.636H468.932V125.51C468.932 123.89 470.03 122.702 471.596 122.702ZM479.423 131V124.556C479.423 123.368 480.539 122.792 481.691 122.792C483.077 122.792 483.797 123.638 483.797 125.294V131H485.237V125.042C485.237 122.792 484.031 121.496 482.123 121.496C480.737 121.496 479.945 122.18 479.495 123.224H479.423V121.712H477.983V131H479.423ZM491.67 131.216C493.434 131.216 494.64 130.352 495.234 129.02L494.19 128.318C493.686 129.38 492.84 129.938 491.67 129.938C489.96 129.938 489.078 128.768 489.078 127.148V125.564C489.078 123.944 489.96 122.774 491.67 122.774C492.804 122.774 493.596 123.332 493.938 124.286L495.144 123.674C494.604 122.396 493.506 121.496 491.67 121.496C489.06 121.496 487.53 123.386 487.53 126.356C487.53 129.326 489.06 131.216 491.67 131.216ZM500.653 131.216C502.399 131.216 503.731 130.352 504.325 129.092L503.299 128.354C502.813 129.38 501.913 129.956 500.743 129.956C499.015 129.956 497.989 128.75 497.989 127.148V126.716H504.667V126.032C504.667 123.404 503.137 121.496 500.653 121.496C498.133 121.496 496.477 123.404 496.477 126.356C496.477 129.308 498.133 131.216 500.653 131.216ZM500.653 122.702C502.129 122.702 503.119 123.8 503.119 125.438V125.636H497.989V125.51C497.989 123.89 499.087 122.702 500.653 122.702ZM514.966 131.216C517.666 131.216 519.286 129.74 519.286 127.436C519.286 125.564 518.224 124.484 515.776 123.926L514.75 123.692C513.166 123.332 512.392 122.792 512.392 121.604C512.392 120.254 513.382 119.552 514.984 119.552C516.442 119.552 517.396 120.146 518.08 121.1L519.214 120.272C518.278 118.94 516.946 118.22 515.056 118.22C512.59 118.22 510.898 119.426 510.898 121.658C510.898 123.584 512.158 124.592 514.444 125.114L515.47 125.348C517.126 125.726 517.792 126.32 517.792 127.508C517.792 128.948 516.82 129.884 515.02 129.884C513.562 129.884 512.518 129.254 511.636 128.084L510.52 129.02C511.528 130.388 512.95 131.216 514.966 131.216ZM525.605 131V129.74H523.715V122.972H525.749V121.712H523.715V119.138H522.419V120.866C522.419 121.496 522.221 121.712 521.609 121.712H520.745V122.972H522.275V129.47C522.275 130.37 522.815 131 523.805 131H525.605ZM535.623 131V129.74H534.561V124.628C534.561 122.666 533.229 121.496 530.997 121.496C529.323 121.496 528.207 122.324 527.703 123.314L528.567 124.124C529.071 123.278 529.809 122.738 530.925 122.738C532.401 122.738 533.121 123.458 533.121 124.772V125.69H531.285C528.585 125.69 527.325 126.662 527.325 128.408C527.325 130.136 528.477 131.216 530.439 131.216C531.735 131.216 532.725 130.622 533.121 129.488H533.211C533.319 130.352 533.751 131 534.813 131H535.623ZM530.673 129.992C529.557 129.992 528.837 129.47 528.837 128.552V128.174C528.837 127.274 529.575 126.77 531.213 126.77H533.121V128.3C533.121 129.254 532.095 129.992 530.673 129.992ZM541.53 131V129.74H539.64V122.972H541.674V121.712H539.64V119.138H538.344V120.866C538.344 121.496 538.146 121.712 537.534 121.712H536.67V122.972H538.2V129.47C538.2 130.37 538.74 131 539.73 131H541.53ZM547.411 131.216C549.157 131.216 550.489 130.352 551.083 129.092L550.057 128.354C549.571 129.38 548.671 129.956 547.501 129.956C545.773 129.956 544.747 128.75 544.747 127.148V126.716H551.425V126.032C551.425 123.404 549.895 121.496 547.411 121.496C544.891 121.496 543.235 123.404 543.235 126.356C543.235 129.308 544.891 131.216 547.411 131.216ZM547.411 122.702C548.887 122.702 549.877 123.8 549.877 125.438V125.636H544.747V125.51C544.747 123.89 545.845 122.702 547.411 122.702Z" fill="white"/>
<rect x="63" y="242" width="240" height="124" fill="#262626"/>
<path d="M89.9604 276.692H88.0344V275.162C90.7884 274.784 92.5164 272.552 92.5164 268.718C92.5164 264.506 90.4284 262.22 87.1884 262.22C83.9484 262.22 81.8604 264.506 81.8604 268.718C81.8604 272.66 83.6964 274.928 86.5944 275.198V276.476C86.5944 277.322 87.1164 277.952 88.1064 277.952H89.9604V276.692ZM87.1884 273.866C85.0104 273.866 83.4804 272.246 83.4804 269.762V267.674C83.4804 265.19 85.0104 263.57 87.1884 263.57C89.3664 263.57 90.8964 265.19 90.8964 267.674V269.762C90.8964 272.246 89.3664 273.866 87.1884 273.866ZM100.815 275H102.255V265.712H100.815V272.138C100.815 273.362 99.6985 273.92 98.5645 273.92C97.1785 273.92 96.4405 273.074 96.4405 271.418V265.712H95.0005V271.67C95.0005 273.92 96.2245 275.216 98.1325 275.216C99.6805 275.216 100.383 274.37 100.743 273.488H100.815V275ZM112.881 275V273.74H111.819V268.628C111.819 266.666 110.487 265.496 108.255 265.496C106.581 265.496 105.465 266.324 104.961 267.314L105.825 268.124C106.329 267.278 107.067 266.738 108.183 266.738C109.659 266.738 110.379 267.458 110.379 268.772V269.69H108.543C105.843 269.69 104.583 270.662 104.583 272.408C104.583 274.136 105.735 275.216 107.697 275.216C108.993 275.216 109.983 274.622 110.379 273.488H110.469C110.577 274.352 111.009 275 112.071 275H112.881ZM107.931 273.992C106.815 273.992 106.095 273.47 106.095 272.552V272.174C106.095 271.274 106.833 270.77 108.471 270.77H110.379V272.3C110.379 273.254 109.353 273.992 107.931 273.992ZM116.376 275V268.556C116.376 267.368 117.492 266.792 118.644 266.792C120.03 266.792 120.75 267.638 120.75 269.294V275H122.19V269.042C122.19 266.792 120.984 265.496 119.076 265.496C117.69 265.496 116.898 266.18 116.448 267.224H116.376V265.712H114.936V275H116.376ZM129.019 275V273.74H127.129V266.972H129.163V265.712H127.129V263.138H125.833V264.866C125.833 265.496 125.635 265.712 125.023 265.712H124.159V266.972H125.689V273.47C125.689 274.37 126.229 275 127.219 275H129.019ZM137.201 275H138.641V265.712H137.201V272.138C137.201 273.362 136.085 273.92 134.951 273.92C133.565 273.92 132.827 273.074 132.827 271.418V265.712H131.387V271.67C131.387 273.92 132.611 275.216 134.519 275.216C136.067 275.216 136.769 274.37 137.129 273.488H137.201V275ZM143.148 275V268.556C143.148 267.368 144.228 266.792 145.362 266.792C146.73 266.792 147.36 267.638 147.36 269.294V275H148.8V268.556C148.8 267.368 149.844 266.792 150.978 266.792C152.382 266.792 153.012 267.656 153.012 269.294V275H154.452V269.042C154.452 266.792 153.318 265.496 151.428 265.496C149.844 265.496 148.944 266.378 148.602 267.386H148.566C148.062 266.054 146.946 265.496 145.722 265.496C144.282 265.496 143.634 266.27 143.22 267.224H143.148V265.712H141.708V275H143.148ZM163.332 269.6H166.266L168.984 275H170.694L167.814 269.456C169.452 269.078 170.334 267.836 170.334 266C170.334 263.714 169.02 262.436 166.824 262.436H161.82V275H163.332V269.6ZM163.332 268.304V263.768H166.824C168.012 263.768 168.714 264.416 168.714 265.568V266.504C168.714 267.656 168.012 268.304 166.824 268.304H163.332ZM176.418 275.216C178.164 275.216 179.496 274.352 180.09 273.092L179.064 272.354C178.578 273.38 177.678 273.956 176.508 273.956C174.78 273.956 173.754 272.75 173.754 271.148V270.716H180.432V270.032C180.432 267.404 178.902 265.496 176.418 265.496C173.898 265.496 172.242 267.404 172.242 270.356C172.242 273.308 173.898 275.216 176.418 275.216ZM176.418 266.702C177.894 266.702 178.884 267.8 178.884 269.438V269.636H173.754V269.51C173.754 267.89 174.852 266.702 176.418 266.702ZM183.309 275H184.749V266.972H186.747V265.712H184.749V262.94H186.747V261.68H185.343C183.975 261.68 183.309 262.562 183.309 263.84V265.712H181.797V266.972H183.309V275ZM192.063 275.216C193.809 275.216 195.141 274.352 195.735 273.092L194.709 272.354C194.223 273.38 193.323 273.956 192.153 273.956C190.425 273.956 189.399 272.75 189.399 271.148V270.716H196.077V270.032C196.077 267.404 194.547 265.496 192.063 265.496C189.543 265.496 187.887 267.404 187.887 270.356C187.887 273.308 189.543 275.216 192.063 275.216ZM192.063 266.702C193.539 266.702 194.529 267.8 194.529 269.438V269.636H189.399V269.51C189.399 267.89 190.497 266.702 192.063 266.702ZM199.89 275V268.7C199.89 267.818 200.826 267.152 202.374 267.152H203.22V265.712H202.662C201.15 265.712 200.304 266.54 199.98 267.422H199.89V265.712H198.45V275H199.89ZM208.463 275.216C210.209 275.216 211.541 274.352 212.135 273.092L211.109 272.354C210.623 273.38 209.723 273.956 208.553 273.956C206.825 273.956 205.799 272.75 205.799 271.148V270.716H212.477V270.032C212.477 267.404 210.947 265.496 208.463 265.496C205.943 265.496 204.287 267.404 204.287 270.356C204.287 273.308 205.943 275.216 208.463 275.216ZM208.463 266.702C209.939 266.702 210.929 267.8 210.929 269.438V269.636H205.799V269.51C205.799 267.89 206.897 266.702 208.463 266.702ZM216.29 275V268.556C216.29 267.368 217.406 266.792 218.558 266.792C219.944 266.792 220.664 267.638 220.664 269.294V275H222.104V269.042C222.104 266.792 220.898 265.496 218.99 265.496C217.604 265.496 216.812 266.18 216.362 267.224H216.29V265.712H214.85V275H216.29ZM228.537 275.216C230.301 275.216 231.507 274.352 232.101 273.02L231.057 272.318C230.553 273.38 229.707 273.938 228.537 273.938C226.827 273.938 225.945 272.768 225.945 271.148V269.564C225.945 267.944 226.827 266.774 228.537 266.774C229.671 266.774 230.463 267.332 230.805 268.286L232.011 267.674C231.471 266.396 230.373 265.496 228.537 265.496C225.927 265.496 224.397 267.386 224.397 270.356C224.397 273.326 225.927 275.216 228.537 275.216ZM237.52 275.216C239.266 275.216 240.598 274.352 241.192 273.092L240.166 272.354C239.68 273.38 238.78 273.956 237.61 273.956C235.882 273.956 234.856 272.75 234.856 271.148V270.716H241.534V270.032C241.534 267.404 240.004 265.496 237.52 265.496C235 265.496 233.344 267.404 233.344 270.356C233.344 273.308 235 275.216 237.52 275.216ZM237.52 266.702C238.996 266.702 239.986 267.8 239.986 269.438V269.636H234.856V269.51C234.856 267.89 235.954 266.702 237.52 266.702ZM86.0184 303.216C88.7184 303.216 90.3384 301.74 90.3384 299.436C90.3384 297.564 89.2764 296.484 86.8284 295.926L85.8024 295.692C84.2184 295.332 83.4444 294.792 83.4444 293.604C83.4444 292.254 84.4344 291.552 86.0364 291.552C87.4944 291.552 88.4484 292.146 89.1324 293.1L90.2664 292.272C89.3304 290.94 87.9984 290.22 86.1084 290.22C83.6424 290.22 81.9504 291.426 81.9504 293.658C81.9504 295.584 83.2104 296.592 85.4964 297.114L86.5224 297.348C88.1784 297.726 88.8444 298.32 88.8444 299.508C88.8444 300.948 87.8724 301.884 86.0724 301.884C84.6144 301.884 83.5704 301.254 82.6884 300.084L81.5724 301.02C82.5804 302.388 84.0024 303.216 86.0184 303.216ZM96.6574 303V301.74H94.7674V294.972H96.8014V293.712H94.7674V291.138H93.4714V292.866C93.4714 293.496 93.2734 293.712 92.6614 293.712H91.7974V294.972H93.3274V301.47C93.3274 302.37 93.8674 303 94.8574 303H96.6574ZM106.676 303V301.74H105.614V296.628C105.614 294.666 104.282 293.496 102.05 293.496C100.376 293.496 99.2599 294.324 98.7559 295.314L99.6199 296.124C100.124 295.278 100.862 294.738 101.978 294.738C103.454 294.738 104.174 295.458 104.174 296.772V297.69H102.338C99.6379 297.69 98.3779 298.662 98.3779 300.408C98.3779 302.136 99.5299 303.216 101.492 303.216C102.788 303.216 103.778 302.622 104.174 301.488H104.264C104.372 302.352 104.804 303 105.866 303H106.676ZM101.726 301.992C100.61 301.992 99.8899 301.47 99.8899 300.552V300.174C99.8899 299.274 100.628 298.77 102.266 298.77H104.174V300.3C104.174 301.254 103.148 301.992 101.726 301.992ZM112.583 303V301.74H110.693V294.972H112.727V293.712H110.693V291.138H109.397V292.866C109.397 293.496 109.199 293.712 108.587 293.712H107.723V294.972H109.253V301.47C109.253 302.37 109.793 303 110.783 303H112.583ZM118.463 303.216C120.209 303.216 121.541 302.352 122.135 301.092L121.109 300.354C120.623 301.38 119.723 301.956 118.553 301.956C116.825 301.956 115.799 300.75 115.799 299.148V298.716H122.477V298.032C122.477 295.404 120.947 293.496 118.463 293.496C115.943 293.496 114.287 295.404 114.287 298.356C114.287 301.308 115.943 303.216 118.463 303.216ZM118.463 294.702C119.939 294.702 120.929 295.8 120.929 297.438V297.636H115.799V297.51C115.799 295.89 116.897 294.702 118.463 294.702Z" fill="white"/>
<rect x="330" y="242" width="240" height="124" fill="#262626"/>
<path d="M358.94 275L354.548 262.436H352.622L348.23 275H349.76L351.02 271.292H356.096L357.356 275H358.94ZM355.718 269.96H351.38L353.504 263.84H353.594L355.718 269.96ZM360.878 278.6H362.318V273.488H362.39C362.948 274.64 363.83 275.216 365.108 275.216C367.43 275.216 368.888 273.326 368.888 270.356C368.888 267.386 367.43 265.496 365.108 265.496C363.83 265.496 362.876 266.054 362.39 267.224H362.318V265.712H360.878V278.6ZM364.712 273.92C363.398 273.92 362.318 273.236 362.318 272.03V268.574C362.318 267.548 363.398 266.792 364.712 266.792C366.332 266.792 367.34 267.908 367.34 269.564V271.148C367.34 272.804 366.332 273.92 364.712 273.92ZM371.319 278.6H372.759V273.488H372.831C373.389 274.64 374.271 275.216 375.549 275.216C377.871 275.216 379.329 273.326 379.329 270.356C379.329 267.386 377.871 265.496 375.549 265.496C374.271 265.496 373.317 266.054 372.831 267.224H372.759V265.712H371.319V278.6ZM375.153 273.92C373.839 273.92 372.759 273.236 372.759 272.03V268.574C372.759 267.548 373.839 266.792 375.153 266.792C376.773 266.792 377.781 267.908 377.781 269.564V271.148C377.781 272.804 376.773 273.92 375.153 273.92ZM384.568 275V273.74H383.2V261.68H381.76V273.506C381.76 274.37 382.3 275 383.29 275H384.568ZM387.385 263.534C387.997 263.534 388.267 263.21 388.267 262.724V262.49C388.267 262.004 387.997 261.68 387.385 261.68C386.773 261.68 386.503 262.004 386.503 262.49V262.724C386.503 263.21 386.773 263.534 387.385 263.534ZM386.665 275H388.105V265.712H386.665V275ZM394.621 275.216C396.385 275.216 397.591 274.352 398.185 273.02L397.141 272.318C396.637 273.38 395.791 273.938 394.621 273.938C392.911 273.938 392.029 272.768 392.029 271.148V269.564C392.029 267.944 392.911 266.774 394.621 266.774C395.755 266.774 396.547 267.332 396.889 268.286L398.095 267.674C397.555 266.396 396.457 265.496 394.621 265.496C392.011 265.496 390.481 267.386 390.481 270.356C390.481 273.326 392.011 275.216 394.621 275.216ZM407.777 275V273.74H406.716V268.628C406.716 266.666 405.384 265.496 403.152 265.496C401.478 265.496 400.362 266.324 399.858 267.314L400.722 268.124C401.226 267.278 401.964 266.738 403.08 266.738C404.556 266.738 405.276 267.458 405.276 268.772V269.69H403.439C400.74 269.69 399.48 270.662 399.48 272.408C399.48 274.136 400.632 275.216 402.594 275.216C403.89 275.216 404.88 274.622 405.276 273.488H405.366C405.474 274.352 405.906 275 406.968 275H407.777ZM402.828 273.992C401.712 273.992 400.992 273.47 400.992 272.552V272.174C400.992 271.274 401.73 270.77 403.368 270.77H405.276V272.3C405.276 273.254 404.25 273.992 402.828 273.992ZM413.685 275V273.74H411.795V266.972H413.829V265.712H411.795V263.138H410.499V264.866C410.499 265.496 410.301 265.712 409.689 265.712H408.825V266.972H410.355V273.47C410.355 274.37 410.895 275 411.885 275H413.685ZM416.863 263.534C417.475 263.534 417.745 263.21 417.745 262.724V262.49C417.745 262.004 417.475 261.68 416.863 261.68C416.251 261.68 415.981 262.004 415.981 262.49V262.724C415.981 263.21 416.251 263.534 416.863 263.534ZM416.143 275H417.583V265.712H416.143V275ZM424.153 275.216C426.637 275.216 428.347 273.308 428.347 270.356C428.347 267.404 426.637 265.496 424.153 265.496C421.669 265.496 419.959 267.404 419.959 270.356C419.959 273.308 421.669 275.216 424.153 275.216ZM424.153 273.938C422.605 273.938 421.507 272.984 421.507 271.022V269.69C421.507 267.728 422.605 266.774 424.153 266.774C425.701 266.774 426.799 267.728 426.799 269.69V271.022C426.799 272.984 425.701 273.938 424.153 273.938ZM432.156 275V268.556C432.156 267.368 433.272 266.792 434.424 266.792C435.81 266.792 436.53 267.638 436.53 269.294V275H437.97V269.042C437.97 266.792 436.764 265.496 434.856 265.496C433.47 265.496 432.678 266.18 432.228 267.224H432.156V265.712H430.716V275H432.156ZM445.356 270.302V268.754H440.658V270.302H445.356ZM451.456 275.216C454.156 275.216 455.776 273.74 455.776 271.436C455.776 269.564 454.714 268.484 452.266 267.926L451.24 267.692C449.656 267.332 448.882 266.792 448.882 265.604C448.882 264.254 449.872 263.552 451.474 263.552C452.932 263.552 453.886 264.146 454.57 265.1L455.704 264.272C454.768 262.94 453.436 262.22 451.546 262.22C449.08 262.22 447.388 263.426 447.388 265.658C447.388 267.584 448.648 268.592 450.934 269.114L451.96 269.348C453.616 269.726 454.282 270.32 454.282 271.508C454.282 272.948 453.31 273.884 451.51 273.884C450.052 273.884 449.008 273.254 448.126 272.084L447.01 273.02C448.018 274.388 449.44 275.216 451.456 275.216ZM458.243 278.6H459.683V273.488H459.755C460.313 274.64 461.195 275.216 462.473 275.216C464.795 275.216 466.253 273.326 466.253 270.356C466.253 267.386 464.795 265.496 462.473 265.496C461.195 265.496 460.241 266.054 459.755 267.224H459.683V265.712H458.243V278.6ZM462.077 273.92C460.763 273.92 459.683 273.236 459.683 272.03V268.574C459.683 267.548 460.763 266.792 462.077 266.792C463.697 266.792 464.705 267.908 464.705 269.564V271.148C464.705 272.804 463.697 273.92 462.077 273.92ZM472.176 275.216C473.922 275.216 475.254 274.352 475.848 273.092L474.822 272.354C474.336 273.38 473.436 273.956 472.266 273.956C470.538 273.956 469.512 272.75 469.512 271.148V270.716H476.19V270.032C476.19 267.404 474.66 265.496 472.176 265.496C469.656 265.496 468 267.404 468 270.356C468 273.308 469.656 275.216 472.176 275.216ZM472.176 266.702C473.652 266.702 474.642 267.8 474.642 269.438V269.636H469.512V269.51C469.512 267.89 470.61 266.702 472.176 266.702ZM482.019 275.216C483.783 275.216 484.989 274.352 485.583 273.02L484.539 272.318C484.035 273.38 483.189 273.938 482.019 273.938C480.309 273.938 479.427 272.768 479.427 271.148V269.564C479.427 267.944 480.309 266.774 482.019 266.774C483.153 266.774 483.945 267.332 484.287 268.286L485.493 267.674C484.953 266.396 483.855 265.496 482.019 265.496C479.409 265.496 477.879 267.386 477.879 270.356C477.879 273.326 479.409 275.216 482.019 275.216ZM488.336 263.534C488.948 263.534 489.218 263.21 489.218 262.724V262.49C489.218 262.004 488.948 261.68 488.336 261.68C487.724 261.68 487.454 262.004 487.454 262.49V262.724C487.454 263.21 487.724 263.534 488.336 263.534ZM487.616 275H489.056V265.712H487.616V275ZM492.62 275H494.06V266.972H497.822V275H499.262V265.712H494.06V262.94H496.058V261.68H494.654C493.286 261.68 492.62 262.562 492.62 263.84V265.712H491.108V266.972H492.62V275ZM498.542 263.534C499.154 263.534 499.424 263.21 499.424 262.724V262.49C499.424 262.004 499.154 261.68 498.542 261.68C497.93 261.68 497.66 262.004 497.66 262.49V262.724C497.66 263.21 497.93 263.534 498.542 263.534ZM505.785 275.216C507.549 275.216 508.755 274.352 509.349 273.02L508.305 272.318C507.801 273.38 506.955 273.938 505.785 273.938C504.075 273.938 503.193 272.768 503.193 271.148V269.564C503.193 267.944 504.075 266.774 505.785 266.774C506.919 266.774 507.711 267.332 508.053 268.286L509.259 267.674C508.719 266.396 507.621 265.496 505.785 265.496C503.175 265.496 501.645 267.386 501.645 270.356C501.645 273.326 503.175 275.216 505.785 275.216ZM351.002 297.6H353.936L356.654 303H358.364L355.484 297.456C357.122 297.078 358.004 295.836 358.004 294C358.004 291.714 356.69 290.436 354.494 290.436H349.49V303H351.002V297.6ZM351.002 296.304V291.768H354.494C355.682 291.768 356.384 292.416 356.384 293.568V294.504C356.384 295.656 355.682 296.304 354.494 296.304H351.002ZM364.088 303.216C365.834 303.216 367.166 302.352 367.76 301.092L366.734 300.354C366.248 301.38 365.348 301.956 364.178 301.956C362.45 301.956 361.424 300.75 361.424 299.148V298.716H368.102V298.032C368.102 295.404 366.572 293.496 364.088 293.496C361.568 293.496 359.912 295.404 359.912 298.356C359.912 301.308 361.568 303.216 364.088 303.216ZM364.088 294.702C365.564 294.702 366.554 295.8 366.554 297.438V297.636H361.424V297.51C361.424 295.89 362.522 294.702 364.088 294.702ZM370.979 303H372.419V294.972H374.417V293.712H372.419V290.94H374.417V289.68H373.013C371.645 289.68 370.979 290.562 370.979 291.84V293.712H369.467V294.972H370.979V303ZM379.733 303.216C381.479 303.216 382.811 302.352 383.405 301.092L382.379 300.354C381.893 301.38 380.993 301.956 379.823 301.956C378.095 301.956 377.069 300.75 377.069 299.148V298.716H383.747V298.032C383.747 295.404 382.217 293.496 379.733 293.496C377.213 293.496 375.557 295.404 375.557 298.356C375.557 301.308 377.213 303.216 379.733 303.216ZM379.733 294.702C381.209 294.702 382.199 295.8 382.199 297.438V297.636H377.069V297.51C377.069 295.89 378.167 294.702 379.733 294.702ZM387.56 303V296.7C387.56 295.818 388.496 295.152 390.044 295.152H390.89V293.712H390.332C388.82 293.712 387.974 294.54 387.65 295.422H387.56V293.712H386.12V303H387.56ZM396.133 303.216C397.879 303.216 399.211 302.352 399.805 301.092L398.779 300.354C398.293 301.38 397.393 301.956 396.223 301.956C394.495 301.956 393.469 300.75 393.469 299.148V298.716H400.147V298.032C400.147 295.404 398.617 293.496 396.133 293.496C393.613 293.496 391.957 295.404 391.957 298.356C391.957 301.308 393.613 303.216 396.133 303.216ZM396.133 294.702C397.609 294.702 398.599 295.8 398.599 297.438V297.636H393.469V297.51C393.469 295.89 394.567 294.702 396.133 294.702ZM403.96 303V296.556C403.96 295.368 405.076 294.792 406.228 294.792C407.614 294.792 408.334 295.638 408.334 297.294V303H409.774V297.042C409.774 294.792 408.568 293.496 406.66 293.496C405.274 293.496 404.482 294.18 404.032 295.224H403.96V293.712H402.52V303H403.96ZM416.207 303.216C417.971 303.216 419.177 302.352 419.771 301.02L418.727 300.318C418.223 301.38 417.377 301.938 416.207 301.938C414.497 301.938 413.615 300.768 413.615 299.148V297.564C413.615 295.944 414.497 294.774 416.207 294.774C417.341 294.774 418.133 295.332 418.475 296.286L419.681 295.674C419.141 294.396 418.043 293.496 416.207 293.496C413.597 293.496 412.067 295.386 412.067 298.356C412.067 301.326 413.597 303.216 416.207 303.216ZM425.19 303.216C426.936 303.216 428.268 302.352 428.862 301.092L427.836 300.354C427.35 301.38 426.45 301.956 425.28 301.956C423.552 301.956 422.526 300.75 422.526 299.148V298.716H429.204V298.032C429.204 295.404 427.674 293.496 425.19 293.496C422.67 293.496 421.014 295.404 421.014 298.356C421.014 301.308 422.67 303.216 425.19 303.216ZM425.19 294.702C426.666 294.702 427.656 295.8 427.656 297.438V297.636H422.526V297.51C422.526 295.89 423.624 294.702 425.19 294.702ZM439.503 303.216C442.203 303.216 443.823 301.74 443.823 299.436C443.823 297.564 442.761 296.484 440.313 295.926L439.287 295.692C437.703 295.332 436.929 294.792 436.929 293.604C436.929 292.254 437.919 291.552 439.521 291.552C440.979 291.552 441.933 292.146 442.617 293.1L443.751 292.272C442.815 290.94 441.483 290.22 439.593 290.22C437.127 290.22 435.435 291.426 435.435 293.658C435.435 295.584 436.695 296.592 438.981 297.114L440.007 297.348C441.663 297.726 442.329 298.32 442.329 299.508C442.329 300.948 441.357 301.884 439.557 301.884C438.099 301.884 437.055 301.254 436.173 300.084L435.057 301.02C436.065 302.388 437.487 303.216 439.503 303.216ZM450.142 303V301.74H448.252V294.972H450.286V293.712H448.252V291.138H446.956V292.866C446.956 293.496 446.758 293.712 446.146 293.712H445.282V294.972H446.812V301.47C446.812 302.37 447.352 303 448.342 303H450.142ZM460.16 303V301.74H459.098V296.628C459.098 294.666 457.766 293.496 455.534 293.496C453.86 293.496 452.744 294.324 452.24 295.314L453.104 296.124C453.608 295.278 454.346 294.738 455.462 294.738C456.938 294.738 457.658 295.458 457.658 296.772V297.69H455.822C453.122 297.69 451.862 298.662 451.862 300.408C451.862 302.136 453.014 303.216 454.976 303.216C456.272 303.216 457.262 302.622 457.658 301.488H457.748C457.856 302.352 458.288 303 459.35 303H460.16ZM455.21 301.992C454.094 301.992 453.374 301.47 453.374 300.552V300.174C453.374 299.274 454.112 298.77 455.75 298.77H457.658V300.3C457.658 301.254 456.632 301.992 455.21 301.992ZM466.068 303V301.74H464.178V294.972H466.212V293.712H464.178V291.138H462.882V292.866C462.882 293.496 462.684 293.712 462.072 293.712H461.208V294.972H462.738V301.47C462.738 302.37 463.278 303 464.268 303H466.068ZM471.948 303.216C473.694 303.216 475.026 302.352 475.62 301.092L474.594 300.354C474.108 301.38 473.208 301.956 472.038 301.956C470.31 301.956 469.284 300.75 469.284 299.148V298.716H475.962V298.032C475.962 295.404 474.432 293.496 471.948 293.496C469.428 293.496 467.772 295.404 467.772 298.356C467.772 301.308 469.428 303.216 471.948 303.216ZM471.948 294.702C473.424 294.702 474.414 295.8 474.414 297.438V297.636H469.284V297.51C469.284 295.89 470.382 294.702 471.948 294.702ZM481.125 303.216C483.249 303.216 484.563 302.118 484.563 300.318C484.563 298.914 483.771 298.014 481.719 297.708L480.999 297.6C479.847 297.42 479.217 297.06 479.217 296.16C479.217 295.278 479.847 294.72 481.035 294.72C482.223 294.72 483.015 295.278 483.429 295.854L484.383 294.99C483.627 294.054 482.637 293.496 481.143 293.496C479.253 293.496 477.831 294.396 477.831 296.232C477.831 297.96 479.109 298.662 480.819 298.914L481.557 299.022C482.781 299.202 483.177 299.76 483.177 300.48C483.177 301.434 482.457 301.992 481.233 301.992C480.063 301.992 479.199 301.47 478.479 300.57L477.453 301.398C478.281 302.496 479.415 303.216 481.125 303.216Z" fill="white"/>
</svg>
