<svg xmlns="http://www.w3.org/2000/svg" xmlns:xlink="http://www.w3.org/1999/xlink" width="16" height="16" version="1.1" viewBox="0 0 16 16"><g id="surface1"><path style="stroke:none;fill-rule:nonzero;fill:#000;fill-opacity:1" d="M 8 1 C 6.140625 0.988281 4.351562 1.722656 3.039062 3.039062 C 1.722656 4.351562 0.988281 6.140625 1 8 C 0.988281 9.859375 1.722656 11.648438 3.039062 12.960938 C 4.351562 14.277344 6.140625 15.011719 8 15 C 9.859375 15.011719 11.648438 14.277344 12.960938 12.960938 C 14.277344 11.648438 15.011719 9.859375 15 8 C 15.011719 6.140625 14.277344 4.351562 12.960938 3.039062 C 11.648438 1.722656 9.859375 0.988281 8 1 Z M 10.722656 11.5 L 4.5 5.277344 L 5.277344 4.5 L 11.5 10.722656 Z M 10.722656 11.5"/></g></svg>