<svg width="481" height="154" viewBox="0 0 481 154" fill="none" xmlns="http://www.w3.org/2000/svg">
<rect width="92" height="26" fill="#F2F4F8"/>
<rect x="385" width="96" height="26" fill="#F2F4F8"/>
<rect x="96" width="285" height="26" fill="#F2F4F8"/>
<rect x="96" y="30" width="285" height="124" fill="#F2F4F8"/>
<rect y="30" width="92" height="124" fill="#F2F4F8"/>
<rect x="385" y="30" width="96" height="124" fill="#F2F4F8"/>
<path d="M109.96 54.184H112.12V46.936H109.96V46.12H113.08V54.184H115.24V55H109.96V54.184ZM120.223 55.144C119.775 55.144 119.371 55.068 119.011 54.916C118.659 54.764 118.355 54.548 118.099 54.268C117.851 53.98 117.659 53.64 117.523 53.248C117.387 52.848 117.319 52.404 117.319 51.916C117.319 51.42 117.387 50.972 117.523 50.572C117.667 50.172 117.863 49.832 118.111 49.552C118.359 49.264 118.655 49.044 118.999 48.892C119.351 48.74 119.739 48.664 120.163 48.664C120.579 48.664 120.955 48.74 121.291 48.892C121.635 49.044 121.927 49.256 122.167 49.528C122.407 49.792 122.591 50.108 122.719 50.476C122.847 50.844 122.911 51.248 122.911 51.688V52.144H118.327V52.432C118.327 52.704 118.371 52.956 118.459 53.188C118.547 53.42 118.671 53.62 118.831 53.788C118.999 53.956 119.199 54.088 119.431 54.184C119.671 54.272 119.935 54.316 120.223 54.316C120.639 54.316 120.999 54.22 121.303 54.028C121.607 53.836 121.839 53.572 121.999 53.236L122.707 53.716C122.523 54.132 122.215 54.476 121.783 54.748C121.359 55.012 120.839 55.144 120.223 55.144ZM120.163 49.456C119.899 49.456 119.655 49.504 119.431 49.6C119.207 49.696 119.011 49.828 118.843 49.996C118.683 50.164 118.555 50.364 118.459 50.596C118.371 50.82 118.327 51.068 118.327 51.34V51.424H121.879V51.292C121.879 51.02 121.835 50.772 121.747 50.548C121.667 50.324 121.551 50.132 121.399 49.972C121.255 49.804 121.075 49.676 120.859 49.588C120.651 49.5 120.419 49.456 120.163 49.456ZM127.931 55C127.459 55 127.111 54.868 126.887 54.604C126.671 54.34 126.563 54 126.563 53.584V49.624H124.499V48.808H126.035C126.243 48.808 126.387 48.768 126.467 48.688C126.555 48.6 126.599 48.452 126.599 48.244V46.624H127.523V48.808H130.343V49.624H127.523V54.184H130.343V55H127.931ZM139.793 55L142.097 51.856L139.853 48.808H141.005L141.941 50.116L142.685 51.148H142.733L143.453 50.116L144.377 48.808H145.481L143.213 51.844L145.541 55H144.389L143.345 53.548L142.637 52.564H142.589L141.905 53.548L140.897 55H139.793ZM155.232 46.12H156.192V49.816H156.24C156.64 49.048 157.276 48.664 158.148 48.664C158.908 48.664 159.5 48.948 159.924 49.516C160.356 50.084 160.572 50.88 160.572 51.904C160.572 52.928 160.356 53.724 159.924 54.292C159.5 54.86 158.908 55.144 158.148 55.144C157.276 55.144 156.64 54.76 156.24 53.992H156.192V55H155.232V46.12ZM157.776 54.292C158.336 54.292 158.768 54.124 159.072 53.788C159.384 53.444 159.54 52.992 159.54 52.432V51.376C159.54 50.816 159.384 50.368 159.072 50.032C158.768 49.688 158.336 49.516 157.776 49.516C157.56 49.516 157.356 49.544 157.164 49.6C156.972 49.656 156.804 49.74 156.66 49.852C156.516 49.956 156.4 50.088 156.312 50.248C156.232 50.4 156.192 50.58 156.192 50.788V53.02C156.192 53.228 156.232 53.412 156.312 53.572C156.4 53.724 156.516 53.856 156.66 53.968C156.804 54.072 156.972 54.152 157.164 54.208C157.356 54.264 157.56 54.292 157.776 54.292ZM165.315 55.144C164.867 55.144 164.463 55.068 164.103 54.916C163.751 54.764 163.447 54.548 163.191 54.268C162.943 53.98 162.751 53.64 162.615 53.248C162.479 52.848 162.411 52.404 162.411 51.916C162.411 51.42 162.479 50.972 162.615 50.572C162.759 50.172 162.955 49.832 163.203 49.552C163.451 49.264 163.747 49.044 164.091 48.892C164.443 48.74 164.831 48.664 165.255 48.664C165.671 48.664 166.047 48.74 166.383 48.892C166.727 49.044 167.019 49.256 167.259 49.528C167.499 49.792 167.683 50.108 167.811 50.476C167.939 50.844 168.003 51.248 168.003 51.688V52.144H163.419V52.432C163.419 52.704 163.463 52.956 163.551 53.188C163.639 53.42 163.763 53.62 163.923 53.788C164.091 53.956 164.291 54.088 164.523 54.184C164.763 54.272 165.027 54.316 165.315 54.316C165.731 54.316 166.091 54.22 166.395 54.028C166.699 53.836 166.931 53.572 167.091 53.236L167.799 53.716C167.615 54.132 167.307 54.476 166.875 54.748C166.451 55.012 165.931 55.144 165.315 55.144ZM165.255 49.456C164.991 49.456 164.747 49.504 164.523 49.6C164.299 49.696 164.103 49.828 163.935 49.996C163.775 50.164 163.647 50.364 163.551 50.596C163.463 50.82 163.419 51.068 163.419 51.34V51.424H166.971V51.292C166.971 51.02 166.927 50.772 166.839 50.548C166.759 50.324 166.643 50.132 166.491 49.972C166.347 49.804 166.167 49.676 165.951 49.588C165.743 49.5 165.511 49.456 165.255 49.456ZM180.538 55C180.066 55 179.718 54.868 179.494 54.604C179.278 54.34 179.17 54 179.17 53.584V49.624H177.106V48.808H178.642C178.85 48.808 178.994 48.768 179.074 48.688C179.162 48.6 179.206 48.452 179.206 48.244V46.624H180.13V48.808H182.95V49.624H180.13V54.184H182.95V55H180.538ZM185.329 46.12H186.289V49.816H186.337C186.401 49.664 186.481 49.52 186.577 49.384C186.673 49.24 186.789 49.116 186.925 49.012C187.069 48.908 187.237 48.824 187.429 48.76C187.621 48.696 187.845 48.664 188.101 48.664C188.749 48.664 189.269 48.872 189.661 49.288C190.053 49.696 190.249 50.276 190.249 51.028V55H189.289V51.196C189.289 50.628 189.165 50.208 188.917 49.936C188.669 49.656 188.305 49.516 187.825 49.516C187.633 49.516 187.445 49.54 187.261 49.588C187.077 49.636 186.913 49.708 186.769 49.804C186.625 49.9 186.509 50.024 186.421 50.176C186.333 50.328 186.289 50.504 186.289 50.704V55H185.329V46.12ZM195.376 55.144C194.928 55.144 194.524 55.068 194.164 54.916C193.812 54.764 193.508 54.548 193.252 54.268C193.004 53.98 192.812 53.64 192.676 53.248C192.54 52.848 192.472 52.404 192.472 51.916C192.472 51.42 192.54 50.972 192.676 50.572C192.82 50.172 193.016 49.832 193.264 49.552C193.512 49.264 193.808 49.044 194.152 48.892C194.504 48.74 194.892 48.664 195.316 48.664C195.732 48.664 196.108 48.74 196.444 48.892C196.788 49.044 197.08 49.256 197.32 49.528C197.56 49.792 197.744 50.108 197.872 50.476C198 50.844 198.064 51.248 198.064 51.688V52.144H193.48V52.432C193.48 52.704 193.524 52.956 193.612 53.188C193.7 53.42 193.824 53.62 193.984 53.788C194.152 53.956 194.352 54.088 194.584 54.184C194.824 54.272 195.088 54.316 195.376 54.316C195.792 54.316 196.152 54.22 196.456 54.028C196.76 53.836 196.992 53.572 197.152 53.236L197.86 53.716C197.676 54.132 197.368 54.476 196.936 54.748C196.512 55.012 195.992 55.144 195.376 55.144ZM195.316 49.456C195.052 49.456 194.808 49.504 194.584 49.6C194.36 49.696 194.164 49.828 193.996 49.996C193.836 50.164 193.708 50.364 193.612 50.596C193.524 50.82 193.48 51.068 193.48 51.34V51.424H197.032V51.292C197.032 51.02 196.988 50.772 196.9 50.548C196.82 50.324 196.704 50.132 196.552 49.972C196.408 49.804 196.228 49.676 196.012 49.588C195.804 49.5 195.572 49.456 195.316 49.456ZM207.623 54.184H209.435V49.624H207.623V48.808H210.395V50.368H210.455C210.583 49.88 210.823 49.5 211.175 49.228C211.535 48.948 211.991 48.808 212.543 48.808H213.407V49.768H212.243C211.691 49.768 211.243 49.928 210.899 50.248C210.563 50.568 210.395 50.988 210.395 51.508V54.184H212.795V55H207.623V54.184ZM218.198 47.44C217.918 47.44 217.722 47.384 217.61 47.272C217.498 47.152 217.442 47.004 217.442 46.828V46.636C217.442 46.46 217.498 46.316 217.61 46.204C217.722 46.084 217.918 46.024 218.198 46.024C218.478 46.024 218.674 46.084 218.786 46.204C218.898 46.316 218.954 46.46 218.954 46.636V46.828C218.954 47.004 218.898 47.152 218.786 47.272C218.674 47.384 218.478 47.44 218.198 47.44ZM215.486 54.184H217.718V49.624H215.486V48.808H218.678V54.184H220.766V55H215.486V54.184ZM228.462 55.708C228.462 56.332 228.202 56.792 227.682 57.088C227.162 57.392 226.382 57.544 225.342 57.544C224.342 57.544 223.622 57.412 223.182 57.148C222.75 56.884 222.534 56.504 222.534 56.008C222.534 55.672 222.622 55.412 222.798 55.228C222.974 55.044 223.222 54.908 223.542 54.82V54.676C223.366 54.588 223.23 54.476 223.134 54.34C223.038 54.204 222.99 54.032 222.99 53.824C222.99 53.504 223.094 53.264 223.302 53.104C223.518 52.944 223.786 52.824 224.106 52.744V52.696C223.722 52.528 223.422 52.28 223.206 51.952C222.998 51.624 222.894 51.24 222.894 50.8C222.894 50.488 222.95 50.2 223.062 49.936C223.174 49.672 223.334 49.448 223.542 49.264C223.758 49.072 224.014 48.924 224.31 48.82C224.606 48.716 224.934 48.664 225.294 48.664C225.758 48.664 226.166 48.748 226.518 48.916V48.808C226.518 48.568 226.574 48.368 226.686 48.208C226.798 48.048 226.99 47.968 227.262 47.968H228.402V48.808H227.01V49.228C227.234 49.42 227.406 49.648 227.526 49.912C227.646 50.176 227.706 50.472 227.706 50.8C227.706 51.112 227.646 51.4 227.526 51.664C227.414 51.928 227.254 52.156 227.046 52.348C226.838 52.532 226.582 52.676 226.278 52.78C225.982 52.884 225.654 52.936 225.294 52.936C225.19 52.936 225.09 52.932 224.994 52.924C224.898 52.916 224.802 52.904 224.706 52.888C224.61 52.904 224.51 52.932 224.406 52.972C224.302 53.004 224.206 53.052 224.118 53.116C224.03 53.172 223.958 53.24 223.902 53.32C223.846 53.4 223.818 53.492 223.818 53.596C223.818 53.78 223.91 53.904 224.094 53.968C224.278 54.024 224.518 54.052 224.814 54.052H226.182C226.982 54.052 227.562 54.204 227.922 54.508C228.282 54.804 228.462 55.204 228.462 55.708ZM227.562 55.756C227.562 55.508 227.462 55.308 227.262 55.156C227.062 55.012 226.714 54.94 226.218 54.94H224.07C223.654 55.108 223.446 55.388 223.446 55.78C223.446 56.052 223.554 56.284 223.77 56.476C223.986 56.676 224.346 56.776 224.85 56.776H225.786C226.346 56.776 226.782 56.688 227.094 56.512C227.406 56.344 227.562 56.092 227.562 55.756ZM225.294 52.192C225.774 52.192 226.126 52.08 226.35 51.856C226.582 51.632 226.698 51.336 226.698 50.968V50.62C226.698 50.252 226.582 49.96 226.35 49.744C226.126 49.52 225.774 49.408 225.294 49.408C224.814 49.408 224.462 49.52 224.238 49.744C224.014 49.96 223.902 50.252 223.902 50.62V50.968C223.902 51.336 224.014 51.632 224.238 51.856C224.462 52.08 224.814 52.192 225.294 52.192ZM230.421 46.12H231.381V49.816H231.429C231.493 49.664 231.573 49.52 231.669 49.384C231.765 49.24 231.881 49.116 232.017 49.012C232.161 48.908 232.329 48.824 232.521 48.76C232.713 48.696 232.937 48.664 233.193 48.664C233.841 48.664 234.361 48.872 234.753 49.288C235.145 49.696 235.341 50.276 235.341 51.028V55H234.381V51.196C234.381 50.628 234.257 50.208 234.009 49.936C233.761 49.656 233.397 49.516 232.917 49.516C232.725 49.516 232.537 49.54 232.353 49.588C232.169 49.636 232.005 49.708 231.861 49.804C231.717 49.9 231.601 50.024 231.513 50.176C231.425 50.328 231.381 50.504 231.381 50.704V55H230.421V46.12ZM240.66 55C240.188 55 239.84 54.868 239.616 54.604C239.4 54.34 239.292 54 239.292 53.584V49.624H237.228V48.808H238.764C238.972 48.808 239.116 48.768 239.196 48.688C239.284 48.6 239.328 48.452 239.328 48.244V46.624H240.252V48.808H243.072V49.624H240.252V54.184H243.072V55H240.66ZM244.924 55V48.808H245.812V49.528H245.86C245.956 49.288 246.092 49.084 246.268 48.916C246.444 48.748 246.704 48.664 247.048 48.664C247.408 48.664 247.676 48.756 247.852 48.94C248.028 49.116 248.136 49.348 248.176 49.636H248.212C248.324 49.356 248.484 49.124 248.692 48.94C248.9 48.756 249.188 48.664 249.556 48.664C250.06 48.664 250.396 48.84 250.564 49.192C250.74 49.544 250.828 50.048 250.828 50.704V55H249.94V50.86C249.94 50.332 249.884 49.968 249.772 49.768C249.668 49.56 249.472 49.456 249.184 49.456C248.928 49.456 248.72 49.54 248.56 49.708C248.4 49.868 248.32 50.116 248.32 50.452V55H247.432V50.86C247.432 50.332 247.376 49.968 247.264 49.768C247.16 49.56 246.968 49.456 246.688 49.456C246.432 49.456 246.22 49.54 246.052 49.708C245.892 49.868 245.812 50.116 245.812 50.452V55H244.924ZM255.391 55.144C254.959 55.144 254.567 55.068 254.215 54.916C253.871 54.764 253.575 54.548 253.327 54.268C253.087 53.98 252.903 53.64 252.775 53.248C252.647 52.848 252.583 52.4 252.583 51.904C252.583 51.416 252.647 50.972 252.775 50.572C252.903 50.172 253.087 49.832 253.327 49.552C253.575 49.264 253.871 49.044 254.215 48.892C254.567 48.74 254.959 48.664 255.391 48.664C255.823 48.664 256.211 48.74 256.555 48.892C256.907 49.044 257.203 49.264 257.443 49.552C257.691 49.832 257.879 50.172 258.007 50.572C258.135 50.972 258.199 51.416 258.199 51.904C258.199 52.4 258.135 52.848 258.007 53.248C257.879 53.64 257.691 53.98 257.443 54.268C257.203 54.548 256.907 54.764 256.555 54.916C256.211 55.068 255.823 55.144 255.391 55.144ZM255.391 54.316C255.927 54.316 256.359 54.156 256.687 53.836C257.015 53.516 257.179 53.02 257.179 52.348V51.46C257.179 50.788 257.015 50.292 256.687 49.972C256.359 49.652 255.927 49.492 255.391 49.492C254.855 49.492 254.423 49.652 254.095 49.972C253.767 50.292 253.603 50.788 253.603 51.46V52.348C253.603 53.02 253.767 53.516 254.095 53.836C254.423 54.156 254.855 54.316 255.391 54.316ZM262.978 55.144C262.33 55.144 261.77 55.036 261.298 54.82C260.834 54.596 260.438 54.3 260.11 53.932L260.758 53.368C261.054 53.68 261.378 53.92 261.73 54.088C262.082 54.256 262.506 54.34 263.002 54.34C263.482 54.34 263.874 54.256 264.178 54.088C264.49 53.912 264.646 53.64 264.646 53.272C264.646 53.112 264.614 52.98 264.55 52.876C264.494 52.764 264.414 52.676 264.31 52.612C264.206 52.548 264.09 52.5 263.962 52.468C263.834 52.428 263.698 52.396 263.554 52.372L262.582 52.228C262.366 52.196 262.13 52.152 261.874 52.096C261.626 52.04 261.398 51.952 261.19 51.832C260.982 51.704 260.806 51.536 260.662 51.328C260.526 51.12 260.458 50.848 260.458 50.512C260.458 50.2 260.518 49.932 260.638 49.708C260.766 49.476 260.942 49.284 261.166 49.132C261.39 48.972 261.654 48.856 261.958 48.784C262.262 48.704 262.594 48.664 262.954 48.664C263.514 48.664 263.998 48.752 264.406 48.928C264.822 49.104 265.178 49.348 265.474 49.66L264.85 50.248C264.778 50.16 264.686 50.072 264.574 49.984C264.47 49.888 264.338 49.804 264.178 49.732C264.026 49.652 263.846 49.588 263.638 49.54C263.43 49.492 263.19 49.468 262.918 49.468C262.43 49.468 262.054 49.552 261.79 49.72C261.534 49.888 261.406 50.132 261.406 50.452C261.406 50.612 261.434 50.748 261.49 50.86C261.554 50.964 261.638 51.048 261.742 51.112C261.846 51.176 261.962 51.228 262.09 51.268C262.226 51.3 262.362 51.328 262.498 51.352L263.47 51.496C263.694 51.528 263.93 51.572 264.178 51.628C264.426 51.684 264.654 51.776 264.862 51.904C265.07 52.024 265.242 52.188 265.378 52.396C265.522 52.604 265.594 52.876 265.594 53.212C265.594 53.828 265.354 54.304 264.874 54.64C264.402 54.976 263.77 55.144 262.978 55.144ZM270.722 55C270.25 55 269.902 54.868 269.678 54.604C269.462 54.34 269.354 54 269.354 53.584V49.624H267.29V48.808H268.826C269.034 48.808 269.178 48.768 269.258 48.688C269.346 48.6 269.39 48.452 269.39 48.244V46.624H270.314V48.808H273.134V49.624H270.314V54.184H273.134V55H270.722ZM286.952 53.992H286.904C286.504 54.76 285.868 55.144 284.996 55.144C284.236 55.144 283.64 54.86 283.208 54.292C282.784 53.724 282.572 52.928 282.572 51.904C282.572 50.88 282.784 50.084 283.208 49.516C283.64 48.948 284.236 48.664 284.996 48.664C285.868 48.664 286.504 49.048 286.904 49.816H286.952V46.12H287.912V55H286.952V53.992ZM285.368 54.292C285.584 54.292 285.788 54.264 285.98 54.208C286.172 54.152 286.34 54.072 286.484 53.968C286.628 53.856 286.74 53.724 286.82 53.572C286.908 53.412 286.952 53.228 286.952 53.02V50.788C286.952 50.58 286.908 50.4 286.82 50.248C286.74 50.088 286.628 49.956 286.484 49.852C286.34 49.74 286.172 49.656 285.98 49.6C285.788 49.544 285.584 49.516 285.368 49.516C284.808 49.516 284.372 49.688 284.06 50.032C283.756 50.368 283.604 50.816 283.604 51.376V52.432C283.604 52.992 283.756 53.444 284.06 53.788C284.372 54.124 284.808 54.292 285.368 54.292ZM293.351 47.44C293.071 47.44 292.875 47.384 292.763 47.272C292.651 47.152 292.595 47.004 292.595 46.828V46.636C292.595 46.46 292.651 46.316 292.763 46.204C292.875 46.084 293.071 46.024 293.351 46.024C293.631 46.024 293.827 46.084 293.939 46.204C294.051 46.316 294.107 46.46 294.107 46.636V46.828C294.107 47.004 294.051 47.152 293.939 47.272C293.827 47.384 293.631 47.44 293.351 47.44ZM290.639 54.184H292.871V49.624H290.639V48.808H293.831V54.184H295.919V55H290.639V54.184ZM303.615 55.708C303.615 56.332 303.355 56.792 302.835 57.088C302.315 57.392 301.535 57.544 300.495 57.544C299.495 57.544 298.775 57.412 298.335 57.148C297.903 56.884 297.687 56.504 297.687 56.008C297.687 55.672 297.775 55.412 297.951 55.228C298.127 55.044 298.375 54.908 298.695 54.82V54.676C298.519 54.588 298.383 54.476 298.287 54.34C298.191 54.204 298.143 54.032 298.143 53.824C298.143 53.504 298.247 53.264 298.455 53.104C298.671 52.944 298.939 52.824 299.259 52.744V52.696C298.875 52.528 298.575 52.28 298.359 51.952C298.151 51.624 298.047 51.24 298.047 50.8C298.047 50.488 298.103 50.2 298.215 49.936C298.327 49.672 298.487 49.448 298.695 49.264C298.911 49.072 299.167 48.924 299.463 48.82C299.759 48.716 300.087 48.664 300.447 48.664C300.911 48.664 301.319 48.748 301.671 48.916V48.808C301.671 48.568 301.727 48.368 301.839 48.208C301.951 48.048 302.143 47.968 302.415 47.968H303.555V48.808H302.163V49.228C302.387 49.42 302.559 49.648 302.679 49.912C302.799 50.176 302.859 50.472 302.859 50.8C302.859 51.112 302.799 51.4 302.679 51.664C302.567 51.928 302.407 52.156 302.199 52.348C301.991 52.532 301.735 52.676 301.431 52.78C301.135 52.884 300.807 52.936 300.447 52.936C300.343 52.936 300.243 52.932 300.147 52.924C300.051 52.916 299.955 52.904 299.859 52.888C299.763 52.904 299.663 52.932 299.559 52.972C299.455 53.004 299.359 53.052 299.271 53.116C299.183 53.172 299.111 53.24 299.055 53.32C298.999 53.4 298.971 53.492 298.971 53.596C298.971 53.78 299.063 53.904 299.247 53.968C299.431 54.024 299.671 54.052 299.967 54.052H301.335C302.135 54.052 302.715 54.204 303.075 54.508C303.435 54.804 303.615 55.204 303.615 55.708ZM302.715 55.756C302.715 55.508 302.615 55.308 302.415 55.156C302.215 55.012 301.867 54.94 301.371 54.94H299.223C298.807 55.108 298.599 55.388 298.599 55.78C298.599 56.052 298.707 56.284 298.923 56.476C299.139 56.676 299.499 56.776 300.003 56.776H300.939C301.499 56.776 301.935 56.688 302.247 56.512C302.559 56.344 302.715 56.092 302.715 55.756ZM300.447 52.192C300.927 52.192 301.279 52.08 301.503 51.856C301.735 51.632 301.851 51.336 301.851 50.968V50.62C301.851 50.252 301.735 49.96 301.503 49.744C301.279 49.52 300.927 49.408 300.447 49.408C299.967 49.408 299.615 49.52 299.391 49.744C299.167 49.96 299.055 50.252 299.055 50.62V50.968C299.055 51.336 299.167 51.632 299.391 51.856C299.615 52.08 299.967 52.192 300.447 52.192ZM308.382 47.44C308.102 47.44 307.906 47.384 307.794 47.272C307.682 47.152 307.626 47.004 307.626 46.828V46.636C307.626 46.46 307.682 46.316 307.794 46.204C307.906 46.084 308.102 46.024 308.382 46.024C308.662 46.024 308.858 46.084 308.97 46.204C309.082 46.316 309.138 46.46 309.138 46.636V46.828C309.138 47.004 309.082 47.152 308.97 47.272C308.858 47.384 308.662 47.44 308.382 47.44ZM305.67 54.184H307.902V49.624H305.67V48.808H308.862V54.184H310.95V55H305.67V54.184ZM315.813 55C315.341 55 314.993 54.868 314.769 54.604C314.553 54.34 314.445 54 314.445 53.584V49.624H312.381V48.808H313.917C314.125 48.808 314.269 48.768 314.349 48.688C314.437 48.6 314.481 48.452 314.481 48.244V46.624H315.405V48.808H318.225V49.624H315.405V54.184H318.225V55H315.813ZM112.984 63.44C112.704 63.44 112.508 63.384 112.396 63.272C112.284 63.152 112.228 63.004 112.228 62.828V62.636C112.228 62.46 112.284 62.316 112.396 62.204C112.508 62.084 112.704 62.024 112.984 62.024C113.264 62.024 113.46 62.084 113.572 62.204C113.684 62.316 113.74 62.46 113.74 62.636V62.828C113.74 63.004 113.684 63.152 113.572 63.272C113.46 63.384 113.264 63.44 112.984 63.44ZM110.272 70.184H112.504V65.624H110.272V64.808H113.464V70.184H115.552V71H110.272V70.184ZM117.511 70.184H119.599V65.624H117.391V64.808H119.599V63.536C119.599 63.12 119.707 62.78 119.923 62.516C120.147 62.252 120.495 62.12 120.967 62.12H123.043V62.936H120.559V64.808H123.043V65.624H120.559V70.184H122.767V71H117.511V70.184ZM132.278 71L134.582 67.856L132.338 64.808H133.49L134.426 66.116L135.17 67.148H135.218L135.938 66.116L136.862 64.808H137.966L135.698 67.844L138.026 71H136.874L135.83 69.548L135.122 68.564H135.074L134.39 69.548L133.382 71H132.278ZM150.561 63.44C150.281 63.44 150.085 63.384 149.973 63.272C149.861 63.152 149.805 63.004 149.805 62.828V62.636C149.805 62.46 149.861 62.316 149.973 62.204C150.085 62.084 150.281 62.024 150.561 62.024C150.841 62.024 151.037 62.084 151.149 62.204C151.261 62.316 151.317 62.46 151.317 62.636V62.828C151.317 63.004 151.261 63.152 151.149 63.272C151.037 63.384 150.841 63.44 150.561 63.44ZM147.849 70.184H150.081V65.624H147.849V64.808H151.041V70.184H153.129V71H147.849V70.184ZM157.764 71.144C157.116 71.144 156.556 71.036 156.084 70.82C155.62 70.596 155.224 70.3 154.896 69.932L155.544 69.368C155.84 69.68 156.164 69.92 156.516 70.088C156.868 70.256 157.292 70.34 157.788 70.34C158.268 70.34 158.66 70.256 158.964 70.088C159.276 69.912 159.432 69.64 159.432 69.272C159.432 69.112 159.4 68.98 159.336 68.876C159.28 68.764 159.2 68.676 159.096 68.612C158.992 68.548 158.876 68.5 158.748 68.468C158.62 68.428 158.484 68.396 158.34 68.372L157.368 68.228C157.152 68.196 156.916 68.152 156.66 68.096C156.412 68.04 156.184 67.952 155.976 67.832C155.768 67.704 155.592 67.536 155.448 67.328C155.312 67.12 155.244 66.848 155.244 66.512C155.244 66.2 155.304 65.932 155.424 65.708C155.552 65.476 155.728 65.284 155.952 65.132C156.176 64.972 156.44 64.856 156.744 64.784C157.048 64.704 157.38 64.664 157.74 64.664C158.3 64.664 158.784 64.752 159.192 64.928C159.608 65.104 159.964 65.348 160.26 65.66L159.636 66.248C159.564 66.16 159.472 66.072 159.36 65.984C159.256 65.888 159.124 65.804 158.964 65.732C158.812 65.652 158.632 65.588 158.424 65.54C158.216 65.492 157.976 65.468 157.704 65.468C157.216 65.468 156.84 65.552 156.576 65.72C156.32 65.888 156.192 66.132 156.192 66.452C156.192 66.612 156.22 66.748 156.276 66.86C156.34 66.964 156.424 67.048 156.528 67.112C156.632 67.176 156.748 67.228 156.876 67.268C157.012 67.3 157.148 67.328 157.284 67.352L158.256 67.496C158.48 67.528 158.716 67.572 158.964 67.628C159.212 67.684 159.44 67.776 159.648 67.904C159.856 68.024 160.028 68.188 160.164 68.396C160.308 68.604 160.38 68.876 160.38 69.212C160.38 69.828 160.14 70.304 159.66 70.64C159.188 70.976 158.556 71.144 157.764 71.144ZM172.723 71.144C172.211 71.144 171.771 71.048 171.403 70.856C171.035 70.656 170.731 70.372 170.491 70.004C170.251 69.636 170.075 69.184 169.963 68.648C169.851 68.112 169.795 67.5 169.795 66.812C169.795 66.132 169.851 65.524 169.963 64.988C170.075 64.444 170.251 63.988 170.491 63.62C170.731 63.252 171.035 62.972 171.403 62.78C171.771 62.58 172.211 62.48 172.723 62.48C173.235 62.48 173.675 62.58 174.043 62.78C174.411 62.972 174.715 63.252 174.955 63.62C175.195 63.988 175.371 64.444 175.483 64.988C175.595 65.524 175.651 66.132 175.651 66.812C175.651 67.5 175.595 68.112 175.483 68.648C175.371 69.184 175.195 69.636 174.955 70.004C174.715 70.372 174.411 70.656 174.043 70.856C173.675 71.048 173.235 71.144 172.723 71.144ZM172.723 70.268C173.059 70.268 173.347 70.204 173.587 70.076C173.827 69.94 174.019 69.752 174.163 69.512C174.315 69.272 174.427 68.984 174.499 68.648C174.571 68.304 174.607 67.92 174.607 67.496V66.128C174.607 65.712 174.571 65.332 174.499 64.988C174.427 64.644 174.315 64.352 174.163 64.112C174.019 63.872 173.827 63.688 173.587 63.56C173.347 63.424 173.059 63.356 172.723 63.356C172.387 63.356 172.099 63.424 171.859 63.56C171.619 63.688 171.423 63.872 171.271 64.112C171.127 64.352 171.019 64.644 170.947 64.988C170.875 65.332 170.839 65.712 170.839 66.128V67.496C170.839 67.92 170.875 68.304 170.947 68.648C171.019 68.984 171.127 69.272 171.271 69.512C171.423 69.752 171.619 69.94 171.859 70.076C172.099 70.204 172.387 70.268 172.723 70.268ZM172.723 67.52C172.443 67.52 172.247 67.464 172.135 67.352C172.031 67.24 171.979 67.104 171.979 66.944V66.68C171.979 66.52 172.031 66.384 172.135 66.272C172.247 66.16 172.443 66.104 172.723 66.104C173.003 66.104 173.195 66.16 173.299 66.272C173.411 66.384 173.467 66.52 173.467 66.68V66.944C173.467 67.104 173.411 67.24 173.299 67.352C173.195 67.464 173.003 67.52 172.723 67.52ZM179.722 69.368H181.27L179.89 72.692H179.086L179.722 69.368ZM198.112 71H192.52V69.968L195.316 67.448C195.724 67.08 196.06 66.704 196.324 66.32C196.588 65.928 196.72 65.516 196.72 65.084V64.94C196.72 64.436 196.588 64.048 196.324 63.776C196.06 63.496 195.668 63.356 195.148 63.356C194.636 63.356 194.24 63.488 193.96 63.752C193.688 64.008 193.484 64.352 193.348 64.784L192.448 64.448C192.528 64.2 192.636 63.96 192.772 63.728C192.916 63.488 193.096 63.276 193.312 63.092C193.528 62.908 193.788 62.76 194.092 62.648C194.404 62.536 194.764 62.48 195.172 62.48C195.588 62.48 195.956 62.54 196.276 62.66C196.604 62.78 196.876 62.948 197.092 63.164C197.316 63.38 197.484 63.636 197.596 63.932C197.716 64.228 197.776 64.552 197.776 64.904C197.776 65.224 197.728 65.524 197.632 65.804C197.544 66.084 197.416 66.352 197.248 66.608C197.088 66.864 196.892 67.116 196.66 67.364C196.436 67.604 196.184 67.844 195.904 68.084L193.564 70.124H198.112V71ZM202.268 69.368H203.816L202.436 72.692H201.632L202.268 69.368ZM218.75 71V69.356H214.622V68.468L218.246 62.624H219.71V68.528H220.958V69.356H219.71V71H218.75ZM215.522 68.528H218.75V63.404H218.702L215.522 68.528ZM224.814 69.368H226.362L224.982 72.692H224.178L224.814 69.368ZM240.372 71.144C239.932 71.144 239.536 71.072 239.184 70.928C238.832 70.776 238.532 70.564 238.284 70.292C238.044 70.012 237.856 69.672 237.72 69.272C237.592 68.872 237.528 68.424 237.528 67.928C237.528 67.304 237.62 66.72 237.804 66.176C237.996 65.624 238.236 65.124 238.524 64.676C238.82 64.22 239.148 63.82 239.508 63.476C239.868 63.124 240.22 62.84 240.564 62.624H241.86C241.404 62.952 240.996 63.272 240.636 63.584C240.284 63.896 239.972 64.224 239.7 64.568C239.428 64.904 239.2 65.268 239.016 65.66C238.832 66.044 238.68 66.48 238.56 66.968L238.62 66.992C238.82 66.648 239.084 66.364 239.412 66.14C239.74 65.908 240.164 65.792 240.684 65.792C241.052 65.792 241.388 65.852 241.692 65.972C241.996 66.092 242.26 66.264 242.484 66.488C242.708 66.712 242.88 66.984 243 67.304C243.128 67.624 243.192 67.98 243.192 68.372C243.192 68.78 243.124 69.156 242.988 69.5C242.852 69.836 242.66 70.128 242.412 70.376C242.172 70.616 241.876 70.804 241.524 70.94C241.18 71.076 240.796 71.144 240.372 71.144ZM240.36 70.292C240.936 70.292 241.38 70.136 241.692 69.824C242.012 69.512 242.172 69.072 242.172 68.504V68.408C242.172 67.84 242.012 67.4 241.692 67.088C241.38 66.776 240.936 66.62 240.36 66.62C239.784 66.62 239.336 66.776 239.016 67.088C238.704 67.4 238.548 67.84 238.548 68.408V68.504C238.548 69.072 238.704 69.512 239.016 69.824C239.336 70.136 239.784 70.292 240.36 70.292ZM255.391 71.144C254.959 71.144 254.567 71.068 254.215 70.916C253.871 70.764 253.575 70.548 253.327 70.268C253.087 69.98 252.903 69.64 252.775 69.248C252.647 68.848 252.583 68.4 252.583 67.904C252.583 67.416 252.647 66.972 252.775 66.572C252.903 66.172 253.087 65.832 253.327 65.552C253.575 65.264 253.871 65.044 254.215 64.892C254.567 64.74 254.959 64.664 255.391 64.664C255.823 64.664 256.211 64.74 256.555 64.892C256.907 65.044 257.203 65.264 257.443 65.552C257.691 65.832 257.879 66.172 258.007 66.572C258.135 66.972 258.199 67.416 258.199 67.904C258.199 68.4 258.135 68.848 258.007 69.248C257.879 69.64 257.691 69.98 257.443 70.268C257.203 70.548 256.907 70.764 256.555 70.916C256.211 71.068 255.823 71.144 255.391 71.144ZM255.391 70.316C255.927 70.316 256.359 70.156 256.687 69.836C257.015 69.516 257.179 69.02 257.179 68.348V67.46C257.179 66.788 257.015 66.292 256.687 65.972C256.359 65.652 255.927 65.492 255.391 65.492C254.855 65.492 254.423 65.652 254.095 65.972C253.767 66.292 253.603 66.788 253.603 67.46V68.348C253.603 69.02 253.767 69.516 254.095 69.836C254.423 70.156 254.855 70.316 255.391 70.316ZM260.23 70.184H262.042V65.624H260.23V64.808H263.002V66.368H263.062C263.19 65.88 263.43 65.5 263.782 65.228C264.142 64.948 264.598 64.808 265.15 64.808H266.014V65.768H264.85C264.298 65.768 263.85 65.928 263.506 66.248C263.17 66.568 263.002 66.988 263.002 67.508V70.184H265.402V71H260.23V70.184ZM277.937 71.144C277.449 71.144 277.021 71.084 276.653 70.964C276.285 70.836 275.977 70.664 275.729 70.448C275.489 70.232 275.305 69.976 275.177 69.68C275.057 69.384 274.997 69.064 274.997 68.72C274.997 68.144 275.153 67.688 275.465 67.352C275.777 67.016 276.189 66.78 276.701 66.644V66.548C276.253 66.396 275.897 66.152 275.633 65.816C275.377 65.472 275.249 65.06 275.249 64.58C275.249 63.94 275.485 63.432 275.957 63.056C276.429 62.672 277.089 62.48 277.937 62.48C278.785 62.48 279.445 62.672 279.917 63.056C280.389 63.432 280.625 63.94 280.625 64.58C280.625 65.06 280.493 65.472 280.229 65.816C279.973 66.152 279.621 66.396 279.173 66.548V66.644C279.685 66.78 280.097 67.016 280.409 67.352C280.721 67.688 280.877 68.144 280.877 68.72C280.877 69.064 280.813 69.384 280.685 69.68C280.565 69.976 280.381 70.232 280.133 70.448C279.885 70.664 279.577 70.836 279.209 70.964C278.849 71.084 278.425 71.144 277.937 71.144ZM277.937 70.292C278.529 70.292 278.993 70.16 279.329 69.896C279.665 69.632 279.833 69.26 279.833 68.78V68.516C279.833 68.036 279.665 67.664 279.329 67.4C279.001 67.136 278.537 67.004 277.937 67.004C277.337 67.004 276.869 67.136 276.533 67.4C276.205 67.664 276.041 68.036 276.041 68.516V68.78C276.041 69.26 276.209 69.632 276.545 69.896C276.881 70.16 277.345 70.292 277.937 70.292ZM277.937 66.188C278.481 66.188 278.893 66.072 279.173 65.84C279.461 65.608 279.605 65.276 279.605 64.844V64.676C279.605 64.244 279.457 63.912 279.161 63.68C278.873 63.448 278.465 63.332 277.937 63.332C277.409 63.332 276.997 63.448 276.701 63.68C276.413 63.912 276.269 64.244 276.269 64.676V64.844C276.269 65.276 276.409 65.608 276.689 65.84C276.977 66.072 277.393 66.188 277.937 66.188ZM285.452 71.108C285.124 71.108 284.892 71.04 284.756 70.904C284.628 70.768 284.564 70.596 284.564 70.388V70.172C284.564 69.964 284.628 69.792 284.756 69.656C284.892 69.52 285.124 69.452 285.452 69.452C285.78 69.452 286.008 69.52 286.136 69.656C286.272 69.792 286.34 69.964 286.34 70.172V70.388C286.34 70.596 286.272 70.768 286.136 70.904C286.008 71.04 285.78 71.108 285.452 71.108ZM285.452 66.356C285.124 66.356 284.892 66.288 284.756 66.152C284.628 66.016 284.564 65.844 284.564 65.636V65.42C284.564 65.212 284.628 65.04 284.756 64.904C284.892 64.768 285.124 64.7 285.452 64.7C285.78 64.7 286.008 64.768 286.136 64.904C286.272 65.04 286.34 65.212 286.34 65.42V65.636C286.34 65.844 286.272 66.016 286.136 66.152C286.008 66.288 285.78 66.356 285.452 66.356ZM142.661 87.144C142.229 87.144 141.837 87.068 141.485 86.916C141.141 86.764 140.845 86.548 140.597 86.268C140.357 85.98 140.173 85.64 140.045 85.248C139.917 84.848 139.853 84.4 139.853 83.904C139.853 83.416 139.917 82.972 140.045 82.572C140.173 82.172 140.357 81.832 140.597 81.552C140.845 81.264 141.141 81.044 141.485 80.892C141.837 80.74 142.229 80.664 142.661 80.664C143.093 80.664 143.481 80.74 143.825 80.892C144.177 81.044 144.473 81.264 144.713 81.552C144.961 81.832 145.149 82.172 145.277 82.572C145.405 82.972 145.469 83.416 145.469 83.904C145.469 84.4 145.405 84.848 145.277 85.248C145.149 85.64 144.961 85.98 144.713 86.268C144.473 86.548 144.177 86.764 143.825 86.916C143.481 87.068 143.093 87.144 142.661 87.144ZM142.661 86.316C143.197 86.316 143.629 86.156 143.957 85.836C144.285 85.516 144.449 85.02 144.449 84.348V83.46C144.449 82.788 144.285 82.292 143.957 81.972C143.629 81.652 143.197 81.492 142.661 81.492C142.125 81.492 141.693 81.652 141.365 81.972C141.037 82.292 140.873 82.788 140.873 83.46V84.348C140.873 85.02 141.037 85.516 141.365 85.836C141.693 86.156 142.125 86.316 142.661 86.316ZM151.641 85.992H151.593C151.529 86.144 151.449 86.292 151.353 86.436C151.257 86.572 151.137 86.692 150.993 86.796C150.857 86.9 150.693 86.984 150.501 87.048C150.309 87.112 150.085 87.144 149.829 87.144C149.181 87.144 148.661 86.94 148.269 86.532C147.877 86.116 147.681 85.532 147.681 84.78V80.808H148.641V84.612C148.641 85.18 148.765 85.604 149.013 85.884C149.261 86.156 149.625 86.292 150.105 86.292C150.297 86.292 150.485 86.268 150.669 86.22C150.853 86.172 151.017 86.1 151.161 86.004C151.305 85.908 151.421 85.788 151.509 85.644C151.597 85.492 151.641 85.312 151.641 85.104V80.808H152.601V87H151.641V85.992ZM157.992 87C157.52 87 157.172 86.868 156.948 86.604C156.732 86.34 156.624 86 156.624 85.584V81.624H154.56V80.808H156.096C156.304 80.808 156.448 80.768 156.528 80.688C156.616 80.6 156.66 80.452 156.66 80.244V78.624H157.584V80.808H160.404V81.624H157.584V86.184H160.404V87H157.992ZM162.747 80.808H163.707V81.816H163.755C164.155 81.048 164.791 80.664 165.663 80.664C166.423 80.664 167.015 80.948 167.439 81.516C167.871 82.084 168.087 82.88 168.087 83.904C168.087 84.928 167.871 85.724 167.439 86.292C167.015 86.86 166.423 87.144 165.663 87.144C164.791 87.144 164.155 86.76 163.755 85.992H163.707V89.4H162.747V80.808ZM165.291 86.292C165.851 86.292 166.283 86.124 166.587 85.788C166.899 85.444 167.055 84.992 167.055 84.432V83.376C167.055 82.816 166.899 82.368 166.587 82.032C166.283 81.688 165.851 81.516 165.291 81.516C165.075 81.516 164.871 81.544 164.679 81.6C164.487 81.656 164.319 81.74 164.175 81.852C164.031 81.956 163.915 82.088 163.827 82.248C163.747 82.4 163.707 82.58 163.707 82.788V85.02C163.707 85.228 163.747 85.412 163.827 85.572C163.915 85.724 164.031 85.856 164.175 85.968C164.319 86.072 164.487 86.152 164.679 86.208C164.871 86.264 165.075 86.292 165.291 86.292ZM174.187 85.992H174.139C174.075 86.144 173.995 86.292 173.899 86.436C173.803 86.572 173.683 86.692 173.539 86.796C173.403 86.9 173.239 86.984 173.047 87.048C172.855 87.112 172.631 87.144 172.375 87.144C171.727 87.144 171.207 86.94 170.815 86.532C170.423 86.116 170.227 85.532 170.227 84.78V80.808H171.187V84.612C171.187 85.18 171.311 85.604 171.559 85.884C171.807 86.156 172.171 86.292 172.651 86.292C172.843 86.292 173.031 86.268 173.215 86.22C173.399 86.172 173.563 86.1 173.707 86.004C173.851 85.908 173.967 85.788 174.055 85.644C174.143 85.492 174.187 85.312 174.187 85.104V80.808H175.147V87H174.187V85.992ZM180.538 87C180.066 87 179.718 86.868 179.494 86.604C179.278 86.34 179.17 86 179.17 85.584V81.624H177.106V80.808H178.642C178.85 80.808 178.994 80.768 179.074 80.688C179.162 80.6 179.206 80.452 179.206 80.244V78.624H180.13V80.808H182.95V81.624H180.13V86.184H182.95V87H180.538ZM192.748 87V78.624H197.908V79.5H193.756V82.32H197.764V83.196H193.756V86.124H197.908V87H192.748ZM202.172 87L199.952 80.808H200.924L201.812 83.4L202.772 86.196H202.82L203.78 83.4L204.668 80.808H205.616L203.396 87H202.172ZM210.407 87.144C209.959 87.144 209.555 87.068 209.195 86.916C208.843 86.764 208.539 86.548 208.283 86.268C208.035 85.98 207.843 85.64 207.707 85.248C207.571 84.848 207.503 84.404 207.503 83.916C207.503 83.42 207.571 82.972 207.707 82.572C207.851 82.172 208.047 81.832 208.295 81.552C208.543 81.264 208.839 81.044 209.183 80.892C209.535 80.74 209.923 80.664 210.347 80.664C210.763 80.664 211.139 80.74 211.475 80.892C211.819 81.044 212.111 81.256 212.351 81.528C212.591 81.792 212.775 82.108 212.903 82.476C213.031 82.844 213.095 83.248 213.095 83.688V84.144H208.511V84.432C208.511 84.704 208.555 84.956 208.643 85.188C208.731 85.42 208.855 85.62 209.015 85.788C209.183 85.956 209.383 86.088 209.615 86.184C209.855 86.272 210.119 86.316 210.407 86.316C210.823 86.316 211.183 86.22 211.487 86.028C211.791 85.836 212.023 85.572 212.183 85.236L212.891 85.716C212.707 86.132 212.399 86.476 211.967 86.748C211.543 87.012 211.023 87.144 210.407 87.144ZM210.347 81.456C210.083 81.456 209.839 81.504 209.615 81.6C209.391 81.696 209.195 81.828 209.027 81.996C208.867 82.164 208.739 82.364 208.643 82.596C208.555 82.82 208.511 83.068 208.511 83.34V83.424H212.063V83.292C212.063 83.02 212.019 82.772 211.931 82.548C211.851 82.324 211.735 82.132 211.583 81.972C211.439 81.804 211.259 81.676 211.043 81.588C210.835 81.5 210.603 81.456 210.347 81.456ZM215.39 87V80.808H216.35V81.816H216.398C216.462 81.664 216.542 81.52 216.638 81.384C216.734 81.24 216.85 81.116 216.986 81.012C217.13 80.908 217.298 80.824 217.49 80.76C217.682 80.696 217.906 80.664 218.162 80.664C218.81 80.664 219.33 80.872 219.722 81.288C220.114 81.696 220.31 82.276 220.31 83.028V87H219.35V83.196C219.35 82.628 219.226 82.208 218.978 81.936C218.73 81.656 218.366 81.516 217.886 81.516C217.694 81.516 217.506 81.54 217.322 81.588C217.138 81.636 216.974 81.708 216.83 81.804C216.686 81.9 216.57 82.024 216.482 82.176C216.394 82.328 216.35 82.504 216.35 82.704V87H215.39ZM112.708 103.144C112.26 103.144 111.856 103.068 111.496 102.916C111.144 102.764 110.84 102.548 110.584 102.268C110.336 101.98 110.144 101.64 110.008 101.248C109.872 100.848 109.804 100.404 109.804 99.916C109.804 99.42 109.872 98.972 110.008 98.572C110.152 98.172 110.348 97.832 110.596 97.552C110.844 97.264 111.14 97.044 111.484 96.892C111.836 96.74 112.224 96.664 112.648 96.664C113.064 96.664 113.44 96.74 113.776 96.892C114.12 97.044 114.412 97.256 114.652 97.528C114.892 97.792 115.076 98.108 115.204 98.476C115.332 98.844 115.396 99.248 115.396 99.688V100.144H110.812V100.432C110.812 100.704 110.856 100.956 110.944 101.188C111.032 101.42 111.156 101.62 111.316 101.788C111.484 101.956 111.684 102.088 111.916 102.184C112.156 102.272 112.42 102.316 112.708 102.316C113.124 102.316 113.484 102.22 113.788 102.028C114.092 101.836 114.324 101.572 114.484 101.236L115.192 101.716C115.008 102.132 114.7 102.476 114.268 102.748C113.844 103.012 113.324 103.144 112.708 103.144ZM112.648 97.456C112.384 97.456 112.14 97.504 111.916 97.6C111.692 97.696 111.496 97.828 111.328 97.996C111.168 98.164 111.04 98.364 110.944 98.596C110.856 98.82 110.812 99.068 110.812 99.34V99.424H114.364V99.292C114.364 99.02 114.32 98.772 114.232 98.548C114.152 98.324 114.036 98.132 113.884 97.972C113.74 97.804 113.56 97.676 113.344 97.588C113.136 97.5 112.904 97.456 112.648 97.456ZM117.475 102.184H119.635V94.936H117.475V94.12H120.595V102.184H122.755V103H117.475V102.184ZM127.703 103.144C127.055 103.144 126.495 103.036 126.023 102.82C125.559 102.596 125.163 102.3 124.835 101.932L125.483 101.368C125.779 101.68 126.103 101.92 126.455 102.088C126.807 102.256 127.231 102.34 127.727 102.34C128.207 102.34 128.599 102.256 128.903 102.088C129.215 101.912 129.371 101.64 129.371 101.272C129.371 101.112 129.339 100.98 129.275 100.876C129.219 100.764 129.139 100.676 129.035 100.612C128.931 100.548 128.815 100.5 128.687 100.468C128.559 100.428 128.423 100.396 128.279 100.372L127.307 100.228C127.091 100.196 126.855 100.152 126.599 100.096C126.351 100.04 126.123 99.952 125.915 99.832C125.707 99.704 125.531 99.536 125.387 99.328C125.251 99.12 125.183 98.848 125.183 98.512C125.183 98.2 125.243 97.932 125.363 97.708C125.491 97.476 125.667 97.284 125.891 97.132C126.115 96.972 126.379 96.856 126.683 96.784C126.987 96.704 127.319 96.664 127.679 96.664C128.239 96.664 128.723 96.752 129.131 96.928C129.547 97.104 129.903 97.348 130.199 97.66L129.575 98.248C129.503 98.16 129.411 98.072 129.299 97.984C129.195 97.888 129.063 97.804 128.903 97.732C128.751 97.652 128.571 97.588 128.363 97.54C128.155 97.492 127.915 97.468 127.643 97.468C127.155 97.468 126.779 97.552 126.515 97.72C126.259 97.888 126.131 98.132 126.131 98.452C126.131 98.612 126.159 98.748 126.215 98.86C126.279 98.964 126.363 99.048 126.467 99.112C126.571 99.176 126.687 99.228 126.815 99.268C126.951 99.3 127.087 99.328 127.223 99.352L128.195 99.496C128.419 99.528 128.655 99.572 128.903 99.628C129.151 99.684 129.379 99.776 129.587 99.904C129.795 100.024 129.967 100.188 130.103 100.396C130.247 100.604 130.319 100.876 130.319 101.212C130.319 101.828 130.079 102.304 129.599 102.64C129.127 102.976 128.495 103.144 127.703 103.144ZM135.254 103.144C134.806 103.144 134.402 103.068 134.042 102.916C133.69 102.764 133.386 102.548 133.13 102.268C132.882 101.98 132.69 101.64 132.554 101.248C132.418 100.848 132.35 100.404 132.35 99.916C132.35 99.42 132.418 98.972 132.554 98.572C132.698 98.172 132.894 97.832 133.142 97.552C133.39 97.264 133.686 97.044 134.03 96.892C134.382 96.74 134.77 96.664 135.194 96.664C135.61 96.664 135.986 96.74 136.322 96.892C136.666 97.044 136.958 97.256 137.198 97.528C137.438 97.792 137.622 98.108 137.75 98.476C137.878 98.844 137.942 99.248 137.942 99.688V100.144H133.358V100.432C133.358 100.704 133.402 100.956 133.49 101.188C133.578 101.42 133.702 101.62 133.862 101.788C134.03 101.956 134.23 102.088 134.462 102.184C134.702 102.272 134.966 102.316 135.254 102.316C135.67 102.316 136.03 102.22 136.334 102.028C136.638 101.836 136.87 101.572 137.03 101.236L137.738 101.716C137.554 102.132 137.246 102.476 136.814 102.748C136.39 103.012 135.87 103.144 135.254 103.144ZM135.194 97.456C134.93 97.456 134.686 97.504 134.462 97.6C134.238 97.696 134.042 97.828 133.874 97.996C133.714 98.164 133.586 98.364 133.49 98.596C133.402 98.82 133.358 99.068 133.358 99.34V99.424H136.91V99.292C136.91 99.02 136.866 98.772 136.778 98.548C136.698 98.324 136.582 98.132 136.43 97.972C136.286 97.804 136.106 97.676 135.89 97.588C135.682 97.5 135.45 97.456 135.194 97.456ZM142.661 103.108C142.333 103.108 142.101 103.04 141.965 102.904C141.837 102.768 141.773 102.596 141.773 102.388V102.172C141.773 101.964 141.837 101.792 141.965 101.656C142.101 101.52 142.333 101.452 142.661 101.452C142.989 101.452 143.217 101.52 143.345 101.656C143.481 101.792 143.549 101.964 143.549 102.172V102.388C143.549 102.596 143.481 102.768 143.345 102.904C143.217 103.04 142.989 103.108 142.661 103.108ZM142.661 98.356C142.333 98.356 142.101 98.288 141.965 98.152C141.837 98.016 141.773 97.844 141.773 97.636V97.42C141.773 97.212 141.837 97.04 141.965 96.904C142.101 96.768 142.333 96.7 142.661 96.7C142.989 96.7 143.217 96.768 143.345 96.904C143.481 97.04 143.549 97.212 143.549 97.42V97.636C143.549 97.844 143.481 98.016 143.345 98.152C143.217 98.288 142.989 98.356 142.661 98.356ZM142.661 119.144C142.229 119.144 141.837 119.068 141.485 118.916C141.141 118.764 140.845 118.548 140.597 118.268C140.357 117.98 140.173 117.64 140.045 117.248C139.917 116.848 139.853 116.4 139.853 115.904C139.853 115.416 139.917 114.972 140.045 114.572C140.173 114.172 140.357 113.832 140.597 113.552C140.845 113.264 141.141 113.044 141.485 112.892C141.837 112.74 142.229 112.664 142.661 112.664C143.093 112.664 143.481 112.74 143.825 112.892C144.177 113.044 144.473 113.264 144.713 113.552C144.961 113.832 145.149 114.172 145.277 114.572C145.405 114.972 145.469 115.416 145.469 115.904C145.469 116.4 145.405 116.848 145.277 117.248C145.149 117.64 144.961 117.98 144.713 118.268C144.473 118.548 144.177 118.764 143.825 118.916C143.481 119.068 143.093 119.144 142.661 119.144ZM142.661 118.316C143.197 118.316 143.629 118.156 143.957 117.836C144.285 117.516 144.449 117.02 144.449 116.348V115.46C144.449 114.788 144.285 114.292 143.957 113.972C143.629 113.652 143.197 113.492 142.661 113.492C142.125 113.492 141.693 113.652 141.365 113.972C141.037 114.292 140.873 114.788 140.873 115.46V116.348C140.873 117.02 141.037 117.516 141.365 117.836C141.693 118.156 142.125 118.316 142.661 118.316ZM151.641 117.992H151.593C151.529 118.144 151.449 118.292 151.353 118.436C151.257 118.572 151.137 118.692 150.993 118.796C150.857 118.9 150.693 118.984 150.501 119.048C150.309 119.112 150.085 119.144 149.829 119.144C149.181 119.144 148.661 118.94 148.269 118.532C147.877 118.116 147.681 117.532 147.681 116.78V112.808H148.641V116.612C148.641 117.18 148.765 117.604 149.013 117.884C149.261 118.156 149.625 118.292 150.105 118.292C150.297 118.292 150.485 118.268 150.669 118.22C150.853 118.172 151.017 118.1 151.161 118.004C151.305 117.908 151.421 117.788 151.509 117.644C151.597 117.492 151.641 117.312 151.641 117.104V112.808H152.601V119H151.641V117.992ZM157.992 119C157.52 119 157.172 118.868 156.948 118.604C156.732 118.34 156.624 118 156.624 117.584V113.624H154.56V112.808H156.096C156.304 112.808 156.448 112.768 156.528 112.688C156.616 112.6 156.66 112.452 156.66 112.244V110.624H157.584V112.808H160.404V113.624H157.584V118.184H160.404V119H157.992ZM162.747 112.808H163.707V113.816H163.755C164.155 113.048 164.791 112.664 165.663 112.664C166.423 112.664 167.015 112.948 167.439 113.516C167.871 114.084 168.087 114.88 168.087 115.904C168.087 116.928 167.871 117.724 167.439 118.292C167.015 118.86 166.423 119.144 165.663 119.144C164.791 119.144 164.155 118.76 163.755 117.992H163.707V121.4H162.747V112.808ZM165.291 118.292C165.851 118.292 166.283 118.124 166.587 117.788C166.899 117.444 167.055 116.992 167.055 116.432V115.376C167.055 114.816 166.899 114.368 166.587 114.032C166.283 113.688 165.851 113.516 165.291 113.516C165.075 113.516 164.871 113.544 164.679 113.6C164.487 113.656 164.319 113.74 164.175 113.852C164.031 113.956 163.915 114.088 163.827 114.248C163.747 114.4 163.707 114.58 163.707 114.788V117.02C163.707 117.228 163.747 117.412 163.827 117.572C163.915 117.724 164.031 117.856 164.175 117.968C164.319 118.072 164.487 118.152 164.679 118.208C164.871 118.264 165.075 118.292 165.291 118.292ZM174.187 117.992H174.139C174.075 118.144 173.995 118.292 173.899 118.436C173.803 118.572 173.683 118.692 173.539 118.796C173.403 118.9 173.239 118.984 173.047 119.048C172.855 119.112 172.631 119.144 172.375 119.144C171.727 119.144 171.207 118.94 170.815 118.532C170.423 118.116 170.227 117.532 170.227 116.78V112.808H171.187V116.612C171.187 117.18 171.311 117.604 171.559 117.884C171.807 118.156 172.171 118.292 172.651 118.292C172.843 118.292 173.031 118.268 173.215 118.22C173.399 118.172 173.563 118.1 173.707 118.004C173.851 117.908 173.967 117.788 174.055 117.644C174.143 117.492 174.187 117.312 174.187 117.104V112.808H175.147V119H174.187V117.992ZM180.538 119C180.066 119 179.718 118.868 179.494 118.604C179.278 118.34 179.17 118 179.17 117.584V113.624H177.106V112.808H178.642C178.85 112.808 178.994 112.768 179.074 112.688C179.162 112.6 179.206 112.452 179.206 112.244V110.624H180.13V112.808H182.95V113.624H180.13V118.184H182.95V119H180.538ZM195.268 119.144C194.756 119.144 194.316 119.048 193.948 118.856C193.58 118.656 193.276 118.372 193.036 118.004C192.796 117.636 192.62 117.184 192.508 116.648C192.396 116.112 192.34 115.5 192.34 114.812C192.34 114.132 192.396 113.524 192.508 112.988C192.62 112.444 192.796 111.988 193.036 111.62C193.276 111.252 193.58 110.972 193.948 110.78C194.316 110.58 194.756 110.48 195.268 110.48C195.78 110.48 196.22 110.58 196.588 110.78C196.956 110.972 197.26 111.252 197.5 111.62C197.74 111.988 197.916 112.444 198.028 112.988C198.14 113.524 198.196 114.132 198.196 114.812C198.196 115.5 198.14 116.112 198.028 116.648C197.916 117.184 197.74 117.636 197.5 118.004C197.26 118.372 196.956 118.656 196.588 118.856C196.22 119.048 195.78 119.144 195.268 119.144ZM195.268 118.268C195.604 118.268 195.888 118.204 196.12 118.076C196.352 117.94 196.544 117.752 196.696 117.512C196.848 117.272 196.956 116.984 197.02 116.648C197.092 116.304 197.128 115.92 197.128 115.496V114.128C197.128 113.712 197.092 113.332 197.02 112.988C196.956 112.644 196.848 112.352 196.696 112.112C196.544 111.872 196.352 111.688 196.12 111.56C195.888 111.424 195.604 111.356 195.268 111.356C194.932 111.356 194.648 111.424 194.416 111.56C194.184 111.688 193.992 111.872 193.84 112.112C193.688 112.352 193.576 112.644 193.504 112.988C193.44 113.332 193.408 113.712 193.408 114.128V115.496C193.408 115.92 193.44 116.304 193.504 116.648C193.576 116.984 193.688 117.272 193.84 117.512C193.992 117.752 194.184 117.94 194.416 118.076C194.648 118.204 194.932 118.268 195.268 118.268ZM204.284 117.992H204.236C203.836 118.76 203.2 119.144 202.328 119.144C201.568 119.144 200.972 118.86 200.54 118.292C200.116 117.724 199.904 116.928 199.904 115.904C199.904 114.88 200.116 114.084 200.54 113.516C200.972 112.948 201.568 112.664 202.328 112.664C203.2 112.664 203.836 113.048 204.236 113.816H204.284V110.12H205.244V119H204.284V117.992ZM202.7 118.292C202.916 118.292 203.12 118.264 203.312 118.208C203.504 118.152 203.672 118.072 203.816 117.968C203.96 117.856 204.072 117.724 204.152 117.572C204.24 117.412 204.284 117.228 204.284 117.02V114.788C204.284 114.58 204.24 114.4 204.152 114.248C204.072 114.088 203.96 113.956 203.816 113.852C203.672 113.74 203.504 113.656 203.312 113.6C203.12 113.544 202.916 113.516 202.7 113.516C202.14 113.516 201.704 113.688 201.392 114.032C201.088 114.368 200.936 114.816 200.936 115.376V116.432C200.936 116.992 201.088 117.444 201.392 117.788C201.704 118.124 202.14 118.292 202.7 118.292ZM211.799 117.992H211.751C211.351 118.76 210.715 119.144 209.843 119.144C209.083 119.144 208.487 118.86 208.055 118.292C207.631 117.724 207.419 116.928 207.419 115.904C207.419 114.88 207.631 114.084 208.055 113.516C208.487 112.948 209.083 112.664 209.843 112.664C210.715 112.664 211.351 113.048 211.751 113.816H211.799V110.12H212.759V119H211.799V117.992ZM210.215 118.292C210.431 118.292 210.635 118.264 210.827 118.208C211.019 118.152 211.187 118.072 211.331 117.968C211.475 117.856 211.587 117.724 211.667 117.572C211.755 117.412 211.799 117.228 211.799 117.02V114.788C211.799 114.58 211.755 114.4 211.667 114.248C211.587 114.088 211.475 113.956 211.331 113.852C211.187 113.74 211.019 113.656 210.827 113.6C210.635 113.544 210.431 113.516 210.215 113.516C209.655 113.516 209.219 113.688 208.907 114.032C208.603 114.368 208.451 114.816 208.451 115.376V116.432C208.451 116.992 208.603 117.444 208.907 117.788C209.219 118.124 209.655 118.292 210.215 118.292Z" fill="#121619"/>
<path d="M8.742 18V16.516H10.03V9.712H8.742V8.228H13.18V9.712H11.878V16.516H13.18V18H8.742ZM15.1159 18V10.692H16.9079V11.91H16.9779C17.1273 11.518 17.3606 11.1913 17.6779 10.93C18.0046 10.6593 18.4526 10.524 19.0219 10.524C19.7779 10.524 20.3566 10.7713 20.7579 11.266C21.1593 11.7607 21.3599 12.4653 21.3599 13.38V18H19.5679V13.562C19.5679 13.0393 19.4746 12.6473 19.2879 12.386C19.1013 12.1247 18.7933 11.994 18.3639 11.994C18.1773 11.994 17.9953 12.022 17.8179 12.078C17.6499 12.1247 17.4959 12.1993 17.3559 12.302C17.2253 12.3953 17.1179 12.5167 17.0339 12.666C16.9499 12.806 16.9079 12.974 16.9079 13.17V18H15.1159ZM23.5064 10.692H25.2984V11.896H25.3544C25.4851 11.476 25.7324 11.1447 26.0964 10.902C26.4604 10.65 26.8851 10.524 27.3704 10.524C28.3037 10.524 29.0131 10.8553 29.4984 11.518C29.9931 12.1713 30.2404 13.1093 30.2404 14.332C30.2404 15.564 29.9931 16.5113 29.4984 17.174C29.0131 17.8367 28.3037 18.168 27.3704 18.168C26.8851 18.168 26.4604 18.042 26.0964 17.79C25.7417 17.538 25.4944 17.202 25.3544 16.782H25.2984V20.8H23.5064V10.692ZM26.7964 16.684C27.2631 16.684 27.6411 16.53 27.9304 16.222C28.2197 15.914 28.3644 15.4987 28.3644 14.976V13.716C28.3644 13.1933 28.2197 12.778 27.9304 12.47C27.6411 12.1527 27.2631 11.994 26.7964 11.994C26.3671 11.994 26.0077 12.1013 25.7184 12.316C25.4384 12.5307 25.2984 12.8153 25.2984 13.17V15.494C25.2984 15.8767 25.4384 16.1707 25.7184 16.376C26.0077 16.5813 26.3671 16.684 26.7964 16.684ZM36.4289 16.782H36.3589C36.2936 16.9687 36.2049 17.146 36.0929 17.314C35.9903 17.4727 35.8549 17.6173 35.6869 17.748C35.5283 17.8787 35.3323 17.9813 35.0989 18.056C34.8749 18.1307 34.6136 18.168 34.3149 18.168C33.5589 18.168 32.9803 17.9207 32.5789 17.426C32.1776 16.9313 31.9769 16.2267 31.9769 15.312V10.692H33.7689V15.13C33.7689 15.634 33.8669 16.0213 34.0629 16.292C34.2589 16.5533 34.5716 16.684 35.0009 16.684C35.1783 16.684 35.3509 16.6607 35.5189 16.614C35.6963 16.5673 35.8503 16.4973 35.9809 16.404C36.1116 16.3013 36.2189 16.18 36.3029 16.04C36.3869 15.8907 36.4289 15.718 36.4289 15.522V10.692H38.2209V18H36.4289V16.782ZM42.7334 18C42.1174 18 41.6461 17.8413 41.3194 17.524C41.0021 17.1973 40.8434 16.7353 40.8434 16.138V12.12H39.7654V10.692H40.3254C40.5961 10.692 40.7781 10.6313 40.8714 10.51C40.9741 10.3793 41.0254 10.188 41.0254 9.936V8.69H42.6354V10.692H44.1334V12.12H42.6354V16.572H44.0214V18H42.7334Z" fill="#343A3F"/>
<path d="M397.984 18.168C397.34 18.168 396.757 18.0607 396.234 17.846C395.711 17.6313 395.263 17.3093 394.89 16.88C394.526 16.4507 394.241 15.9233 394.036 15.298C393.831 14.6727 393.728 13.9447 393.728 13.114C393.728 12.2927 393.831 11.5693 394.036 10.944C394.241 10.3093 394.526 9.77733 394.89 9.348C395.263 8.91867 395.711 8.59667 396.234 8.382C396.757 8.16733 397.34 8.06 397.984 8.06C398.628 8.06 399.211 8.16733 399.734 8.382C400.257 8.59667 400.705 8.91867 401.078 9.348C401.451 9.77733 401.736 10.3093 401.932 10.944C402.137 11.5693 402.24 12.2927 402.24 13.114C402.24 13.9447 402.137 14.6727 401.932 15.298C401.736 15.9233 401.451 16.4507 401.078 16.88C400.705 17.3093 400.257 17.6313 399.734 17.846C399.211 18.0607 398.628 18.168 397.984 18.168ZM397.984 16.53C398.684 16.53 399.239 16.2967 399.65 15.83C400.07 15.3633 400.28 14.71 400.28 13.87V12.358C400.28 11.518 400.07 10.8647 399.65 10.398C399.239 9.93133 398.684 9.698 397.984 9.698C397.284 9.698 396.724 9.93133 396.304 10.398C395.893 10.8647 395.688 11.518 395.688 12.358V13.87C395.688 14.71 395.893 15.3633 396.304 15.83C396.724 16.2967 397.284 16.53 397.984 16.53ZM408.531 16.782H408.461C408.395 16.9687 408.307 17.146 408.195 17.314C408.092 17.4727 407.957 17.6173 407.789 17.748C407.63 17.8787 407.434 17.9813 407.201 18.056C406.977 18.1307 406.715 18.168 406.417 18.168C405.661 18.168 405.082 17.9207 404.681 17.426C404.279 16.9313 404.079 16.2267 404.079 15.312V10.692H405.871V15.13C405.871 15.634 405.969 16.0213 406.165 16.292C406.361 16.5533 406.673 16.684 407.103 16.684C407.28 16.684 407.453 16.6607 407.621 16.614C407.798 16.5673 407.952 16.4973 408.083 16.404C408.213 16.3013 408.321 16.18 408.405 16.04C408.489 15.8907 408.531 15.718 408.531 15.522V10.692H410.323V18H408.531V16.782ZM414.835 18C414.219 18 413.748 17.8413 413.421 17.524C413.104 17.1973 412.945 16.7353 412.945 16.138V12.12H411.867V10.692H412.427C412.698 10.692 412.88 10.6313 412.973 10.51C413.076 10.3793 413.127 10.188 413.127 9.936V8.69H414.737V10.692H416.235V12.12H414.737V16.572H416.123V18H414.835ZM417.95 10.692H419.742V11.896H419.798C419.928 11.476 420.176 11.1447 420.54 10.902C420.904 10.65 421.328 10.524 421.814 10.524C422.747 10.524 423.456 10.8553 423.942 11.518C424.436 12.1713 424.684 13.1093 424.684 14.332C424.684 15.564 424.436 16.5113 423.942 17.174C423.456 17.8367 422.747 18.168 421.814 18.168C421.328 18.168 420.904 18.042 420.54 17.79C420.185 17.538 419.938 17.202 419.798 16.782H419.742V20.8H417.95V10.692ZM421.24 16.684C421.706 16.684 422.084 16.53 422.374 16.222C422.663 15.914 422.808 15.4987 422.808 14.976V13.716C422.808 13.1933 422.663 12.778 422.374 12.47C422.084 12.1527 421.706 11.994 421.24 11.994C420.81 11.994 420.451 12.1013 420.162 12.316C419.882 12.5307 419.742 12.8153 419.742 13.17V15.494C419.742 15.8767 419.882 16.1707 420.162 16.376C420.451 16.5813 420.81 16.684 421.24 16.684ZM430.872 16.782H430.802C430.737 16.9687 430.648 17.146 430.536 17.314C430.433 17.4727 430.298 17.6173 430.13 17.748C429.971 17.8787 429.775 17.9813 429.542 18.056C429.318 18.1307 429.057 18.168 428.758 18.168C428.002 18.168 427.423 17.9207 427.022 17.426C426.621 16.9313 426.42 16.2267 426.42 15.312V10.692H428.212V15.13C428.212 15.634 428.31 16.0213 428.506 16.292C428.702 16.5533 429.015 16.684 429.444 16.684C429.621 16.684 429.794 16.6607 429.962 16.614C430.139 16.5673 430.293 16.4973 430.424 16.404C430.555 16.3013 430.662 16.18 430.746 16.04C430.83 15.8907 430.872 15.718 430.872 15.522V10.692H432.664V18H430.872V16.782ZM437.177 18C436.561 18 436.089 17.8413 435.763 17.524C435.445 17.1973 435.287 16.7353 435.287 16.138V12.12H434.209V10.692H434.769C435.039 10.692 435.221 10.6313 435.315 10.51C435.417 10.3793 435.469 10.188 435.469 9.936V8.69H437.079V10.692H438.577V12.12H437.079V16.572H438.465V18H437.177Z" fill="#343A3F"/>
<path d="M108.942 18.168C108.298 18.168 107.715 18.0653 107.192 17.86C106.679 17.6453 106.235 17.328 105.862 16.908C105.498 16.488 105.218 15.97 105.022 15.354C104.826 14.7287 104.728 14.0053 104.728 13.184C104.728 12.3627 104.826 11.6347 105.022 11C105.218 10.356 105.498 9.81933 105.862 9.39C106.235 8.95133 106.679 8.62 107.192 8.396C107.715 8.172 108.298 8.06 108.942 8.06C109.819 8.06 110.547 8.24667 111.126 8.62C111.705 8.99333 112.167 9.558 112.512 10.314L110.93 11.154C110.79 10.7153 110.561 10.3653 110.244 10.104C109.927 9.83333 109.493 9.698 108.942 9.698C108.251 9.698 107.701 9.93133 107.29 10.398C106.889 10.8647 106.688 11.518 106.688 12.358V13.898C106.688 14.7473 106.889 15.4007 107.29 15.858C107.701 16.306 108.251 16.53 108.942 16.53C109.493 16.53 109.941 16.3807 110.286 16.082C110.641 15.7833 110.897 15.4147 111.056 14.976L112.554 15.858C112.199 16.586 111.728 17.1553 111.14 17.566C110.552 17.9673 109.819 18.168 108.942 18.168ZM117.076 18.168C116.554 18.168 116.082 18.0793 115.662 17.902C115.252 17.7247 114.897 17.468 114.598 17.132C114.309 16.796 114.085 16.3947 113.926 15.928C113.768 15.452 113.688 14.92 113.688 14.332C113.688 13.744 113.768 13.2167 113.926 12.75C114.085 12.2833 114.309 11.8867 114.598 11.56C114.897 11.224 115.252 10.9673 115.662 10.79C116.082 10.6127 116.554 10.524 117.076 10.524C117.599 10.524 118.07 10.6127 118.49 10.79C118.91 10.9673 119.265 11.224 119.554 11.56C119.853 11.8867 120.082 12.2833 120.24 12.75C120.399 13.2167 120.478 13.744 120.478 14.332C120.478 14.92 120.399 15.452 120.24 15.928C120.082 16.3947 119.853 16.796 119.554 17.132C119.265 17.468 118.91 17.7247 118.49 17.902C118.07 18.0793 117.599 18.168 117.076 18.168ZM117.076 16.726C117.552 16.726 117.926 16.5813 118.196 16.292C118.467 16.0027 118.602 15.578 118.602 15.018V13.66C118.602 13.1093 118.467 12.6893 118.196 12.4C117.926 12.1107 117.552 11.966 117.076 11.966C116.61 11.966 116.241 12.1107 115.97 12.4C115.7 12.6893 115.564 13.1093 115.564 13.66V15.018C115.564 15.578 115.7 16.0027 115.97 16.292C116.241 16.5813 116.61 16.726 117.076 16.726ZM122.227 18V10.692H124.019V11.91H124.089C124.229 11.5273 124.453 11.2007 124.761 10.93C125.069 10.6593 125.498 10.524 126.049 10.524C126.553 10.524 126.987 10.6453 127.351 10.888C127.715 11.1307 127.986 11.4993 128.163 11.994H128.191C128.322 11.5833 128.578 11.238 128.961 10.958C129.353 10.6687 129.843 10.524 130.431 10.524C131.15 10.524 131.7 10.7713 132.083 11.266C132.475 11.7607 132.671 12.4653 132.671 13.38V18H130.879V13.562C130.879 12.5167 130.487 11.994 129.703 11.994C129.526 11.994 129.353 12.022 129.185 12.078C129.026 12.1247 128.882 12.1993 128.751 12.302C128.63 12.3953 128.532 12.5167 128.457 12.666C128.382 12.806 128.345 12.974 128.345 13.17V18H126.553V13.562C126.553 12.5167 126.161 11.994 125.377 11.994C125.209 11.994 125.041 12.022 124.873 12.078C124.714 12.1247 124.57 12.1993 124.439 12.302C124.318 12.3953 124.215 12.5167 124.131 12.666C124.056 12.806 124.019 12.974 124.019 13.17V18H122.227ZM134.815 10.692H136.607V11.896H136.663C136.793 11.476 137.041 11.1447 137.405 10.902C137.769 10.65 138.193 10.524 138.679 10.524C139.612 10.524 140.321 10.8553 140.807 11.518C141.301 12.1713 141.549 13.1093 141.549 14.332C141.549 15.564 141.301 16.5113 140.807 17.174C140.321 17.8367 139.612 18.168 138.679 18.168C138.193 18.168 137.769 18.042 137.405 17.79C137.05 17.538 136.803 17.202 136.663 16.782H136.607V20.8H134.815V10.692ZM138.105 16.684C138.571 16.684 138.949 16.53 139.239 16.222C139.528 15.914 139.673 15.4987 139.673 14.976V13.716C139.673 13.1933 139.528 12.778 139.239 12.47C138.949 12.1527 138.571 11.994 138.105 11.994C137.675 11.994 137.316 12.1013 137.027 12.316C136.747 12.5307 136.607 12.8153 136.607 13.17V15.494C136.607 15.8767 136.747 16.1707 137.027 16.376C137.316 16.5813 137.675 16.684 138.105 16.684ZM147.737 16.782H147.667C147.602 16.9687 147.513 17.146 147.401 17.314C147.299 17.4727 147.163 17.6173 146.995 17.748C146.837 17.8787 146.641 17.9813 146.407 18.056C146.183 18.1307 145.922 18.168 145.623 18.168C144.867 18.168 144.289 17.9207 143.887 17.426C143.486 16.9313 143.285 16.2267 143.285 15.312V10.692H145.077V15.13C145.077 15.634 145.175 16.0213 145.371 16.292C145.567 16.5533 145.88 16.684 146.309 16.684C146.487 16.684 146.659 16.6607 146.827 16.614C147.005 16.5673 147.159 16.4973 147.289 16.404C147.42 16.3013 147.527 16.18 147.611 16.04C147.695 15.8907 147.737 15.718 147.737 15.522V10.692H149.529V18H147.737V16.782ZM154.042 18C153.426 18 152.954 17.8413 152.628 17.524C152.31 17.1973 152.152 16.7353 152.152 16.138V12.12H151.074V10.692H151.634C151.904 10.692 152.086 10.6313 152.18 10.51C152.282 10.3793 152.334 10.188 152.334 9.936V8.69H153.944V10.692H155.442V12.12H153.944V16.572H155.33V18H154.042ZM160.055 18.168C159.514 18.168 159.029 18.0793 158.599 17.902C158.179 17.7153 157.82 17.4587 157.521 17.132C157.232 16.796 157.008 16.3947 156.849 15.928C156.691 15.452 156.611 14.92 156.611 14.332C156.611 13.7533 156.686 13.2307 156.835 12.764C156.994 12.2973 157.218 11.9007 157.507 11.574C157.797 11.238 158.151 10.9813 158.571 10.804C158.991 10.6173 159.467 10.524 159.999 10.524C160.569 10.524 161.063 10.622 161.483 10.818C161.903 11.014 162.249 11.28 162.519 11.616C162.79 11.952 162.991 12.344 163.121 12.792C163.261 13.2307 163.331 13.702 163.331 14.206V14.794H158.473V14.976C158.473 15.508 158.623 15.9373 158.921 16.264C159.22 16.5813 159.663 16.74 160.251 16.74C160.699 16.74 161.063 16.6467 161.343 16.46C161.633 16.2733 161.889 16.0353 162.113 15.746L163.079 16.824C162.781 17.244 162.37 17.5753 161.847 17.818C161.334 18.0513 160.737 18.168 160.055 18.168ZM160.027 11.868C159.551 11.868 159.173 12.0267 158.893 12.344C158.613 12.6613 158.473 13.072 158.473 13.576V13.688H161.469V13.562C161.469 13.058 161.343 12.652 161.091 12.344C160.849 12.0267 160.494 11.868 160.027 11.868ZM165.068 18V10.692H166.86V12.204H166.93C166.977 12.008 167.047 11.8213 167.14 11.644C167.243 11.4573 167.373 11.294 167.532 11.154C167.691 11.014 167.877 10.902 168.092 10.818C168.316 10.734 168.573 10.692 168.862 10.692H169.254V12.386H168.694C168.087 12.386 167.63 12.4747 167.322 12.652C167.014 12.8293 166.86 13.1187 166.86 13.52V18H165.068ZM174.557 12.106H173.479V10.692H174.557V9.642C174.557 8.998 174.725 8.50333 175.061 8.158C175.406 7.81267 175.91 7.64 176.573 7.64H177.847V9.068H176.349V10.692H177.847V12.106H176.349V18H174.557V12.106ZM182.091 18.168C181.568 18.168 181.097 18.0793 180.677 17.902C180.266 17.7247 179.911 17.468 179.613 17.132C179.323 16.796 179.099 16.3947 178.941 15.928C178.782 15.452 178.703 14.92 178.703 14.332C178.703 13.744 178.782 13.2167 178.941 12.75C179.099 12.2833 179.323 11.8867 179.613 11.56C179.911 11.224 180.266 10.9673 180.677 10.79C181.097 10.6127 181.568 10.524 182.091 10.524C182.613 10.524 183.085 10.6127 183.505 10.79C183.925 10.9673 184.279 11.224 184.569 11.56C184.867 11.8867 185.096 12.2833 185.255 12.75C185.413 13.2167 185.493 13.744 185.493 14.332C185.493 14.92 185.413 15.452 185.255 15.928C185.096 16.3947 184.867 16.796 184.569 17.132C184.279 17.468 183.925 17.7247 183.505 17.902C183.085 18.0793 182.613 18.168 182.091 18.168ZM182.091 16.726C182.567 16.726 182.94 16.5813 183.211 16.292C183.481 16.0027 183.617 15.578 183.617 15.018V13.66C183.617 13.1093 183.481 12.6893 183.211 12.4C182.94 12.1107 182.567 11.966 182.091 11.966C181.624 11.966 181.255 12.1107 180.985 12.4C180.714 12.6893 180.579 13.1093 180.579 13.66V15.018C180.579 15.578 180.714 16.0027 180.985 16.292C181.255 16.5813 181.624 16.726 182.091 16.726ZM189.033 18C188.417 18 187.965 17.846 187.675 17.538C187.386 17.23 187.241 16.796 187.241 16.236V7.64H189.033V16.572H189.999V18H189.033ZM193.213 18C192.597 18 192.144 17.846 191.855 17.538C191.566 17.23 191.421 16.796 191.421 16.236V7.64H193.213V16.572H194.179V18H193.213ZM198.594 18.168C198.071 18.168 197.6 18.0793 197.18 17.902C196.769 17.7247 196.415 17.468 196.116 17.132C195.827 16.796 195.603 16.3947 195.444 15.928C195.285 15.452 195.206 14.92 195.206 14.332C195.206 13.744 195.285 13.2167 195.444 12.75C195.603 12.2833 195.827 11.8867 196.116 11.56C196.415 11.224 196.769 10.9673 197.18 10.79C197.6 10.6127 198.071 10.524 198.594 10.524C199.117 10.524 199.588 10.6127 200.008 10.79C200.428 10.9673 200.783 11.224 201.072 11.56C201.371 11.8867 201.599 12.2833 201.758 12.75C201.917 13.2167 201.996 13.744 201.996 14.332C201.996 14.92 201.917 15.452 201.758 15.928C201.599 16.3947 201.371 16.796 201.072 17.132C200.783 17.468 200.428 17.7247 200.008 17.902C199.588 18.0793 199.117 18.168 198.594 18.168ZM198.594 16.726C199.07 16.726 199.443 16.5813 199.714 16.292C199.985 16.0027 200.12 15.578 200.12 15.018V13.66C200.12 13.1093 199.985 12.6893 199.714 12.4C199.443 12.1107 199.07 11.966 198.594 11.966C198.127 11.966 197.759 12.1107 197.488 12.4C197.217 12.6893 197.082 13.1093 197.082 13.66V15.018C197.082 15.578 197.217 16.0027 197.488 16.292C197.759 16.5813 198.127 16.726 198.594 16.726ZM202.908 10.692H204.63L205.372 13.702L205.946 16.208H206.002L206.674 13.702L207.528 10.692H209.152L210.034 13.702L210.72 16.208H210.776L211.35 13.702L212.078 10.692H213.744L211.742 18H209.81L208.872 14.78L208.326 12.792H208.284L207.752 14.78L206.828 18H204.924L202.908 10.692ZM217.605 18.168C216.905 18.168 216.317 18.0513 215.841 17.818C215.365 17.5753 214.945 17.244 214.581 16.824L215.673 15.76C215.944 16.068 216.238 16.3107 216.555 16.488C216.882 16.6653 217.255 16.754 217.675 16.754C218.105 16.754 218.413 16.6793 218.599 16.53C218.795 16.3807 218.893 16.1753 218.893 15.914C218.893 15.6993 218.823 15.5313 218.683 15.41C218.553 15.2793 218.324 15.1907 217.997 15.144L217.269 15.046C216.476 14.9433 215.869 14.7193 215.449 14.374C215.039 14.0193 214.833 13.506 214.833 12.834C214.833 12.4793 214.899 12.162 215.029 11.882C215.16 11.5927 215.347 11.35 215.589 11.154C215.832 10.9487 216.121 10.7947 216.457 10.692C216.803 10.58 217.185 10.524 217.605 10.524C217.96 10.524 218.273 10.552 218.543 10.608C218.823 10.6547 219.075 10.7293 219.299 10.832C219.523 10.9253 219.729 11.0467 219.915 11.196C220.102 11.336 220.284 11.4947 220.461 11.672L219.411 12.722C219.197 12.498 218.94 12.3113 218.641 12.162C218.343 12.0127 218.016 11.938 217.661 11.938C217.269 11.938 216.985 12.008 216.807 12.148C216.639 12.288 216.555 12.47 216.555 12.694C216.555 12.9367 216.625 13.1233 216.765 13.254C216.915 13.3753 217.162 13.464 217.507 13.52L218.249 13.618C219.827 13.842 220.615 14.5607 220.615 15.774C220.615 16.1287 220.541 16.4553 220.391 16.754C220.251 17.0433 220.051 17.2953 219.789 17.51C219.528 17.7153 219.211 17.8787 218.837 18C218.473 18.112 218.063 18.168 217.605 18.168ZM231.202 18C230.81 18 230.498 17.888 230.264 17.664C230.04 17.4307 229.9 17.1227 229.844 16.74H229.76C229.639 17.216 229.392 17.5753 229.018 17.818C228.645 18.0513 228.183 18.168 227.632 18.168C226.886 18.168 226.312 17.972 225.91 17.58C225.509 17.188 225.308 16.6653 225.308 16.012C225.308 15.256 225.579 14.696 226.12 14.332C226.662 13.9587 227.432 13.772 228.43 13.772H229.676V13.24C229.676 12.8293 229.569 12.512 229.354 12.288C229.14 12.064 228.794 11.952 228.318 11.952C227.898 11.952 227.558 12.0453 227.296 12.232C227.044 12.4093 226.83 12.624 226.652 12.876L225.588 11.924C225.859 11.504 226.218 11.168 226.666 10.916C227.114 10.6547 227.707 10.524 228.444 10.524C229.434 10.524 230.185 10.748 230.698 11.196C231.212 11.644 231.468 12.288 231.468 13.128V16.572H232.196V18H231.202ZM228.234 16.866C228.636 16.866 228.976 16.7773 229.256 16.6C229.536 16.4227 229.676 16.1613 229.676 15.816V14.85H228.528C227.595 14.85 227.128 15.1487 227.128 15.746V15.984C227.128 16.2827 227.222 16.5067 227.408 16.656C227.604 16.796 227.88 16.866 228.234 16.866ZM235.599 18C234.983 18 234.53 17.846 234.241 17.538C233.951 17.23 233.807 16.796 233.807 16.236V7.64H235.599V16.572H236.565V18H235.599ZM244.676 18.616C244.676 18.9987 244.606 19.3347 244.466 19.624C244.335 19.9227 244.116 20.17 243.808 20.366C243.5 20.562 243.103 20.7113 242.618 20.814C242.133 20.9167 241.54 20.968 240.84 20.968C240.224 20.968 239.701 20.926 239.272 20.842C238.843 20.7673 238.488 20.6553 238.208 20.506C237.937 20.366 237.741 20.1887 237.62 19.974C237.499 19.7593 237.438 19.5167 237.438 19.246C237.438 18.8353 237.55 18.5133 237.774 18.28C238.007 18.056 238.329 17.9113 238.74 17.846V17.692C238.441 17.6173 238.208 17.4727 238.04 17.258C237.881 17.034 237.802 16.7727 237.802 16.474C237.802 16.2873 237.839 16.124 237.914 15.984C237.989 15.8347 238.087 15.7087 238.208 15.606C238.339 15.5033 238.483 15.4193 238.642 15.354C238.801 15.2793 238.969 15.2233 239.146 15.186V15.13C238.698 14.9247 238.362 14.64 238.138 14.276C237.923 13.912 237.816 13.4873 237.816 13.002C237.816 12.2553 238.073 11.658 238.586 11.21C239.099 10.7527 239.851 10.524 240.84 10.524C241.064 10.524 241.283 10.538 241.498 10.566C241.722 10.594 241.927 10.6407 242.114 10.706V10.468C242.114 9.75867 242.459 9.404 243.15 9.404H244.284V10.776H242.73V10.972C243.113 11.1867 243.397 11.4667 243.584 11.812C243.771 12.1573 243.864 12.554 243.864 13.002C243.864 13.7393 243.607 14.332 243.094 14.78C242.59 15.228 241.839 15.452 240.84 15.452C240.411 15.452 240.037 15.41 239.72 15.326C239.58 15.3913 239.459 15.48 239.356 15.592C239.253 15.6947 239.202 15.8253 239.202 15.984C239.202 16.348 239.519 16.53 240.154 16.53H242.114C243.01 16.53 243.659 16.7167 244.06 17.09C244.471 17.454 244.676 17.9627 244.676 18.616ZM242.996 18.826C242.996 18.5927 242.903 18.4107 242.716 18.28C242.529 18.1493 242.207 18.084 241.75 18.084H239.258C239.006 18.2707 238.88 18.5227 238.88 18.84C238.88 19.12 238.997 19.3393 239.23 19.498C239.463 19.6567 239.86 19.736 240.42 19.736H241.316C241.904 19.736 242.329 19.6613 242.59 19.512C242.861 19.3627 242.996 19.134 242.996 18.826ZM240.84 14.234C241.717 14.234 242.156 13.8607 242.156 13.114V12.876C242.156 12.1293 241.717 11.756 240.84 11.756C239.963 11.756 239.524 12.1293 239.524 12.876V13.114C239.524 13.8607 239.963 14.234 240.84 14.234ZM248.687 18.168C248.164 18.168 247.693 18.0793 247.273 17.902C246.862 17.7247 246.507 17.468 246.209 17.132C245.919 16.796 245.695 16.3947 245.537 15.928C245.378 15.452 245.299 14.92 245.299 14.332C245.299 13.744 245.378 13.2167 245.537 12.75C245.695 12.2833 245.919 11.8867 246.209 11.56C246.507 11.224 246.862 10.9673 247.273 10.79C247.693 10.6127 248.164 10.524 248.687 10.524C249.209 10.524 249.681 10.6127 250.101 10.79C250.521 10.9673 250.875 11.224 251.165 11.56C251.463 11.8867 251.692 12.2833 251.851 12.75C252.009 13.2167 252.089 13.744 252.089 14.332C252.089 14.92 252.009 15.452 251.851 15.928C251.692 16.3947 251.463 16.796 251.165 17.132C250.875 17.468 250.521 17.7247 250.101 17.902C249.681 18.0793 249.209 18.168 248.687 18.168ZM248.687 16.726C249.163 16.726 249.536 16.5813 249.807 16.292C250.077 16.0027 250.213 15.578 250.213 15.018V13.66C250.213 13.1093 250.077 12.6893 249.807 12.4C249.536 12.1107 249.163 11.966 248.687 11.966C248.22 11.966 247.851 12.1107 247.581 12.4C247.31 12.6893 247.175 13.1093 247.175 13.66V15.018C247.175 15.578 247.31 16.0027 247.581 16.292C247.851 16.5813 248.22 16.726 248.687 16.726ZM253.837 18V10.692H255.629V12.204H255.699C255.746 12.008 255.816 11.8213 255.909 11.644C256.012 11.4573 256.143 11.294 256.301 11.154C256.46 11.014 256.647 10.902 256.861 10.818C257.085 10.734 257.342 10.692 257.631 10.692H258.023V12.386H257.463C256.857 12.386 256.399 12.4747 256.091 12.652C255.783 12.8293 255.629 13.1187 255.629 13.52V18H253.837ZM260.39 9.628C260.016 9.628 259.746 9.544 259.578 9.376C259.419 9.208 259.34 8.99333 259.34 8.732V8.452C259.34 8.19067 259.419 7.976 259.578 7.808C259.746 7.64 260.016 7.556 260.39 7.556C260.754 7.556 261.02 7.64 261.188 7.808C261.356 7.976 261.44 8.19067 261.44 8.452V8.732C261.44 8.99333 261.356 9.208 261.188 9.376C261.02 9.544 260.754 9.628 260.39 9.628ZM259.494 10.692H261.286V18H259.494V10.692ZM265.805 18C265.189 18 264.717 17.8413 264.391 17.524C264.073 17.1973 263.915 16.7353 263.915 16.138V12.12H262.837V10.692H263.397C263.667 10.692 263.849 10.6313 263.943 10.51C264.045 10.3793 264.097 10.188 264.097 9.936V8.69H265.707V10.692H267.205V12.12H265.707V16.572H267.093V18H265.805ZM268.919 7.64H270.711V11.91H270.781C270.93 11.518 271.164 11.1913 271.481 10.93C271.808 10.6593 272.256 10.524 272.825 10.524C273.581 10.524 274.16 10.7713 274.561 11.266C274.962 11.7607 275.163 12.4653 275.163 13.38V18H273.371V13.562C273.371 13.0393 273.278 12.6473 273.091 12.386C272.904 12.1247 272.596 11.994 272.167 11.994C271.98 11.994 271.798 12.022 271.621 12.078C271.453 12.1247 271.299 12.1993 271.159 12.302C271.028 12.3953 270.921 12.5167 270.837 12.666C270.753 12.806 270.711 12.974 270.711 13.17V18H268.919V7.64ZM277.309 18V10.692H279.101V11.91H279.171C279.311 11.5273 279.535 11.2007 279.843 10.93C280.151 10.6593 280.581 10.524 281.131 10.524C281.635 10.524 282.069 10.6453 282.433 10.888C282.797 11.1307 283.068 11.4993 283.245 11.994H283.273C283.404 11.5833 283.661 11.238 284.043 10.958C284.435 10.6687 284.925 10.524 285.513 10.524C286.232 10.524 286.783 10.7713 287.165 11.266C287.557 11.7607 287.753 12.4653 287.753 13.38V18H285.961V13.562C285.961 12.5167 285.569 11.994 284.785 11.994C284.608 11.994 284.435 12.022 284.267 12.078C284.109 12.1247 283.964 12.1993 283.833 12.302C283.712 12.3953 283.614 12.5167 283.539 12.666C283.465 12.806 283.427 12.974 283.427 13.17V18H281.635V13.562C281.635 12.5167 281.243 11.994 280.459 11.994C280.291 11.994 280.123 12.022 279.955 12.078C279.797 12.1247 279.652 12.1993 279.521 12.302C279.4 12.3953 279.297 12.5167 279.213 12.666C279.139 12.806 279.101 12.974 279.101 13.17V18H277.309Z" fill="#343A3F"/>
<rect y="30" width="92" height="124" fill="#F2F4F8"/>
<path d="M25.02 67V66.124H27.42V59.368H27.336L25.224 61.336L24.636 60.7L26.856 58.624H28.428V66.124H30.636V67H25.02ZM34.7553 62.176C35.3393 62.176 35.7753 62.048 36.0633 61.792C36.3593 61.528 36.5073 61.192 36.5073 60.784V60.7C36.5073 60.252 36.3633 59.916 36.0753 59.692C35.7953 59.468 35.4273 59.356 34.9713 59.356C34.5233 59.356 34.1593 59.456 33.8793 59.656C33.6073 59.848 33.3833 60.104 33.2073 60.424L32.4513 59.848C32.5553 59.68 32.6833 59.516 32.8353 59.356C32.9873 59.188 33.1633 59.04 33.3633 58.912C33.5713 58.784 33.8073 58.68 34.0713 58.6C34.3433 58.52 34.6513 58.48 34.9953 58.48C35.3553 58.48 35.6913 58.528 36.0033 58.624C36.3153 58.712 36.5873 58.848 36.8193 59.032C37.0513 59.208 37.2313 59.428 37.3593 59.692C37.4953 59.956 37.5633 60.256 37.5633 60.592C37.5633 60.864 37.5193 61.108 37.4313 61.324C37.3513 61.54 37.2353 61.728 37.0833 61.888C36.9393 62.048 36.7673 62.184 36.5673 62.296C36.3673 62.408 36.1553 62.492 35.9313 62.548V62.596C36.1633 62.644 36.3873 62.724 36.6033 62.836C36.8193 62.94 37.0113 63.08 37.1793 63.256C37.3473 63.424 37.4793 63.632 37.5753 63.88C37.6793 64.12 37.7313 64.396 37.7313 64.708C37.7313 65.068 37.6593 65.4 37.5153 65.704C37.3793 66 37.1833 66.256 36.9273 66.472C36.6793 66.68 36.3753 66.844 36.0153 66.964C35.6633 67.084 35.2713 67.144 34.8393 67.144C34.4713 67.144 34.1433 67.104 33.8553 67.024C33.5753 66.944 33.3233 66.836 33.0993 66.7C32.8833 66.564 32.6913 66.412 32.5233 66.244C32.3633 66.076 32.2193 65.9 32.0913 65.716L32.8473 65.14C32.9593 65.308 33.0753 65.46 33.1953 65.596C33.3153 65.732 33.4513 65.852 33.6033 65.956C33.7633 66.052 33.9433 66.128 34.1433 66.184C34.3433 66.24 34.5753 66.268 34.8393 66.268C35.4313 66.268 35.8833 66.132 36.1953 65.86C36.5153 65.588 36.6753 65.2 36.6753 64.696V64.6C36.6753 64.104 36.5193 63.72 36.2073 63.448C35.9033 63.176 35.4433 63.04 34.8273 63.04H33.8313V62.176H34.7553Z" fill="#343A3F"/>
<path d="M412.6 67.144C412.088 67.144 411.648 67.048 411.28 66.856C410.912 66.656 410.608 66.372 410.368 66.004C410.128 65.636 409.952 65.184 409.84 64.648C409.728 64.112 409.672 63.5 409.672 62.812C409.672 62.132 409.728 61.524 409.84 60.988C409.952 60.444 410.128 59.988 410.368 59.62C410.608 59.252 410.912 58.972 411.28 58.78C411.648 58.58 412.088 58.48 412.6 58.48C413.112 58.48 413.552 58.58 413.92 58.78C414.288 58.972 414.592 59.252 414.832 59.62C415.072 59.988 415.248 60.444 415.36 60.988C415.472 61.524 415.528 62.132 415.528 62.812C415.528 63.5 415.472 64.112 415.36 64.648C415.248 65.184 415.072 65.636 414.832 66.004C414.592 66.372 414.288 66.656 413.92 66.856C413.552 67.048 413.112 67.144 412.6 67.144ZM412.6 66.268C412.936 66.268 413.22 66.204 413.452 66.076C413.684 65.94 413.876 65.752 414.028 65.512C414.18 65.272 414.288 64.984 414.352 64.648C414.424 64.304 414.46 63.92 414.46 63.496V62.128C414.46 61.712 414.424 61.332 414.352 60.988C414.288 60.644 414.18 60.352 414.028 60.112C413.876 59.872 413.684 59.688 413.452 59.56C413.22 59.424 412.936 59.356 412.6 59.356C412.264 59.356 411.98 59.424 411.748 59.56C411.516 59.688 411.324 59.872 411.172 60.112C411.02 60.352 410.908 60.644 410.836 60.988C410.772 61.332 410.74 61.712 410.74 62.128V63.496C410.74 63.92 410.772 64.304 410.836 64.648C410.908 64.984 411.02 65.272 411.172 65.512C411.324 65.752 411.516 65.94 411.748 66.076C411.98 66.204 412.264 66.268 412.6 66.268ZM421.615 65.992H421.567C421.167 66.76 420.531 67.144 419.659 67.144C418.899 67.144 418.303 66.86 417.871 66.292C417.447 65.724 417.235 64.928 417.235 63.904C417.235 62.88 417.447 62.084 417.871 61.516C418.303 60.948 418.899 60.664 419.659 60.664C420.531 60.664 421.167 61.048 421.567 61.816H421.615V58.12H422.575V67H421.615V65.992ZM420.031 66.292C420.247 66.292 420.451 66.264 420.643 66.208C420.835 66.152 421.003 66.072 421.147 65.968C421.291 65.856 421.403 65.724 421.483 65.572C421.571 65.412 421.615 65.228 421.615 65.02V62.788C421.615 62.58 421.571 62.4 421.483 62.248C421.403 62.088 421.291 61.956 421.147 61.852C421.003 61.74 420.835 61.656 420.643 61.6C420.451 61.544 420.247 61.516 420.031 61.516C419.471 61.516 419.035 61.688 418.723 62.032C418.419 62.368 418.267 62.816 418.267 63.376V64.432C418.267 64.992 418.419 65.444 418.723 65.788C419.035 66.124 419.471 66.292 420.031 66.292ZM429.131 65.992H429.083C428.683 66.76 428.047 67.144 427.175 67.144C426.415 67.144 425.819 66.86 425.387 66.292C424.963 65.724 424.751 64.928 424.751 63.904C424.751 62.88 424.963 62.084 425.387 61.516C425.819 60.948 426.415 60.664 427.175 60.664C428.047 60.664 428.683 61.048 429.083 61.816H429.131V58.12H430.091V67H429.131V65.992ZM427.547 66.292C427.763 66.292 427.967 66.264 428.159 66.208C428.351 66.152 428.519 66.072 428.663 65.968C428.807 65.856 428.919 65.724 428.999 65.572C429.087 65.412 429.131 65.228 429.131 65.02V62.788C429.131 62.58 429.087 62.4 428.999 62.248C428.919 62.088 428.807 61.956 428.663 61.852C428.519 61.74 428.351 61.656 428.159 61.6C427.967 61.544 427.763 61.516 427.547 61.516C426.987 61.516 426.551 61.688 426.239 62.032C425.935 62.368 425.783 62.816 425.783 63.376V64.432C425.783 64.992 425.935 65.444 426.239 65.788C426.551 66.124 426.987 66.292 427.547 66.292Z" fill="#343A3F"/>
</svg>
