<svg width="410" height="411" viewBox="0 0 410 411" fill="none" xmlns="http://www.w3.org/2000/svg">
<rect opacity="0.4" x="26" y="336" width="384" height="48" fill="#F2F4F8"/>
<rect opacity="0.4" x="26" y="240" width="384" height="48" fill="#F2F4F8"/>
<rect opacity="0.4" x="26" y="144" width="384" height="48" fill="#F2F4F8"/>
<rect opacity="0.4" x="26" y="48" width="384" height="48" fill="#F2F4F8"/>
<path d="M65.984 398.866V407H64.136V398.866H61.364V397.228H68.756V398.866H65.984ZM71.2131 398.628C70.8398 398.628 70.5691 398.544 70.4011 398.376C70.2424 398.208 70.1631 397.993 70.1631 397.732V397.452C70.1631 397.191 70.2424 396.976 70.4011 396.808C70.5691 396.64 70.8398 396.556 71.2131 396.556C71.5771 396.556 71.8431 396.64 72.0111 396.808C72.1791 396.976 72.2631 397.191 72.2631 397.452V397.732C72.2631 397.993 72.1791 398.208 72.0111 398.376C71.8431 398.544 71.5771 398.628 71.2131 398.628ZM70.3171 399.692H72.1091V407H70.3171V399.692ZM74.3462 407V399.692H76.1382V400.91H76.2082C76.3482 400.527 76.5722 400.201 76.8802 399.93C77.1882 399.659 77.6176 399.524 78.1682 399.524C78.6722 399.524 79.1062 399.645 79.4702 399.888C79.8342 400.131 80.1049 400.499 80.2822 400.994H80.3102C80.4409 400.583 80.6976 400.238 81.0802 399.958C81.4722 399.669 81.9622 399.524 82.5502 399.524C83.2689 399.524 83.8196 399.771 84.2022 400.266C84.5942 400.761 84.7902 401.465 84.7902 402.38V407H82.9982V402.562C82.9982 401.517 82.6062 400.994 81.8222 400.994C81.6449 400.994 81.4722 401.022 81.3042 401.078C81.1456 401.125 81.0009 401.199 80.8702 401.302C80.7489 401.395 80.6509 401.517 80.5762 401.666C80.5016 401.806 80.4642 401.974 80.4642 402.17V407H78.6722V402.562C78.6722 401.517 78.2802 400.994 77.4962 400.994C77.3282 400.994 77.1602 401.022 76.9922 401.078C76.8336 401.125 76.6889 401.199 76.5582 401.302C76.4369 401.395 76.3342 401.517 76.2502 401.666C76.1756 401.806 76.1382 401.974 76.1382 402.17V407H74.3462ZM89.888 407.168C89.3466 407.168 88.8613 407.079 88.432 406.902C88.012 406.715 87.6526 406.459 87.354 406.132C87.0646 405.796 86.8406 405.395 86.682 404.928C86.5233 404.452 86.444 403.92 86.444 403.332C86.444 402.753 86.5186 402.231 86.668 401.764C86.8266 401.297 87.0506 400.901 87.34 400.574C87.6293 400.238 87.984 399.981 88.404 399.804C88.824 399.617 89.3 399.524 89.832 399.524C90.4013 399.524 90.896 399.622 91.316 399.818C91.736 400.014 92.0813 400.28 92.352 400.616C92.6226 400.952 92.8233 401.344 92.954 401.792C93.094 402.231 93.164 402.702 93.164 403.206V403.794H88.306V403.976C88.306 404.508 88.4553 404.937 88.754 405.264C89.0526 405.581 89.496 405.74 90.084 405.74C90.532 405.74 90.896 405.647 91.176 405.46C91.4653 405.273 91.722 405.035 91.946 404.746L92.912 405.824C92.6133 406.244 92.2026 406.575 91.68 406.818C91.1666 407.051 90.5693 407.168 89.888 407.168ZM89.86 400.868C89.384 400.868 89.006 401.027 88.726 401.344C88.446 401.661 88.306 402.072 88.306 402.576V402.688H91.302V402.562C91.302 402.058 91.176 401.652 90.924 401.344C90.6813 401.027 90.3266 400.868 89.86 400.868Z" fill="black"/>
<path d="M14 351.852L4.228 351.852L4.228 350.004L12.362 350.004L12.362 346.154L14 346.154L14 351.852ZM14 339.086C14 339.478 13.888 339.791 13.664 340.024C13.4307 340.248 13.1227 340.388 12.74 340.444L12.74 340.528C13.216 340.65 13.5753 340.897 13.818 341.27C14.0513 341.644 14.168 342.106 14.168 342.656C14.168 343.403 13.972 343.977 13.58 344.378C13.188 344.78 12.6653 344.98 12.012 344.98C11.256 344.98 10.696 344.71 10.332 344.168C9.95867 343.627 9.772 342.857 9.772 341.858L9.772 340.612L9.24 340.612C8.82933 340.612 8.512 340.72 8.288 340.934C8.064 341.149 7.952 341.494 7.952 341.97C7.952 342.39 8.04533 342.731 8.232 342.992C8.40933 343.244 8.624 343.459 8.876 343.636L7.924 344.7C7.504 344.43 7.168 344.07 6.916 343.622C6.65467 343.174 6.524 342.582 6.524 341.844C6.524 340.855 6.748 340.104 7.196 339.59C7.644 339.077 8.288 338.82 9.128 338.82L12.572 338.82L12.572 338.092L14 338.092L14 339.086ZM12.866 342.054C12.866 341.653 12.7773 341.312 12.6 341.032C12.4227 340.752 12.1613 340.612 11.816 340.612L10.85 340.612L10.85 341.76C10.85 342.694 11.1487 343.16 11.746 343.16L11.984 343.16C12.2827 343.16 12.5067 343.067 12.656 342.88C12.796 342.684 12.866 342.409 12.866 342.054ZM14 336.482L6.692 336.482L6.692 334.69L8.204 334.69L8.204 334.62C8.008 334.573 7.82133 334.503 7.644 334.41C7.45733 334.307 7.294 334.177 7.154 334.018C7.014 333.859 6.902 333.673 6.818 333.458C6.734 333.234 6.692 332.977 6.692 332.688L6.692 332.296L8.386 332.296L8.386 332.856C8.386 333.463 8.47467 333.92 8.652 334.228C8.82933 334.536 9.11867 334.69 9.52 334.69L14 334.69L14 336.482ZM14.616 324.464C14.9987 324.464 15.3347 324.534 15.624 324.674C15.9227 324.805 16.17 325.024 16.366 325.332C16.562 325.64 16.7113 326.037 16.814 326.522C16.9167 327.008 16.968 327.6 16.968 328.3C16.968 328.916 16.926 329.439 16.842 329.868C16.7673 330.298 16.6553 330.652 16.506 330.932C16.366 331.203 16.1887 331.399 15.974 331.52C15.7593 331.642 15.5167 331.702 15.246 331.702C14.8353 331.702 14.5133 331.59 14.28 331.366C14.056 331.133 13.9113 330.811 13.846 330.4L13.692 330.4C13.6173 330.699 13.4727 330.932 13.258 331.1C13.034 331.259 12.7727 331.338 12.474 331.338C12.2873 331.338 12.124 331.301 11.984 331.226C11.8347 331.152 11.7087 331.054 11.606 330.932C11.5033 330.802 11.4193 330.657 11.354 330.498C11.2793 330.34 11.2233 330.172 11.186 329.994L11.13 329.994C10.9247 330.442 10.64 330.778 10.276 331.002C9.912 331.217 9.48733 331.324 9.002 331.324C8.25533 331.324 7.658 331.068 7.21 330.554C6.75267 330.041 6.524 329.29 6.524 328.3C6.524 328.076 6.538 327.857 6.566 327.642C6.594 327.418 6.64067 327.213 6.706 327.026L6.468 327.026C5.75867 327.026 5.404 326.681 5.404 325.99L5.404 324.856L6.776 324.856L6.776 326.41L6.972 326.41C7.18667 326.028 7.46667 325.743 7.812 325.556C8.15733 325.37 8.554 325.276 9.002 325.276C9.73933 325.276 10.332 325.533 10.78 326.046C11.228 326.55 11.452 327.302 11.452 328.3C11.452 328.73 11.41 329.103 11.326 329.42C11.3913 329.56 11.48 329.682 11.592 329.784C11.6947 329.887 11.8253 329.938 11.984 329.938C12.348 329.938 12.53 329.621 12.53 328.986L12.53 327.026C12.53 326.13 12.7167 325.482 13.09 325.08C13.454 324.67 13.9627 324.464 14.616 324.464ZM14.826 326.144C14.5927 326.144 14.4107 326.238 14.28 326.424C14.1493 326.611 14.084 326.933 14.084 327.39L14.084 329.882C14.2707 330.134 14.5227 330.26 14.84 330.26C15.12 330.26 15.3393 330.144 15.498 329.91C15.6567 329.677 15.736 329.28 15.736 328.72L15.736 327.824C15.736 327.236 15.6613 326.812 15.512 326.55C15.3627 326.28 15.134 326.144 14.826 326.144ZM10.234 328.3C10.234 327.423 9.86067 326.984 9.114 326.984L8.876 326.984C8.12933 326.984 7.756 327.423 7.756 328.3C7.756 329.178 8.12933 329.616 8.876 329.616L9.114 329.616C9.86067 329.616 10.234 329.178 10.234 328.3ZM14.168 320.397C14.168 320.939 14.0793 321.424 13.902 321.853C13.7153 322.273 13.4587 322.633 13.132 322.931C12.796 323.221 12.3947 323.445 11.928 323.603C11.452 323.762 10.92 323.841 10.332 323.841C9.75333 323.841 9.23067 323.767 8.764 323.617C8.29733 323.459 7.90067 323.235 7.574 322.945C7.238 322.656 6.98133 322.301 6.804 321.881C6.61733 321.461 6.524 320.985 6.524 320.453C6.524 319.884 6.622 319.389 6.818 318.969C7.014 318.549 7.28 318.204 7.616 317.933C7.952 317.663 8.344 317.462 8.792 317.331C9.23066 317.191 9.702 317.121 10.206 317.121L10.794 317.121L10.794 321.979L10.976 321.979C11.508 321.979 11.9373 321.83 12.264 321.531C12.5813 321.233 12.74 320.789 12.74 320.201C12.74 319.753 12.6467 319.389 12.46 319.109C12.2733 318.82 12.0353 318.563 11.746 318.339L12.824 317.373C13.244 317.672 13.5753 318.083 13.818 318.605C14.0513 319.119 14.168 319.716 14.168 320.397ZM7.868 320.425C7.868 320.901 8.02666 321.279 8.344 321.559C8.66133 321.839 9.072 321.979 9.576 321.979L9.688 321.979L9.688 318.983L9.562 318.983C9.058 318.983 8.652 319.109 8.344 319.361C8.02666 319.604 7.868 319.959 7.868 320.425ZM14.168 312.991C14.168 313.691 14.0513 314.279 13.818 314.755C13.5753 315.231 13.244 315.651 12.824 316.015L11.76 314.923C12.068 314.652 12.3107 314.358 12.488 314.041C12.6653 313.714 12.754 313.341 12.754 312.921C12.754 312.491 12.6793 312.183 12.53 311.997C12.3807 311.801 12.1753 311.703 11.914 311.703C11.6993 311.703 11.5313 311.773 11.41 311.913C11.2793 312.043 11.1907 312.272 11.144 312.599L11.046 313.327C10.9433 314.12 10.7193 314.727 10.374 315.147C10.0193 315.557 9.506 315.763 8.834 315.763C8.47933 315.763 8.162 315.697 7.882 315.567C7.59266 315.436 7.35 315.249 7.154 315.007C6.94866 314.764 6.79466 314.475 6.692 314.139C6.58 313.793 6.524 313.411 6.524 312.991C6.524 312.636 6.552 312.323 6.608 312.053C6.65466 311.773 6.72933 311.521 6.832 311.297C6.92533 311.073 7.04666 310.867 7.196 310.681C7.336 310.494 7.49466 310.312 7.672 310.135L8.722 311.185C8.498 311.399 8.31133 311.656 8.162 311.955C8.01266 312.253 7.938 312.58 7.938 312.935C7.938 313.327 8.008 313.611 8.148 313.789C8.288 313.957 8.47 314.041 8.694 314.041C8.93666 314.041 9.12333 313.971 9.254 313.831C9.37533 313.681 9.464 313.434 9.52 313.089L9.618 312.347C9.842 310.769 10.5607 309.981 11.774 309.981C12.1287 309.981 12.4553 310.055 12.754 310.205C13.0433 310.345 13.2953 310.545 13.51 310.807C13.7153 311.068 13.8787 311.385 14 311.759C14.112 312.123 14.168 312.533 14.168 312.991ZM14 306.066C14 306.682 13.8413 307.153 13.524 307.48C13.1973 307.797 12.7353 307.956 12.138 307.956L8.12 307.956L8.12 309.034L6.692 309.034L6.692 308.474C6.692 308.203 6.63133 308.021 6.51 307.928C6.37933 307.825 6.188 307.774 5.936 307.774L4.69 307.774L4.69 306.164L6.692 306.164L6.692 304.666L8.12 304.666L8.12 306.164L12.572 306.164L12.572 304.778L14 304.778L14 306.066ZM5.628 298.587C5.628 298.96 5.544 299.231 5.376 299.399C5.208 299.557 4.99333 299.637 4.732 299.637L4.452 299.637C4.19066 299.637 3.976 299.557 3.808 299.399C3.64 299.231 3.556 298.96 3.556 298.587C3.556 298.223 3.64 297.957 3.808 297.789C3.976 297.621 4.19066 297.537 4.452 297.537L4.732 297.537C4.99333 297.537 5.208 297.621 5.376 297.789C5.544 297.957 5.628 298.223 5.628 298.587ZM6.692 299.483L6.692 297.691L14 297.691L14 299.483L6.692 299.483ZM14 295.454L6.692 295.454L6.692 293.662L7.91 293.662L7.91 293.592C7.518 293.442 7.19133 293.209 6.93 292.892C6.65933 292.565 6.524 292.117 6.524 291.548C6.524 290.792 6.77133 290.213 7.266 289.812C7.76066 289.41 8.46533 289.21 9.38 289.21L14 289.21L14 291.002L9.562 291.002C9.03933 291.002 8.64733 291.095 8.386 291.282C8.12466 291.468 7.994 291.776 7.994 292.206C7.994 292.392 8.022 292.574 8.078 292.752C8.12466 292.92 8.19933 293.074 8.302 293.214C8.39533 293.344 8.51666 293.452 8.666 293.536C8.806 293.62 8.974 293.662 9.17 293.662L14 293.662L14 295.454ZM14 284.781C14 285.397 13.8413 285.869 13.524 286.195C13.1973 286.513 12.7353 286.671 12.138 286.671L8.12 286.671L8.12 287.749L6.692 287.749L6.692 287.189C6.692 286.919 6.63133 286.737 6.51 286.643C6.37933 286.541 6.188 286.489 5.936 286.489L4.69 286.489L4.69 284.879L6.692 284.879L6.692 283.381L8.12 283.381L8.12 284.879L12.572 284.879L12.572 283.493L14 283.493L14 284.781ZM14.168 278.768C14.168 279.309 14.0793 279.794 13.902 280.224C13.7153 280.644 13.4587 281.003 13.132 281.302C12.796 281.591 12.3947 281.815 11.928 281.974C11.452 282.132 10.92 282.212 10.332 282.212C9.75333 282.212 9.23066 282.137 8.764 281.988C8.29733 281.829 7.90066 281.605 7.574 281.316C7.238 281.026 6.98133 280.672 6.804 280.252C6.61733 279.832 6.524 279.356 6.524 278.824C6.524 278.254 6.622 277.76 6.818 277.34C7.014 276.92 7.28 276.574 7.616 276.304C7.952 276.033 8.344 275.832 8.792 275.702C9.23066 275.562 9.702 275.492 10.206 275.492L10.794 275.492L10.794 280.35L10.976 280.35C11.508 280.35 11.9373 280.2 12.264 279.902C12.5813 279.603 12.74 279.16 12.74 278.572C12.74 278.124 12.6467 277.76 12.46 277.48C12.2733 277.19 12.0353 276.934 11.746 276.71L12.824 275.744C13.244 276.042 13.5753 276.453 13.818 276.976C14.0513 277.489 14.168 278.086 14.168 278.768ZM7.868 278.796C7.868 279.272 8.02666 279.65 8.344 279.93C8.66133 280.21 9.072 280.35 9.576 280.35L9.688 280.35L9.688 277.354L9.562 277.354C9.058 277.354 8.652 277.48 8.344 277.732C8.02666 277.974 7.868 278.329 7.868 278.796ZM14.616 267.161C14.9987 267.161 15.3347 267.231 15.624 267.371C15.9227 267.502 16.17 267.721 16.366 268.029C16.562 268.337 16.7113 268.734 16.814 269.219C16.9167 269.704 16.968 270.297 16.968 270.997C16.968 271.613 16.926 272.136 16.842 272.565C16.7673 272.994 16.6553 273.349 16.506 273.629C16.366 273.9 16.1887 274.096 15.974 274.217C15.7593 274.338 15.5167 274.399 15.246 274.399C14.8353 274.399 14.5133 274.287 14.28 274.063C14.056 273.83 13.9113 273.508 13.846 273.097L13.692 273.097C13.6173 273.396 13.4727 273.629 13.258 273.797C13.034 273.956 12.7727 274.035 12.474 274.035C12.2873 274.035 12.124 273.998 11.984 273.923C11.8347 273.848 11.7087 273.75 11.606 273.629C11.5033 273.498 11.4193 273.354 11.354 273.195C11.2793 273.036 11.2233 272.868 11.186 272.691L11.13 272.691C10.9247 273.139 10.64 273.475 10.276 273.699C9.912 273.914 9.48733 274.021 9.002 274.021C8.25533 274.021 7.658 273.764 7.21 273.251C6.75266 272.738 6.524 271.986 6.524 270.997C6.524 270.773 6.538 270.554 6.566 270.339C6.594 270.115 6.64066 269.91 6.706 269.723L6.468 269.723C5.75866 269.723 5.404 269.378 5.404 268.687L5.404 267.553L6.776 267.553L6.776 269.107L6.972 269.107C7.18666 268.724 7.46666 268.44 7.812 268.253C8.15733 268.066 8.554 267.973 9.002 267.973C9.73933 267.973 10.332 268.23 10.78 268.743C11.228 269.247 11.452 269.998 11.452 270.997C11.452 271.426 11.41 271.8 11.326 272.117C11.3913 272.257 11.48 272.378 11.592 272.481C11.6947 272.584 11.8253 272.635 11.984 272.635C12.348 272.635 12.53 272.318 12.53 271.683L12.53 269.723C12.53 268.827 12.7167 268.178 13.09 267.777C13.454 267.366 13.9627 267.161 14.616 267.161ZM14.826 268.841C14.5927 268.841 14.4107 268.934 14.28 269.121C14.1493 269.308 14.084 269.63 14.084 270.087L14.084 272.579C14.2707 272.831 14.5227 272.957 14.84 272.957C15.12 272.957 15.3393 272.84 15.498 272.607C15.6567 272.374 15.736 271.977 15.736 271.417L15.736 270.521C15.736 269.933 15.6613 269.508 15.512 269.247C15.3627 268.976 15.134 268.841 14.826 268.841ZM10.234 270.997C10.234 270.12 9.86066 269.681 9.114 269.681L8.876 269.681C8.12933 269.681 7.756 270.12 7.756 270.997C7.756 271.874 8.12933 272.313 8.876 272.313L9.114 272.313C9.86066 272.313 10.234 271.874 10.234 270.997ZM14.168 263.094C14.168 263.635 14.0793 264.121 13.902 264.55C13.7153 264.97 13.4587 265.329 13.132 265.628C12.796 265.917 12.3947 266.141 11.928 266.3C11.452 266.459 10.92 266.538 10.332 266.538C9.75333 266.538 9.23066 266.463 8.764 266.314C8.29733 266.155 7.90066 265.931 7.574 265.642C7.238 265.353 6.98133 264.998 6.804 264.578C6.61733 264.158 6.524 263.682 6.524 263.15C6.524 262.581 6.622 262.086 6.818 261.666C7.014 261.246 7.28 260.901 7.616 260.63C7.952 260.359 8.344 260.159 8.792 260.028C9.23066 259.888 9.702 259.818 10.206 259.818L10.794 259.818L10.794 264.676L10.976 264.676C11.508 264.676 11.9373 264.527 12.264 264.228C12.5813 263.929 12.74 263.486 12.74 262.898C12.74 262.45 12.6467 262.086 12.46 261.806C12.2733 261.517 12.0353 261.26 11.746 261.036L12.824 260.07C13.244 260.369 13.5753 260.779 13.818 261.302C14.0513 261.815 14.168 262.413 14.168 263.094ZM7.868 263.122C7.868 263.598 8.02666 263.976 8.344 264.256C8.66133 264.536 9.072 264.676 9.576 264.676L9.688 264.676L9.688 261.68L9.562 261.68C9.058 261.68 8.652 261.806 8.344 262.058C8.02666 262.301 7.868 262.655 7.868 263.122ZM14 258.081L6.692 258.081L6.692 256.289L8.204 256.289L8.204 256.219C8.008 256.173 7.82133 256.103 7.644 256.009C7.45733 255.907 7.294 255.776 7.154 255.617C7.014 255.459 6.902 255.272 6.818 255.057C6.734 254.833 6.692 254.577 6.692 254.287L6.692 253.895L8.386 253.895L8.386 254.455C8.386 255.062 8.47466 255.519 8.652 255.827C8.82933 256.135 9.11866 256.289 9.52 256.289L14 256.289L14 258.081ZM14.168 250.031C14.168 250.731 14.0513 251.319 13.818 251.795C13.5753 252.271 13.244 252.691 12.824 253.055L11.76 251.963C12.068 251.693 12.3107 251.399 12.488 251.081C12.6653 250.755 12.754 250.381 12.754 249.961C12.754 249.532 12.6793 249.224 12.53 249.037C12.3807 248.841 12.1753 248.743 11.914 248.743C11.6993 248.743 11.5313 248.813 11.41 248.953C11.2793 249.084 11.1907 249.313 11.144 249.639L11.046 250.367C10.9433 251.161 10.7193 251.767 10.374 252.187C10.0193 252.598 9.506 252.803 8.834 252.803C8.47933 252.803 8.162 252.738 7.882 252.607C7.59266 252.477 7.35 252.29 7.154 252.047C6.94866 251.805 6.79466 251.515 6.692 251.179C6.58 250.834 6.52399 250.451 6.52399 250.031C6.52399 249.677 6.552 249.364 6.608 249.093C6.65466 248.813 6.72933 248.561 6.832 248.337C6.92533 248.113 7.04666 247.908 7.19599 247.721C7.336 247.535 7.49466 247.353 7.672 247.175L8.722 248.225C8.498 248.44 8.31133 248.697 8.162 248.995C8.01266 249.294 7.938 249.621 7.938 249.975C7.938 250.367 8.008 250.652 8.148 250.829C8.288 250.997 8.47 251.081 8.694 251.081C8.93666 251.081 9.12333 251.011 9.254 250.871C9.37533 250.722 9.464 250.475 9.52 250.129L9.618 249.387C9.842 247.81 10.5607 247.021 11.774 247.021C12.1287 247.021 12.4553 247.096 12.754 247.245C13.0433 247.385 13.2953 247.586 13.51 247.847C13.7153 248.109 13.8787 248.426 14 248.799C14.112 249.163 14.168 249.574 14.168 250.031ZM8.10599 241.446L8.10599 242.524L6.69199 242.524L6.69199 241.446L5.642 241.446C4.998 241.446 4.50333 241.278 4.15799 240.942C3.81266 240.597 3.63999 240.093 3.63999 239.43L3.63999 238.156L5.06799 238.156L5.06799 239.654L6.69199 239.654L6.69199 238.156L8.10599 238.156L8.10599 239.654L14 239.654L14 241.446L8.10599 241.446ZM14 231.38C14 231.772 13.888 232.085 13.664 232.318C13.4307 232.542 13.1227 232.682 12.74 232.738L12.74 232.822C13.216 232.943 13.5753 233.191 13.818 233.564C14.0513 233.937 14.168 234.399 14.168 234.95C14.168 235.697 13.972 236.271 13.58 236.672C13.188 237.073 12.6653 237.274 12.012 237.274C11.256 237.274 10.696 237.003 10.332 236.462C9.95866 235.921 9.77199 235.151 9.77199 234.152L9.77199 232.906L9.23999 232.906C8.82933 232.906 8.51199 233.013 8.28799 233.228C8.06399 233.443 7.95199 233.788 7.95199 234.264C7.95199 234.684 8.04533 235.025 8.23199 235.286C8.40933 235.538 8.62399 235.753 8.87599 235.93L7.92399 236.994C7.50399 236.723 7.16799 236.364 6.91599 235.916C6.65466 235.468 6.52399 234.875 6.52399 234.138C6.52399 233.149 6.74799 232.397 7.19599 231.884C7.64399 231.371 8.28799 231.114 9.12799 231.114L12.572 231.114L12.572 230.386L14 230.386L14 231.38ZM12.866 234.348C12.866 233.947 12.7773 233.606 12.6 233.326C12.4227 233.046 12.1613 232.906 11.816 232.906L10.85 232.906L10.85 234.054C10.85 234.987 11.1487 235.454 11.746 235.454L11.984 235.454C12.2827 235.454 12.5067 235.361 12.656 235.174C12.796 234.978 12.866 234.703 12.866 234.348ZM14.168 225.892C14.168 226.433 14.0793 226.914 13.902 227.334C13.7247 227.754 13.468 228.108 13.132 228.398C12.796 228.678 12.3947 228.892 11.928 229.042C11.452 229.191 10.92 229.266 10.332 229.266C9.74399 229.266 9.21666 229.191 8.74999 229.042C8.28333 228.892 7.88666 228.678 7.55999 228.398C7.22399 228.108 6.96733 227.754 6.78999 227.334C6.61266 226.914 6.52399 226.433 6.52399 225.892C6.52399 225.154 6.68733 224.548 7.01399 224.072C7.34066 223.586 7.79333 223.236 8.37199 223.022L9.02999 224.492C8.72199 224.576 8.46999 224.734 8.27399 224.968C8.06866 225.192 7.96599 225.5 7.96599 225.892C7.96599 226.396 8.12466 226.774 8.44199 227.026C8.75933 227.268 9.17466 227.39 9.68799 227.39L11.018 227.39C11.5313 227.39 11.9467 227.268 12.264 227.026C12.572 226.774 12.726 226.396 12.726 225.892C12.726 225.462 12.6187 225.131 12.404 224.898C12.18 224.664 11.9047 224.482 11.578 224.352L12.236 222.98C12.88 223.222 13.3653 223.591 13.692 224.086C14.0093 224.58 14.168 225.182 14.168 225.892ZM14 219.156C14 219.772 13.8413 220.243 13.524 220.57C13.1973 220.887 12.7353 221.046 12.138 221.046L8.11999 221.046L8.11999 222.124L6.69199 222.124L6.69199 221.564C6.69199 221.293 6.63133 221.111 6.50999 221.018C6.37933 220.915 6.18799 220.864 5.93599 220.864L4.68999 220.864L4.68999 219.254L6.69199 219.254L6.69199 217.756L8.11999 217.756L8.11999 219.254L12.572 219.254L12.572 217.868L14 217.868L14 219.156ZM14.168 213.198C14.168 213.721 14.0793 214.192 13.902 214.612C13.7247 215.023 13.468 215.378 13.132 215.676C12.796 215.966 12.3947 216.19 11.928 216.348C11.452 216.507 10.92 216.586 10.332 216.586C9.74399 216.586 9.21666 216.507 8.74999 216.348C8.28333 216.19 7.88666 215.966 7.55999 215.676C7.22399 215.378 6.96733 215.023 6.78999 214.612C6.61266 214.192 6.52399 213.721 6.52399 213.198C6.52399 212.676 6.61266 212.204 6.78999 211.784C6.96733 211.364 7.22399 211.01 7.55999 210.72C7.88666 210.422 8.28333 210.193 8.74999 210.034C9.21666 209.876 9.74399 209.796 10.332 209.796C10.92 209.796 11.452 209.876 11.928 210.034C12.3947 210.193 12.796 210.422 13.132 210.72C13.468 211.01 13.7247 211.364 13.902 211.784C14.0793 212.204 14.168 212.676 14.168 213.198ZM12.726 213.198C12.726 212.722 12.5813 212.349 12.292 212.078C12.0027 211.808 11.578 211.672 11.018 211.672L9.65999 211.672C9.10933 211.672 8.68933 211.808 8.39999 212.078C8.11066 212.349 7.96599 212.722 7.96599 213.198C7.96599 213.665 8.11066 214.034 8.39999 214.304C8.68933 214.575 9.10933 214.71 9.65999 214.71L11.018 214.71C11.578 214.71 12.0027 214.575 12.292 214.304C12.5813 214.034 12.726 213.665 12.726 213.198ZM14 208.048L6.69199 208.048L6.69199 206.256L8.20399 206.256L8.20399 206.186C8.00799 206.139 7.82133 206.069 7.64399 205.976C7.45733 205.873 7.29399 205.742 7.15399 205.584C7.01399 205.425 6.90199 205.238 6.81799 205.024C6.73399 204.8 6.69199 204.543 6.69199 204.254L6.69199 203.862L8.38599 203.862L8.38599 204.422C8.38599 205.028 8.47466 205.486 8.65199 205.794C8.82933 206.102 9.11866 206.256 9.51999 206.256L14 206.256L14 208.048ZM5.62799 201.495C5.62799 201.869 5.54399 202.139 5.37599 202.307C5.20799 202.466 4.99333 202.545 4.73199 202.545L4.45199 202.545C4.19066 202.545 3.97599 202.466 3.80799 202.307C3.63999 202.139 3.55599 201.869 3.55599 201.495C3.55599 201.131 3.63999 200.865 3.80799 200.697C3.97599 200.529 4.19066 200.445 4.45199 200.445L4.73199 200.445C4.99333 200.445 5.20799 200.529 5.37599 200.697C5.54399 200.865 5.62799 201.131 5.62799 201.495ZM6.69199 202.391L6.69199 200.599L14 200.599L14 202.391L6.69199 202.391ZM14 198.88L12.572 198.88L8.10599 195.086L8.10599 198.754L6.69199 198.754L6.69199 192.986L8.07799 192.986L12.572 196.808L12.572 192.888L14 192.888L14 198.88ZM14 185.799C14 186.191 13.888 186.504 13.664 186.737C13.4307 186.961 13.1227 187.101 12.74 187.157L12.74 187.241C13.216 187.362 13.5753 187.61 13.818 187.983C14.0513 188.356 14.168 188.818 14.168 189.369C14.168 190.116 13.972 190.69 13.58 191.091C13.188 191.492 12.6653 191.693 12.012 191.693C11.256 191.693 10.696 191.422 10.332 190.881C9.95866 190.34 9.77199 189.57 9.77199 188.571L9.77199 187.325L9.23999 187.325C8.82933 187.325 8.51199 187.432 8.28799 187.647C8.06399 187.862 7.95199 188.207 7.95199 188.683C7.95199 189.103 8.04533 189.444 8.23199 189.705C8.40933 189.957 8.62399 190.172 8.87599 190.349L7.92399 191.413C7.50399 191.142 7.16799 190.783 6.91599 190.335C6.65466 189.887 6.52399 189.294 6.52399 188.557C6.52399 187.568 6.74799 186.816 7.19599 186.303C7.64399 185.79 8.28799 185.533 9.12799 185.533L12.572 185.533L12.572 184.805L14 184.805L14 185.799ZM12.866 188.767C12.866 188.366 12.7773 188.025 12.6 187.745C12.4227 187.465 12.1613 187.325 11.816 187.325L10.85 187.325L10.85 188.473C10.85 189.406 11.1487 189.873 11.746 189.873L11.984 189.873C12.2827 189.873 12.5067 189.78 12.656 189.593C12.796 189.397 12.866 189.122 12.866 188.767ZM3.63999 183.195L3.63999 181.403L7.89599 181.403L7.89599 181.347C7.47599 181.216 7.14466 180.969 6.90199 180.605C6.64999 180.241 6.52399 179.816 6.52399 179.331C6.52399 178.397 6.85533 177.688 7.51799 177.203C8.17133 176.708 9.10933 176.461 10.332 176.461C11.564 176.461 12.5113 176.708 13.174 177.203C13.8367 177.688 14.168 178.397 14.168 179.331C14.168 179.816 14.042 180.241 13.79 180.605C13.538 180.959 13.202 181.207 12.782 181.347L12.782 181.403L14 181.403L14 183.195L3.63999 183.195ZM12.684 179.905C12.684 179.438 12.53 179.06 12.222 178.771C11.914 178.481 11.4987 178.337 10.976 178.337L9.71599 178.337C9.19333 178.337 8.77799 178.481 8.46999 178.771C8.15266 179.06 7.99399 179.438 7.99399 179.905C7.99399 180.334 8.10133 180.693 8.31599 180.983C8.53066 181.263 8.81533 181.403 9.16999 181.403L11.494 181.403C11.8767 181.403 12.1707 181.263 12.376 180.983C12.5813 180.693 12.684 180.334 12.684 179.905ZM14 172.848C14 173.464 13.846 173.917 13.538 174.206C13.23 174.495 12.796 174.64 12.236 174.64L3.63999 174.64L3.63999 172.848L12.572 172.848L12.572 171.882L14 171.882L14 172.848ZM14.168 167.411C14.168 167.952 14.0793 168.438 13.902 168.867C13.7153 169.287 13.4587 169.646 13.132 169.945C12.796 170.234 12.3947 170.458 11.928 170.617C11.452 170.776 10.92 170.855 10.332 170.855C9.75333 170.855 9.23066 170.78 8.76399 170.631C8.29733 170.472 7.90066 170.248 7.57399 169.959C7.23799 169.67 6.98132 169.315 6.80399 168.895C6.61732 168.475 6.52399 167.999 6.52399 167.467C6.52399 166.898 6.62199 166.403 6.81799 165.983C7.01399 165.563 7.27999 165.218 7.61599 164.947C7.95199 164.676 8.34399 164.476 8.79199 164.345C9.23066 164.205 9.70199 164.135 10.206 164.135L10.794 164.135L10.794 168.993L10.976 168.993C11.508 168.993 11.9373 168.844 12.264 168.545C12.5813 168.246 12.74 167.803 12.74 167.215C12.74 166.767 12.6467 166.403 12.46 166.123C12.2733 165.834 12.0353 165.577 11.746 165.353L12.824 164.387C13.244 164.686 13.5753 165.096 13.818 165.619C14.0513 166.132 14.168 166.73 14.168 167.411ZM7.86799 167.439C7.86799 167.915 8.02666 168.293 8.34399 168.573C8.66133 168.853 9.07199 168.993 9.57599 168.993L9.68799 168.993L9.68799 165.997L9.56199 165.997C9.05799 165.997 8.65199 166.123 8.34399 166.375C8.02666 166.618 7.86799 166.972 7.86799 167.439Z" fill="black"/>
<line x1="122.5" x2="122.5" y2="384" stroke="#DDE1E6"/>
<line x1="218.5" x2="218.5" y2="384" stroke="#DDE1E6"/>
<line x1="314.5" x2="314.5" y2="384" stroke="#DDE1E6"/>
<rect x="26.5" y="0.5" width="383" height="383" stroke="#DDE1E6"/>
<path d="M28 382C202 361 308.5 125.5 343 39" stroke="#6929C4"/>
<path d="M28 383C28 218.93 309.5 197.5 397 192" stroke="#1192E8"/>
<path d="M213.096 51.968H211.86C211.524 51.968 211.272 51.872 211.104 51.68C210.936 51.496 210.852 51.264 210.852 50.984V50.132C210.372 50.084 209.936 49.956 209.544 49.748C209.152 49.54 208.82 49.256 208.548 48.896C208.276 48.528 208.064 48.088 207.912 47.576C207.768 47.056 207.696 46.468 207.696 45.812C207.696 45.108 207.78 44.488 207.948 43.952C208.116 43.416 208.352 42.964 208.656 42.596C208.968 42.228 209.34 41.952 209.772 41.768C210.212 41.576 210.704 41.48 211.248 41.48C211.784 41.48 212.272 41.576 212.712 41.768C213.152 41.952 213.524 42.228 213.828 42.596C214.14 42.964 214.38 43.416 214.548 43.952C214.716 44.488 214.8 45.108 214.8 45.812C214.8 47.1 214.532 48.108 213.996 48.836C213.46 49.556 212.732 49.98 211.812 50.108V51.128H213.096V51.968ZM211.248 49.244C211.608 49.244 211.94 49.18 212.244 49.052C212.548 48.924 212.808 48.74 213.024 48.5C213.248 48.26 213.42 47.972 213.54 47.636C213.66 47.3 213.72 46.924 213.72 46.508V45.116C213.72 44.7 213.66 44.324 213.54 43.988C213.42 43.652 213.248 43.364 213.024 43.124C212.808 42.884 212.548 42.7 212.244 42.572C211.94 42.444 211.608 42.38 211.248 42.38C210.888 42.38 210.556 42.444 210.252 42.572C209.948 42.7 209.684 42.884 209.46 43.124C209.244 43.364 209.076 43.652 208.956 43.988C208.836 44.324 208.776 44.7 208.776 45.116V46.508C208.776 46.924 208.836 47.3 208.956 47.636C209.076 47.972 209.244 48.26 209.46 48.5C209.684 48.74 209.948 48.924 210.252 49.052C210.556 49.18 210.888 49.244 211.248 49.244ZM220.652 48.992H220.604C220.54 49.136 220.46 49.28 220.364 49.424C220.276 49.56 220.164 49.684 220.028 49.796C219.892 49.9 219.728 49.984 219.536 50.048C219.344 50.112 219.12 50.144 218.864 50.144C218.224 50.144 217.716 49.94 217.34 49.532C216.964 49.116 216.776 48.532 216.776 47.78V43.808H217.736V47.612C217.736 48.724 218.208 49.28 219.152 49.28C219.344 49.28 219.528 49.256 219.704 49.208C219.888 49.16 220.048 49.088 220.184 48.992C220.328 48.896 220.44 48.776 220.52 48.632C220.608 48.48 220.652 48.3 220.652 48.092V43.808H221.612V50H220.652V48.992ZM228.476 50C228.116 50 227.856 49.904 227.696 49.712C227.544 49.52 227.448 49.28 227.408 48.992H227.348C227.212 49.376 226.988 49.664 226.676 49.856C226.364 50.048 225.992 50.144 225.56 50.144C224.904 50.144 224.392 49.976 224.024 49.64C223.664 49.304 223.484 48.848 223.484 48.272C223.484 47.688 223.696 47.24 224.12 46.928C224.552 46.616 225.22 46.46 226.124 46.46H227.348V45.848C227.348 45.408 227.228 45.072 226.988 44.84C226.748 44.608 226.38 44.492 225.884 44.492C225.508 44.492 225.192 44.576 224.936 44.744C224.688 44.912 224.48 45.136 224.312 45.416L223.736 44.876C223.904 44.54 224.172 44.256 224.54 44.024C224.908 43.784 225.372 43.664 225.932 43.664C226.684 43.664 227.268 43.848 227.684 44.216C228.1 44.584 228.308 45.096 228.308 45.752V49.16H229.016V50H228.476ZM225.716 49.328C225.956 49.328 226.176 49.3 226.376 49.244C226.576 49.188 226.748 49.108 226.892 49.004C227.036 48.9 227.148 48.78 227.228 48.644C227.308 48.508 227.348 48.36 227.348 48.2V47.18H226.076C225.524 47.18 225.12 47.26 224.864 47.42C224.616 47.58 224.492 47.812 224.492 48.116V48.368C224.492 48.672 224.6 48.908 224.816 49.076C225.04 49.244 225.34 49.328 225.716 49.328ZM230.707 50V43.808H231.667V44.816H231.715C231.867 44.464 232.079 44.184 232.351 43.976C232.631 43.768 233.003 43.664 233.467 43.664C234.107 43.664 234.611 43.872 234.979 44.288C235.355 44.696 235.543 45.276 235.543 46.028V50H234.583V46.196C234.583 45.084 234.115 44.528 233.179 44.528C232.987 44.528 232.799 44.552 232.615 44.6C232.439 44.648 232.279 44.72 232.135 44.816C231.991 44.912 231.875 45.036 231.787 45.188C231.707 45.332 231.667 45.504 231.667 45.704V50H230.707ZM239.215 50C238.879 50 238.623 49.908 238.447 49.724C238.279 49.532 238.195 49.284 238.195 48.98V44.648H237.175V43.808H237.751C237.959 43.808 238.099 43.768 238.171 43.688C238.251 43.6 238.291 43.452 238.291 43.244V42.092H239.155V43.808H240.511V44.648H239.155V49.16H240.415V50H239.215ZM246.19 48.992H246.142C246.078 49.136 245.998 49.28 245.902 49.424C245.814 49.56 245.702 49.684 245.566 49.796C245.43 49.9 245.266 49.984 245.074 50.048C244.882 50.112 244.658 50.144 244.402 50.144C243.762 50.144 243.254 49.94 242.878 49.532C242.502 49.116 242.314 48.532 242.314 47.78V43.808H243.274V47.612C243.274 48.724 243.746 49.28 244.69 49.28C244.882 49.28 245.066 49.256 245.242 49.208C245.426 49.16 245.586 49.088 245.722 48.992C245.866 48.896 245.978 48.776 246.058 48.632C246.146 48.48 246.19 48.3 246.19 48.092V43.808H247.15V50H246.19V48.992ZM249.514 50V43.808H250.474V44.816H250.522C250.594 44.656 250.674 44.508 250.762 44.372C250.858 44.228 250.97 44.104 251.098 44C251.234 43.896 251.39 43.816 251.566 43.76C251.742 43.696 251.95 43.664 252.19 43.664C252.598 43.664 252.974 43.764 253.318 43.964C253.662 44.156 253.918 44.476 254.086 44.924H254.11C254.222 44.588 254.43 44.296 254.734 44.048C255.046 43.792 255.466 43.664 255.994 43.664C256.626 43.664 257.118 43.872 257.47 44.288C257.83 44.696 258.01 45.276 258.01 46.028V50H257.05V46.196C257.05 45.644 256.942 45.228 256.726 44.948C256.51 44.668 256.166 44.528 255.694 44.528C255.502 44.528 255.318 44.552 255.142 44.6C254.974 44.648 254.822 44.72 254.686 44.816C254.55 44.912 254.442 45.036 254.362 45.188C254.282 45.332 254.242 45.504 254.242 45.704V50H253.282V46.196C253.282 45.644 253.174 45.228 252.958 44.948C252.742 44.668 252.406 44.528 251.95 44.528C251.758 44.528 251.574 44.552 251.398 44.6C251.222 44.648 251.066 44.72 250.93 44.816C250.794 44.912 250.682 45.036 250.594 45.188C250.514 45.332 250.474 45.504 250.474 45.704V50H249.514ZM265.771 50.144C265.339 50.144 264.951 50.068 264.607 49.916C264.263 49.764 263.971 49.548 263.731 49.268C263.499 48.988 263.319 48.648 263.191 48.248C263.071 47.848 263.011 47.4 263.011 46.904C263.011 46.408 263.071 45.96 263.191 45.56C263.319 45.16 263.499 44.82 263.731 44.54C263.971 44.26 264.263 44.044 264.607 43.892C264.951 43.74 265.339 43.664 265.771 43.664C266.387 43.664 266.879 43.8 267.247 44.072C267.623 44.336 267.903 44.684 268.087 45.116L267.283 45.524C267.171 45.204 266.987 44.956 266.731 44.78C266.475 44.604 266.155 44.516 265.771 44.516C265.483 44.516 265.231 44.564 265.015 44.66C264.799 44.748 264.619 44.876 264.475 45.044C264.331 45.204 264.223 45.4 264.151 45.632C264.079 45.856 264.043 46.104 264.043 46.376V47.432C264.043 47.976 264.187 48.424 264.475 48.776C264.771 49.12 265.203 49.292 265.771 49.292C266.547 49.292 267.107 48.932 267.451 48.212L268.147 48.68C267.947 49.128 267.647 49.484 267.247 49.748C266.855 50.012 266.363 50.144 265.771 50.144ZM272.092 50.144C271.676 50.144 271.296 50.068 270.952 49.916C270.608 49.764 270.312 49.548 270.064 49.268C269.824 48.98 269.636 48.64 269.5 48.248C269.364 47.848 269.296 47.4 269.296 46.904C269.296 46.416 269.364 45.972 269.5 45.572C269.636 45.172 269.824 44.832 270.064 44.552C270.312 44.264 270.608 44.044 270.952 43.892C271.296 43.74 271.676 43.664 272.092 43.664C272.508 43.664 272.884 43.74 273.22 43.892C273.564 44.044 273.86 44.264 274.108 44.552C274.356 44.832 274.548 45.172 274.684 45.572C274.82 45.972 274.888 46.416 274.888 46.904C274.888 47.4 274.82 47.848 274.684 48.248C274.548 48.64 274.356 48.98 274.108 49.268C273.86 49.548 273.564 49.764 273.22 49.916C272.884 50.068 272.508 50.144 272.092 50.144ZM272.092 49.292C272.612 49.292 273.036 49.132 273.364 48.812C273.692 48.492 273.856 48.004 273.856 47.348V46.46C273.856 45.804 273.692 45.316 273.364 44.996C273.036 44.676 272.612 44.516 272.092 44.516C271.572 44.516 271.148 44.676 270.82 44.996C270.492 45.316 270.328 45.804 270.328 46.46V47.348C270.328 48.004 270.492 48.492 270.82 48.812C271.148 49.132 271.572 49.292 272.092 49.292ZM276.786 50V43.808H277.746V44.816H277.794C277.866 44.656 277.946 44.508 278.034 44.372C278.13 44.228 278.242 44.104 278.37 44C278.506 43.896 278.662 43.816 278.838 43.76C279.014 43.696 279.222 43.664 279.462 43.664C279.87 43.664 280.246 43.764 280.59 43.964C280.934 44.156 281.19 44.476 281.358 44.924H281.382C281.494 44.588 281.702 44.296 282.006 44.048C282.318 43.792 282.738 43.664 283.266 43.664C283.898 43.664 284.39 43.872 284.742 44.288C285.102 44.696 285.282 45.276 285.282 46.028V50H284.322V46.196C284.322 45.644 284.214 45.228 283.998 44.948C283.782 44.668 283.438 44.528 282.966 44.528C282.774 44.528 282.59 44.552 282.414 44.6C282.246 44.648 282.094 44.72 281.958 44.816C281.822 44.912 281.714 45.036 281.634 45.188C281.554 45.332 281.514 45.504 281.514 45.704V50H280.554V46.196C280.554 45.644 280.446 45.228 280.23 44.948C280.014 44.668 279.678 44.528 279.222 44.528C279.03 44.528 278.846 44.552 278.67 44.6C278.494 44.648 278.338 44.72 278.202 44.816C278.066 44.912 277.954 45.036 277.866 45.188C277.786 45.332 277.746 45.504 277.746 45.704V50H276.786ZM287.583 43.808H288.543V44.816H288.591C288.751 44.424 288.983 44.136 289.287 43.952C289.599 43.76 289.971 43.664 290.403 43.664C290.787 43.664 291.135 43.74 291.447 43.892C291.759 44.044 292.023 44.26 292.239 44.54C292.463 44.82 292.631 45.16 292.743 45.56C292.863 45.96 292.923 46.408 292.923 46.904C292.923 47.4 292.863 47.848 292.743 48.248C292.631 48.648 292.463 48.988 292.239 49.268C292.023 49.548 291.759 49.764 291.447 49.916C291.135 50.068 290.787 50.144 290.403 50.144C289.563 50.144 288.959 49.76 288.591 48.992H288.543V52.4H287.583V43.808ZM290.139 49.28C290.683 49.28 291.111 49.112 291.423 48.776C291.735 48.432 291.891 47.984 291.891 47.432V46.376C291.891 45.824 291.735 45.38 291.423 45.044C291.111 44.7 290.683 44.528 290.139 44.528C289.923 44.528 289.715 44.56 289.515 44.624C289.323 44.68 289.155 44.76 289.011 44.864C288.867 44.968 288.751 45.096 288.663 45.248C288.583 45.392 288.543 45.548 288.543 45.716V48.02C288.543 48.22 288.583 48.4 288.663 48.56C288.751 48.712 288.867 48.844 289.011 48.956C289.155 49.06 289.323 49.14 289.515 49.196C289.715 49.252 289.923 49.28 290.139 49.28ZM298.68 48.992H298.632C298.568 49.136 298.488 49.28 298.392 49.424C298.304 49.56 298.192 49.684 298.056 49.796C297.92 49.9 297.756 49.984 297.564 50.048C297.372 50.112 297.148 50.144 296.892 50.144C296.252 50.144 295.744 49.94 295.368 49.532C294.992 49.116 294.804 48.532 294.804 47.78V43.808H295.764V47.612C295.764 48.724 296.236 49.28 297.18 49.28C297.372 49.28 297.556 49.256 297.732 49.208C297.916 49.16 298.076 49.088 298.212 48.992C298.356 48.896 298.468 48.776 298.548 48.632C298.636 48.48 298.68 48.3 298.68 48.092V43.808H299.64V50H298.68V48.992ZM303.372 50C303.036 50 302.78 49.908 302.604 49.724C302.436 49.532 302.352 49.284 302.352 48.98V44.648H301.332V43.808H301.908C302.116 43.808 302.256 43.768 302.328 43.688C302.408 43.6 302.448 43.452 302.448 43.244V42.092H303.312V43.808H304.668V44.648H303.312V49.16H304.572V50H303.372ZM308.812 50.144C308.388 50.144 308.004 50.068 307.66 49.916C307.324 49.764 307.032 49.548 306.784 49.268C306.544 48.98 306.356 48.64 306.22 48.248C306.092 47.848 306.028 47.4 306.028 46.904C306.028 46.416 306.092 45.972 306.22 45.572C306.356 45.172 306.544 44.832 306.784 44.552C307.032 44.264 307.324 44.044 307.66 43.892C308.004 43.74 308.388 43.664 308.812 43.664C309.228 43.664 309.6 43.74 309.928 43.892C310.256 44.044 310.536 44.256 310.768 44.528C311 44.792 311.176 45.108 311.296 45.476C311.424 45.844 311.488 46.248 311.488 46.688V47.144H307.036V47.432C307.036 47.696 307.076 47.944 307.156 48.176C307.244 48.4 307.364 48.596 307.516 48.764C307.676 48.932 307.868 49.064 308.092 49.16C308.324 49.256 308.584 49.304 308.872 49.304C309.264 49.304 309.604 49.212 309.892 49.028C310.188 48.844 310.416 48.58 310.576 48.236L311.26 48.728C311.06 49.152 310.748 49.496 310.324 49.76C309.9 50.016 309.396 50.144 308.812 50.144ZM308.812 44.468C308.548 44.468 308.308 44.516 308.092 44.612C307.876 44.7 307.688 44.828 307.528 44.996C307.376 45.164 307.256 45.364 307.168 45.596C307.08 45.82 307.036 46.068 307.036 46.34V46.424H310.456V46.292C310.456 45.74 310.304 45.3 310 44.972C309.704 44.636 309.308 44.468 308.812 44.468ZM313.39 50V43.808H314.35V44.948H314.41C314.522 44.652 314.722 44.388 315.01 44.156C315.298 43.924 315.694 43.808 316.198 43.808H316.57V44.768H316.006C315.486 44.768 315.078 44.868 314.782 45.068C314.494 45.26 314.35 45.504 314.35 45.8V50H313.39ZM319.977 50.144C319.401 50.144 318.917 50.036 318.525 49.82C318.141 49.596 317.809 49.3 317.529 48.932L318.213 48.38C318.453 48.684 318.721 48.92 319.017 49.088C319.313 49.248 319.657 49.328 320.049 49.328C320.457 49.328 320.773 49.24 320.997 49.064C321.229 48.888 321.345 48.64 321.345 48.32C321.345 48.08 321.265 47.876 321.105 47.708C320.953 47.532 320.673 47.412 320.265 47.348L319.773 47.276C319.485 47.236 319.221 47.176 318.981 47.096C318.741 47.008 318.529 46.896 318.345 46.76C318.169 46.616 318.029 46.44 317.925 46.232C317.829 46.024 317.781 45.776 317.781 45.488C317.781 45.184 317.837 44.92 317.949 44.696C318.061 44.464 318.213 44.272 318.405 44.12C318.605 43.968 318.841 43.856 319.113 43.784C319.385 43.704 319.677 43.664 319.989 43.664C320.493 43.664 320.913 43.752 321.249 43.928C321.593 44.104 321.893 44.348 322.149 44.66L321.513 45.236C321.377 45.044 321.177 44.872 320.913 44.72C320.649 44.56 320.317 44.48 319.917 44.48C319.517 44.48 319.213 44.568 319.005 44.744C318.805 44.912 318.705 45.144 318.705 45.44C318.705 45.744 318.805 45.964 319.005 46.1C319.213 46.236 319.509 46.336 319.893 46.4L320.373 46.472C321.061 46.576 321.549 46.776 321.837 47.072C322.125 47.36 322.269 47.74 322.269 48.212C322.269 48.812 322.065 49.284 321.657 49.628C321.249 49.972 320.689 50.144 319.977 50.144Z" fill="#6929C4"/>
<path d="M326.936 157.512V165H325.928V157.512H323.264V156.624H329.6V157.512H326.936ZM330.668 165V158.808H331.628V159.948H331.688C331.8 159.652 332 159.388 332.288 159.156C332.576 158.924 332.972 158.808 333.476 158.808H333.848V159.768H333.284C332.764 159.768 332.356 159.868 332.06 160.068C331.772 160.26 331.628 160.504 331.628 160.8V165H330.668ZM339.848 165C339.488 165 339.228 164.904 339.068 164.712C338.916 164.52 338.82 164.28 338.78 163.992H338.72C338.584 164.376 338.36 164.664 338.048 164.856C337.736 165.048 337.364 165.144 336.932 165.144C336.276 165.144 335.764 164.976 335.396 164.64C335.036 164.304 334.856 163.848 334.856 163.272C334.856 162.688 335.068 162.24 335.492 161.928C335.924 161.616 336.592 161.46 337.496 161.46H338.72V160.848C338.72 160.408 338.6 160.072 338.36 159.84C338.12 159.608 337.752 159.492 337.256 159.492C336.88 159.492 336.564 159.576 336.308 159.744C336.06 159.912 335.852 160.136 335.684 160.416L335.108 159.876C335.276 159.54 335.544 159.256 335.912 159.024C336.28 158.784 336.744 158.664 337.304 158.664C338.056 158.664 338.64 158.848 339.056 159.216C339.472 159.584 339.68 160.096 339.68 160.752V164.16H340.388V165H339.848ZM337.088 164.328C337.328 164.328 337.548 164.3 337.748 164.244C337.948 164.188 338.12 164.108 338.264 164.004C338.408 163.9 338.52 163.78 338.6 163.644C338.68 163.508 338.72 163.36 338.72 163.2V162.18H337.448C336.896 162.18 336.492 162.26 336.236 162.42C335.988 162.58 335.864 162.812 335.864 163.116V163.368C335.864 163.672 335.972 163.908 336.188 164.076C336.412 164.244 336.712 164.328 337.088 164.328ZM346.038 163.992H345.99C345.614 164.76 345.01 165.144 344.178 165.144C343.794 165.144 343.446 165.068 343.134 164.916C342.822 164.764 342.554 164.548 342.33 164.268C342.114 163.988 341.946 163.648 341.826 163.248C341.714 162.848 341.658 162.4 341.658 161.904C341.658 161.408 341.714 160.96 341.826 160.56C341.946 160.16 342.114 159.82 342.33 159.54C342.554 159.26 342.822 159.044 343.134 158.892C343.446 158.74 343.794 158.664 344.178 158.664C344.61 158.664 344.978 158.76 345.282 158.952C345.594 159.136 345.83 159.424 345.99 159.816H346.038V156.12H346.998V165H346.038V163.992ZM344.442 164.28C344.658 164.28 344.862 164.252 345.054 164.196C345.254 164.14 345.426 164.06 345.57 163.956C345.714 163.844 345.826 163.712 345.906 163.56C345.994 163.4 346.038 163.22 346.038 163.02V160.716C346.038 160.548 345.994 160.392 345.906 160.248C345.826 160.096 345.714 159.968 345.57 159.864C345.426 159.76 345.254 159.68 345.054 159.624C344.862 159.56 344.658 159.528 344.442 159.528C343.898 159.528 343.47 159.7 343.158 160.044C342.846 160.38 342.69 160.824 342.69 161.376V162.432C342.69 162.984 342.846 163.432 343.158 163.776C343.47 164.112 343.898 164.28 344.442 164.28ZM349.839 157.356C349.631 157.356 349.479 157.308 349.383 157.212C349.295 157.108 349.251 156.976 349.251 156.816V156.66C349.251 156.5 349.295 156.372 349.383 156.276C349.479 156.172 349.631 156.12 349.839 156.12C350.047 156.12 350.195 156.172 350.283 156.276C350.379 156.372 350.427 156.5 350.427 156.66V156.816C350.427 156.976 350.379 157.108 350.283 157.212C350.195 157.308 350.047 157.356 349.839 157.356ZM349.359 158.808H350.319V165H349.359V158.808ZM354.047 165C353.711 165 353.455 164.908 353.279 164.724C353.111 164.532 353.027 164.284 353.027 163.98V159.648H352.007V158.808H352.583C352.791 158.808 352.931 158.768 353.003 158.688C353.083 158.6 353.123 158.452 353.123 158.244V157.092H353.987V158.808H355.343V159.648H353.987V164.16H355.247V165H354.047ZM357.686 157.356C357.478 157.356 357.326 157.308 357.23 157.212C357.142 157.108 357.098 156.976 357.098 156.816V156.66C357.098 156.5 357.142 156.372 357.23 156.276C357.326 156.172 357.478 156.12 357.686 156.12C357.894 156.12 358.042 156.172 358.13 156.276C358.226 156.372 358.274 156.5 358.274 156.66V156.816C358.274 156.976 358.226 157.108 358.13 157.212C358.042 157.308 357.894 157.356 357.686 157.356ZM357.206 158.808H358.166V165H357.206V158.808ZM362.866 165.144C362.45 165.144 362.07 165.068 361.726 164.916C361.382 164.764 361.086 164.548 360.838 164.268C360.598 163.98 360.41 163.64 360.274 163.248C360.138 162.848 360.07 162.4 360.07 161.904C360.07 161.416 360.138 160.972 360.274 160.572C360.41 160.172 360.598 159.832 360.838 159.552C361.086 159.264 361.382 159.044 361.726 158.892C362.07 158.74 362.45 158.664 362.866 158.664C363.282 158.664 363.658 158.74 363.994 158.892C364.338 159.044 364.634 159.264 364.882 159.552C365.13 159.832 365.322 160.172 365.458 160.572C365.594 160.972 365.662 161.416 365.662 161.904C365.662 162.4 365.594 162.848 365.458 163.248C365.322 163.64 365.13 163.98 364.882 164.268C364.634 164.548 364.338 164.764 363.994 164.916C363.658 165.068 363.282 165.144 362.866 165.144ZM362.866 164.292C363.386 164.292 363.81 164.132 364.138 163.812C364.466 163.492 364.63 163.004 364.63 162.348V161.46C364.63 160.804 364.466 160.316 364.138 159.996C363.81 159.676 363.386 159.516 362.866 159.516C362.346 159.516 361.922 159.676 361.594 159.996C361.266 160.316 361.102 160.804 361.102 161.46V162.348C361.102 163.004 361.266 163.492 361.594 163.812C361.922 164.132 362.346 164.292 362.866 164.292ZM367.56 165V158.808H368.52V159.816H368.568C368.72 159.464 368.932 159.184 369.204 158.976C369.484 158.768 369.856 158.664 370.32 158.664C370.96 158.664 371.464 158.872 371.832 159.288C372.208 159.696 372.396 160.276 372.396 161.028V165H371.436V161.196C371.436 160.084 370.968 159.528 370.032 159.528C369.84 159.528 369.652 159.552 369.468 159.6C369.292 159.648 369.132 159.72 368.988 159.816C368.844 159.912 368.728 160.036 368.64 160.188C368.56 160.332 368.52 160.504 368.52 160.704V165H367.56ZM379.201 165C378.841 165 378.581 164.904 378.421 164.712C378.269 164.52 378.173 164.28 378.133 163.992H378.073C377.937 164.376 377.713 164.664 377.401 164.856C377.089 165.048 376.717 165.144 376.285 165.144C375.629 165.144 375.117 164.976 374.749 164.64C374.389 164.304 374.209 163.848 374.209 163.272C374.209 162.688 374.421 162.24 374.845 161.928C375.277 161.616 375.945 161.46 376.849 161.46H378.073V160.848C378.073 160.408 377.953 160.072 377.713 159.84C377.473 159.608 377.105 159.492 376.609 159.492C376.233 159.492 375.917 159.576 375.661 159.744C375.413 159.912 375.205 160.136 375.037 160.416L374.461 159.876C374.629 159.54 374.897 159.256 375.265 159.024C375.633 158.784 376.097 158.664 376.657 158.664C377.409 158.664 377.993 158.848 378.409 159.216C378.825 159.584 379.033 160.096 379.033 160.752V164.16H379.741V165H379.201ZM376.441 164.328C376.681 164.328 376.901 164.3 377.101 164.244C377.301 164.188 377.473 164.108 377.617 164.004C377.761 163.9 377.873 163.78 377.953 163.644C378.033 163.508 378.073 163.36 378.073 163.2V162.18H376.801C376.249 162.18 375.845 162.26 375.589 162.42C375.341 162.58 375.217 162.812 375.217 163.116V163.368C375.217 163.672 375.325 163.908 375.541 164.076C375.765 164.244 376.065 164.328 376.441 164.328ZM382.451 165C382.115 165 381.859 164.908 381.683 164.724C381.515 164.532 381.431 164.292 381.431 164.004V156.12H382.391V164.16H383.303V165H382.451ZM326.324 181.144C325.892 181.144 325.504 181.068 325.16 180.916C324.816 180.764 324.524 180.548 324.284 180.268C324.052 179.988 323.872 179.648 323.744 179.248C323.624 178.848 323.564 178.4 323.564 177.904C323.564 177.408 323.624 176.96 323.744 176.56C323.872 176.16 324.052 175.82 324.284 175.54C324.524 175.26 324.816 175.044 325.16 174.892C325.504 174.74 325.892 174.664 326.324 174.664C326.94 174.664 327.432 174.8 327.8 175.072C328.176 175.336 328.456 175.684 328.64 176.116L327.836 176.524C327.724 176.204 327.54 175.956 327.284 175.78C327.028 175.604 326.708 175.516 326.324 175.516C326.036 175.516 325.784 175.564 325.568 175.66C325.352 175.748 325.172 175.876 325.028 176.044C324.884 176.204 324.776 176.4 324.704 176.632C324.632 176.856 324.596 177.104 324.596 177.376V178.432C324.596 178.976 324.74 179.424 325.028 179.776C325.324 180.12 325.756 180.292 326.324 180.292C327.1 180.292 327.66 179.932 328.004 179.212L328.7 179.68C328.5 180.128 328.2 180.484 327.8 180.748C327.408 181.012 326.916 181.144 326.324 181.144ZM332.645 181.144C332.229 181.144 331.849 181.068 331.505 180.916C331.161 180.764 330.865 180.548 330.617 180.268C330.377 179.98 330.189 179.64 330.053 179.248C329.917 178.848 329.849 178.4 329.849 177.904C329.849 177.416 329.917 176.972 330.053 176.572C330.189 176.172 330.377 175.832 330.617 175.552C330.865 175.264 331.161 175.044 331.505 174.892C331.849 174.74 332.229 174.664 332.645 174.664C333.061 174.664 333.437 174.74 333.773 174.892C334.117 175.044 334.413 175.264 334.661 175.552C334.909 175.832 335.101 176.172 335.237 176.572C335.373 176.972 335.441 177.416 335.441 177.904C335.441 178.4 335.373 178.848 335.237 179.248C335.101 179.64 334.909 179.98 334.661 180.268C334.413 180.548 334.117 180.764 333.773 180.916C333.437 181.068 333.061 181.144 332.645 181.144ZM332.645 180.292C333.165 180.292 333.589 180.132 333.917 179.812C334.245 179.492 334.409 179.004 334.409 178.348V177.46C334.409 176.804 334.245 176.316 333.917 175.996C333.589 175.676 333.165 175.516 332.645 175.516C332.125 175.516 331.701 175.676 331.373 175.996C331.045 176.316 330.881 176.804 330.881 177.46V178.348C330.881 179.004 331.045 179.492 331.373 179.812C331.701 180.132 332.125 180.292 332.645 180.292ZM337.34 181V174.808H338.3V175.816H338.348C338.42 175.656 338.5 175.508 338.588 175.372C338.684 175.228 338.796 175.104 338.924 175C339.06 174.896 339.216 174.816 339.392 174.76C339.568 174.696 339.776 174.664 340.016 174.664C340.424 174.664 340.8 174.764 341.144 174.964C341.488 175.156 341.744 175.476 341.912 175.924H341.936C342.048 175.588 342.256 175.296 342.56 175.048C342.872 174.792 343.292 174.664 343.82 174.664C344.452 174.664 344.944 174.872 345.296 175.288C345.656 175.696 345.836 176.276 345.836 177.028V181H344.876V177.196C344.876 176.644 344.768 176.228 344.552 175.948C344.336 175.668 343.992 175.528 343.52 175.528C343.328 175.528 343.144 175.552 342.968 175.6C342.8 175.648 342.648 175.72 342.512 175.816C342.376 175.912 342.268 176.036 342.188 176.188C342.108 176.332 342.068 176.504 342.068 176.704V181H341.108V177.196C341.108 176.644 341 176.228 340.784 175.948C340.568 175.668 340.232 175.528 339.776 175.528C339.584 175.528 339.4 175.552 339.224 175.6C339.048 175.648 338.892 175.72 338.756 175.816C338.62 175.912 338.508 176.036 338.42 176.188C338.34 176.332 338.3 176.504 338.3 176.704V181H337.34ZM348.136 174.808H349.096V175.816H349.144C349.304 175.424 349.536 175.136 349.84 174.952C350.152 174.76 350.524 174.664 350.956 174.664C351.34 174.664 351.688 174.74 352 174.892C352.312 175.044 352.576 175.26 352.792 175.54C353.016 175.82 353.184 176.16 353.296 176.56C353.416 176.96 353.476 177.408 353.476 177.904C353.476 178.4 353.416 178.848 353.296 179.248C353.184 179.648 353.016 179.988 352.792 180.268C352.576 180.548 352.312 180.764 352 180.916C351.688 181.068 351.34 181.144 350.956 181.144C350.116 181.144 349.512 180.76 349.144 179.992H349.096V183.4H348.136V174.808ZM350.692 180.28C351.236 180.28 351.664 180.112 351.976 179.776C352.288 179.432 352.444 178.984 352.444 178.432V177.376C352.444 176.824 352.288 176.38 351.976 176.044C351.664 175.7 351.236 175.528 350.692 175.528C350.476 175.528 350.268 175.56 350.068 175.624C349.876 175.68 349.708 175.76 349.564 175.864C349.42 175.968 349.304 176.096 349.216 176.248C349.136 176.392 349.096 176.548 349.096 176.716V179.02C349.096 179.22 349.136 179.4 349.216 179.56C349.304 179.712 349.42 179.844 349.564 179.956C349.708 180.06 349.876 180.14 350.068 180.196C350.268 180.252 350.476 180.28 350.692 180.28ZM359.233 179.992H359.185C359.121 180.136 359.041 180.28 358.945 180.424C358.857 180.56 358.745 180.684 358.609 180.796C358.473 180.9 358.309 180.984 358.117 181.048C357.925 181.112 357.701 181.144 357.445 181.144C356.805 181.144 356.297 180.94 355.921 180.532C355.545 180.116 355.357 179.532 355.357 178.78V174.808H356.317V178.612C356.317 179.724 356.789 180.28 357.733 180.28C357.925 180.28 358.109 180.256 358.285 180.208C358.469 180.16 358.629 180.088 358.765 179.992C358.909 179.896 359.021 179.776 359.101 179.632C359.189 179.48 359.233 179.3 359.233 179.092V174.808H360.193V181H359.233V179.992ZM363.925 181C363.589 181 363.333 180.908 363.157 180.724C362.989 180.532 362.905 180.284 362.905 179.98V175.648H361.885V174.808H362.461C362.669 174.808 362.809 174.768 362.881 174.688C362.961 174.6 363.001 174.452 363.001 174.244V173.092H363.865V174.808H365.221V175.648H363.865V180.16H365.125V181H363.925ZM369.366 181.144C368.942 181.144 368.558 181.068 368.214 180.916C367.878 180.764 367.586 180.548 367.338 180.268C367.098 179.98 366.91 179.64 366.774 179.248C366.646 178.848 366.582 178.4 366.582 177.904C366.582 177.416 366.646 176.972 366.774 176.572C366.91 176.172 367.098 175.832 367.338 175.552C367.586 175.264 367.878 175.044 368.214 174.892C368.558 174.74 368.942 174.664 369.366 174.664C369.782 174.664 370.154 174.74 370.482 174.892C370.81 175.044 371.09 175.256 371.322 175.528C371.554 175.792 371.73 176.108 371.85 176.476C371.978 176.844 372.042 177.248 372.042 177.688V178.144H367.59V178.432C367.59 178.696 367.63 178.944 367.71 179.176C367.798 179.4 367.918 179.596 368.07 179.764C368.23 179.932 368.422 180.064 368.646 180.16C368.878 180.256 369.138 180.304 369.426 180.304C369.818 180.304 370.158 180.212 370.446 180.028C370.742 179.844 370.97 179.58 371.13 179.236L371.814 179.728C371.614 180.152 371.302 180.496 370.878 180.76C370.454 181.016 369.95 181.144 369.366 181.144ZM369.366 175.468C369.102 175.468 368.862 175.516 368.646 175.612C368.43 175.7 368.242 175.828 368.082 175.996C367.93 176.164 367.81 176.364 367.722 176.596C367.634 176.82 367.59 177.068 367.59 177.34V177.424H371.01V177.292C371.01 176.74 370.858 176.3 370.554 175.972C370.258 175.636 369.862 175.468 369.366 175.468ZM373.944 181V174.808H374.904V175.948H374.964C375.076 175.652 375.276 175.388 375.564 175.156C375.852 174.924 376.248 174.808 376.752 174.808H377.124V175.768H376.56C376.04 175.768 375.632 175.868 375.336 176.068C375.048 176.26 374.904 176.504 374.904 176.8V181H373.944ZM380.53 181.144C379.954 181.144 379.47 181.036 379.078 180.82C378.694 180.596 378.362 180.3 378.082 179.932L378.766 179.38C379.006 179.684 379.274 179.92 379.57 180.088C379.866 180.248 380.21 180.328 380.602 180.328C381.01 180.328 381.326 180.24 381.55 180.064C381.782 179.888 381.898 179.64 381.898 179.32C381.898 179.08 381.818 178.876 381.658 178.708C381.506 178.532 381.226 178.412 380.818 178.348L380.326 178.276C380.038 178.236 379.774 178.176 379.534 178.096C379.294 178.008 379.082 177.896 378.898 177.76C378.722 177.616 378.582 177.44 378.478 177.232C378.382 177.024 378.334 176.776 378.334 176.488C378.334 176.184 378.39 175.92 378.502 175.696C378.614 175.464 378.766 175.272 378.958 175.12C379.158 174.968 379.394 174.856 379.666 174.784C379.938 174.704 380.23 174.664 380.542 174.664C381.046 174.664 381.466 174.752 381.802 174.928C382.146 175.104 382.446 175.348 382.702 175.66L382.066 176.236C381.93 176.044 381.73 175.872 381.466 175.72C381.202 175.56 380.87 175.48 380.47 175.48C380.07 175.48 379.766 175.568 379.558 175.744C379.358 175.912 379.258 176.144 379.258 176.44C379.258 176.744 379.358 176.964 379.558 177.1C379.766 177.236 380.062 177.336 380.446 177.4L380.926 177.472C381.614 177.576 382.102 177.776 382.39 178.072C382.678 178.36 382.822 178.74 382.822 179.212C382.822 179.812 382.618 180.284 382.21 180.628C381.802 180.972 381.242 181.144 380.53 181.144Z" fill="#1192E8"/>
<path d="M344.278 39.8931L344.609 35.6339L341.56 38.6252L344.278 39.8931Z" fill="#6929C4"/>
<path d="M396 193.5L400 192L396 190.5V193.5Z" fill="#1192E8"/>
</svg>
