<svg width="481" height="154" viewBox="0 0 481 154" fill="none" xmlns="http://www.w3.org/2000/svg">
<rect width="481" height="154" fill="white"/>
<rect width="92" height="26" fill="#F2F4F8"/>
<rect x="385" width="96" height="26" fill="#F2F4F8"/>
<rect x="96" width="285" height="26" fill="#F2F4F8"/>
<path d="M457.707 96.7071C458.098 96.3166 458.098 95.6834 457.707 95.2929L451.343 88.9289C450.953 88.5384 450.319 88.5384 449.929 88.9289C449.538 89.3195 449.538 89.9526 449.929 90.3431L455.586 96L449.929 101.657C449.538 102.047 449.538 102.681 449.929 103.071C450.319 103.462 450.953 103.462 451.343 103.071L457.707 96.7071ZM434 97L457 97L457 95L434 95L434 97Z" fill="#343A3F"/>
<rect x="96" y="30" width="285" height="124" fill="#F2F4F8"/>
<rect y="30" width="92" height="124" fill="#F2F4F8"/>
<rect x="385" y="30" width="96" height="124" fill="#F2F4F8"/>
<path d="M14.012 58.5H10.268L10.028 61.704H10.112C10.32 61.424 10.552 61.204 10.808 61.044C11.064 60.876 11.416 60.792 11.864 60.792C12.232 60.792 12.568 60.852 12.872 60.972C13.184 61.084 13.452 61.252 13.676 61.476C13.9 61.7 14.076 61.972 14.204 62.292C14.332 62.604 14.396 62.964 14.396 63.372C14.396 63.78 14.332 64.156 14.204 64.5C14.076 64.836 13.888 65.128 13.64 65.376C13.392 65.616 13.092 65.804 12.74 65.94C12.388 66.076 11.988 66.144 11.54 66.144C11.188 66.144 10.872 66.104 10.592 66.024C10.32 65.944 10.076 65.836 9.86 65.7C9.652 65.564 9.468 65.412 9.308 65.244C9.148 65.076 9.004 64.9 8.876 64.716L9.632 64.14C9.744 64.308 9.856 64.46 9.968 64.596C10.088 64.732 10.224 64.852 10.376 64.956C10.528 65.052 10.7 65.128 10.892 65.184C11.084 65.24 11.308 65.268 11.564 65.268C12.14 65.268 12.58 65.112 12.884 64.8C13.196 64.488 13.352 64.056 13.352 63.504V63.408C13.352 62.856 13.196 62.424 12.884 62.112C12.572 61.8 12.124 61.644 11.54 61.644C11.14 61.644 10.828 61.712 10.604 61.848C10.388 61.984 10.188 62.152 10.004 62.352L9.152 62.232L9.452 57.624H14.012V58.5ZM19.1273 66.144C18.6873 66.144 18.2913 66.072 17.9393 65.928C17.5873 65.776 17.2873 65.564 17.0393 65.292C16.7993 65.012 16.6113 64.672 16.4753 64.272C16.3473 63.872 16.2833 63.424 16.2833 62.928C16.2833 62.304 16.3753 61.72 16.5593 61.176C16.7513 60.624 16.9913 60.124 17.2793 59.676C17.5753 59.22 17.9033 58.82 18.2633 58.476C18.6233 58.124 18.9753 57.84 19.3193 57.624H20.6153C20.1593 57.952 19.7513 58.272 19.3913 58.584C19.0393 58.896 18.7273 59.224 18.4553 59.568C18.1833 59.904 17.9553 60.268 17.7713 60.66C17.5873 61.044 17.4353 61.48 17.3153 61.968L17.3753 61.992C17.5753 61.648 17.8393 61.364 18.1673 61.14C18.4953 60.908 18.9193 60.792 19.4393 60.792C19.8073 60.792 20.1433 60.852 20.4473 60.972C20.7513 61.092 21.0153 61.264 21.2393 61.488C21.4633 61.712 21.6353 61.984 21.7553 62.304C21.8833 62.624 21.9473 62.98 21.9473 63.372C21.9473 63.78 21.8793 64.156 21.7433 64.5C21.6073 64.836 21.4153 65.128 21.1673 65.376C20.9273 65.616 20.6313 65.804 20.2793 65.94C19.9353 66.076 19.5513 66.144 19.1273 66.144ZM19.1153 65.292C19.6913 65.292 20.1353 65.136 20.4473 64.824C20.7673 64.512 20.9273 64.072 20.9273 63.504V63.408C20.9273 62.84 20.7673 62.4 20.4473 62.088C20.1353 61.776 19.6913 61.62 19.1153 61.62C18.5393 61.62 18.0913 61.776 17.7713 62.088C17.4593 62.4 17.3033 62.84 17.3033 63.408V63.504C17.3033 64.072 17.4593 64.512 17.7713 64.824C18.0913 65.136 18.5393 65.292 19.1153 65.292ZM25.1066 66L28.3826 58.488H24.7106V60.048H23.8106V57.624H29.4026V58.512L26.1866 66H25.1066ZM36.9899 66H31.3979V64.968L34.1939 62.448C34.6019 62.08 34.9379 61.704 35.2019 61.32C35.4659 60.928 35.5979 60.516 35.5979 60.084V59.94C35.5979 59.436 35.4659 59.048 35.2019 58.776C34.9379 58.496 34.5459 58.356 34.0259 58.356C33.5139 58.356 33.1179 58.488 32.8379 58.752C32.5659 59.008 32.3619 59.352 32.2259 59.784L31.3259 59.448C31.4059 59.2 31.5139 58.96 31.6499 58.728C31.7939 58.488 31.9739 58.276 32.1899 58.092C32.4059 57.908 32.6659 57.76 32.9699 57.648C33.2819 57.536 33.6419 57.48 34.0499 57.48C34.4659 57.48 34.8339 57.54 35.1539 57.66C35.4819 57.78 35.7539 57.948 35.9699 58.164C36.1939 58.38 36.3619 58.636 36.4739 58.932C36.5939 59.228 36.6539 59.552 36.6539 59.904C36.6539 60.224 36.6059 60.524 36.5099 60.804C36.4219 61.084 36.2939 61.352 36.1259 61.608C35.9659 61.864 35.7699 62.116 35.5379 62.364C35.3139 62.604 35.0619 62.844 34.7819 63.084L32.4419 65.124H36.9899V66Z" fill="#343A3F"/>
<path d="M421.012 58.5H417.268L417.028 61.704H417.112C417.32 61.424 417.552 61.204 417.808 61.044C418.064 60.876 418.416 60.792 418.864 60.792C419.232 60.792 419.568 60.852 419.872 60.972C420.184 61.084 420.452 61.252 420.676 61.476C420.9 61.7 421.076 61.972 421.204 62.292C421.332 62.604 421.396 62.964 421.396 63.372C421.396 63.78 421.332 64.156 421.204 64.5C421.076 64.836 420.888 65.128 420.64 65.376C420.392 65.616 420.092 65.804 419.74 65.94C419.388 66.076 418.988 66.144 418.54 66.144C418.188 66.144 417.872 66.104 417.592 66.024C417.32 65.944 417.076 65.836 416.86 65.7C416.652 65.564 416.468 65.412 416.308 65.244C416.148 65.076 416.004 64.9 415.876 64.716L416.632 64.14C416.744 64.308 416.856 64.46 416.968 64.596C417.088 64.732 417.224 64.852 417.376 64.956C417.528 65.052 417.7 65.128 417.892 65.184C418.084 65.24 418.308 65.268 418.564 65.268C419.14 65.268 419.58 65.112 419.884 64.8C420.196 64.488 420.352 64.056 420.352 63.504V63.408C420.352 62.856 420.196 62.424 419.884 62.112C419.572 61.8 419.124 61.644 418.54 61.644C418.14 61.644 417.828 61.712 417.604 61.848C417.388 61.984 417.188 62.152 417.004 62.352L416.152 62.232L416.452 57.624H421.012V58.5ZM426.127 66.144C425.687 66.144 425.291 66.072 424.939 65.928C424.587 65.776 424.287 65.564 424.039 65.292C423.799 65.012 423.611 64.672 423.475 64.272C423.347 63.872 423.283 63.424 423.283 62.928C423.283 62.304 423.375 61.72 423.559 61.176C423.751 60.624 423.991 60.124 424.279 59.676C424.575 59.22 424.903 58.82 425.263 58.476C425.623 58.124 425.975 57.84 426.319 57.624H427.615C427.159 57.952 426.751 58.272 426.391 58.584C426.039 58.896 425.727 59.224 425.455 59.568C425.183 59.904 424.955 60.268 424.771 60.66C424.587 61.044 424.435 61.48 424.315 61.968L424.375 61.992C424.575 61.648 424.839 61.364 425.167 61.14C425.495 60.908 425.919 60.792 426.439 60.792C426.807 60.792 427.143 60.852 427.447 60.972C427.751 61.092 428.015 61.264 428.239 61.488C428.463 61.712 428.635 61.984 428.755 62.304C428.883 62.624 428.947 62.98 428.947 63.372C428.947 63.78 428.879 64.156 428.743 64.5C428.607 64.836 428.415 65.128 428.167 65.376C427.927 65.616 427.631 65.804 427.279 65.94C426.935 66.076 426.551 66.144 426.127 66.144ZM426.115 65.292C426.691 65.292 427.135 65.136 427.447 64.824C427.767 64.512 427.927 64.072 427.927 63.504V63.408C427.927 62.84 427.767 62.4 427.447 62.088C427.135 61.776 426.691 61.62 426.115 61.62C425.539 61.62 425.091 61.776 424.771 62.088C424.459 62.4 424.303 62.84 424.303 63.408V63.504C424.303 64.072 424.459 64.512 424.771 64.824C425.091 65.136 425.539 65.292 426.115 65.292ZM432.107 66L435.383 58.488H431.711V60.048H430.811V57.624H436.403V58.512L433.187 66H432.107ZM443.99 66H438.398V64.968L441.194 62.448C441.602 62.08 441.938 61.704 442.202 61.32C442.466 60.928 442.598 60.516 442.598 60.084V59.94C442.598 59.436 442.466 59.048 442.202 58.776C441.938 58.496 441.546 58.356 441.026 58.356C440.514 58.356 440.118 58.488 439.838 58.752C439.566 59.008 439.362 59.352 439.226 59.784L438.326 59.448C438.406 59.2 438.514 58.96 438.65 58.728C438.794 58.488 438.974 58.276 439.19 58.092C439.406 57.908 439.666 57.76 439.97 57.648C440.282 57.536 440.642 57.48 441.05 57.48C441.466 57.48 441.834 57.54 442.154 57.66C442.482 57.78 442.754 57.948 442.97 58.164C443.194 58.38 443.362 58.636 443.474 58.932C443.594 59.228 443.654 59.552 443.654 59.904C443.654 60.224 443.606 60.524 443.51 60.804C443.422 61.084 443.294 61.352 443.126 61.608C442.966 61.864 442.77 62.116 442.538 62.364C442.314 62.604 442.062 62.844 441.782 63.084L439.442 65.124H443.99V66Z" fill="#343A3F"/>
<path d="M8.742 18V16.516H10.03V9.712H8.742V8.228H13.18V9.712H11.878V16.516H13.18V18H8.742ZM15.1159 18V10.692H16.9079V11.91H16.9779C17.1273 11.518 17.3606 11.1913 17.6779 10.93C18.0046 10.6593 18.4526 10.524 19.0219 10.524C19.7779 10.524 20.3566 10.7713 20.7579 11.266C21.1593 11.7607 21.3599 12.4653 21.3599 13.38V18H19.5679V13.562C19.5679 13.0393 19.4746 12.6473 19.2879 12.386C19.1013 12.1247 18.7933 11.994 18.3639 11.994C18.1773 11.994 17.9953 12.022 17.8179 12.078C17.6499 12.1247 17.4959 12.1993 17.3559 12.302C17.2253 12.3953 17.1179 12.5167 17.0339 12.666C16.9499 12.806 16.9079 12.974 16.9079 13.17V18H15.1159ZM23.5064 10.692H25.2984V11.896H25.3544C25.4851 11.476 25.7324 11.1447 26.0964 10.902C26.4604 10.65 26.8851 10.524 27.3704 10.524C28.3037 10.524 29.0131 10.8553 29.4984 11.518C29.9931 12.1713 30.2404 13.1093 30.2404 14.332C30.2404 15.564 29.9931 16.5113 29.4984 17.174C29.0131 17.8367 28.3037 18.168 27.3704 18.168C26.8851 18.168 26.4604 18.042 26.0964 17.79C25.7417 17.538 25.4944 17.202 25.3544 16.782H25.2984V20.8H23.5064V10.692ZM26.7964 16.684C27.2631 16.684 27.6411 16.53 27.9304 16.222C28.2197 15.914 28.3644 15.4987 28.3644 14.976V13.716C28.3644 13.1933 28.2197 12.778 27.9304 12.47C27.6411 12.1527 27.2631 11.994 26.7964 11.994C26.3671 11.994 26.0077 12.1013 25.7184 12.316C25.4384 12.5307 25.2984 12.8153 25.2984 13.17V15.494C25.2984 15.8767 25.4384 16.1707 25.7184 16.376C26.0077 16.5813 26.3671 16.684 26.7964 16.684ZM36.4289 16.782H36.3589C36.2936 16.9687 36.2049 17.146 36.0929 17.314C35.9903 17.4727 35.8549 17.6173 35.6869 17.748C35.5283 17.8787 35.3323 17.9813 35.0989 18.056C34.8749 18.1307 34.6136 18.168 34.3149 18.168C33.5589 18.168 32.9803 17.9207 32.5789 17.426C32.1776 16.9313 31.9769 16.2267 31.9769 15.312V10.692H33.7689V15.13C33.7689 15.634 33.8669 16.0213 34.0629 16.292C34.2589 16.5533 34.5716 16.684 35.0009 16.684C35.1783 16.684 35.3509 16.6607 35.5189 16.614C35.6963 16.5673 35.8503 16.4973 35.9809 16.404C36.1116 16.3013 36.2189 16.18 36.3029 16.04C36.3869 15.8907 36.4289 15.718 36.4289 15.522V10.692H38.2209V18H36.4289V16.782ZM42.7334 18C42.1174 18 41.6461 17.8413 41.3194 17.524C41.0021 17.1973 40.8434 16.7353 40.8434 16.138V12.12H39.7654V10.692H40.3254C40.5961 10.692 40.7781 10.6313 40.8714 10.51C40.9741 10.3793 41.0254 10.188 41.0254 9.936V8.69H42.6354V10.692H44.1334V12.12H42.6354V16.572H44.0214V18H42.7334Z" fill="#343A3F"/>
<path d="M397.984 18.168C397.34 18.168 396.757 18.0607 396.234 17.846C395.711 17.6313 395.263 17.3093 394.89 16.88C394.526 16.4507 394.241 15.9233 394.036 15.298C393.831 14.6727 393.728 13.9447 393.728 13.114C393.728 12.2927 393.831 11.5693 394.036 10.944C394.241 10.3093 394.526 9.77733 394.89 9.348C395.263 8.91867 395.711 8.59667 396.234 8.382C396.757 8.16733 397.34 8.06 397.984 8.06C398.628 8.06 399.211 8.16733 399.734 8.382C400.257 8.59667 400.705 8.91867 401.078 9.348C401.451 9.77733 401.736 10.3093 401.932 10.944C402.137 11.5693 402.24 12.2927 402.24 13.114C402.24 13.9447 402.137 14.6727 401.932 15.298C401.736 15.9233 401.451 16.4507 401.078 16.88C400.705 17.3093 400.257 17.6313 399.734 17.846C399.211 18.0607 398.628 18.168 397.984 18.168ZM397.984 16.53C398.684 16.53 399.239 16.2967 399.65 15.83C400.07 15.3633 400.28 14.71 400.28 13.87V12.358C400.28 11.518 400.07 10.8647 399.65 10.398C399.239 9.93133 398.684 9.698 397.984 9.698C397.284 9.698 396.724 9.93133 396.304 10.398C395.893 10.8647 395.688 11.518 395.688 12.358V13.87C395.688 14.71 395.893 15.3633 396.304 15.83C396.724 16.2967 397.284 16.53 397.984 16.53ZM408.531 16.782H408.461C408.395 16.9687 408.307 17.146 408.195 17.314C408.092 17.4727 407.957 17.6173 407.789 17.748C407.63 17.8787 407.434 17.9813 407.201 18.056C406.977 18.1307 406.715 18.168 406.417 18.168C405.661 18.168 405.082 17.9207 404.681 17.426C404.279 16.9313 404.079 16.2267 404.079 15.312V10.692H405.871V15.13C405.871 15.634 405.969 16.0213 406.165 16.292C406.361 16.5533 406.673 16.684 407.103 16.684C407.28 16.684 407.453 16.6607 407.621 16.614C407.798 16.5673 407.952 16.4973 408.083 16.404C408.213 16.3013 408.321 16.18 408.405 16.04C408.489 15.8907 408.531 15.718 408.531 15.522V10.692H410.323V18H408.531V16.782ZM414.835 18C414.219 18 413.748 17.8413 413.421 17.524C413.104 17.1973 412.945 16.7353 412.945 16.138V12.12H411.867V10.692H412.427C412.698 10.692 412.88 10.6313 412.973 10.51C413.076 10.3793 413.127 10.188 413.127 9.936V8.69H414.737V10.692H416.235V12.12H414.737V16.572H416.123V18H414.835ZM417.95 10.692H419.742V11.896H419.798C419.928 11.476 420.176 11.1447 420.54 10.902C420.904 10.65 421.328 10.524 421.814 10.524C422.747 10.524 423.456 10.8553 423.942 11.518C424.436 12.1713 424.684 13.1093 424.684 14.332C424.684 15.564 424.436 16.5113 423.942 17.174C423.456 17.8367 422.747 18.168 421.814 18.168C421.328 18.168 420.904 18.042 420.54 17.79C420.185 17.538 419.938 17.202 419.798 16.782H419.742V20.8H417.95V10.692ZM421.24 16.684C421.706 16.684 422.084 16.53 422.374 16.222C422.663 15.914 422.808 15.4987 422.808 14.976V13.716C422.808 13.1933 422.663 12.778 422.374 12.47C422.084 12.1527 421.706 11.994 421.24 11.994C420.81 11.994 420.451 12.1013 420.162 12.316C419.882 12.5307 419.742 12.8153 419.742 13.17V15.494C419.742 15.8767 419.882 16.1707 420.162 16.376C420.451 16.5813 420.81 16.684 421.24 16.684ZM430.872 16.782H430.802C430.737 16.9687 430.648 17.146 430.536 17.314C430.433 17.4727 430.298 17.6173 430.13 17.748C429.971 17.8787 429.775 17.9813 429.542 18.056C429.318 18.1307 429.057 18.168 428.758 18.168C428.002 18.168 427.423 17.9207 427.022 17.426C426.621 16.9313 426.42 16.2267 426.42 15.312V10.692H428.212V15.13C428.212 15.634 428.31 16.0213 428.506 16.292C428.702 16.5533 429.015 16.684 429.444 16.684C429.621 16.684 429.794 16.6607 429.962 16.614C430.139 16.5673 430.293 16.4973 430.424 16.404C430.555 16.3013 430.662 16.18 430.746 16.04C430.83 15.8907 430.872 15.718 430.872 15.522V10.692H432.664V18H430.872V16.782ZM437.177 18C436.561 18 436.089 17.8413 435.763 17.524C435.445 17.1973 435.287 16.7353 435.287 16.138V12.12H434.209V10.692H434.769C435.039 10.692 435.221 10.6313 435.315 10.51C435.417 10.3793 435.469 10.188 435.469 9.936V8.69H437.079V10.692H438.577V12.12H437.079V16.572H438.465V18H437.177Z" fill="#343A3F"/>
<path d="M108.942 18.168C108.298 18.168 107.715 18.0653 107.192 17.86C106.679 17.6453 106.235 17.328 105.862 16.908C105.498 16.488 105.218 15.97 105.022 15.354C104.826 14.7287 104.728 14.0053 104.728 13.184C104.728 12.3627 104.826 11.6347 105.022 11C105.218 10.356 105.498 9.81933 105.862 9.39C106.235 8.95133 106.679 8.62 107.192 8.396C107.715 8.172 108.298 8.06 108.942 8.06C109.819 8.06 110.547 8.24667 111.126 8.62C111.705 8.99333 112.167 9.558 112.512 10.314L110.93 11.154C110.79 10.7153 110.561 10.3653 110.244 10.104C109.927 9.83333 109.493 9.698 108.942 9.698C108.251 9.698 107.701 9.93133 107.29 10.398C106.889 10.8647 106.688 11.518 106.688 12.358V13.898C106.688 14.7473 106.889 15.4007 107.29 15.858C107.701 16.306 108.251 16.53 108.942 16.53C109.493 16.53 109.941 16.3807 110.286 16.082C110.641 15.7833 110.897 15.4147 111.056 14.976L112.554 15.858C112.199 16.586 111.728 17.1553 111.14 17.566C110.552 17.9673 109.819 18.168 108.942 18.168ZM117.076 18.168C116.554 18.168 116.082 18.0793 115.662 17.902C115.252 17.7247 114.897 17.468 114.598 17.132C114.309 16.796 114.085 16.3947 113.926 15.928C113.768 15.452 113.688 14.92 113.688 14.332C113.688 13.744 113.768 13.2167 113.926 12.75C114.085 12.2833 114.309 11.8867 114.598 11.56C114.897 11.224 115.252 10.9673 115.662 10.79C116.082 10.6127 116.554 10.524 117.076 10.524C117.599 10.524 118.07 10.6127 118.49 10.79C118.91 10.9673 119.265 11.224 119.554 11.56C119.853 11.8867 120.082 12.2833 120.24 12.75C120.399 13.2167 120.478 13.744 120.478 14.332C120.478 14.92 120.399 15.452 120.24 15.928C120.082 16.3947 119.853 16.796 119.554 17.132C119.265 17.468 118.91 17.7247 118.49 17.902C118.07 18.0793 117.599 18.168 117.076 18.168ZM117.076 16.726C117.552 16.726 117.926 16.5813 118.196 16.292C118.467 16.0027 118.602 15.578 118.602 15.018V13.66C118.602 13.1093 118.467 12.6893 118.196 12.4C117.926 12.1107 117.552 11.966 117.076 11.966C116.61 11.966 116.241 12.1107 115.97 12.4C115.7 12.6893 115.564 13.1093 115.564 13.66V15.018C115.564 15.578 115.7 16.0027 115.97 16.292C116.241 16.5813 116.61 16.726 117.076 16.726ZM122.227 18V10.692H124.019V11.91H124.089C124.229 11.5273 124.453 11.2007 124.761 10.93C125.069 10.6593 125.498 10.524 126.049 10.524C126.553 10.524 126.987 10.6453 127.351 10.888C127.715 11.1307 127.986 11.4993 128.163 11.994H128.191C128.322 11.5833 128.578 11.238 128.961 10.958C129.353 10.6687 129.843 10.524 130.431 10.524C131.15 10.524 131.7 10.7713 132.083 11.266C132.475 11.7607 132.671 12.4653 132.671 13.38V18H130.879V13.562C130.879 12.5167 130.487 11.994 129.703 11.994C129.526 11.994 129.353 12.022 129.185 12.078C129.026 12.1247 128.882 12.1993 128.751 12.302C128.63 12.3953 128.532 12.5167 128.457 12.666C128.382 12.806 128.345 12.974 128.345 13.17V18H126.553V13.562C126.553 12.5167 126.161 11.994 125.377 11.994C125.209 11.994 125.041 12.022 124.873 12.078C124.714 12.1247 124.57 12.1993 124.439 12.302C124.318 12.3953 124.215 12.5167 124.131 12.666C124.056 12.806 124.019 12.974 124.019 13.17V18H122.227ZM134.815 10.692H136.607V11.896H136.663C136.793 11.476 137.041 11.1447 137.405 10.902C137.769 10.65 138.193 10.524 138.679 10.524C139.612 10.524 140.321 10.8553 140.807 11.518C141.301 12.1713 141.549 13.1093 141.549 14.332C141.549 15.564 141.301 16.5113 140.807 17.174C140.321 17.8367 139.612 18.168 138.679 18.168C138.193 18.168 137.769 18.042 137.405 17.79C137.05 17.538 136.803 17.202 136.663 16.782H136.607V20.8H134.815V10.692ZM138.105 16.684C138.571 16.684 138.949 16.53 139.239 16.222C139.528 15.914 139.673 15.4987 139.673 14.976V13.716C139.673 13.1933 139.528 12.778 139.239 12.47C138.949 12.1527 138.571 11.994 138.105 11.994C137.675 11.994 137.316 12.1013 137.027 12.316C136.747 12.5307 136.607 12.8153 136.607 13.17V15.494C136.607 15.8767 136.747 16.1707 137.027 16.376C137.316 16.5813 137.675 16.684 138.105 16.684ZM147.737 16.782H147.667C147.602 16.9687 147.513 17.146 147.401 17.314C147.299 17.4727 147.163 17.6173 146.995 17.748C146.837 17.8787 146.641 17.9813 146.407 18.056C146.183 18.1307 145.922 18.168 145.623 18.168C144.867 18.168 144.289 17.9207 143.887 17.426C143.486 16.9313 143.285 16.2267 143.285 15.312V10.692H145.077V15.13C145.077 15.634 145.175 16.0213 145.371 16.292C145.567 16.5533 145.88 16.684 146.309 16.684C146.487 16.684 146.659 16.6607 146.827 16.614C147.005 16.5673 147.159 16.4973 147.289 16.404C147.42 16.3013 147.527 16.18 147.611 16.04C147.695 15.8907 147.737 15.718 147.737 15.522V10.692H149.529V18H147.737V16.782ZM154.042 18C153.426 18 152.954 17.8413 152.628 17.524C152.31 17.1973 152.152 16.7353 152.152 16.138V12.12H151.074V10.692H151.634C151.904 10.692 152.086 10.6313 152.18 10.51C152.282 10.3793 152.334 10.188 152.334 9.936V8.69H153.944V10.692H155.442V12.12H153.944V16.572H155.33V18H154.042ZM160.055 18.168C159.514 18.168 159.029 18.0793 158.599 17.902C158.179 17.7153 157.82 17.4587 157.521 17.132C157.232 16.796 157.008 16.3947 156.849 15.928C156.691 15.452 156.611 14.92 156.611 14.332C156.611 13.7533 156.686 13.2307 156.835 12.764C156.994 12.2973 157.218 11.9007 157.507 11.574C157.797 11.238 158.151 10.9813 158.571 10.804C158.991 10.6173 159.467 10.524 159.999 10.524C160.569 10.524 161.063 10.622 161.483 10.818C161.903 11.014 162.249 11.28 162.519 11.616C162.79 11.952 162.991 12.344 163.121 12.792C163.261 13.2307 163.331 13.702 163.331 14.206V14.794H158.473V14.976C158.473 15.508 158.623 15.9373 158.921 16.264C159.22 16.5813 159.663 16.74 160.251 16.74C160.699 16.74 161.063 16.6467 161.343 16.46C161.633 16.2733 161.889 16.0353 162.113 15.746L163.079 16.824C162.781 17.244 162.37 17.5753 161.847 17.818C161.334 18.0513 160.737 18.168 160.055 18.168ZM160.027 11.868C159.551 11.868 159.173 12.0267 158.893 12.344C158.613 12.6613 158.473 13.072 158.473 13.576V13.688H161.469V13.562C161.469 13.058 161.343 12.652 161.091 12.344C160.849 12.0267 160.494 11.868 160.027 11.868ZM165.068 18V10.692H166.86V12.204H166.93C166.977 12.008 167.047 11.8213 167.14 11.644C167.243 11.4573 167.373 11.294 167.532 11.154C167.691 11.014 167.877 10.902 168.092 10.818C168.316 10.734 168.573 10.692 168.862 10.692H169.254V12.386H168.694C168.087 12.386 167.63 12.4747 167.322 12.652C167.014 12.8293 166.86 13.1187 166.86 13.52V18H165.068ZM174.557 12.106H173.479V10.692H174.557V9.642C174.557 8.998 174.725 8.50333 175.061 8.158C175.406 7.81267 175.91 7.64 176.573 7.64H177.847V9.068H176.349V10.692H177.847V12.106H176.349V18H174.557V12.106ZM182.091 18.168C181.568 18.168 181.097 18.0793 180.677 17.902C180.266 17.7247 179.911 17.468 179.613 17.132C179.323 16.796 179.099 16.3947 178.941 15.928C178.782 15.452 178.703 14.92 178.703 14.332C178.703 13.744 178.782 13.2167 178.941 12.75C179.099 12.2833 179.323 11.8867 179.613 11.56C179.911 11.224 180.266 10.9673 180.677 10.79C181.097 10.6127 181.568 10.524 182.091 10.524C182.613 10.524 183.085 10.6127 183.505 10.79C183.925 10.9673 184.279 11.224 184.569 11.56C184.867 11.8867 185.096 12.2833 185.255 12.75C185.413 13.2167 185.493 13.744 185.493 14.332C185.493 14.92 185.413 15.452 185.255 15.928C185.096 16.3947 184.867 16.796 184.569 17.132C184.279 17.468 183.925 17.7247 183.505 17.902C183.085 18.0793 182.613 18.168 182.091 18.168ZM182.091 16.726C182.567 16.726 182.94 16.5813 183.211 16.292C183.481 16.0027 183.617 15.578 183.617 15.018V13.66C183.617 13.1093 183.481 12.6893 183.211 12.4C182.94 12.1107 182.567 11.966 182.091 11.966C181.624 11.966 181.255 12.1107 180.985 12.4C180.714 12.6893 180.579 13.1093 180.579 13.66V15.018C180.579 15.578 180.714 16.0027 180.985 16.292C181.255 16.5813 181.624 16.726 182.091 16.726ZM189.033 18C188.417 18 187.965 17.846 187.675 17.538C187.386 17.23 187.241 16.796 187.241 16.236V7.64H189.033V16.572H189.999V18H189.033ZM193.213 18C192.597 18 192.144 17.846 191.855 17.538C191.566 17.23 191.421 16.796 191.421 16.236V7.64H193.213V16.572H194.179V18H193.213ZM198.594 18.168C198.071 18.168 197.6 18.0793 197.18 17.902C196.769 17.7247 196.415 17.468 196.116 17.132C195.827 16.796 195.603 16.3947 195.444 15.928C195.285 15.452 195.206 14.92 195.206 14.332C195.206 13.744 195.285 13.2167 195.444 12.75C195.603 12.2833 195.827 11.8867 196.116 11.56C196.415 11.224 196.769 10.9673 197.18 10.79C197.6 10.6127 198.071 10.524 198.594 10.524C199.117 10.524 199.588 10.6127 200.008 10.79C200.428 10.9673 200.783 11.224 201.072 11.56C201.371 11.8867 201.599 12.2833 201.758 12.75C201.917 13.2167 201.996 13.744 201.996 14.332C201.996 14.92 201.917 15.452 201.758 15.928C201.599 16.3947 201.371 16.796 201.072 17.132C200.783 17.468 200.428 17.7247 200.008 17.902C199.588 18.0793 199.117 18.168 198.594 18.168ZM198.594 16.726C199.07 16.726 199.443 16.5813 199.714 16.292C199.985 16.0027 200.12 15.578 200.12 15.018V13.66C200.12 13.1093 199.985 12.6893 199.714 12.4C199.443 12.1107 199.07 11.966 198.594 11.966C198.127 11.966 197.759 12.1107 197.488 12.4C197.217 12.6893 197.082 13.1093 197.082 13.66V15.018C197.082 15.578 197.217 16.0027 197.488 16.292C197.759 16.5813 198.127 16.726 198.594 16.726ZM202.908 10.692H204.63L205.372 13.702L205.946 16.208H206.002L206.674 13.702L207.528 10.692H209.152L210.034 13.702L210.72 16.208H210.776L211.35 13.702L212.078 10.692H213.744L211.742 18H209.81L208.872 14.78L208.326 12.792H208.284L207.752 14.78L206.828 18H204.924L202.908 10.692ZM217.605 18.168C216.905 18.168 216.317 18.0513 215.841 17.818C215.365 17.5753 214.945 17.244 214.581 16.824L215.673 15.76C215.944 16.068 216.238 16.3107 216.555 16.488C216.882 16.6653 217.255 16.754 217.675 16.754C218.105 16.754 218.413 16.6793 218.599 16.53C218.795 16.3807 218.893 16.1753 218.893 15.914C218.893 15.6993 218.823 15.5313 218.683 15.41C218.553 15.2793 218.324 15.1907 217.997 15.144L217.269 15.046C216.476 14.9433 215.869 14.7193 215.449 14.374C215.039 14.0193 214.833 13.506 214.833 12.834C214.833 12.4793 214.899 12.162 215.029 11.882C215.16 11.5927 215.347 11.35 215.589 11.154C215.832 10.9487 216.121 10.7947 216.457 10.692C216.803 10.58 217.185 10.524 217.605 10.524C217.96 10.524 218.273 10.552 218.543 10.608C218.823 10.6547 219.075 10.7293 219.299 10.832C219.523 10.9253 219.729 11.0467 219.915 11.196C220.102 11.336 220.284 11.4947 220.461 11.672L219.411 12.722C219.197 12.498 218.94 12.3113 218.641 12.162C218.343 12.0127 218.016 11.938 217.661 11.938C217.269 11.938 216.985 12.008 216.807 12.148C216.639 12.288 216.555 12.47 216.555 12.694C216.555 12.9367 216.625 13.1233 216.765 13.254C216.915 13.3753 217.162 13.464 217.507 13.52L218.249 13.618C219.827 13.842 220.615 14.5607 220.615 15.774C220.615 16.1287 220.541 16.4553 220.391 16.754C220.251 17.0433 220.051 17.2953 219.789 17.51C219.528 17.7153 219.211 17.8787 218.837 18C218.473 18.112 218.063 18.168 217.605 18.168ZM231.202 18C230.81 18 230.498 17.888 230.264 17.664C230.04 17.4307 229.9 17.1227 229.844 16.74H229.76C229.639 17.216 229.392 17.5753 229.018 17.818C228.645 18.0513 228.183 18.168 227.632 18.168C226.886 18.168 226.312 17.972 225.91 17.58C225.509 17.188 225.308 16.6653 225.308 16.012C225.308 15.256 225.579 14.696 226.12 14.332C226.662 13.9587 227.432 13.772 228.43 13.772H229.676V13.24C229.676 12.8293 229.569 12.512 229.354 12.288C229.14 12.064 228.794 11.952 228.318 11.952C227.898 11.952 227.558 12.0453 227.296 12.232C227.044 12.4093 226.83 12.624 226.652 12.876L225.588 11.924C225.859 11.504 226.218 11.168 226.666 10.916C227.114 10.6547 227.707 10.524 228.444 10.524C229.434 10.524 230.185 10.748 230.698 11.196C231.212 11.644 231.468 12.288 231.468 13.128V16.572H232.196V18H231.202ZM228.234 16.866C228.636 16.866 228.976 16.7773 229.256 16.6C229.536 16.4227 229.676 16.1613 229.676 15.816V14.85H228.528C227.595 14.85 227.128 15.1487 227.128 15.746V15.984C227.128 16.2827 227.222 16.5067 227.408 16.656C227.604 16.796 227.88 16.866 228.234 16.866ZM235.599 18C234.983 18 234.53 17.846 234.241 17.538C233.951 17.23 233.807 16.796 233.807 16.236V7.64H235.599V16.572H236.565V18H235.599ZM244.676 18.616C244.676 18.9987 244.606 19.3347 244.466 19.624C244.335 19.9227 244.116 20.17 243.808 20.366C243.5 20.562 243.103 20.7113 242.618 20.814C242.133 20.9167 241.54 20.968 240.84 20.968C240.224 20.968 239.701 20.926 239.272 20.842C238.843 20.7673 238.488 20.6553 238.208 20.506C237.937 20.366 237.741 20.1887 237.62 19.974C237.499 19.7593 237.438 19.5167 237.438 19.246C237.438 18.8353 237.55 18.5133 237.774 18.28C238.007 18.056 238.329 17.9113 238.74 17.846V17.692C238.441 17.6173 238.208 17.4727 238.04 17.258C237.881 17.034 237.802 16.7727 237.802 16.474C237.802 16.2873 237.839 16.124 237.914 15.984C237.989 15.8347 238.087 15.7087 238.208 15.606C238.339 15.5033 238.483 15.4193 238.642 15.354C238.801 15.2793 238.969 15.2233 239.146 15.186V15.13C238.698 14.9247 238.362 14.64 238.138 14.276C237.923 13.912 237.816 13.4873 237.816 13.002C237.816 12.2553 238.073 11.658 238.586 11.21C239.099 10.7527 239.851 10.524 240.84 10.524C241.064 10.524 241.283 10.538 241.498 10.566C241.722 10.594 241.927 10.6407 242.114 10.706V10.468C242.114 9.75867 242.459 9.404 243.15 9.404H244.284V10.776H242.73V10.972C243.113 11.1867 243.397 11.4667 243.584 11.812C243.771 12.1573 243.864 12.554 243.864 13.002C243.864 13.7393 243.607 14.332 243.094 14.78C242.59 15.228 241.839 15.452 240.84 15.452C240.411 15.452 240.037 15.41 239.72 15.326C239.58 15.3913 239.459 15.48 239.356 15.592C239.253 15.6947 239.202 15.8253 239.202 15.984C239.202 16.348 239.519 16.53 240.154 16.53H242.114C243.01 16.53 243.659 16.7167 244.06 17.09C244.471 17.454 244.676 17.9627 244.676 18.616ZM242.996 18.826C242.996 18.5927 242.903 18.4107 242.716 18.28C242.529 18.1493 242.207 18.084 241.75 18.084H239.258C239.006 18.2707 238.88 18.5227 238.88 18.84C238.88 19.12 238.997 19.3393 239.23 19.498C239.463 19.6567 239.86 19.736 240.42 19.736H241.316C241.904 19.736 242.329 19.6613 242.59 19.512C242.861 19.3627 242.996 19.134 242.996 18.826ZM240.84 14.234C241.717 14.234 242.156 13.8607 242.156 13.114V12.876C242.156 12.1293 241.717 11.756 240.84 11.756C239.963 11.756 239.524 12.1293 239.524 12.876V13.114C239.524 13.8607 239.963 14.234 240.84 14.234ZM248.687 18.168C248.164 18.168 247.693 18.0793 247.273 17.902C246.862 17.7247 246.507 17.468 246.209 17.132C245.919 16.796 245.695 16.3947 245.537 15.928C245.378 15.452 245.299 14.92 245.299 14.332C245.299 13.744 245.378 13.2167 245.537 12.75C245.695 12.2833 245.919 11.8867 246.209 11.56C246.507 11.224 246.862 10.9673 247.273 10.79C247.693 10.6127 248.164 10.524 248.687 10.524C249.209 10.524 249.681 10.6127 250.101 10.79C250.521 10.9673 250.875 11.224 251.165 11.56C251.463 11.8867 251.692 12.2833 251.851 12.75C252.009 13.2167 252.089 13.744 252.089 14.332C252.089 14.92 252.009 15.452 251.851 15.928C251.692 16.3947 251.463 16.796 251.165 17.132C250.875 17.468 250.521 17.7247 250.101 17.902C249.681 18.0793 249.209 18.168 248.687 18.168ZM248.687 16.726C249.163 16.726 249.536 16.5813 249.807 16.292C250.077 16.0027 250.213 15.578 250.213 15.018V13.66C250.213 13.1093 250.077 12.6893 249.807 12.4C249.536 12.1107 249.163 11.966 248.687 11.966C248.22 11.966 247.851 12.1107 247.581 12.4C247.31 12.6893 247.175 13.1093 247.175 13.66V15.018C247.175 15.578 247.31 16.0027 247.581 16.292C247.851 16.5813 248.22 16.726 248.687 16.726ZM253.837 18V10.692H255.629V12.204H255.699C255.746 12.008 255.816 11.8213 255.909 11.644C256.012 11.4573 256.143 11.294 256.301 11.154C256.46 11.014 256.647 10.902 256.861 10.818C257.085 10.734 257.342 10.692 257.631 10.692H258.023V12.386H257.463C256.857 12.386 256.399 12.4747 256.091 12.652C255.783 12.8293 255.629 13.1187 255.629 13.52V18H253.837ZM260.39 9.628C260.016 9.628 259.746 9.544 259.578 9.376C259.419 9.208 259.34 8.99333 259.34 8.732V8.452C259.34 8.19067 259.419 7.976 259.578 7.808C259.746 7.64 260.016 7.556 260.39 7.556C260.754 7.556 261.02 7.64 261.188 7.808C261.356 7.976 261.44 8.19067 261.44 8.452V8.732C261.44 8.99333 261.356 9.208 261.188 9.376C261.02 9.544 260.754 9.628 260.39 9.628ZM259.494 10.692H261.286V18H259.494V10.692ZM265.805 18C265.189 18 264.717 17.8413 264.391 17.524C264.073 17.1973 263.915 16.7353 263.915 16.138V12.12H262.837V10.692H263.397C263.667 10.692 263.849 10.6313 263.943 10.51C264.045 10.3793 264.097 10.188 264.097 9.936V8.69H265.707V10.692H267.205V12.12H265.707V16.572H267.093V18H265.805ZM268.919 7.64H270.711V11.91H270.781C270.93 11.518 271.164 11.1913 271.481 10.93C271.808 10.6593 272.256 10.524 272.825 10.524C273.581 10.524 274.16 10.7713 274.561 11.266C274.962 11.7607 275.163 12.4653 275.163 13.38V18H273.371V13.562C273.371 13.0393 273.278 12.6473 273.091 12.386C272.904 12.1247 272.596 11.994 272.167 11.994C271.98 11.994 271.798 12.022 271.621 12.078C271.453 12.1247 271.299 12.1993 271.159 12.302C271.028 12.3953 270.921 12.5167 270.837 12.666C270.753 12.806 270.711 12.974 270.711 13.17V18H268.919V7.64ZM277.309 18V10.692H279.101V11.91H279.171C279.311 11.5273 279.535 11.2007 279.843 10.93C280.151 10.6593 280.581 10.524 281.131 10.524C281.635 10.524 282.069 10.6453 282.433 10.888C282.797 11.1307 283.068 11.4993 283.245 11.994H283.273C283.404 11.5833 283.661 11.238 284.043 10.958C284.435 10.6687 284.925 10.524 285.513 10.524C286.232 10.524 286.783 10.7713 287.165 11.266C287.557 11.7607 287.753 12.4653 287.753 13.38V18H285.961V13.562C285.961 12.5167 285.569 11.994 284.785 11.994C284.608 11.994 284.435 12.022 284.267 12.078C284.109 12.1247 283.964 12.1993 283.833 12.302C283.712 12.3953 283.614 12.5167 283.539 12.666C283.465 12.806 283.427 12.974 283.427 13.17V18H281.635V13.562C281.635 12.5167 281.243 11.994 280.459 11.994C280.291 11.994 280.123 12.022 279.955 12.078C279.797 12.1247 279.652 12.1993 279.521 12.302C279.4 12.3953 279.297 12.5167 279.213 12.666C279.139 12.806 279.101 12.974 279.101 13.17V18H277.309Z" fill="#343A3F"/>
<path d="M112.816 55.144C112.368 55.144 111.968 55.068 111.616 54.916C111.272 54.756 110.98 54.536 110.74 54.256C110.5 53.976 110.316 53.636 110.188 53.236C110.068 52.836 110.008 52.392 110.008 51.904C110.008 51.416 110.072 50.972 110.2 50.572C110.328 50.172 110.512 49.832 110.752 49.552C110.992 49.264 111.284 49.044 111.628 48.892C111.972 48.74 112.364 48.664 112.804 48.664C113.404 48.664 113.892 48.796 114.268 49.06C114.644 49.324 114.92 49.668 115.096 50.092L114.328 50.5C114.216 50.18 114.028 49.932 113.764 49.756C113.508 49.58 113.188 49.492 112.804 49.492C112.524 49.492 112.272 49.54 112.048 49.636C111.832 49.724 111.648 49.852 111.496 50.02C111.344 50.188 111.228 50.388 111.148 50.62C111.076 50.852 111.04 51.104 111.04 51.376V52.432C111.04 52.704 111.076 52.956 111.148 53.188C111.228 53.42 111.344 53.62 111.496 53.788C111.648 53.956 111.836 54.088 112.06 54.184C112.284 54.272 112.54 54.316 112.828 54.316C113.244 54.316 113.588 54.22 113.86 54.028C114.132 53.836 114.348 53.572 114.508 53.236L115.192 53.704C115.008 54.12 114.72 54.464 114.328 54.736C113.944 55.008 113.44 55.144 112.816 55.144ZM117.691 46.12H118.651V49.816H118.699C118.763 49.664 118.843 49.52 118.939 49.384C119.035 49.24 119.151 49.116 119.287 49.012C119.431 48.908 119.599 48.824 119.791 48.76C119.983 48.696 120.207 48.664 120.463 48.664C121.111 48.664 121.631 48.872 122.023 49.288C122.415 49.696 122.611 50.276 122.611 51.028V55H121.651V51.196C121.651 50.628 121.527 50.208 121.279 49.936C121.031 49.656 120.667 49.516 120.187 49.516C119.995 49.516 119.807 49.54 119.623 49.588C119.439 49.636 119.275 49.708 119.131 49.804C118.987 49.9 118.871 50.024 118.783 50.176C118.695 50.328 118.651 50.504 118.651 50.704V55H117.691V46.12ZM127.631 55.144C127.199 55.144 126.807 55.068 126.455 54.916C126.111 54.764 125.815 54.548 125.567 54.268C125.327 53.98 125.143 53.64 125.015 53.248C124.887 52.848 124.823 52.4 124.823 51.904C124.823 51.416 124.887 50.972 125.015 50.572C125.143 50.172 125.327 49.832 125.567 49.552C125.815 49.264 126.111 49.044 126.455 48.892C126.807 48.74 127.199 48.664 127.631 48.664C128.063 48.664 128.451 48.74 128.795 48.892C129.147 49.044 129.443 49.264 129.683 49.552C129.931 49.832 130.119 50.172 130.247 50.572C130.375 50.972 130.439 51.416 130.439 51.904C130.439 52.4 130.375 52.848 130.247 53.248C130.119 53.64 129.931 53.98 129.683 54.268C129.443 54.548 129.147 54.764 128.795 54.916C128.451 55.068 128.063 55.144 127.631 55.144ZM127.631 54.316C128.167 54.316 128.599 54.156 128.927 53.836C129.255 53.516 129.419 53.02 129.419 52.348V51.46C129.419 50.788 129.255 50.292 128.927 49.972C128.599 49.652 128.167 49.492 127.631 49.492C127.095 49.492 126.663 49.652 126.335 49.972C126.007 50.292 125.843 50.788 125.843 51.46V52.348C125.843 53.02 126.007 53.516 126.335 53.836C126.663 54.156 127.095 54.316 127.631 54.316ZM135.146 55.144C134.714 55.144 134.322 55.068 133.97 54.916C133.626 54.764 133.33 54.548 133.082 54.268C132.842 53.98 132.658 53.64 132.53 53.248C132.402 52.848 132.338 52.4 132.338 51.904C132.338 51.416 132.402 50.972 132.53 50.572C132.658 50.172 132.842 49.832 133.082 49.552C133.33 49.264 133.626 49.044 133.97 48.892C134.322 48.74 134.714 48.664 135.146 48.664C135.578 48.664 135.966 48.74 136.31 48.892C136.662 49.044 136.958 49.264 137.198 49.552C137.446 49.832 137.634 50.172 137.762 50.572C137.89 50.972 137.954 51.416 137.954 51.904C137.954 52.4 137.89 52.848 137.762 53.248C137.634 53.64 137.446 53.98 137.198 54.268C136.958 54.548 136.662 54.764 136.31 54.916C135.966 55.068 135.578 55.144 135.146 55.144ZM135.146 54.316C135.682 54.316 136.114 54.156 136.442 53.836C136.77 53.516 136.934 53.02 136.934 52.348V51.46C136.934 50.788 136.77 50.292 136.442 49.972C136.114 49.652 135.682 49.492 135.146 49.492C134.61 49.492 134.178 49.652 133.85 49.972C133.522 50.292 133.358 50.788 133.358 51.46V52.348C133.358 53.02 133.522 53.516 133.85 53.836C134.178 54.156 134.61 54.316 135.146 54.316ZM142.733 55.144C142.085 55.144 141.525 55.036 141.053 54.82C140.589 54.596 140.193 54.3 139.865 53.932L140.513 53.368C140.809 53.68 141.133 53.92 141.485 54.088C141.837 54.256 142.261 54.34 142.757 54.34C143.237 54.34 143.629 54.256 143.933 54.088C144.245 53.912 144.401 53.64 144.401 53.272C144.401 53.112 144.369 52.98 144.305 52.876C144.249 52.764 144.169 52.676 144.065 52.612C143.961 52.548 143.845 52.5 143.717 52.468C143.589 52.428 143.453 52.396 143.309 52.372L142.337 52.228C142.121 52.196 141.885 52.152 141.629 52.096C141.381 52.04 141.153 51.952 140.945 51.832C140.737 51.704 140.561 51.536 140.417 51.328C140.281 51.12 140.213 50.848 140.213 50.512C140.213 50.2 140.273 49.932 140.393 49.708C140.521 49.476 140.697 49.284 140.921 49.132C141.145 48.972 141.409 48.856 141.713 48.784C142.017 48.704 142.349 48.664 142.709 48.664C143.269 48.664 143.753 48.752 144.161 48.928C144.577 49.104 144.933 49.348 145.229 49.66L144.605 50.248C144.533 50.16 144.441 50.072 144.329 49.984C144.225 49.888 144.093 49.804 143.933 49.732C143.781 49.652 143.601 49.588 143.393 49.54C143.185 49.492 142.945 49.468 142.673 49.468C142.185 49.468 141.809 49.552 141.545 49.72C141.289 49.888 141.161 50.132 141.161 50.452C141.161 50.612 141.189 50.748 141.245 50.86C141.309 50.964 141.393 51.048 141.497 51.112C141.601 51.176 141.717 51.228 141.845 51.268C141.981 51.3 142.117 51.328 142.253 51.352L143.225 51.496C143.449 51.528 143.685 51.572 143.933 51.628C144.181 51.684 144.409 51.776 144.617 51.904C144.825 52.024 144.997 52.188 145.133 52.396C145.277 52.604 145.349 52.876 145.349 53.212C145.349 53.828 145.109 54.304 144.629 54.64C144.157 54.976 143.525 55.144 142.733 55.144ZM150.285 55.144C149.837 55.144 149.433 55.068 149.073 54.916C148.721 54.764 148.417 54.548 148.161 54.268C147.913 53.98 147.721 53.64 147.585 53.248C147.449 52.848 147.381 52.404 147.381 51.916C147.381 51.42 147.449 50.972 147.585 50.572C147.729 50.172 147.925 49.832 148.173 49.552C148.421 49.264 148.717 49.044 149.061 48.892C149.413 48.74 149.801 48.664 150.225 48.664C150.641 48.664 151.017 48.74 151.353 48.892C151.697 49.044 151.989 49.256 152.229 49.528C152.469 49.792 152.653 50.108 152.781 50.476C152.909 50.844 152.973 51.248 152.973 51.688V52.144H148.389V52.432C148.389 52.704 148.433 52.956 148.521 53.188C148.609 53.42 148.733 53.62 148.893 53.788C149.061 53.956 149.261 54.088 149.493 54.184C149.733 54.272 149.997 54.316 150.285 54.316C150.701 54.316 151.061 54.22 151.365 54.028C151.669 53.836 151.901 53.572 152.061 53.236L152.769 53.716C152.585 54.132 152.277 54.476 151.845 54.748C151.421 55.012 150.901 55.144 150.285 55.144ZM150.225 49.456C149.961 49.456 149.717 49.504 149.493 49.6C149.269 49.696 149.073 49.828 148.905 49.996C148.745 50.164 148.617 50.364 148.521 50.596C148.433 50.82 148.389 51.068 148.389 51.34V51.424H151.941V51.292C151.941 51.02 151.897 50.772 151.809 50.548C151.729 50.324 151.613 50.132 151.461 49.972C151.317 49.804 151.137 49.676 150.921 49.588C150.713 49.5 150.481 49.456 150.225 49.456ZM162.531 54.184H164.343V49.624H162.531V48.808H165.303V50.368H165.363C165.491 49.88 165.731 49.5 166.083 49.228C166.443 48.948 166.899 48.808 167.451 48.808H168.315V49.768H167.151C166.599 49.768 166.151 49.928 165.807 50.248C165.471 50.568 165.303 50.988 165.303 51.508V54.184H167.703V55H162.531V54.184ZM175.063 55C174.687 55 174.419 54.904 174.259 54.712C174.099 54.52 173.999 54.28 173.959 53.992H173.899C173.763 54.352 173.543 54.636 173.239 54.844C172.943 55.044 172.543 55.144 172.039 55.144C171.391 55.144 170.875 54.976 170.491 54.64C170.107 54.304 169.915 53.844 169.915 53.26C169.915 52.684 170.123 52.24 170.539 51.928C170.963 51.616 171.643 51.46 172.579 51.46H173.899V50.848C173.899 50.392 173.771 50.052 173.515 49.828C173.259 49.596 172.895 49.48 172.423 49.48C172.007 49.48 171.667 49.564 171.403 49.732C171.139 49.892 170.927 50.112 170.767 50.392L170.119 49.912C170.199 49.752 170.307 49.596 170.443 49.444C170.579 49.292 170.747 49.16 170.947 49.048C171.147 48.928 171.375 48.836 171.631 48.772C171.887 48.7 172.171 48.664 172.483 48.664C173.211 48.664 173.787 48.848 174.211 49.216C174.643 49.584 174.859 50.096 174.859 50.752V54.16H175.723V55H175.063ZM172.207 54.34C172.455 54.34 172.679 54.312 172.879 54.256C173.087 54.192 173.267 54.112 173.419 54.016C173.571 53.912 173.687 53.792 173.767 53.656C173.855 53.512 173.899 53.36 173.899 53.2V52.18H172.579C172.003 52.18 171.583 52.26 171.319 52.42C171.055 52.58 170.923 52.812 170.923 53.116V53.368C170.923 53.688 171.035 53.932 171.259 54.1C171.491 54.26 171.807 54.34 172.207 54.34ZM177.814 55V48.808H178.774V49.816H178.822C178.886 49.664 178.966 49.52 179.062 49.384C179.158 49.24 179.274 49.116 179.41 49.012C179.554 48.908 179.722 48.824 179.914 48.76C180.106 48.696 180.33 48.664 180.586 48.664C181.234 48.664 181.754 48.872 182.146 49.288C182.538 49.696 182.734 50.276 182.734 51.028V55H181.774V51.196C181.774 50.628 181.65 50.208 181.402 49.936C181.154 49.656 180.79 49.516 180.31 49.516C180.118 49.516 179.93 49.54 179.746 49.588C179.562 49.636 179.398 49.708 179.254 49.804C179.11 49.9 178.994 50.024 178.906 50.176C178.818 50.328 178.774 50.504 178.774 50.704V55H177.814ZM189.253 53.992H189.205C188.805 54.76 188.169 55.144 187.297 55.144C186.537 55.144 185.941 54.86 185.509 54.292C185.085 53.724 184.873 52.928 184.873 51.904C184.873 50.88 185.085 50.084 185.509 49.516C185.941 48.948 186.537 48.664 187.297 48.664C188.169 48.664 188.805 49.048 189.205 49.816H189.253V46.12H190.213V55H189.253V53.992ZM187.669 54.292C187.885 54.292 188.089 54.264 188.281 54.208C188.473 54.152 188.641 54.072 188.785 53.968C188.929 53.856 189.041 53.724 189.121 53.572C189.209 53.412 189.253 53.228 189.253 53.02V50.788C189.253 50.58 189.209 50.4 189.121 50.248C189.041 50.088 188.929 49.956 188.785 49.852C188.641 49.74 188.473 49.656 188.281 49.6C188.089 49.544 187.885 49.516 187.669 49.516C187.109 49.516 186.673 49.688 186.361 50.032C186.057 50.368 185.905 50.816 185.905 51.376V52.432C185.905 52.992 186.057 53.444 186.361 53.788C186.673 54.124 187.109 54.292 187.669 54.292ZM195.268 55.144C194.836 55.144 194.444 55.068 194.092 54.916C193.748 54.764 193.452 54.548 193.204 54.268C192.964 53.98 192.78 53.64 192.652 53.248C192.524 52.848 192.46 52.4 192.46 51.904C192.46 51.416 192.524 50.972 192.652 50.572C192.78 50.172 192.964 49.832 193.204 49.552C193.452 49.264 193.748 49.044 194.092 48.892C194.444 48.74 194.836 48.664 195.268 48.664C195.7 48.664 196.088 48.74 196.432 48.892C196.784 49.044 197.08 49.264 197.32 49.552C197.568 49.832 197.756 50.172 197.884 50.572C198.012 50.972 198.076 51.416 198.076 51.904C198.076 52.4 198.012 52.848 197.884 53.248C197.756 53.64 197.568 53.98 197.32 54.268C197.08 54.548 196.784 54.764 196.432 54.916C196.088 55.068 195.7 55.144 195.268 55.144ZM195.268 54.316C195.804 54.316 196.236 54.156 196.564 53.836C196.892 53.516 197.056 53.02 197.056 52.348V51.46C197.056 50.788 196.892 50.292 196.564 49.972C196.236 49.652 195.804 49.492 195.268 49.492C194.732 49.492 194.3 49.652 193.972 49.972C193.644 50.292 193.48 50.788 193.48 51.46V52.348C193.48 53.02 193.644 53.516 193.972 53.836C194.3 54.156 194.732 54.316 195.268 54.316ZM199.832 55V48.808H200.72V49.528H200.768C200.864 49.288 201 49.084 201.176 48.916C201.352 48.748 201.612 48.664 201.956 48.664C202.316 48.664 202.584 48.756 202.76 48.94C202.936 49.116 203.044 49.348 203.084 49.636H203.12C203.232 49.356 203.392 49.124 203.6 48.94C203.808 48.756 204.096 48.664 204.464 48.664C204.968 48.664 205.304 48.84 205.472 49.192C205.648 49.544 205.736 50.048 205.736 50.704V55H204.848V50.86C204.848 50.332 204.792 49.968 204.68 49.768C204.576 49.56 204.38 49.456 204.092 49.456C203.836 49.456 203.628 49.54 203.468 49.708C203.308 49.868 203.228 50.116 203.228 50.452V55H202.34V50.86C202.34 50.332 202.284 49.968 202.172 49.768C202.068 49.56 201.876 49.456 201.596 49.456C201.34 49.456 201.128 49.54 200.96 49.708C200.8 49.868 200.72 50.116 200.72 50.452V55H199.832ZM214.946 55L217.25 51.856L215.006 48.808H216.158L217.094 50.116L217.838 51.148H217.886L218.606 50.116L219.53 48.808H220.634L218.366 51.844L220.694 55H219.542L218.498 53.548L217.79 52.564H217.742L217.058 53.548L216.05 55H214.946ZM230.385 46.12H231.345V49.816H231.393C231.793 49.048 232.429 48.664 233.301 48.664C234.061 48.664 234.653 48.948 235.077 49.516C235.509 50.084 235.725 50.88 235.725 51.904C235.725 52.928 235.509 53.724 235.077 54.292C234.653 54.86 234.061 55.144 233.301 55.144C232.429 55.144 231.793 54.76 231.393 53.992H231.345V55H230.385V46.12ZM232.929 54.292C233.489 54.292 233.921 54.124 234.225 53.788C234.537 53.444 234.693 52.992 234.693 52.432V51.376C234.693 50.816 234.537 50.368 234.225 50.032C233.921 49.688 233.489 49.516 232.929 49.516C232.713 49.516 232.509 49.544 232.317 49.6C232.125 49.656 231.957 49.74 231.813 49.852C231.669 49.956 231.553 50.088 231.465 50.248C231.385 50.4 231.345 50.58 231.345 50.788V53.02C231.345 53.228 231.385 53.412 231.465 53.572C231.553 53.724 231.669 53.856 231.813 53.968C231.957 54.072 232.125 54.152 232.317 54.208C232.509 54.264 232.713 54.292 232.929 54.292ZM240.468 55.144C240.02 55.144 239.616 55.068 239.256 54.916C238.904 54.764 238.6 54.548 238.344 54.268C238.096 53.98 237.904 53.64 237.768 53.248C237.632 52.848 237.564 52.404 237.564 51.916C237.564 51.42 237.632 50.972 237.768 50.572C237.912 50.172 238.108 49.832 238.356 49.552C238.604 49.264 238.9 49.044 239.244 48.892C239.596 48.74 239.984 48.664 240.408 48.664C240.824 48.664 241.2 48.74 241.536 48.892C241.88 49.044 242.172 49.256 242.412 49.528C242.652 49.792 242.836 50.108 242.964 50.476C243.092 50.844 243.156 51.248 243.156 51.688V52.144H238.572V52.432C238.572 52.704 238.616 52.956 238.704 53.188C238.792 53.42 238.916 53.62 239.076 53.788C239.244 53.956 239.444 54.088 239.676 54.184C239.916 54.272 240.18 54.316 240.468 54.316C240.884 54.316 241.244 54.22 241.548 54.028C241.852 53.836 242.084 53.572 242.244 53.236L242.952 53.716C242.768 54.132 242.46 54.476 242.028 54.748C241.604 55.012 241.084 55.144 240.468 55.144ZM240.408 49.456C240.144 49.456 239.9 49.504 239.676 49.6C239.452 49.696 239.256 49.828 239.088 49.996C238.928 50.164 238.8 50.364 238.704 50.596C238.616 50.82 238.572 51.068 238.572 51.34V51.424H242.124V51.292C242.124 51.02 242.08 50.772 241.992 50.548C241.912 50.324 241.796 50.132 241.644 49.972C241.5 49.804 241.32 49.676 241.104 49.588C240.896 49.5 240.664 49.456 240.408 49.456ZM248.176 55C247.704 55 247.356 54.868 247.132 54.604C246.916 54.34 246.808 54 246.808 53.584V49.624H244.744V48.808H246.28C246.488 48.808 246.632 48.768 246.712 48.688C246.8 48.6 246.844 48.452 246.844 48.244V46.624H247.768V48.808H250.588V49.624H247.768V54.184H250.588V55H248.176ZM252.151 48.808H253.003L253.711 54.16H253.819L254.875 48.808H255.931L256.987 54.16H257.095L257.803 48.808H258.631L257.683 55H256.435L255.451 49.816H255.355L254.347 55H253.099L252.151 48.808ZM263.014 55.144C262.566 55.144 262.162 55.068 261.802 54.916C261.45 54.764 261.146 54.548 260.89 54.268C260.642 53.98 260.45 53.64 260.314 53.248C260.178 52.848 260.11 52.404 260.11 51.916C260.11 51.42 260.178 50.972 260.314 50.572C260.458 50.172 260.654 49.832 260.902 49.552C261.15 49.264 261.446 49.044 261.79 48.892C262.142 48.74 262.53 48.664 262.954 48.664C263.37 48.664 263.746 48.74 264.082 48.892C264.426 49.044 264.718 49.256 264.958 49.528C265.198 49.792 265.382 50.108 265.51 50.476C265.638 50.844 265.702 51.248 265.702 51.688V52.144H261.118V52.432C261.118 52.704 261.162 52.956 261.25 53.188C261.338 53.42 261.462 53.62 261.622 53.788C261.79 53.956 261.99 54.088 262.222 54.184C262.462 54.272 262.726 54.316 263.014 54.316C263.43 54.316 263.79 54.22 264.094 54.028C264.398 53.836 264.63 53.572 264.79 53.236L265.498 53.716C265.314 54.132 265.006 54.476 264.574 54.748C264.15 55.012 263.63 55.144 263.014 55.144ZM262.954 49.456C262.69 49.456 262.446 49.504 262.222 49.6C261.998 49.696 261.802 49.828 261.634 49.996C261.474 50.164 261.346 50.364 261.25 50.596C261.162 50.82 261.118 51.068 261.118 51.34V51.424H264.67V51.292C264.67 51.02 264.626 50.772 264.538 50.548C264.458 50.324 264.342 50.132 264.19 49.972C264.046 49.804 263.866 49.676 263.65 49.588C263.442 49.5 263.21 49.456 262.954 49.456ZM270.53 55.144C270.082 55.144 269.678 55.068 269.318 54.916C268.966 54.764 268.662 54.548 268.406 54.268C268.158 53.98 267.966 53.64 267.83 53.248C267.694 52.848 267.626 52.404 267.626 51.916C267.626 51.42 267.694 50.972 267.83 50.572C267.974 50.172 268.17 49.832 268.418 49.552C268.666 49.264 268.962 49.044 269.306 48.892C269.658 48.74 270.046 48.664 270.47 48.664C270.886 48.664 271.262 48.74 271.598 48.892C271.942 49.044 272.234 49.256 272.474 49.528C272.714 49.792 272.898 50.108 273.026 50.476C273.154 50.844 273.218 51.248 273.218 51.688V52.144H268.634V52.432C268.634 52.704 268.678 52.956 268.766 53.188C268.854 53.42 268.978 53.62 269.138 53.788C269.306 53.956 269.506 54.088 269.738 54.184C269.978 54.272 270.242 54.316 270.53 54.316C270.946 54.316 271.306 54.22 271.61 54.028C271.914 53.836 272.146 53.572 272.306 53.236L273.014 53.716C272.83 54.132 272.522 54.476 272.09 54.748C271.666 55.012 271.146 55.144 270.53 55.144ZM270.47 49.456C270.206 49.456 269.962 49.504 269.738 49.6C269.514 49.696 269.318 49.828 269.15 49.996C268.99 50.164 268.862 50.364 268.766 50.596C268.678 50.82 268.634 51.068 268.634 51.34V51.424H272.186V51.292C272.186 51.02 272.142 50.772 272.054 50.548C271.974 50.324 271.858 50.132 271.706 49.972C271.562 49.804 271.382 49.676 271.166 49.588C270.958 49.5 270.726 49.456 270.47 49.456ZM275.513 55V48.808H276.473V49.816H276.521C276.585 49.664 276.665 49.52 276.761 49.384C276.857 49.24 276.973 49.116 277.109 49.012C277.253 48.908 277.421 48.824 277.613 48.76C277.805 48.696 278.029 48.664 278.285 48.664C278.933 48.664 279.453 48.872 279.845 49.288C280.237 49.696 280.433 50.276 280.433 51.028V55H279.473V51.196C279.473 50.628 279.349 50.208 279.101 49.936C278.853 49.656 278.489 49.516 278.009 49.516C277.817 49.516 277.629 49.54 277.445 49.588C277.261 49.636 277.097 49.708 276.953 49.804C276.809 49.9 276.693 50.024 276.605 50.176C276.517 50.328 276.473 50.504 276.473 50.704V55H275.513ZM292.967 55.144C292.455 55.144 292.015 55.048 291.647 54.856C291.279 54.656 290.975 54.372 290.735 54.004C290.495 53.636 290.319 53.184 290.207 52.648C290.095 52.112 290.039 51.5 290.039 50.812C290.039 50.132 290.095 49.524 290.207 48.988C290.319 48.444 290.495 47.988 290.735 47.62C290.975 47.252 291.279 46.972 291.647 46.78C292.015 46.58 292.455 46.48 292.967 46.48C293.479 46.48 293.919 46.58 294.287 46.78C294.655 46.972 294.959 47.252 295.199 47.62C295.439 47.988 295.615 48.444 295.727 48.988C295.839 49.524 295.895 50.132 295.895 50.812C295.895 51.5 295.839 52.112 295.727 52.648C295.615 53.184 295.439 53.636 295.199 54.004C294.959 54.372 294.655 54.656 294.287 54.856C293.919 55.048 293.479 55.144 292.967 55.144ZM292.967 54.268C293.303 54.268 293.591 54.204 293.831 54.076C294.071 53.94 294.263 53.752 294.407 53.512C294.559 53.272 294.671 52.984 294.743 52.648C294.815 52.304 294.851 51.92 294.851 51.496V50.128C294.851 49.712 294.815 49.332 294.743 48.988C294.671 48.644 294.559 48.352 294.407 48.112C294.263 47.872 294.071 47.688 293.831 47.56C293.591 47.424 293.303 47.356 292.967 47.356C292.631 47.356 292.343 47.424 292.103 47.56C291.863 47.688 291.667 47.872 291.515 48.112C291.371 48.352 291.263 48.644 291.191 48.988C291.119 49.332 291.083 49.712 291.083 50.128V51.496C291.083 51.92 291.119 52.304 291.191 52.648C291.263 52.984 291.371 53.272 291.515 53.512C291.667 53.752 291.863 53.94 292.103 54.076C292.343 54.204 292.631 54.268 292.967 54.268ZM292.967 51.52C292.687 51.52 292.491 51.464 292.379 51.352C292.275 51.24 292.223 51.104 292.223 50.944V50.68C292.223 50.52 292.275 50.384 292.379 50.272C292.491 50.16 292.687 50.104 292.967 50.104C293.247 50.104 293.439 50.16 293.543 50.272C293.655 50.384 293.711 50.52 293.711 50.68V50.944C293.711 51.104 293.655 51.24 293.543 51.352C293.439 51.464 293.247 51.52 292.967 51.52ZM307.002 55.144C306.634 55.144 306.306 55.084 306.018 54.964C305.738 54.844 305.498 54.68 305.298 54.472C305.106 54.256 304.958 54.008 304.854 53.728C304.75 53.448 304.698 53.148 304.698 52.828C304.698 52.62 304.722 52.404 304.77 52.18C304.818 51.956 304.902 51.74 305.022 51.532C305.142 51.316 305.298 51.112 305.49 50.92C305.69 50.72 305.942 50.544 306.246 50.392C306.022 50.104 305.834 49.808 305.682 49.504C305.538 49.2 305.466 48.868 305.466 48.508C305.466 48.204 305.522 47.928 305.634 47.68C305.754 47.432 305.91 47.22 306.102 47.044C306.302 46.86 306.534 46.72 306.798 46.624C307.062 46.528 307.342 46.48 307.638 46.48C307.902 46.48 308.142 46.52 308.358 46.6C308.582 46.672 308.778 46.768 308.946 46.888C309.114 47.008 309.254 47.144 309.366 47.296C309.486 47.448 309.574 47.6 309.63 47.752L308.838 48.16C308.734 47.912 308.578 47.708 308.37 47.548C308.162 47.38 307.902 47.296 307.59 47.296C307.23 47.296 306.942 47.408 306.726 47.632C306.518 47.848 306.414 48.128 306.414 48.472V48.568C306.414 48.696 306.43 48.82 306.462 48.94C306.494 49.06 306.542 49.188 306.606 49.324C306.678 49.452 306.766 49.592 306.87 49.744C306.982 49.896 307.114 50.068 307.266 50.26L308.346 51.592L309.222 52.672H309.282C309.338 52.36 309.374 52.004 309.39 51.604C309.406 51.204 309.422 50.812 309.438 50.428H311.13V51.232H310.23C310.206 51.424 310.182 51.604 310.158 51.772C310.134 51.94 310.106 52.104 310.074 52.264C310.042 52.424 310.006 52.588 309.966 52.756C309.926 52.916 309.87 53.088 309.798 53.272L311.262 55H310.122L309.078 53.764H309.018C308.906 54.18 308.678 54.516 308.334 54.772C307.99 55.02 307.546 55.144 307.002 55.144ZM307.254 54.292C307.598 54.292 307.902 54.22 308.166 54.076C308.43 53.932 308.638 53.732 308.79 53.476L306.702 50.956C306.334 51.188 306.074 51.452 305.922 51.748C305.77 52.036 305.694 52.352 305.694 52.696V52.876C305.694 53.308 305.838 53.652 306.126 53.908C306.414 54.164 306.79 54.292 307.254 54.292ZM325.861 49.696C325.861 50.32 325.765 50.908 325.573 51.46C325.389 52.004 325.149 52.504 324.853 52.96C324.557 53.408 324.229 53.808 323.869 54.16C323.517 54.504 323.169 54.784 322.825 55H321.529C321.985 54.672 322.389 54.352 322.741 54.04C323.101 53.728 323.417 53.404 323.689 53.068C323.961 52.724 324.189 52.36 324.373 51.976C324.557 51.584 324.709 51.144 324.829 50.656L324.769 50.632C324.561 50.976 324.293 51.264 323.965 51.496C323.645 51.72 323.225 51.832 322.705 51.832C322.337 51.832 321.997 51.772 321.685 51.652C321.381 51.532 321.117 51.36 320.893 51.136C320.677 50.912 320.505 50.644 320.377 50.332C320.257 50.012 320.197 49.652 320.197 49.252C320.197 48.844 320.261 48.472 320.389 48.136C320.525 47.792 320.717 47.5 320.965 47.26C321.213 47.012 321.509 46.82 321.853 46.684C322.205 46.548 322.593 46.48 323.017 46.48C323.457 46.48 323.853 46.556 324.205 46.708C324.557 46.852 324.853 47.064 325.093 47.344C325.341 47.616 325.529 47.952 325.657 48.352C325.793 48.752 325.861 49.2 325.861 49.696ZM323.029 51.004C323.605 51.004 324.049 50.848 324.361 50.536C324.681 50.224 324.841 49.784 324.841 49.216V49.12C324.841 48.552 324.681 48.112 324.361 47.8C324.049 47.488 323.605 47.332 323.029 47.332C322.453 47.332 322.005 47.488 321.685 47.8C321.373 48.112 321.217 48.552 321.217 49.12V49.216C321.217 49.784 321.373 50.224 321.685 50.536C322.005 50.848 322.453 51.004 323.029 51.004ZM333.376 49.696C333.376 50.32 333.28 50.908 333.088 51.46C332.904 52.004 332.664 52.504 332.368 52.96C332.072 53.408 331.744 53.808 331.384 54.16C331.032 54.504 330.684 54.784 330.34 55H329.044C329.5 54.672 329.904 54.352 330.256 54.04C330.616 53.728 330.932 53.404 331.204 53.068C331.476 52.724 331.704 52.36 331.888 51.976C332.072 51.584 332.224 51.144 332.344 50.656L332.284 50.632C332.076 50.976 331.808 51.264 331.48 51.496C331.16 51.72 330.74 51.832 330.22 51.832C329.852 51.832 329.512 51.772 329.2 51.652C328.896 51.532 328.632 51.36 328.408 51.136C328.192 50.912 328.02 50.644 327.892 50.332C327.772 50.012 327.712 49.652 327.712 49.252C327.712 48.844 327.776 48.472 327.904 48.136C328.04 47.792 328.232 47.5 328.48 47.26C328.728 47.012 329.024 46.82 329.368 46.684C329.72 46.548 330.108 46.48 330.532 46.48C330.972 46.48 331.368 46.556 331.72 46.708C332.072 46.852 332.368 47.064 332.608 47.344C332.856 47.616 333.044 47.952 333.172 48.352C333.308 48.752 333.376 49.2 333.376 49.696ZM330.544 51.004C331.12 51.004 331.564 50.848 331.876 50.536C332.196 50.224 332.356 49.784 332.356 49.216V49.12C332.356 48.552 332.196 48.112 331.876 47.8C331.564 47.488 331.12 47.332 330.544 47.332C329.968 47.332 329.52 47.488 329.2 47.8C328.888 48.112 328.732 48.552 328.732 49.12V49.216C328.732 49.784 328.888 50.224 329.2 50.536C329.52 50.848 329.968 51.004 330.544 51.004ZM340.891 49.696C340.891 50.32 340.795 50.908 340.603 51.46C340.419 52.004 340.179 52.504 339.883 52.96C339.587 53.408 339.259 53.808 338.899 54.16C338.547 54.504 338.199 54.784 337.855 55H336.559C337.015 54.672 337.419 54.352 337.771 54.04C338.131 53.728 338.447 53.404 338.719 53.068C338.991 52.724 339.219 52.36 339.403 51.976C339.587 51.584 339.739 51.144 339.859 50.656L339.799 50.632C339.591 50.976 339.323 51.264 338.995 51.496C338.675 51.72 338.255 51.832 337.735 51.832C337.367 51.832 337.027 51.772 336.715 51.652C336.411 51.532 336.147 51.36 335.923 51.136C335.707 50.912 335.535 50.644 335.407 50.332C335.287 50.012 335.227 49.652 335.227 49.252C335.227 48.844 335.291 48.472 335.419 48.136C335.555 47.792 335.747 47.5 335.995 47.26C336.243 47.012 336.539 46.82 336.883 46.684C337.235 46.548 337.623 46.48 338.047 46.48C338.487 46.48 338.883 46.556 339.235 46.708C339.587 46.852 339.883 47.064 340.123 47.344C340.371 47.616 340.559 47.952 340.687 48.352C340.823 48.752 340.891 49.2 340.891 49.696ZM338.059 51.004C338.635 51.004 339.079 50.848 339.391 50.536C339.711 50.224 339.871 49.784 339.871 49.216V49.12C339.871 48.552 339.711 48.112 339.391 47.8C339.079 47.488 338.635 47.332 338.059 47.332C337.483 47.332 337.035 47.488 336.715 47.8C336.403 48.112 336.247 48.552 336.247 49.12V49.216C336.247 49.784 336.403 50.224 336.715 50.536C337.035 50.848 337.483 51.004 338.059 51.004ZM348.407 49.696C348.407 50.32 348.311 50.908 348.119 51.46C347.935 52.004 347.695 52.504 347.399 52.96C347.103 53.408 346.775 53.808 346.415 54.16C346.063 54.504 345.715 54.784 345.371 55H344.075C344.531 54.672 344.935 54.352 345.287 54.04C345.647 53.728 345.963 53.404 346.235 53.068C346.507 52.724 346.735 52.36 346.919 51.976C347.103 51.584 347.255 51.144 347.375 50.656L347.315 50.632C347.107 50.976 346.839 51.264 346.511 51.496C346.191 51.72 345.771 51.832 345.251 51.832C344.883 51.832 344.543 51.772 344.231 51.652C343.927 51.532 343.663 51.36 343.439 51.136C343.223 50.912 343.051 50.644 342.923 50.332C342.803 50.012 342.743 49.652 342.743 49.252C342.743 48.844 342.807 48.472 342.935 48.136C343.071 47.792 343.263 47.5 343.511 47.26C343.759 47.012 344.055 46.82 344.399 46.684C344.751 46.548 345.139 46.48 345.563 46.48C346.003 46.48 346.399 46.556 346.751 46.708C347.103 46.852 347.399 47.064 347.639 47.344C347.887 47.616 348.075 47.952 348.203 48.352C348.339 48.752 348.407 49.2 348.407 49.696ZM345.575 51.004C346.151 51.004 346.595 50.848 346.907 50.536C347.227 50.224 347.387 49.784 347.387 49.216V49.12C347.387 48.552 347.227 48.112 346.907 47.8C346.595 47.488 346.151 47.332 345.575 47.332C344.999 47.332 344.551 47.488 344.231 47.8C343.919 48.112 343.763 48.552 343.763 49.12V49.216C343.763 49.784 343.919 50.224 344.231 50.536C344.551 50.848 344.999 51.004 345.575 51.004ZM112.984 63.44C112.704 63.44 112.508 63.384 112.396 63.272C112.284 63.152 112.228 63.004 112.228 62.828V62.636C112.228 62.46 112.284 62.316 112.396 62.204C112.508 62.084 112.704 62.024 112.984 62.024C113.264 62.024 113.46 62.084 113.572 62.204C113.684 62.316 113.74 62.46 113.74 62.636V62.828C113.74 63.004 113.684 63.152 113.572 63.272C113.46 63.384 113.264 63.44 112.984 63.44ZM110.272 70.184H112.504V65.624H110.272V64.808H113.464V70.184H115.552V71H110.272V70.184ZM117.511 70.184H119.599V65.624H117.391V64.808H119.599V63.536C119.599 63.12 119.707 62.78 119.923 62.516C120.147 62.252 120.495 62.12 120.967 62.12H123.043V62.936H120.559V64.808H123.043V65.624H120.559V70.184H122.767V71H117.511V70.184ZM132.278 71L134.582 67.856L132.338 64.808H133.49L134.426 66.116L135.17 67.148H135.218L135.938 66.116L136.862 64.808H137.966L135.698 67.844L138.026 71H136.874L135.83 69.548L135.122 68.564H135.074L134.39 69.548L133.382 71H132.278ZM147.225 71V64.808H148.113V65.528H148.161C148.257 65.288 148.393 65.084 148.569 64.916C148.745 64.748 149.005 64.664 149.349 64.664C149.709 64.664 149.977 64.756 150.153 64.94C150.329 65.116 150.437 65.348 150.477 65.636H150.513C150.625 65.356 150.785 65.124 150.993 64.94C151.201 64.756 151.489 64.664 151.857 64.664C152.361 64.664 152.697 64.84 152.865 65.192C153.041 65.544 153.129 66.048 153.129 66.704V71H152.241V66.86C152.241 66.332 152.185 65.968 152.073 65.768C151.969 65.56 151.773 65.456 151.485 65.456C151.229 65.456 151.021 65.54 150.861 65.708C150.701 65.868 150.621 66.116 150.621 66.452V71H149.733V66.86C149.733 66.332 149.677 65.968 149.565 65.768C149.461 65.56 149.269 65.456 148.989 65.456C148.733 65.456 148.521 65.54 148.353 65.708C148.193 65.868 148.113 66.116 148.113 66.452V71H147.225ZM160.032 71C159.656 71 159.388 70.904 159.228 70.712C159.068 70.52 158.968 70.28 158.928 69.992H158.868C158.732 70.352 158.512 70.636 158.208 70.844C157.912 71.044 157.512 71.144 157.008 71.144C156.36 71.144 155.844 70.976 155.46 70.64C155.076 70.304 154.884 69.844 154.884 69.26C154.884 68.684 155.092 68.24 155.508 67.928C155.932 67.616 156.612 67.46 157.548 67.46H158.868V66.848C158.868 66.392 158.74 66.052 158.484 65.828C158.228 65.596 157.864 65.48 157.392 65.48C156.976 65.48 156.636 65.564 156.372 65.732C156.108 65.892 155.896 66.112 155.736 66.392L155.088 65.912C155.168 65.752 155.276 65.596 155.412 65.444C155.548 65.292 155.716 65.16 155.916 65.048C156.116 64.928 156.344 64.836 156.6 64.772C156.856 64.7 157.14 64.664 157.452 64.664C158.18 64.664 158.756 64.848 159.18 65.216C159.612 65.584 159.828 66.096 159.828 66.752V70.16H160.692V71H160.032ZM157.176 70.34C157.424 70.34 157.648 70.312 157.848 70.256C158.056 70.192 158.236 70.112 158.388 70.016C158.54 69.912 158.656 69.792 158.736 69.656C158.824 69.512 158.868 69.36 158.868 69.2V68.18H157.548C156.972 68.18 156.552 68.26 156.288 68.42C156.024 68.58 155.892 68.812 155.892 69.116V69.368C155.892 69.688 156.004 69.932 156.228 70.1C156.46 70.26 156.776 70.34 157.176 70.34ZM165.507 71C165.035 71 164.687 70.868 164.463 70.604C164.247 70.34 164.139 70 164.139 69.584V65.624H162.075V64.808H163.611C163.819 64.808 163.963 64.768 164.043 64.688C164.131 64.6 164.175 64.452 164.175 64.244V62.624H165.099V64.808H167.919V65.624H165.099V70.184H167.919V71H165.507ZM172.939 71.144C172.491 71.144 172.091 71.068 171.739 70.916C171.395 70.756 171.103 70.536 170.863 70.256C170.623 69.976 170.439 69.636 170.311 69.236C170.191 68.836 170.131 68.392 170.131 67.904C170.131 67.416 170.195 66.972 170.323 66.572C170.451 66.172 170.635 65.832 170.875 65.552C171.115 65.264 171.407 65.044 171.751 64.892C172.095 64.74 172.487 64.664 172.927 64.664C173.527 64.664 174.015 64.796 174.391 65.06C174.767 65.324 175.043 65.668 175.219 66.092L174.451 66.5C174.339 66.18 174.151 65.932 173.887 65.756C173.631 65.58 173.311 65.492 172.927 65.492C172.647 65.492 172.395 65.54 172.171 65.636C171.955 65.724 171.771 65.852 171.619 66.02C171.467 66.188 171.351 66.388 171.271 66.62C171.199 66.852 171.163 67.104 171.163 67.376V68.432C171.163 68.704 171.199 68.956 171.271 69.188C171.351 69.42 171.467 69.62 171.619 69.788C171.771 69.956 171.959 70.088 172.183 70.184C172.407 70.272 172.663 70.316 172.951 70.316C173.367 70.316 173.711 70.22 173.983 70.028C174.255 69.836 174.471 69.572 174.631 69.236L175.315 69.704C175.131 70.12 174.843 70.464 174.451 70.736C174.067 71.008 173.563 71.144 172.939 71.144ZM177.814 62.12H178.774V65.816H178.822C178.886 65.664 178.966 65.52 179.062 65.384C179.158 65.24 179.274 65.116 179.41 65.012C179.554 64.908 179.722 64.824 179.914 64.76C180.106 64.696 180.33 64.664 180.586 64.664C181.234 64.664 181.754 64.872 182.146 65.288C182.538 65.696 182.734 66.276 182.734 67.028V71H181.774V67.196C181.774 66.628 181.65 66.208 181.402 65.936C181.154 65.656 180.79 65.516 180.31 65.516C180.118 65.516 179.93 65.54 179.746 65.588C179.562 65.636 179.398 65.708 179.254 65.804C179.11 65.9 178.994 66.024 178.906 66.176C178.818 66.328 178.774 66.504 178.774 66.704V71H177.814V62.12ZM187.861 71.144C187.413 71.144 187.009 71.068 186.649 70.916C186.297 70.764 185.993 70.548 185.737 70.268C185.489 69.98 185.297 69.64 185.161 69.248C185.025 68.848 184.957 68.404 184.957 67.916C184.957 67.42 185.025 66.972 185.161 66.572C185.305 66.172 185.501 65.832 185.749 65.552C185.997 65.264 186.293 65.044 186.637 64.892C186.989 64.74 187.377 64.664 187.801 64.664C188.217 64.664 188.593 64.74 188.929 64.892C189.273 65.044 189.565 65.256 189.805 65.528C190.045 65.792 190.229 66.108 190.357 66.476C190.485 66.844 190.549 67.248 190.549 67.688V68.144H185.965V68.432C185.965 68.704 186.009 68.956 186.097 69.188C186.185 69.42 186.309 69.62 186.469 69.788C186.637 69.956 186.837 70.088 187.069 70.184C187.309 70.272 187.573 70.316 187.861 70.316C188.277 70.316 188.637 70.22 188.941 70.028C189.245 69.836 189.477 69.572 189.637 69.236L190.345 69.716C190.161 70.132 189.853 70.476 189.421 70.748C188.997 71.012 188.477 71.144 187.861 71.144ZM187.801 65.456C187.537 65.456 187.293 65.504 187.069 65.6C186.845 65.696 186.649 65.828 186.481 65.996C186.321 66.164 186.193 66.364 186.097 66.596C186.009 66.82 185.965 67.068 185.965 67.34V67.424H189.517V67.292C189.517 67.02 189.473 66.772 189.385 66.548C189.305 66.324 189.189 66.132 189.037 65.972C188.893 65.804 188.713 65.676 188.497 65.588C188.289 65.5 188.057 65.456 187.801 65.456ZM195.34 71.144C194.692 71.144 194.132 71.036 193.66 70.82C193.196 70.596 192.8 70.3 192.472 69.932L193.12 69.368C193.416 69.68 193.74 69.92 194.092 70.088C194.444 70.256 194.868 70.34 195.364 70.34C195.844 70.34 196.236 70.256 196.54 70.088C196.852 69.912 197.008 69.64 197.008 69.272C197.008 69.112 196.976 68.98 196.912 68.876C196.856 68.764 196.776 68.676 196.672 68.612C196.568 68.548 196.452 68.5 196.324 68.468C196.196 68.428 196.06 68.396 195.916 68.372L194.944 68.228C194.728 68.196 194.492 68.152 194.236 68.096C193.988 68.04 193.76 67.952 193.552 67.832C193.344 67.704 193.168 67.536 193.024 67.328C192.888 67.12 192.82 66.848 192.82 66.512C192.82 66.2 192.88 65.932 193 65.708C193.128 65.476 193.304 65.284 193.528 65.132C193.752 64.972 194.016 64.856 194.32 64.784C194.624 64.704 194.956 64.664 195.316 64.664C195.876 64.664 196.36 64.752 196.768 64.928C197.184 65.104 197.54 65.348 197.836 65.66L197.212 66.248C197.14 66.16 197.048 66.072 196.936 65.984C196.832 65.888 196.7 65.804 196.54 65.732C196.388 65.652 196.208 65.588 196 65.54C195.792 65.492 195.552 65.468 195.28 65.468C194.792 65.468 194.416 65.552 194.152 65.72C193.896 65.888 193.768 66.132 193.768 66.452C193.768 66.612 193.796 66.748 193.852 66.86C193.916 66.964 194 67.048 194.104 67.112C194.208 67.176 194.324 67.228 194.452 67.268C194.588 67.3 194.724 67.328 194.86 67.352L195.832 67.496C196.056 67.528 196.292 67.572 196.54 67.628C196.788 67.684 197.016 67.776 197.224 67.904C197.432 68.024 197.604 68.188 197.74 68.396C197.884 68.604 197.956 68.876 197.956 69.212C197.956 69.828 197.716 70.304 197.236 70.64C196.764 70.976 196.132 71.144 195.34 71.144ZM210.371 71.144C209.723 71.144 209.163 71.036 208.691 70.82C208.227 70.596 207.831 70.3 207.503 69.932L208.151 69.368C208.447 69.68 208.771 69.92 209.123 70.088C209.475 70.256 209.899 70.34 210.395 70.34C210.875 70.34 211.267 70.256 211.571 70.088C211.883 69.912 212.039 69.64 212.039 69.272C212.039 69.112 212.007 68.98 211.943 68.876C211.887 68.764 211.807 68.676 211.703 68.612C211.599 68.548 211.483 68.5 211.355 68.468C211.227 68.428 211.091 68.396 210.947 68.372L209.975 68.228C209.759 68.196 209.523 68.152 209.267 68.096C209.019 68.04 208.791 67.952 208.583 67.832C208.375 67.704 208.199 67.536 208.055 67.328C207.919 67.12 207.851 66.848 207.851 66.512C207.851 66.2 207.911 65.932 208.031 65.708C208.159 65.476 208.335 65.284 208.559 65.132C208.783 64.972 209.047 64.856 209.351 64.784C209.655 64.704 209.987 64.664 210.347 64.664C210.907 64.664 211.391 64.752 211.799 64.928C212.215 65.104 212.571 65.348 212.867 65.66L212.243 66.248C212.171 66.16 212.079 66.072 211.967 65.984C211.863 65.888 211.731 65.804 211.571 65.732C211.419 65.652 211.239 65.588 211.031 65.54C210.823 65.492 210.583 65.468 210.311 65.468C209.823 65.468 209.447 65.552 209.183 65.72C208.927 65.888 208.799 66.132 208.799 66.452C208.799 66.612 208.827 66.748 208.883 66.86C208.947 66.964 209.031 67.048 209.135 67.112C209.239 67.176 209.355 67.228 209.483 67.268C209.619 67.3 209.755 67.328 209.891 67.352L210.863 67.496C211.087 67.528 211.323 67.572 211.571 67.628C211.819 67.684 212.047 67.776 212.255 67.904C212.463 68.024 212.635 68.188 212.771 68.396C212.915 68.604 212.987 68.876 212.987 69.212C212.987 69.828 212.747 70.304 212.267 70.64C211.795 70.976 211.163 71.144 210.371 71.144ZM217.922 71.144C217.474 71.144 217.07 71.068 216.71 70.916C216.358 70.764 216.054 70.548 215.798 70.268C215.55 69.98 215.358 69.64 215.222 69.248C215.086 68.848 215.018 68.404 215.018 67.916C215.018 67.42 215.086 66.972 215.222 66.572C215.366 66.172 215.562 65.832 215.81 65.552C216.058 65.264 216.354 65.044 216.698 64.892C217.05 64.74 217.438 64.664 217.862 64.664C218.278 64.664 218.654 64.74 218.99 64.892C219.334 65.044 219.626 65.256 219.866 65.528C220.106 65.792 220.29 66.108 220.418 66.476C220.546 66.844 220.61 67.248 220.61 67.688V68.144H216.026V68.432C216.026 68.704 216.07 68.956 216.158 69.188C216.246 69.42 216.37 69.62 216.53 69.788C216.698 69.956 216.898 70.088 217.13 70.184C217.37 70.272 217.634 70.316 217.922 70.316C218.338 70.316 218.698 70.22 219.002 70.028C219.306 69.836 219.538 69.572 219.698 69.236L220.406 69.716C220.222 70.132 219.914 70.476 219.482 70.748C219.058 71.012 218.538 71.144 217.922 71.144ZM217.862 65.456C217.598 65.456 217.354 65.504 217.13 65.6C216.906 65.696 216.71 65.828 216.542 65.996C216.382 66.164 216.254 66.364 216.158 66.596C216.07 66.82 216.026 67.068 216.026 67.34V67.424H219.578V67.292C219.578 67.02 219.534 66.772 219.446 66.548C219.366 66.324 219.25 66.132 219.098 65.972C218.954 65.804 218.774 65.676 218.558 65.588C218.35 65.5 218.118 65.456 217.862 65.456ZM225.546 71.144C225.098 71.144 224.698 71.068 224.346 70.916C224.002 70.756 223.71 70.536 223.47 70.256C223.23 69.976 223.046 69.636 222.918 69.236C222.798 68.836 222.738 68.392 222.738 67.904C222.738 67.416 222.802 66.972 222.93 66.572C223.058 66.172 223.242 65.832 223.482 65.552C223.722 65.264 224.014 65.044 224.358 64.892C224.702 64.74 225.094 64.664 225.534 64.664C226.134 64.664 226.622 64.796 226.998 65.06C227.374 65.324 227.65 65.668 227.826 66.092L227.058 66.5C226.946 66.18 226.758 65.932 226.494 65.756C226.238 65.58 225.918 65.492 225.534 65.492C225.254 65.492 225.002 65.54 224.778 65.636C224.562 65.724 224.378 65.852 224.226 66.02C224.074 66.188 223.958 66.388 223.878 66.62C223.806 66.852 223.77 67.104 223.77 67.376V68.432C223.77 68.704 223.806 68.956 223.878 69.188C223.958 69.42 224.074 69.62 224.226 69.788C224.378 69.956 224.566 70.088 224.79 70.184C225.014 70.272 225.27 70.316 225.558 70.316C225.974 70.316 226.318 70.22 226.59 70.028C226.862 69.836 227.078 69.572 227.238 69.236L227.922 69.704C227.738 70.12 227.45 70.464 227.058 70.736C226.674 71.008 226.17 71.144 225.546 71.144ZM230.169 70.184H231.981V65.624H230.169V64.808H232.941V66.368H233.001C233.129 65.88 233.369 65.5 233.721 65.228C234.081 64.948 234.537 64.808 235.089 64.808H235.953V65.768H234.789C234.237 65.768 233.789 65.928 233.445 66.248C233.109 66.568 232.941 66.988 232.941 67.508V70.184H235.341V71H230.169V70.184ZM240.468 71.144C240.02 71.144 239.616 71.068 239.256 70.916C238.904 70.764 238.6 70.548 238.344 70.268C238.096 69.98 237.904 69.64 237.768 69.248C237.632 68.848 237.564 68.404 237.564 67.916C237.564 67.42 237.632 66.972 237.768 66.572C237.912 66.172 238.108 65.832 238.356 65.552C238.604 65.264 238.9 65.044 239.244 64.892C239.596 64.74 239.984 64.664 240.408 64.664C240.824 64.664 241.2 64.74 241.536 64.892C241.88 65.044 242.172 65.256 242.412 65.528C242.652 65.792 242.836 66.108 242.964 66.476C243.092 66.844 243.156 67.248 243.156 67.688V68.144H238.572V68.432C238.572 68.704 238.616 68.956 238.704 69.188C238.792 69.42 238.916 69.62 239.076 69.788C239.244 69.956 239.444 70.088 239.676 70.184C239.916 70.272 240.18 70.316 240.468 70.316C240.884 70.316 241.244 70.22 241.548 70.028C241.852 69.836 242.084 69.572 242.244 69.236L242.952 69.716C242.768 70.132 242.46 70.476 242.028 70.748C241.604 71.012 241.084 71.144 240.468 71.144ZM240.408 65.456C240.144 65.456 239.9 65.504 239.676 65.6C239.452 65.696 239.256 65.828 239.088 65.996C238.928 66.164 238.8 66.364 238.704 66.596C238.616 66.82 238.572 67.068 238.572 67.34V67.424H242.124V67.292C242.124 67.02 242.08 66.772 241.992 66.548C241.912 66.324 241.796 66.132 241.644 65.972C241.5 65.804 241.32 65.676 241.104 65.588C240.896 65.5 240.664 65.456 240.408 65.456ZM248.176 71C247.704 71 247.356 70.868 247.132 70.604C246.916 70.34 246.808 70 246.808 69.584V65.624H244.744V64.808H246.28C246.488 64.808 246.632 64.768 246.712 64.688C246.8 64.6 246.844 64.452 246.844 64.244V62.624H247.768V64.808H250.588V65.624H247.768V70.184H250.588V71H248.176ZM260.482 71V64.808H261.442V65.816H261.49C261.554 65.664 261.634 65.52 261.73 65.384C261.826 65.24 261.942 65.116 262.078 65.012C262.222 64.908 262.39 64.824 262.582 64.76C262.774 64.696 262.998 64.664 263.254 64.664C263.902 64.664 264.422 64.872 264.814 65.288C265.206 65.696 265.402 66.276 265.402 67.028V71H264.442V67.196C264.442 66.628 264.318 66.208 264.07 65.936C263.822 65.656 263.458 65.516 262.978 65.516C262.786 65.516 262.598 65.54 262.414 65.588C262.23 65.636 262.066 65.708 261.922 65.804C261.778 65.9 261.662 66.024 261.574 66.176C261.486 66.328 261.442 66.504 261.442 66.704V71H260.482ZM271.886 69.992H271.838C271.774 70.144 271.694 70.292 271.598 70.436C271.502 70.572 271.382 70.692 271.238 70.796C271.102 70.9 270.938 70.984 270.746 71.048C270.554 71.112 270.33 71.144 270.074 71.144C269.426 71.144 268.906 70.94 268.514 70.532C268.122 70.116 267.926 69.532 267.926 68.78V64.808H268.886V68.612C268.886 69.18 269.01 69.604 269.258 69.884C269.506 70.156 269.87 70.292 270.35 70.292C270.542 70.292 270.73 70.268 270.914 70.22C271.098 70.172 271.262 70.1 271.406 70.004C271.55 69.908 271.666 69.788 271.754 69.644C271.842 69.492 271.886 69.312 271.886 69.104V64.808H272.846V71H271.886V69.992ZM274.985 71V64.808H275.873V65.528H275.921C276.017 65.288 276.153 65.084 276.329 64.916C276.505 64.748 276.765 64.664 277.109 64.664C277.469 64.664 277.737 64.756 277.913 64.94C278.089 65.116 278.197 65.348 278.237 65.636H278.273C278.385 65.356 278.545 65.124 278.753 64.94C278.961 64.756 279.249 64.664 279.617 64.664C280.121 64.664 280.457 64.84 280.625 65.192C280.801 65.544 280.889 66.048 280.889 66.704V71H280.001V66.86C280.001 66.332 279.945 65.968 279.833 65.768C279.729 65.56 279.533 65.456 279.245 65.456C278.989 65.456 278.781 65.54 278.621 65.708C278.461 65.868 278.381 66.116 278.381 66.452V71H277.493V66.86C277.493 66.332 277.437 65.968 277.325 65.768C277.221 65.56 277.029 65.456 276.749 65.456C276.493 65.456 276.281 65.54 276.113 65.708C275.953 65.868 275.873 66.116 275.873 66.452V71H274.985ZM282.992 62.12H283.952V65.816H284C284.4 65.048 285.036 64.664 285.908 64.664C286.668 64.664 287.26 64.948 287.684 65.516C288.116 66.084 288.332 66.88 288.332 67.904C288.332 68.928 288.116 69.724 287.684 70.292C287.26 70.86 286.668 71.144 285.908 71.144C285.036 71.144 284.4 70.76 284 69.992H283.952V71H282.992V62.12ZM285.536 70.292C286.096 70.292 286.528 70.124 286.832 69.788C287.144 69.444 287.3 68.992 287.3 68.432V67.376C287.3 66.816 287.144 66.368 286.832 66.032C286.528 65.688 286.096 65.516 285.536 65.516C285.32 65.516 285.116 65.544 284.924 65.6C284.732 65.656 284.564 65.74 284.42 65.852C284.276 65.956 284.16 66.088 284.072 66.248C283.992 66.4 283.952 66.58 283.952 66.788V69.02C283.952 69.228 283.992 69.412 284.072 69.572C284.16 69.724 284.276 69.856 284.42 69.968C284.564 70.072 284.732 70.152 284.924 70.208C285.116 70.264 285.32 70.292 285.536 70.292ZM293.075 71.144C292.627 71.144 292.223 71.068 291.863 70.916C291.511 70.764 291.207 70.548 290.951 70.268C290.703 69.98 290.511 69.64 290.375 69.248C290.239 68.848 290.171 68.404 290.171 67.916C290.171 67.42 290.239 66.972 290.375 66.572C290.519 66.172 290.715 65.832 290.963 65.552C291.211 65.264 291.507 65.044 291.851 64.892C292.203 64.74 292.591 64.664 293.015 64.664C293.431 64.664 293.807 64.74 294.143 64.892C294.487 65.044 294.779 65.256 295.019 65.528C295.259 65.792 295.443 66.108 295.571 66.476C295.699 66.844 295.763 67.248 295.763 67.688V68.144H291.179V68.432C291.179 68.704 291.223 68.956 291.311 69.188C291.399 69.42 291.523 69.62 291.683 69.788C291.851 69.956 292.051 70.088 292.283 70.184C292.523 70.272 292.787 70.316 293.075 70.316C293.491 70.316 293.851 70.22 294.155 70.028C294.459 69.836 294.691 69.572 294.851 69.236L295.559 69.716C295.375 70.132 295.067 70.476 294.635 70.748C294.211 71.012 293.691 71.144 293.075 71.144ZM293.015 65.456C292.751 65.456 292.507 65.504 292.283 65.6C292.059 65.696 291.863 65.828 291.695 65.996C291.535 66.164 291.407 66.364 291.311 66.596C291.223 66.82 291.179 67.068 291.179 67.34V67.424H294.731V67.292C294.731 67.02 294.687 66.772 294.599 66.548C294.519 66.324 294.403 66.132 294.251 65.972C294.107 65.804 293.927 65.676 293.711 65.588C293.503 65.5 293.271 65.456 293.015 65.456ZM297.807 70.184H299.619V65.624H297.807V64.808H300.579V66.368H300.639C300.767 65.88 301.007 65.5 301.359 65.228C301.719 64.948 302.175 64.808 302.727 64.808H303.591V65.768H302.427C301.875 65.768 301.427 65.928 301.083 66.248C300.747 66.568 300.579 66.988 300.579 67.508V70.184H302.979V71H297.807V70.184ZM127.631 87.144C127.199 87.144 126.807 87.068 126.455 86.916C126.111 86.764 125.815 86.548 125.567 86.268C125.327 85.98 125.143 85.64 125.015 85.248C124.887 84.848 124.823 84.4 124.823 83.904C124.823 83.416 124.887 82.972 125.015 82.572C125.143 82.172 125.327 81.832 125.567 81.552C125.815 81.264 126.111 81.044 126.455 80.892C126.807 80.74 127.199 80.664 127.631 80.664C128.063 80.664 128.451 80.74 128.795 80.892C129.147 81.044 129.443 81.264 129.683 81.552C129.931 81.832 130.119 82.172 130.247 82.572C130.375 82.972 130.439 83.416 130.439 83.904C130.439 84.4 130.375 84.848 130.247 85.248C130.119 85.64 129.931 85.98 129.683 86.268C129.443 86.548 129.147 86.764 128.795 86.916C128.451 87.068 128.063 87.144 127.631 87.144ZM127.631 86.316C128.167 86.316 128.599 86.156 128.927 85.836C129.255 85.516 129.419 85.02 129.419 84.348V83.46C129.419 82.788 129.255 82.292 128.927 81.972C128.599 81.652 128.167 81.492 127.631 81.492C127.095 81.492 126.663 81.652 126.335 81.972C126.007 82.292 125.843 82.788 125.843 83.46V84.348C125.843 85.02 126.007 85.516 126.335 85.836C126.663 86.156 127.095 86.316 127.631 86.316ZM136.61 85.992H136.562C136.498 86.144 136.418 86.292 136.322 86.436C136.226 86.572 136.106 86.692 135.962 86.796C135.826 86.9 135.662 86.984 135.47 87.048C135.278 87.112 135.054 87.144 134.798 87.144C134.15 87.144 133.63 86.94 133.238 86.532C132.846 86.116 132.65 85.532 132.65 84.78V80.808H133.61V84.612C133.61 85.18 133.734 85.604 133.982 85.884C134.23 86.156 134.594 86.292 135.074 86.292C135.266 86.292 135.454 86.268 135.638 86.22C135.822 86.172 135.986 86.1 136.13 86.004C136.274 85.908 136.39 85.788 136.478 85.644C136.566 85.492 136.61 85.312 136.61 85.104V80.808H137.57V87H136.61V85.992ZM142.961 87C142.489 87 142.141 86.868 141.917 86.604C141.701 86.34 141.593 86 141.593 85.584V81.624H139.529V80.808H141.065C141.273 80.808 141.417 80.768 141.497 80.688C141.585 80.6 141.629 80.452 141.629 80.244V78.624H142.553V80.808H145.373V81.624H142.553V86.184H145.373V87H142.961ZM147.717 80.808H148.677V81.816H148.725C149.125 81.048 149.761 80.664 150.633 80.664C151.393 80.664 151.985 80.948 152.409 81.516C152.841 82.084 153.057 82.88 153.057 83.904C153.057 84.928 152.841 85.724 152.409 86.292C151.985 86.86 151.393 87.144 150.633 87.144C149.761 87.144 149.125 86.76 148.725 85.992H148.677V89.4H147.717V80.808ZM150.261 86.292C150.821 86.292 151.253 86.124 151.557 85.788C151.869 85.444 152.025 84.992 152.025 84.432V83.376C152.025 82.816 151.869 82.368 151.557 82.032C151.253 81.688 150.821 81.516 150.261 81.516C150.045 81.516 149.841 81.544 149.649 81.6C149.457 81.656 149.289 81.74 149.145 81.852C149.001 81.956 148.885 82.088 148.797 82.248C148.717 82.4 148.677 82.58 148.677 82.788V85.02C148.677 85.228 148.717 85.412 148.797 85.572C148.885 85.724 149.001 85.856 149.145 85.968C149.289 86.072 149.457 86.152 149.649 86.208C149.841 86.264 150.045 86.292 150.261 86.292ZM159.156 85.992H159.108C159.044 86.144 158.964 86.292 158.868 86.436C158.772 86.572 158.652 86.692 158.508 86.796C158.372 86.9 158.208 86.984 158.016 87.048C157.824 87.112 157.6 87.144 157.344 87.144C156.696 87.144 156.176 86.94 155.784 86.532C155.392 86.116 155.196 85.532 155.196 84.78V80.808H156.156V84.612C156.156 85.18 156.28 85.604 156.528 85.884C156.776 86.156 157.14 86.292 157.62 86.292C157.812 86.292 158 86.268 158.184 86.22C158.368 86.172 158.532 86.1 158.676 86.004C158.82 85.908 158.936 85.788 159.024 85.644C159.112 85.492 159.156 85.312 159.156 85.104V80.808H160.116V87H159.156V85.992ZM165.507 87C165.035 87 164.687 86.868 164.463 86.604C164.247 86.34 164.139 86 164.139 85.584V81.624H162.075V80.808H163.611C163.819 80.808 163.963 80.768 164.043 80.688C164.131 80.6 164.175 80.452 164.175 80.244V78.624H165.099V80.808H167.919V81.624H165.099V86.184H167.919V87H165.507ZM177.37 87L179.674 83.856L177.43 80.808H178.582L179.518 82.116L180.262 83.148H180.31L181.03 82.116L181.954 80.808H183.058L180.79 83.844L183.118 87H181.966L180.922 85.548L180.214 84.564H180.166L179.482 85.548L178.474 87H177.37ZM112.708 103.144C112.26 103.144 111.856 103.068 111.496 102.916C111.144 102.764 110.84 102.548 110.584 102.268C110.336 101.98 110.144 101.64 110.008 101.248C109.872 100.848 109.804 100.404 109.804 99.916C109.804 99.42 109.872 98.972 110.008 98.572C110.152 98.172 110.348 97.832 110.596 97.552C110.844 97.264 111.14 97.044 111.484 96.892C111.836 96.74 112.224 96.664 112.648 96.664C113.064 96.664 113.44 96.74 113.776 96.892C114.12 97.044 114.412 97.256 114.652 97.528C114.892 97.792 115.076 98.108 115.204 98.476C115.332 98.844 115.396 99.248 115.396 99.688V100.144H110.812V100.432C110.812 100.704 110.856 100.956 110.944 101.188C111.032 101.42 111.156 101.62 111.316 101.788C111.484 101.956 111.684 102.088 111.916 102.184C112.156 102.272 112.42 102.316 112.708 102.316C113.124 102.316 113.484 102.22 113.788 102.028C114.092 101.836 114.324 101.572 114.484 101.236L115.192 101.716C115.008 102.132 114.7 102.476 114.268 102.748C113.844 103.012 113.324 103.144 112.708 103.144ZM112.648 97.456C112.384 97.456 112.14 97.504 111.916 97.6C111.692 97.696 111.496 97.828 111.328 97.996C111.168 98.164 111.04 98.364 110.944 98.596C110.856 98.82 110.812 99.068 110.812 99.34V99.424H114.364V99.292C114.364 99.02 114.32 98.772 114.232 98.548C114.152 98.324 114.036 98.132 113.884 97.972C113.74 97.804 113.56 97.676 113.344 97.588C113.136 97.5 112.904 97.456 112.648 97.456ZM117.475 102.184H119.635V94.936H117.475V94.12H120.595V102.184H122.755V103H117.475V102.184ZM127.703 103.144C127.055 103.144 126.495 103.036 126.023 102.82C125.559 102.596 125.163 102.3 124.835 101.932L125.483 101.368C125.779 101.68 126.103 101.92 126.455 102.088C126.807 102.256 127.231 102.34 127.727 102.34C128.207 102.34 128.599 102.256 128.903 102.088C129.215 101.912 129.371 101.64 129.371 101.272C129.371 101.112 129.339 100.98 129.275 100.876C129.219 100.764 129.139 100.676 129.035 100.612C128.931 100.548 128.815 100.5 128.687 100.468C128.559 100.428 128.423 100.396 128.279 100.372L127.307 100.228C127.091 100.196 126.855 100.152 126.599 100.096C126.351 100.04 126.123 99.952 125.915 99.832C125.707 99.704 125.531 99.536 125.387 99.328C125.251 99.12 125.183 98.848 125.183 98.512C125.183 98.2 125.243 97.932 125.363 97.708C125.491 97.476 125.667 97.284 125.891 97.132C126.115 96.972 126.379 96.856 126.683 96.784C126.987 96.704 127.319 96.664 127.679 96.664C128.239 96.664 128.723 96.752 129.131 96.928C129.547 97.104 129.903 97.348 130.199 97.66L129.575 98.248C129.503 98.16 129.411 98.072 129.299 97.984C129.195 97.888 129.063 97.804 128.903 97.732C128.751 97.652 128.571 97.588 128.363 97.54C128.155 97.492 127.915 97.468 127.643 97.468C127.155 97.468 126.779 97.552 126.515 97.72C126.259 97.888 126.131 98.132 126.131 98.452C126.131 98.612 126.159 98.748 126.215 98.86C126.279 98.964 126.363 99.048 126.467 99.112C126.571 99.176 126.687 99.228 126.815 99.268C126.951 99.3 127.087 99.328 127.223 99.352L128.195 99.496C128.419 99.528 128.655 99.572 128.903 99.628C129.151 99.684 129.379 99.776 129.587 99.904C129.795 100.024 129.967 100.188 130.103 100.396C130.247 100.604 130.319 100.876 130.319 101.212C130.319 101.828 130.079 102.304 129.599 102.64C129.127 102.976 128.495 103.144 127.703 103.144ZM135.254 103.144C134.806 103.144 134.402 103.068 134.042 102.916C133.69 102.764 133.386 102.548 133.13 102.268C132.882 101.98 132.69 101.64 132.554 101.248C132.418 100.848 132.35 100.404 132.35 99.916C132.35 99.42 132.418 98.972 132.554 98.572C132.698 98.172 132.894 97.832 133.142 97.552C133.39 97.264 133.686 97.044 134.03 96.892C134.382 96.74 134.77 96.664 135.194 96.664C135.61 96.664 135.986 96.74 136.322 96.892C136.666 97.044 136.958 97.256 137.198 97.528C137.438 97.792 137.622 98.108 137.75 98.476C137.878 98.844 137.942 99.248 137.942 99.688V100.144H133.358V100.432C133.358 100.704 133.402 100.956 133.49 101.188C133.578 101.42 133.702 101.62 133.862 101.788C134.03 101.956 134.23 102.088 134.462 102.184C134.702 102.272 134.966 102.316 135.254 102.316C135.67 102.316 136.03 102.22 136.334 102.028C136.638 101.836 136.87 101.572 137.03 101.236L137.738 101.716C137.554 102.132 137.246 102.476 136.814 102.748C136.39 103.012 135.87 103.144 135.254 103.144ZM135.194 97.456C134.93 97.456 134.686 97.504 134.462 97.6C134.238 97.696 134.042 97.828 133.874 97.996C133.714 98.164 133.586 98.364 133.49 98.596C133.402 98.82 133.358 99.068 133.358 99.34V99.424H136.91V99.292C136.91 99.02 136.866 98.772 136.778 98.548C136.698 98.324 136.582 98.132 136.43 97.972C136.286 97.804 136.106 97.676 135.89 97.588C135.682 97.5 135.45 97.456 135.194 97.456ZM142.661 103.108C142.333 103.108 142.101 103.04 141.965 102.904C141.837 102.768 141.773 102.596 141.773 102.388V102.172C141.773 101.964 141.837 101.792 141.965 101.656C142.101 101.52 142.333 101.452 142.661 101.452C142.989 101.452 143.217 101.52 143.345 101.656C143.481 101.792 143.549 101.964 143.549 102.172V102.388C143.549 102.596 143.481 102.768 143.345 102.904C143.217 103.04 142.989 103.108 142.661 103.108ZM142.661 98.356C142.333 98.356 142.101 98.288 141.965 98.152C141.837 98.016 141.773 97.844 141.773 97.636V97.42C141.773 97.212 141.837 97.04 141.965 96.904C142.101 96.768 142.333 96.7 142.661 96.7C142.989 96.7 143.217 96.768 143.345 96.904C143.481 97.04 143.549 97.212 143.549 97.42V97.636C143.549 97.844 143.481 98.016 143.345 98.152C143.217 98.288 142.989 98.356 142.661 98.356ZM130.763 119.708C130.763 120.332 130.503 120.792 129.983 121.088C129.463 121.392 128.683 121.544 127.643 121.544C126.643 121.544 125.923 121.412 125.483 121.148C125.051 120.884 124.835 120.504 124.835 120.008C124.835 119.672 124.923 119.412 125.099 119.228C125.275 119.044 125.523 118.908 125.843 118.82V118.676C125.667 118.588 125.531 118.476 125.435 118.34C125.339 118.204 125.291 118.032 125.291 117.824C125.291 117.504 125.395 117.264 125.603 117.104C125.819 116.944 126.087 116.824 126.407 116.744V116.696C126.023 116.528 125.723 116.28 125.507 115.952C125.299 115.624 125.195 115.24 125.195 114.8C125.195 114.488 125.251 114.2 125.363 113.936C125.475 113.672 125.635 113.448 125.843 113.264C126.059 113.072 126.315 112.924 126.611 112.82C126.907 112.716 127.235 112.664 127.595 112.664C128.059 112.664 128.467 112.748 128.819 112.916V112.808C128.819 112.568 128.875 112.368 128.987 112.208C129.099 112.048 129.291 111.968 129.563 111.968H130.703V112.808H129.311V113.228C129.535 113.42 129.707 113.648 129.827 113.912C129.947 114.176 130.007 114.472 130.007 114.8C130.007 115.112 129.947 115.4 129.827 115.664C129.715 115.928 129.555 116.156 129.347 116.348C129.139 116.532 128.883 116.676 128.579 116.78C128.283 116.884 127.955 116.936 127.595 116.936C127.491 116.936 127.391 116.932 127.295 116.924C127.199 116.916 127.103 116.904 127.007 116.888C126.911 116.904 126.811 116.932 126.707 116.972C126.603 117.004 126.507 117.052 126.419 117.116C126.331 117.172 126.259 117.24 126.203 117.32C126.147 117.4 126.119 117.492 126.119 117.596C126.119 117.78 126.211 117.904 126.395 117.968C126.579 118.024 126.819 118.052 127.115 118.052H128.483C129.283 118.052 129.863 118.204 130.223 118.508C130.583 118.804 130.763 119.204 130.763 119.708ZM129.863 119.756C129.863 119.508 129.763 119.308 129.563 119.156C129.363 119.012 129.015 118.94 128.519 118.94H126.371C125.955 119.108 125.747 119.388 125.747 119.78C125.747 120.052 125.855 120.284 126.071 120.476C126.287 120.676 126.647 120.776 127.151 120.776H128.087C128.647 120.776 129.083 120.688 129.395 120.512C129.707 120.344 129.863 120.092 129.863 119.756ZM127.595 116.192C128.075 116.192 128.427 116.08 128.651 115.856C128.883 115.632 128.999 115.336 128.999 114.968V114.62C128.999 114.252 128.883 113.96 128.651 113.744C128.427 113.52 128.075 113.408 127.595 113.408C127.115 113.408 126.763 113.52 126.539 113.744C126.315 113.96 126.203 114.252 126.203 114.62V114.968C126.203 115.336 126.315 115.632 126.539 115.856C126.763 116.08 127.115 116.192 127.595 116.192ZM135.146 119.144C134.714 119.144 134.322 119.068 133.97 118.916C133.626 118.764 133.33 118.548 133.082 118.268C132.842 117.98 132.658 117.64 132.53 117.248C132.402 116.848 132.338 116.4 132.338 115.904C132.338 115.416 132.402 114.972 132.53 114.572C132.658 114.172 132.842 113.832 133.082 113.552C133.33 113.264 133.626 113.044 133.97 112.892C134.322 112.74 134.714 112.664 135.146 112.664C135.578 112.664 135.966 112.74 136.31 112.892C136.662 113.044 136.958 113.264 137.198 113.552C137.446 113.832 137.634 114.172 137.762 114.572C137.89 114.972 137.954 115.416 137.954 115.904C137.954 116.4 137.89 116.848 137.762 117.248C137.634 117.64 137.446 117.98 137.198 118.268C136.958 118.548 136.662 118.764 136.31 118.916C135.966 119.068 135.578 119.144 135.146 119.144ZM135.146 118.316C135.682 118.316 136.114 118.156 136.442 117.836C136.77 117.516 136.934 117.02 136.934 116.348V115.46C136.934 114.788 136.77 114.292 136.442 113.972C136.114 113.652 135.682 113.492 135.146 113.492C134.61 113.492 134.178 113.652 133.85 113.972C133.522 114.292 133.358 114.788 133.358 115.46V116.348C133.358 117.02 133.522 117.516 133.85 117.836C134.178 118.156 134.61 118.316 135.146 118.316ZM150.477 119C150.005 119 149.657 118.868 149.433 118.604C149.217 118.34 149.109 118 149.109 117.584V113.624H147.045V112.808H148.581C148.789 112.808 148.933 112.768 149.013 112.688C149.101 112.6 149.145 112.452 149.145 112.244V110.624H150.069V112.808H152.889V113.624H150.069V118.184H152.889V119H150.477ZM157.692 119.144C157.26 119.144 156.868 119.068 156.516 118.916C156.172 118.764 155.876 118.548 155.628 118.268C155.388 117.98 155.204 117.64 155.076 117.248C154.948 116.848 154.884 116.4 154.884 115.904C154.884 115.416 154.948 114.972 155.076 114.572C155.204 114.172 155.388 113.832 155.628 113.552C155.876 113.264 156.172 113.044 156.516 112.892C156.868 112.74 157.26 112.664 157.692 112.664C158.124 112.664 158.512 112.74 158.856 112.892C159.208 113.044 159.504 113.264 159.744 113.552C159.992 113.832 160.18 114.172 160.308 114.572C160.436 114.972 160.5 115.416 160.5 115.904C160.5 116.4 160.436 116.848 160.308 117.248C160.18 117.64 159.992 117.98 159.744 118.268C159.504 118.548 159.208 118.764 158.856 118.916C158.512 119.068 158.124 119.144 157.692 119.144ZM157.692 118.316C158.228 118.316 158.66 118.156 158.988 117.836C159.316 117.516 159.48 117.02 159.48 116.348V115.46C159.48 114.788 159.316 114.292 158.988 113.972C158.66 113.652 158.228 113.492 157.692 113.492C157.156 113.492 156.724 113.652 156.396 113.972C156.068 114.292 155.904 114.788 155.904 115.46V116.348C155.904 117.02 156.068 117.516 156.396 117.836C156.724 118.156 157.156 118.316 157.692 118.316ZM172.795 119.144C172.147 119.144 171.587 119.036 171.115 118.82C170.651 118.596 170.255 118.3 169.927 117.932L170.575 117.368C170.871 117.68 171.195 117.92 171.547 118.088C171.899 118.256 172.323 118.34 172.819 118.34C173.299 118.34 173.691 118.256 173.995 118.088C174.307 117.912 174.463 117.64 174.463 117.272C174.463 117.112 174.431 116.98 174.367 116.876C174.311 116.764 174.231 116.676 174.127 116.612C174.023 116.548 173.907 116.5 173.779 116.468C173.651 116.428 173.515 116.396 173.371 116.372L172.399 116.228C172.183 116.196 171.947 116.152 171.691 116.096C171.443 116.04 171.215 115.952 171.007 115.832C170.799 115.704 170.623 115.536 170.479 115.328C170.343 115.12 170.275 114.848 170.275 114.512C170.275 114.2 170.335 113.932 170.455 113.708C170.583 113.476 170.759 113.284 170.983 113.132C171.207 112.972 171.471 112.856 171.775 112.784C172.079 112.704 172.411 112.664 172.771 112.664C173.331 112.664 173.815 112.752 174.223 112.928C174.639 113.104 174.995 113.348 175.291 113.66L174.667 114.248C174.595 114.16 174.503 114.072 174.391 113.984C174.287 113.888 174.155 113.804 173.995 113.732C173.843 113.652 173.663 113.588 173.455 113.54C173.247 113.492 173.007 113.468 172.735 113.468C172.247 113.468 171.871 113.552 171.607 113.72C171.351 113.888 171.223 114.132 171.223 114.452C171.223 114.612 171.251 114.748 171.307 114.86C171.371 114.964 171.455 115.048 171.559 115.112C171.663 115.176 171.779 115.228 171.907 115.268C172.043 115.3 172.179 115.328 172.315 115.352L173.287 115.496C173.511 115.528 173.747 115.572 173.995 115.628C174.243 115.684 174.471 115.776 174.679 115.904C174.887 116.024 175.059 116.188 175.195 116.396C175.339 116.604 175.411 116.876 175.411 117.212C175.411 117.828 175.171 118.304 174.691 118.64C174.219 118.976 173.587 119.144 172.795 119.144ZM180.538 119C180.066 119 179.718 118.868 179.494 118.604C179.278 118.34 179.17 118 179.17 117.584V113.624H177.106V112.808H178.642C178.85 112.808 178.994 112.768 179.074 112.688C179.162 112.6 179.206 112.452 179.206 112.244V110.624H180.13V112.808H182.95V113.624H180.13V118.184H182.95V119H180.538ZM190.093 119C189.717 119 189.449 118.904 189.289 118.712C189.129 118.52 189.029 118.28 188.989 117.992H188.929C188.793 118.352 188.573 118.636 188.269 118.844C187.973 119.044 187.573 119.144 187.069 119.144C186.421 119.144 185.905 118.976 185.521 118.64C185.137 118.304 184.945 117.844 184.945 117.26C184.945 116.684 185.153 116.24 185.569 115.928C185.993 115.616 186.673 115.46 187.609 115.46H188.929V114.848C188.929 114.392 188.801 114.052 188.545 113.828C188.289 113.596 187.925 113.48 187.453 113.48C187.037 113.48 186.697 113.564 186.433 113.732C186.169 113.892 185.957 114.112 185.797 114.392L185.149 113.912C185.229 113.752 185.337 113.596 185.473 113.444C185.609 113.292 185.777 113.16 185.977 113.048C186.177 112.928 186.405 112.836 186.661 112.772C186.917 112.7 187.201 112.664 187.513 112.664C188.241 112.664 188.817 112.848 189.241 113.216C189.673 113.584 189.889 114.096 189.889 114.752V118.16H190.753V119H190.093ZM187.237 118.34C187.485 118.34 187.709 118.312 187.909 118.256C188.117 118.192 188.297 118.112 188.449 118.016C188.601 117.912 188.717 117.792 188.797 117.656C188.885 117.512 188.929 117.36 188.929 117.2V116.18H187.609C187.033 116.18 186.613 116.26 186.349 116.42C186.085 116.58 185.953 116.812 185.953 117.116V117.368C185.953 117.688 186.065 117.932 186.289 118.1C186.521 118.26 186.837 118.34 187.237 118.34ZM192.592 118.184H194.404V113.624H192.592V112.808H195.364V114.368H195.424C195.552 113.88 195.792 113.5 196.144 113.228C196.504 112.948 196.96 112.808 197.512 112.808H198.376V113.768H197.212C196.66 113.768 196.212 113.928 195.868 114.248C195.532 114.568 195.364 114.988 195.364 115.508V118.184H197.764V119H192.592V118.184ZM203.084 119C202.612 119 202.264 118.868 202.04 118.604C201.824 118.34 201.716 118 201.716 117.584V113.624H199.652V112.808H201.188C201.396 112.808 201.54 112.768 201.62 112.688C201.708 112.6 201.752 112.452 201.752 112.244V110.624H202.676V112.808H205.496V113.624H202.676V118.184H205.496V119H203.084Z" fill="#121619"/>
</svg>
