<svg width="477" height="520" viewBox="0 0 477 520" fill="none" xmlns="http://www.w3.org/2000/svg">
<path d="M374.545 234.5C370.545 202 354.545 175 331.045 158" stroke="black" stroke-width="0.75" stroke-dasharray="5 5"/>
<path d="M308.224 131.656V120.88H309.064V131.656H308.224ZM317.671 129.22C318.351 129.156 318.895 128.924 319.303 128.524C319.719 128.116 319.927 127.488 319.927 126.64C319.927 126.088 319.895 125.58 319.831 125.116C319.767 124.644 319.671 124.128 319.543 123.568H320.587C320.715 124.104 320.807 124.612 320.863 125.092C320.927 125.572 320.959 126.076 320.959 126.604C320.959 127.428 320.811 128.092 320.515 128.596C320.219 129.092 319.823 129.46 319.327 129.7C318.831 129.932 318.279 130.068 317.671 130.108V132.88H316.639V130.108C316.031 130.084 315.491 129.96 315.019 129.736C314.547 129.512 314.175 129.16 313.903 128.68C313.639 128.192 313.507 127.552 313.507 126.76V123.568H314.551V126.796C314.551 127.396 314.647 127.868 314.839 128.212C315.031 128.556 315.287 128.804 315.607 128.956C315.927 129.108 316.271 129.2 316.639 129.232V120.892H317.671V129.22ZM325.32 121.12H326.868L325.488 124.444H324.684L325.32 121.12ZM332.835 121.12H334.383L333.003 124.444H332.199L332.835 121.12Z" fill="black"/>
<path d="M184.42 310.83C177.742 301.293 170.244 292.358 162.012 284.125L20.5895 425.546L184.42 310.83Z" fill="#A6C8FF"/>
<path d="M219.591 425.546C219.591 413.903 218.574 402.283 216.553 390.817L19.5908 425.546H219.591Z" fill="#A6C8FF"/>
<path d="M184.421 310.831C191.099 320.368 196.931 330.47 201.851 341.022L20.5902 425.546L184.421 310.831Z" fill="#A6C8FF"/>
<path d="M421.398 426.354C421.594 426.158 421.594 425.842 421.398 425.646L418.216 422.464C418.021 422.269 417.705 422.269 417.509 422.464C417.314 422.66 417.314 422.976 417.509 423.172L420.338 426L417.509 428.828C417.314 429.024 417.314 429.34 417.509 429.536C417.705 429.731 418.021 429.731 418.216 429.536L421.398 426.354ZM21.0449 426.5L421.045 426.5V425.5L21.0449 425.5V426.5Z" fill="black"/>
<path d="M21.5811 25.4697C21.2882 25.1768 20.8133 25.1768 20.5205 25.4697L15.7475 30.2426C15.4546 30.5355 15.4546 31.0104 15.7475 31.3033C16.0404 31.5962 16.5152 31.5962 16.8081 31.3033L21.0508 27.0607L25.2934 31.3033C25.5863 31.5962 26.0612 31.5962 26.3541 31.3033C26.647 31.0104 26.647 30.5355 26.3541 30.2426L21.5811 25.4697ZM21.8008 426L21.8008 26H20.3008L20.3008 426H21.8008Z" fill="black"/>
<path d="M415.281 356.215C415.4 356.045 415.359 355.811 415.189 355.693L412.424 353.757C412.255 353.638 412.021 353.679 411.902 353.849C411.783 354.018 411.824 354.252 411.994 354.371L414.452 356.092L412.731 358.549C412.612 358.719 412.653 358.953 412.823 359.072C412.993 359.19 413.226 359.149 413.345 358.979L415.281 356.215ZM21.1159 425.828L23.5779 425.394L23.4477 424.656L20.9857 425.09L21.1159 425.828ZM26.5323 424.873L31.4564 424.005L31.3261 423.266L26.4021 424.135L26.5323 424.873ZM34.4108 423.484L39.3348 422.616L39.2046 421.877L34.2806 422.745L34.4108 423.484ZM42.2893 422.095L47.2133 421.227L47.0831 420.488L42.159 421.356L42.2893 422.095ZM50.1677 420.706L55.0918 419.837L54.9615 419.099L50.0375 419.967L50.1677 420.706ZM58.0462 419.316L62.9702 418.448L62.84 417.71L57.916 418.578L58.0462 419.316ZM65.9247 417.927L70.8487 417.059L70.7185 416.32L65.7944 417.189L65.9247 417.927ZM73.8031 416.538L78.7271 415.67L78.5969 414.931L73.6729 415.8L73.8031 416.538ZM81.6816 415.149L86.6056 414.281L86.4754 413.542L81.5513 414.41L81.6816 415.149ZM89.56 413.76L94.4841 412.891L94.3538 412.153L89.4298 413.021L89.56 413.76ZM97.4385 412.371L102.363 411.502L102.232 410.764L97.3083 411.632L97.4385 412.371ZM105.317 410.981L110.241 410.113L110.111 409.375L105.187 410.243L105.317 410.981ZM113.195 409.592L118.119 408.724L117.989 407.985L113.065 408.854L113.195 409.592ZM121.074 408.203L125.998 407.335L125.868 406.596L120.944 407.464L121.074 408.203ZM128.952 406.814L133.876 405.946L133.746 405.207L128.822 406.075L128.952 406.814ZM136.831 405.425L141.755 404.556L141.625 403.818L136.701 404.686L136.831 405.425ZM144.709 404.035L149.633 403.167L149.503 402.429L144.579 403.297L144.709 404.035ZM152.588 402.646L157.512 401.778L157.382 401.039L152.457 401.908L152.588 402.646ZM160.466 401.257L165.39 400.389L165.26 399.65L160.336 400.518L160.466 401.257ZM168.345 399.868L173.269 399L173.138 398.261L168.214 399.129L168.345 399.868ZM176.223 398.479L181.147 397.61L181.017 396.872L176.093 397.74L176.223 398.479ZM184.102 397.09L189.026 396.221L188.895 395.483L183.971 396.351L184.102 397.09ZM191.98 395.7L196.904 394.832L196.774 394.093L191.85 394.962L191.98 395.7ZM199.859 394.311L204.783 393.443L204.652 392.704L199.728 393.573L199.859 394.311ZM207.737 392.922L212.661 392.054L212.531 391.315L207.607 392.183L207.737 392.922ZM215.615 391.533L220.539 390.665L220.409 389.926L215.485 390.794L215.615 391.533ZM223.494 390.144L228.418 389.275L228.288 388.537L223.364 389.405L223.494 390.144ZM231.372 388.754L236.296 387.886L236.166 387.148L231.242 388.016L231.372 388.754ZM239.251 387.365L244.175 386.497L244.045 385.758L239.121 386.627L239.251 387.365ZM247.129 385.976L252.053 385.108L251.923 384.369L246.999 385.237L247.129 385.976ZM255.008 384.587L259.932 383.719L259.802 382.98L254.877 383.848L255.008 384.587ZM262.886 383.198L267.81 382.329L267.68 381.591L262.756 382.459L262.886 383.198ZM270.765 381.808L275.689 380.94L275.558 380.202L270.634 381.07L270.765 381.808ZM278.643 380.419L283.567 379.551L283.437 378.812L278.513 379.681L278.643 380.419ZM286.522 379.03L291.446 378.162L291.315 377.423L286.391 378.291L286.522 379.03ZM294.4 377.641L299.324 376.773L299.194 376.034L294.27 376.902L294.4 377.641ZM302.279 376.252L307.203 375.383L307.072 374.645L302.148 375.513L302.279 376.252ZM310.157 374.863L315.081 373.994L314.951 373.256L310.027 374.124L310.157 374.863ZM318.035 373.473L322.959 372.605L322.829 371.867L317.905 372.735L318.035 373.473ZM325.914 372.084L330.838 371.216L330.708 370.477L325.784 371.346L325.914 372.084ZM333.792 370.695L338.716 369.827L338.586 369.088L333.662 369.956L333.792 370.695ZM341.671 369.306L346.595 368.438L346.465 367.699L341.541 368.567L341.671 369.306ZM349.549 367.917L354.473 367.048L354.343 366.31L349.419 367.178L349.549 367.917ZM357.428 366.527L362.352 365.659L362.222 364.921L357.298 365.789L357.428 366.527ZM365.306 365.138L370.23 364.27L370.1 363.531L365.176 364.4L365.306 365.138ZM373.185 363.749L378.109 362.881L377.978 362.142L373.054 363.01L373.185 363.749ZM381.063 362.36L385.987 361.492L385.857 360.753L380.933 361.621L381.063 362.36ZM388.942 360.971L393.866 360.102L393.735 359.364L388.811 360.232L388.942 360.971ZM396.82 359.582L401.744 358.713L401.614 357.975L396.69 358.843L396.82 359.582ZM404.699 358.192L409.623 357.324L409.492 356.585L404.568 357.454L404.699 358.192ZM412.577 356.803L415.039 356.369L414.909 355.63L412.447 356.065L412.577 356.803ZM415.588 356.43C415.826 356.091 415.743 355.623 415.404 355.385L409.875 351.514C409.535 351.276 409.068 351.359 408.83 351.698C408.593 352.037 408.675 352.505 409.014 352.742L413.929 356.184L410.488 361.099C410.25 361.438 410.333 361.906 410.672 362.143C411.011 362.381 411.479 362.298 411.717 361.959L415.588 356.43ZM21.181 426.198L23.643 425.763L23.3826 424.286L20.9205 424.72L21.181 426.198ZM26.5975 425.243L31.5215 424.374L31.261 422.897L26.337 423.765L26.5975 425.243ZM34.4759 423.853L39.4 422.985L39.1395 421.508L34.2155 422.376L34.4759 423.853ZM42.3544 422.464L47.2784 421.596L47.0179 420.119L42.0939 420.987L42.3544 422.464ZM50.2328 421.075L55.1569 420.207L54.8964 418.73L49.9724 419.598L50.2328 421.075ZM58.1113 419.686L63.0353 418.818L62.7749 417.34L57.8508 418.209L58.1113 419.686ZM65.9898 418.297L70.9138 417.428L70.6533 415.951L65.7293 416.819L65.9898 418.297ZM73.8682 416.907L78.7923 416.039L78.5318 414.562L73.6078 415.43L73.8682 416.907ZM81.7467 415.518L86.6707 414.65L86.4103 413.173L81.4862 414.041L81.7467 415.518ZM89.6252 414.129L94.5492 413.261L94.2887 411.784L89.3647 412.652L89.6252 414.129ZM97.5036 412.74L102.428 411.872L102.167 410.394L97.2431 411.263L97.5036 412.74ZM105.382 411.351L110.306 410.482L110.046 409.005L105.122 409.873L105.382 411.351ZM113.261 409.961L118.185 409.093L117.924 407.616L113 408.484L113.261 409.961ZM121.139 408.572L126.063 407.704L125.803 406.227L120.879 407.095L121.139 408.572ZM129.017 407.183L133.942 406.315L133.681 404.838L128.757 405.706L129.017 407.183ZM136.896 405.794L141.82 404.926L141.559 403.448L136.635 404.317L136.896 405.794ZM144.774 404.405L149.698 403.537L149.438 402.059L144.514 402.928L144.774 404.405ZM152.653 403.016L157.577 402.147L157.316 400.67L152.392 401.538L152.653 403.016ZM160.531 401.626L165.455 400.758L165.195 399.281L160.271 400.149L160.531 401.626ZM168.41 400.237L173.334 399.369L173.073 397.892L168.149 398.76L168.41 400.237ZM176.288 398.848L181.212 397.98L180.952 396.503L176.028 397.371L176.288 398.848ZM184.167 397.459L189.091 396.591L188.83 395.113L183.906 395.982L184.167 397.459ZM192.045 396.07L196.969 395.201L196.709 393.724L191.785 394.592L192.045 396.07ZM199.924 394.68L204.848 393.812L204.587 392.335L199.663 393.203L199.924 394.68ZM207.802 393.291L212.726 392.423L212.466 390.946L207.542 391.814L207.802 393.291ZM215.681 391.902L220.605 391.034L220.344 389.557L215.42 390.425L215.681 391.902ZM223.559 390.513L228.483 389.645L228.223 388.167L223.299 389.036L223.559 390.513ZM231.437 389.124L236.362 388.255L236.101 386.778L231.177 387.646L231.437 389.124ZM239.316 387.735L244.24 386.866L243.98 385.389L239.055 386.257L239.316 387.735ZM247.194 386.345L252.118 385.477L251.858 384L246.934 384.868L247.194 386.345ZM255.073 384.956L259.997 384.088L259.736 382.611L254.812 383.479L255.073 384.956ZM262.951 383.567L267.875 382.699L267.615 381.222L262.691 382.09L262.951 383.567ZM270.83 382.178L275.754 381.31L275.493 379.832L270.569 380.701L270.83 382.178ZM278.708 380.789L283.632 379.92L283.372 378.443L278.448 379.311L278.708 380.789ZM286.587 379.399L291.511 378.531L291.25 377.054L286.326 377.922L286.587 379.399ZM294.465 378.01L299.389 377.142L299.129 375.665L294.205 376.533L294.465 378.01ZM302.344 376.621L307.268 375.753L307.007 374.276L302.083 375.144L302.344 376.621ZM310.222 375.232L315.146 374.364L314.886 372.886L309.962 373.755L310.222 375.232ZM318.101 373.843L323.025 372.974L322.764 371.497L317.84 372.365L318.101 373.843ZM325.979 372.453L330.903 371.585L330.643 370.108L325.719 370.976L325.979 372.453ZM333.857 371.064L338.782 370.196L338.521 368.719L333.597 369.587L333.857 371.064ZM341.736 369.675L346.66 368.807L346.399 367.33L341.475 368.198L341.736 369.675ZM349.614 368.286L354.538 367.418L354.278 365.94L349.354 366.809L349.614 368.286ZM357.493 366.897L362.417 366.028L362.156 364.551L357.232 365.42L357.493 366.897ZM365.371 365.508L370.295 364.639L370.035 363.162L365.111 364.03L365.371 365.508ZM373.25 364.118L378.174 363.25L377.913 361.773L372.989 362.641L373.25 364.118ZM381.128 362.729L386.052 361.861L385.792 360.384L380.868 361.252L381.128 362.729ZM389.007 361.34L393.931 360.472L393.67 358.995L388.746 359.863L389.007 361.34ZM396.885 359.951L401.809 359.083L401.549 357.605L396.625 358.474L396.885 359.951ZM404.764 358.562L409.688 357.693L409.427 356.216L404.503 357.084L404.764 358.562ZM412.642 357.172L415.104 356.738L414.844 355.261L412.382 355.695L412.642 357.172Z" fill="black"/>
<path d="M384.279 256.255C384.42 255.865 384.218 255.435 383.829 255.294L377.481 252.999C377.092 252.858 376.662 253.06 376.521 253.45C376.38 253.839 376.582 254.269 376.971 254.41L382.614 256.45L380.574 262.092C380.433 262.482 380.634 262.912 381.024 263.053C381.413 263.194 381.843 262.992 381.984 262.602L384.279 256.255ZM21.3633 426.679L383.892 256.679L383.256 255.321L20.7265 425.321L21.3633 426.679Z" fill="black"/>
<path d="M303.643 143C303.643 142.586 303.308 142.25 302.893 142.25L296.143 142.25C295.729 142.25 295.393 142.586 295.393 143C295.393 143.414 295.729 143.75 296.143 143.75L302.143 143.75L302.143 149.75C302.143 150.164 302.479 150.5 302.893 150.5C303.308 150.5 303.643 150.164 303.643 149.75L303.643 143ZM20.5811 426.373L303.424 143.53L302.363 142.47L19.5205 425.312L20.5811 426.373Z" fill="black"/>
<path d="M16.2308 14.656V3.88H17.0708V14.656H16.2308Z" fill="black"/>
<path d="M435.231 432.656V421.88H436.071V432.656H435.231ZM440.298 431L442.602 427.856L440.358 424.808H441.51L442.446 426.116L443.19 427.148H443.238L443.958 426.116L444.882 424.808H445.986L443.718 427.844L446.046 431H444.894L443.85 429.548L443.142 428.564H443.094L442.41 429.548L441.402 431H440.298Z" fill="black"/>
<path d="M425.231 362.656V351.88H426.071V362.656H425.231ZM433.238 361.144C432.59 361.144 432.03 361.036 431.558 360.82C431.094 360.596 430.698 360.3 430.37 359.932L431.018 359.368C431.314 359.68 431.638 359.92 431.99 360.088C432.342 360.256 432.766 360.34 433.262 360.34C433.742 360.34 434.134 360.256 434.438 360.088C434.75 359.912 434.906 359.64 434.906 359.272C434.906 359.112 434.874 358.98 434.81 358.876C434.754 358.764 434.674 358.676 434.57 358.612C434.466 358.548 434.35 358.5 434.222 358.468C434.094 358.428 433.958 358.396 433.814 358.372L432.842 358.228C432.626 358.196 432.39 358.152 432.134 358.096C431.886 358.04 431.658 357.952 431.45 357.832C431.242 357.704 431.066 357.536 430.922 357.328C430.786 357.12 430.718 356.848 430.718 356.512C430.718 356.2 430.778 355.932 430.898 355.708C431.026 355.476 431.202 355.284 431.426 355.132C431.65 354.972 431.914 354.856 432.218 354.784C432.522 354.704 432.854 354.664 433.214 354.664C433.774 354.664 434.258 354.752 434.666 354.928C435.082 355.104 435.438 355.348 435.734 355.66L435.11 356.248C435.038 356.16 434.946 356.072 434.834 355.984C434.73 355.888 434.598 355.804 434.438 355.732C434.286 355.652 434.106 355.588 433.898 355.54C433.69 355.492 433.45 355.468 433.178 355.468C432.69 355.468 432.314 355.552 432.05 355.72C431.794 355.888 431.666 356.132 431.666 356.452C431.666 356.612 431.694 356.748 431.75 356.86C431.814 356.964 431.898 357.048 432.002 357.112C432.106 357.176 432.222 357.228 432.35 357.268C432.486 357.3 432.622 357.328 432.758 357.352L433.73 357.496C433.954 357.528 434.19 357.572 434.438 357.628C434.686 357.684 434.914 357.776 435.122 357.904C435.33 358.024 435.502 358.188 435.638 358.396C435.782 358.604 435.854 358.876 435.854 359.212C435.854 359.828 435.614 360.304 435.134 360.64C434.662 360.976 434.03 361.144 433.238 361.144Z" fill="black"/>
<path d="M164.489 332H158.897V330.968L161.693 328.448C162.101 328.08 162.437 327.704 162.701 327.32C162.965 326.928 163.097 326.516 163.097 326.084V325.94C163.097 325.436 162.965 325.048 162.701 324.776C162.437 324.496 162.045 324.356 161.525 324.356C161.013 324.356 160.617 324.488 160.337 324.752C160.065 325.008 159.861 325.352 159.725 325.784L158.825 325.448C158.905 325.2 159.013 324.96 159.149 324.728C159.293 324.488 159.473 324.276 159.689 324.092C159.905 323.908 160.165 323.76 160.469 323.648C160.781 323.536 161.141 323.48 161.549 323.48C161.965 323.48 162.333 323.54 162.653 323.66C162.981 323.78 163.253 323.948 163.469 324.164C163.693 324.38 163.861 324.636 163.973 324.932C164.093 325.228 164.153 325.552 164.153 325.904C164.153 326.224 164.105 326.524 164.009 326.804C163.921 327.084 163.793 327.352 163.625 327.608C163.465 327.864 163.269 328.116 163.037 328.364C162.813 328.604 162.561 328.844 162.281 329.084L159.941 331.124H164.489V332ZM172.04 327.476C172.04 328.444 171.94 329.276 171.74 329.972C171.548 330.66 171.236 331.192 170.804 331.568C170.38 331.936 169.816 332.12 169.112 332.12C168.12 332.12 167.388 331.708 166.916 330.884C166.452 330.06 166.22 328.924 166.22 327.476C166.22 326.5 166.316 325.664 166.508 324.968C166.7 324.272 167.008 323.74 167.432 323.372C167.864 323.004 168.424 322.82 169.112 322.82C170.112 322.82 170.848 323.228 171.32 324.044C171.8 324.852 172.04 325.996 172.04 327.476ZM169.112 323.684C168.504 323.684 168.056 323.956 167.768 324.5C167.488 325.036 167.328 325.84 167.288 326.912H170.96C170.92 325.84 170.756 325.036 170.468 324.5C170.18 323.956 169.728 323.684 169.112 323.684ZM169.112 331.256C169.736 331.256 170.196 330.968 170.492 330.392C170.788 329.816 170.948 328.948 170.972 327.788H167.288C167.304 328.932 167.452 329.796 167.732 330.38C168.02 330.964 168.48 331.256 169.112 331.256Z" fill="black"/>
<path d="M195.525 411.476C195.525 412.444 195.425 413.276 195.225 413.972C195.033 414.66 194.721 415.192 194.289 415.568C193.865 415.936 193.301 416.12 192.597 416.12C191.605 416.12 190.873 415.708 190.401 414.884C189.937 414.06 189.705 412.924 189.705 411.476C189.705 410.5 189.801 409.664 189.993 408.968C190.185 408.272 190.493 407.74 190.917 407.372C191.349 407.004 191.909 406.82 192.597 406.82C193.597 406.82 194.333 407.228 194.805 408.044C195.285 408.852 195.525 409.996 195.525 411.476ZM192.597 407.684C191.989 407.684 191.541 407.956 191.253 408.5C190.973 409.036 190.813 409.84 190.773 410.912H194.445C194.405 409.84 194.241 409.036 193.953 408.5C193.665 407.956 193.213 407.684 192.597 407.684ZM192.597 415.256C193.221 415.256 193.681 414.968 193.977 414.392C194.273 413.816 194.433 412.948 194.457 411.788H190.773C190.789 412.932 190.937 413.796 191.217 414.38C191.505 414.964 191.965 415.256 192.597 415.256Z" fill="black"/>
<path d="M393.231 257.656V246.88H394.071V257.656H393.231ZM402.678 255.22C403.358 255.156 403.902 254.924 404.31 254.524C404.726 254.116 404.934 253.488 404.934 252.64C404.934 252.088 404.902 251.58 404.838 251.116C404.774 250.644 404.678 250.128 404.55 249.568H405.594C405.722 250.104 405.814 250.612 405.87 251.092C405.934 251.572 405.966 252.076 405.966 252.604C405.966 253.428 405.818 254.092 405.522 254.596C405.226 255.092 404.83 255.46 404.334 255.7C403.838 255.932 403.286 256.068 402.678 256.108V258.88H401.646V256.108C401.038 256.084 400.498 255.96 400.026 255.736C399.554 255.512 399.182 255.16 398.91 254.68C398.646 254.192 398.514 253.552 398.514 252.76V249.568H399.558V252.796C399.558 253.396 399.654 253.868 399.846 254.212C400.038 254.556 400.294 254.804 400.614 254.956C400.934 255.108 401.278 255.2 401.646 255.232V246.892H402.678V255.22Z" fill="black"/>
<line x1="330.756" y1="157.763" x2="333.756" y2="166.763" stroke="black" stroke-width="1.5"/>
<line x1="330.045" y1="157.25" x2="340.045" y2="157.25" stroke="black" stroke-width="1.5"/>
<path d="M381.645 187.144C381.213 187.144 380.821 187.068 380.469 186.916C380.125 186.764 379.829 186.548 379.581 186.268C379.341 185.98 379.157 185.64 379.029 185.248C378.901 184.848 378.837 184.4 378.837 183.904C378.837 183.416 378.901 182.972 379.029 182.572C379.157 182.172 379.341 181.832 379.581 181.552C379.829 181.264 380.125 181.044 380.469 180.892C380.821 180.74 381.213 180.664 381.645 180.664C382.077 180.664 382.465 180.74 382.809 180.892C383.161 181.044 383.457 181.264 383.697 181.552C383.945 181.832 384.133 182.172 384.261 182.572C384.389 182.972 384.453 183.416 384.453 183.904C384.453 184.4 384.389 184.848 384.261 185.248C384.133 185.64 383.945 185.98 383.697 186.268C383.457 186.548 383.161 186.764 382.809 186.916C382.465 187.068 382.077 187.144 381.645 187.144ZM381.645 186.316C382.181 186.316 382.613 186.156 382.941 185.836C383.269 185.516 383.433 185.02 383.433 184.348V183.46C383.433 182.788 383.269 182.292 382.941 181.972C382.613 181.652 382.181 181.492 381.645 181.492C381.109 181.492 380.677 181.652 380.349 181.972C380.021 182.292 379.857 182.788 379.857 183.46V184.348C379.857 185.02 380.021 185.516 380.349 185.836C380.677 186.156 381.109 186.316 381.645 186.316ZM386.736 187V180.808H387.696V181.816H387.744C387.808 181.664 387.888 181.52 387.984 181.384C388.08 181.24 388.196 181.116 388.332 181.012C388.476 180.908 388.644 180.824 388.836 180.76C389.028 180.696 389.252 180.664 389.508 180.664C390.156 180.664 390.676 180.872 391.068 181.288C391.46 181.696 391.656 182.276 391.656 183.028V187H390.696V183.196C390.696 182.628 390.572 182.208 390.324 181.936C390.076 181.656 389.712 181.516 389.232 181.516C389.04 181.516 388.852 181.54 388.668 181.588C388.484 181.636 388.32 181.708 388.176 181.804C388.032 181.9 387.916 182.024 387.828 182.176C387.74 182.328 387.696 182.504 387.696 182.704V187H386.736ZM396.784 187.144C396.336 187.144 395.932 187.068 395.572 186.916C395.22 186.764 394.916 186.548 394.66 186.268C394.412 185.98 394.22 185.64 394.084 185.248C393.948 184.848 393.88 184.404 393.88 183.916C393.88 183.42 393.948 182.972 394.084 182.572C394.228 182.172 394.424 181.832 394.672 181.552C394.92 181.264 395.216 181.044 395.56 180.892C395.912 180.74 396.3 180.664 396.724 180.664C397.14 180.664 397.516 180.74 397.852 180.892C398.196 181.044 398.488 181.256 398.728 181.528C398.968 181.792 399.152 182.108 399.28 182.476C399.408 182.844 399.472 183.248 399.472 183.688V184.144H394.888V184.432C394.888 184.704 394.932 184.956 395.02 185.188C395.108 185.42 395.232 185.62 395.392 185.788C395.56 185.956 395.76 186.088 395.992 186.184C396.232 186.272 396.496 186.316 396.784 186.316C397.2 186.316 397.56 186.22 397.864 186.028C398.168 185.836 398.4 185.572 398.56 185.236L399.268 185.716C399.084 186.132 398.776 186.476 398.344 186.748C397.92 187.012 397.4 187.144 396.784 187.144ZM396.724 181.456C396.46 181.456 396.216 181.504 395.992 181.6C395.768 181.696 395.572 181.828 395.404 181.996C395.244 182.164 395.116 182.364 395.02 182.596C394.932 182.82 394.888 183.068 394.888 183.34V183.424H398.44V183.292C398.44 183.02 398.396 182.772 398.308 182.548C398.228 182.324 398.112 182.132 397.96 181.972C397.816 181.804 397.636 181.676 397.42 181.588C397.212 181.5 396.98 181.456 396.724 181.456ZM412.09 179.44C411.81 179.44 411.614 179.384 411.502 179.272C411.39 179.152 411.334 179.004 411.334 178.828V178.636C411.334 178.46 411.39 178.316 411.502 178.204C411.614 178.084 411.81 178.024 412.09 178.024C412.37 178.024 412.566 178.084 412.678 178.204C412.79 178.316 412.846 178.46 412.846 178.636V178.828C412.846 179.004 412.79 179.152 412.678 179.272C412.566 179.384 412.37 179.44 412.09 179.44ZM409.378 186.184H411.61V181.624H409.378V180.808H412.57V186.184H414.658V187H409.378V186.184ZM419.521 187C419.049 187 418.701 186.868 418.477 186.604C418.261 186.34 418.153 186 418.153 185.584V181.624H416.089V180.808H417.625C417.833 180.808 417.977 180.768 418.057 180.688C418.145 180.6 418.189 180.452 418.189 180.244V178.624H419.113V180.808H421.933V181.624H419.113V186.184H421.933V187H419.521ZM426.845 187.144C426.397 187.144 425.993 187.068 425.633 186.916C425.281 186.764 424.977 186.548 424.721 186.268C424.473 185.98 424.281 185.64 424.145 185.248C424.009 184.848 423.941 184.404 423.941 183.916C423.941 183.42 424.009 182.972 424.145 182.572C424.289 182.172 424.485 181.832 424.733 181.552C424.981 181.264 425.277 181.044 425.621 180.892C425.973 180.74 426.361 180.664 426.785 180.664C427.201 180.664 427.577 180.74 427.913 180.892C428.257 181.044 428.549 181.256 428.789 181.528C429.029 181.792 429.213 182.108 429.341 182.476C429.469 182.844 429.533 183.248 429.533 183.688V184.144H424.949V184.432C424.949 184.704 424.993 184.956 425.081 185.188C425.169 185.42 425.293 185.62 425.453 185.788C425.621 185.956 425.821 186.088 426.053 186.184C426.293 186.272 426.557 186.316 426.845 186.316C427.261 186.316 427.621 186.22 427.925 186.028C428.229 185.836 428.461 185.572 428.621 185.236L429.329 185.716C429.145 186.132 428.837 186.476 428.405 186.748C427.981 187.012 427.461 187.144 426.845 187.144ZM426.785 181.456C426.521 181.456 426.277 181.504 426.053 181.6C425.829 181.696 425.633 181.828 425.465 181.996C425.305 182.164 425.177 182.364 425.081 182.596C424.993 182.82 424.949 183.068 424.949 183.34V183.424H428.501V183.292C428.501 183.02 428.457 182.772 428.369 182.548C428.289 182.324 428.173 182.132 428.021 181.972C427.877 181.804 427.697 181.676 427.481 181.588C427.273 181.5 427.041 181.456 426.785 181.456ZM431.576 186.184H433.388V181.624H431.576V180.808H434.348V182.368H434.408C434.536 181.88 434.776 181.5 435.128 181.228C435.488 180.948 435.944 180.808 436.496 180.808H437.36V181.768H436.196C435.644 181.768 435.196 181.928 434.852 182.248C434.516 182.568 434.348 182.988 434.348 183.508V186.184H436.748V187H431.576V186.184ZM444.107 187C443.731 187 443.463 186.904 443.303 186.712C443.143 186.52 443.043 186.28 443.003 185.992H442.943C442.807 186.352 442.587 186.636 442.283 186.844C441.987 187.044 441.587 187.144 441.083 187.144C440.435 187.144 439.919 186.976 439.535 186.64C439.151 186.304 438.959 185.844 438.959 185.26C438.959 184.684 439.167 184.24 439.583 183.928C440.007 183.616 440.687 183.46 441.623 183.46H442.943V182.848C442.943 182.392 442.815 182.052 442.559 181.828C442.303 181.596 441.939 181.48 441.467 181.48C441.051 181.48 440.711 181.564 440.447 181.732C440.183 181.892 439.971 182.112 439.811 182.392L439.163 181.912C439.243 181.752 439.351 181.596 439.487 181.444C439.623 181.292 439.791 181.16 439.991 181.048C440.191 180.928 440.419 180.836 440.675 180.772C440.931 180.7 441.215 180.664 441.527 180.664C442.255 180.664 442.831 180.848 443.255 181.216C443.687 181.584 443.903 182.096 443.903 182.752V186.16H444.767V187H444.107ZM441.251 186.34C441.499 186.34 441.723 186.312 441.923 186.256C442.131 186.192 442.311 186.112 442.463 186.016C442.615 185.912 442.731 185.792 442.811 185.656C442.899 185.512 442.943 185.36 442.943 185.2V184.18H441.623C441.047 184.18 440.627 184.26 440.363 184.42C440.099 184.58 439.967 184.812 439.967 185.116V185.368C439.967 185.688 440.079 185.932 440.303 186.1C440.535 186.26 440.851 186.34 441.251 186.34ZM449.583 187C449.111 187 448.763 186.868 448.539 186.604C448.323 186.34 448.215 186 448.215 185.584V181.624H446.151V180.808H447.687C447.895 180.808 448.039 180.768 448.119 180.688C448.207 180.6 448.251 180.452 448.251 180.244V178.624H449.175V180.808H451.995V181.624H449.175V186.184H451.995V187H449.583ZM457.182 179.44C456.902 179.44 456.706 179.384 456.594 179.272C456.482 179.152 456.426 179.004 456.426 178.828V178.636C456.426 178.46 456.482 178.316 456.594 178.204C456.706 178.084 456.902 178.024 457.182 178.024C457.462 178.024 457.658 178.084 457.77 178.204C457.882 178.316 457.938 178.46 457.938 178.636V178.828C457.938 179.004 457.882 179.152 457.77 179.272C457.658 179.384 457.462 179.44 457.182 179.44ZM454.47 186.184H456.702V181.624H454.47V180.808H457.662V186.184H459.75V187H454.47V186.184ZM464.313 187.144C463.881 187.144 463.489 187.068 463.137 186.916C462.793 186.764 462.497 186.548 462.249 186.268C462.009 185.98 461.825 185.64 461.697 185.248C461.569 184.848 461.505 184.4 461.505 183.904C461.505 183.416 461.569 182.972 461.697 182.572C461.825 182.172 462.009 181.832 462.249 181.552C462.497 181.264 462.793 181.044 463.137 180.892C463.489 180.74 463.881 180.664 464.313 180.664C464.745 180.664 465.133 180.74 465.477 180.892C465.829 181.044 466.125 181.264 466.365 181.552C466.613 181.832 466.801 182.172 466.929 182.572C467.057 182.972 467.121 183.416 467.121 183.904C467.121 184.4 467.057 184.848 466.929 185.248C466.801 185.64 466.613 185.98 466.365 186.268C466.125 186.548 465.829 186.764 465.477 186.916C465.133 187.068 464.745 187.144 464.313 187.144ZM464.313 186.316C464.849 186.316 465.281 186.156 465.609 185.836C465.937 185.516 466.101 185.02 466.101 184.348V183.46C466.101 182.788 465.937 182.292 465.609 181.972C465.281 181.652 464.849 181.492 464.313 181.492C463.777 181.492 463.345 181.652 463.017 181.972C462.689 182.292 462.525 182.788 462.525 183.46V184.348C462.525 185.02 462.689 185.516 463.017 185.836C463.345 186.156 463.777 186.316 464.313 186.316ZM469.405 187V180.808H470.365V181.816H470.413C470.477 181.664 470.557 181.52 470.653 181.384C470.749 181.24 470.865 181.116 471.001 181.012C471.145 180.908 471.313 180.824 471.505 180.76C471.697 180.696 471.921 180.664 472.177 180.664C472.825 180.664 473.345 180.872 473.737 181.288C474.129 181.696 474.325 182.276 474.325 183.028V187H473.365V183.196C473.365 182.628 473.241 182.208 472.993 181.936C472.745 181.656 472.381 181.516 471.901 181.516C471.709 181.516 471.521 181.54 471.337 181.588C471.153 181.636 470.989 181.708 470.845 181.804C470.701 181.9 470.585 182.024 470.497 182.176C470.409 182.328 470.365 182.504 470.365 182.704V187H469.405Z" fill="black"/>
<path d="M30.2871 4L33.2871 9.5L30.2871 15" stroke="black"/>
<path d="M19 10.5908L21.7866 14L27.7866 5" stroke="black"/>
<path d="M410 247L413 252.5L410 258" stroke="black" stroke-width="0.85"/>
<path d="M450 422L453 427.5L450 433" stroke="black" stroke-width="0.85"/>
<path d="M440 352L443 357.5L440 363" stroke="black" stroke-width="0.85"/>
<path d="M340 121L343 126.5L340 132" stroke="black" stroke-width="0.85"/>
</svg>
