<svg width="413" height="308" viewBox="0 0 413 308" fill="none" xmlns="http://www.w3.org/2000/svg">
<rect width="413" height="308" fill="white"/>
<rect opacity="0.4" y="120" width="413" height="40" fill="#F2F4F8"/>
<rect opacity="0.4" y="200" width="413" height="40" fill="#F2F4F8"/>
<rect opacity="0.4" y="40" width="413" height="40" fill="#F2F4F8"/>
<rect x="0.5" y="0.5" width="412" height="307" stroke="#DDE1E6"/>
<line x1="54" y1="71.5" x2="335" y2="71.5" stroke="black"/>
<line x1="54" y1="121.5" x2="335" y2="121.5" stroke="black"/>
<line x1="54" y1="171.5" x2="335" y2="171.5" stroke="black"/>
<line x1="54" y1="221.5" x2="320" y2="221.5" stroke="black"/>
<rect width="93" height="182" transform="translate(154 56)" fill="#1192E8"/>
<path d="M195.077 163.31C195.121 163.31 195.187 163.336 195.275 163.389C195.363 163.442 195.484 163.482 195.637 163.508C195.791 163.534 195.923 163.548 196.033 163.548C196.319 163.548 196.582 163.376 196.824 163.033C197.066 162.69 197.242 162.308 197.352 161.885C197.571 161.173 197.945 159.155 198.473 155.831C199 152.507 199.505 149.341 199.989 146.333C200.473 143.326 200.714 141.809 200.714 141.782V141.664H199.165C198.132 141.664 197.582 141.637 197.516 141.584C197.429 141.505 197.385 141.373 197.385 141.189L197.615 140.081C197.659 139.949 197.747 139.883 197.879 139.883C198.011 139.883 198.527 139.87 199.429 139.843C200.484 139.843 201.011 139.83 201.011 139.804C201.011 139.751 201.11 139.091 201.308 137.825C201.505 136.559 201.637 135.794 201.703 135.53C202.516 131.177 204.121 129 206.516 129C207.33 129.053 208 129.343 208.527 129.871C209.055 130.398 209.319 131.098 209.319 131.968C209.319 132.918 209.088 133.604 208.626 134.026C208.165 134.448 207.703 134.672 207.242 134.699C206.275 134.699 205.791 134.145 205.791 133.037C205.791 132.535 205.912 132.1 206.154 131.731C206.396 131.361 206.659 131.084 206.945 130.9L207.242 130.702C206.89 130.544 206.56 130.464 206.253 130.464C205.989 130.464 205.736 130.596 205.495 130.86C205.253 131.124 205.088 131.493 205 131.968C204.846 132.733 204.67 133.762 204.473 135.055C204.275 136.348 204.099 137.442 203.945 138.339C203.791 139.236 203.714 139.711 203.714 139.764C203.714 139.817 204.319 139.843 205.527 139.843C206.516 139.843 207.088 139.856 207.242 139.883C207.396 139.909 207.516 139.988 207.604 140.12C207.626 140.226 207.604 140.45 207.538 140.793C207.473 141.136 207.418 141.347 207.374 141.426C207.33 141.558 207.231 141.624 207.077 141.624C206.923 141.624 206.33 141.637 205.297 141.664H203.451L202.692 146.491C201.637 153.034 200.901 157.123 200.484 158.759C199.89 161.002 199.121 162.664 198.176 163.745C197.363 164.59 196.56 165.012 195.769 165.012C195.066 165.012 194.429 164.761 193.857 164.26C193.286 163.759 193 163.046 193 162.123C193 161.147 193.231 160.434 193.692 159.986C194.154 159.537 194.615 159.313 195.077 159.313C196.044 159.313 196.527 159.867 196.527 160.975C196.527 161.477 196.407 161.912 196.165 162.281C195.923 162.651 195.659 162.928 195.374 163.112L195.077 163.31Z" fill="white"/>
<path d="M370.449 125.168C372.101 125.168 373.123 124.314 373.123 122.914C373.123 121.822 372.507 121.122 370.911 120.884L370.351 120.8C369.455 120.66 368.965 120.38 368.965 119.68C368.965 118.994 369.455 118.56 370.379 118.56C371.303 118.56 371.919 118.994 372.241 119.442L372.983 118.77C372.395 118.042 371.625 117.608 370.463 117.608C368.993 117.608 367.887 118.308 367.887 119.736C367.887 121.08 368.881 121.626 370.211 121.822L370.785 121.906C371.737 122.046 372.045 122.48 372.045 123.04C372.045 123.782 371.485 124.216 370.533 124.216C369.623 124.216 368.951 123.81 368.391 123.11L367.593 123.754C368.237 124.608 369.119 125.168 370.449 125.168Z" fill="black"/>
<path d="M350 51.0227C350 51.0227 353.273 50.5798 353.273 53.6036C353.273 69.0891 353.273 96.19 353.273 115.548C353.273 118.775 356 120.71 356 120.71C356 120.71 353.273 122.645 353.273 125.872C353.273 146.519 353.273 159.423 353.273 190.396C353.273 193.42 350 192.977 350 192.977" stroke="black"/>
<path d="M66 206H98V238H66V206Z" fill="#005D5D"/>
<path d="M76.4125 229H78.1405L81.4345 223.726H81.4705L84.7645 229H86.5825L82.4425 222.556L86.4745 216.436H84.7465L81.5245 221.44H81.4885L78.3385 216.436H76.5205L80.5165 222.61L76.4125 229Z" fill="white"/>
<rect x="110" y="206" width="32" height="32" fill="#1192E8"/>
<path d="M129.177 229H130.689V216.436H129.177V221.98H122.823V216.436H121.311V229H122.823V223.312H129.177V229Z" fill="white"/>
<rect x="110" y="156" width="32" height="32" fill="#1192E8"/>
<path d="M129.177 179H130.689V166.436H129.177V171.98H122.823V166.436H121.311V179H122.823V173.312H129.177V179Z" fill="white"/>
<rect x="259" y="156" width="32" height="32" fill="#1192E8"/>
<path d="M278.177 179H279.689V166.436H278.177V171.98H271.823V166.436H270.311V179H271.823V173.312H278.177V179Z" fill="white"/>
<rect x="110" y="106" width="32" height="32" fill="#1192E8"/>
<path d="M129.177 129H130.689V116.436H129.177V121.98H122.823V116.436H121.311V129H122.823V123.312H129.177V129Z" fill="white"/>
<rect x="259" y="106" width="32" height="32" fill="#1192E8"/>
<path d="M278.177 129H279.689V116.436H278.177V121.98H271.823V116.436H270.311V129H271.823V123.312H278.177V129Z" fill="white"/>
<rect x="110" y="56" width="32" height="32" fill="#1192E8"/>
<path d="M129.177 79H130.689V66.436H129.177V71.98H122.823V66.436H121.311V79H122.823V73.312H129.177V79Z" fill="white"/>
<rect x="259" y="56" width="32" height="32" fill="#1192E8"/>
<path d="M278.177 79H279.689V66.436H278.177V71.98H271.823V66.436H270.311V79H271.823V73.312H278.177V79Z" fill="white"/>
<rect x="303" y="56" width="32" height="32" fill="#121619"/>
<path d="M333 60H327V62H330.38L327 66V68H333V66H329.62L333 62V60V60Z" fill="white"/>
<path d="M323 73.62L325.08 70L323.35 69L321.17 72.77C317.491 71.4065 313.378 71.9278 310.155 74.1659C306.932 76.4041 305.007 80.0763 305 84H307C307.002 80.7873 308.548 77.7714 311.155 75.8936C313.762 74.0158 317.112 73.5048 320.16 74.52L317 80C316.095 79.999 315.302 80.6065 315.066 81.4808C314.831 82.3552 315.213 83.2784 315.997 83.7315C316.781 84.1846 317.771 84.0546 318.412 83.4145C319.052 82.7745 319.183 81.7841 318.73 81L322 75.35C325.091 77.1345 326.996 80.431 327 84H329C328.996 79.7172 326.709 75.7614 323 73.62Z" fill="white"/>
<rect x="303" y="106" width="32" height="32" fill="#121619"/>
<path d="M333 110H327V112H330.38L327 116V118H333V116H329.62L333 112V110V110Z" fill="white"/>
<path d="M323 123.62L325.08 120L323.35 119L321.17 122.77C317.491 121.407 313.378 121.928 310.155 124.166C306.932 126.404 305.007 130.076 305 134H307C307.002 130.787 308.548 127.771 311.155 125.894C313.762 124.016 317.112 123.505 320.16 124.52L317 130C316.095 129.999 315.302 130.606 315.066 131.481C314.831 132.355 315.213 133.278 315.997 133.731C316.781 134.185 317.771 134.055 318.412 133.415C319.052 132.774 319.183 131.784 318.73 131L322 125.35C325.091 127.134 326.996 130.431 327 134H329C328.996 129.717 326.709 125.761 323 123.62Z" fill="white"/>
<rect x="303" y="156" width="32" height="32" fill="#121619"/>
<path d="M333 160H327V162H330.38L327 166V168H333V166H329.62L333 162V160V160Z" fill="white"/>
<path d="M323 173.62L325.08 170L323.35 169L321.17 172.77C317.491 171.407 313.378 171.928 310.155 174.166C306.932 176.404 305.007 180.076 305 184H307C307.002 180.787 308.548 177.771 311.155 175.894C313.762 174.016 317.112 173.505 320.16 174.52L317 180C316.095 179.999 315.302 180.606 315.066 181.481C314.831 182.355 315.213 183.278 315.997 183.731C316.781 184.185 317.771 184.055 318.412 183.415C319.052 182.774 319.183 181.784 318.73 181L322 175.35C325.091 177.134 326.996 180.431 327 184H329C328.996 179.717 326.709 175.761 323 173.62Z" fill="white"/>
<rect width="20" height="20" transform="translate(25 61)" fill="white" style="mix-blend-mode:multiply"/>
<path d="M39.375 77.25H38.125L41.25 71L38.125 64.75H39.375L42.5 71L39.375 77.25Z" fill="#161616"/>
<path d="M28.75 64.75H27.5V77.25H28.75V64.75Z" fill="#161616"/>
<path d="M35 66.625H32.5C31.8125 66.625 31.25 67.1875 31.25 67.875V74.125C31.25 74.8125 31.8125 75.375 32.5 75.375H35C35.6875 75.375 36.25 74.8125 36.25 74.125V67.875C36.25 67.1875 35.6875 66.625 35 66.625ZM35 74.125H32.5V67.875H35V74.125Z" fill="#161616"/>
<path d="M34.375 70.375H33.125V71.625H34.375V70.375Z" fill="#161616"/>
<rect width="20" height="20" transform="translate(25 112)" fill="white" style="mix-blend-mode:multiply"/>
<path d="M39.375 128.25H38.125L41.25 122L38.125 115.75H39.375L42.5 122L39.375 128.25Z" fill="#161616"/>
<path d="M28.75 115.75H27.5V128.25H28.75V115.75Z" fill="#161616"/>
<path d="M35 117.625H32.5C31.8125 117.625 31.25 118.187 31.25 118.875V125.125C31.25 125.813 31.8125 126.375 32.5 126.375H35C35.6875 126.375 36.25 125.813 36.25 125.125V118.875C36.25 118.187 35.6875 117.625 35 117.625ZM35 125.125H32.5V118.875H35V125.125Z" fill="#161616"/>
<path d="M34.375 121.375H33.125V122.625H34.375V121.375Z" fill="#161616"/>
<rect width="20" height="20" transform="translate(25 161)" fill="white" style="mix-blend-mode:multiply"/>
<path d="M39.375 177.25H38.125L41.25 171L38.125 164.75H39.375L42.5 171L39.375 177.25Z" fill="#161616"/>
<path d="M28.75 164.75H27.5V177.25H28.75V164.75Z" fill="#161616"/>
<path d="M35 166.625H32.5C31.8125 166.625 31.25 167.187 31.25 167.875V174.125C31.25 174.813 31.8125 175.375 32.5 175.375H35C35.6875 175.375 36.25 174.813 36.25 174.125V167.875C36.25 167.187 35.6875 166.625 35 166.625ZM35 174.125H32.5V167.875H35V174.125Z" fill="#161616"/>
<path d="M34.375 170.375H33.125V171.625H34.375V170.375Z" fill="#161616"/>
<rect width="20" height="20" transform="translate(25 211)" fill="white" style="mix-blend-mode:multiply"/>
<path d="M39.375 227.25H38.125L41.25 221L38.125 214.75H39.375L42.5 221L39.375 227.25Z" fill="#161616"/>
<path d="M28.75 214.75H27.5V227.25H28.75V214.75Z" fill="#161616"/>
<path d="M35 216.625H32.5C31.8125 216.625 31.25 217.187 31.25 217.875V224.125C31.25 224.813 31.8125 225.375 32.5 225.375H35C35.6875 225.375 36.25 224.813 36.25 224.125V217.875C36.25 217.187 35.6875 216.625 35 216.625ZM35 224.125H32.5V217.875H35V224.125Z" fill="#161616"/>
<path d="M34.375 220.375H33.125V221.625H34.375V220.375Z" fill="#161616"/>
</svg>
