<svg width="413" height="308" viewBox="0 0 413 308" fill="none" xmlns="http://www.w3.org/2000/svg">
<rect width="413" height="308" fill="white"/>
<rect opacity="0.4" y="120" width="413" height="40" fill="#F2F4F8"/>
<rect opacity="0.4" y="200" width="413" height="40" fill="#F2F4F8"/>
<rect opacity="0.4" y="40" width="413" height="40" fill="#F2F4F8"/>
<rect x="0.5" y="0.5" width="412" height="307" stroke="#DDE1E6"/>
<line x1="69" y1="71.5" x2="231" y2="71.5" stroke="black"/>
<line x1="69" y1="121.5" x2="231" y2="121.5" stroke="black"/>
<line x1="69" y1="171.5" x2="231" y2="171.5" stroke="black"/>
<line x1="69" y1="221.5" x2="231" y2="221.5" stroke="black"/>
<path d="M48.5027 225.168C50.8407 225.168 51.8627 223.306 51.8627 220.114C51.8627 216.922 50.8407 215.06 48.5027 215.06C46.1647 215.06 45.1427 216.922 45.1427 220.114C45.1427 223.306 46.1647 225.168 48.5027 225.168ZM48.5027 224.146C46.9767 224.146 46.3747 222.802 46.3747 220.912V219.316C46.3747 217.426 46.9767 216.082 48.5027 216.082C50.0287 216.082 50.6307 217.426 50.6307 219.316V220.912C50.6307 222.802 50.0287 224.146 48.5027 224.146Z" fill="black"/>
<rect width="93" height="182" transform="translate(100 56)" fill="#1192E8"/>
<path d="M141.077 161.346C141.121 161.346 141.187 161.372 141.275 161.423C141.363 161.474 141.484 161.513 141.637 161.538C141.791 161.564 141.923 161.577 142.033 161.577C142.319 161.577 142.582 161.41 142.824 161.077C143.066 160.744 143.242 160.372 143.352 159.962C143.571 159.269 143.945 157.308 144.473 154.077C145 150.846 145.505 147.769 145.989 144.846C146.473 141.923 146.714 140.449 146.714 140.423V140.308H145.165C144.132 140.308 143.582 140.282 143.516 140.231C143.429 140.154 143.385 140.026 143.385 139.846L143.615 138.769C143.659 138.641 143.747 138.577 143.879 138.577C144.011 138.577 144.527 138.564 145.429 138.538C146.484 138.538 147.011 138.526 147.011 138.5C147.011 138.449 147.11 137.808 147.308 136.577C147.505 135.346 147.637 134.603 147.703 134.346C148.516 130.115 150.121 128 152.516 128C153.33 128.051 154 128.333 154.527 128.846C155.055 129.359 155.319 130.038 155.319 130.885C155.319 131.808 155.088 132.474 154.626 132.885C154.165 133.295 153.703 133.513 153.242 133.538C152.275 133.538 151.791 133 151.791 131.923C151.791 131.436 151.912 131.013 152.154 130.654C152.396 130.295 152.659 130.026 152.945 129.846L153.242 129.654C152.89 129.5 152.56 129.423 152.253 129.423C151.989 129.423 151.736 129.551 151.495 129.808C151.253 130.064 151.088 130.423 151 130.885C150.846 131.628 150.67 132.628 150.473 133.885C150.275 135.141 150.099 136.205 149.945 137.077C149.791 137.949 149.714 138.41 149.714 138.462C149.714 138.513 150.319 138.538 151.527 138.538C152.516 138.538 153.088 138.551 153.242 138.577C153.396 138.603 153.516 138.679 153.604 138.808C153.626 138.91 153.604 139.128 153.538 139.462C153.473 139.795 153.418 140 153.374 140.077C153.33 140.205 153.231 140.269 153.077 140.269C152.923 140.269 152.33 140.282 151.297 140.308H149.451L148.692 145C147.637 151.359 146.901 155.333 146.484 156.923C145.89 159.103 145.121 160.718 144.176 161.769C143.363 162.59 142.56 163 141.769 163C141.066 163 140.429 162.756 139.857 162.269C139.286 161.782 139 161.09 139 160.192C139 159.244 139.231 158.551 139.692 158.115C140.154 157.679 140.615 157.462 141.077 157.462C142.044 157.462 142.527 158 142.527 159.077C142.527 159.564 142.407 159.987 142.165 160.346C141.923 160.705 141.659 160.974 141.374 161.154L141.077 161.346Z" fill="white"/>
<path d="M36.7461 125H37.9921L40.0221 122.172H40.0641L41.9401 125H43.2561L40.6521 121.276L43.2001 117.776H41.9541L40.0501 120.464H40.0081L38.1741 117.776H36.8581L39.4201 121.36L36.7461 125Z" fill="black"/>
<path d="M266.746 125H267.992L270.022 122.172H270.064L271.94 125H273.256L270.652 121.276L273.2 117.776H271.954L270.05 120.464H270.008L268.174 117.776H266.858L269.42 121.36L266.746 125Z" fill="black"/>
<path d="M251.734 225.168C253.386 225.168 254.408 224.314 254.408 222.914C254.408 221.822 253.792 221.122 252.196 220.884L251.636 220.8C250.74 220.66 250.25 220.38 250.25 219.68C250.25 218.994 250.74 218.56 251.664 218.56C252.588 218.56 253.204 218.994 253.526 219.442L254.268 218.77C253.68 218.042 252.91 217.608 251.748 217.608C250.278 217.608 249.172 218.308 249.172 219.736C249.172 221.08 250.166 221.626 251.496 221.822L252.07 221.906C253.022 222.046 253.33 222.48 253.33 223.04C253.33 223.782 252.77 224.216 251.818 224.216C250.908 224.216 250.236 223.81 249.676 223.11L248.878 223.754C249.522 224.608 250.404 225.168 251.734 225.168ZM257.798 221.64C258.386 221.64 258.652 221.304 258.652 220.828V220.646C258.652 220.17 258.386 219.834 257.798 219.834C257.21 219.834 256.944 220.17 256.944 220.646V220.828C256.944 221.304 257.21 221.64 257.798 221.64ZM260.696 225H261.942L263.972 222.172H264.014L265.89 225H267.206L264.602 221.276L267.15 217.776H265.904L264 220.464H263.958L262.124 217.776H260.808L263.37 221.36L260.696 225ZM272.609 220.632C272.609 223.362 273.757 225.742 275.143 226.918H276.207C274.695 225.574 273.659 223.208 273.659 221.248V220.044C273.659 218.084 274.653 215.76 276.207 214.36H275.143C273.715 215.578 272.609 217.93 272.609 220.632ZM278.766 225V219.988C278.766 219.064 279.606 218.616 280.488 218.616C281.552 218.616 282.042 219.274 282.042 220.562V225H283.162V219.988C283.162 219.064 283.974 218.616 284.856 218.616C285.948 218.616 286.438 219.288 286.438 220.562V225H287.558V220.366C287.558 218.616 286.676 217.608 285.206 217.608C283.974 217.608 283.274 218.294 283.008 219.078H282.98C282.588 218.042 281.72 217.608 280.768 217.608C279.648 217.608 279.144 218.21 278.822 218.952H278.766V217.776H277.646V225H278.766ZM292.919 225.168C294.851 225.168 296.181 223.684 296.181 221.388C296.181 219.092 294.851 217.608 292.919 217.608C290.987 217.608 289.657 219.092 289.657 221.388C289.657 223.684 290.987 225.168 292.919 225.168ZM292.919 224.174C291.715 224.174 290.861 223.432 290.861 221.906V220.87C290.861 219.344 291.715 218.602 292.919 218.602C294.123 218.602 294.977 219.344 294.977 220.87V221.906C294.977 223.432 294.123 224.174 292.919 224.174ZM302.963 225H304.083V214.64H302.963V218.952H302.907C302.529 218.042 301.787 217.608 300.793 217.608C298.987 217.608 297.853 219.078 297.853 221.388C297.853 223.698 298.987 225.168 300.793 225.168C301.787 225.168 302.473 224.72 302.907 223.824H302.963V225ZM301.101 224.16C299.841 224.16 299.057 223.292 299.057 222.004V220.772C299.057 219.484 299.841 218.616 301.101 218.616C302.123 218.616 302.963 219.204 302.963 220.002V222.69C302.963 223.628 302.123 224.16 301.101 224.16ZM316.684 223.964H311.546L314.178 221.598C315.424 220.478 316.32 219.414 316.32 217.902C316.32 216.236 315.228 215.06 313.324 215.06C311.434 215.06 310.566 216.208 310.188 217.356L311.238 217.762C311.504 216.838 312.064 216.11 313.268 216.11C314.472 216.11 315.074 216.852 315.074 217.93V218.098C315.074 219.036 314.374 220.016 313.464 220.856L310.272 223.796V225H316.684V223.964ZM321.465 220.632C321.465 217.93 320.359 215.578 318.931 214.36H317.867C319.421 215.76 320.415 218.084 320.415 220.044V221.248C320.415 223.208 319.379 225.574 317.867 226.918H318.931C320.317 225.742 321.465 223.362 321.465 220.632Z" fill="black"/>
<path d="M60 67.0178C60 67.0178 56.7273 66.6716 56.7273 69.0353C56.7273 81.1401 56.7273 102.325 56.7273 117.456C56.7273 119.979 54 121.491 54 121.491C54 121.491 56.7273 123.004 56.7273 125.526C56.7273 141.666 56.7273 151.754 56.7273 175.964C56.7273 178.328 60 177.982 60 177.982" stroke="black"/>
<path d="M250 67.0178C250 67.0178 253.273 66.6715 253.273 69.0352C253.273 81.1401 253.273 102.325 253.273 117.456C253.273 119.979 256 121.491 256 121.491C256 121.491 253.273 123.004 253.273 125.526C253.273 141.666 253.273 151.754 253.273 175.964C253.273 178.328 250 177.982 250 177.982" stroke="black"/>
</svg>
