<svg width="342" height="192" viewBox="0 0 342 192" fill="none" xmlns="http://www.w3.org/2000/svg">
<rect width="342" height="192" fill="white"/>
<rect opacity="0.4" y="120" width="342" height="40" fill="#F2F4F8"/>
<rect opacity="0.4" y="40" width="342" height="40" fill="#F2F4F8"/>
<rect x="0.5" y="0.5" width="341" height="191" stroke="#DDE1E6"/>
<line x1="69" y1="72.5" x2="270" y2="72.5" stroke="black"/>
<line x1="69" y1="120.5" x2="270" y2="120.5" stroke="black"/>
<line x1="164" y1="108" x2="164" y2="73" stroke="#005D5D" stroke-width="2"/>
<circle cx="164" cy="73" r="5.5" fill="#005D5D" stroke="#005D5D"/>
<path d="M148 105H180V137H148V105Z" fill="#005D5D"/>
<path d="M168.571 126.668H161.047L168.319 116.804V115.436H159.805V116.768H166.681L159.427 126.632V128H168.571V126.668Z" fill="white"/>
<path d="M42.0545 102L41 101.46L43.6804 96L41 90.54L42.0545 90L45 96L42.0545 102V102Z" fill="#161616"/>
<rect x="22" y="90" width="1" height="12" fill="#161616"/>
<path d="M28.9047 100.144C30.9447 100.144 31.8327 98.548 31.8327 95.812C31.8327 93.076 30.9447 91.48 28.9047 91.48C26.8647 91.48 25.9767 93.076 25.9767 95.812C25.9767 98.548 26.8647 100.144 28.9047 100.144ZM28.9047 99.268C27.5607 99.268 27.0207 98.176 27.0207 96.496V95.128C27.0207 93.448 27.5607 92.356 28.9047 92.356C30.2487 92.356 30.7887 93.448 30.7887 95.128V96.496C30.7887 98.176 30.2487 99.268 28.9047 99.268ZM28.9047 96.52C29.4567 96.52 29.6487 96.268 29.6487 95.944V95.68C29.6487 95.356 29.4567 95.104 28.9047 95.104C28.3527 95.104 28.1607 95.356 28.1607 95.68V95.944C28.1607 96.268 28.3527 96.52 28.9047 96.52ZM39.136 100V99.124H36.928V91.624H35.356L33.136 93.7L33.724 94.336L35.836 92.368H35.92V99.124H33.52V100H39.136Z" fill="black"/>
<path d="M316.054 102L315 101.46L317.68 96L315 90.54L316.054 90L319 96L316.054 102V102Z" fill="#161616"/>
<rect x="296" y="90" width="1" height="12" fill="#161616"/>
<path d="M302.905 100.144C304.945 100.144 305.833 98.548 305.833 95.812C305.833 93.076 304.945 91.48 302.905 91.48C300.865 91.48 299.977 93.076 299.977 95.812C299.977 98.548 300.865 100.144 302.905 100.144ZM302.905 99.268C301.561 99.268 301.021 98.176 301.021 96.496V95.128C301.021 93.448 301.561 92.356 302.905 92.356C304.249 92.356 304.789 93.448 304.789 95.128V96.496C304.789 98.176 304.249 99.268 302.905 99.268ZM302.905 96.52C303.457 96.52 303.649 96.268 303.649 95.944V95.68C303.649 95.356 303.457 95.104 302.905 95.104C302.353 95.104 302.161 95.356 302.161 95.68V95.944C302.161 96.268 302.353 96.52 302.905 96.52ZM313.136 100V99.124H310.928V91.624H309.356L307.136 93.7L307.724 94.336L309.836 92.368H309.92V99.124H307.52V100H313.136Z" fill="black"/>
<path d="M60 69C60 69 57 68.8284 57 70C57 75.9998 57 86.5 57 94C57 95.2503 54.5 96 54.5 96C54.5 96 57 96.7498 57 98C57 106 57 111 57 123C57 124.171 60 124 60 124" stroke="black"/>
<path d="M280 69.0088C280 69.0088 283 68.8373 283 70.0085C283 76.0064 283 86.5032 283 94.0008C283 95.2507 285.5 96.0002 285.5 96.0002C285.5 96.0002 283 96.7497 283 97.9995C283 105.997 283 110.995 283 122.991C283 124.163 280 123.991 280 123.991" stroke="black"/>
</svg>
