<svg width="378" height="368" viewBox="0 0 378 368" fill="none" xmlns="http://www.w3.org/2000/svg">
<path d="M141.996 292.256C141.996 294.596 142.98 296.636 144.168 297.644H145.08C143.784 296.492 142.896 294.464 142.896 292.784V291.752C142.896 290.072 143.748 288.08 145.08 286.88H144.168C142.944 287.924 141.996 289.94 141.996 292.256ZM151.904 296V295.112H149.744V287.624H148.172L145.952 289.7L146.54 290.336L148.652 288.368H148.736V295.112H146.396V296H151.904ZM156.455 296.144C158.363 296.144 159.359 295.1 159.359 293.72C159.359 292.58 158.675 291.92 157.667 291.644V291.548C158.543 291.248 159.107 290.54 159.107 289.58C159.107 288.308 158.123 287.48 156.455 287.48C154.787 287.48 153.803 288.308 153.803 289.58C153.803 290.54 154.367 291.248 155.243 291.548V291.644C154.235 291.92 153.551 292.58 153.551 293.72C153.551 295.1 154.547 296.144 156.455 296.144ZM156.455 295.268C155.291 295.268 154.619 294.716 154.619 293.768V293.516C154.619 292.568 155.291 292.016 156.455 292.016C157.619 292.016 158.291 292.568 158.291 293.516V293.768C158.291 294.716 157.619 295.268 156.455 295.268ZM156.455 291.176C155.411 291.176 154.847 290.708 154.847 289.856V289.676C154.847 288.824 155.411 288.356 156.455 288.356C157.499 288.356 158.063 288.824 158.063 289.676V289.856C158.063 290.708 157.499 291.176 156.455 291.176ZM163.97 296.144C165.974 296.144 166.85 294.548 166.85 291.812C166.85 289.076 165.974 287.48 163.97 287.48C161.966 287.48 161.09 289.076 161.09 291.812C161.09 294.548 161.966 296.144 163.97 296.144ZM163.97 295.268C162.662 295.268 162.146 294.116 162.146 292.496V291.128C162.146 289.508 162.662 288.356 163.97 288.356C165.278 288.356 165.794 289.508 165.794 291.128V292.496C165.794 294.116 165.278 295.268 163.97 295.268ZM170.693 291.608C171.833 291.608 172.709 290.72 172.709 289.544C172.709 288.368 171.833 287.48 170.693 287.48C169.553 287.48 168.677 288.368 168.677 289.544C168.677 290.72 169.553 291.608 170.693 291.608ZM170.693 290.84C169.973 290.84 169.517 290.264 169.517 289.544C169.517 288.824 169.973 288.248 170.693 288.248C171.413 288.248 171.869 288.824 171.869 289.544C171.869 290.264 171.413 290.84 170.693 290.84ZM178.955 296V291.8C178.955 291.212 179.579 290.768 180.611 290.768H181.175V289.808H180.803C179.795 289.808 179.231 290.36 179.015 290.948H178.955V289.808H177.995V296H178.955ZM185.002 296.144C186.658 296.144 187.798 294.872 187.798 292.904C187.798 290.936 186.658 289.664 185.002 289.664C183.346 289.664 182.206 290.936 182.206 292.904C182.206 294.872 183.346 296.144 185.002 296.144ZM185.002 295.292C183.97 295.292 183.238 294.656 183.238 293.348V292.46C183.238 291.152 183.97 290.516 185.002 290.516C186.034 290.516 186.766 291.152 186.766 292.46V293.348C186.766 294.656 186.034 295.292 185.002 295.292ZM192.265 296V295.16H191.005V290.648H192.361V289.808H191.005V288.092H190.141V289.244C190.141 289.664 190.009 289.808 189.601 289.808H189.025V290.648H190.045V294.98C190.045 295.58 190.405 296 191.065 296H192.265ZM199.264 296V295.16H198.556V291.752C198.556 290.444 197.668 289.664 196.18 289.664C195.064 289.664 194.32 290.216 193.984 290.876L194.56 291.416C194.896 290.852 195.388 290.492 196.132 290.492C197.116 290.492 197.596 290.972 197.596 291.848V292.46H196.372C194.572 292.46 193.732 293.108 193.732 294.272C193.732 295.424 194.5 296.144 195.808 296.144C196.672 296.144 197.332 295.748 197.596 294.992H197.656C197.728 295.568 198.016 296 198.724 296H199.264ZM195.964 295.328C195.22 295.328 194.74 294.98 194.74 294.368V294.116C194.74 293.516 195.232 293.18 196.324 293.18H197.596V294.2C197.596 294.836 196.912 295.328 195.964 295.328ZM203.522 296V295.16H202.262V290.648H203.618V289.808H202.262V288.092H201.398V289.244C201.398 289.664 201.266 289.808 200.858 289.808H200.282V290.648H201.302V294.98C201.302 295.58 201.662 296 202.322 296H203.522ZM205.961 288.356C206.369 288.356 206.549 288.14 206.549 287.816V287.66C206.549 287.336 206.369 287.12 205.961 287.12C205.553 287.12 205.373 287.336 205.373 287.66V287.816C205.373 288.14 205.553 288.356 205.961 288.356ZM205.481 296H206.441V289.808H205.481V296ZM211.141 296.144C212.797 296.144 213.937 294.872 213.937 292.904C213.937 290.936 212.797 289.664 211.141 289.664C209.485 289.664 208.345 290.936 208.345 292.904C208.345 294.872 209.485 296.144 211.141 296.144ZM211.141 295.292C210.109 295.292 209.377 294.656 209.377 293.348V292.46C209.377 291.152 210.109 290.516 211.141 290.516C212.173 290.516 212.905 291.152 212.905 292.46V293.348C212.905 294.656 212.173 295.292 211.141 295.292ZM216.796 296V291.704C216.796 290.912 217.54 290.528 218.308 290.528C219.232 290.528 219.712 291.092 219.712 292.196V296H220.672V292.028C220.672 290.528 219.868 289.664 218.596 289.664C217.672 289.664 217.144 290.12 216.844 290.816H216.796V289.808H215.836V296H216.796ZM224.981 292.256C224.981 289.94 224.033 287.924 222.809 286.88H221.897C223.229 288.08 224.081 290.072 224.081 291.752V292.784C224.081 294.464 223.193 296.492 221.897 297.644H222.809C223.997 296.636 224.981 294.596 224.981 292.256Z" fill="black"/>
<circle cx="33" cy="72" r="24" fill="#DDE1E6"/>
<circle cx="345" cy="72" r="24" fill="#DDE1E6"/>
<path d="M28.2255 113.168C30.5635 113.168 31.5855 111.306 31.5855 108.114C31.5855 104.922 30.5635 103.06 28.2255 103.06C25.8875 103.06 24.8655 104.922 24.8655 108.114C24.8655 111.306 25.8875 113.168 28.2255 113.168ZM28.2255 112.146C26.6995 112.146 26.0975 110.802 26.0975 108.912V107.316C26.0975 105.426 26.6995 104.082 28.2255 104.082C29.7515 104.082 30.3535 105.426 30.3535 107.316V108.912C30.3535 110.802 29.7515 112.146 28.2255 112.146ZM36.78 113.168C39.118 113.168 40.14 111.306 40.14 108.114C40.14 104.922 39.118 103.06 36.78 103.06C34.442 103.06 33.42 104.922 33.42 108.114C33.42 111.306 34.442 113.168 36.78 113.168ZM36.78 112.146C35.254 112.146 34.652 110.802 34.652 108.912V107.316C34.652 105.426 35.254 104.082 36.78 104.082C38.306 104.082 38.908 105.426 38.908 107.316V108.912C38.908 110.802 38.306 112.146 36.78 112.146Z" fill="black"/>
<path d="M340.225 113.168C342.563 113.168 343.585 111.306 343.585 108.114C343.585 104.922 342.563 103.06 340.225 103.06C337.887 103.06 336.865 104.922 336.865 108.114C336.865 111.306 337.887 113.168 340.225 113.168ZM340.225 112.146C338.699 112.146 338.097 110.802 338.097 108.912V107.316C338.097 105.426 338.699 104.082 340.225 104.082C341.751 104.082 342.353 105.426 342.353 107.316V108.912C342.353 110.802 341.751 112.146 340.225 112.146ZM348.78 113.168C351.118 113.168 352.14 111.306 352.14 108.114C352.14 104.922 351.118 103.06 348.78 103.06C346.442 103.06 345.42 104.922 345.42 108.114C345.42 111.306 346.442 113.168 348.78 113.168ZM348.78 112.146C347.254 112.146 346.652 110.802 346.652 108.912V107.316C346.652 105.426 347.254 104.082 348.78 104.082C350.306 104.082 350.908 105.426 350.908 107.316V108.912C350.908 110.802 350.306 112.146 348.78 112.146Z" fill="black"/>
<path d="M28.2255 195.168C30.5635 195.168 31.5855 193.306 31.5855 190.114C31.5855 186.922 30.5635 185.06 28.2255 185.06C25.8875 185.06 24.8655 186.922 24.8655 190.114C24.8655 193.306 25.8875 195.168 28.2255 195.168ZM28.2255 194.146C26.6995 194.146 26.0975 192.802 26.0975 190.912V189.316C26.0975 187.426 26.6995 186.082 28.2255 186.082C29.7515 186.082 30.3535 187.426 30.3535 189.316V190.912C30.3535 192.802 29.7515 194.146 28.2255 194.146ZM40.238 195V193.964H37.718V185.228H35.884L33.294 187.65L33.98 188.392L36.444 186.096H36.542V193.964H33.812V195H40.238Z" fill="black"/>
<path d="M340.225 195.168C342.563 195.168 343.585 193.306 343.585 190.114C343.585 186.922 342.563 185.06 340.225 185.06C337.887 185.06 336.865 186.922 336.865 190.114C336.865 193.306 337.887 195.168 340.225 195.168ZM340.225 194.146C338.699 194.146 338.097 192.802 338.097 190.912V189.316C338.097 187.426 338.699 186.082 340.225 186.082C341.751 186.082 342.353 187.426 342.353 189.316V190.912C342.353 192.802 341.751 194.146 340.225 194.146ZM352.238 195V193.964H349.718V185.228H347.884L345.294 187.65L345.98 188.392L348.444 186.096H348.542V193.964H345.812V195H352.238Z" fill="black"/>
<path d="M31.6835 273V271.964H29.1635V263.228H27.3295L24.7395 265.65L25.4255 266.392L27.8895 264.096H27.9875V271.964H25.2575V273H31.6835ZM36.78 273.168C39.118 273.168 40.14 271.306 40.14 268.114C40.14 264.922 39.118 263.06 36.78 263.06C34.442 263.06 33.42 264.922 33.42 268.114C33.42 271.306 34.442 273.168 36.78 273.168ZM36.78 272.146C35.254 272.146 34.652 270.802 34.652 268.912V267.316C34.652 265.426 35.254 264.082 36.78 264.082C38.306 264.082 38.908 265.426 38.908 267.316V268.912C38.908 270.802 38.306 272.146 36.78 272.146Z" fill="black"/>
<path d="M343.683 273V271.964H341.163V263.228H339.329L336.739 265.65L337.425 266.392L339.889 264.096H339.987V271.964H337.257V273H343.683ZM348.78 273.168C351.118 273.168 352.14 271.306 352.14 268.114C352.14 264.922 351.118 263.06 348.78 263.06C346.442 263.06 345.42 264.922 345.42 268.114C345.42 271.306 346.442 273.168 348.78 273.168ZM348.78 272.146C347.254 272.146 346.652 270.802 346.652 268.912V267.316C346.652 265.426 347.254 264.082 348.78 264.082C350.306 264.082 350.908 265.426 350.908 267.316V268.912C350.908 270.802 350.306 272.146 348.78 272.146Z" fill="black"/>
<path d="M31.6835 351V349.964H29.1635V341.228H27.3295L24.7395 343.65L25.4255 344.392L27.8895 342.096H27.9875V349.964H25.2575V351H31.6835ZM40.238 351V349.964H37.718V341.228H35.884L33.294 343.65L33.98 344.392L36.444 342.096H36.542V349.964H33.812V351H40.238Z" fill="black"/>
<path d="M343.683 351V349.964H341.163V341.228H339.329L336.739 343.65L337.425 344.392L339.889 342.096H339.987V349.964H337.257V351H343.683ZM352.238 351V349.964H349.718V341.228H347.884L345.294 343.65L345.98 344.392L348.444 342.096H348.542V349.964H345.812V351H352.238Z" fill="black"/>
<circle cx="33" cy="232" r="24" fill="#DDE1E6"/>
<circle cx="345" cy="232" r="24" fill="#DDE1E6"/>
<circle cx="33" cy="154" r="24" fill="#DDE1E6"/>
<path d="M33 130.5C45.9787 130.5 56.5 141.021 56.5 154C56.5 166.979 45.9787 177.5 33 177.5C20.0213 177.5 9.5 166.979 9.5 154C9.5 141.021 20.0213 130.5 33 130.5Z" fill="#BE95FF" stroke="#491D8B"/>
<path d="M53 155.5L57 154L53 152.5L53 155.5Z" fill="#491D8B"/>
<line x1="53" y1="154" x2="30" y2="154" stroke="#491D8B"/>
<circle cx="345" cy="154" r="24" fill="#DDE1E6"/>
<circle cx="33" cy="310" r="24" fill="#DDE1E6"/>
<circle cx="345" cy="310" r="24" fill="#DDE1E6"/>
<path d="M49 45H62C63.6569 45 65 46.3431 65 48V364C65 365.657 63.6569 367 62 367H51.5" stroke="#343A3F"/>
<path d="M17 45H4C2.34315 45 1 46.3431 1 48V364C1 365.657 2.34315 367 4 367H14.5" stroke="#343A3F"/>
<path d="M361 45H374C375.657 45 377 46.3431 377 48V364C377 365.657 375.657 367 374 367H363.5" stroke="#343A3F"/>
<path d="M329 45H316C314.343 45 313 46.3431 313 48V364C313 365.657 314.343 367 316 367H326.5" stroke="#343A3F"/>
<path d="M292 73L296 71.5L292 70V73Z" fill="#343A3F"/>
<line x1="292" y1="71.5" x2="286" y2="71.5" stroke="#343A3F"/>
<line x1="286.334" y1="71.5" x2="82.0001" y2="71.5" stroke="black"/>
<path d="M292 314L296 312.5L292 311V314Z" fill="#343A3F"/>
<line x1="292" y1="312.5" x2="286" y2="312.5" stroke="#343A3F"/>
<line x1="286.334" y1="312.5" x2="82.0001" y2="312.5" stroke="black"/>
<path d="M292 155L296 153.5L292 152V155Z" fill="#343A3F"/>
<line x1="292" y1="153.5" x2="286" y2="153.5" stroke="#343A3F"/>
<line x1="286.334" y1="153.5" x2="82.0001" y2="153.5" stroke="black"/>
<path d="M292 232L296 230.5L292 229V232Z" fill="#343A3F"/>
<line x1="292" y1="230.5" x2="286" y2="230.5" stroke="#343A3F"/>
<line x1="286.334" y1="230.5" x2="82.0001" y2="230.5" stroke="black"/>
<path d="M150.942 15.168C152.692 15.168 153.854 14.314 154.554 12.858L153.056 11.976C152.734 12.858 152.048 13.53 150.942 13.53C149.57 13.53 148.688 12.578 148.688 10.898V9.358C148.688 7.692 149.57 6.698 150.942 6.698C152.034 6.698 152.65 7.286 152.93 8.154L154.512 7.314C153.826 5.802 152.692 5.06 150.942 5.06C148.366 5.06 146.728 6.894 146.728 10.184C146.728 13.474 148.366 15.168 150.942 15.168ZM159.076 15.168C161.176 15.168 162.478 13.684 162.478 11.332C162.478 8.994 161.176 7.524 159.076 7.524C156.99 7.524 155.688 8.994 155.688 11.332C155.688 13.684 156.99 15.168 159.076 15.168ZM159.076 13.726C158.152 13.726 157.564 13.124 157.564 12.018V10.66C157.564 9.568 158.152 8.966 159.076 8.966C160.014 8.966 160.602 9.568 160.602 10.66V12.018C160.602 13.124 160.014 13.726 159.076 13.726ZM166.019 15V10.17C166.019 9.386 166.733 8.994 167.475 8.994C168.329 8.994 168.679 9.526 168.679 10.562V15H170.471V10.38C170.471 8.56 169.631 7.524 168.133 7.524C166.999 7.524 166.383 8.126 166.089 8.91H166.019V7.692H164.227V15H166.019ZM174.9 15H176.188V13.572H174.802V9.12H176.3V7.692H174.802V5.69H173.192V6.936C173.192 7.44 173.024 7.692 172.492 7.692H171.932V9.12H173.01V13.138C173.01 14.328 173.668 15 174.9 15ZM179.806 15V10.52C179.806 9.722 180.436 9.386 181.64 9.386H182.2V7.692H181.808C180.646 7.692 180.058 8.434 179.876 9.204H179.806V7.692H178.014V15H179.806ZM186.5 15.168C188.6 15.168 189.902 13.684 189.902 11.332C189.902 8.994 188.6 7.524 186.5 7.524C184.414 7.524 183.112 8.994 183.112 11.332C183.112 13.684 184.414 15.168 186.5 15.168ZM186.5 13.726C185.576 13.726 184.988 13.124 184.988 12.018V10.66C184.988 9.568 185.576 8.966 186.5 8.966C187.438 8.966 188.026 9.568 188.026 10.66V12.018C188.026 13.124 187.438 13.726 186.5 13.726ZM194.408 15V13.572H193.442V4.64H191.65V13.236C191.65 14.356 192.224 15 193.442 15H194.408ZM198.588 15V13.572H197.622V4.64H195.83V13.236C195.83 14.356 196.404 15 197.622 15H198.588ZM203.059 15.168C204.417 15.168 205.481 14.65 206.083 13.824L205.117 12.746C204.669 13.32 204.137 13.74 203.255 13.74C202.079 13.74 201.477 13.026 201.477 11.976V11.794H206.335V11.206C206.335 9.204 205.285 7.524 203.003 7.524C200.861 7.524 199.615 9.022 199.615 11.332C199.615 13.67 200.903 15.168 203.059 15.168ZM203.031 8.868C203.955 8.868 204.473 9.554 204.473 10.562V10.688H201.477V10.576C201.477 9.568 202.093 8.868 203.031 8.868ZM212.608 15H214.4V4.64H212.608V8.896H212.538C212.286 8.056 211.488 7.524 210.522 7.524C208.688 7.524 207.666 8.896 207.666 11.332C207.666 13.782 208.688 15.168 210.522 15.168C211.488 15.168 212.272 14.608 212.538 13.782H212.608V15ZM211.096 13.684C210.172 13.684 209.542 13.012 209.542 11.976V10.716C209.542 9.68 210.172 8.994 211.096 8.994C211.95 8.994 212.608 9.456 212.608 10.17V12.494C212.608 13.25 211.95 13.684 211.096 13.684ZM220.406 11.626V9.848H216.402V11.626H220.406ZM228.772 13.362H223.564L228.632 6.88V5.228H221.702V6.866H226.504L221.45 13.348V15H228.772V13.362Z" fill="black"/>
<path d="M18.4 19.9795H18.36C18.2 19.9795 18.08 19.8862 18 19.6995V9.97956L18.02 0.259628C18.1533 0.0862961 18.28 -0.000370026 18.4 -0.000370026C18.5733 -0.000370026 18.7067 0.0996304 18.8 0.299629V19.6995C18.6933 19.8862 18.5733 19.9795 18.44 19.9795H18.4Z" fill="black"/>
<path d="M23.1 3.29954C23.8466 2.21954 24.8666 1.67955 26.1599 1.67955C26.7999 1.67955 27.4399 1.85288 28.0799 2.19954C28.7199 2.54621 29.2399 3.15954 29.6399 4.03953C30.1332 5.14619 30.3799 6.66618 30.3799 8.5995C30.3799 10.6662 30.0932 12.2461 29.5199 13.3395C29.2532 13.8995 28.8866 14.3461 28.4199 14.6795C27.9533 15.0128 27.5466 15.2195 27.1999 15.2995C26.8533 15.3795 26.5133 15.4261 26.1799 15.4395C25.8333 15.4395 25.4866 15.3995 25.1399 15.3195C24.7933 15.2395 24.3866 15.0261 23.9199 14.6795C23.4533 14.3328 23.0866 13.8861 22.82 13.3395C22.2466 12.2461 21.96 10.6662 21.96 8.5995C21.96 6.27952 22.34 4.51286 23.1 3.29954ZM27.5999 3.05954C27.1999 2.63287 26.7266 2.41954 26.1799 2.41954C25.6199 2.41954 25.1399 2.63287 24.7399 3.05954C24.4066 3.4062 24.1866 3.8862 24.0799 4.49953C23.9733 5.11286 23.9199 6.39285 23.9199 8.3395C23.9199 10.4462 23.9733 11.8328 24.0799 12.4995C24.1866 13.1661 24.4266 13.6928 24.7999 14.0795C25.1733 14.4795 25.6333 14.6795 26.1799 14.6795C26.7133 14.6795 27.1666 14.4795 27.5399 14.0795C27.9266 13.6795 28.1666 13.1195 28.2599 12.3995C28.3533 11.6795 28.4066 10.3262 28.4199 8.3395C28.4199 6.40618 28.3666 5.13286 28.2599 4.51953C28.1533 3.9062 27.9333 3.41953 27.5999 3.05954Z" fill="black"/>
<path d="M35.4398 3.43959L35.1798 3.53959C34.9932 3.60626 34.7265 3.67292 34.3798 3.73959C34.0332 3.80625 33.6465 3.85292 33.2198 3.87959H32.8398V2.95959H33.2198C33.8465 2.93293 34.4265 2.83293 34.9598 2.6596C35.4932 2.48626 35.8665 2.32626 36.0798 2.1796C36.2932 2.03293 36.4798 1.88627 36.6398 1.7396C36.6665 1.6996 36.7465 1.6796 36.8798 1.6796C36.9998 1.6796 37.1131 1.7196 37.2198 1.7996V7.77956L37.2398 13.7795C37.3331 13.8729 37.4131 13.9329 37.4798 13.9595C37.5465 13.9862 37.7065 14.0129 37.9598 14.0395C38.2131 14.0662 38.6265 14.0795 39.1998 14.0795H39.7198V14.9995H39.4998C39.2198 14.9595 38.1598 14.9395 36.3198 14.9395C34.5065 14.9395 33.4598 14.9595 33.1798 14.9995H32.9398V14.0795H33.4598C33.7532 14.0795 34.0065 14.0795 34.2198 14.0795C34.4332 14.0795 34.5998 14.0729 34.7198 14.0595C34.8398 14.0462 34.9465 14.0262 35.0398 13.9995C35.1332 13.9729 35.1865 13.9595 35.1998 13.9595C35.2132 13.9595 35.2532 13.9262 35.3198 13.8595C35.3865 13.7929 35.4265 13.7662 35.4398 13.7795V3.43959Z" fill="black"/>
<path d="M42.2798 0.360132C42.2931 0.2668 42.3331 0.1868 42.3998 0.120134C42.4665 0.0534668 42.5598 0.0134678 42.6798 0.000135422C42.8131 0.000135422 42.9264 0.0668011 43.0198 0.200132C43.0598 0.293467 43.6864 1.93345 44.8998 5.1201C46.1131 8.30675 46.7264 9.9334 46.7398 10.0001C46.7531 10.0667 46.1464 11.6934 44.9198 14.88C43.6931 18.0667 43.0598 19.7067 43.0198 19.8C42.9264 19.9333 42.8131 20 42.6798 20C42.5731 20 42.4865 19.9667 42.4198 19.9C42.3531 19.8333 42.3065 19.7467 42.2798 19.64C42.2798 19.5733 42.8798 17.9533 44.0798 14.78C45.2931 11.6201 45.8998 10.0267 45.8998 10.0001C45.8998 9.9734 45.2931 8.38008 44.0798 5.2201C42.8798 2.04679 42.2798 0.426798 42.2798 0.360132Z" fill="black"/>
<path d="M330.4 19.9795H330.36C330.2 19.9795 330.08 19.8862 330 19.6995V9.97956L330.02 0.259628C330.153 0.0862961 330.28 -0.000370026 330.4 -0.000370026C330.573 -0.000370026 330.707 0.0996304 330.8 0.299629V19.6995C330.693 19.8862 330.573 19.9795 330.44 19.9795H330.4Z" fill="black"/>
<path d="M335.1 3.29954C335.847 2.21954 336.867 1.67955 338.16 1.67955C338.8 1.67955 339.44 1.85288 340.08 2.19954C340.72 2.54621 341.24 3.15954 341.64 4.03953C342.133 5.14619 342.38 6.66618 342.38 8.5995C342.38 10.6662 342.093 12.2461 341.52 13.3395C341.253 13.8995 340.887 14.3461 340.42 14.6795C339.953 15.0128 339.547 15.2195 339.2 15.2995C338.853 15.3795 338.513 15.4261 338.18 15.4395C337.833 15.4395 337.487 15.3995 337.14 15.3195C336.793 15.2395 336.387 15.0261 335.92 14.6795C335.453 14.3328 335.087 13.8861 334.82 13.3395C334.247 12.2461 333.96 10.6662 333.96 8.5995C333.96 6.27952 334.34 4.51286 335.1 3.29954ZM339.6 3.05954C339.2 2.63287 338.727 2.41954 338.18 2.41954C337.62 2.41954 337.14 2.63287 336.74 3.05954C336.407 3.4062 336.187 3.8862 336.08 4.49953C335.973 5.11286 335.92 6.39285 335.92 8.3395C335.92 10.4462 335.973 11.8328 336.08 12.4995C336.187 13.1661 336.427 13.6928 336.8 14.0795C337.173 14.4795 337.633 14.6795 338.18 14.6795C338.713 14.6795 339.167 14.4795 339.54 14.0795C339.927 13.6795 340.167 13.1195 340.26 12.3995C340.353 11.6795 340.407 10.3262 340.42 8.3395C340.42 6.40618 340.367 5.13286 340.26 4.51953C340.153 3.9062 339.933 3.41953 339.6 3.05954Z" fill="black"/>
<path d="M347.44 3.43959L347.18 3.53959C346.993 3.60626 346.726 3.67292 346.38 3.73959C346.033 3.80625 345.647 3.85292 345.22 3.87959H344.84V2.95959H345.22C345.847 2.93293 346.426 2.83293 346.96 2.6596C347.493 2.48626 347.866 2.32626 348.08 2.1796C348.293 2.03293 348.48 1.88627 348.64 1.7396C348.666 1.6996 348.746 1.6796 348.88 1.6796C349 1.6796 349.113 1.7196 349.22 1.7996V7.77956L349.24 13.7795C349.333 13.8729 349.413 13.9329 349.48 13.9595C349.546 13.9862 349.706 14.0129 349.96 14.0395C350.213 14.0662 350.626 14.0795 351.2 14.0795H351.72V14.9995H351.5C351.22 14.9595 350.16 14.9395 348.32 14.9395C346.506 14.9395 345.46 14.9595 345.18 14.9995H344.94V14.0795H345.46C345.753 14.0795 346.007 14.0795 346.22 14.0795C346.433 14.0795 346.6 14.0729 346.72 14.0595C346.84 14.0462 346.946 14.0262 347.04 13.9995C347.133 13.9729 347.186 13.9595 347.2 13.9595C347.213 13.9595 347.253 13.9262 347.32 13.8595C347.386 13.7929 347.426 13.7662 347.44 13.7795V3.43959Z" fill="black"/>
<path d="M354.28 0.360132C354.293 0.2668 354.333 0.1868 354.4 0.120134C354.466 0.0534668 354.56 0.0134678 354.68 0.000135422C354.813 0.000135422 354.926 0.0668011 355.02 0.200132C355.06 0.293467 355.686 1.93345 356.9 5.1201C358.113 8.30675 358.726 9.9334 358.74 10.0001C358.753 10.0667 358.146 11.6934 356.92 14.88C355.693 18.0667 355.06 19.7067 355.02 19.8C354.926 19.9333 354.813 20 354.68 20C354.573 20 354.486 19.9667 354.42 19.9C354.353 19.8333 354.306 19.7467 354.28 19.64C354.28 19.5733 354.88 17.9533 356.08 14.78C357.293 11.6201 357.9 10.0267 357.9 10.0001C357.9 9.9734 357.293 8.38008 356.08 5.2201C354.88 2.04679 354.28 0.426798 354.28 0.360132Z" fill="black"/>
<path d="M345 130.5C357.979 130.5 368.5 141.021 368.5 154C368.5 166.979 357.979 177.5 345 177.5C332.021 177.5 321.5 166.979 321.5 154C321.5 141.021 332.021 130.5 345 130.5Z" fill="#BE95FF" stroke="#491D8B"/>
<path d="M365 155.5L369 154L365 152.5V155.5Z" fill="#491D8B"/>
<line x1="365" y1="154" x2="342" y2="154" stroke="#491D8B"/>
</svg>
