<svg width="625" height="438" viewBox="0 0 625 438" fill="none" xmlns="http://www.w3.org/2000/svg">
<rect y="243" width="300" height="192" fill="white"/>
<rect opacity="0.4" y="363" width="300" height="40" fill="#F2F4F8"/>
<rect opacity="0.4" y="283" width="300" height="40" fill="#F2F4F8"/>
<rect x="0.5" y="243.5" width="299" height="191" stroke="#DDE1E6"/>
<line x1="59" y1="314.5" x2="259" y2="314.5" stroke="black"/>
<path d="M41.3307 318V317.02H40.5047V313.044C40.5047 311.518 39.4687 310.608 37.7327 310.608C36.4307 310.608 35.5627 311.252 35.1707 312.022L35.8427 312.652C36.2347 311.994 36.8087 311.574 37.6767 311.574C38.8247 311.574 39.3847 312.134 39.3847 313.156V313.87H37.9567C35.8567 313.87 34.8767 314.626 34.8767 315.984C34.8767 317.328 35.7727 318.168 37.2987 318.168C38.3067 318.168 39.0767 317.706 39.3847 316.824H39.4547C39.5387 317.496 39.8747 318 40.7007 318H41.3307ZM37.4807 317.216C36.6127 317.216 36.0527 316.81 36.0527 316.096V315.802C36.0527 315.102 36.6267 314.71 37.9007 314.71H39.3847V315.9C39.3847 316.642 38.5867 317.216 37.4807 317.216Z" fill="black"/>
<line x1="60" y1="364.5" x2="259" y2="364.5" stroke="black"/>
<path d="M36.6295 368H37.7495V366.824H37.8055C38.2395 367.72 38.9255 368.168 39.9195 368.168C41.7255 368.168 42.8595 366.698 42.8595 364.388C42.8595 362.078 41.7255 360.608 39.9195 360.608C38.9255 360.608 38.1835 361.042 37.8055 361.952H37.7495V357.64H36.6295V368ZM39.6115 367.16C38.5895 367.16 37.7495 366.628 37.7495 365.69V363.002C37.7495 362.204 38.5895 361.616 39.6115 361.616C40.8715 361.616 41.6555 362.484 41.6555 363.772V365.004C41.6555 366.292 40.8715 367.16 39.6115 367.16Z" fill="black"/>
<rect x="108" y="349" width="32" height="32" rx="16" fill="#1192E8"/>
<path d="M125 364V356H123V364H115V366H123V374H125V366H133V364H125Z" fill="white"/>
<rect x="118" y="309" width="12" height="12" rx="6" fill="#1192E8"/>
<line x1="124" y1="351" x2="124" y2="320" stroke="#1192E8" stroke-width="2"/>
<path d="M97 289V288.5H96.5V289H97ZM212 289H212.5V288.5H212V289ZM212 394V394.5H212.5V394H212ZM97 394H96.5V394.5H97V394ZM96.5 289V291.386H97.5V289H96.5ZM96.5 296.159V300.932H97.5V296.159H96.5ZM96.5 305.705V310.477H97.5V305.705H96.5ZM96.5 315.25V320.023H97.5V315.25H96.5ZM96.5 324.795V329.568H97.5V324.795H96.5ZM96.5 334.341V339.114H97.5V334.341H96.5ZM96.5 343.886V348.659H97.5V343.886H96.5ZM96.5 353.432V358.205H97.5V353.432H96.5ZM96.5 362.977V367.75H97.5V362.977H96.5ZM96.5 372.523V377.295H97.5V372.523H96.5ZM96.5 382.068V386.841H97.5V382.068H96.5ZM96.5 391.614V394H97.5V391.614H96.5ZM97 394.5H99.3958V393.5H97V394.5ZM104.188 394.5H108.979V393.5H104.188V394.5ZM113.771 394.5H118.562V393.5H113.771V394.5ZM123.354 394.5H128.146V393.5H123.354V394.5ZM132.937 394.5H137.729V393.5H132.937V394.5ZM142.521 394.5H147.312V393.5H142.521V394.5ZM152.104 394.5H156.896V393.5H152.104V394.5ZM161.688 394.5H166.479V393.5H161.688V394.5ZM171.271 394.5H176.062V393.5H171.271V394.5ZM180.854 394.5H185.646V393.5H180.854V394.5ZM190.437 394.5H195.229V393.5H190.437V394.5ZM200.021 394.5H204.812V393.5H200.021V394.5ZM209.604 394.5H212V393.5H209.604V394.5ZM212.5 394V391.614H211.5V394H212.5ZM212.5 386.841V382.068H211.5V386.841H212.5ZM212.5 377.295V372.523H211.5V377.295H212.5ZM212.5 367.75V362.977H211.5V367.75H212.5ZM212.5 358.205V353.432H211.5V358.205H212.5ZM212.5 348.659V343.886H211.5V348.659H212.5ZM212.5 339.114V334.341H211.5V339.114H212.5ZM212.5 329.568V324.795H211.5V329.568H212.5ZM212.5 320.023V315.25H211.5V320.023H212.5ZM212.5 310.477V305.705H211.5V310.477H212.5ZM212.5 300.932V296.159H211.5V300.932H212.5ZM212.5 291.386V289H211.5V291.386H212.5ZM212 288.5H209.604V289.5H212V288.5ZM204.812 288.5H200.021V289.5H204.812V288.5ZM195.229 288.5H190.438V289.5H195.229V288.5ZM185.646 288.5H180.854V289.5H185.646V288.5ZM176.063 288.5H171.271V289.5H176.063V288.5ZM166.479 288.5H161.688V289.5H166.479V288.5ZM156.896 288.5H152.104V289.5H156.896V288.5ZM147.312 288.5H142.521V289.5H147.312V288.5ZM137.729 288.5H132.938V289.5H137.729V288.5ZM128.146 288.5H123.354V289.5H128.146V288.5ZM118.563 288.5H113.771V289.5H118.563V288.5ZM108.979 288.5H104.188V289.5H108.979V288.5ZM99.3959 288.5H97V289.5H99.3959V288.5ZM97 289V288H96V289H97ZM212 289H213V288H212V289ZM212 394V395H213V394H212ZM97 394H96V395H97V394ZM96 289V291.386H98V289H96ZM96 296.159V300.932H98V296.159H96ZM96 305.705V310.477H98V305.705H96ZM96 315.25V320.023H98V315.25H96ZM96 324.795V329.568H98V324.795H96ZM96 334.341V339.114H98V334.341H96ZM96 343.886V348.659H98V343.886H96ZM96 353.432V358.205H98V353.432H96ZM96 362.977V367.75H98V362.977H96ZM96 372.523V377.295H98V372.523H96ZM96 382.068V386.841H98V382.068H96ZM96 391.614V394H98V391.614H96ZM97 395H99.3958V393H97V395ZM104.188 395H108.979V393H104.188V395ZM113.771 395H118.562V393H113.771V395ZM123.354 395H128.146V393H123.354V395ZM132.937 395H137.729V393H132.937V395ZM142.521 395H147.312V393H142.521V395ZM152.104 395H156.896V393H152.104V395ZM161.688 395H166.479V393H161.688V395ZM171.271 395H176.062V393H171.271V395ZM180.854 395H185.646V393H180.854V395ZM190.437 395H195.229V393H190.437V395ZM200.021 395H204.812V393H200.021V395ZM209.604 395H212V393H209.604V395ZM213 394V391.614H211V394H213ZM213 386.841V382.068H211V386.841H213ZM213 377.295V372.523H211V377.295H213ZM213 367.75V362.977H211V367.75H213ZM213 358.205V353.432H211V358.205H213ZM213 348.659V343.886H211V348.659H213ZM213 339.114V334.341H211V339.114H213ZM213 329.568V324.795H211V329.568H213ZM213 320.023V315.25H211V320.023H213ZM213 310.477V305.705H211V310.477H213ZM213 300.932V296.159H211V300.932H213ZM213 291.386V289H211V291.386H213ZM212 288H209.604V290H212V288ZM204.812 288H200.021V290H204.812V288ZM195.229 288H190.438V290H195.229V288ZM185.646 288H180.854V290H185.646V288ZM176.063 288H171.271V290H176.063V288ZM166.479 288H161.688V290H166.479V288ZM156.896 288H152.104V290H156.896V288ZM147.312 288H142.521V290H147.312V288ZM137.729 288H132.938V290H137.729V288ZM128.146 288H123.354V290H128.146V288ZM118.563 288H113.771V290H118.563V288ZM108.979 288H104.188V290H108.979V288ZM99.3959 288H97V290H99.3959V288Z" fill="#8D8D8D"/>
<rect y="31" width="300" height="192" fill="white"/>
<rect opacity="0.4" y="151" width="300" height="40" fill="#F2F4F8"/>
<rect opacity="0.4" y="71" width="300" height="40" fill="#F2F4F8"/>
<rect x="0.5" y="31.5" width="299" height="191" stroke="#DDE1E6"/>
<line x1="59" y1="102.5" x2="259" y2="102.5" stroke="black"/>
<path d="M41.3307 106V105.02H40.5047V101.044C40.5047 99.518 39.4687 98.608 37.7327 98.608C36.4307 98.608 35.5627 99.252 35.1707 100.022L35.8427 100.652C36.2347 99.994 36.8087 99.574 37.6767 99.574C38.8247 99.574 39.3847 100.134 39.3847 101.156V101.87H37.9567C35.8567 101.87 34.8767 102.626 34.8767 103.984C34.8767 105.328 35.7727 106.168 37.2987 106.168C38.3067 106.168 39.0767 105.706 39.3847 104.824H39.4547C39.5387 105.496 39.8747 106 40.7007 106H41.3307ZM37.4807 105.216C36.6127 105.216 36.0527 104.81 36.0527 104.096V103.802C36.0527 103.102 36.6267 102.71 37.9007 102.71H39.3847V103.9C39.3847 104.642 38.5867 105.216 37.4807 105.216Z" fill="black"/>
<line x1="60" y1="152.5" x2="259" y2="152.5" stroke="black"/>
<path d="M36.6295 156H37.7495V154.824H37.8055C38.2395 155.72 38.9255 156.168 39.9195 156.168C41.7255 156.168 42.8595 154.698 42.8595 152.388C42.8595 150.078 41.7255 148.608 39.9195 148.608C38.9255 148.608 38.1835 149.042 37.8055 149.952H37.7495V145.64H36.6295V156ZM39.6115 155.16C38.5895 155.16 37.7495 154.628 37.7495 153.69V151.002C37.7495 150.204 38.5895 149.616 39.6115 149.616C40.8715 149.616 41.6555 150.484 41.6555 151.772V153.004C41.6555 154.292 40.8715 155.16 39.6115 155.16Z" fill="black"/>
<rect x="108" y="137" width="32" height="32" rx="16" fill="#1192E8"/>
<path d="M125 152V144H123V152H115V154H123V162H125V154H133V152H125Z" fill="white"/>
<rect x="118" y="97" width="12" height="12" rx="6" fill="#1192E8"/>
<line x1="124" y1="139" x2="124" y2="108" stroke="#1192E8" stroke-width="2"/>
<path d="M169 137H201V169H169V137Z" fill="#005D5D"/>
<path d="M179.412 160H181.14L184.434 154.726H184.47L187.764 160H189.582L185.442 153.556L189.474 147.436H187.746L184.524 152.44H184.488L181.338 147.436H179.52L183.516 153.61L179.412 160Z" fill="white"/>
<path d="M97 77V76.5H96.5V77H97ZM212 77H212.5V76.5H212V77ZM212 182V182.5H212.5V182H212ZM97 182H96.5V182.5H97V182ZM96.5 77V79.3864H97.5V77H96.5ZM96.5 84.1591V88.9318H97.5V84.1591H96.5ZM96.5 93.7045V98.4773H97.5V93.7045H96.5ZM96.5 103.25V108.023H97.5V103.25H96.5ZM96.5 112.795V117.568H97.5V112.795H96.5ZM96.5 122.341V127.114H97.5V122.341H96.5ZM96.5 131.886V136.659H97.5V131.886H96.5ZM96.5 141.432V146.205H97.5V141.432H96.5ZM96.5 150.977V155.75H97.5V150.977H96.5ZM96.5 160.523V165.295H97.5V160.523H96.5ZM96.5 170.068V174.841H97.5V170.068H96.5ZM96.5 179.614V182H97.5V179.614H96.5ZM97 182.5H99.3958V181.5H97V182.5ZM104.188 182.5H108.979V181.5H104.188V182.5ZM113.771 182.5H118.562V181.5H113.771V182.5ZM123.354 182.5H128.146V181.5H123.354V182.5ZM132.937 182.5H137.729V181.5H132.937V182.5ZM142.521 182.5H147.312V181.5H142.521V182.5ZM152.104 182.5H156.896V181.5H152.104V182.5ZM161.688 182.5H166.479V181.5H161.688V182.5ZM171.271 182.5H176.062V181.5H171.271V182.5ZM180.854 182.5H185.646V181.5H180.854V182.5ZM190.437 182.5H195.229V181.5H190.437V182.5ZM200.021 182.5H204.812V181.5H200.021V182.5ZM209.604 182.5H212V181.5H209.604V182.5ZM212.5 182V179.614H211.5V182H212.5ZM212.5 174.841V170.068H211.5V174.841H212.5ZM212.5 165.295V160.523H211.5V165.295H212.5ZM212.5 155.75V150.977H211.5V155.75H212.5ZM212.5 146.205V141.432H211.5V146.205H212.5ZM212.5 136.659V131.886H211.5V136.659H212.5ZM212.5 127.114V122.341H211.5V127.114H212.5ZM212.5 117.568V112.795H211.5V117.568H212.5ZM212.5 108.023V103.25H211.5V108.023H212.5ZM212.5 98.4773V93.7045H211.5V98.4773H212.5ZM212.5 88.9318V84.1591H211.5V88.9318H212.5ZM212.5 79.3864V77H211.5V79.3864H212.5ZM212 76.5H209.604V77.5H212V76.5ZM204.812 76.5H200.021V77.5H204.812V76.5ZM195.229 76.5H190.438V77.5H195.229V76.5ZM185.646 76.5H180.854V77.5H185.646V76.5ZM176.063 76.5H171.271V77.5H176.063V76.5ZM166.479 76.5H161.688V77.5H166.479V76.5ZM156.896 76.5H152.104V77.5H156.896V76.5ZM147.312 76.5H142.521V77.5H147.312V76.5ZM137.729 76.5H132.938V77.5H137.729V76.5ZM128.146 76.5H123.354V77.5H128.146V76.5ZM118.563 76.5H113.771V77.5H118.563V76.5ZM108.979 76.5H104.188V77.5H108.979V76.5ZM99.3959 76.5H97V77.5H99.3959V76.5ZM97 77V76H96V77H97ZM212 77H213V76H212V77ZM212 182V183H213V182H212ZM97 182H96V183H97V182ZM96 77V79.3864H98V77H96ZM96 84.1591V88.9318H98V84.1591H96ZM96 93.7045V98.4773H98V93.7045H96ZM96 103.25V108.023H98V103.25H96ZM96 112.795V117.568H98V112.795H96ZM96 122.341V127.114H98V122.341H96ZM96 131.886V136.659H98V131.886H96ZM96 141.432V146.205H98V141.432H96ZM96 150.977V155.75H98V150.977H96ZM96 160.523V165.295H98V160.523H96ZM96 170.068V174.841H98V170.068H96ZM96 179.614V182H98V179.614H96ZM97 183H99.3958V181H97V183ZM104.188 183H108.979V181H104.188V183ZM113.771 183H118.562V181H113.771V183ZM123.354 183H128.146V181H123.354V183ZM132.937 183H137.729V181H132.937V183ZM142.521 183H147.312V181H142.521V183ZM152.104 183H156.896V181H152.104V183ZM161.688 183H166.479V181H161.688V183ZM171.271 183H176.062V181H171.271V183ZM180.854 183H185.646V181H180.854V183ZM190.437 183H195.229V181H190.437V183ZM200.021 183H204.812V181H200.021V183ZM209.604 183H212V181H209.604V183ZM213 182V179.614H211V182H213ZM213 174.841V170.068H211V174.841H213ZM213 165.295V160.523H211V165.295H213ZM213 155.75V150.977H211V155.75H213ZM213 146.205V141.432H211V146.205H213ZM213 136.659V131.886H211V136.659H213ZM213 127.114V122.341H211V127.114H213ZM213 117.568V112.795H211V117.568H213ZM213 108.023V103.25H211V108.023H213ZM213 98.4773V93.7045H211V98.4773H213ZM213 88.9318V84.1591H211V88.9318H213ZM213 79.3864V77H211V79.3864H213ZM212 76H209.604V78H212V76ZM204.812 76H200.021V78H204.812V76ZM195.229 76H190.438V78H195.229V76ZM185.646 76H180.854V78H185.646V76ZM176.063 76H171.271V78H176.063V76ZM166.479 76H161.688V78H166.479V76ZM156.896 76H152.104V78H156.896V76ZM147.312 76H142.521V78H147.312V76ZM137.729 76H132.938V78H137.729V76ZM128.146 76H123.354V78H128.146V76ZM118.563 76H113.771V78H118.563V76ZM108.979 76H104.188V78H108.979V76ZM99.3959 76H97V78H99.3959V76Z" fill="#8D8D8D"/>
<rect x="325" y="31" width="300" height="192" fill="white"/>
<rect opacity="0.4" x="325" y="151" width="300" height="40" fill="#F2F4F8"/>
<rect opacity="0.4" x="325" y="71" width="300" height="40" fill="#F2F4F8"/>
<rect x="325.5" y="31.5" width="299" height="191" stroke="#DDE1E6"/>
<line x1="384" y1="102.5" x2="584" y2="102.5" stroke="black"/>
<path d="M366.331 106V105.02H365.505V101.044C365.505 99.518 364.469 98.608 362.733 98.608C361.431 98.608 360.563 99.252 360.171 100.022L360.843 100.652C361.235 99.994 361.809 99.574 362.677 99.574C363.825 99.574 364.385 100.134 364.385 101.156V101.87H362.957C360.857 101.87 359.877 102.626 359.877 103.984C359.877 105.328 360.773 106.168 362.299 106.168C363.307 106.168 364.077 105.706 364.385 104.824H364.455C364.539 105.496 364.875 106 365.701 106H366.331ZM362.481 105.216C361.613 105.216 361.053 104.81 361.053 104.096V103.802C361.053 103.102 361.627 102.71 362.901 102.71H364.385V103.9C364.385 104.642 363.587 105.216 362.481 105.216Z" fill="black"/>
<line x1="385" y1="152.5" x2="584" y2="152.5" stroke="black"/>
<path d="M361.629 156H362.749V154.824H362.805C363.239 155.72 363.925 156.168 364.919 156.168C366.725 156.168 367.859 154.698 367.859 152.388C367.859 150.078 366.725 148.608 364.919 148.608C363.925 148.608 363.183 149.042 362.805 149.952H362.749V145.64H361.629V156ZM364.611 155.16C363.589 155.16 362.749 154.628 362.749 153.69V151.002C362.749 150.204 363.589 149.616 364.611 149.616C365.871 149.616 366.655 150.484 366.655 151.772V153.004C366.655 154.292 365.871 155.16 364.611 155.16Z" fill="black"/>
<path d="M422 77V76.5H421.5V77H422ZM537 77H537.5V76.5H537V77ZM537 182V182.5H537.5V182H537ZM422 182H421.5V182.5H422V182ZM421.5 77V79.3864H422.5V77H421.5ZM421.5 84.1591V88.9318H422.5V84.1591H421.5ZM421.5 93.7045V98.4773H422.5V93.7045H421.5ZM421.5 103.25V108.023H422.5V103.25H421.5ZM421.5 112.795V117.568H422.5V112.795H421.5ZM421.5 122.341V127.114H422.5V122.341H421.5ZM421.5 131.886V136.659H422.5V131.886H421.5ZM421.5 141.432V146.205H422.5V141.432H421.5ZM421.5 150.977V155.75H422.5V150.977H421.5ZM421.5 160.523V165.295H422.5V160.523H421.5ZM421.5 170.068V174.841H422.5V170.068H421.5ZM421.5 179.614V182H422.5V179.614H421.5ZM422 182.5H424.396V181.5H422V182.5ZM429.188 182.5H433.979V181.5H429.188V182.5ZM438.771 182.5H443.562V181.5H438.771V182.5ZM448.354 182.5H453.146V181.5H448.354V182.5ZM457.937 182.5H462.729V181.5H457.937V182.5ZM467.521 182.5H472.312V181.5H467.521V182.5ZM477.104 182.5H481.896V181.5H477.104V182.5ZM486.688 182.5H491.479V181.5H486.688V182.5ZM496.271 182.5H501.062V181.5H496.271V182.5ZM505.854 182.5H510.646V181.5H505.854V182.5ZM515.437 182.5H520.229V181.5H515.437V182.5ZM525.021 182.5H529.812V181.5H525.021V182.5ZM534.604 182.5H537V181.5H534.604V182.5ZM537.5 182V179.614H536.5V182H537.5ZM537.5 174.841V170.068H536.5V174.841H537.5ZM537.5 165.295V160.523H536.5V165.295H537.5ZM537.5 155.75V150.977H536.5V155.75H537.5ZM537.5 146.205V141.432H536.5V146.205H537.5ZM537.5 136.659V131.886H536.5V136.659H537.5ZM537.5 127.114V122.341H536.5V127.114H537.5ZM537.5 117.568V112.795H536.5V117.568H537.5ZM537.5 108.023V103.25H536.5V108.023H537.5ZM537.5 98.4773V93.7045H536.5V98.4773H537.5ZM537.5 88.9318V84.1591H536.5V88.9318H537.5ZM537.5 79.3864V77H536.5V79.3864H537.5ZM537 76.5H534.604V77.5H537V76.5ZM529.812 76.5H525.021V77.5H529.812V76.5ZM520.229 76.5H515.438V77.5H520.229V76.5ZM510.646 76.5H505.854V77.5H510.646V76.5ZM501.063 76.5H496.271V77.5H501.063V76.5ZM491.479 76.5H486.688V77.5H491.479V76.5ZM481.896 76.5H477.104V77.5H481.896V76.5ZM472.312 76.5H467.521V77.5H472.312V76.5ZM462.729 76.5H457.938V77.5H462.729V76.5ZM453.146 76.5H448.354V77.5H453.146V76.5ZM443.563 76.5H438.771V77.5H443.563V76.5ZM433.979 76.5H429.188V77.5H433.979V76.5ZM424.396 76.5H422V77.5H424.396V76.5ZM422 77V76H421V77H422ZM537 77H538V76H537V77ZM537 182V183H538V182H537ZM422 182H421V183H422V182ZM421 77V79.3864H423V77H421ZM421 84.1591V88.9318H423V84.1591H421ZM421 93.7045V98.4773H423V93.7045H421ZM421 103.25V108.023H423V103.25H421ZM421 112.795V117.568H423V112.795H421ZM421 122.341V127.114H423V122.341H421ZM421 131.886V136.659H423V131.886H421ZM421 141.432V146.205H423V141.432H421ZM421 150.977V155.75H423V150.977H421ZM421 160.523V165.295H423V160.523H421ZM421 170.068V174.841H423V170.068H421ZM421 179.614V182H423V179.614H421ZM422 183H424.396V181H422V183ZM429.188 183H433.979V181H429.188V183ZM438.771 183H443.562V181H438.771V183ZM448.354 183H453.146V181H448.354V183ZM457.937 183H462.729V181H457.937V183ZM467.521 183H472.312V181H467.521V183ZM477.104 183H481.896V181H477.104V183ZM486.688 183H491.479V181H486.688V183ZM496.271 183H501.062V181H496.271V183ZM505.854 183H510.646V181H505.854V183ZM515.437 183H520.229V181H515.437V183ZM525.021 183H529.812V181H525.021V183ZM534.604 183H537V181H534.604V183ZM538 182V179.614H536V182H538ZM538 174.841V170.068H536V174.841H538ZM538 165.295V160.523H536V165.295H538ZM538 155.75V150.977H536V155.75H538ZM538 146.205V141.432H536V146.205H538ZM538 136.659V131.886H536V136.659H538ZM538 127.114V122.341H536V127.114H538ZM538 117.568V112.795H536V117.568H538ZM538 108.023V103.25H536V108.023H538ZM538 98.4773V93.7045H536V98.4773H538ZM538 88.9318V84.1591H536V88.9318H538ZM538 79.3864V77H536V79.3864H538ZM537 76H534.604V78H537V76ZM529.812 76H525.021V78H529.812V76ZM520.229 76H515.438V78H520.229V76ZM510.646 76H505.854V78H510.646V76ZM501.063 76H496.271V78H501.063V76ZM491.479 76H486.688V78H491.479V76ZM481.896 76H477.104V78H481.896V76ZM472.312 76H467.521V78H472.312V76ZM462.729 76H457.938V78H462.729V76ZM453.146 76H448.354V78H453.146V76ZM443.563 76H438.771V78H443.563V76ZM433.979 76H429.188V78H433.979V76ZM424.396 76H422V78H424.396V76Z" fill="#8D8D8D"/>
<rect x="325" y="246" width="300" height="192" fill="white"/>
<rect opacity="0.4" x="325" y="366" width="300" height="40" fill="#F2F4F8"/>
<rect opacity="0.4" x="325" y="286" width="300" height="40" fill="#F2F4F8"/>
<rect x="325.5" y="246.5" width="299" height="191" stroke="#DDE1E6"/>
<line x1="384" y1="317.5" x2="584" y2="317.5" stroke="black"/>
<path d="M366.331 321V320.02H365.505V316.044C365.505 314.518 364.469 313.608 362.733 313.608C361.431 313.608 360.563 314.252 360.171 315.022L360.843 315.652C361.235 314.994 361.809 314.574 362.677 314.574C363.825 314.574 364.385 315.134 364.385 316.156V316.87H362.957C360.857 316.87 359.877 317.626 359.877 318.984C359.877 320.328 360.773 321.168 362.299 321.168C363.307 321.168 364.077 320.706 364.385 319.824H364.455C364.539 320.496 364.875 321 365.701 321H366.331ZM362.481 320.216C361.613 320.216 361.053 319.81 361.053 319.096V318.802C361.053 318.102 361.627 317.71 362.901 317.71H364.385V318.9C364.385 319.642 363.587 320.216 362.481 320.216Z" fill="black"/>
<line x1="385" y1="367.5" x2="584" y2="367.5" stroke="black"/>
<path d="M361.629 371H362.749V369.824H362.805C363.239 370.72 363.925 371.168 364.919 371.168C366.725 371.168 367.859 369.698 367.859 367.388C367.859 365.078 366.725 363.608 364.919 363.608C363.925 363.608 363.183 364.042 362.805 364.952H362.749V360.64H361.629V371ZM364.611 370.16C363.589 370.16 362.749 369.628 362.749 368.69V366.002C362.749 365.204 363.589 364.616 364.611 364.616C365.871 364.616 366.655 365.484 366.655 366.772V368.004C366.655 369.292 365.871 370.16 364.611 370.16Z" fill="black"/>
<path d="M494 352H526V384H494V352Z" fill="#005D5D"/>
<path d="M504.412 375H506.14L509.434 369.726H509.47L512.764 375H514.582L510.442 368.556L514.474 362.436H512.746L509.524 367.44H509.488L506.338 362.436H504.52L508.516 368.61L504.412 375Z" fill="white"/>
<path d="M422 292V291.5H421.5V292H422ZM537 292H537.5V291.5H537V292ZM537 397V397.5H537.5V397H537ZM422 397H421.5V397.5H422V397ZM421.5 292V294.386H422.5V292H421.5ZM421.5 299.159V303.932H422.5V299.159H421.5ZM421.5 308.705V313.477H422.5V308.705H421.5ZM421.5 318.25V323.023H422.5V318.25H421.5ZM421.5 327.795V332.568H422.5V327.795H421.5ZM421.5 337.341V342.114H422.5V337.341H421.5ZM421.5 346.886V351.659H422.5V346.886H421.5ZM421.5 356.432V361.205H422.5V356.432H421.5ZM421.5 365.977V370.75H422.5V365.977H421.5ZM421.5 375.523V380.295H422.5V375.523H421.5ZM421.5 385.068V389.841H422.5V385.068H421.5ZM421.5 394.614V397H422.5V394.614H421.5ZM422 397.5H424.396V396.5H422V397.5ZM429.188 397.5H433.979V396.5H429.188V397.5ZM438.771 397.5H443.562V396.5H438.771V397.5ZM448.354 397.5H453.146V396.5H448.354V397.5ZM457.937 397.5H462.729V396.5H457.937V397.5ZM467.521 397.5H472.312V396.5H467.521V397.5ZM477.104 397.5H481.896V396.5H477.104V397.5ZM486.688 397.5H491.479V396.5H486.688V397.5ZM496.271 397.5H501.062V396.5H496.271V397.5ZM505.854 397.5H510.646V396.5H505.854V397.5ZM515.437 397.5H520.229V396.5H515.437V397.5ZM525.021 397.5H529.812V396.5H525.021V397.5ZM534.604 397.5H537V396.5H534.604V397.5ZM537.5 397V394.614H536.5V397H537.5ZM537.5 389.841V385.068H536.5V389.841H537.5ZM537.5 380.295V375.523H536.5V380.295H537.5ZM537.5 370.75V365.977H536.5V370.75H537.5ZM537.5 361.205V356.432H536.5V361.205H537.5ZM537.5 351.659V346.886H536.5V351.659H537.5ZM537.5 342.114V337.341H536.5V342.114H537.5ZM537.5 332.568V327.795H536.5V332.568H537.5ZM537.5 323.023V318.25H536.5V323.023H537.5ZM537.5 313.477V308.705H536.5V313.477H537.5ZM537.5 303.932V299.159H536.5V303.932H537.5ZM537.5 294.386V292H536.5V294.386H537.5ZM537 291.5H534.604V292.5H537V291.5ZM529.812 291.5H525.021V292.5H529.812V291.5ZM520.229 291.5H515.438V292.5H520.229V291.5ZM510.646 291.5H505.854V292.5H510.646V291.5ZM501.063 291.5H496.271V292.5H501.063V291.5ZM491.479 291.5H486.688V292.5H491.479V291.5ZM481.896 291.5H477.104V292.5H481.896V291.5ZM472.312 291.5H467.521V292.5H472.312V291.5ZM462.729 291.5H457.938V292.5H462.729V291.5ZM453.146 291.5H448.354V292.5H453.146V291.5ZM443.563 291.5H438.771V292.5H443.563V291.5ZM433.979 291.5H429.188V292.5H433.979V291.5ZM424.396 291.5H422V292.5H424.396V291.5ZM422 292V291H421V292H422ZM537 292H538V291H537V292ZM537 397V398H538V397H537ZM422 397H421V398H422V397ZM421 292V294.386H423V292H421ZM421 299.159V303.932H423V299.159H421ZM421 308.705V313.477H423V308.705H421ZM421 318.25V323.023H423V318.25H421ZM421 327.795V332.568H423V327.795H421ZM421 337.341V342.114H423V337.341H421ZM421 346.886V351.659H423V346.886H421ZM421 356.432V361.205H423V356.432H421ZM421 365.977V370.75H423V365.977H421ZM421 375.523V380.295H423V375.523H421ZM421 385.068V389.841H423V385.068H421ZM421 394.614V397H423V394.614H421ZM422 398H424.396V396H422V398ZM429.188 398H433.979V396H429.188V398ZM438.771 398H443.562V396H438.771V398ZM448.354 398H453.146V396H448.354V398ZM457.937 398H462.729V396H457.937V398ZM467.521 398H472.312V396H467.521V398ZM477.104 398H481.896V396H477.104V398ZM486.688 398H491.479V396H486.688V398ZM496.271 398H501.062V396H496.271V398ZM505.854 398H510.646V396H505.854V398ZM515.437 398H520.229V396H515.437V398ZM525.021 398H529.812V396H525.021V398ZM534.604 398H537V396H534.604V398ZM538 397V394.614H536V397H538ZM538 389.841V385.068H536V389.841H538ZM538 380.295V375.523H536V380.295H538ZM538 370.75V365.977H536V370.75H538ZM538 361.205V356.432H536V361.205H538ZM538 351.659V346.886H536V351.659H538ZM538 342.114V337.341H536V342.114H538ZM538 332.568V327.795H536V332.568H538ZM538 323.023V318.25H536V323.023H538ZM538 313.477V308.705H536V313.477H538ZM538 303.932V299.159H536V303.932H538ZM538 294.386V292H536V294.386H538ZM537 291H534.604V293H537V291ZM529.812 291H525.021V293H529.812V291ZM520.229 291H515.438V293H520.229V291ZM510.646 291H505.854V293H510.646V291ZM501.063 291H496.271V293H501.063V291ZM491.479 291H486.688V293H491.479V291ZM481.896 291H477.104V293H481.896V291ZM472.312 291H467.521V293H472.312V291ZM462.729 291H457.938V293H462.729V291ZM453.146 291H448.354V293H453.146V291ZM443.563 291H438.771V293H443.563V291ZM433.979 291H429.188V293H433.979V291ZM424.396 291H422V293H424.396V291Z" fill="#8D8D8D"/>
<path d="M1.73357 16H7.43957C9.29357 16 10.6796 14.434 10.6796 12.364C10.6796 10.276 9.11357 9.502 8.21357 9.448V9.34C9.04157 9.214 10.2476 8.548 10.2476 6.676C10.2476 4.714 8.96957 3.436 6.89957 3.436H1.73357V16ZM3.24557 10.168H6.97157C8.26757 10.168 9.05957 10.852 9.05957 12.112V12.724C9.05957 13.984 8.26757 14.668 6.97157 14.668H3.24557V10.168ZM3.24557 4.768H6.71957C7.90757 4.768 8.62757 5.398 8.62757 6.514V7.126C8.62757 8.242 7.90757 8.872 6.71957 8.872H3.24557V4.768ZM20.9093 16V14.74H19.8473V9.628C19.8473 7.666 18.5153 6.496 16.2833 6.496C14.6093 6.496 13.4933 7.324 12.9893 8.314L13.8533 9.124C14.3573 8.278 15.0953 7.738 16.2113 7.738C17.6873 7.738 18.4073 8.458 18.4073 9.772V10.69H16.5713C13.8713 10.69 12.6113 11.662 12.6113 13.408C12.6113 15.136 13.7633 16.216 15.7253 16.216C17.0213 16.216 18.0113 15.622 18.4073 14.488H18.4973C18.6053 15.352 19.0373 16 20.0993 16H20.9093ZM15.9593 14.992C14.8433 14.992 14.1233 14.47 14.1233 13.552V13.174C14.1233 12.274 14.8613 11.77 16.4993 11.77H18.4073V13.3C18.4073 14.254 17.3813 14.992 15.9593 14.992ZM25.7726 16V14.74H24.4046V2.68H22.9646V14.506C22.9646 15.37 23.5046 16 24.4946 16H25.7726ZM35.4289 16V14.74H34.3669V9.628C34.3669 7.666 33.0349 6.496 30.8029 6.496C29.1289 6.496 28.0129 7.324 27.5089 8.314L28.3729 9.124C28.8769 8.278 29.6149 7.738 30.7309 7.738C32.2069 7.738 32.9269 8.458 32.9269 9.772V10.69H31.0909C28.3909 10.69 27.1309 11.662 27.1309 13.408C27.1309 15.136 28.2829 16.216 30.2449 16.216C31.5409 16.216 32.5309 15.622 32.9269 14.488H33.0169C33.1249 15.352 33.5569 16 34.6189 16H35.4289ZM30.4789 14.992C29.3629 14.992 28.6429 14.47 28.6429 13.552V13.174C28.6429 12.274 29.3809 11.77 31.0189 11.77H32.9269V13.3C32.9269 14.254 31.9009 14.992 30.4789 14.992ZM38.9241 16V9.556C38.9241 8.368 40.0401 7.792 41.1921 7.792C42.5781 7.792 43.2981 8.638 43.2981 10.294V16H44.7381V10.042C44.7381 7.792 43.5321 6.496 41.6241 6.496C40.2381 6.496 39.4461 7.18 38.9961 8.224H38.9241V6.712H37.4841V16H38.9241ZM51.1706 16.216C52.9346 16.216 54.1406 15.352 54.7346 14.02L53.6906 13.318C53.1866 14.38 52.3406 14.938 51.1706 14.938C49.4606 14.938 48.5786 13.768 48.5786 12.148V10.564C48.5786 8.944 49.4606 7.774 51.1706 7.774C52.3046 7.774 53.0966 8.332 53.4386 9.286L54.6446 8.674C54.1046 7.396 53.0066 6.496 51.1706 6.496C48.5606 6.496 47.0306 8.386 47.0306 11.356C47.0306 14.326 48.5606 16.216 51.1706 16.216ZM60.1538 16.216C61.8998 16.216 63.2318 15.352 63.8258 14.092L62.7998 13.354C62.3138 14.38 61.4138 14.956 60.2438 14.956C58.5158 14.956 57.4898 13.75 57.4898 12.148V11.716H64.1678V11.032C64.1678 8.404 62.6378 6.496 60.1538 6.496C57.6338 6.496 55.9778 8.404 55.9778 11.356C55.9778 14.308 57.6338 16.216 60.1538 16.216ZM60.1538 7.702C61.6298 7.702 62.6198 8.8 62.6198 10.438V10.636H57.4898V10.51C57.4898 8.89 58.5878 7.702 60.1538 7.702ZM72.4807 16H73.9207V2.68H72.4807V8.224H72.4087C71.9227 7.054 70.9687 6.496 69.6907 6.496C67.3687 6.496 65.9107 8.386 65.9107 11.356C65.9107 14.326 67.3687 16.216 69.6907 16.216C70.9687 16.216 71.8507 15.64 72.4087 14.488H72.4807V16ZM70.0867 14.92C68.4667 14.92 67.4587 13.804 67.4587 12.148V10.564C67.4587 8.908 68.4667 7.792 70.0867 7.792C71.4007 7.792 72.4807 8.548 72.4807 9.574V13.03C72.4807 14.236 71.4007 14.92 70.0867 14.92ZM81.7401 16H83.1801V7.972H85.1781V6.712H83.1801V3.94H85.1781V2.68H83.7741C82.4061 2.68 81.7401 3.562 81.7401 4.84V6.712H80.2281V7.972H81.7401V16ZM92.796 16H94.236V6.712H92.796V13.138C92.796 14.362 91.68 14.92 90.546 14.92C89.16 14.92 88.422 14.074 88.422 12.418V6.712H86.982V12.67C86.982 14.92 88.206 16.216 90.114 16.216C91.662 16.216 92.364 15.37 92.724 14.488H92.796V16ZM98.7425 16V9.556C98.7425 8.368 99.8585 7.792 101.01 7.792C102.396 7.792 103.116 8.638 103.116 10.294V16H104.556V10.042C104.556 7.792 103.35 6.496 101.442 6.496C100.056 6.496 99.2645 7.18 98.8145 8.224H98.7425V6.712H97.3025V16H98.7425ZM110.989 16.216C112.753 16.216 113.959 15.352 114.553 14.02L113.509 13.318C113.005 14.38 112.159 14.938 110.989 14.938C109.279 14.938 108.397 13.768 108.397 12.148V10.564C108.397 8.944 109.279 7.774 110.989 7.774C112.123 7.774 112.915 8.332 113.257 9.286L114.463 8.674C113.923 7.396 112.825 6.496 110.989 6.496C108.379 6.496 106.849 8.386 106.849 11.356C106.849 14.326 108.379 16.216 110.989 16.216ZM120.438 16V14.74H118.548V7.972H120.582V6.712H118.548V4.138H117.252V5.866C117.252 6.496 117.054 6.712 116.442 6.712H115.578V7.972H117.108V14.47C117.108 15.37 117.648 16 118.638 16H120.438ZM123.616 4.534C124.228 4.534 124.498 4.21 124.498 3.724V3.49C124.498 3.004 124.228 2.68 123.616 2.68C123.004 2.68 122.734 3.004 122.734 3.49V3.724C122.734 4.21 123.004 4.534 123.616 4.534ZM122.896 16H124.336V6.712H122.896V16ZM130.906 16.216C133.39 16.216 135.1 14.308 135.1 11.356C135.1 8.404 133.39 6.496 130.906 6.496C128.422 6.496 126.712 8.404 126.712 11.356C126.712 14.308 128.422 16.216 130.906 16.216ZM130.906 14.938C129.358 14.938 128.26 13.984 128.26 12.022V10.69C128.26 8.728 129.358 7.774 130.906 7.774C132.454 7.774 133.552 8.728 133.552 10.69V12.022C133.552 13.984 132.454 14.938 130.906 14.938ZM138.908 16V9.556C138.908 8.368 140.024 7.792 141.176 7.792C142.562 7.792 143.282 8.638 143.282 10.294V16H144.722V10.042C144.722 7.792 143.516 6.496 141.608 6.496C140.222 6.496 139.43 7.18 138.98 8.224H138.908V6.712H137.468V16H138.908ZM150.489 16.216C152.613 16.216 153.927 15.118 153.927 13.318C153.927 11.914 153.135 11.014 151.083 10.708L150.363 10.6C149.211 10.42 148.581 10.06 148.581 9.16C148.581 8.278 149.211 7.72 150.399 7.72C151.587 7.72 152.379 8.278 152.793 8.854L153.747 7.99C152.991 7.054 152.001 6.496 150.507 6.496C148.617 6.496 147.195 7.396 147.195 9.232C147.195 10.96 148.473 11.662 150.183 11.914L150.921 12.022C152.145 12.202 152.541 12.76 152.541 13.48C152.541 14.434 151.821 14.992 150.597 14.992C149.427 14.992 148.563 14.47 147.843 13.57L146.817 14.398C147.645 15.496 148.779 16.216 150.489 16.216Z" fill="black"/>
<path d="M331.559 16.216C333.647 16.216 335.177 15.118 335.969 13.354L334.763 12.598C334.259 13.966 333.161 14.866 331.559 14.866C329.399 14.866 328.121 13.3 328.121 10.726V8.854C328.121 6.28 329.399 4.57 331.559 4.57C333.107 4.57 334.151 5.416 334.655 6.712L335.879 5.974C335.087 4.228 333.647 3.22 331.559 3.22C328.391 3.22 326.501 5.596 326.501 9.79C326.501 13.984 328.391 16.216 331.559 16.216ZM341.677 16.216C344.161 16.216 345.871 14.308 345.871 11.356C345.871 8.404 344.161 6.496 341.677 6.496C339.193 6.496 337.483 8.404 337.483 11.356C337.483 14.308 339.193 16.216 341.677 16.216ZM341.677 14.938C340.129 14.938 339.031 13.984 339.031 12.022V10.69C339.031 8.728 340.129 7.774 341.677 7.774C343.225 7.774 344.323 8.728 344.323 10.69V12.022C344.323 13.984 343.225 14.938 341.677 14.938ZM349.679 16V9.556C349.679 8.368 350.795 7.792 351.947 7.792C353.333 7.792 354.053 8.638 354.053 10.294V16H355.493V10.042C355.493 7.792 354.287 6.496 352.379 6.496C350.993 6.496 350.201 7.18 349.751 8.224H349.679V6.712H348.239V16H349.679ZM361.259 16.216C363.383 16.216 364.697 15.118 364.697 13.318C364.697 11.914 363.905 11.014 361.853 10.708L361.133 10.6C359.981 10.42 359.351 10.06 359.351 9.16C359.351 8.278 359.981 7.72 361.169 7.72C362.357 7.72 363.149 8.278 363.563 8.854L364.517 7.99C363.761 7.054 362.771 6.496 361.277 6.496C359.387 6.496 357.965 7.396 357.965 9.232C357.965 10.96 359.243 11.662 360.953 11.914L361.691 12.022C362.915 12.202 363.311 12.76 363.311 13.48C363.311 14.434 362.591 14.992 361.367 14.992C360.197 14.992 359.333 14.47 358.613 13.57L357.587 14.398C358.415 15.496 359.549 16.216 361.259 16.216ZM370.97 16V14.74H369.08V7.972H371.114V6.712H369.08V4.138H367.784V5.866C367.784 6.496 367.586 6.712 366.974 6.712H366.11V7.972H367.64V14.47C367.64 15.37 368.18 16 369.17 16H370.97ZM380.988 16V14.74H379.926V9.628C379.926 7.666 378.594 6.496 376.362 6.496C374.688 6.496 373.572 7.324 373.068 8.314L373.932 9.124C374.436 8.278 375.174 7.738 376.29 7.738C377.766 7.738 378.486 8.458 378.486 9.772V10.69H376.65C373.95 10.69 372.69 11.662 372.69 13.408C372.69 15.136 373.842 16.216 375.804 16.216C377.1 16.216 378.09 15.622 378.486 14.488H378.576C378.684 15.352 379.116 16 380.178 16H380.988ZM376.038 14.992C374.922 14.992 374.202 14.47 374.202 13.552V13.174C374.202 12.274 374.94 11.77 376.578 11.77H378.486V13.3C378.486 14.254 377.46 14.992 376.038 14.992ZM384.484 16V9.556C384.484 8.368 385.6 7.792 386.752 7.792C388.138 7.792 388.858 8.638 388.858 10.294V16H390.298V10.042C390.298 7.792 389.092 6.496 387.184 6.496C385.798 6.496 385.006 7.18 384.556 8.224H384.484V6.712H383.044V16H384.484ZM397.126 16V14.74H395.236V7.972H397.27V6.712H395.236V4.138H393.94V5.866C393.94 6.496 393.742 6.712 393.13 6.712H392.266V7.972H393.796V14.47C393.796 15.37 394.336 16 395.326 16H397.126ZM404.343 16H405.783V7.972H407.781V6.712H405.783V3.94H407.781V2.68H406.377C405.009 2.68 404.343 3.562 404.343 4.84V6.712H402.831V7.972H404.343V16ZM415.399 16H416.839V6.712H415.399V13.138C415.399 14.362 414.283 14.92 413.149 14.92C411.763 14.92 411.025 14.074 411.025 12.418V6.712H409.585V12.67C409.585 14.92 410.809 16.216 412.717 16.216C414.265 16.216 414.967 15.37 415.327 14.488H415.399V16ZM421.345 16V9.556C421.345 8.368 422.461 7.792 423.613 7.792C424.999 7.792 425.719 8.638 425.719 10.294V16H427.159V10.042C427.159 7.792 425.953 6.496 424.045 6.496C422.659 6.496 421.867 7.18 421.417 8.224H421.345V6.712H419.905V16H421.345ZM433.591 16.216C435.355 16.216 436.561 15.352 437.155 14.02L436.111 13.318C435.607 14.38 434.761 14.938 433.591 14.938C431.881 14.938 430.999 13.768 430.999 12.148V10.564C430.999 8.944 431.881 7.774 433.591 7.774C434.725 7.774 435.517 8.332 435.859 9.286L437.065 8.674C436.525 7.396 435.427 6.496 433.591 6.496C430.981 6.496 429.451 8.386 429.451 11.356C429.451 14.326 430.981 16.216 433.591 16.216ZM443.04 16V14.74H441.15V7.972H443.184V6.712H441.15V4.138H439.854V5.866C439.854 6.496 439.656 6.712 439.044 6.712H438.18V7.972H439.71V14.47C439.71 15.37 440.25 16 441.24 16H443.04ZM446.219 4.534C446.831 4.534 447.101 4.21 447.101 3.724V3.49C447.101 3.004 446.831 2.68 446.219 2.68C445.607 2.68 445.337 3.004 445.337 3.49V3.724C445.337 4.21 445.607 4.534 446.219 4.534ZM445.499 16H446.939V6.712H445.499V16ZM453.509 16.216C455.993 16.216 457.703 14.308 457.703 11.356C457.703 8.404 455.993 6.496 453.509 6.496C451.025 6.496 449.315 8.404 449.315 11.356C449.315 14.308 451.025 16.216 453.509 16.216ZM453.509 14.938C451.961 14.938 450.863 13.984 450.863 12.022V10.69C450.863 8.728 451.961 7.774 453.509 7.774C455.057 7.774 456.155 8.728 456.155 10.69V12.022C456.155 13.984 455.057 14.938 453.509 14.938ZM461.511 16V9.556C461.511 8.368 462.627 7.792 463.779 7.792C465.165 7.792 465.885 8.638 465.885 10.294V16H467.325V10.042C467.325 7.792 466.119 6.496 464.211 6.496C462.825 6.496 462.033 7.18 461.583 8.224H461.511V6.712H460.071V16H461.511ZM473.091 16.216C475.215 16.216 476.529 15.118 476.529 13.318C476.529 11.914 475.737 11.014 473.685 10.708L472.965 10.6C471.813 10.42 471.183 10.06 471.183 9.16C471.183 8.278 471.813 7.72 473.001 7.72C474.189 7.72 474.981 8.278 475.395 8.854L476.349 7.99C475.593 7.054 474.603 6.496 473.109 6.496C471.219 6.496 469.797 7.396 469.797 9.232C469.797 10.96 471.075 11.662 472.785 11.914L473.523 12.022C474.747 12.202 475.143 12.76 475.143 13.48C475.143 14.434 474.423 14.992 473.199 14.992C472.029 14.992 471.165 14.47 470.445 13.57L469.419 14.398C470.247 15.496 471.381 16.216 473.091 16.216Z" fill="black"/>
</svg>
