<svg xmlns="http://www.w3.org/2000/svg" width="502" height="292" fill="none" viewBox="0 0 502 292"><rect width="377" height="245" y="24" fill="#fff"/><rect width="377" height="245" y="24" fill="#fff"/><rect width="377" height="245" y="24" fill="#fff"/><rect width="377" height="245" y="24" fill="#fff"/><rect width="125" height="292" x="1" fill="#F2F4F8" opacity=".4"/><rect width="125" height="292" x="252" fill="#F2F4F8" opacity=".4"/><rect width="501" height="291" x=".5" y=".5" stroke="#DDE1E6"/><circle cx="168" cy="63" r="20" fill="#DDE1E6"/><circle cx="168" cy="63" r="16.5" fill="#BE95FF" stroke="#491D8B"/><circle cx="419" cy="63" r="20" fill="#DDE1E6"/><circle cx="419" cy="63" r="7.5" fill="#BE95FF" stroke="#491D8B"/><circle cx="419" cy="187" r="20" fill="#DDE1E6"/><circle cx="419" cy="187" r="7.5" fill="#BE95FF" stroke="#491D8B"/><circle cx="168" cy="186" r="20" fill="#DDE1E6"/><circle cx="168" cy="186" r="16.5" fill="#BE95FF" stroke="#491D8B"/><circle cx="419" cy="125" r="20" fill="#DDE1E6"/><circle cx="419" cy="125" r="7.5" fill="#BE95FF" stroke="#491D8B"/><circle cx="419" cy="249" r="20" fill="#DDE1E6"/><circle cx="419" cy="249" r="7.5" fill="#BE95FF" stroke="#491D8B"/><line x1="126.5" x2="126.5" y2="292" stroke="#DDE1E6"/><line x1="252.5" x2="252.5" y2="292" stroke="#DDE1E6"/><line x1="377.5" x2="377.5" y2="292" stroke="#DDE1E6"/><circle cx="36" cy="63" r="19.5" fill="#BE95FF" stroke="#491D8B"/><path stroke="#343A3F" d="M114.254 186.5H105.754H101.99C99.2323 186.5 96.9954 184.268 96.9897 181.51L96.7566 68.4897C96.7509 65.7323 94.514 63.5 91.7566 63.5H88.5H80"/><path stroke="#343A3F" d="M359 126.5H350.5H346.54C343.763 126.5 341.518 124.237 341.54 121.46L341.96 68.5397C341.982 65.7628 339.737 63.5 336.96 63.5H333.5H325"/><path fill="#491D8B" d="M51 65L55 63.5L51 62V65Z"/><line x1="51" x2="36" y1="63.5" y2="63.5" stroke="#491D8B"/><path fill="#491D8B" d="M181 65L185 63.5L181 62V65Z"/><line x1="181" x2="169" y1="63.5" y2="63.5" stroke="#491D8B"/><path fill="#491D8B" d="M422.633 65L426.633 63.5L422.633 62V65Z"/><line x1="422.633" x2="418.633" y1="63.5" y2="63.5" stroke="#491D8B"/><path fill="#491D8B" d="M422.708 127L426.708 125.5L422.708 124V127Z"/><line x1="422.708" x2="418.708" y1="125.5" y2="125.5" stroke="#491D8B"/><path fill="#491D8B" d="M423.006 189L427.006 187.5L423.006 186V189Z"/><line x1="423.006" x2="419.006" y1="187.5" y2="187.5" stroke="#491D8B"/><path fill="#491D8B" d="M416 248L412 249.5L416 251V248Z"/><line x1="416" x2="419" y1="249.5" y2="249.5" stroke="#491D8B"/><path fill="#491D8B" d="M180 188L184 186.5L180 185V188Z"/><line x1="180" x2="168" y1="186.5" y2="186.5" stroke="#491D8B"/><circle cx="291" cy="63" r="20" fill="#DDE1E6"/><circle cx="291" cy="63" r="16.5" fill="#BE95FF" stroke="#491D8B"/><circle cx="291" cy="186" r="20" fill="#DDE1E6"/><circle cx="291" cy="186" r="16.5" fill="#BE95FF" stroke="#491D8B"/><path fill="#491D8B" d="M304 65L308 63.5L304 62V65Z"/><line x1="304" x2="292" y1="63.5" y2="63.5" stroke="#491D8B"/><path fill="#491D8B" d="M303 188L307 186.5L303 185V188Z"/><line x1="303" x2="291" y1="186.5" y2="186.5" stroke="#491D8B"/><path fill="#343A3F" d="M139 65L143 63.5L139 62V65Z"/><line x1="139" x2="70" y1="63.5" y2="63.5" stroke="#343A3F"/><path fill="#343A3F" d="M261 65L265 63.5L261 62V65Z"/><line x1="261" x2="192" y1="63.5" y2="63.5" stroke="#343A3F"/><path fill="#343A3F" d="M262 188L266 186.5L262 185V188Z"/><line x1="262" x2="193" y1="186.5" y2="186.5" stroke="#343A3F"/><path fill="#343A3F" d="M386 65L390 63.5L386 62V65Z"/><line x1="386" x2="325" y1="63.5" y2="63.5" stroke="#343A3F"/><path fill="#343A3F" d="M386 128L390 126.5L386 125V128Z"/><line x1="386" x2="347" y1="126.5" y2="126.5" stroke="#343A3F"/><path stroke="#343A3F" d="M359 249.5H350.5H346.54C343.763 249.5 341.518 247.237 341.54 244.46L341.96 191.54C341.982 188.763 339.737 186.5 336.96 186.5H333.5H325"/><path fill="#343A3F" d="M386 188L390 186.5L386 185V188Z"/><line x1="386" x2="325" y1="186.5" y2="186.5" stroke="#343A3F"/><path fill="#343A3F" d="M386 251L390 249.5L386 248V251Z"/><line x1="386" x2="347" y1="249.5" y2="249.5" stroke="#343A3F"/><path fill="#343A3F" d="M140 188L144 186.5L140 185V188Z"/><line x1="140" x2="109" y1="186.5" y2="186.5" stroke="#343A3F"/><path fill="#21272A" d="M25.18 97.656V86.88H26.02V97.656H25.18ZM33.1153 96.144C32.6033 96.144 32.1633 96.048 31.7953 95.856C31.4273 95.656 31.1233 95.372 30.8833 95.004C30.6433 94.636 30.4673 94.184 30.3553 93.648C30.2433 93.112 30.1873 92.5 30.1873 91.812C30.1873 91.132 30.2433 90.524 30.3553 89.988C30.4673 89.444 30.6433 88.988 30.8833 88.62C31.1233 88.252 31.4273 87.972 31.7953 87.78C32.1633 87.58 32.6033 87.48 33.1153 87.48C33.6273 87.48 34.0673 87.58 34.4353 87.78C34.8033 87.972 35.1073 88.252 35.3473 88.62C35.5873 88.988 35.7633 89.444 35.8753 89.988C35.9873 90.524 36.0433 91.132 36.0433 91.812C36.0433 92.5 35.9873 93.112 35.8753 93.648C35.7633 94.184 35.5873 94.636 35.3473 95.004C35.1073 95.372 34.8033 95.656 34.4353 95.856C34.0673 96.048 33.6273 96.144 33.1153 96.144ZM33.1153 95.268C33.4513 95.268 33.7393 95.204 33.9793 95.076C34.2193 94.94 34.4113 94.752 34.5553 94.512C34.7073 94.272 34.8193 93.984 34.8913 93.648C34.9633 93.304 34.9993 92.92 34.9993 92.496V91.128C34.9993 90.712 34.9633 90.332 34.8913 89.988C34.8193 89.644 34.7073 89.352 34.5553 89.112C34.4113 88.872 34.2193 88.688 33.9793 88.56C33.7393 88.424 33.4513 88.356 33.1153 88.356C32.7793 88.356 32.4913 88.424 32.2513 88.56C32.0113 88.688 31.8153 88.872 31.6633 89.112C31.5193 89.352 31.4113 89.644 31.3393 89.988C31.2673 90.332 31.2313 90.712 31.2313 91.128V92.496C31.2313 92.92 31.2673 93.304 31.3393 93.648C31.4113 93.984 31.5193 94.272 31.6633 94.512C31.8153 94.752 32.0113 94.94 32.2513 95.076C32.4913 95.204 32.7793 95.268 33.1153 95.268ZM33.1153 92.52C32.8353 92.52 32.6393 92.464 32.5273 92.352C32.4233 92.24 32.3713 92.104 32.3713 91.944V91.68C32.3713 91.52 32.4233 91.384 32.5273 91.272C32.6393 91.16 32.8353 91.104 33.1153 91.104C33.3953 91.104 33.5873 91.16 33.6913 91.272C33.8033 91.384 33.8593 91.52 33.8593 91.68V91.944C33.8593 92.104 33.8033 92.24 33.6913 92.352C33.5873 92.464 33.3953 92.52 33.1153 92.52ZM40.6306 96.144C40.1186 96.144 39.6786 96.048 39.3106 95.856C38.9426 95.656 38.6386 95.372 38.3986 95.004C38.1586 94.636 37.9826 94.184 37.8706 93.648C37.7586 93.112 37.7026 92.5 37.7026 91.812C37.7026 91.132 37.7586 90.524 37.8706 89.988C37.9826 89.444 38.1586 88.988 38.3986 88.62C38.6386 88.252 38.9426 87.972 39.3106 87.78C39.6786 87.58 40.1186 87.48 40.6306 87.48C41.1426 87.48 41.5826 87.58 41.9506 87.78C42.3186 87.972 42.6226 88.252 42.8626 88.62C43.1026 88.988 43.2786 89.444 43.3906 89.988C43.5026 90.524 43.5586 91.132 43.5586 91.812C43.5586 92.5 43.5026 93.112 43.3906 93.648C43.2786 94.184 43.1026 94.636 42.8626 95.004C42.6226 95.372 42.3186 95.656 41.9506 95.856C41.5826 96.048 41.1426 96.144 40.6306 96.144ZM40.6306 95.268C40.9666 95.268 41.2546 95.204 41.4946 95.076C41.7346 94.94 41.9266 94.752 42.0706 94.512C42.2226 94.272 42.3346 93.984 42.4066 93.648C42.4786 93.304 42.5146 92.92 42.5146 92.496V91.128C42.5146 90.712 42.4786 90.332 42.4066 89.988C42.3346 89.644 42.2226 89.352 42.0706 89.112C41.9266 88.872 41.7346 88.688 41.4946 88.56C41.2546 88.424 40.9666 88.356 40.6306 88.356C40.2946 88.356 40.0066 88.424 39.7666 88.56C39.5266 88.688 39.3306 88.872 39.1786 89.112C39.0346 89.352 38.9266 89.644 38.8546 89.988C38.7826 90.332 38.7466 90.712 38.7466 91.128V92.496C38.7466 92.92 38.7826 93.304 38.8546 93.648C38.9266 93.984 39.0346 94.272 39.1786 94.512C39.3306 94.752 39.5266 94.94 39.7666 95.076C40.0066 95.204 40.2946 95.268 40.6306 95.268ZM40.6306 92.52C40.3506 92.52 40.1546 92.464 40.0426 92.352C39.9386 92.24 39.8866 92.104 39.8866 91.944V91.68C39.8866 91.52 39.9386 91.384 40.0426 91.272C40.1546 91.16 40.3506 91.104 40.6306 91.104C40.9106 91.104 41.1026 91.16 41.2066 91.272C41.3186 91.384 41.3746 91.52 41.3746 91.68V91.944C41.3746 92.104 41.3186 92.24 41.2066 92.352C41.1026 92.464 40.9106 92.52 40.6306 92.52Z"/><path stroke="#21272A" stroke-width=".75" d="M46 86L49 92L46 98"/><path fill="#21272A" d="M157.18 97.656V86.88H158.02V97.656H157.18ZM165.115 96.144C164.603 96.144 164.163 96.048 163.795 95.856C163.427 95.656 163.123 95.372 162.883 95.004C162.643 94.636 162.467 94.184 162.355 93.648C162.243 93.112 162.187 92.5 162.187 91.812C162.187 91.132 162.243 90.524 162.355 89.988C162.467 89.444 162.643 88.988 162.883 88.62C163.123 88.252 163.427 87.972 163.795 87.78C164.163 87.58 164.603 87.48 165.115 87.48C165.627 87.48 166.067 87.58 166.435 87.78C166.803 87.972 167.107 88.252 167.347 88.62C167.587 88.988 167.763 89.444 167.875 89.988C167.987 90.524 168.043 91.132 168.043 91.812C168.043 92.5 167.987 93.112 167.875 93.648C167.763 94.184 167.587 94.636 167.347 95.004C167.107 95.372 166.803 95.656 166.435 95.856C166.067 96.048 165.627 96.144 165.115 96.144ZM165.115 95.268C165.451 95.268 165.739 95.204 165.979 95.076C166.219 94.94 166.411 94.752 166.555 94.512C166.707 94.272 166.819 93.984 166.891 93.648C166.963 93.304 166.999 92.92 166.999 92.496V91.128C166.999 90.712 166.963 90.332 166.891 89.988C166.819 89.644 166.707 89.352 166.555 89.112C166.411 88.872 166.219 88.688 165.979 88.56C165.739 88.424 165.451 88.356 165.115 88.356C164.779 88.356 164.491 88.424 164.251 88.56C164.011 88.688 163.815 88.872 163.663 89.112C163.519 89.352 163.411 89.644 163.339 89.988C163.267 90.332 163.231 90.712 163.231 91.128V92.496C163.231 92.92 163.267 93.304 163.339 93.648C163.411 93.984 163.519 94.272 163.663 94.512C163.815 94.752 164.011 94.94 164.251 95.076C164.491 95.204 164.779 95.268 165.115 95.268ZM165.115 92.52C164.835 92.52 164.639 92.464 164.527 92.352C164.423 92.24 164.371 92.104 164.371 91.944V91.68C164.371 91.52 164.423 91.384 164.527 91.272C164.639 91.16 164.835 91.104 165.115 91.104C165.395 91.104 165.587 91.16 165.691 91.272C165.803 91.384 165.859 91.52 165.859 91.68V91.944C165.859 92.104 165.803 92.24 165.691 92.352C165.587 92.464 165.395 92.52 165.115 92.52ZM172.631 96.144C172.119 96.144 171.679 96.048 171.311 95.856C170.943 95.656 170.639 95.372 170.399 95.004C170.159 94.636 169.983 94.184 169.871 93.648C169.759 93.112 169.703 92.5 169.703 91.812C169.703 91.132 169.759 90.524 169.871 89.988C169.983 89.444 170.159 88.988 170.399 88.62C170.639 88.252 170.943 87.972 171.311 87.78C171.679 87.58 172.119 87.48 172.631 87.48C173.143 87.48 173.583 87.58 173.951 87.78C174.319 87.972 174.623 88.252 174.863 88.62C175.103 88.988 175.279 89.444 175.391 89.988C175.503 90.524 175.559 91.132 175.559 91.812C175.559 92.5 175.503 93.112 175.391 93.648C175.279 94.184 175.103 94.636 174.863 95.004C174.623 95.372 174.319 95.656 173.951 95.856C173.583 96.048 173.143 96.144 172.631 96.144ZM172.631 95.268C172.967 95.268 173.255 95.204 173.495 95.076C173.735 94.94 173.927 94.752 174.071 94.512C174.223 94.272 174.335 93.984 174.407 93.648C174.479 93.304 174.515 92.92 174.515 92.496V91.128C174.515 90.712 174.479 90.332 174.407 89.988C174.335 89.644 174.223 89.352 174.071 89.112C173.927 88.872 173.735 88.688 173.495 88.56C173.255 88.424 172.967 88.356 172.631 88.356C172.295 88.356 172.007 88.424 171.767 88.56C171.527 88.688 171.331 88.872 171.179 89.112C171.035 89.352 170.927 89.644 170.855 89.988C170.783 90.332 170.747 90.712 170.747 91.128V92.496C170.747 92.92 170.783 93.304 170.855 93.648C170.927 93.984 171.035 94.272 171.179 94.512C171.331 94.752 171.527 94.94 171.767 95.076C172.007 95.204 172.295 95.268 172.631 95.268ZM172.631 92.52C172.351 92.52 172.155 92.464 172.043 92.352C171.939 92.24 171.887 92.104 171.887 91.944V91.68C171.887 91.52 171.939 91.384 172.043 91.272C172.155 91.16 172.351 91.104 172.631 91.104C172.911 91.104 173.103 91.16 173.207 91.272C173.319 91.384 173.375 91.52 173.375 91.68V91.944C173.375 92.104 173.319 92.24 173.207 92.352C173.103 92.464 172.911 92.52 172.631 92.52Z"/><path stroke="#21272A" stroke-width=".75" d="M178 86L181 92L178 98"/><path fill="#21272A" d="M157.18 220.656V209.88H158.02V220.656H157.18ZM165.115 219.144C164.603 219.144 164.163 219.048 163.795 218.856C163.427 218.656 163.123 218.372 162.883 218.004C162.643 217.636 162.467 217.184 162.355 216.648C162.243 216.112 162.187 215.5 162.187 214.812C162.187 214.132 162.243 213.524 162.355 212.988C162.467 212.444 162.643 211.988 162.883 211.62C163.123 211.252 163.427 210.972 163.795 210.78C164.163 210.58 164.603 210.48 165.115 210.48C165.627 210.48 166.067 210.58 166.435 210.78C166.803 210.972 167.107 211.252 167.347 211.62C167.587 211.988 167.763 212.444 167.875 212.988C167.987 213.524 168.043 214.132 168.043 214.812C168.043 215.5 167.987 216.112 167.875 216.648C167.763 217.184 167.587 217.636 167.347 218.004C167.107 218.372 166.803 218.656 166.435 218.856C166.067 219.048 165.627 219.144 165.115 219.144ZM165.115 218.268C165.451 218.268 165.739 218.204 165.979 218.076C166.219 217.94 166.411 217.752 166.555 217.512C166.707 217.272 166.819 216.984 166.891 216.648C166.963 216.304 166.999 215.92 166.999 215.496V214.128C166.999 213.712 166.963 213.332 166.891 212.988C166.819 212.644 166.707 212.352 166.555 212.112C166.411 211.872 166.219 211.688 165.979 211.56C165.739 211.424 165.451 211.356 165.115 211.356C164.779 211.356 164.491 211.424 164.251 211.56C164.011 211.688 163.815 211.872 163.663 212.112C163.519 212.352 163.411 212.644 163.339 212.988C163.267 213.332 163.231 213.712 163.231 214.128V215.496C163.231 215.92 163.267 216.304 163.339 216.648C163.411 216.984 163.519 217.272 163.663 217.512C163.815 217.752 164.011 217.94 164.251 218.076C164.491 218.204 164.779 218.268 165.115 218.268ZM165.115 215.52C164.835 215.52 164.639 215.464 164.527 215.352C164.423 215.24 164.371 215.104 164.371 214.944V214.68C164.371 214.52 164.423 214.384 164.527 214.272C164.639 214.16 164.835 214.104 165.115 214.104C165.395 214.104 165.587 214.16 165.691 214.272C165.803 214.384 165.859 214.52 165.859 214.68V214.944C165.859 215.104 165.803 215.24 165.691 215.352C165.587 215.464 165.395 215.52 165.115 215.52ZM170.051 219V218.124H172.451V211.368H172.367L170.255 213.336L169.667 212.7L171.887 210.624H173.459V218.124H175.667V219H170.051Z"/><path stroke="#21272A" stroke-width=".75" d="M178 209L181 215L178 221"/><path fill="#21272A" d="M280.18 220.656V209.88H281.02V220.656H280.18ZM285.535 219V218.124H287.935V211.368H287.851L285.739 213.336L285.151 212.7L287.371 210.624H288.943V218.124H291.151V219H285.535ZM293.051 219V218.124H295.451V211.368H295.367L293.255 213.336L292.667 212.7L294.887 210.624H296.459V218.124H298.667V219H293.051Z"/><path stroke="#21272A" stroke-width=".75" d="M301 209L304 215L301 221"/><path fill="#21272A" d="M280.18 97.656V86.88H281.02V97.656H280.18ZM288.115 96.144C287.603 96.144 287.163 96.048 286.795 95.856C286.427 95.656 286.123 95.372 285.883 95.004C285.643 94.636 285.467 94.184 285.355 93.648C285.243 93.112 285.187 92.5 285.187 91.812C285.187 91.132 285.243 90.524 285.355 89.988C285.467 89.444 285.643 88.988 285.883 88.62C286.123 88.252 286.427 87.972 286.795 87.78C287.163 87.58 287.603 87.48 288.115 87.48C288.627 87.48 289.067 87.58 289.435 87.78C289.803 87.972 290.107 88.252 290.347 88.62C290.587 88.988 290.763 89.444 290.875 89.988C290.987 90.524 291.043 91.132 291.043 91.812C291.043 92.5 290.987 93.112 290.875 93.648C290.763 94.184 290.587 94.636 290.347 95.004C290.107 95.372 289.803 95.656 289.435 95.856C289.067 96.048 288.627 96.144 288.115 96.144ZM288.115 95.268C288.451 95.268 288.739 95.204 288.979 95.076C289.219 94.94 289.411 94.752 289.555 94.512C289.707 94.272 289.819 93.984 289.891 93.648C289.963 93.304 289.999 92.92 289.999 92.496V91.128C289.999 90.712 289.963 90.332 289.891 89.988C289.819 89.644 289.707 89.352 289.555 89.112C289.411 88.872 289.219 88.688 288.979 88.56C288.739 88.424 288.451 88.356 288.115 88.356C287.779 88.356 287.491 88.424 287.251 88.56C287.011 88.688 286.815 88.872 286.663 89.112C286.519 89.352 286.411 89.644 286.339 89.988C286.267 90.332 286.231 90.712 286.231 91.128V92.496C286.231 92.92 286.267 93.304 286.339 93.648C286.411 93.984 286.519 94.272 286.663 94.512C286.815 94.752 287.011 94.94 287.251 95.076C287.491 95.204 287.779 95.268 288.115 95.268ZM288.115 92.52C287.835 92.52 287.639 92.464 287.527 92.352C287.423 92.24 287.371 92.104 287.371 91.944V91.68C287.371 91.52 287.423 91.384 287.527 91.272C287.639 91.16 287.835 91.104 288.115 91.104C288.395 91.104 288.587 91.16 288.691 91.272C288.803 91.384 288.859 91.52 288.859 91.68V91.944C288.859 92.104 288.803 92.24 288.691 92.352C288.587 92.464 288.395 92.52 288.115 92.52ZM295.631 96.144C295.119 96.144 294.679 96.048 294.311 95.856C293.943 95.656 293.639 95.372 293.399 95.004C293.159 94.636 292.983 94.184 292.871 93.648C292.759 93.112 292.703 92.5 292.703 91.812C292.703 91.132 292.759 90.524 292.871 89.988C292.983 89.444 293.159 88.988 293.399 88.62C293.639 88.252 293.943 87.972 294.311 87.78C294.679 87.58 295.119 87.48 295.631 87.48C296.143 87.48 296.583 87.58 296.951 87.78C297.319 87.972 297.623 88.252 297.863 88.62C298.103 88.988 298.279 89.444 298.391 89.988C298.503 90.524 298.559 91.132 298.559 91.812C298.559 92.5 298.503 93.112 298.391 93.648C298.279 94.184 298.103 94.636 297.863 95.004C297.623 95.372 297.319 95.656 296.951 95.856C296.583 96.048 296.143 96.144 295.631 96.144ZM295.631 95.268C295.967 95.268 296.255 95.204 296.495 95.076C296.735 94.94 296.927 94.752 297.071 94.512C297.223 94.272 297.335 93.984 297.407 93.648C297.479 93.304 297.515 92.92 297.515 92.496V91.128C297.515 90.712 297.479 90.332 297.407 89.988C297.335 89.644 297.223 89.352 297.071 89.112C296.927 88.872 296.735 88.688 296.495 88.56C296.255 88.424 295.967 88.356 295.631 88.356C295.295 88.356 295.007 88.424 294.767 88.56C294.527 88.688 294.331 88.872 294.179 89.112C294.035 89.352 293.927 89.644 293.855 89.988C293.783 90.332 293.747 90.712 293.747 91.128V92.496C293.747 92.92 293.783 93.304 293.855 93.648C293.927 93.984 294.035 94.272 294.179 94.512C294.331 94.752 294.527 94.94 294.767 95.076C295.007 95.204 295.295 95.268 295.631 95.268ZM295.631 92.52C295.351 92.52 295.155 92.464 295.043 92.352C294.939 92.24 294.887 92.104 294.887 91.944V91.68C294.887 91.52 294.939 91.384 295.043 91.272C295.155 91.16 295.351 91.104 295.631 91.104C295.911 91.104 296.103 91.16 296.207 91.272C296.319 91.384 296.375 91.52 296.375 91.68V91.944C296.375 92.104 296.319 92.24 296.207 92.352C296.103 92.464 295.911 92.52 295.631 92.52Z"/><path stroke="#21272A" stroke-width=".75" d="M301 86L304 92L301 98"/><path fill="#21272A" d="M407.18 97.656V86.88H408.02V97.656H407.18ZM415.115 96.144C414.603 96.144 414.163 96.048 413.795 95.856C413.427 95.656 413.123 95.372 412.883 95.004C412.643 94.636 412.467 94.184 412.355 93.648C412.243 93.112 412.187 92.5 412.187 91.812C412.187 91.132 412.243 90.524 412.355 89.988C412.467 89.444 412.643 88.988 412.883 88.62C413.123 88.252 413.427 87.972 413.795 87.78C414.163 87.58 414.603 87.48 415.115 87.48C415.627 87.48 416.067 87.58 416.435 87.78C416.803 87.972 417.107 88.252 417.347 88.62C417.587 88.988 417.763 89.444 417.875 89.988C417.987 90.524 418.043 91.132 418.043 91.812C418.043 92.5 417.987 93.112 417.875 93.648C417.763 94.184 417.587 94.636 417.347 95.004C417.107 95.372 416.803 95.656 416.435 95.856C416.067 96.048 415.627 96.144 415.115 96.144ZM415.115 95.268C415.451 95.268 415.739 95.204 415.979 95.076C416.219 94.94 416.411 94.752 416.555 94.512C416.707 94.272 416.819 93.984 416.891 93.648C416.963 93.304 416.999 92.92 416.999 92.496V91.128C416.999 90.712 416.963 90.332 416.891 89.988C416.819 89.644 416.707 89.352 416.555 89.112C416.411 88.872 416.219 88.688 415.979 88.56C415.739 88.424 415.451 88.356 415.115 88.356C414.779 88.356 414.491 88.424 414.251 88.56C414.011 88.688 413.815 88.872 413.663 89.112C413.519 89.352 413.411 89.644 413.339 89.988C413.267 90.332 413.231 90.712 413.231 91.128V92.496C413.231 92.92 413.267 93.304 413.339 93.648C413.411 93.984 413.519 94.272 413.663 94.512C413.815 94.752 414.011 94.94 414.251 95.076C414.491 95.204 414.779 95.268 415.115 95.268ZM415.115 92.52C414.835 92.52 414.639 92.464 414.527 92.352C414.423 92.24 414.371 92.104 414.371 91.944V91.68C414.371 91.52 414.423 91.384 414.527 91.272C414.639 91.16 414.835 91.104 415.115 91.104C415.395 91.104 415.587 91.16 415.691 91.272C415.803 91.384 415.859 91.52 415.859 91.68V91.944C415.859 92.104 415.803 92.24 415.691 92.352C415.587 92.464 415.395 92.52 415.115 92.52ZM422.631 96.144C422.119 96.144 421.679 96.048 421.311 95.856C420.943 95.656 420.639 95.372 420.399 95.004C420.159 94.636 419.983 94.184 419.871 93.648C419.759 93.112 419.703 92.5 419.703 91.812C419.703 91.132 419.759 90.524 419.871 89.988C419.983 89.444 420.159 88.988 420.399 88.62C420.639 88.252 420.943 87.972 421.311 87.78C421.679 87.58 422.119 87.48 422.631 87.48C423.143 87.48 423.583 87.58 423.951 87.78C424.319 87.972 424.623 88.252 424.863 88.62C425.103 88.988 425.279 89.444 425.391 89.988C425.503 90.524 425.559 91.132 425.559 91.812C425.559 92.5 425.503 93.112 425.391 93.648C425.279 94.184 425.103 94.636 424.863 95.004C424.623 95.372 424.319 95.656 423.951 95.856C423.583 96.048 423.143 96.144 422.631 96.144ZM422.631 95.268C422.967 95.268 423.255 95.204 423.495 95.076C423.735 94.94 423.927 94.752 424.071 94.512C424.223 94.272 424.335 93.984 424.407 93.648C424.479 93.304 424.515 92.92 424.515 92.496V91.128C424.515 90.712 424.479 90.332 424.407 89.988C424.335 89.644 424.223 89.352 424.071 89.112C423.927 88.872 423.735 88.688 423.495 88.56C423.255 88.424 422.967 88.356 422.631 88.356C422.295 88.356 422.007 88.424 421.767 88.56C421.527 88.688 421.331 88.872 421.179 89.112C421.035 89.352 420.927 89.644 420.855 89.988C420.783 90.332 420.747 90.712 420.747 91.128V92.496C420.747 92.92 420.783 93.304 420.855 93.648C420.927 93.984 421.035 94.272 421.179 94.512C421.331 94.752 421.527 94.94 421.767 95.076C422.007 95.204 422.295 95.268 422.631 95.268ZM422.631 92.52C422.351 92.52 422.155 92.464 422.043 92.352C421.939 92.24 421.887 92.104 421.887 91.944V91.68C421.887 91.52 421.939 91.384 422.043 91.272C422.155 91.16 422.351 91.104 422.631 91.104C422.911 91.104 423.103 91.16 423.207 91.272C423.319 91.384 423.375 91.52 423.375 91.68V91.944C423.375 92.104 423.319 92.24 423.207 92.352C423.103 92.464 422.911 92.52 422.631 92.52Z"/><path stroke="#21272A" stroke-width=".75" d="M428 86L431 92L428 98"/><path fill="#21272A" d="M407.18 159.656V148.88H408.02V159.656H407.18ZM415.115 158.144C414.603 158.144 414.163 158.048 413.795 157.856C413.427 157.656 413.123 157.372 412.883 157.004C412.643 156.636 412.467 156.184 412.355 155.648C412.243 155.112 412.187 154.5 412.187 153.812C412.187 153.132 412.243 152.524 412.355 151.988C412.467 151.444 412.643 150.988 412.883 150.62C413.123 150.252 413.427 149.972 413.795 149.78C414.163 149.58 414.603 149.48 415.115 149.48C415.627 149.48 416.067 149.58 416.435 149.78C416.803 149.972 417.107 150.252 417.347 150.62C417.587 150.988 417.763 151.444 417.875 151.988C417.987 152.524 418.043 153.132 418.043 153.812C418.043 154.5 417.987 155.112 417.875 155.648C417.763 156.184 417.587 156.636 417.347 157.004C417.107 157.372 416.803 157.656 416.435 157.856C416.067 158.048 415.627 158.144 415.115 158.144ZM415.115 157.268C415.451 157.268 415.739 157.204 415.979 157.076C416.219 156.94 416.411 156.752 416.555 156.512C416.707 156.272 416.819 155.984 416.891 155.648C416.963 155.304 416.999 154.92 416.999 154.496V153.128C416.999 152.712 416.963 152.332 416.891 151.988C416.819 151.644 416.707 151.352 416.555 151.112C416.411 150.872 416.219 150.688 415.979 150.56C415.739 150.424 415.451 150.356 415.115 150.356C414.779 150.356 414.491 150.424 414.251 150.56C414.011 150.688 413.815 150.872 413.663 151.112C413.519 151.352 413.411 151.644 413.339 151.988C413.267 152.332 413.231 152.712 413.231 153.128V154.496C413.231 154.92 413.267 155.304 413.339 155.648C413.411 155.984 413.519 156.272 413.663 156.512C413.815 156.752 414.011 156.94 414.251 157.076C414.491 157.204 414.779 157.268 415.115 157.268ZM415.115 154.52C414.835 154.52 414.639 154.464 414.527 154.352C414.423 154.24 414.371 154.104 414.371 153.944V153.68C414.371 153.52 414.423 153.384 414.527 153.272C414.639 153.16 414.835 153.104 415.115 153.104C415.395 153.104 415.587 153.16 415.691 153.272C415.803 153.384 415.859 153.52 415.859 153.68V153.944C415.859 154.104 415.803 154.24 415.691 154.352C415.587 154.464 415.395 154.52 415.115 154.52ZM420.051 158V157.124H422.451V150.368H422.367L420.255 152.336L419.667 151.7L421.887 149.624H423.459V157.124H425.667V158H420.051Z"/><path stroke="#21272A" stroke-width=".75" d="M428 148L431 154L428 160"/><path fill="#21272A" d="M407.18 221.656V210.88H408.02V221.656H407.18ZM412.535 220V219.124H414.935V212.368H414.851L412.739 214.336L412.151 213.7L414.371 211.624H415.943V219.124H418.151V220H412.535ZM422.631 220.144C422.119 220.144 421.679 220.048 421.311 219.856C420.943 219.656 420.639 219.372 420.399 219.004C420.159 218.636 419.983 218.184 419.871 217.648C419.759 217.112 419.703 216.5 419.703 215.812C419.703 215.132 419.759 214.524 419.871 213.988C419.983 213.444 420.159 212.988 420.399 212.62C420.639 212.252 420.943 211.972 421.311 211.78C421.679 211.58 422.119 211.48 422.631 211.48C423.143 211.48 423.583 211.58 423.951 211.78C424.319 211.972 424.623 212.252 424.863 212.62C425.103 212.988 425.279 213.444 425.391 213.988C425.503 214.524 425.559 215.132 425.559 215.812C425.559 216.5 425.503 217.112 425.391 217.648C425.279 218.184 425.103 218.636 424.863 219.004C424.623 219.372 424.319 219.656 423.951 219.856C423.583 220.048 423.143 220.144 422.631 220.144ZM422.631 219.268C422.967 219.268 423.255 219.204 423.495 219.076C423.735 218.94 423.927 218.752 424.071 218.512C424.223 218.272 424.335 217.984 424.407 217.648C424.479 217.304 424.515 216.92 424.515 216.496V215.128C424.515 214.712 424.479 214.332 424.407 213.988C424.335 213.644 424.223 213.352 424.071 213.112C423.927 212.872 423.735 212.688 423.495 212.56C423.255 212.424 422.967 212.356 422.631 212.356C422.295 212.356 422.007 212.424 421.767 212.56C421.527 212.688 421.331 212.872 421.179 213.112C421.035 213.352 420.927 213.644 420.855 213.988C420.783 214.332 420.747 214.712 420.747 215.128V216.496C420.747 216.92 420.783 217.304 420.855 217.648C420.927 217.984 421.035 218.272 421.179 218.512C421.331 218.752 421.527 218.94 421.767 219.076C422.007 219.204 422.295 219.268 422.631 219.268ZM422.631 216.52C422.351 216.52 422.155 216.464 422.043 216.352C421.939 216.24 421.887 216.104 421.887 215.944V215.68C421.887 215.52 421.939 215.384 422.043 215.272C422.155 215.16 422.351 215.104 422.631 215.104C422.911 215.104 423.103 215.16 423.207 215.272C423.319 215.384 423.375 215.52 423.375 215.68V215.944C423.375 216.104 423.319 216.24 423.207 216.352C423.103 216.464 422.911 216.52 422.631 216.52Z"/><path stroke="#21272A" stroke-width=".75" d="M428 210L431 216L428 222"/><path fill="#21272A" d="M407.18 283.656V272.88H408.02V283.656H407.18ZM412.535 282V281.124H414.935V274.368H414.851L412.739 276.336L412.151 275.7L414.371 273.624H415.943V281.124H418.151V282H412.535ZM420.051 282V281.124H422.451V274.368H422.367L420.255 276.336L419.667 275.7L421.887 273.624H423.459V281.124H425.667V282H420.051Z"/><path stroke="#21272A" stroke-width=".75" d="M428 272L431 278L428 284"/><path fill="#121619" d="M13.186 20.168C12.346 20.168 11.632 20.0187 11.044 19.72C10.4653 19.4213 9.966 19.0293 9.546 18.544L10.792 17.34C11.128 17.732 11.5013 18.0307 11.912 18.236C12.332 18.4413 12.794 18.544 13.298 18.544C13.8673 18.544 14.2967 18.4227 14.586 18.18C14.8753 17.928 15.02 17.592 15.02 17.172C15.02 16.8453 14.9267 16.5793 14.74 16.374C14.5533 16.1687 14.2033 16.0193 13.69 15.926L12.766 15.786C10.8153 15.478 9.84 14.5307 9.84 12.944C9.84 12.5053 9.91933 12.1087 10.078 11.754C10.246 11.3993 10.484 11.096 10.792 10.844C11.1 10.592 11.4687 10.4007 11.898 10.27C12.3367 10.13 12.8313 10.06 13.382 10.06C14.1193 10.06 14.7633 10.1813 15.314 10.424C15.8647 10.6667 16.336 11.026 16.728 11.502L15.468 12.692C15.2253 12.3933 14.9313 12.1507 14.586 11.964C14.2407 11.7773 13.8067 11.684 13.284 11.684C12.752 11.684 12.3507 11.7867 12.08 11.992C11.8187 12.188 11.688 12.468 11.688 12.832C11.688 13.2053 11.7953 13.4807 12.01 13.658C12.2247 13.8353 12.57 13.966 13.046 14.05L13.956 14.218C14.9453 14.3953 15.6733 14.7127 16.14 15.17C16.616 15.618 16.854 16.248 16.854 17.06C16.854 17.5267 16.77 17.9513 16.602 18.334C16.4433 18.7073 16.2053 19.034 15.888 19.314C15.58 19.5847 15.1973 19.7947 14.74 19.944C14.292 20.0933 13.774 20.168 13.186 20.168ZM20.9819 20C20.3659 20 19.8946 19.8413 19.5679 19.524C19.2506 19.1973 19.0919 18.7353 19.0919 18.138V14.12H18.0139V12.692H18.5739C18.8446 12.692 19.0266 12.6313 19.1199 12.51C19.2226 12.3793 19.2739 12.188 19.2739 11.936V10.69H20.8839V12.692H22.3819V14.12H20.8839V18.572H22.2699V20H20.9819ZM29.4722 20C29.0802 20 28.7676 19.888 28.5342 19.664C28.3102 19.4307 28.1702 19.1227 28.1142 18.74H28.0302C27.9089 19.216 27.6616 19.5753 27.2882 19.818C26.9149 20.0513 26.4529 20.168 25.9022 20.168C25.1556 20.168 24.5816 19.972 24.1802 19.58C23.7789 19.188 23.5782 18.6653 23.5782 18.012C23.5782 17.256 23.8489 16.696 24.3902 16.332C24.9316 15.9587 25.7016 15.772 26.7002 15.772H27.9462V15.24C27.9462 14.8293 27.8389 14.512 27.6242 14.288C27.4096 14.064 27.0642 13.952 26.5882 13.952C26.1682 13.952 25.8276 14.0453 25.5662 14.232C25.3142 14.4093 25.0996 14.624 24.9222 14.876L23.8582 13.924C24.1289 13.504 24.4882 13.168 24.9362 12.916C25.3842 12.6547 25.9769 12.524 26.7142 12.524C27.7036 12.524 28.4549 12.748 28.9682 13.196C29.4816 13.644 29.7382 14.288 29.7382 15.128V18.572H30.4662V20H29.4722ZM26.5042 18.866C26.9056 18.866 27.2462 18.7773 27.5262 18.6C27.8062 18.4227 27.9462 18.1613 27.9462 17.816V16.85H26.7982C25.8649 16.85 25.3982 17.1487 25.3982 17.746V17.984C25.3982 18.2827 25.4916 18.5067 25.6782 18.656C25.8742 18.796 26.1496 18.866 26.5042 18.866ZM32.0765 20V12.692H33.8685V14.204H33.9385C33.9852 14.008 34.0552 13.8213 34.1485 13.644C34.2512 13.4573 34.3819 13.294 34.5405 13.154C34.6992 13.014 34.8859 12.902 35.1005 12.818C35.3245 12.734 35.5812 12.692 35.8705 12.692H36.2625V14.386H35.7025C35.0959 14.386 34.6385 14.4747 34.3305 14.652C34.0225 14.8293 33.8685 15.1187 33.8685 15.52V20H32.0765ZM40.0693 20C39.4533 20 38.982 19.8413 38.6553 19.524C38.338 19.1973 38.1793 18.7353 38.1793 18.138V14.12H37.1013V12.692H37.6613C37.932 12.692 38.114 12.6313 38.2073 12.51C38.31 12.3793 38.3613 12.188 38.3613 11.936V10.69H39.9713V12.692H41.4693V14.12H39.9713V18.572H41.3573V20H40.0693Z"/><path fill="#121619" d="M139.196 20L138.412 17.508H134.94L134.17 20H132.294L135.57 10.228H137.866L141.114 20H139.196ZM136.704 11.908H136.634L135.388 15.926H137.964L136.704 11.908ZM142.966 14.106H141.888V12.692H142.966V11.642C142.966 10.998 143.134 10.5033 143.47 10.158C143.816 9.81267 144.32 9.64 144.982 9.64H146.256V11.068H144.758V12.692H146.256V14.106H144.758V20H142.966V14.106ZM149.939 20C149.323 20 148.851 19.8413 148.525 19.524C148.207 19.1973 148.049 18.7353 148.049 18.138V14.12H146.971V12.692H147.531C147.801 12.692 147.983 12.6313 148.077 12.51C148.179 12.3793 148.231 12.188 148.231 11.936V10.69H149.841V12.692H151.339V14.12H149.841V18.572H151.227V20H149.939ZM155.952 20.168C155.411 20.168 154.926 20.0793 154.496 19.902C154.076 19.7153 153.717 19.4587 153.418 19.132C153.129 18.796 152.905 18.3947 152.746 17.928C152.588 17.452 152.508 16.92 152.508 16.332C152.508 15.7533 152.583 15.2307 152.732 14.764C152.891 14.2973 153.115 13.9007 153.404 13.574C153.694 13.238 154.048 12.9813 154.468 12.804C154.888 12.6173 155.364 12.524 155.896 12.524C156.466 12.524 156.96 12.622 157.38 12.818C157.8 13.014 158.146 13.28 158.416 13.616C158.687 13.952 158.888 14.344 159.018 14.792C159.158 15.2307 159.228 15.702 159.228 16.206V16.794H154.37V16.976C154.37 17.508 154.52 17.9373 154.818 18.264C155.117 18.5813 155.56 18.74 156.148 18.74C156.596 18.74 156.96 18.6467 157.24 18.46C157.53 18.2733 157.786 18.0353 158.01 17.746L158.976 18.824C158.678 19.244 158.267 19.5753 157.744 19.818C157.231 20.0513 156.634 20.168 155.952 20.168ZM155.924 13.868C155.448 13.868 155.07 14.0267 154.79 14.344C154.51 14.6613 154.37 15.072 154.37 15.576V15.688H157.366V15.562C157.366 15.058 157.24 14.652 156.988 14.344C156.746 14.0267 156.391 13.868 155.924 13.868ZM160.965 20V12.692H162.757V14.204H162.827C162.874 14.008 162.944 13.8213 163.037 13.644C163.14 13.4573 163.27 13.294 163.429 13.154C163.588 13.014 163.774 12.902 163.989 12.818C164.213 12.734 164.47 12.692 164.759 12.692H165.151V14.386H164.591C163.984 14.386 163.527 14.4747 163.219 14.652C162.911 14.8293 162.757 15.1187 162.757 15.52V20H160.965ZM176.124 15.87H172.05V20H170.202V10.228H172.05V14.232H176.124V10.228H177.972V20H176.124V15.87ZM180.088 16.626V14.848H184.092V16.626H180.088ZM192.699 20.616C192.699 20.9987 192.629 21.3347 192.489 21.624C192.358 21.9227 192.139 22.17 191.831 22.366C191.523 22.562 191.126 22.7113 190.641 22.814C190.156 22.9167 189.563 22.968 188.863 22.968C188.247 22.968 187.724 22.926 187.295 22.842C186.866 22.7673 186.511 22.6553 186.231 22.506C185.96 22.366 185.764 22.1887 185.643 21.974C185.522 21.7593 185.461 21.5167 185.461 21.246C185.461 20.8353 185.573 20.5133 185.797 20.28C186.03 20.056 186.352 19.9113 186.763 19.846V19.692C186.464 19.6173 186.231 19.4727 186.063 19.258C185.904 19.034 185.825 18.7727 185.825 18.474C185.825 18.2873 185.862 18.124 185.937 17.984C186.012 17.8347 186.11 17.7087 186.231 17.606C186.362 17.5033 186.506 17.4193 186.665 17.354C186.824 17.2793 186.992 17.2233 187.169 17.186V17.13C186.721 16.9247 186.385 16.64 186.161 16.276C185.946 15.912 185.839 15.4873 185.839 15.002C185.839 14.2553 186.096 13.658 186.609 13.21C187.122 12.7527 187.874 12.524 188.863 12.524C189.087 12.524 189.306 12.538 189.521 12.566C189.745 12.594 189.95 12.6407 190.137 12.706V12.468C190.137 11.7587 190.482 11.404 191.173 11.404H192.307V12.776H190.753V12.972C191.136 13.1867 191.42 13.4667 191.607 13.812C191.794 14.1573 191.887 14.554 191.887 15.002C191.887 15.7393 191.63 16.332 191.117 16.78C190.613 17.228 189.862 17.452 188.863 17.452C188.434 17.452 188.06 17.41 187.743 17.326C187.603 17.3913 187.482 17.48 187.379 17.592C187.276 17.6947 187.225 17.8253 187.225 17.984C187.225 18.348 187.542 18.53 188.177 18.53H190.137C191.033 18.53 191.682 18.7167 192.083 19.09C192.494 19.454 192.699 19.9627 192.699 20.616ZM191.019 20.826C191.019 20.5927 190.926 20.4107 190.739 20.28C190.552 20.1493 190.23 20.084 189.773 20.084H187.281C187.029 20.2707 186.903 20.5227 186.903 20.84C186.903 21.12 187.02 21.3393 187.253 21.498C187.486 21.6567 187.883 21.736 188.443 21.736H189.339C189.927 21.736 190.352 21.6613 190.613 21.512C190.884 21.3627 191.019 21.134 191.019 20.826ZM188.863 16.234C189.74 16.234 190.179 15.8607 190.179 15.114V14.876C190.179 14.1293 189.74 13.756 188.863 13.756C187.986 13.756 187.547 14.1293 187.547 14.876V15.114C187.547 15.8607 187.986 16.234 188.863 16.234ZM199.243 20C198.851 20 198.538 19.888 198.305 19.664C198.081 19.4307 197.941 19.1227 197.885 18.74H197.801C197.679 19.216 197.432 19.5753 197.059 19.818C196.685 20.0513 196.223 20.168 195.673 20.168C194.926 20.168 194.352 19.972 193.951 19.58C193.549 19.188 193.349 18.6653 193.349 18.012C193.349 17.256 193.619 16.696 194.161 16.332C194.702 15.9587 195.472 15.772 196.471 15.772H197.717V15.24C197.717 14.8293 197.609 14.512 197.395 14.288C197.18 14.064 196.835 13.952 196.359 13.952C195.939 13.952 195.598 14.0453 195.337 14.232C195.085 14.4093 194.87 14.624 194.693 14.876L193.629 13.924C193.899 13.504 194.259 13.168 194.707 12.916C195.155 12.6547 195.747 12.524 196.485 12.524C197.474 12.524 198.225 12.748 198.739 13.196C199.252 13.644 199.509 14.288 199.509 15.128V18.572H200.237V20H199.243ZM196.275 18.866C196.676 18.866 197.017 18.7773 197.297 18.6C197.577 18.4227 197.717 18.1613 197.717 17.816V16.85H196.569C195.635 16.85 195.169 17.1487 195.169 17.746V17.984C195.169 18.2827 195.262 18.5067 195.449 18.656C195.645 18.796 195.92 18.866 196.275 18.866ZM204.074 20C203.458 20 202.987 19.8413 202.66 19.524C202.343 19.1973 202.184 18.7353 202.184 18.138V14.12H201.106V12.692H201.666C201.937 12.692 202.119 12.6313 202.212 12.51C202.315 12.3793 202.366 12.188 202.366 11.936V10.69H203.976V12.692H205.474V14.12H203.976V18.572H205.362V20H204.074ZM210.088 20.168C209.547 20.168 209.061 20.0793 208.632 19.902C208.212 19.7153 207.853 19.4587 207.554 19.132C207.265 18.796 207.041 18.3947 206.882 17.928C206.723 17.452 206.644 16.92 206.644 16.332C206.644 15.7533 206.719 15.2307 206.868 14.764C207.027 14.2973 207.251 13.9007 207.54 13.574C207.829 13.238 208.184 12.9813 208.604 12.804C209.024 12.6173 209.5 12.524 210.032 12.524C210.601 12.524 211.096 12.622 211.516 12.818C211.936 13.014 212.281 13.28 212.552 13.616C212.823 13.952 213.023 14.344 213.154 14.792C213.294 15.2307 213.364 15.702 213.364 16.206V16.794H208.506V16.976C208.506 17.508 208.655 17.9373 208.954 18.264C209.253 18.5813 209.696 18.74 210.284 18.74C210.732 18.74 211.096 18.6467 211.376 18.46C211.665 18.2733 211.922 18.0353 212.146 17.746L213.112 18.824C212.813 19.244 212.403 19.5753 211.88 19.818C211.367 20.0513 210.769 20.168 210.088 20.168ZM210.06 13.868C209.584 13.868 209.206 14.0267 208.926 14.344C208.646 14.6613 208.506 15.072 208.506 15.576V15.688H211.502V15.562C211.502 15.058 211.376 14.652 211.124 14.344C210.881 14.0267 210.527 13.868 210.06 13.868Z"/><path fill="#121619" d="M267.196 20L266.412 17.508H262.94L262.17 20H260.294L263.57 10.228H265.866L269.114 20H267.196ZM264.704 11.908H264.634L263.388 15.926H265.964L264.704 11.908ZM270.966 14.106H269.888V12.692H270.966V11.642C270.966 10.998 271.134 10.5033 271.47 10.158C271.816 9.81267 272.32 9.64 272.982 9.64H274.256V11.068H272.758V12.692H274.256V14.106H272.758V20H270.966V14.106ZM277.939 20C277.323 20 276.851 19.8413 276.525 19.524C276.207 19.1973 276.049 18.7353 276.049 18.138V14.12H274.971V12.692H275.531C275.801 12.692 275.983 12.6313 276.077 12.51C276.179 12.3793 276.231 12.188 276.231 11.936V10.69H277.841V12.692H279.339V14.12H277.841V18.572H279.227V20H277.939ZM283.952 20.168C283.411 20.168 282.926 20.0793 282.496 19.902C282.076 19.7153 281.717 19.4587 281.418 19.132C281.129 18.796 280.905 18.3947 280.746 17.928C280.588 17.452 280.508 16.92 280.508 16.332C280.508 15.7533 280.583 15.2307 280.732 14.764C280.891 14.2973 281.115 13.9007 281.404 13.574C281.694 13.238 282.048 12.9813 282.468 12.804C282.888 12.6173 283.364 12.524 283.896 12.524C284.466 12.524 284.96 12.622 285.38 12.818C285.8 13.014 286.146 13.28 286.416 13.616C286.687 13.952 286.888 14.344 287.018 14.792C287.158 15.2307 287.228 15.702 287.228 16.206V16.794H282.37V16.976C282.37 17.508 282.52 17.9373 282.818 18.264C283.117 18.5813 283.56 18.74 284.148 18.74C284.596 18.74 284.96 18.6467 285.24 18.46C285.53 18.2733 285.786 18.0353 286.01 17.746L286.976 18.824C286.678 19.244 286.267 19.5753 285.744 19.818C285.231 20.0513 284.634 20.168 283.952 20.168ZM283.924 13.868C283.448 13.868 283.07 14.0267 282.79 14.344C282.51 14.6613 282.37 15.072 282.37 15.576V15.688H285.366V15.562C285.366 15.058 285.24 14.652 284.988 14.344C284.746 14.0267 284.391 13.868 283.924 13.868ZM288.965 20V12.692H290.757V14.204H290.827C290.874 14.008 290.944 13.8213 291.037 13.644C291.14 13.4573 291.27 13.294 291.429 13.154C291.588 13.014 291.774 12.902 291.989 12.818C292.213 12.734 292.47 12.692 292.759 12.692H293.151V14.386H292.591C291.984 14.386 291.527 14.4747 291.219 14.652C290.911 14.8293 290.757 15.1187 290.757 15.52V20H288.965ZM301.996 20.168C301.352 20.168 300.768 20.0653 300.246 19.86C299.732 19.6453 299.289 19.328 298.916 18.908C298.552 18.488 298.272 17.97 298.076 17.354C297.88 16.7287 297.782 16.0053 297.782 15.184C297.782 14.3627 297.88 13.6347 298.076 13C298.272 12.356 298.552 11.8193 298.916 11.39C299.289 10.9513 299.732 10.62 300.246 10.396C300.768 10.172 301.352 10.06 301.996 10.06C302.873 10.06 303.601 10.2467 304.18 10.62C304.758 10.9933 305.22 11.558 305.566 12.314L303.984 13.154C303.844 12.7153 303.615 12.3653 303.298 12.104C302.98 11.8333 302.546 11.698 301.996 11.698C301.305 11.698 300.754 11.9313 300.344 12.398C299.942 12.8647 299.742 13.518 299.742 14.358V15.898C299.742 16.7473 299.942 17.4007 300.344 17.858C300.754 18.306 301.305 18.53 301.996 18.53C302.546 18.53 302.994 18.3807 303.34 18.082C303.694 17.7833 303.951 17.4147 304.11 16.976L305.608 17.858C305.253 18.586 304.782 19.1553 304.194 19.566C303.606 19.9673 302.873 20.168 301.996 20.168ZM310.144 14.988L309.136 12.958H309.094V20H307.344V10.228H309.374L312.314 15.24L313.322 17.27H313.364V10.228H315.114V20H313.084L310.144 14.988ZM321.403 20.168C320.759 20.168 320.175 20.0607 319.653 19.846C319.13 19.6313 318.682 19.3093 318.309 18.88C317.945 18.4507 317.66 17.9233 317.455 17.298C317.249 16.6727 317.147 15.9447 317.147 15.114C317.147 14.2927 317.249 13.5693 317.455 12.944C317.66 12.3093 317.945 11.7773 318.309 11.348C318.682 10.9187 319.13 10.5967 319.653 10.382C320.175 10.1673 320.759 10.06 321.403 10.06C322.047 10.06 322.63 10.1673 323.153 10.382C323.675 10.5967 324.123 10.9187 324.497 11.348C324.87 11.7773 325.155 12.3093 325.351 12.944C325.556 13.5693 325.659 14.2927 325.659 15.114C325.659 15.9447 325.556 16.6727 325.351 17.298C325.155 17.9233 324.87 18.4507 324.497 18.88C324.123 19.3093 323.675 19.6313 323.153 19.846C322.63 20.0607 322.047 20.168 321.403 20.168ZM321.403 18.53C322.103 18.53 322.658 18.2967 323.069 17.83C323.489 17.3633 323.699 16.71 323.699 15.87V14.358C323.699 13.518 323.489 12.8647 323.069 12.398C322.658 11.9313 322.103 11.698 321.403 11.698C320.703 11.698 320.143 11.9313 319.723 12.398C319.312 12.8647 319.107 13.518 319.107 14.358V15.87C319.107 16.71 319.312 17.3633 319.723 17.83C320.143 18.2967 320.703 18.53 321.403 18.53ZM331.188 11.866V20H329.34V11.866H326.568V10.228H333.96V11.866H331.188Z"/><path fill="#121619" d="M390.196 20L389.412 17.508H385.94L385.17 20H383.294L386.57 10.228H388.866L392.114 20H390.196ZM387.704 11.908H387.634L386.388 15.926H388.964L387.704 11.908ZM393.966 14.106H392.888V12.692H393.966V11.642C393.966 10.998 394.134 10.5033 394.47 10.158C394.816 9.81267 395.32 9.64 395.982 9.64H397.256V11.068H395.758V12.692H397.256V14.106H395.758V20H393.966V14.106ZM400.939 20C400.323 20 399.851 19.8413 399.525 19.524C399.207 19.1973 399.049 18.7353 399.049 18.138V14.12H397.971V12.692H398.531C398.801 12.692 398.983 12.6313 399.077 12.51C399.179 12.3793 399.231 12.188 399.231 11.936V10.69H400.841V12.692H402.339V14.12H400.841V18.572H402.227V20H400.939ZM406.952 20.168C406.411 20.168 405.926 20.0793 405.496 19.902C405.076 19.7153 404.717 19.4587 404.418 19.132C404.129 18.796 403.905 18.3947 403.746 17.928C403.588 17.452 403.508 16.92 403.508 16.332C403.508 15.7533 403.583 15.2307 403.732 14.764C403.891 14.2973 404.115 13.9007 404.404 13.574C404.694 13.238 405.048 12.9813 405.468 12.804C405.888 12.6173 406.364 12.524 406.896 12.524C407.466 12.524 407.96 12.622 408.38 12.818C408.8 13.014 409.146 13.28 409.416 13.616C409.687 13.952 409.888 14.344 410.018 14.792C410.158 15.2307 410.228 15.702 410.228 16.206V16.794H405.37V16.976C405.37 17.508 405.52 17.9373 405.818 18.264C406.117 18.5813 406.56 18.74 407.148 18.74C407.596 18.74 407.96 18.6467 408.24 18.46C408.53 18.2733 408.786 18.0353 409.01 17.746L409.976 18.824C409.678 19.244 409.267 19.5753 408.744 19.818C408.231 20.0513 407.634 20.168 406.952 20.168ZM406.924 13.868C406.448 13.868 406.07 14.0267 405.79 14.344C405.51 14.6613 405.37 15.072 405.37 15.576V15.688H408.366V15.562C408.366 15.058 408.24 14.652 407.988 14.344C407.746 14.0267 407.391 13.868 406.924 13.868ZM411.965 20V12.692H413.757V14.204H413.827C413.874 14.008 413.944 13.8213 414.037 13.644C414.14 13.4573 414.27 13.294 414.429 13.154C414.588 13.014 414.774 12.902 414.989 12.818C415.213 12.734 415.47 12.692 415.759 12.692H416.151V14.386H415.591C414.984 14.386 414.527 14.4747 414.219 14.652C413.911 14.8293 413.757 15.1187 413.757 15.52V20H411.965ZM427.124 15.87H423.05V20H421.202V10.228H423.05V14.232H427.124V10.228H428.972V20H427.124V15.87ZM431.088 16.626V14.848H435.092V16.626H431.088ZM443.699 20.616C443.699 20.9987 443.629 21.3347 443.489 21.624C443.358 21.9227 443.139 22.17 442.831 22.366C442.523 22.562 442.126 22.7113 441.641 22.814C441.156 22.9167 440.563 22.968 439.863 22.968C439.247 22.968 438.724 22.926 438.295 22.842C437.866 22.7673 437.511 22.6553 437.231 22.506C436.96 22.366 436.764 22.1887 436.643 21.974C436.522 21.7593 436.461 21.5167 436.461 21.246C436.461 20.8353 436.573 20.5133 436.797 20.28C437.03 20.056 437.352 19.9113 437.763 19.846V19.692C437.464 19.6173 437.231 19.4727 437.063 19.258C436.904 19.034 436.825 18.7727 436.825 18.474C436.825 18.2873 436.862 18.124 436.937 17.984C437.012 17.8347 437.11 17.7087 437.231 17.606C437.362 17.5033 437.506 17.4193 437.665 17.354C437.824 17.2793 437.992 17.2233 438.169 17.186V17.13C437.721 16.9247 437.385 16.64 437.161 16.276C436.946 15.912 436.839 15.4873 436.839 15.002C436.839 14.2553 437.096 13.658 437.609 13.21C438.122 12.7527 438.874 12.524 439.863 12.524C440.087 12.524 440.306 12.538 440.521 12.566C440.745 12.594 440.95 12.6407 441.137 12.706V12.468C441.137 11.7587 441.482 11.404 442.173 11.404H443.307V12.776H441.753V12.972C442.136 13.1867 442.42 13.4667 442.607 13.812C442.794 14.1573 442.887 14.554 442.887 15.002C442.887 15.7393 442.63 16.332 442.117 16.78C441.613 17.228 440.862 17.452 439.863 17.452C439.434 17.452 439.06 17.41 438.743 17.326C438.603 17.3913 438.482 17.48 438.379 17.592C438.276 17.6947 438.225 17.8253 438.225 17.984C438.225 18.348 438.542 18.53 439.177 18.53H441.137C442.033 18.53 442.682 18.7167 443.083 19.09C443.494 19.454 443.699 19.9627 443.699 20.616ZM442.019 20.826C442.019 20.5927 441.926 20.4107 441.739 20.28C441.552 20.1493 441.23 20.084 440.773 20.084H438.281C438.029 20.2707 437.903 20.5227 437.903 20.84C437.903 21.12 438.02 21.3393 438.253 21.498C438.486 21.6567 438.883 21.736 439.443 21.736H440.339C440.927 21.736 441.352 21.6613 441.613 21.512C441.884 21.3627 442.019 21.134 442.019 20.826ZM439.863 16.234C440.74 16.234 441.179 15.8607 441.179 15.114V14.876C441.179 14.1293 440.74 13.756 439.863 13.756C438.986 13.756 438.547 14.1293 438.547 14.876V15.114C438.547 15.8607 438.986 16.234 439.863 16.234ZM450.243 20C449.851 20 449.538 19.888 449.305 19.664C449.081 19.4307 448.941 19.1227 448.885 18.74H448.801C448.679 19.216 448.432 19.5753 448.059 19.818C447.685 20.0513 447.223 20.168 446.673 20.168C445.926 20.168 445.352 19.972 444.951 19.58C444.549 19.188 444.349 18.6653 444.349 18.012C444.349 17.256 444.619 16.696 445.161 16.332C445.702 15.9587 446.472 15.772 447.471 15.772H448.717V15.24C448.717 14.8293 448.609 14.512 448.395 14.288C448.18 14.064 447.835 13.952 447.359 13.952C446.939 13.952 446.598 14.0453 446.337 14.232C446.085 14.4093 445.87 14.624 445.693 14.876L444.629 13.924C444.899 13.504 445.259 13.168 445.707 12.916C446.155 12.6547 446.747 12.524 447.485 12.524C448.474 12.524 449.225 12.748 449.739 13.196C450.252 13.644 450.509 14.288 450.509 15.128V18.572H451.237V20H450.243ZM447.275 18.866C447.676 18.866 448.017 18.7773 448.297 18.6C448.577 18.4227 448.717 18.1613 448.717 17.816V16.85H447.569C446.635 16.85 446.169 17.1487 446.169 17.746V17.984C446.169 18.2827 446.262 18.5067 446.449 18.656C446.645 18.796 446.92 18.866 447.275 18.866ZM455.074 20C454.458 20 453.987 19.8413 453.66 19.524C453.343 19.1973 453.184 18.7353 453.184 18.138V14.12H452.106V12.692H452.666C452.937 12.692 453.119 12.6313 453.212 12.51C453.315 12.3793 453.366 12.188 453.366 11.936V10.69H454.976V12.692H456.474V14.12H454.976V18.572H456.362V20H455.074ZM461.088 20.168C460.547 20.168 460.061 20.0793 459.632 19.902C459.212 19.7153 458.853 19.4587 458.554 19.132C458.265 18.796 458.041 18.3947 457.882 17.928C457.723 17.452 457.644 16.92 457.644 16.332C457.644 15.7533 457.719 15.2307 457.868 14.764C458.027 14.2973 458.251 13.9007 458.54 13.574C458.829 13.238 459.184 12.9813 459.604 12.804C460.024 12.6173 460.5 12.524 461.032 12.524C461.601 12.524 462.096 12.622 462.516 12.818C462.936 13.014 463.281 13.28 463.552 13.616C463.823 13.952 464.023 14.344 464.154 14.792C464.294 15.2307 464.364 15.702 464.364 16.206V16.794H459.506V16.976C459.506 17.508 459.655 17.9373 459.954 18.264C460.253 18.5813 460.696 18.74 461.284 18.74C461.732 18.74 462.096 18.6467 462.376 18.46C462.665 18.2733 462.922 18.0353 463.146 17.746L464.112 18.824C463.813 19.244 463.403 19.5753 462.88 19.818C462.367 20.0513 461.769 20.168 461.088 20.168ZM461.06 13.868C460.584 13.868 460.206 14.0267 459.926 14.344C459.646 14.6613 459.506 15.072 459.506 15.576V15.688H462.502V15.562C462.502 15.058 462.376 14.652 462.124 14.344C461.881 14.0267 461.527 13.868 461.06 13.868Z"/></svg>