<svg width="377" height="245" viewBox="0 0 377 245" fill="none" xmlns="http://www.w3.org/2000/svg">
<rect width="377" height="245" fill="white"/>
<rect width="377" height="245" fill="white"/>
<rect width="377" height="245" fill="white"/>
<rect width="377" height="245" fill="white"/>
<rect opacity="0.4" x="1" width="125" height="245" fill="#F2F4F8"/>
<rect opacity="0.4" x="252" width="125" height="245" fill="#F2F4F8"/>
<rect x="0.5" y="0.5" width="376" height="244" stroke="#DDE1E6"/>
<circle cx="168" cy="39" r="20" fill="#DDE1E6"/>
<circle cx="168" cy="39" r="16.5" fill="#BE95FF" stroke="#491D8B"/>
<circle cx="298" cy="39" r="20" fill="#DDE1E6"/>
<circle cx="298" cy="39" r="7.5" fill="#BE95FF" stroke="#491D8B"/>
<circle cx="298" cy="147" r="20" fill="#DDE1E6"/>
<circle cx="298" cy="147" r="7.5" fill="#BE95FF" stroke="#491D8B"/>
<circle cx="168" cy="147" r="20" fill="#DDE1E6"/>
<circle cx="168" cy="147" r="16.5" fill="#BE95FF" stroke="#491D8B"/>
<circle cx="298" cy="93" r="20" fill="#DDE1E6"/>
<circle cx="298" cy="93" r="7.5" fill="#BE95FF" stroke="#491D8B"/>
<circle cx="298" cy="201" r="20" fill="#DDE1E6"/>
<circle cx="298" cy="201" r="7.5" fill="#BE95FF" stroke="#491D8B"/>
<line x1="126.5" x2="126.5" y2="245" stroke="#DDE1E6"/>
<line x1="252.5" x2="252.5" y2="245" stroke="#DDE1E6"/>
<circle cx="36" cy="39" r="19.5" fill="#BE95FF" stroke="#491D8B"/>
<path d="M114 147.5H105.5H101.746C98.9848 147.5 96.7463 145.261 96.7463 142.5V44.5C96.7463 41.7386 94.5077 39.5 91.7463 39.5H88.5H80" stroke="#343A3F"/>
<path d="M238 92.5H229.5H225.547C222.768 92.5 220.521 90.2326 220.548 87.4528L220.952 44.5472C220.979 41.7674 218.732 39.5 215.953 39.5H212.5H204" stroke="#343A3F"/>
<path d="M24.5711 50.2565L23.149 54.2848L26.8692 52.1848L24.5711 50.2565Z" fill="#491D8B"/>
<line x1="25.7202" y1="51.2206" x2="36.0049" y2="38.9639" stroke="#491D8B"/>
<path d="M159.571 47.193L158.149 51.2214L161.869 49.1214L159.571 47.193Z" fill="#491D8B"/>
<line x1="160.72" y1="48.1571" x2="168.434" y2="38.9646" stroke="#491D8B"/>
<path d="M294.571 40.7829L293.149 44.8112L296.869 42.7112L294.571 40.7829Z" fill="#491D8B"/>
<line x1="295.72" y1="41.747" x2="298.291" y2="38.6828" stroke="#491D8B"/>
<path d="M294.571 95.2985L293.149 99.3268L296.869 97.2268L294.571 95.2985Z" fill="#491D8B"/>
<line x1="295.72" y1="96.2626" x2="298.291" y2="93.1984" stroke="#491D8B"/>
<path d="M294.571 149.298L293.149 153.327L296.869 151.227L294.571 149.298Z" fill="#491D8B"/>
<line x1="295.72" y1="150.263" x2="298.291" y2="147.198" stroke="#491D8B"/>
<path d="M301.226 199.993L302.649 195.964L298.928 198.064L301.226 199.993Z" fill="#491D8B"/>
<line x1="300.077" y1="199.028" x2="298.149" y2="201.327" stroke="#491D8B"/>
<path d="M159.571 156.193L158.149 160.221L161.869 158.121L159.571 156.193Z" fill="#491D8B"/>
<line x1="160.72" y1="157.157" x2="168.434" y2="147.965" stroke="#491D8B"/>
<path d="M139 41L143 39.5L139 38V41Z" fill="#343A3F"/>
<line x1="139" y1="39.5" x2="70" y2="39.5" stroke="#343A3F"/>
<path d="M265 41L269 39.5L265 38V41Z" fill="#343A3F"/>
<line x1="265" y1="39.5" x2="204" y2="39.5" stroke="#343A3F"/>
<path d="M265 94L269 92.5L265 91V94Z" fill="#343A3F"/>
<line x1="265" y1="92.5" x2="226" y2="92.5" stroke="#343A3F"/>
<path d="M238 200.5H229.5H225.547C222.768 200.5 220.521 198.233 220.548 195.453L220.952 152.547C220.979 149.767 218.732 147.5 215.953 147.5H212.5H204" stroke="#343A3F"/>
<path d="M265 149L269 147.5L265 146V149Z" fill="#343A3F"/>
<line x1="265" y1="147.5" x2="204" y2="147.5" stroke="#343A3F"/>
<path d="M265 202L269 200.5L265 199V202Z" fill="#343A3F"/>
<line x1="265" y1="200.5" x2="226" y2="200.5" stroke="#343A3F"/>
<path d="M139 149L143 147.5L139 146V149Z" fill="#343A3F"/>
<line x1="139" y1="147.5" x2="108" y2="147.5" stroke="#343A3F"/>
</svg>
