<svg width="580" height="248" viewBox="0 0 580 248" fill="none" xmlns="http://www.w3.org/2000/svg">
<rect width="580" height="248" fill="white"/>
<rect opacity="0.4" y="217" width="580" height="31" fill="#F2F4F8"/>
<rect opacity="0.4" y="155" width="580" height="31" fill="#F2F4F8"/>
<rect opacity="0.4" y="93" width="580" height="31" fill="#F2F4F8"/>
<rect opacity="0.4" y="31" width="580" height="31" fill="#F2F4F8"/>
<rect x="0.5" y="0.5" width="579" height="247" stroke="#DDE1E6"/>
<path fill-rule="evenodd" clip-rule="evenodd" d="M140.4 58.1998H141.6C142.594 58.1998 143.4 57.3939 143.4 56.3998V51.5998C143.4 50.6057 142.594 49.7998 141.6 49.7998H140.4C139.405 49.7998 138.6 50.6057 138.6 51.5998V56.3998C138.6 57.3939 139.405 58.1998 140.4 58.1998ZM139.8 51.5998C139.8 51.2684 140.068 50.9998 140.4 50.9998H141.6C141.931 50.9998 142.2 51.2684 142.2 51.5998V56.3998C142.2 56.7312 141.931 56.9998 141.6 56.9998H140.4C140.068 56.9998 139.8 56.7312 139.8 56.3998V51.5998Z" fill="#161616"/>
<path d="M146.054 60L145 59.46L147.68 54L145 48.54L146.054 48L149 54L146.054 60V60Z" fill="#161616"/>
<rect x="135" y="48" width="1" height="12" fill="#161616"/>
<line x1="157" y1="53.5" x2="345" y2="53.5" stroke="black"/>
<path fill-rule="evenodd" clip-rule="evenodd" d="M140.4 106.2H141.6C142.594 106.2 143.4 105.394 143.4 104.4V99.5998C143.4 98.6057 142.594 97.7998 141.6 97.7998H140.4C139.405 97.7998 138.6 98.6057 138.6 99.5998V104.4C138.6 105.394 139.405 106.2 140.4 106.2ZM139.8 99.5998C139.8 99.2684 140.068 98.9998 140.4 98.9998H141.6C141.931 98.9998 142.2 99.2684 142.2 99.5998V104.4C142.2 104.731 141.931 105 141.6 105H140.4C140.068 105 139.8 104.731 139.8 104.4V99.5998Z" fill="#161616"/>
<path d="M146.054 108L145 107.46L147.68 102L145 96.54L146.054 96L149 102L146.054 108V108Z" fill="#161616"/>
<rect x="135" y="96" width="1" height="12" fill="#161616"/>
<line x1="157" y1="101.5" x2="345" y2="101.5" stroke="black"/>
<path fill-rule="evenodd" clip-rule="evenodd" d="M140.4 154.2H141.6C142.594 154.2 143.4 153.394 143.4 152.4V147.6C143.4 146.606 142.594 145.8 141.6 145.8H140.4C139.405 145.8 138.6 146.606 138.6 147.6V152.4C138.6 153.394 139.405 154.2 140.4 154.2ZM139.8 147.6C139.8 147.268 140.068 147 140.4 147H141.6C141.931 147 142.2 147.268 142.2 147.6V152.4C142.2 152.731 141.931 153 141.6 153H140.4C140.068 153 139.8 152.731 139.8 152.4V147.6Z" fill="#161616"/>
<path d="M146.054 156L145 155.46L147.68 150L145 144.54L146.054 144L149 150L146.054 156V156Z" fill="#161616"/>
<rect x="135" y="144" width="1" height="12" fill="#161616"/>
<line x1="157" y1="149.5" x2="345" y2="149.5" stroke="black"/>
<rect x="248" y="85" width="32" height="32" rx="16" fill="#1192E8"/>
<path d="M265 100V92H263V100H255V102H263V110H265V102H273V100H265V100Z" fill="white"/>
<rect x="258" y="47" width="12" height="12" rx="6" fill="#1192E8"/>
<line x1="264" y1="87" x2="264" y2="58" stroke="#1192E8" stroke-width="2"/>
<rect x="290" y="134" width="32" height="32" rx="16" fill="#1192E8"/>
<path d="M307 149V141H305V149H297V151H305V159H307V151H315V149H307V149Z" fill="white"/>
<rect x="300" y="96" width="12" height="12" rx="6" fill="#1192E8"/>
<line x1="306" y1="136" x2="306" y2="107" stroke="#1192E8" stroke-width="2"/>
<line x1="405" y1="53.5" x2="509" y2="53.5" stroke="black"/>
<line x1="405" y1="101.5" x2="509" y2="101.5" stroke="black"/>
<line x1="405" y1="149.5" x2="509" y2="149.5" stroke="black"/>
<rect x="174" y="38" width="55" height="32" fill="#6929C4"/>
<path d="M183.473 55.6H186.407L189.125 61H190.835L187.955 55.456C189.593 55.078 190.475 53.836 190.475 52C190.475 49.714 189.161 48.436 186.965 48.436H181.961V61H183.473V55.6ZM183.473 54.304V49.768H186.965C188.153 49.768 188.855 50.416 188.855 51.568V52.504C188.855 53.656 188.153 54.304 186.965 54.304H183.473ZM196.734 58.03L196.23 59.542H196.14L195.708 58.03L193.476 51.712H192.036L195.51 61.36L194.808 63.34H193.35V64.6H194.088C195.456 64.6 195.834 64.276 196.248 63.16L200.406 51.712H198.984L196.734 58.03Z" fill="white"/>
<path d="M206.402 60.8801C206.402 60.8352 206.402 60.8052 206.147 60.5504C204.648 59.037 203.809 56.5644 203.809 53.5075C203.809 50.6004 204.513 48.0979 206.252 46.3297C206.402 46.1948 206.402 46.1648 206.402 46.1199C206.402 46.03 206.327 46 206.267 46C206.072 46 204.843 47.0789 204.109 48.5475C203.345 50.0609 203 51.6643 203 53.5075C203 54.8412 203.21 56.6244 203.989 58.2278C204.873 60.026 206.102 61 206.267 61C206.327 61 206.402 60.97 206.402 60.8801Z" fill="white"/>
<path d="M213.876 49.7014C213.876 48.173 213.396 46.6895 212.168 46.6895C210.07 46.6895 207.837 51.0801 207.837 54.3768C207.837 55.0661 207.987 57.3888 209.56 57.3888C211.598 57.3888 213.876 53.103 213.876 49.7014ZM209.335 51.8143C209.56 50.9302 209.875 49.6715 210.474 48.6075C210.969 47.7084 211.493 46.9892 212.153 46.9892C212.647 46.9892 212.977 47.4087 212.977 48.8473C212.977 49.3868 212.932 50.136 212.497 51.8143H209.335ZM212.392 52.2639C212.018 53.7324 211.703 54.6765 211.164 55.6205C210.729 56.3848 210.205 57.0891 209.575 57.0891C209.111 57.0891 208.736 56.7294 208.736 55.2459C208.736 54.2719 208.976 53.2529 209.216 52.2639H212.392Z" fill="white"/>
<path d="M218.96 56.2993C218.96 55.2304 218.85 54.581 218.52 53.9417C218.081 53.0626 217.272 52.8428 216.722 52.8428C215.463 52.8428 215.004 53.7818 214.864 54.0616C214.504 54.7908 214.484 55.7798 214.484 56.2993C214.484 56.9587 214.514 57.9676 214.994 58.7669C215.453 59.5061 216.193 59.6959 216.722 59.6959C217.202 59.6959 218.061 59.5461 218.56 58.5571C218.93 57.8378 218.96 56.9487 218.96 56.2993ZM216.722 59.4162C216.382 59.4162 215.693 59.2564 215.483 58.2074C215.373 57.638 215.373 56.6989 215.373 56.1794C215.373 55.4901 215.373 54.7908 215.483 54.2414C215.693 53.2224 216.472 53.1225 216.722 53.1225C217.062 53.1225 217.751 53.2923 217.951 54.2014C218.071 54.7509 218.071 55.5001 218.071 56.1794C218.071 56.7688 218.071 57.6679 217.951 58.2274C217.741 59.2763 217.052 59.4162 216.722 59.4162Z" fill="white"/>
<path d="M224.233 53.5075C224.233 52.3686 224.083 50.5105 223.244 48.7722C222.36 46.974 221.131 46 220.966 46C220.906 46 220.831 46.03 220.831 46.1199C220.831 46.1648 220.831 46.1948 221.086 46.4496C222.584 47.963 223.423 50.4356 223.423 53.4925C223.423 56.3996 222.719 58.9021 220.981 60.6703C220.831 60.8052 220.831 60.8352 220.831 60.8801C220.831 60.97 220.906 61 220.966 61C221.161 61 222.389 59.9211 223.124 58.4525C223.888 56.9241 224.233 55.3057 224.233 53.5075Z" fill="white"/>
<rect x="174" y="86" width="55" height="32" fill="#6929C4"/>
<path d="M183.473 103.6H186.407L189.125 109H190.835L187.955 103.456C189.593 103.078 190.475 101.836 190.475 100C190.475 97.714 189.161 96.436 186.965 96.436H181.961V109H183.473V103.6ZM183.473 102.304V97.768H186.965C188.153 97.768 188.855 98.416 188.855 99.568V100.504C188.855 101.656 188.153 102.304 186.965 102.304H183.473ZM196.734 106.03L196.23 107.542H196.14L195.708 106.03L193.476 99.712H192.036L195.51 109.36L194.808 111.34H193.35V112.6H194.088C195.456 112.6 195.834 112.276 196.248 111.16L200.406 99.712H198.984L196.734 106.03Z" fill="white"/>
<path d="M206.402 108.88C206.402 108.835 206.402 108.805 206.147 108.55C204.648 107.037 203.809 104.564 203.809 101.507C203.809 98.6004 204.513 96.0979 206.252 94.3297C206.402 94.1948 206.402 94.1648 206.402 94.1199C206.402 94.03 206.327 94 206.267 94C206.072 94 204.843 95.0789 204.109 96.5475C203.345 98.0609 203 99.6643 203 101.507C203 102.841 203.21 104.624 203.989 106.228C204.873 108.026 206.102 109 206.267 109C206.327 109 206.402 108.97 206.402 108.88Z" fill="white"/>
<path d="M213.876 97.7014C213.876 96.173 213.396 94.6895 212.168 94.6895C210.07 94.6895 207.837 99.0801 207.837 102.377C207.837 103.066 207.987 105.389 209.56 105.389C211.598 105.389 213.876 101.103 213.876 97.7014ZM209.335 99.8143C209.56 98.9302 209.875 97.6715 210.474 96.6075C210.969 95.7084 211.493 94.9892 212.153 94.9892C212.647 94.9892 212.977 95.4087 212.977 96.8473C212.977 97.3868 212.932 98.136 212.497 99.8143H209.335ZM212.392 100.264C212.018 101.732 211.703 102.676 211.164 103.621C210.729 104.385 210.205 105.089 209.575 105.089C209.111 105.089 208.736 104.729 208.736 103.246C208.736 102.272 208.976 101.253 209.216 100.264H212.392Z" fill="white"/>
<path d="M217.212 101.122C217.212 100.853 217.192 100.843 216.922 100.843C216.513 101.242 215.983 101.482 215.034 101.482V101.812C215.304 101.812 215.843 101.812 216.423 101.542V106.667C216.423 107.037 216.393 107.156 215.444 107.156H215.094V107.486C215.504 107.456 216.363 107.456 216.812 107.456C217.262 107.456 218.131 107.456 218.541 107.486V107.156H218.191C217.242 107.156 217.212 107.037 217.212 106.667V101.122Z" fill="white"/>
<path d="M224.233 101.507C224.233 100.369 224.083 98.5105 223.244 96.7722C222.36 94.974 221.131 94 220.966 94C220.906 94 220.831 94.03 220.831 94.1199C220.831 94.1648 220.831 94.1948 221.086 94.4496C222.584 95.963 223.423 98.4356 223.423 101.493C223.423 104.4 222.719 106.902 220.981 108.67C220.831 108.805 220.831 108.835 220.831 108.88C220.831 108.97 220.906 109 220.966 109C221.161 109 222.389 107.921 223.124 106.453C223.888 104.924 224.233 103.306 224.233 101.507Z" fill="white"/>
<rect x="174" y="134" width="55" height="32" fill="#6929C4"/>
<path d="M182.473 151.6H185.407L188.125 157H189.835L186.955 151.456C188.593 151.078 189.475 149.836 189.475 148C189.475 145.714 188.161 144.436 185.965 144.436H180.961V157H182.473V151.6ZM182.473 150.304V145.768H185.965C187.153 145.768 187.855 146.416 187.855 147.568V148.504C187.855 149.656 187.153 150.304 185.965 150.304H182.473ZM195.734 154.03L195.23 155.542H195.14L194.708 154.03L192.476 147.712H191.036L194.51 157.36L193.808 159.34H192.35V160.6H193.088C194.456 160.6 194.834 160.276 195.248 159.16L199.406 147.712H197.984L195.734 154.03Z" fill="white"/>
<path d="M205.549 156.88C205.549 156.835 205.549 156.805 205.285 156.55C203.73 155.037 202.859 152.564 202.859 149.507C202.859 146.6 203.59 144.098 205.393 142.33C205.549 142.195 205.549 142.165 205.549 142.12C205.549 142.03 205.471 142 205.409 142C205.207 142 203.932 143.079 203.17 144.547C202.377 146.061 202.019 147.664 202.019 149.507C202.019 150.841 202.237 152.624 203.045 154.228C203.963 156.026 205.238 157 205.409 157C205.471 157 205.549 156.97 205.549 156.88Z" fill="white"/>
<path d="M213.305 145.701C213.305 144.173 212.807 142.689 211.532 142.689C209.355 142.689 207.038 147.08 207.038 150.377C207.038 151.066 207.194 153.389 208.826 153.389C210.941 153.389 213.305 149.103 213.305 145.701ZM208.593 147.814C208.826 146.93 209.153 145.671 209.775 144.608C210.288 143.708 210.832 142.989 211.517 142.989C212.03 142.989 212.372 143.409 212.372 144.847C212.372 145.387 212.325 146.136 211.874 147.814H208.593ZM211.765 148.264C211.377 149.732 211.05 150.676 210.49 151.621C210.039 152.385 209.495 153.089 208.842 153.089C208.36 153.089 207.971 152.729 207.971 151.246C207.971 150.272 208.22 149.253 208.469 148.264H211.765Z" fill="white"/>
<path d="M216.436 153.448C216.601 153.298 217.037 152.969 217.203 152.829C217.845 152.259 218.457 151.71 218.457 150.801C218.457 149.612 217.42 148.843 216.125 148.843C214.881 148.843 214.062 149.752 214.062 150.641C214.062 151.13 214.466 151.2 214.611 151.2C214.829 151.2 215.15 151.051 215.15 150.671C215.15 150.151 214.632 150.151 214.507 150.151C214.808 149.422 215.503 149.172 216.011 149.172C216.975 149.172 217.472 149.962 217.472 150.801C217.472 151.84 216.715 152.599 215.492 153.808L214.186 155.107C214.062 155.216 214.062 155.236 214.062 155.486H218.156L218.457 153.698H218.136C218.105 153.898 218.022 154.397 217.897 154.587C217.835 154.667 217.047 154.667 216.881 154.667H215.036L216.436 153.448Z" fill="white"/>
<path d="M224.052 149.507C224.052 148.369 223.897 146.51 223.026 144.772C222.109 142.974 220.833 142 220.662 142C220.6 142 220.522 142.03 220.522 142.12C220.522 142.165 220.522 142.195 220.787 142.45C222.342 143.963 223.213 146.436 223.213 149.493C223.213 152.4 222.482 154.902 220.678 156.67C220.522 156.805 220.522 156.835 220.522 156.88C220.522 156.97 220.6 157 220.662 157C220.865 157 222.14 155.921 222.902 154.453C223.695 152.924 224.052 151.306 224.052 149.507Z" fill="white"/>
<rect x="427" y="38" width="55" height="32" fill="#6929C4"/>
<path d="M435.473 55.6H438.407L441.125 61H442.835L439.955 55.456C441.593 55.078 442.475 53.836 442.475 52C442.475 49.714 441.161 48.436 438.965 48.436H433.961V61H435.473V55.6ZM435.473 54.304V49.768H438.965C440.153 49.768 440.855 50.416 440.855 51.568V52.504C440.855 53.656 440.153 54.304 438.965 54.304H435.473ZM448.734 58.03L448.23 59.542H448.14L447.708 58.03L445.476 51.712H444.036L447.51 61.36L446.808 63.34H445.35V64.6H446.088C447.456 64.6 447.834 64.276 448.248 63.16L452.406 51.712H450.984L448.734 58.03Z" fill="white"/>
<path d="M458.402 60.8801C458.402 60.8352 458.402 60.8052 458.147 60.5504C456.648 59.037 455.809 56.5644 455.809 53.5075C455.809 50.6004 456.513 48.0979 458.252 46.3297C458.402 46.1948 458.402 46.1648 458.402 46.1199C458.402 46.03 458.327 46 458.267 46C458.072 46 456.843 47.0789 456.109 48.5475C455.345 50.0609 455 51.6643 455 53.5075C455 54.8412 455.21 56.6244 455.989 58.2278C456.873 60.026 458.102 61 458.267 61C458.327 61 458.402 60.97 458.402 60.8801Z" fill="white"/>
<path d="M465.876 49.7014C465.876 48.173 465.396 46.6895 464.168 46.6895C462.07 46.6895 459.837 51.0801 459.837 54.3768C459.837 55.0661 459.987 57.3888 461.56 57.3888C463.598 57.3888 465.876 53.103 465.876 49.7014ZM461.335 51.8143C461.56 50.9302 461.875 49.6715 462.474 48.6075C462.969 47.7084 463.493 46.9892 464.153 46.9892C464.647 46.9892 464.977 47.4087 464.977 48.8473C464.977 49.3868 464.932 50.136 464.497 51.8143H461.335ZM464.392 52.2639C464.018 53.7324 463.703 54.6765 463.164 55.6205C462.729 56.3848 462.205 57.0891 461.575 57.0891C461.111 57.0891 460.736 56.7294 460.736 55.2459C460.736 54.2719 460.976 53.2529 461.216 52.2639H464.392Z" fill="white"/>
<path d="M468.073 57.8483C468.103 57.6984 468.203 57.3188 468.233 57.169C468.373 56.6295 468.373 56.6195 468.603 56.2898C468.932 55.8003 469.402 55.3608 470.071 55.3608C470.431 55.3608 470.641 55.5706 470.641 56.0401C470.641 56.5895 470.221 57.7284 470.031 58.2179C469.901 58.5476 469.901 58.6075 469.901 58.7374C469.901 59.3068 470.371 59.5865 470.801 59.5865C471.78 59.5865 472.189 58.1879 472.189 58.0581C472.189 57.9582 472.109 57.9282 472.039 57.9282C471.919 57.9282 471.899 57.9981 471.87 58.098C471.63 58.9172 471.21 59.3068 470.831 59.3068C470.671 59.3068 470.591 59.2069 470.591 58.9772C470.591 58.7474 470.671 58.5276 470.771 58.2779C470.92 57.8982 471.36 56.7494 471.36 56.1899C471.36 55.4407 470.841 55.0811 470.121 55.0811C469.312 55.0811 468.793 55.5706 468.503 55.9502C468.433 55.4007 467.993 55.0811 467.484 55.0811C467.124 55.0811 466.875 55.3108 466.715 55.6205C466.475 56.09 466.375 56.5895 466.375 56.6095C466.375 56.6994 466.445 56.7394 466.525 56.7394C466.655 56.7394 466.665 56.6994 466.735 56.4397C466.855 55.9502 467.034 55.3608 467.454 55.3608C467.714 55.3608 467.774 55.6105 467.774 55.8303C467.774 56.0101 467.724 56.1999 467.644 56.5296C467.624 56.6095 467.474 57.1989 467.434 57.3388L467.064 58.8373C467.024 58.9871 466.964 59.2369 466.964 59.2769C466.964 59.5066 467.154 59.5865 467.284 59.5865C467.464 59.5865 467.614 59.4667 467.684 59.3468C467.714 59.2868 467.794 58.9472 467.844 58.7374L468.073 57.8483Z" fill="white"/>
<path d="M477.365 53.5075C477.365 52.3686 477.216 50.5105 476.376 48.7722C475.492 46.974 474.264 46 474.099 46C474.039 46 473.964 46.03 473.964 46.1199C473.964 46.1648 473.964 46.1948 474.219 46.4496C475.717 47.963 476.556 50.4356 476.556 53.4925C476.556 56.3996 475.852 58.9021 474.114 60.6703C473.964 60.8052 473.964 60.8352 473.964 60.8801C473.964 60.97 474.039 61 474.099 61C474.294 61 475.522 59.9211 476.257 58.4525C477.021 56.9241 477.365 55.3057 477.365 53.5075Z" fill="white"/>
<rect x="427" y="86" width="70" height="32" fill="#6929C4"/>
<path d="M435.473 103.6H438.407L441.125 109H442.835L439.955 103.456C441.593 103.078 442.475 101.836 442.475 100C442.475 97.714 441.161 96.436 438.965 96.436H433.961V109H435.473V103.6ZM435.473 102.304V97.768H438.965C440.153 97.768 440.855 98.416 440.855 99.568V100.504C440.855 101.656 440.153 102.304 438.965 102.304H435.473ZM448.734 106.03L448.23 107.542H448.14L447.708 106.03L445.476 99.712H444.036L447.51 109.36L446.808 111.34H445.35V112.6H446.088C447.456 112.6 447.834 112.276 448.248 111.16L452.406 99.712H450.984L448.734 106.03Z" fill="white"/>
<path d="M459.402 108.88C459.402 108.835 459.402 108.805 459.147 108.55C457.648 107.037 456.809 104.564 456.809 101.507C456.809 98.6004 457.513 96.0979 459.252 94.3297C459.402 94.1948 459.402 94.1648 459.402 94.1199C459.402 94.03 459.327 94 459.267 94C459.072 94 457.843 95.0789 457.109 96.5475C456.345 98.0609 456 99.6643 456 101.507C456 102.841 456.21 104.624 456.989 106.228C457.873 108.026 459.102 109 459.267 109C459.327 109 459.402 108.97 459.402 108.88Z" fill="white"/>
<path d="M466.876 97.7014C466.876 96.173 466.396 94.6895 465.168 94.6895C463.07 94.6895 460.837 99.0801 460.837 102.377C460.837 103.066 460.987 105.389 462.56 105.389C464.598 105.389 466.876 101.103 466.876 97.7014ZM462.335 99.8143C462.56 98.9302 462.875 97.6715 463.474 96.6075C463.969 95.7084 464.493 94.9892 465.153 94.9892C465.647 94.9892 465.977 95.4087 465.977 96.8473C465.977 97.3868 465.932 98.136 465.497 99.8143H462.335ZM465.392 100.264C465.018 101.732 464.703 102.676 464.164 103.621C463.729 104.385 463.205 105.089 462.575 105.089C462.111 105.089 461.736 104.729 461.736 103.246C461.736 102.272 461.976 101.253 462.216 100.264H465.392Z" fill="white"/>
<path d="M469.073 105.848C469.103 105.698 469.203 105.319 469.233 105.169C469.373 104.63 469.373 104.62 469.603 104.29C469.932 103.8 470.402 103.361 471.071 103.361C471.431 103.361 471.641 103.571 471.641 104.04C471.641 104.59 471.221 105.728 471.031 106.218C470.901 106.548 470.901 106.608 470.901 106.737C470.901 107.307 471.371 107.587 471.801 107.587C472.78 107.587 473.189 106.188 473.189 106.058C473.189 105.958 473.109 105.928 473.039 105.928C472.919 105.928 472.899 105.998 472.87 106.098C472.63 106.917 472.21 107.307 471.831 107.307C471.671 107.307 471.591 107.207 471.591 106.977C471.591 106.747 471.671 106.528 471.771 106.278C471.92 105.898 472.36 104.749 472.36 104.19C472.36 103.441 471.841 103.081 471.121 103.081C470.312 103.081 469.793 103.571 469.503 103.95C469.433 103.401 468.993 103.081 468.484 103.081C468.124 103.081 467.875 103.311 467.715 103.621C467.475 104.09 467.375 104.59 467.375 104.61C467.375 104.699 467.445 104.739 467.525 104.739C467.655 104.739 467.665 104.699 467.735 104.44C467.855 103.95 468.034 103.361 468.454 103.361C468.714 103.361 468.774 103.611 468.774 103.83C468.774 104.01 468.724 104.2 468.644 104.53C468.624 104.61 468.474 105.199 468.434 105.339L468.064 106.837C468.024 106.987 467.964 107.237 467.964 107.277C467.964 107.507 468.154 107.587 468.284 107.587C468.464 107.587 468.614 107.467 468.684 107.347C468.714 107.287 468.794 106.947 468.844 106.737L469.073 105.848Z" fill="white"/>
<path d="M477.872 105.218H480.809C480.949 105.218 481.168 105.218 481.168 104.989C481.168 104.759 480.949 104.759 480.809 104.759H477.872V101.812C477.872 101.672 477.872 101.452 477.642 101.452C477.412 101.452 477.412 101.672 477.412 101.812V104.759H474.465C474.325 104.759 474.105 104.759 474.105 104.989C474.105 105.218 474.325 105.218 474.465 105.218H477.412V108.165C477.412 108.305 477.412 108.525 477.642 108.525C477.872 108.525 477.872 108.305 477.872 108.165V105.218Z" fill="white"/>
<path d="M484.908 101.122C484.908 100.853 484.888 100.843 484.619 100.843C484.209 101.242 483.68 101.482 482.73 101.482V101.812C483 101.812 483.54 101.812 484.119 101.542V106.667C484.119 107.037 484.089 107.156 483.14 107.156H482.79V107.486C483.2 107.456 484.059 107.456 484.509 107.456C484.958 107.456 485.827 107.456 486.237 107.486V107.156H485.887C484.938 107.156 484.908 107.037 484.908 106.667V101.122Z" fill="white"/>
<path d="M491.929 101.507C491.929 100.369 491.779 98.5105 490.94 96.7722C490.056 94.974 488.827 94 488.662 94C488.602 94 488.527 94.03 488.527 94.1199C488.527 94.1648 488.527 94.1948 488.782 94.4496C490.281 95.963 491.12 98.4356 491.12 101.493C491.12 104.4 490.415 106.902 488.677 108.67C488.527 108.805 488.527 108.835 488.527 108.88C488.527 108.97 488.602 109 488.662 109C488.857 109 490.086 107.921 490.82 106.453C491.584 104.924 491.929 103.306 491.929 101.507Z" fill="white"/>
<rect x="427" y="134" width="70" height="32" fill="#6929C4"/>
<path d="M435.473 151.6H438.407L441.125 157H442.835L439.955 151.456C441.593 151.078 442.475 149.836 442.475 148C442.475 145.714 441.161 144.436 438.965 144.436H433.961V157H435.473V151.6ZM435.473 150.304V145.768H438.965C440.153 145.768 440.855 146.416 440.855 147.568V148.504C440.855 149.656 440.153 150.304 438.965 150.304H435.473ZM448.734 154.03L448.23 155.542H448.14L447.708 154.03L445.476 147.712H444.036L447.51 157.36L446.808 159.34H445.35V160.6H446.088C447.456 160.6 447.834 160.276 448.248 159.16L452.406 147.712H450.984L448.734 154.03Z" fill="white"/>
<path d="M459.402 156.88C459.402 156.835 459.402 156.805 459.147 156.55C457.648 155.037 456.809 152.564 456.809 149.507C456.809 146.6 457.513 144.098 459.252 142.33C459.402 142.195 459.402 142.165 459.402 142.12C459.402 142.03 459.327 142 459.267 142C459.072 142 457.843 143.079 457.109 144.547C456.345 146.061 456 147.664 456 149.507C456 150.841 456.21 152.624 456.989 154.228C457.873 156.026 459.102 157 459.267 157C459.327 157 459.402 156.97 459.402 156.88Z" fill="white"/>
<path d="M466.876 145.701C466.876 144.173 466.396 142.689 465.168 142.689C463.07 142.689 460.837 147.08 460.837 150.377C460.837 151.066 460.987 153.389 462.56 153.389C464.598 153.389 466.876 149.103 466.876 145.701ZM462.335 147.814C462.56 146.93 462.875 145.671 463.474 144.608C463.969 143.708 464.493 142.989 465.153 142.989C465.647 142.989 465.977 143.409 465.977 144.847C465.977 145.387 465.932 146.136 465.497 147.814H462.335ZM465.392 148.264C465.018 149.732 464.703 150.676 464.164 151.621C463.729 152.385 463.205 153.089 462.575 153.089C462.111 153.089 461.736 152.729 461.736 151.246C461.736 150.272 461.976 149.253 462.216 148.264H465.392Z" fill="white"/>
<path d="M469.073 153.848C469.103 153.698 469.203 153.319 469.233 153.169C469.373 152.63 469.373 152.62 469.603 152.29C469.932 151.8 470.402 151.361 471.071 151.361C471.431 151.361 471.641 151.571 471.641 152.04C471.641 152.59 471.221 153.728 471.031 154.218C470.901 154.548 470.901 154.608 470.901 154.737C470.901 155.307 471.371 155.587 471.801 155.587C472.78 155.587 473.189 154.188 473.189 154.058C473.189 153.958 473.109 153.928 473.039 153.928C472.919 153.928 472.899 153.998 472.87 154.098C472.63 154.917 472.21 155.307 471.831 155.307C471.671 155.307 471.591 155.207 471.591 154.977C471.591 154.747 471.671 154.528 471.771 154.278C471.92 153.898 472.36 152.749 472.36 152.19C472.36 151.441 471.841 151.081 471.121 151.081C470.312 151.081 469.793 151.571 469.503 151.95C469.433 151.401 468.993 151.081 468.484 151.081C468.124 151.081 467.875 151.311 467.715 151.621C467.475 152.09 467.375 152.59 467.375 152.61C467.375 152.699 467.445 152.739 467.525 152.739C467.655 152.739 467.665 152.699 467.735 152.44C467.855 151.95 468.034 151.361 468.454 151.361C468.714 151.361 468.774 151.611 468.774 151.83C468.774 152.01 468.724 152.2 468.644 152.53C468.624 152.61 468.474 153.199 468.434 153.339L468.064 154.837C468.024 154.987 467.964 155.237 467.964 155.277C467.964 155.507 468.154 155.587 468.284 155.587C468.464 155.587 468.614 155.467 468.684 155.347C468.714 155.287 468.794 154.947 468.844 154.737L469.073 153.848Z" fill="white"/>
<path d="M477.872 153.218H480.809C480.949 153.218 481.168 153.218 481.168 152.989C481.168 152.759 480.949 152.759 480.809 152.759H477.872V149.812C477.872 149.672 477.872 149.452 477.642 149.452C477.412 149.452 477.412 149.672 477.412 149.812V152.759H474.465C474.325 152.759 474.105 152.759 474.105 152.989C474.105 153.218 474.325 153.218 474.465 153.218H477.412V156.165C477.412 156.305 477.412 156.525 477.642 156.525C477.872 156.525 477.872 156.305 477.872 156.165V153.218Z" fill="white"/>
<path d="M484.588 153.448C484.748 153.298 485.168 152.969 485.328 152.829C485.947 152.259 486.537 151.71 486.537 150.801C486.537 149.612 485.538 148.843 484.289 148.843C483.09 148.843 482.301 149.752 482.301 150.641C482.301 151.13 482.69 151.2 482.83 151.2C483.04 151.2 483.35 151.051 483.35 150.671C483.35 150.151 482.85 150.151 482.73 150.151C483.02 149.422 483.689 149.172 484.179 149.172C485.108 149.172 485.587 149.962 485.587 150.801C485.587 151.84 484.858 152.599 483.679 153.808L482.421 155.107C482.301 155.216 482.301 155.236 482.301 155.486H486.247L486.537 153.698H486.227C486.197 153.898 486.117 154.397 485.997 154.587C485.937 154.667 485.178 154.667 485.018 154.667H483.24L484.588 153.448Z" fill="white"/>
<path d="M491.929 149.507C491.929 148.369 491.779 146.51 490.94 144.772C490.056 142.974 488.827 142 488.662 142C488.602 142 488.527 142.03 488.527 142.12C488.527 142.165 488.527 142.195 488.782 142.45C490.281 143.963 491.12 146.436 491.12 149.493C491.12 152.4 490.415 154.902 488.677 156.67C488.527 156.805 488.527 156.835 488.527 156.88C488.527 156.97 488.602 157 488.662 157C488.857 157 490.086 155.921 490.82 154.453C491.584 152.924 491.929 151.306 491.929 149.507Z" fill="white"/>
<line x1="141" y1="184" x2="141" y2="200" stroke="black" stroke-width="2" stroke-linecap="round" stroke-dasharray="0.1 6"/>
<line x1="326.583" y1="176.395" x2="335.913" y2="189.393" stroke="black" stroke-width="2" stroke-linecap="round" stroke-dasharray="0.1 6"/>
<path d="M109 23C99.9333 31.125 109.301 89.2799 101 126.188C107.087 150.625 101 218.812 109 231" stroke="black"/>
<line x1="368" y1="150" x2="384" y2="150" stroke="black" stroke-width="2" stroke-linecap="round" stroke-dasharray="0.1 6"/>
<line x1="368" y1="102" x2="384" y2="102" stroke="black" stroke-width="2" stroke-linecap="round" stroke-dasharray="0.1 6"/>
<line x1="368" y1="54" x2="384" y2="54" stroke="black" stroke-width="2" stroke-linecap="round" stroke-dasharray="0.1 6"/>
<line x1="529" y1="150" x2="545" y2="150" stroke="black" stroke-width="2" stroke-linecap="round" stroke-dasharray="0.1 6"/>
<line x1="529" y1="101" x2="545" y2="101" stroke="black" stroke-width="2" stroke-linecap="round" stroke-dasharray="0.1 6"/>
<line x1="529" y1="54" x2="545" y2="54" stroke="black" stroke-width="2" stroke-linecap="round" stroke-dasharray="0.1 6"/>
<path d="M28.31 129V123.988C28.31 123.064 29.178 122.616 30.074 122.616C31.152 122.616 31.712 123.274 31.712 124.562V129H32.832V124.366C32.832 122.616 31.894 121.608 30.41 121.608C29.332 121.608 28.716 122.14 28.366 122.952H28.31V121.776H27.19V129H28.31ZM43.3956 131.8H44.5156V121.776H43.3956V122.952H43.3396C42.9616 122.042 42.2196 121.608 41.2256 121.608C39.4196 121.608 38.2856 123.078 38.2856 125.388C38.2856 127.698 39.4196 129.168 41.2256 129.168C42.2196 129.168 42.9056 128.72 43.3396 127.824H43.3956V131.8ZM41.5336 128.16C40.2736 128.16 39.4896 127.292 39.4896 126.004V124.772C39.4896 123.484 40.2736 122.616 41.5336 122.616C42.5556 122.616 43.3956 123.204 43.3956 124.002V126.69C43.3956 127.628 42.5556 128.16 41.5336 128.16ZM51.5087 129H52.6287V121.776H51.5087V126.774C51.5087 127.726 50.6407 128.16 49.7587 128.16C48.6807 128.16 48.1067 127.502 48.1067 126.214V121.776H46.9867V126.41C46.9867 128.16 47.9387 129.168 49.4227 129.168C50.6267 129.168 51.1727 128.51 51.4527 127.824H51.5087V129ZM55.1737 129H56.2937V127.824H56.3497C56.7837 128.72 57.4697 129.168 58.4637 129.168C60.2697 129.168 61.4037 127.698 61.4037 125.388C61.4037 123.078 60.2697 121.608 58.4637 121.608C57.4697 121.608 56.7277 122.042 56.3497 122.952H56.2937V118.64H55.1737V129ZM58.1557 128.16C57.1337 128.16 56.2937 127.628 56.2937 126.69V124.002C56.2937 123.204 57.1337 122.616 58.1557 122.616C59.4157 122.616 60.1997 123.484 60.1997 124.772V126.004C60.1997 127.292 59.4157 128.16 58.1557 128.16ZM64.0148 120.082C64.4908 120.082 64.7008 119.83 64.7008 119.452V119.27C64.7008 118.892 64.4908 118.64 64.0148 118.64C63.5388 118.64 63.3288 118.892 63.3288 119.27V119.452C63.3288 119.83 63.5388 120.082 64.0148 120.082ZM63.4548 129H64.5748V121.776H63.4548V129ZM70.1108 129V128.02H68.6408V122.756H70.2228V121.776H68.6408V119.774H67.6328V121.118C67.6328 121.608 67.4788 121.776 67.0028 121.776H66.3308V122.756H67.5208V127.81C67.5208 128.51 67.9408 129 68.7108 129H70.1108ZM74.353 129.168C76.005 129.168 77.027 128.314 77.027 126.914C77.027 125.822 76.411 125.122 74.815 124.884L74.255 124.8C73.359 124.66 72.869 124.38 72.869 123.68C72.869 122.994 73.359 122.56 74.283 122.56C75.207 122.56 75.823 122.994 76.145 123.442L76.887 122.77C76.299 122.042 75.529 121.608 74.367 121.608C72.897 121.608 71.791 122.308 71.791 123.736C71.791 125.08 72.785 125.626 74.115 125.822L74.689 125.906C75.641 126.046 75.949 126.48 75.949 127.04C75.949 127.782 75.389 128.216 74.437 128.216C73.527 128.216 72.855 127.81 72.295 127.11L71.497 127.754C72.141 128.608 73.023 129.168 74.353 129.168Z" fill="black"/>
<path d="M339.31 229V224.1C339.31 223.414 340.038 222.896 341.242 222.896H341.9V221.776H341.466C340.29 221.776 339.632 222.42 339.38 223.106H339.31V221.776H338.19V229H339.31ZM346.138 229.168C347.496 229.168 348.532 228.496 348.994 227.516L348.196 226.942C347.818 227.74 347.118 228.188 346.208 228.188C344.864 228.188 344.066 227.25 344.066 226.004V225.668H349.26V225.136C349.26 223.092 348.07 221.608 346.138 221.608C344.178 221.608 342.89 223.092 342.89 225.388C342.89 227.684 344.178 229.168 346.138 229.168ZM346.138 222.546C347.286 222.546 348.056 223.4 348.056 224.674V224.828H344.066V224.73C344.066 223.47 344.92 222.546 346.138 222.546ZM351.266 231.8H352.386V227.824H352.442C352.876 228.72 353.562 229.168 354.556 229.168C356.362 229.168 357.496 227.698 357.496 225.388C357.496 223.078 356.362 221.608 354.556 221.608C353.562 221.608 352.82 222.042 352.442 222.952H352.386V221.776H351.266V231.8ZM354.248 228.16C353.226 228.16 352.386 227.628 352.386 226.69V224.002C352.386 223.204 353.226 222.616 354.248 222.616C355.508 222.616 356.292 223.484 356.292 224.772V226.004C356.292 227.292 355.508 228.16 354.248 228.16ZM362.263 229.168C363.621 229.168 364.657 228.496 365.119 227.516L364.321 226.942C363.943 227.74 363.243 228.188 362.333 228.188C360.989 228.188 360.191 227.25 360.191 226.004V225.668H365.385V225.136C365.385 223.092 364.195 221.608 362.263 221.608C360.303 221.608 359.015 223.092 359.015 225.388C359.015 227.684 360.303 229.168 362.263 229.168ZM362.263 222.546C363.411 222.546 364.181 223.4 364.181 224.674V224.828H360.191V224.73C360.191 223.47 361.045 222.546 362.263 222.546ZM373.271 229V228.02H372.445V224.044C372.445 222.518 371.409 221.608 369.673 221.608C368.371 221.608 367.503 222.252 367.111 223.022L367.783 223.652C368.175 222.994 368.749 222.574 369.617 222.574C370.765 222.574 371.325 223.134 371.325 224.156V224.87H369.897C367.797 224.87 366.817 225.626 366.817 226.984C366.817 228.328 367.713 229.168 369.239 229.168C370.247 229.168 371.017 228.706 371.325 227.824H371.395C371.479 228.496 371.815 229 372.641 229H373.271ZM369.421 228.216C368.553 228.216 367.993 227.81 367.993 227.096V226.802C367.993 226.102 368.567 225.71 369.841 225.71H371.325V226.9C371.325 227.642 370.527 228.216 369.421 228.216ZM378.025 229V228.02H376.555V222.756H378.137V221.776H376.555V219.774H375.547V221.118C375.547 221.608 375.393 221.776 374.917 221.776H374.245V222.756H375.435V227.81C375.435 228.51 375.855 229 376.625 229H378.025ZM384.686 229V223.988C384.686 223.064 385.554 222.616 386.45 222.616C387.528 222.616 388.088 223.274 388.088 224.562V229H389.208V224.366C389.208 222.616 388.27 221.608 386.786 221.608C385.708 221.608 385.092 222.14 384.742 222.952H384.686V221.776H383.566V229H384.686ZM398.147 229V228.02H396.677V222.756H398.259V221.776H396.677V219.774H395.669V221.118C395.669 221.608 395.515 221.776 395.039 221.776H394.367V222.756H395.557V227.81C395.557 228.51 395.977 229 396.747 229H398.147ZM400.78 220.082C401.256 220.082 401.466 219.83 401.466 219.452V219.27C401.466 218.892 401.256 218.64 400.78 218.64C400.304 218.64 400.094 218.892 400.094 219.27V219.452C400.094 219.83 400.304 220.082 400.78 220.082ZM400.22 229H401.34V221.776H400.22V229ZM405 229V223.988C405 223.064 405.84 222.616 406.722 222.616C407.786 222.616 408.276 223.274 408.276 224.562V229H409.396V223.988C409.396 223.064 410.208 222.616 411.09 222.616C412.182 222.616 412.672 223.288 412.672 224.562V229H413.792V224.366C413.792 222.616 412.91 221.608 411.44 221.608C410.208 221.608 409.508 222.294 409.242 223.078H409.214C408.822 222.042 407.954 221.608 407.002 221.608C405.882 221.608 405.378 222.21 405.056 222.952H405V221.776H403.88V229H405ZM418.978 229.168C420.336 229.168 421.372 228.496 421.834 227.516L421.036 226.942C420.658 227.74 419.958 228.188 419.048 228.188C417.704 228.188 416.906 227.25 416.906 226.004V225.668H422.1V225.136C422.1 223.092 420.91 221.608 418.978 221.608C417.018 221.608 415.73 223.092 415.73 225.388C415.73 227.684 417.018 229.168 418.978 229.168ZM418.978 222.546C420.126 222.546 420.896 223.4 420.896 224.674V224.828H416.906V224.73C416.906 223.47 417.76 222.546 418.978 222.546ZM426.276 229.168C427.928 229.168 428.95 228.314 428.95 226.914C428.95 225.822 428.334 225.122 426.738 224.884L426.178 224.8C425.282 224.66 424.792 224.38 424.792 223.68C424.792 222.994 425.282 222.56 426.206 222.56C427.13 222.56 427.746 222.994 428.068 223.442L428.81 222.77C428.222 222.042 427.452 221.608 426.29 221.608C424.82 221.608 423.714 222.308 423.714 223.736C423.714 225.08 424.708 225.626 426.038 225.822L426.612 225.906C427.564 226.046 427.872 226.48 427.872 227.04C427.872 227.782 427.312 228.216 426.36 228.216C425.45 228.216 424.778 227.81 424.218 227.11L423.42 227.754C424.064 228.608 424.946 229.168 426.276 229.168Z" fill="black"/>
<rect x="241.5" y="23.5" width="275" height="180" rx="4.5" stroke="black" stroke-dasharray="6 6"/>
</svg>
