<svg width="503" height="359" viewBox="0 0 503 359" fill="none" xmlns="http://www.w3.org/2000/svg">
<rect opacity="0.4" x="4.04395" y="305.328" width="481.181" height="45.5546" fill="#F2F4F8"/>
<rect opacity="0.4" x="4.04395" y="214.219" width="481.181" height="45.5546" fill="#F2F4F8"/>
<rect opacity="0.4" x="4.04395" y="123.109" width="481.181" height="45.5546" fill="#F2F4F8"/>
<rect opacity="0.4" x="4.04395" y="32" width="481.181" height="45.5546" fill="#F2F4F8"/>
<line x1="125.343" y1="32" x2="125.343" y2="350.882" stroke="#DDE1E6"/>
<line x1="245.135" y1="32" x2="245.135" y2="350.882" stroke="#DDE1E6"/>
<line x1="364.926" y1="32" x2="364.926" y2="350.882" stroke="#DDE1E6"/>
<rect x="4.54395" y="32.5" width="480.181" height="317.882" stroke="#DDE1E6"/>
<path d="M88.6221 93.7192C127.911 173.89 139.483 224.015 171.486 298.307" stroke="#0F62FE"/>
<path d="M25.7598 104.006C54.0735 62.5772 67.9689 59.1339 88.6219 94.2906" stroke="#0F62FE"/>
<path d="M171.486 298.307C187.345 327.794 200.011 325.843 228.062 296.021" stroke="#0F62FE"/>
<path d="M228.062 296.021C263.554 263.195 287.495 245.16 314.926 245.16" stroke="#0F62FE"/>
<path d="M314.926 245.16C341.214 245.731 356.072 225.158 391.503 196.584" stroke="#0F62FE"/>
<path d="M391.503 196.584C410.552 181.056 422.162 177.688 443.507 175.44" stroke="#0F62FE"/>
<circle cx="196.631" cy="318.308" r="4.00032" fill="#A56EFF"/>
<circle cx="205.774" cy="314.879" r="4.00032" fill="#A56EFF"/>
<path d="M205.368 315.923C205.629 315.832 205.766 315.546 205.675 315.286L204.188 311.038C204.097 310.778 203.812 310.64 203.551 310.732C203.29 310.823 203.153 311.108 203.244 311.369L204.566 315.144L200.79 316.465C200.53 316.557 200.392 316.842 200.484 317.103C200.575 317.363 200.86 317.501 201.121 317.409L205.368 315.923ZM174.126 301.043L176.055 301.972L176.489 301.071L174.56 300.142L174.126 301.043ZM179.913 303.829L183.77 305.686L184.204 304.785L180.346 302.928L179.913 303.829ZM187.627 307.544L191.485 309.401L191.919 308.5L188.061 306.643L187.627 307.544ZM195.342 311.258L199.2 313.115L199.634 312.214L195.776 310.357L195.342 311.258ZM203.057 314.973L204.986 315.901L205.42 315L203.491 314.072L203.057 314.973Z" fill="black"/>
<circle cx="171.486" cy="298.878" r="4.00032" fill="#A56EFF"/>
<path d="M171.86 299.909C172.114 300.018 172.408 299.901 172.517 299.647L174.29 295.511C174.398 295.257 174.281 294.963 174.027 294.854C173.773 294.745 173.479 294.863 173.371 295.117L171.795 298.793L168.118 297.218C167.864 297.109 167.571 297.226 167.462 297.48C167.353 297.734 167.471 298.028 167.724 298.137L171.86 299.909ZM141.877 225.344L142.619 227.201L143.548 226.83L142.805 224.973L141.877 225.344ZM144.105 230.916L145.591 234.63L146.52 234.259L145.034 230.544L144.105 230.916ZM147.077 238.345L148.563 242.06L149.491 241.688L148.005 237.974L147.077 238.345ZM150.049 245.774L151.534 249.489L152.463 249.117L150.977 245.403L150.049 245.774ZM153.02 253.203L154.506 256.918L155.435 256.546L153.949 252.832L153.02 253.203ZM155.992 260.632L157.478 264.347L158.406 263.976L156.92 260.261L155.992 260.632ZM158.964 268.062L160.449 271.776L161.378 271.405L159.892 267.69L158.964 268.062ZM161.935 275.491L163.421 279.205L164.35 278.834L162.864 275.119L161.935 275.491ZM164.907 282.92L166.393 286.634L167.321 286.263L165.835 282.548L164.907 282.92ZM167.879 290.349L169.364 294.064L170.293 293.692L168.807 289.978L167.879 290.349ZM170.85 297.778L171.593 299.635L172.522 299.264L171.779 297.407L170.85 297.778Z" fill="black"/>
<circle cx="144.055" cy="230.301" r="4.00032" fill="#A56EFF"/>
<path d="M144.422 230.186C144.674 230.299 144.97 230.186 145.083 229.934L146.924 225.828C147.037 225.576 146.924 225.28 146.672 225.167C146.42 225.054 146.124 225.167 146.011 225.419L144.375 229.069L140.725 227.433C140.473 227.32 140.177 227.433 140.064 227.685C139.951 227.937 140.064 228.232 140.316 228.345L144.422 230.186ZM116.729 157.902L117.414 159.702L118.349 159.346L117.663 157.546L116.729 157.902ZM118.786 163.303L120.157 166.903L121.092 166.547L119.72 162.947L118.786 163.303ZM121.529 170.503L122.9 174.103L123.835 173.747L122.463 170.147L121.529 170.503ZM124.272 177.704L125.644 181.304L126.578 180.948L125.206 177.348L124.272 177.704ZM127.015 184.904L128.387 188.505L129.321 188.149L127.95 184.548L127.015 184.904ZM129.758 192.105L131.13 195.705L132.064 195.349L130.693 191.749L129.758 192.105ZM132.501 199.305L133.873 202.906L134.807 202.55L133.436 198.949L132.501 199.305ZM135.244 206.506L136.616 210.106L137.55 209.75L136.179 206.15L135.244 206.506ZM137.987 213.707L139.359 217.307L140.293 216.951L138.922 213.351L137.987 213.707ZM140.73 220.907L142.102 224.507L143.036 224.151L141.665 220.551L140.73 220.907ZM143.474 228.108L144.159 229.908L145.094 229.552L144.408 227.752L143.474 228.108Z" fill="black"/>
<circle cx="116.624" cy="156.01" r="4.00032" fill="#A56EFF"/>
<path d="M117.023 155.908C117.283 156.003 117.57 155.87 117.665 155.611L119.216 151.386C119.311 151.127 119.178 150.84 118.919 150.745C118.66 150.649 118.372 150.782 118.277 151.042L116.899 154.797L113.144 153.418C112.884 153.323 112.597 153.456 112.502 153.715C112.407 153.975 112.54 154.262 112.799 154.357L117.023 155.908ZM88.1683 93.9293L88.9621 95.6437L89.8695 95.2236L89.0758 93.5092L88.1683 93.9293ZM90.5495 99.0726L92.1369 102.501L93.0444 102.081L91.4569 98.6524L90.5495 99.0726ZM93.7243 105.93L95.3118 109.359L96.2192 108.939L94.6318 105.51L93.7243 105.93ZM96.8992 112.788L98.4866 116.217L99.3941 115.797L97.8067 112.368L96.8992 112.788ZM100.074 119.646L101.661 123.074L102.569 122.654L100.982 119.225L100.074 119.646ZM103.249 126.503L104.836 129.932L105.744 129.512L104.156 126.083L103.249 126.503ZM106.424 133.361L108.011 136.79L108.919 136.37L107.331 132.941L106.424 133.361ZM109.599 140.219L111.186 143.648L112.093 143.227L110.506 139.799L109.599 140.219ZM112.773 147.076L114.361 150.505L115.268 150.085L113.681 146.656L112.773 147.076ZM115.948 153.934L116.742 155.648L117.649 155.228L116.856 153.514L115.948 153.934Z" fill="black"/>
<circle cx="88.0506" cy="93.1478" r="4.00032" fill="#A56EFF"/>
<path d="M134.295 147.936C134.57 147.961 134.813 147.758 134.838 147.483L135.245 143.001C135.27 142.726 135.068 142.483 134.793 142.458C134.518 142.433 134.274 142.636 134.249 142.911L133.887 146.894L129.904 146.532C129.629 146.507 129.385 146.71 129.36 146.985C129.335 147.26 129.538 147.503 129.813 147.528L134.295 147.936ZM88.238 92.8963L133.956 147.758L134.724 147.118L89.0062 92.2561L88.238 92.8963Z" fill="#8A3FFC"/>
<path d="M4.3975 31.6464C4.20224 31.4511 3.88565 31.4511 3.69039 31.6464L0.508411 34.8283C0.313149 35.0236 0.313149 35.3402 0.508411 35.5355C0.703674 35.7307 1.02026 35.7307 1.21552 35.5355L4.04395 32.707L6.87237 35.5355C7.06763 35.7307 7.38422 35.7307 7.57948 35.5355C7.77474 35.3402 7.77474 35.0236 7.57948 34.8283L4.3975 31.6464ZM4.54395 349.739L4.54395 31.9999H3.54395L3.54395 349.739H4.54395Z" fill="black"/>
<path d="M485.578 350.093C485.774 349.898 485.774 349.581 485.578 349.386L482.396 346.204C482.201 346.008 481.884 346.008 481.689 346.204C481.494 346.399 481.494 346.716 481.689 346.911L484.518 349.739L481.689 352.568C481.494 352.763 481.494 353.08 481.689 353.275C481.884 353.47 482.201 353.47 482.396 353.275L485.578 350.093ZM4.04395 350.239H485.225V349.239H4.04395V350.239Z" fill="black"/>
<path d="M75.0206 109.387C74.3539 109.387 73.8659 109.134 73.5566 108.627C73.2526 108.12 73.1006 107.411 73.1006 106.499C73.1006 105.587 73.2526 104.878 73.5566 104.371C73.8659 103.864 74.3539 103.611 75.0206 103.611C75.6873 103.611 76.1726 103.864 76.4766 104.371C76.7859 104.878 76.9406 105.587 76.9406 106.499C76.9406 107.411 76.7859 108.12 76.4766 108.627C76.1726 109.134 75.6873 109.387 75.0206 109.387ZM75.0206 108.803C75.2393 108.803 75.4259 108.758 75.5806 108.667C75.7353 108.576 75.8606 108.448 75.9566 108.283C76.0526 108.118 76.1219 107.923 76.1646 107.699C76.2126 107.475 76.2366 107.227 76.2366 106.955V106.043C76.2366 105.771 76.2126 105.523 76.1646 105.299C76.1219 105.075 76.0526 104.88 75.9566 104.715C75.8606 104.55 75.7353 104.422 75.5806 104.331C75.4259 104.24 75.2393 104.195 75.0206 104.195C74.8019 104.195 74.6153 104.24 74.4606 104.331C74.3059 104.422 74.1806 104.55 74.0846 104.715C73.9886 104.88 73.9166 105.075 73.8686 105.299C73.8259 105.523 73.8046 105.771 73.8046 106.043V106.955C73.8046 107.227 73.8259 107.475 73.8686 107.699C73.9166 107.923 73.9886 108.118 74.0846 108.283C74.1806 108.448 74.3059 108.576 74.4606 108.667C74.6153 108.758 74.8019 108.803 75.0206 108.803Z" fill="black"/>
<path d="M175.745 163.634C175.245 163.634 174.879 163.444 174.647 163.064C174.419 162.684 174.305 162.152 174.305 161.468C174.305 160.784 174.419 160.252 174.647 159.872C174.879 159.492 175.245 159.302 175.745 159.302C176.245 159.302 176.609 159.492 176.837 159.872C177.069 160.252 177.185 160.784 177.185 161.468C177.185 162.152 177.069 162.684 176.837 163.064C176.609 163.444 176.245 163.634 175.745 163.634ZM175.745 163.196C175.909 163.196 176.049 163.162 176.165 163.094C176.281 163.026 176.375 162.93 176.447 162.806C176.519 162.682 176.571 162.536 176.603 162.368C176.639 162.2 176.657 162.014 176.657 161.81V161.126C176.657 160.922 176.639 160.736 176.603 160.568C176.571 160.4 176.519 160.254 176.447 160.13C176.375 160.006 176.281 159.91 176.165 159.842C176.049 159.774 175.909 159.74 175.745 159.74C175.581 159.74 175.441 159.774 175.325 159.842C175.209 159.91 175.115 160.006 175.043 160.13C174.971 160.254 174.917 160.4 174.881 160.568C174.849 160.736 174.833 160.922 174.833 161.126V161.81C174.833 162.014 174.849 162.2 174.881 162.368C174.917 162.536 174.971 162.682 175.043 162.806C175.115 162.93 175.209 163.026 175.325 163.094C175.441 163.162 175.581 163.196 175.745 163.196Z" fill="#8A3FFC"/>
<path d="M96.184 176.725V176.133H97.744V171.637H97.688L96.28 172.949L95.888 172.525L97.368 171.141H98.416V176.133H99.856V176.725H96.184Z" fill="black"/>
<path d="M126.032 244.159H122.368V243.471L124.192 241.791C124.453 241.551 124.672 241.297 124.848 241.031C125.024 240.759 125.112 240.487 125.112 240.215V240.119C125.112 239.809 125.026 239.559 124.856 239.367C124.685 239.175 124.426 239.079 124.08 239.079C123.909 239.079 123.76 239.103 123.632 239.151C123.504 239.199 123.392 239.265 123.296 239.351C123.205 239.436 123.128 239.537 123.064 239.655C123.005 239.767 122.957 239.889 122.92 240.023L122.32 239.791C122.373 239.625 122.445 239.465 122.536 239.311C122.632 239.151 122.749 239.009 122.888 238.887C123.032 238.764 123.202 238.665 123.4 238.591C123.602 238.516 123.84 238.479 124.112 238.479C124.384 238.479 124.626 238.519 124.84 238.599C125.053 238.679 125.232 238.791 125.376 238.935C125.52 239.079 125.629 239.249 125.704 239.447C125.784 239.644 125.824 239.863 125.824 240.103C125.824 240.321 125.792 240.524 125.728 240.711C125.669 240.897 125.586 241.076 125.48 241.247C125.373 241.412 125.242 241.575 125.088 241.735C124.938 241.895 124.776 242.055 124.6 242.215L123.096 243.567H126.032V244.159Z" fill="black"/>
<path d="M144.429 316.377C144.807 316.377 145.09 316.292 145.277 316.121C145.469 315.945 145.565 315.721 145.565 315.449V315.393C145.565 315.1 145.471 314.881 145.285 314.737C145.103 314.588 144.863 314.513 144.565 314.513C144.277 314.513 144.042 314.577 143.861 314.705C143.679 314.828 143.53 314.996 143.413 315.209L142.917 314.825C142.986 314.713 143.069 314.604 143.165 314.497C143.266 314.385 143.383 314.287 143.517 314.201C143.65 314.116 143.805 314.047 143.981 313.993C144.157 313.94 144.357 313.913 144.581 313.913C144.815 313.913 145.037 313.945 145.245 314.009C145.453 314.068 145.631 314.159 145.781 314.281C145.935 314.399 146.055 314.545 146.141 314.721C146.231 314.897 146.277 315.097 146.277 315.321C146.277 315.503 146.247 315.665 146.189 315.809C146.135 315.953 146.061 316.079 145.965 316.185C145.869 316.292 145.754 316.383 145.621 316.457C145.493 316.532 145.354 316.588 145.205 316.625V316.657C145.354 316.689 145.498 316.743 145.637 316.817C145.781 316.887 145.906 316.98 146.013 317.097C146.125 317.209 146.213 317.348 146.277 317.513C146.346 317.673 146.381 317.857 146.381 318.065C146.381 318.305 146.335 318.527 146.245 318.729C146.154 318.927 146.026 319.097 145.861 319.241C145.695 319.38 145.495 319.489 145.261 319.569C145.026 319.649 144.767 319.689 144.485 319.689C144.245 319.689 144.031 319.663 143.845 319.609C143.658 319.556 143.493 319.484 143.349 319.393C143.205 319.303 143.077 319.201 142.965 319.089C142.858 318.977 142.762 318.86 142.677 318.737L143.181 318.353C143.25 318.465 143.325 318.567 143.405 318.657C143.49 318.748 143.583 318.825 143.685 318.889C143.786 318.953 143.901 319.004 144.029 319.041C144.157 319.073 144.306 319.089 144.477 319.089C144.871 319.089 145.17 319.001 145.373 318.825C145.575 318.644 145.677 318.388 145.677 318.057V317.993C145.677 317.663 145.575 317.409 145.373 317.233C145.17 317.052 144.871 316.961 144.477 316.961H143.821V316.377H144.429Z" fill="black"/>
<path d="M184.042 337.46H181.594L181.434 339.588H181.49C181.623 339.401 181.773 339.252 181.938 339.14C182.109 339.028 182.341 338.972 182.634 338.972C182.874 338.972 183.095 339.012 183.298 339.092C183.501 339.172 183.677 339.287 183.826 339.436C183.975 339.58 184.09 339.759 184.17 339.972C184.255 340.185 184.298 340.428 184.298 340.7C184.298 340.972 184.255 341.223 184.17 341.452C184.085 341.676 183.959 341.871 183.794 342.036C183.634 342.196 183.437 342.321 183.202 342.412C182.973 342.503 182.711 342.548 182.418 342.548C182.183 342.548 181.975 342.521 181.794 342.468C181.618 342.415 181.461 342.343 181.322 342.252C181.183 342.161 181.061 342.06 180.954 341.948C180.853 341.836 180.759 341.719 180.674 341.596L181.178 341.212C181.247 341.324 181.319 341.425 181.394 341.516C181.474 341.607 181.559 341.684 181.65 341.748C181.746 341.812 181.855 341.863 181.978 341.9C182.101 341.932 182.247 341.948 182.418 341.948C182.802 341.948 183.093 341.847 183.29 341.644C183.487 341.441 183.586 341.156 183.586 340.788V340.708C183.586 340.34 183.487 340.055 183.29 339.852C183.093 339.649 182.802 339.548 182.418 339.548C182.162 339.548 181.959 339.596 181.81 339.692C181.666 339.783 181.535 339.892 181.418 340.02L180.85 339.94L181.05 336.868H184.042V337.46Z" fill="black"/>
<path d="M236.776 327.594V326.498H234.08V325.906L236.416 322.01H237.416V325.938H238.224V326.498H237.416V327.594H236.776ZM234.712 325.938H236.776V322.53H236.736L234.712 325.938Z" fill="black"/>
<path d="M150.296 151.513C150.42 151.255 150.42 151.212 150.42 151.127C150.42 150.697 150.028 150.697 149.697 150.697H139.723C139.392 150.697 139 150.697 139 151.127C139 151.212 139.021 151.298 139.103 151.47L144.245 163.073C144.411 163.46 144.576 163.503 144.72 163.503C144.844 163.503 144.947 163.46 145.03 163.374L150.296 151.513ZM140.053 151.556H149.367L144.72 162.064L140.053 151.556Z" fill="#8A3FFC"/>
<path d="M158.202 154.563C158.509 154.563 158.632 154.563 158.632 154.26C158.632 154.1 158.509 154.1 158.233 154.1H156.988C157.28 152.453 157.495 151.319 157.618 150.807C157.71 150.423 158.033 150.056 158.432 150.056C158.755 150.056 159.077 150.2 159.231 150.343C158.632 150.407 158.448 150.871 158.448 151.143C158.448 151.462 158.678 151.654 158.97 151.654C159.277 151.654 159.738 151.382 159.738 150.775C159.738 150.104 159.093 149.736 158.417 149.736C157.756 149.736 157.111 150.248 156.804 150.871C156.527 151.43 156.374 152.006 156.02 154.1H154.991C154.699 154.1 154.546 154.1 154.546 154.387C154.546 154.563 154.638 154.563 154.945 154.563H155.928C155.652 156.05 155.022 159.662 154.669 161.373C154.407 162.763 154.177 163.93 153.409 163.93C153.363 163.93 152.917 163.93 152.641 163.626C153.424 163.562 153.424 162.859 153.424 162.843C153.424 162.523 153.194 162.332 152.902 162.332C152.595 162.332 152.134 162.603 152.134 163.211C152.134 163.898 152.81 164.25 153.409 164.25C154.976 164.25 155.621 161.325 155.79 160.525C156.066 159.295 156.819 155.043 156.896 154.563H158.202Z" fill="#8A3FFC"/>
<path d="M165.398 164.872C165.398 164.824 165.398 164.792 165.137 164.52C163.6 162.906 162.74 160.269 162.74 157.008C162.74 153.907 163.462 151.238 165.244 149.352C165.398 149.208 165.398 149.176 165.398 149.128C165.398 149.032 165.321 149 165.26 149C165.06 149 163.8 150.151 163.047 151.717C162.264 153.332 161.911 155.042 161.911 157.008C161.911 158.431 162.126 160.333 162.925 162.043C163.831 163.961 165.091 165 165.26 165C165.321 165 165.398 164.968 165.398 164.872Z" fill="#8A3FFC"/>
<path d="M173.06 152.949C173.06 151.319 172.568 149.736 171.309 149.736C169.158 149.736 166.869 154.419 166.869 157.936C166.869 158.671 167.023 161.149 168.636 161.149C170.725 161.149 173.06 156.577 173.06 152.949ZM168.405 155.203C168.636 154.26 168.958 152.917 169.573 151.782C170.08 150.823 170.617 150.056 171.293 150.056C171.8 150.056 172.138 150.503 172.138 152.038C172.138 152.613 172.092 153.412 171.647 155.203H168.405ZM171.539 155.682C171.155 157.249 170.833 158.256 170.28 159.263C169.834 160.078 169.296 160.829 168.651 160.829C168.175 160.829 167.791 160.445 167.791 158.863C167.791 157.824 168.037 156.737 168.282 155.682H171.539Z" fill="#8A3FFC"/>
<path d="M181.426 157.008C181.426 155.793 181.272 153.811 180.412 151.957C179.505 150.039 178.246 149 178.077 149C178.015 149 177.938 149.032 177.938 149.128C177.938 149.176 177.938 149.208 178.2 149.48C179.736 151.094 180.596 153.731 180.596 156.992C180.596 160.093 179.874 162.762 178.092 164.648C177.938 164.792 177.938 164.824 177.938 164.872C177.938 164.968 178.015 165 178.077 165C178.276 165 179.536 163.849 180.289 162.283C181.072 160.652 181.426 158.926 181.426 157.008Z" fill="#8A3FFC"/>
<path d="M13.6721 8.66549C14.1741 8.66549 14.375 8.66549 14.375 8.2248C14.375 7.99286 14.1741 7.99286 13.7223 7.99286H11.6891C12.166 5.60387 12.5174 3.9571 12.7182 3.21489C12.8688 2.65823 13.396 2.12477 14.0486 2.12477C14.5758 2.12477 15.1029 2.33352 15.3539 2.54226C14.375 2.63504 14.0737 3.30767 14.0737 3.70196C14.0737 4.16584 14.4503 4.44417 14.9272 4.44417C15.4292 4.44417 16.1823 4.04987 16.1823 3.1685C16.1823 2.19435 15.128 1.66089 14.0235 1.66089C12.9442 1.66089 11.8899 2.4031 11.3878 3.30767C10.936 4.11945 10.685 4.95444 10.1076 7.99286H8.4258C7.94886 7.99286 7.69784 7.99286 7.69784 8.41035C7.69784 8.66549 7.84845 8.66549 8.35049 8.66549H9.95702C9.50518 10.8225 8.476 16.0644 7.89866 18.5461C7.47192 20.564 7.0954 22.2572 5.8403 22.2572C5.76499 22.2572 5.03703 22.2572 4.5852 21.8165C5.8654 21.7237 5.8654 20.7032 5.8654 20.68C5.8654 20.2161 5.48887 19.9378 5.01193 19.9378C4.50989 19.9378 3.75684 20.3321 3.75684 21.2135C3.75684 22.2108 4.86132 22.7211 5.8403 22.7211C8.4007 22.7211 9.45498 18.4766 9.7311 17.3169C10.1829 15.5309 11.4129 9.36131 11.5384 8.66549H13.6721Z" fill="black"/>
<path d="M25.4306 23.6258C25.4306 23.5562 25.4306 23.5098 25.0038 23.1155C22.4936 20.7729 21.0879 16.9459 21.0879 12.2144C21.0879 7.71477 22.2677 3.84138 25.1795 1.1045C25.4306 0.895758 25.4306 0.849372 25.4306 0.779789C25.4306 0.640626 25.305 0.594238 25.2046 0.594238C24.8783 0.594238 22.82 2.2642 21.59 4.5372C20.3098 6.87978 19.7324 9.36153 19.7324 12.2144C19.7324 14.2786 20.0838 17.0387 21.3891 19.5205C22.8702 22.3037 24.9285 23.8113 25.2046 23.8113C25.305 23.8113 25.4306 23.7649 25.4306 23.6258Z" fill="black"/>
<path d="M37.9505 6.32288C37.9505 3.9571 37.1473 1.66089 35.0889 1.66089C31.5747 1.66089 27.8345 8.45674 27.8345 13.5594C27.8345 14.6263 28.0855 18.2214 30.7212 18.2214C34.1351 18.2214 37.9505 11.5879 37.9505 6.32288ZM30.3447 9.59324C30.7212 8.22479 31.2483 6.2765 32.2524 4.62972C33.0808 3.23808 33.9593 2.12477 35.0638 2.12477C35.8922 2.12477 36.4444 2.7742 36.4444 5.00083C36.4444 5.83581 36.3691 6.99551 35.6412 9.59324H30.3447ZM35.4655 10.2891C34.8379 12.5621 34.3108 14.0233 33.4071 15.4845C32.6791 16.6674 31.8006 17.7575 30.7463 17.7575C29.9681 17.7575 29.3406 17.2009 29.3406 14.9047C29.3406 13.3971 29.7422 11.8199 30.1438 10.2891H35.4655Z" fill="black"/>
<path d="M46.0458 12.2144C46.0458 10.4516 45.7948 7.5756 44.3891 4.88511C42.9081 2.10184 40.8497 0.594238 40.5736 0.594238C40.4732 0.594238 40.3477 0.640626 40.3477 0.779789C40.3477 0.849372 40.3477 0.895759 40.7744 1.29006C43.2846 3.63264 44.6903 7.45963 44.6903 12.1912C44.6903 16.6908 43.5105 20.5642 40.5987 23.3011C40.3477 23.5098 40.3477 23.5562 40.3477 23.6258C40.3477 23.7649 40.4732 23.8113 40.5736 23.8113C40.8999 23.8113 42.9583 22.1414 44.1883 19.8684C45.4685 17.5026 46.0458 14.9977 46.0458 12.2144Z" fill="black"/>
<path d="M502.144 346.745C502.144 344.337 501.418 342 499.557 342C496.381 342 493 348.917 493 354.111C493 355.197 493.227 358.856 495.609 358.856C498.695 358.856 502.144 352.104 502.144 346.745ZM495.269 350.074C495.609 348.681 496.086 346.698 496.993 345.022C497.742 343.605 498.536 342.472 499.534 342.472C500.283 342.472 500.782 343.133 500.782 345.399C500.782 346.249 500.714 347.43 500.056 350.074H495.269ZM499.897 350.782C499.33 353.096 498.854 354.583 498.037 356.07C497.379 357.274 496.585 358.384 495.632 358.384C494.929 358.384 494.361 357.817 494.361 355.48C494.361 353.945 494.724 352.34 495.087 350.782H499.897Z" fill="black"/>
<path d="M70.6793 93.5042C70.6793 91.2185 69.9901 89 68.2241 89C65.209 89 62 95.5658 62 100.496C62 101.527 62.2154 105 64.4767 105C67.4057 105 70.6793 98.591 70.6793 93.5042ZM64.1537 96.6639C64.4767 95.3417 64.929 93.4594 65.7904 91.8683C66.5012 90.5238 67.2549 89.4482 68.2025 89.4482C68.9133 89.4482 69.3871 90.0756 69.3871 92.2269C69.3871 93.0336 69.3225 94.1541 68.6979 96.6639H64.1537ZM68.5471 97.3361C68.0087 99.5322 67.5564 100.944 66.7811 102.356C66.1566 103.499 65.4028 104.552 64.4982 104.552C63.8306 104.552 63.2922 104.014 63.2922 101.796C63.2922 100.339 63.6368 98.8151 63.9814 97.3361H68.5471Z" fill="black"/>
<path d="M94.6812 161.479C94.6812 159.194 93.992 156.975 92.226 156.975C89.2109 156.975 86.002 163.541 86.002 168.471C86.002 169.502 86.2173 172.975 88.4787 172.975C91.4076 172.975 94.6812 166.566 94.6812 161.479ZM88.1556 164.639C88.4787 163.317 88.9309 161.434 89.7924 159.843C90.5031 158.499 91.2569 157.423 92.2045 157.423C92.9152 157.423 93.389 158.051 93.389 160.202C93.389 161.009 93.3244 162.129 92.6998 164.639H88.1556ZM92.5491 165.311C92.0107 167.507 91.5584 168.919 90.7831 170.331C90.1585 171.474 89.4047 172.527 88.5002 172.527C87.8326 172.527 87.2942 171.989 87.2942 169.771C87.2942 168.314 87.6387 166.79 87.9833 165.311H92.5491Z" fill="black"/>
<path d="M121.826 228.834C121.826 226.548 121.137 224.33 119.371 224.33C116.356 224.33 113.147 230.895 113.147 235.825C113.147 236.856 113.362 240.33 115.624 240.33C118.553 240.33 121.826 233.921 121.826 228.834ZM115.301 231.993C115.624 230.671 116.076 228.789 116.937 227.198C117.648 225.853 118.402 224.778 119.35 224.778C120.06 224.778 120.534 225.405 120.534 227.556C120.534 228.363 120.469 229.484 119.845 231.993H115.301ZM119.694 232.666C119.156 234.862 118.703 236.274 117.928 237.685C117.304 238.828 116.55 239.881 115.645 239.881C114.978 239.881 114.439 239.344 114.439 237.125C114.439 235.669 114.784 234.145 115.128 232.666H119.694Z" fill="black"/>
<path d="M143.006 302.134C143.006 299.848 142.28 297.63 140.42 297.63C137.243 297.63 133.863 304.196 133.863 309.126C133.863 310.156 134.09 313.63 136.472 313.63C139.558 313.63 143.006 307.221 143.006 302.134ZM136.132 305.294C136.472 303.972 136.948 302.089 137.856 300.498C138.605 299.154 139.399 298.078 140.397 298.078C141.146 298.078 141.645 298.706 141.645 300.857C141.645 301.663 141.577 302.784 140.919 305.294H136.132ZM140.76 305.966C140.193 308.162 139.716 309.574 138.9 310.986C138.242 312.128 137.448 313.182 136.495 313.182C135.791 313.182 135.224 312.644 135.224 310.425C135.224 308.969 135.587 307.445 135.95 305.966H140.76Z" fill="black"/>
<path d="M180.724 325.919C180.724 323.633 179.998 321.415 178.137 321.415C174.961 321.415 171.58 327.98 171.58 332.91C171.58 333.941 171.807 337.415 174.189 337.415C177.275 337.415 180.724 331.006 180.724 325.919ZM173.849 329.078C174.189 327.756 174.666 325.874 175.573 324.283C176.322 322.938 177.116 321.863 178.114 321.863C178.863 321.863 179.362 322.49 179.362 324.641C179.362 325.448 179.294 326.569 178.636 329.078H173.849ZM178.477 329.751C177.91 331.947 177.434 333.359 176.617 334.77C175.959 335.913 175.165 336.966 174.212 336.966C173.509 336.966 172.941 336.429 172.941 334.21C172.941 332.753 173.304 331.23 173.667 329.751H178.477Z" fill="black"/>
<path d="M235.585 310.459C235.585 308.173 234.859 305.955 232.998 305.955C229.822 305.955 226.441 312.52 226.441 317.45C226.441 318.481 226.668 321.955 229.051 321.955C232.136 321.955 235.585 315.546 235.585 310.459ZM228.71 313.618C229.051 312.296 229.527 310.414 230.435 308.823C231.183 307.478 231.977 306.403 232.976 306.403C233.725 306.403 234.224 307.03 234.224 309.181C234.224 309.988 234.156 311.109 233.498 313.618H228.71ZM233.339 314.291C232.772 316.487 232.295 317.899 231.478 319.31C230.82 320.453 230.026 321.506 229.073 321.506C228.37 321.506 227.803 320.969 227.803 318.75C227.803 317.294 228.166 315.77 228.529 314.291H233.339Z" fill="black"/>
<path d="M226 97.3541C226 95.8965 226.268 94.3604 226.803 92.7457C227.339 91.131 228.067 89.7378 228.987 88.5661C229.907 87.3944 230.862 86.7228 231.85 86.5513C231.864 86.5513 231.919 86.5513 232.015 86.5513C232.111 86.5513 232.194 86.5441 232.262 86.5298C233.004 86.587 233.581 86.9371 233.993 87.5801C234.528 88.4375 234.796 89.5878 234.796 91.031C234.796 92.6743 234.487 94.3461 233.869 96.0466C233.251 97.747 232.461 99.1402 231.5 100.226C230.539 101.312 229.619 101.855 228.74 101.855H228.596C228.101 101.855 227.675 101.712 227.318 101.427C226.961 101.141 226.694 100.762 226.515 100.291C226.336 99.819 226.206 99.3403 226.124 98.8545C226.041 98.3686 226 97.8685 226 97.3541ZM233.169 89.5092C233.169 88.0517 232.805 87.3229 232.077 87.3229C231.583 87.3229 231.102 87.6444 230.635 88.2874C230.168 88.9305 229.784 89.6592 229.481 90.4737C229.179 91.2882 228.946 92.0027 228.781 92.6171C228.616 93.2316 228.527 93.5888 228.513 93.6888C229.186 93.7031 229.852 93.7103 230.511 93.7103L232.51 93.6888C232.523 93.6745 232.578 93.4388 232.674 92.9815C232.77 92.5242 232.88 91.9527 233.004 91.2668C233.128 90.5809 233.182 89.995 233.169 89.5092ZM227.607 98.8116C227.607 100.326 227.971 101.084 228.699 101.084C228.905 101.084 229.124 101.012 229.358 100.869C229.591 100.726 229.873 100.455 230.202 100.055C230.532 99.6547 230.862 99.0331 231.191 98.19C231.521 97.3469 231.85 96.3038 232.18 95.0606L232.283 94.6962H228.266C228.266 94.7391 228.204 95.0106 228.081 95.5107C227.957 96.0109 227.847 96.5681 227.751 97.1826C227.655 97.797 227.607 98.34 227.607 98.8116Z" fill="black"/>
<path d="M234.443 81.4285C234.443 81.3142 234.477 81.2142 234.546 81.1284C234.615 81.0427 234.718 80.9998 234.855 80.9998C234.951 80.9998 235.034 81.0355 235.102 81.107C235.171 81.1641 235.24 81.2999 235.308 81.5142C235.446 82.043 235.727 82.4502 236.153 82.736C236.304 82.8361 236.38 82.9647 236.38 83.1219C236.38 83.2505 236.359 83.3362 236.318 83.3791C236.277 83.4219 236.18 83.4862 236.029 83.572C235.439 83.8864 234.924 84.3365 234.484 84.9224C234.457 84.951 234.423 84.9938 234.381 85.051C234.34 85.1081 234.306 85.151 234.278 85.1796C234.251 85.2082 234.217 85.2225 234.175 85.2225C234.134 85.2225 234.086 85.2296 234.031 85.2439C233.935 85.2439 233.846 85.2082 233.763 85.1367C233.681 85.0653 233.633 84.9581 233.619 84.8152C233.619 84.5437 233.942 84.1221 234.587 83.5506H231.065L227.542 83.5291C227.364 83.4005 227.274 83.2648 227.274 83.1219C227.274 83.0218 227.364 82.8789 227.542 82.6932H234.938C234.608 82.1501 234.443 81.7286 234.443 81.4285Z" fill="black"/>
<path d="M237.279 100.506C237.289 100.445 237.304 100.364 237.323 100.263C237.342 100.162 237.401 99.9703 237.498 99.6875C237.595 99.4046 237.692 99.1672 237.789 98.9753C237.886 98.7833 238.046 98.5964 238.27 98.4146C238.493 98.2327 238.716 98.1469 238.94 98.157C239.289 98.157 239.58 98.2479 239.813 98.4297C240.046 98.6116 240.192 98.7833 240.25 98.945C240.309 99.1066 240.338 99.2127 240.338 99.2632C240.338 99.2834 240.343 99.2935 240.352 99.2935L240.513 99.1268C241.105 98.4803 241.78 98.157 242.537 98.157C243.061 98.157 243.484 98.2934 243.804 98.5661C244.124 98.8389 244.289 99.2379 244.299 99.7632C244.309 100.289 244.124 101.082 243.746 102.142C243.367 103.203 243.183 103.845 243.192 104.067C243.192 104.329 243.275 104.461 243.44 104.461C243.498 104.461 243.542 104.456 243.571 104.446C243.853 104.395 244.105 104.203 244.328 103.87C244.552 103.536 244.722 103.132 244.838 102.658C244.857 102.577 244.955 102.536 245.129 102.536C245.324 102.536 245.421 102.577 245.421 102.658C245.421 102.668 245.401 102.743 245.362 102.885C245.285 103.178 245.178 103.466 245.042 103.749C244.906 104.031 244.683 104.314 244.372 104.597C244.061 104.88 243.726 105.016 243.367 105.006C242.911 105.006 242.581 104.87 242.377 104.597C242.173 104.324 242.071 104.042 242.071 103.749C242.071 103.557 242.246 102.951 242.595 101.93C242.945 100.91 243.124 100.142 243.134 99.6269C243.134 99.0308 242.92 98.7328 242.493 98.7328H242.42C241.585 98.7328 240.881 99.243 240.309 100.263L240.207 100.445L239.726 102.476C239.406 103.799 239.221 104.511 239.173 104.612C239.046 104.885 238.838 105.021 238.546 105.021C238.42 105.021 238.318 104.991 238.241 104.931C238.163 104.87 238.109 104.809 238.08 104.749C238.051 104.688 238.041 104.638 238.051 104.597C238.051 104.466 238.236 103.643 238.605 102.127C238.974 100.612 239.168 99.7885 239.187 99.6572C239.197 99.6067 239.202 99.4905 239.202 99.3086C239.202 98.9147 239.085 98.7177 238.852 98.7177C238.483 98.7177 238.177 99.2228 237.935 100.233C237.876 100.435 237.847 100.541 237.847 100.551C237.828 100.612 237.736 100.642 237.571 100.642H237.367C237.308 100.582 237.279 100.536 237.279 100.506Z" fill="black"/>
<path d="M246.528 101.263C246.528 101.263 246.528 101.197 246.528 101.066C246.528 100.934 246.596 100.833 246.732 100.763H251.087V98.4897L251.101 96.2166C251.199 96.0852 251.291 96.0196 251.378 96.0196C251.504 96.0196 251.601 96.0953 251.669 96.2469V100.763H256.01C256.155 100.844 256.228 100.945 256.228 101.066C256.228 101.187 256.155 101.288 256.01 101.369H251.669V105.885C251.592 106.026 251.504 106.097 251.407 106.097H251.378H251.349C251.233 106.097 251.145 106.026 251.087 105.885V101.369H246.732C246.596 101.298 246.528 101.197 246.528 101.066V101.263Z" fill="black"/>
<path d="M260.145 96.0969L259.956 96.1727C259.82 96.2232 259.626 96.2737 259.373 96.3242C259.121 96.3747 258.839 96.4101 258.529 96.4303H258.252V95.7332H258.529C258.985 95.713 259.407 95.6372 259.796 95.5059C260.184 95.3745 260.456 95.2533 260.611 95.1422C260.767 95.031 260.903 94.9199 261.019 94.8088C261.039 94.7785 261.097 94.7633 261.194 94.7633C261.281 94.7633 261.364 94.7936 261.441 94.8543V99.3853L261.456 103.932C261.524 104.002 261.582 104.048 261.631 104.068C261.679 104.088 261.796 104.108 261.98 104.129C262.165 104.149 262.466 104.159 262.883 104.159H263.262V104.856H263.102C262.898 104.826 262.126 104.81 260.786 104.81C259.466 104.81 258.703 104.826 258.5 104.856H258.325V104.159H258.703C258.917 104.159 259.102 104.159 259.257 104.159C259.412 104.159 259.534 104.154 259.621 104.144C259.708 104.134 259.786 104.118 259.854 104.098C259.922 104.078 259.961 104.068 259.971 104.068C259.98 104.068 260.009 104.043 260.058 103.992C260.106 103.942 260.136 103.921 260.145 103.932V96.0969Z" fill="black"/>
<path d="M272.236 94.2038C272.236 94.018 272.332 93.8751 272.525 93.7751H285.647C285.853 93.8894 285.956 94.0323 285.956 94.2038C285.956 94.3609 285.86 94.4967 285.667 94.611L279.117 94.6324H272.566C272.346 94.561 272.236 94.4181 272.236 94.2038ZM272.236 98.3619C272.236 98.1475 272.346 98.0046 272.566 97.9332H285.667C285.86 98.0761 285.956 98.219 285.956 98.3619C285.956 98.5476 285.853 98.6905 285.647 98.7905H272.525C272.332 98.6905 272.236 98.5476 272.236 98.3619Z" fill="black"/>
<path d="M293.873 97.3548C293.873 95.8973 294.141 94.3612 294.676 92.7465C295.212 91.1318 295.94 89.7385 296.86 88.5668C297.78 87.3951 298.735 86.7235 299.723 86.552C299.737 86.552 299.792 86.552 299.888 86.552C299.984 86.552 300.067 86.5449 300.135 86.5306C300.877 86.5877 301.454 86.9378 301.866 87.5808C302.401 88.4382 302.669 89.5885 302.669 91.0317C302.669 92.675 302.36 94.3469 301.742 96.0473C301.124 97.7478 300.335 99.141 299.373 100.227C298.412 101.313 297.492 101.856 296.613 101.856H296.469C295.974 101.856 295.549 101.713 295.191 101.427C294.834 101.141 294.567 100.763 294.388 100.291C294.21 99.8197 294.079 99.341 293.997 98.8552C293.914 98.3693 293.873 97.8692 293.873 97.3548ZM301.042 89.5099C301.042 88.0524 300.678 87.3236 299.95 87.3236C299.456 87.3236 298.975 87.6452 298.508 88.2882C298.041 88.9312 297.657 89.66 297.354 90.4745C297.052 91.2889 296.819 92.0034 296.654 92.6179C296.489 93.2323 296.4 93.5895 296.386 93.6896C297.059 93.7039 297.725 93.711 298.384 93.711L300.383 93.6896C300.396 93.6753 300.451 93.4395 300.547 92.9822C300.644 92.525 300.753 91.9534 300.877 91.2675C301.001 90.5816 301.056 89.9958 301.042 89.5099ZM295.48 98.8123C295.48 100.327 295.844 101.084 296.572 101.084C296.778 101.084 296.997 101.013 297.231 100.87C297.464 100.727 297.746 100.456 298.075 100.055C298.405 99.6554 298.735 99.0338 299.064 98.1907C299.394 97.3477 299.723 96.3045 300.053 95.0613L300.156 94.697H296.139C296.139 94.7398 296.077 95.0113 295.954 95.5115C295.83 96.0116 295.72 96.5689 295.624 97.1833C295.528 97.7978 295.48 98.3408 295.48 98.8123Z" fill="black"/>
<path d="M302.313 81.4293C302.313 81.315 302.348 81.215 302.416 81.1292C302.485 81.0435 302.588 81.0006 302.725 81.0006C302.821 81.0006 302.904 81.0364 302.972 81.1078C303.041 81.165 303.11 81.3007 303.178 81.5151C303.316 82.0438 303.597 82.4511 304.023 82.7369C304.174 82.8369 304.25 82.9656 304.25 83.1228C304.25 83.2514 304.229 83.3371 304.188 83.38C304.147 83.4228 304.051 83.4872 303.899 83.5729C303.309 83.8873 302.794 84.3374 302.354 84.9233C302.327 84.9519 302.293 84.9948 302.251 85.052C302.21 85.1091 302.176 85.152 302.148 85.1806C302.121 85.2091 302.087 85.2234 302.045 85.2234C302.004 85.2234 301.956 85.2306 301.901 85.2449C301.805 85.2449 301.716 85.2091 301.633 85.1377C301.551 85.0662 301.503 84.9591 301.489 84.8162C301.489 84.5446 301.812 84.1231 302.457 83.5515H298.935L295.412 83.53C295.234 83.4014 295.145 83.2657 295.145 83.1228C295.145 83.0227 295.234 82.8798 295.412 82.694H302.808C302.478 82.151 302.313 81.7294 302.313 81.4293Z" fill="black"/>
<path d="M305.154 100.508C305.164 100.447 305.179 100.366 305.198 100.265C305.217 100.164 305.276 99.9722 305.373 99.6893C305.47 99.4064 305.567 99.169 305.664 98.9771C305.761 98.7851 305.921 98.5982 306.145 98.4164C306.368 98.2345 306.591 98.1487 306.815 98.1588C307.164 98.1588 307.455 98.2497 307.688 98.4315C307.921 98.6134 308.067 98.7851 308.125 98.9468C308.184 99.1084 308.213 99.2145 308.213 99.265C308.213 99.2852 308.218 99.2953 308.227 99.2953L308.388 99.1286C308.98 98.4821 309.655 98.1588 310.412 98.1588C310.936 98.1588 311.359 98.2952 311.679 98.5679C311.999 98.8407 312.164 99.2397 312.174 99.7651C312.184 100.29 311.999 101.083 311.621 102.144C311.242 103.205 311.058 103.846 311.067 104.069C311.067 104.331 311.15 104.463 311.315 104.463C311.373 104.463 311.417 104.458 311.446 104.448C311.728 104.397 311.98 104.205 312.203 103.872C312.427 103.538 312.597 103.134 312.713 102.659C312.732 102.579 312.83 102.538 313.004 102.538C313.199 102.538 313.296 102.579 313.296 102.659C313.296 102.67 313.276 102.745 313.237 102.887C313.16 103.18 313.053 103.468 312.917 103.751C312.781 104.033 312.558 104.316 312.247 104.599C311.936 104.882 311.601 105.018 311.242 105.008C310.786 105.008 310.456 104.872 310.252 104.599C310.048 104.326 309.946 104.043 309.946 103.751C309.946 103.559 310.121 102.952 310.47 101.932C310.82 100.912 310.999 100.144 311.009 99.6287C311.009 99.0326 310.795 98.7346 310.368 98.7346H310.295C309.46 98.7346 308.756 99.2448 308.184 100.265L308.082 100.447L307.601 102.478C307.281 103.801 307.096 104.513 307.048 104.614C306.921 104.887 306.713 105.023 306.421 105.023C306.295 105.023 306.193 104.993 306.116 104.933C306.038 104.872 305.984 104.811 305.955 104.751C305.926 104.69 305.916 104.64 305.926 104.599C305.926 104.468 306.111 103.644 306.48 102.129C306.849 100.614 307.043 99.7903 307.062 99.659C307.072 99.6085 307.077 99.4923 307.077 99.3105C307.077 98.9165 306.96 98.7195 306.727 98.7195C306.358 98.7195 306.052 99.2246 305.81 100.235C305.751 100.437 305.722 100.543 305.722 100.553C305.703 100.614 305.611 100.644 305.446 100.644H305.242C305.183 100.583 305.154 100.538 305.154 100.508Z" fill="black"/>
<path d="M320.927 96.5614C320.927 96.5614 320.927 96.4684 320.927 96.2823C320.927 96.0962 321.023 95.9531 321.215 95.8529H333.184C333.39 95.9674 333.493 96.1106 333.493 96.2823C333.493 96.454 333.39 96.5972 333.184 96.7117H321.215C321.023 96.6115 320.927 96.4684 320.927 96.2823V96.5614Z" fill="black"/>
<path d="M340.231 95.4887C340.245 95.4458 340.259 95.3887 340.273 95.3172C340.286 95.2458 340.321 95.0886 340.376 94.8457C340.431 94.6028 340.499 94.3813 340.582 94.1812C340.664 93.9812 340.767 93.7454 340.891 93.4739C341.014 93.2024 341.152 92.9881 341.303 92.8309C341.454 92.6737 341.632 92.5165 341.838 92.3593C342.044 92.2021 342.271 92.1378 342.518 92.1664C342.848 92.1664 343.143 92.2164 343.404 92.3165C343.665 92.4165 343.871 92.5451 344.022 92.7023C344.173 92.8594 344.283 93.0166 344.351 93.1738C344.42 93.331 344.475 93.4667 344.516 93.5811L344.557 93.7311C344.557 93.7597 344.564 93.774 344.578 93.774L344.805 93.5382C345.642 92.6237 346.597 92.1664 347.668 92.1664C348.41 92.1664 349.007 92.3593 349.46 92.7451C349.913 93.1309 350.147 93.6954 350.161 94.4384V94.6528C350.161 94.9957 349.721 96.9462 348.842 100.504C348.046 103.862 347.62 105.591 347.565 105.691C347.387 106.077 347.078 106.27 346.638 106.27C346.46 106.27 346.308 106.213 346.185 106.099C346.061 105.984 345.986 105.827 345.958 105.627C345.958 105.498 346.363 103.762 347.174 100.419L348.451 95.06C348.492 94.8457 348.513 94.5742 348.513 94.2455C348.513 93.4024 348.211 92.9809 347.606 92.9809H347.503C346.322 92.9809 345.327 93.7025 344.516 95.1457L344.372 95.403L343.692 98.2751C343.239 100.147 342.978 101.154 342.909 101.297C342.731 101.683 342.436 101.876 342.024 101.876C341.845 101.876 341.701 101.833 341.591 101.747C341.481 101.662 341.406 101.576 341.364 101.49C341.323 101.404 341.31 101.333 341.323 101.276C341.323 101.09 341.598 99.8612 342.147 97.5892C342.697 95.3172 342.971 94.0526 342.971 93.7954C342.971 93.2381 342.793 92.9595 342.436 92.9595C342.147 92.9595 341.9 93.1595 341.694 93.5596C341.488 93.9597 341.323 94.3956 341.2 94.8671C341.076 95.3387 341.001 95.5959 340.973 95.6387C340.946 95.6673 340.836 95.6816 340.643 95.6816H340.355C340.273 95.5959 340.231 95.5316 340.231 95.4887Z" fill="black"/>
<path d="M350.984 87.1519C350.984 87.1091 351.019 87.0591 351.087 87.0019H366.125C366.194 87.0591 366.228 87.1091 366.228 87.1519C366.228 87.1805 365.068 89.6811 362.747 94.6538C360.426 99.6265 359.238 102.141 359.183 102.199C359.114 102.299 358.922 102.349 358.606 102.349C358.29 102.349 358.098 102.299 358.03 102.199C357.988 102.141 356.807 99.6265 354.486 94.6538C352.165 89.6811 350.998 87.1805 350.984 87.1519ZM364.395 88.8667C364.395 88.8524 362.665 88.8452 359.204 88.8452C355.743 88.8452 354.013 88.8524 354.013 88.8667C354.04 88.9381 354.905 90.7957 356.608 94.4395C358.311 98.0833 359.176 99.9123 359.204 99.9266L364.395 88.8667Z" fill="black"/>
<path d="M361.233 81.9007C361.233 81.7864 361.268 81.6863 361.336 81.6006C361.405 81.5149 361.508 81.472 361.645 81.472C361.741 81.472 361.824 81.5077 361.892 81.5792C361.961 81.6363 362.03 81.7721 362.098 81.9864C362.236 82.5151 362.517 82.9224 362.943 83.2082C363.094 83.3082 363.17 83.4368 363.17 83.594C363.17 83.7226 363.149 83.8084 363.108 83.8512C363.067 83.8941 362.971 83.9584 362.819 84.0442C362.229 84.3585 361.714 84.8087 361.274 85.3945C361.247 85.4231 361.213 85.466 361.171 85.5232C361.13 85.5803 361.096 85.6232 361.068 85.6518C361.041 85.6803 361.007 85.6946 360.965 85.6946C360.924 85.6946 360.876 85.7018 360.821 85.7161C360.725 85.7161 360.636 85.6803 360.553 85.6089C360.471 85.5374 360.423 85.4303 360.409 85.2874C360.409 85.0159 360.732 84.5943 361.377 84.0227H357.855L354.332 84.0013C354.154 83.8727 354.064 83.7369 354.064 83.594C354.064 83.494 354.154 83.3511 354.332 83.1653H361.728C361.398 82.6223 361.233 82.2008 361.233 81.9007Z" fill="black"/>
<path d="M369.629 105.113C369.656 105.113 369.698 105.127 369.752 105.156C369.807 105.184 369.883 105.206 369.979 105.22C370.075 105.234 370.158 105.242 370.226 105.242C370.405 105.242 370.57 105.149 370.721 104.963C370.872 104.777 370.982 104.57 371.05 104.341C371.188 103.956 371.421 102.862 371.751 101.062C372.08 99.2615 372.396 97.5468 372.698 95.9178C373 94.2889 373.151 93.4672 373.151 93.4529V93.3886H372.183C371.538 93.3886 371.194 93.3743 371.153 93.3458C371.098 93.3029 371.071 93.2314 371.071 93.1314L371.215 92.5313C371.243 92.4598 371.297 92.4241 371.38 92.4241C371.462 92.4241 371.785 92.417 372.348 92.4027C373.007 92.4027 373.337 92.3955 373.337 92.3812C373.337 92.3527 373.399 91.9954 373.522 91.3095C373.646 90.6236 373.728 90.2093 373.769 90.0664C374.278 87.7086 375.28 86.5298 376.777 86.5298C377.285 86.5583 377.704 86.7155 378.034 87.0013C378.363 87.2871 378.528 87.6658 378.528 88.1373C378.528 88.6517 378.384 89.0232 378.095 89.2519C377.807 89.4805 377.519 89.602 377.23 89.6163C376.626 89.6163 376.324 89.3162 376.324 88.716C376.324 88.4445 376.399 88.2088 376.55 88.0087C376.701 87.8087 376.866 87.6586 377.045 87.5586L377.23 87.4514C377.01 87.3657 376.804 87.3228 376.612 87.3228C376.447 87.3228 376.289 87.3943 376.138 87.5372C375.987 87.68 375.884 87.8801 375.829 88.1373C375.733 88.5517 375.623 89.109 375.5 89.8092C375.376 90.5093 375.266 91.1023 375.17 91.5882C375.074 92.074 375.026 92.3312 375.026 92.3598C375.026 92.3884 375.404 92.4027 376.159 92.4027C376.777 92.4027 377.134 92.4098 377.23 92.4241C377.326 92.4384 377.402 92.4813 377.457 92.5527C377.471 92.6099 377.457 92.7313 377.416 92.9171C377.374 93.1028 377.34 93.2172 377.313 93.26C377.285 93.3315 377.223 93.3672 377.127 93.3672C377.031 93.3672 376.66 93.3743 376.015 93.3886H374.861L374.387 96.0036C373.728 99.5473 373.268 101.762 373.007 102.648C372.636 103.863 372.156 104.763 371.565 105.349C371.057 105.806 370.556 106.035 370.061 106.035C369.622 106.035 369.224 105.899 368.867 105.627C368.51 105.356 368.331 104.97 368.331 104.47C368.331 103.941 368.475 103.555 368.764 103.313C369.052 103.07 369.34 102.948 369.629 102.948C370.233 102.948 370.535 103.248 370.535 103.848C370.535 104.12 370.46 104.356 370.309 104.556C370.158 104.756 369.993 104.906 369.814 105.006L369.629 105.113Z" fill="black"/>
<path d="M380.464 96.2829C380.464 95.2969 380.533 94.3609 380.67 93.475C380.807 92.589 380.965 91.8245 381.144 91.1815C381.322 90.5385 381.576 89.9097 381.906 89.2953C382.235 88.6808 382.496 88.2021 382.689 87.8592C382.881 87.5162 383.169 87.1447 383.554 86.7446C383.938 86.3445 384.165 86.1016 384.234 86.0158C384.302 85.9301 384.474 85.7801 384.749 85.5657H385.016H385.099C385.291 85.5657 385.387 85.63 385.387 85.7586C385.387 85.8015 385.271 85.9515 385.037 86.2088C384.804 86.466 384.522 86.8446 384.192 87.3448C383.863 87.8449 383.526 88.4594 383.183 89.1881C382.84 89.9169 382.551 90.9029 382.318 92.146C382.084 93.3892 381.968 94.7682 381.968 96.2829C381.968 97.7976 382.084 99.1693 382.318 100.398C382.551 101.627 382.833 102.62 383.162 103.378C383.492 104.135 383.829 104.749 384.172 105.221C384.515 105.693 384.804 106.071 385.037 106.357C385.271 106.643 385.387 106.793 385.387 106.807C385.387 106.936 385.284 107 385.078 107H385.016H384.749L384.172 106.486C382.881 105.271 381.94 103.756 381.35 101.942C380.759 100.127 380.464 98.2405 380.464 96.2829Z" fill="black"/>
<path d="M387.583 97.3548C387.583 95.8973 387.851 94.3612 388.386 92.7465C388.922 91.1318 389.65 89.7385 390.57 88.5668C391.49 87.3951 392.445 86.7235 393.433 86.552C393.447 86.552 393.502 86.552 393.598 86.552C393.694 86.552 393.777 86.5449 393.845 86.5306C394.587 86.5877 395.164 86.9378 395.576 87.5808C396.111 88.4382 396.379 89.5885 396.379 91.0317C396.379 92.675 396.07 94.3469 395.452 96.0473C394.834 97.7478 394.045 99.141 393.083 100.227C392.122 101.313 391.202 101.856 390.323 101.856H390.179C389.684 101.856 389.258 101.713 388.901 101.427C388.544 101.141 388.277 100.763 388.098 100.291C387.919 99.8197 387.789 99.341 387.707 98.8552C387.624 98.3693 387.583 97.8692 387.583 97.3548ZM394.752 89.5099C394.752 88.0524 394.388 87.3236 393.66 87.3236C393.166 87.3236 392.685 87.6452 392.218 88.2882C391.751 88.9312 391.367 89.66 391.064 90.4745C390.762 91.2889 390.529 92.0034 390.364 92.6179C390.199 93.2323 390.11 93.5895 390.096 93.6896C390.769 93.7039 391.435 93.711 392.094 93.711L394.093 93.6896C394.106 93.6753 394.161 93.4395 394.257 92.9822C394.353 92.525 394.463 91.9534 394.587 91.2675C394.711 90.5816 394.765 89.9958 394.752 89.5099ZM389.19 98.8123C389.19 100.327 389.554 101.084 390.282 101.084C390.488 101.084 390.707 101.013 390.941 100.87C391.174 100.727 391.456 100.456 391.785 100.055C392.115 99.6554 392.445 99.0338 392.774 98.1907C393.104 97.3477 393.433 96.3045 393.763 95.0613L393.866 94.697H389.849C389.849 94.7398 389.787 95.0113 389.664 95.5115C389.54 96.0116 389.43 96.5689 389.334 97.1833C389.238 97.7978 389.19 98.3408 389.19 98.8123Z" fill="black"/>
<path d="M396.024 81.4296C396.024 81.3153 396.059 81.2152 396.127 81.1295C396.196 81.0437 396.299 81.0009 396.436 81.0009C396.532 81.0009 396.615 81.0366 396.683 81.108C396.752 81.1652 396.821 81.301 396.889 81.5153C397.027 82.0441 397.308 82.4513 397.734 82.7372C397.885 82.8372 397.961 82.9658 397.961 83.123C397.961 83.2516 397.94 83.3374 397.899 83.3802C397.858 83.4231 397.761 83.4874 397.61 83.5731C397.02 83.8875 396.505 84.3377 396.065 84.9236C396.038 84.9522 396.004 84.995 395.962 85.0522C395.921 85.1094 395.887 85.1522 395.859 85.1808C395.832 85.2094 395.798 85.2237 395.756 85.2237C395.715 85.2237 395.667 85.2308 395.612 85.2451C395.516 85.2451 395.427 85.2094 395.344 85.1379C395.262 85.0665 395.214 84.9593 395.2 84.8164C395.2 84.5449 395.523 84.1233 396.168 83.5517H392.646L389.123 83.5303C388.945 83.4017 388.855 83.2659 388.855 83.123C388.855 83.023 388.945 82.8801 389.123 82.6943H396.519C396.189 82.1512 396.024 81.7297 396.024 81.4296Z" fill="black"/>
<path d="M398.863 100.508C398.873 100.447 398.888 100.366 398.907 100.265C398.926 100.164 398.985 99.9722 399.082 99.6893C399.179 99.4064 399.276 99.169 399.373 98.9771C399.47 98.7851 399.63 98.5982 399.854 98.4164C400.077 98.2345 400.3 98.1487 400.524 98.1588C400.873 98.1588 401.164 98.2497 401.397 98.4315C401.63 98.6134 401.776 98.7851 401.834 98.9468C401.893 99.1084 401.922 99.2145 401.922 99.265C401.922 99.2852 401.927 99.2953 401.936 99.2953L402.097 99.1286C402.689 98.4821 403.364 98.1588 404.121 98.1588C404.645 98.1588 405.068 98.2952 405.388 98.5679C405.708 98.8407 405.873 99.2397 405.883 99.7651C405.893 100.29 405.708 101.083 405.33 102.144C404.951 103.205 404.767 103.846 404.776 104.069C404.776 104.331 404.859 104.463 405.024 104.463C405.082 104.463 405.126 104.458 405.155 104.448C405.437 104.397 405.689 104.205 405.912 103.872C406.136 103.538 406.306 103.134 406.422 102.659C406.441 102.579 406.539 102.538 406.713 102.538C406.908 102.538 407.005 102.579 407.005 102.659C407.005 102.67 406.985 102.745 406.946 102.887C406.869 103.18 406.762 103.468 406.626 103.751C406.49 104.033 406.267 104.316 405.956 104.599C405.645 104.882 405.31 105.018 404.951 105.008C404.495 105.008 404.165 104.872 403.961 104.599C403.757 104.326 403.655 104.043 403.655 103.751C403.655 103.559 403.83 102.952 404.179 101.932C404.529 100.912 404.708 100.144 404.718 99.6287C404.718 99.0326 404.504 98.7346 404.077 98.7346H404.004C403.169 98.7346 402.465 99.2448 401.893 100.265L401.791 100.447L401.31 102.478C400.99 103.801 400.805 104.513 400.757 104.614C400.63 104.887 400.422 105.023 400.13 105.023C400.004 105.023 399.902 104.993 399.825 104.933C399.747 104.872 399.693 104.811 399.664 104.751C399.635 104.69 399.625 104.64 399.635 104.599C399.635 104.468 399.82 103.644 400.189 102.129C400.558 100.614 400.752 99.7903 400.771 99.659C400.781 99.6085 400.786 99.4923 400.786 99.3105C400.786 98.9165 400.669 98.7195 400.436 98.7195C400.067 98.7195 399.761 99.2246 399.519 100.235C399.46 100.437 399.431 100.543 399.431 100.553C399.412 100.614 399.32 100.644 399.155 100.644H398.951C398.892 100.583 398.863 100.538 398.863 100.508Z" fill="black"/>
<path d="M409.564 85.5872L409.646 85.5657C409.715 85.5657 409.784 85.5657 409.852 85.5657H410.1L410.676 86.0801C411.967 87.2948 412.908 88.8094 413.498 90.6242C414.089 92.439 414.384 94.3252 414.384 96.2829C414.384 97.2545 414.316 98.1905 414.178 99.0908C414.041 99.991 413.883 100.755 413.704 101.384C413.526 102.013 413.272 102.642 412.942 103.27C412.613 103.899 412.352 104.378 412.159 104.707C411.967 105.035 411.686 105.4 411.315 105.8C410.944 106.2 410.724 106.436 410.656 106.507C410.587 106.578 410.429 106.714 410.182 106.914C410.141 106.957 410.113 106.986 410.1 107H409.852C409.742 107 409.667 107 409.626 107C409.585 107 409.55 106.979 409.523 106.936C409.495 106.893 409.475 106.829 409.461 106.743C409.475 106.728 409.55 106.636 409.688 106.464C411.816 104.164 412.88 100.77 412.88 96.2829C412.88 91.796 411.816 88.4022 409.688 86.1016C409.55 85.9301 409.475 85.8372 409.461 85.8229C409.461 85.7086 409.495 85.63 409.564 85.5872Z" fill="black"/>
</svg>
