<svg enable-background="new 0 0 105 36" viewBox="0 0 105 36" xmlns="http://www.w3.org/2000/svg" xmlns:xlink="http://www.w3.org/1999/xlink"><linearGradient id="a"><stop offset=".477" stop-color="#fff" stop-opacity="0"/><stop offset=".926" stop-color="#fff" stop-opacity=".86"/><stop offset="1" stop-color="#fff"/></linearGradient><radialGradient id="b" cx="18.0000078" cy="22.38240052" gradientUnits="userSpaceOnUse" r="8.44786512" xlink:href="#a"/><linearGradient id="c" gradientUnits="userSpaceOnUse" x1="18.0836" x2="18.0836" y1="27.7303" y2="29.6835"><stop offset="0" stop-color="#fff" stop-opacity="0"/><stop offset=".879" stop-color="#fff" stop-opacity=".88"/><stop offset="1" stop-color="#fff"/></linearGradient><linearGradient id="d" gradientUnits="userSpaceOnUse" x1="16.9219" x2="16.8058" y1="14.3044" y2="17.6313"><stop offset=".001" stop-color="#fff"/><stop offset=".048" stop-color="#fff" stop-opacity=".89"/><stop offset=".426" stop-color="#fff" stop-opacity="0"/><stop offset=".481" stop-color="#fff" stop-opacity=".1"/><stop offset="1" stop-color="#fff"/></linearGradient><linearGradient id="e" gradientUnits="userSpaceOnUse" x1="20.5121" x2="20.393" y1="20.8552" y2="24.2656"><stop offset=".001" stop-color="#fff"/><stop offset=".385" stop-color="#fff" stop-opacity=".1"/><stop offset=".426" stop-color="#fff" stop-opacity="0"/><stop offset=".481" stop-color="#fff" stop-opacity=".1"/><stop offset="1" stop-color="#fff"/></linearGradient><radialGradient id="f" cx="18.0000078" cy="15.857376" gradientUnits="userSpaceOnUse" r="9.75543444" xlink:href="#a"/><radialGradient id="g" cx="17.99265396" cy="9.59397848" gradientUnits="userSpaceOnUse" r="8.44117124"><stop offset="0" stop-color="#fff" stop-opacity="0"/><stop offset=".859" stop-color="#fff" stop-opacity=".86"/><stop offset="1" stop-color="#fff"/></radialGradient><path d="m17.7 28.4c-5.5 0-11.5-1.5-11.5-4h.9c0 1.4 4.4 3 10.6 3.1 6.4 0 11.1-1.6 11.1-3.1h.9c.1 2.5-6.1 4-12 4z" fill="#fff"/><path d="m18.3 20.4c5.5.1 11.5 1.5 11.5 4h-.9c0-1.4-4.4-3-10.6-3.1-6.4 0-11.2 1.6-11.2 3.1h-.9c0-2.5 6.2-4 12.1-4z" fill="url(#b)"/><path d="m18 31.6c-7.5 0-13.6-6.1-13.6-13.6s6.1-13.6 13.6-13.6c5 0 9.6 2.7 12 7.2 3.5 6.6 1.1 14.9-5.5 18.4-2 1.1-4.2 1.6-6.5 1.6zm0-26.3c-7 0-12.7 5.7-12.7 12.7s5.7 12.7 12.7 12.6c7 0 12.7-5.7 12.6-12.7 0-2.1-.5-4.2-1.5-6-2.1-4-6.5-6.6-11.1-6.6z" fill="#fff"/><path d="m18 31.6c-2 0-3.5-.8-3.5-1.9h.9c0 .5 1 1 2.5 1s2.5-.6 2.5-1h.9c.2 1.1-1.3 1.9-3.3 1.9z" fill="#fff"/><path d="m18 27.7c2 0 3.5.8 3.5 1.9h-.9c0-.5-1-1-2.5-1s-2.5.6-2.5 1h-.9c-.2-1.1 1.3-1.9 3.3-1.9z" fill="url(#c)"/><g fill="#fff"><circle cx="23.2" cy="27.5" r="1.2"/><circle cx="12.7" cy="8.5" r="1.3"/><path d="m12.4 8.6.6-.3 3.3 6-.6.4z"/></g><path d="m15.7 14.6.6-.4 1.6 3-.6.4z" fill="url(#d)"/><path d="m19.3 21.2.6-.4 1.7 3.1-.6.4z" fill="url(#e)"/><path d="m21 24.3.6-.4 1.8 3.4-.6.4z" fill="#fff"/><path d="m17.4 17.6.6-.4 1.9 3.5-.6.4z" fill="#fff"/><path d="m17.7 22.3c-6.5 0-13.4-1.5-13.4-4.3h.9c0 1.5 5.1 3.4 12.4 3.4 7.5 0 13-1.8 13-3.4h.9c.1 2.7-7 4.3-13.8 4.3z" fill="#fff"/><path d="m18.4 13.7c6.5 0 13.3 1.5 13.3 4.3h-.9c0-1.5-5.1-3.4-12.4-3.4-7.5 0-13.1 1.7-13.1 3.4h-.9c0-2.7 7.1-4.3 14-4.3z" fill="url(#f)"/><path d="m17.7 15.6c-5.5-.1-11.4-1.5-11.4-4h.9c0 1.4 4.4 3 10.5 3.1 6.4 0 11.1-1.6 11.1-3.1h.9c0 2.5-6.1 4-12 4z" fill="#fff"/><path d="m18.3 7.6c5.5.1 11.4 1.5 11.4 4h-.9c0-1.4-4.4-3-10.5-3.1-6.4 0-11.1 1.6-11.1 3.1h-1c.1-2.5 6.2-4 12.1-4z" fill="url(#g)"/><path d="m15.5 6h-.9c0-1.1 1.8-1.5 3.5-1.5s3.5.5 3.5 1.5h-.9c-.2-.2-1.1-.7-2.7-.7s-2.5.4-2.5.7z" fill="#fff"/><path d="m18 7.6c-1.7 0-3.5-.5-3.5-1.5h.9c.1.2.9.6 2.5.6s2.5-.5 2.5-.6h.9c.2.9-1.6 1.5-3.3 1.5z" fill="#fff"/><path d="m52 28h-2.1c-1.6 0-2.3-.9-2.3-2.3v-1.1c-3.2-.4-5.3-2.9-5.3-7.4 0-4.8 2.5-7.5 6.2-7.5s6.2 2.6 6.2 7.5c0 4.3-1.9 6.8-5 7.4v1.5h2.2zm.3-9.7v-2.3c0-2.6-1.5-4.2-3.7-4.2-2.3 0-3.7 1.6-3.7 4.2v2.3c0 2.6 1.5 4.2 3.7 4.2 2.2.1 3.7-1.6 3.7-4.2zm4.3-7.8v-.3c0-.7.4-1.2 1.4-1.2s1.3.5 1.3 1.2v.3c0 .7-.3 1.2-1.3 1.2s-1.4-.5-1.4-1.2zm.2 3.2h2.3v10.8h-2.3zm3.9 9 1.5-1.3c.8 1 1.7 1.6 3 1.6s2-.5 2-1.5c0-.7-.4-1.2-1.6-1.4l-1-.1c-2.2-.3-3.6-1.2-3.6-3.2 0-2.1 1.6-3.3 4-3.3 2 0 3 .6 4.1 1.7l-1.4 1.3c-.6-.7-1.5-1.2-2.6-1.2-1.2 0-1.8.5-1.8 1.4s.5 1.2 1.6 1.4l1 .1c2.3.3 3.5 1.4 3.5 3.1 0 2.1-1.6 3.5-4.2 3.5-2.1-.2-3.5-.9-4.5-2.1zm10.4-13.6h2.3v9.4h.1l1.5-1.9 2.6-2.9h2.6l-3.7 4.2 4.2 6.7h-2.7l-3-5.2-1.5 1.6v3.6h-2.3zm11.1 1.4v-.3c0-.7.4-1.2 1.4-1.2s1.3.5 1.3 1.2v.3c0 .7-.3 1.2-1.3 1.2s-1.4-.5-1.4-1.2zm.3 3.2h2.3v10.8h-2.3zm8.1 10.7c-1.6 0-2.4-.9-2.4-2.3v-6.6h-1.6v-1.8h1c.8 0 1-.3 1-1v-1.9h2v2.9h2.3v1.8h-2.3v7.1h2.1v1.8z" fill="#fff"/></svg>