<svg width="342" height="192" viewBox="0 0 342 192" fill="none" xmlns="http://www.w3.org/2000/svg">
<rect width="342" height="192" fill="white"/>
<rect opacity="0.4" y="168" width="342" height="24" fill="#F2F4F8"/>
<rect opacity="0.4" y="120" width="342" height="24" fill="#F2F4F8"/>
<rect opacity="0.4" y="72" width="342" height="24" fill="#F2F4F8"/>
<rect opacity="0.4" y="24" width="342" height="24" fill="#F2F4F8"/>
<rect x="0.5" y="0.5" width="341" height="191" stroke="#DDE1E6"/>
<path fill-rule="evenodd" clip-rule="evenodd" d="M52.3996 77.2H53.5996C54.5937 77.2 55.3996 76.3942 55.3996 75.4V70.6C55.3996 69.6059 54.5937 68.8 53.5996 68.8H52.3996C51.4055 68.8 50.5996 69.6059 50.5996 70.6V75.4C50.5996 76.3942 51.4055 77.2 52.3996 77.2ZM51.7996 70.6C51.7996 70.2687 52.0682 70 52.3996 70H53.5996C53.931 70 54.1996 70.2687 54.1996 70.6V75.4C54.1996 75.7314 53.931 76 53.5996 76H52.3996C52.0682 76 51.7996 75.7314 51.7996 75.4V70.6Z" fill="#161616"/>
<path d="M58.0545 79L57 78.46L59.6804 73L57 67.54L58.0545 67L61 73L58.0545 79Z" fill="#161616"/>
<rect x="47" y="67" width="1" height="12" fill="#161616"/>
<line x1="69" y1="72.5" x2="291" y2="72.5" stroke="black"/>
<path fill-rule="evenodd" clip-rule="evenodd" d="M52.3996 125.2H53.5996C54.5937 125.2 55.3996 124.394 55.3996 123.4V118.6C55.3996 117.606 54.5937 116.8 53.5996 116.8H52.3996C51.4055 116.8 50.5996 117.606 50.5996 118.6V123.4C50.5996 124.394 51.4055 125.2 52.3996 125.2ZM51.7996 118.6C51.7996 118.269 52.0682 118 52.3996 118H53.5996C53.931 118 54.1996 118.269 54.1996 118.6V123.4C54.1996 123.731 53.931 124 53.5996 124H52.3996C52.0682 124 51.7996 123.731 51.7996 123.4V118.6Z" fill="#161616"/>
<path d="M58.0545 127L57 126.46L59.6804 121L57 115.54L58.0545 115L61 121L58.0545 127Z" fill="#161616"/>
<rect x="47" y="115" width="1" height="12" fill="#161616"/>
<line x1="69" y1="120.5" x2="291" y2="120.5" stroke="black"/>
<rect x="110" y="57" width="51" height="32" fill="#6929C4"/>
<path d="M119.192 74.6H122.126L124.844 80H126.554L123.674 74.456C125.312 74.078 126.194 72.836 126.194 71C126.194 68.714 124.88 67.436 122.684 67.436H117.68V80H119.192V74.6ZM119.192 73.304V68.768H122.684C123.872 68.768 124.574 69.416 124.574 70.568V71.504C124.574 72.656 123.872 73.304 122.684 73.304H119.192ZM135.278 80V78.74H129.752L135.134 71.792V70.712H128.276V71.972H133.388L128.114 78.794V80H135.278Z" fill="white"/>
<path d="M142.248 80.8708C142.248 80.8228 142.248 80.7909 142.005 80.5192C140.574 78.9049 139.773 76.2678 139.773 73.0073C139.773 69.9067 140.445 67.2376 142.105 65.3516C142.248 65.2078 142.248 65.1758 142.248 65.1279C142.248 65.032 142.177 65 142.119 65C141.933 65 140.76 66.1508 140.059 67.7171C139.329 69.3313 139 71.0414 139 73.0073C139 74.4298 139.2 76.3317 139.944 78.0419C140.789 79.9598 141.962 80.9987 142.119 80.9987C142.177 80.9987 142.248 80.9667 142.248 80.8708Z" fill="white"/>
<path d="M149.385 68.9476C149.385 67.3174 148.927 65.7351 147.754 65.7351C145.751 65.7351 143.619 70.418 143.619 73.9342C143.619 74.6694 143.762 77.1467 145.264 77.1467C147.21 77.1467 149.385 72.5757 149.385 68.9476ZM145.05 71.2012C145.264 70.2582 145.565 68.9157 146.137 67.7809C146.609 66.8219 147.11 66.0548 147.74 66.0548C148.212 66.0548 148.527 66.5023 148.527 68.0366C148.527 68.612 148.484 69.4111 148.069 71.2012H145.05ZM147.969 71.6807C147.611 73.247 147.31 74.2539 146.795 75.2608C146.38 76.0759 145.879 76.8271 145.279 76.8271C144.835 76.8271 144.477 76.4435 144.477 74.8612C144.477 73.8223 144.706 72.7355 144.935 71.6807H147.969Z" fill="white"/>
<path d="M154 73.0073C154 71.7926 153.857 69.8108 153.056 67.9568C152.211 66.0389 151.038 65 150.881 65C150.823 65 150.752 65.032 150.752 65.1279C150.752 65.1758 150.752 65.2078 150.995 65.4795C152.426 67.0937 153.227 69.7309 153.227 72.9913C153.227 76.092 152.555 78.7611 150.895 80.647C150.752 80.7909 150.752 80.8228 150.752 80.8708C150.752 80.9667 150.823 80.9987 150.881 80.9987C151.067 80.9987 152.24 79.8479 152.941 78.2816C153.671 76.6514 154 74.9252 154 73.0073Z" fill="white"/>
<rect x="193" y="105" width="51" height="32" fill="#6929C4"/>
<path d="M202.192 122.6H205.126L207.844 128H209.554L206.674 122.456C208.312 122.078 209.194 120.836 209.194 119C209.194 116.714 207.88 115.436 205.684 115.436H200.68V128H202.192V122.6ZM202.192 121.304V116.768H205.684C206.872 116.768 207.574 117.416 207.574 118.568V119.504C207.574 120.656 206.872 121.304 205.684 121.304H202.192ZM218.278 128V126.74H212.752L218.134 119.792V118.712H211.276V119.972H216.388L211.114 126.794V128H218.278Z" fill="white"/>
<path d="M225.248 128.871C225.248 128.823 225.248 128.791 225.005 128.519C223.574 126.905 222.773 124.268 222.773 121.007C222.773 117.907 223.445 115.238 225.105 113.352C225.248 113.208 225.248 113.176 225.248 113.128C225.248 113.032 225.177 113 225.119 113C224.933 113 223.76 114.151 223.059 115.717C222.329 117.331 222 119.041 222 121.007C222 122.43 222.2 124.332 222.944 126.042C223.789 127.96 224.962 128.999 225.119 128.999C225.177 128.999 225.248 128.967 225.248 128.871Z" fill="white"/>
<path d="M232.385 116.948C232.385 115.317 231.927 113.735 230.754 113.735C228.751 113.735 226.619 118.418 226.619 121.934C226.619 122.669 226.762 125.147 228.264 125.147C230.21 125.147 232.385 120.576 232.385 116.948ZM228.05 119.201C228.264 118.258 228.565 116.916 229.137 115.781C229.609 114.822 230.11 114.055 230.74 114.055C231.212 114.055 231.527 114.502 231.527 116.037C231.527 116.612 231.484 117.411 231.069 119.201H228.05ZM230.969 119.681C230.611 121.247 230.31 122.254 229.795 123.261C229.38 124.076 228.879 124.827 228.279 124.827C227.835 124.827 227.477 124.443 227.477 122.861C227.477 121.822 227.706 120.736 227.935 119.681H230.969Z" fill="white"/>
<path d="M237 121.007C237 119.793 236.857 117.811 236.056 115.957C235.211 114.039 234.038 113 233.881 113C233.823 113 233.752 113.032 233.752 113.128C233.752 113.176 233.752 113.208 233.995 113.479C235.426 115.094 236.227 117.731 236.227 120.991C236.227 124.092 235.555 126.761 233.895 128.647C233.752 128.791 233.752 128.823 233.752 128.871C233.752 128.967 233.823 128.999 233.881 128.999C234.067 128.999 235.24 127.848 235.941 126.282C236.671 124.651 237 122.925 237 121.007Z" fill="white"/>
<line x1="218" y1="107" x2="218" y2="72" stroke="#6929C4" stroke-width="2"/>
<circle cx="218" cy="72" r="6" fill="#6929C4"/>
</svg>
