<svg width="546" height="144" viewBox="0 0 546 144" fill="none" xmlns="http://www.w3.org/2000/svg">
<g clip-path="url(#clip0_655:9773)">
<rect width="546" height="144" fill="white"/>
<rect opacity="0.4" y="106.286" width="546" height="17.7143" fill="#F2F4F8"/>
<rect opacity="0.4" y="70.8572" width="546" height="17.7143" fill="#F2F4F8"/>
<rect opacity="0.4" y="35.4286" width="546" height="17.7143" fill="#F2F4F8"/>
<rect opacity="0.4" width="546" height="17.7143" fill="#F2F4F8"/>
<path fill-rule="evenodd" clip-rule="evenodd" d="M38.3996 80.2H39.5996C40.5937 80.2 41.3996 79.3942 41.3996 78.4V73.6C41.3996 72.6059 40.5937 71.8 39.5996 71.8H38.3996C37.4055 71.8 36.5996 72.6059 36.5996 73.6V78.4C36.5996 79.3942 37.4055 80.2 38.3996 80.2ZM37.7996 73.6C37.7996 73.2687 38.0682 73 38.3996 73H39.5996C39.931 73 40.1996 73.2687 40.1996 73.6V78.4C40.1996 78.7314 39.931 79 39.5996 79H38.3996C38.0682 79 37.7996 78.7314 37.7996 78.4V73.6Z" fill="#161616"/>
<path d="M44.0545 82L43 81.46L45.6804 76L43 70.54L44.0545 70L47 76L44.0545 82Z" fill="#161616"/>
<rect x="33" y="70" width="1" height="12" fill="#161616"/>
<line x1="55" y1="75.5" x2="221" y2="75.5" stroke="black"/>
<path fill-rule="evenodd" clip-rule="evenodd" d="M274.4 80.2H275.6C276.594 80.2 277.4 79.3942 277.4 78.4V73.6C277.4 72.6059 276.594 71.8 275.6 71.8H274.4C273.405 71.8 272.6 72.6059 272.6 73.6V78.4C272.6 79.3942 273.405 80.2 274.4 80.2ZM273.8 73.6C273.8 73.2687 274.068 73 274.4 73H275.6C275.931 73 276.2 73.2687 276.2 73.6V78.4C276.2 78.7314 275.931 79 275.6 79H274.4C274.068 79 273.8 78.7314 273.8 78.4V73.6Z" fill="#161616"/>
<path d="M280.054 82L279 81.46L281.68 76L279 70.54L280.054 70L283 76L280.054 82Z" fill="#161616"/>
<rect x="269" y="70" width="1" height="12" fill="#161616"/>
<line x1="291" y1="75.5" x2="513" y2="75.5" stroke="black"/>
<rect x="136" y="60" width="51" height="32" fill="#6929C4"/>
<path d="M145.192 77.6H148.126L150.844 83H152.554L149.674 77.456C151.312 77.078 152.194 75.836 152.194 74C152.194 71.714 150.88 70.436 148.684 70.436H143.68V83H145.192V77.6ZM145.192 76.304V71.768H148.684C149.872 71.768 150.574 72.416 150.574 73.568V74.504C150.574 75.656 149.872 76.304 148.684 76.304H145.192ZM161.278 83V81.74H155.752L161.134 74.792V73.712H154.276V74.972H159.388L154.114 81.794V83H161.278Z" fill="white"/>
<rect x="369" y="60" width="51" height="32" fill="#6929C4"/>
<path d="M378.192 77.6H381.126L383.844 83H385.554L382.674 77.456C384.312 77.078 385.194 75.836 385.194 74C385.194 71.714 383.88 70.436 381.684 70.436H376.68V83H378.192V77.6ZM378.192 76.304V71.768H381.684C382.872 71.768 383.574 72.416 383.574 73.568V74.504C383.574 75.656 382.872 76.304 381.684 76.304H378.192ZM394.278 83V81.74H388.752L394.134 74.792V73.712H387.276V74.972H392.388L387.114 81.794V83H394.278Z" fill="white"/>
<rect x="82" y="60" width="32" height="32" fill="#1192E8"/>
<path d="M101.177 83H102.689V70.436H101.177V75.98H94.8227V70.436H93.3107V83H94.8227V77.312H101.177V83Z" fill="white"/>
<rect x="315" y="60" width="32" height="32" fill="#1192E8"/>
<path d="M334.177 83H335.689V70.436H334.177V75.98H327.823V70.436H326.311V83H327.823V77.312H334.177V83Z" fill="white"/>
<rect x="442" y="60" width="51" height="32" fill="#6929C4"/>
<path d="M449.368 77.6H452.302L455.02 83H456.73L453.85 77.456C455.488 77.078 456.37 75.836 456.37 74C456.37 71.714 455.056 70.436 452.86 70.436H447.856V83H449.368V77.6ZM449.368 76.304V71.768H452.86C454.048 71.768 454.75 72.416 454.75 73.568V74.504C454.75 75.656 454.048 76.304 452.86 76.304H449.368ZM458.073 83H459.675L462.285 79.364H462.339L464.751 83H466.443L463.095 78.212L466.371 73.712H464.769L462.321 77.168H462.267L459.909 73.712H458.217L461.511 78.32L458.073 83Z" fill="white"/>
<path d="M473.402 82.8801C473.402 82.8352 473.402 82.8052 473.147 82.5504C471.648 81.037 470.809 78.5644 470.809 75.5075C470.809 72.6004 471.513 70.0979 473.252 68.3297C473.402 68.1948 473.402 68.1648 473.402 68.1199C473.402 68.03 473.327 68 473.267 68C473.072 68 471.843 69.0789 471.109 70.5475C470.345 72.0609 470 73.6643 470 75.5075C470 76.8412 470.21 78.6244 470.989 80.2278C471.873 82.026 473.102 83 473.267 83C473.327 83 473.402 82.97 473.402 82.8801Z" fill="white"/>
<path d="M478.748 78.5794C478.493 78.5794 478.268 78.5794 478.268 78.5045C478.268 78.4745 478.523 77.0659 478.613 76.7363C479.093 74.8182 480.231 73.4396 481.535 73.4396C482.509 73.4396 482.959 74.1738 482.959 74.998C482.959 76.7063 481.041 78.5794 478.748 78.5794ZM478.104 79.3586C478.193 79.3736 478.343 79.3886 478.613 79.3886C481.071 79.3886 483.333 77.021 483.333 74.6533C483.333 73.7393 482.929 72.6304 481.67 72.6304C479.512 72.6304 478.598 75.6723 477.759 78.4895C476.036 78.1598 475.316 77.2458 475.316 76.2418C475.316 75.8372 475.631 74.2338 476.5 73.1548C476.665 72.96 476.665 72.9301 476.665 72.9001C476.665 72.7802 476.545 72.7802 476.515 72.7802C476.111 72.7802 474.972 74.968 474.972 76.3916C474.972 78.0699 476.29 78.984 477.504 79.2537L476.725 81.7862C476.65 82.011 476.65 82.041 476.65 82.1009C476.65 82.4605 477.01 82.4755 477.04 82.4755C477.189 82.4755 477.459 82.4156 477.579 82.1159C477.624 81.981 478.044 79.6583 478.104 79.3586Z" fill="white"/>
<path d="M488.075 75.5075C488.075 74.3686 487.925 72.5105 487.086 70.7722C486.202 68.974 484.973 68 484.808 68C484.749 68 484.674 68.03 484.674 68.1199C484.674 68.1648 484.674 68.1948 484.928 68.4496C486.427 69.963 487.266 72.4356 487.266 75.4925C487.266 78.3996 486.562 80.9021 484.823 82.6703C484.674 82.8052 484.674 82.8352 484.674 82.8801C484.674 82.97 484.749 83 484.808 83C485.003 83 486.232 81.9211 486.966 80.4525C487.731 78.9241 488.075 77.3057 488.075 75.5075Z" fill="white"/>
<path d="M168.402 82.8801C168.402 82.8352 168.402 82.8052 168.147 82.5504C166.648 81.037 165.809 78.5644 165.809 75.5075C165.809 72.6004 166.513 70.0979 168.252 68.3297C168.402 68.1948 168.402 68.1648 168.402 68.1199C168.402 68.03 168.327 68 168.267 68C168.072 68 166.843 69.0789 166.109 70.5475C165.345 72.0609 165 73.6643 165 75.5075C165 76.8412 165.21 78.6244 165.989 80.2278C166.873 82.026 168.102 83 168.267 83C168.327 83 168.402 82.97 168.402 82.8801Z" fill="white"/>
<path d="M175.876 71.7013C175.876 70.1728 175.396 68.6893 174.168 68.6893C172.07 68.6893 169.837 73.0799 169.837 76.3766C169.837 77.066 169.987 79.3886 171.56 79.3886C173.598 79.3886 175.876 75.1029 175.876 71.7013ZM171.335 73.8142C171.56 72.9301 171.875 71.6713 172.474 70.6074C172.969 69.7083 173.493 68.989 174.153 68.989C174.647 68.989 174.977 69.4086 174.977 70.8472C174.977 71.3866 174.932 72.1359 174.497 73.8142H171.335ZM174.392 74.2638C174.018 75.7323 173.703 76.6763 173.164 77.6204C172.729 78.3846 172.205 79.0889 171.575 79.0889C171.111 79.0889 170.736 78.7293 170.736 77.2458C170.736 76.2717 170.976 75.2528 171.216 74.2638H174.392Z" fill="white"/>
<path d="M180.708 75.5075C180.708 74.3686 180.559 72.5105 179.719 70.7722C178.835 68.974 177.607 68 177.442 68C177.382 68 177.307 68.03 177.307 68.1199C177.307 68.1648 177.307 68.1948 177.562 68.4496C179.06 69.963 179.899 72.4356 179.899 75.4925C179.899 78.3996 179.195 80.9021 177.457 82.6703C177.307 82.8052 177.307 82.8352 177.307 82.8801C177.307 82.97 177.382 83 177.442 83C177.637 83 178.865 81.9211 179.6 80.4525C180.364 78.9241 180.708 77.3057 180.708 75.5075Z" fill="white"/>
<path d="M401.402 82.8801C401.402 82.8352 401.402 82.8052 401.147 82.5504C399.648 81.037 398.809 78.5644 398.809 75.5075C398.809 72.6004 399.513 70.0979 401.252 68.3297C401.402 68.1948 401.402 68.1648 401.402 68.1199C401.402 68.03 401.327 68 401.267 68C401.072 68 399.843 69.0789 399.109 70.5475C398.345 72.0609 398 73.6643 398 75.5075C398 76.8412 398.21 78.6244 398.989 80.2278C399.873 82.026 401.102 83 401.267 83C401.327 83 401.402 82.97 401.402 82.8801Z" fill="white"/>
<path d="M408.876 71.7013C408.876 70.1728 408.396 68.6893 407.168 68.6893C405.07 68.6893 402.837 73.0799 402.837 76.3766C402.837 77.066 402.987 79.3886 404.56 79.3886C406.598 79.3886 408.876 75.1029 408.876 71.7013ZM404.335 73.8142C404.56 72.9301 404.875 71.6713 405.474 70.6074C405.969 69.7083 406.493 68.989 407.153 68.989C407.647 68.989 407.977 69.4086 407.977 70.8472C407.977 71.3866 407.932 72.1359 407.497 73.8142H404.335ZM407.392 74.2638C407.018 75.7323 406.703 76.6763 406.164 77.6204C405.729 78.3846 405.205 79.0889 404.575 79.0889C404.111 79.0889 403.736 78.7293 403.736 77.2458C403.736 76.2717 403.976 75.2528 404.216 74.2638H407.392Z" fill="white"/>
<path d="M413.708 75.5075C413.708 74.3686 413.559 72.5105 412.719 70.7722C411.835 68.974 410.607 68 410.442 68C410.382 68 410.307 68.03 410.307 68.1199C410.307 68.1648 410.307 68.1948 410.562 68.4496C412.06 69.963 412.899 72.4356 412.899 75.4925C412.899 78.3996 412.195 80.9021 410.457 82.6703C410.307 82.8052 410.307 82.8352 410.307 82.8801C410.307 82.97 410.382 83 410.442 83C410.637 83 411.865 81.9211 412.6 80.4525C413.364 78.9241 413.708 77.3057 413.708 75.5075Z" fill="white"/>
<path d="M273.942 36.168C275.692 36.168 276.854 35.314 277.554 33.858L276.056 32.976C275.734 33.858 275.048 34.53 273.942 34.53C272.57 34.53 271.688 33.578 271.688 31.898V30.358C271.688 28.692 272.57 27.698 273.942 27.698C275.034 27.698 275.65 28.286 275.93 29.154L277.512 28.314C276.826 26.802 275.692 26.06 273.942 26.06C271.366 26.06 269.728 27.894 269.728 31.184C269.728 34.474 271.366 36.168 273.942 36.168ZM280.074 27.628C280.802 27.628 281.124 27.25 281.124 26.732V26.452C281.124 25.934 280.802 25.556 280.074 25.556C279.332 25.556 279.024 25.934 279.024 26.452V26.732C279.024 27.25 279.332 27.628 280.074 27.628ZM279.178 36H280.97V28.692H279.178V36ZM285 36V31.52C285 30.722 285.63 30.386 286.834 30.386H287.394V28.692H287.002C285.84 28.692 285.252 29.434 285.07 30.204H285V28.692H283.208V36H285ZM291.679 36.168C293.093 36.168 294.115 35.524 294.591 34.236L293.219 33.578C292.953 34.236 292.533 34.726 291.679 34.726C290.685 34.726 290.181 34.04 290.181 33.018V31.688C290.181 30.666 290.685 29.966 291.679 29.966C292.449 29.966 292.911 30.414 293.079 31.03L294.549 30.372C294.115 29.224 293.149 28.524 291.679 28.524C289.523 28.524 288.305 29.994 288.305 32.332C288.305 34.684 289.523 36.168 291.679 36.168ZM300.501 36H302.293V28.692H300.501V33.522C300.501 34.306 299.787 34.684 299.073 34.684C298.219 34.684 297.841 34.138 297.841 33.13V28.692H296.049V33.312C296.049 35.132 296.889 36.168 298.387 36.168C299.591 36.168 300.179 35.51 300.431 34.782H300.501V36ZM305.419 27.628C306.147 27.628 306.469 27.25 306.469 26.732V26.452C306.469 25.934 306.147 25.556 305.419 25.556C304.677 25.556 304.369 25.934 304.369 26.452V26.732C304.369 27.25 304.677 27.628 305.419 27.628ZM304.523 36H306.315V28.692H304.523V36ZM310.835 36H312.123V34.572H310.737V30.12H312.235V28.692H310.737V26.69H309.127V27.936C309.127 28.44 308.959 28.692 308.427 28.692H307.867V30.12H308.945V34.138C308.945 35.328 309.603 36 310.835 36ZM317.53 36H322.486C323.928 36 325.006 34.768 325.006 33.2C325.006 31.534 323.746 30.932 322.892 30.918V30.834C323.788 30.778 324.642 30.218 324.642 28.734C324.642 27.222 323.662 26.228 322.052 26.228H317.53V36ZM319.378 31.814H321.954C322.654 31.814 323.074 32.206 323.074 32.892V33.368C323.074 34.054 322.654 34.432 321.954 34.432H319.378V31.814ZM319.378 27.796H321.66C322.332 27.796 322.724 28.174 322.724 28.832V29.266C322.724 29.91 322.332 30.302 321.66 30.302H319.378V27.796Z" fill="black"/>
<path d="M37.942 36.168C39.692 36.168 40.854 35.314 41.554 33.858L40.056 32.976C39.734 33.858 39.048 34.53 37.942 34.53C36.57 34.53 35.688 33.578 35.688 31.898V30.358C35.688 28.692 36.57 27.698 37.942 27.698C39.034 27.698 39.65 28.286 39.93 29.154L41.512 28.314C40.826 26.802 39.692 26.06 37.942 26.06C35.366 26.06 33.728 27.894 33.728 31.184C33.728 34.474 35.366 36.168 37.942 36.168ZM44.0744 27.628C44.8024 27.628 45.1244 27.25 45.1244 26.732V26.452C45.1244 25.934 44.8024 25.556 44.0744 25.556C43.3324 25.556 43.0244 25.934 43.0244 26.452V26.732C43.0244 27.25 43.3324 27.628 44.0744 27.628ZM43.1784 36H44.9704V28.692H43.1784V36ZM48.9996 36V31.52C48.9996 30.722 49.6296 30.386 50.8336 30.386H51.3936V28.692H51.0016C49.8396 28.692 49.2516 29.434 49.0696 30.204H48.9996V28.692H47.2076V36H48.9996ZM55.6793 36.168C57.0933 36.168 58.1153 35.524 58.5913 34.236L57.2193 33.578C56.9533 34.236 56.5333 34.726 55.6793 34.726C54.6853 34.726 54.1813 34.04 54.1813 33.018V31.688C54.1813 30.666 54.6853 29.966 55.6793 29.966C56.4493 29.966 56.9113 30.414 57.0793 31.03L58.5493 30.372C58.1153 29.224 57.1493 28.524 55.6793 28.524C53.5233 28.524 52.3053 29.994 52.3053 32.332C52.3053 34.684 53.5233 36.168 55.6793 36.168ZM64.501 36H66.293V28.692H64.501V33.522C64.501 34.306 63.787 34.684 63.073 34.684C62.219 34.684 61.841 34.138 61.841 33.13V28.692H60.049V33.312C60.049 35.132 60.889 36.168 62.387 36.168C63.591 36.168 64.179 35.51 64.431 34.782H64.501V36ZM69.4195 27.628C70.1475 27.628 70.4695 27.25 70.4695 26.732V26.452C70.4695 25.934 70.1475 25.556 69.4195 25.556C68.6775 25.556 68.3695 25.934 68.3695 26.452V26.732C68.3695 27.25 68.6775 27.628 69.4195 27.628ZM68.5235 36H70.3155V28.692H68.5235V36ZM74.8346 36H76.1226V34.572H74.7366V30.12H76.2346V28.692H74.7366V26.69H73.1266V27.936C73.1266 28.44 72.9586 28.692 72.4266 28.692H71.8666V30.12H72.9446V34.138C72.9446 35.328 73.6026 36 74.8346 36ZM89.4956 36L86.2476 26.228H83.9516L80.6756 36H82.5516L83.3216 33.508H86.7936L87.5776 36H89.4956ZM86.3456 31.926H83.7696L85.0156 27.908H85.0856L86.3456 31.926Z" fill="black"/>
</g>
<defs>
<clipPath id="clip0_655:9773">
<rect width="546" height="144" fill="white"/>
</clipPath>
</defs>
</svg>
