<svg enable-background="new 0 0 130 36" viewBox="0 0 130 36" xmlns="http://www.w3.org/2000/svg"><path d="m17 31v-12l-12 12z" fill="#fd8c00"/><path d="m4 4.5v13 13l13-13z" fill="#cd0e66"/><path d="m31 5-12 12h12" fill="#22ab24"/><path d="m31 18h-13v13h13" fill="#0f82f2"/><g fill="#fff"><path d="m58.1 24.9-.9-11-4.3 11.1h-1.5l-4.4-11-.8 11h-1.7l1.1-13.8h2.3l4.3 11.2 4.3-11.3h2.3l1.1 13.8z"/><path d="m68.4 24.9-.2-1.3c-.9 1-2.1 1.5-3.4 1.5-1.4.2-2.6-.8-2.8-2.1 0 0 0 0 0-.1v-.5c0-2.4 2-3.3 6-3.7v-.4c0-1.2-.7-1.6-1.8-1.6s-2.3.3-3.3.8l-.2-1.5c1.2-.5 2.4-.8 3.7-.8 2.3 0 3.4.9 3.4 3.1v6.7zm-.3-4.8c-3.5.3-4.3 1.3-4.3 2.3.1.7.7 1.2 1.4 1.2 1.1-.1 2.1-.5 2.8-1.3z"/><path d="m75.8 25.1c-1.7 0-2.8-.6-2.8-2.5v-5.7h-1.4v-1.5h1.4v-3.2l1.7-.3v3.4h2.1l.2 1.5h-2.2v5.4c0 .8.3 1.3 1.3 1.3h.8l.2 1.5z"/><path d="m85.3 24.9v-6.5c0-1-.4-1.6-1.5-1.6-1.1.1-2.1.6-2.8 1.5v6.6h-1.7v-14.2l1.8-.3v6.2c.8-.9 2-1.4 3.2-1.5 1.4-.2 2.6.8 2.8 2.1v7.7z"/><path d="m90.9 13.4c-.6 0-1.1-.5-1.1-1.1s.5-1.1 1.1-1.1 1.1.5 1.1 1.1c0 .6-.5 1.1-1.1 1.1zm-.9 11.5v-9.5h1.8v9.5z"/><path d="m98.3 28.5c-1.2 0-2.5-.2-3.6-.7l.3-1.7c1 .6 2.2.9 3.4.9 1.7 0 2.4-.9 2.4-2.2v-1.2c-.7.8-1.8 1.3-2.9 1.3-2.1 0-3.8-1.5-3.8-4.6s1.9-5.1 4.7-5.1c1.3 0 2.5.2 3.7.6v8.9c.1 2.3-1.2 3.8-4.2 3.8zm2.5-11.4c-.6-.2-1.3-.3-1.9-.3-1.9 0-2.9 1.1-2.9 3.5s.9 3.1 2.2 3.1c1.1-.1 2-.7 2.6-1.6z"/><path d="m109.2 25.1c-2.5 0-4.4-1.8-4.4-5s1.8-5 4.4-5 4.4 1.8 4.4 5-1.8 5-4.4 5zm0-8.4c-1.7 0-2.6 1.5-2.6 3.5s.9 3.5 2.6 3.5 2.6-1.5 2.6-3.5-.9-3.5-2.6-3.5z"/><path d="m121.9 24.9v-6.5c0-1-.4-1.6-1.5-1.6-1.1.1-2.1.6-2.8 1.5v6.6h-1.7v-9.5h1.4l.2 1.4c.9-.9 2.1-1.5 3.4-1.6 1.4-.2 2.6.8 2.8 2.1v.1 7.5z"/></g></svg>