<svg width="351" height="86" viewBox="0 0 351 86" fill="none" xmlns="http://www.w3.org/2000/svg">
<path d="M5.4 14.216C3.72 14.216 2.478 13.646 1.674 12.506C0.882 11.366 0.486 9.77 0.486 7.718C0.486 5.666 0.882 4.07 1.674 2.93C2.478 1.79 3.72 1.22 5.4 1.22C7.08 1.22 8.316 1.79 9.108 2.93C9.912 4.07 10.314 5.666 10.314 7.718C10.314 9.77 9.912 11.366 9.108 12.506C8.316 13.646 7.08 14.216 5.4 14.216ZM5.4 12.092C6.204 12.092 6.762 11.81 7.074 11.246C7.398 10.682 7.56 9.896 7.56 8.888V6.548C7.56 5.54 7.398 4.754 7.074 4.19C6.762 3.626 6.204 3.344 5.4 3.344C4.596 3.344 4.032 3.626 3.708 4.19C3.396 4.754 3.24 5.54 3.24 6.548V8.888C3.24 9.896 3.396 10.682 3.708 11.246C4.032 11.81 4.596 12.092 5.4 12.092ZM5.4 8.78C4.98 8.78 4.686 8.696 4.518 8.528C4.362 8.36 4.284 8.156 4.284 7.916V7.52C4.284 7.28 4.362 7.076 4.518 6.908C4.686 6.74 4.98 6.656 5.4 6.656C5.82 6.656 6.108 6.74 6.264 6.908C6.432 7.076 6.516 7.28 6.516 7.52V7.916C6.516 8.156 6.432 8.36 6.264 8.528C6.108 8.696 5.82 8.78 5.4 8.78ZM15.361 12.884V9.572H12.229V7.448H15.361V4.136H17.665V7.448H20.797V9.572H17.665V12.884H15.361ZM27.6259 14.216C25.9459 14.216 24.7039 13.646 23.8999 12.506C23.1079 11.366 22.7119 9.77 22.7119 7.718C22.7119 5.666 23.1079 4.07 23.8999 2.93C24.7039 1.79 25.9459 1.22 27.6259 1.22C29.3059 1.22 30.5419 1.79 31.3339 2.93C32.1379 4.07 32.5399 5.666 32.5399 7.718C32.5399 9.77 32.1379 11.366 31.3339 12.506C30.5419 13.646 29.3059 14.216 27.6259 14.216ZM27.6259 12.092C28.4299 12.092 28.9879 11.81 29.2999 11.246C29.6239 10.682 29.7859 9.896 29.7859 8.888V6.548C29.7859 5.54 29.6239 4.754 29.2999 4.19C28.9879 3.626 28.4299 3.344 27.6259 3.344C26.8219 3.344 26.2579 3.626 25.9339 4.19C25.6219 4.754 25.4659 5.54 25.4659 6.548V8.888C25.4659 9.896 25.6219 10.682 25.9339 11.246C26.2579 11.81 26.8219 12.092 27.6259 12.092ZM27.6259 8.78C27.2059 8.78 26.9119 8.696 26.7439 8.528C26.5879 8.36 26.5099 8.156 26.5099 7.916V7.52C26.5099 7.28 26.5879 7.076 26.7439 6.908C26.9119 6.74 27.2059 6.656 27.6259 6.656C28.0459 6.656 28.3339 6.74 28.4899 6.908C28.6579 7.076 28.7419 7.28 28.7419 7.52V7.916C28.7419 8.156 28.6579 8.36 28.4899 8.528C28.3339 8.696 28.0459 8.78 27.6259 8.78ZM45.5679 7.502V5.378H54.1359V7.502H45.5679ZM45.5679 11.642V9.518H54.1359V11.642H45.5679ZM72.0778 14.216C70.3978 14.216 69.1558 13.646 68.3518 12.506C67.5598 11.366 67.1638 9.77 67.1638 7.718C67.1638 5.666 67.5598 4.07 68.3518 2.93C69.1558 1.79 70.3978 1.22 72.0778 1.22C73.7578 1.22 74.9938 1.79 75.7858 2.93C76.5898 4.07 76.9918 5.666 76.9918 7.718C76.9918 9.77 76.5898 11.366 75.7858 12.506C74.9938 13.646 73.7578 14.216 72.0778 14.216ZM72.0778 12.092C72.8818 12.092 73.4398 11.81 73.7518 11.246C74.0758 10.682 74.2378 9.896 74.2378 8.888V6.548C74.2378 5.54 74.0758 4.754 73.7518 4.19C73.4398 3.626 72.8818 3.344 72.0778 3.344C71.2738 3.344 70.7098 3.626 70.3858 4.19C70.0738 4.754 69.9178 5.54 69.9178 6.548V8.888C69.9178 9.896 70.0738 10.682 70.3858 11.246C70.7098 11.81 71.2738 12.092 72.0778 12.092ZM72.0778 8.78C71.6578 8.78 71.3638 8.696 71.1958 8.528C71.0398 8.36 70.9618 8.156 70.9618 7.916V7.52C70.9618 7.28 71.0398 7.076 71.1958 6.908C71.3638 6.74 71.6578 6.656 72.0778 6.656C72.4978 6.656 72.7858 6.74 72.9418 6.908C73.1098 7.076 73.1938 7.28 73.1938 7.52V7.916C73.1938 8.156 73.1098 8.36 72.9418 8.528C72.7858 8.696 72.4978 8.78 72.0778 8.78ZM83.1908 14.216C81.5108 14.216 80.2688 13.646 79.4648 12.506C78.6728 11.366 78.2768 9.77 78.2768 7.718C78.2768 5.666 78.6728 4.07 79.4648 2.93C80.2688 1.79 81.5108 1.22 83.1908 1.22C84.8708 1.22 86.1068 1.79 86.8988 2.93C87.7028 4.07 88.1048 5.666 88.1048 7.718C88.1048 9.77 87.7028 11.366 86.8988 12.506C86.1068 13.646 84.8708 14.216 83.1908 14.216ZM83.1908 12.092C83.9948 12.092 84.5528 11.81 84.8648 11.246C85.1888 10.682 85.3508 9.896 85.3508 8.888V6.548C85.3508 5.54 85.1888 4.754 84.8648 4.19C84.5528 3.626 83.9948 3.344 83.1908 3.344C82.3868 3.344 81.8228 3.626 81.4988 4.19C81.1868 4.754 81.0308 5.54 81.0308 6.548V8.888C81.0308 9.896 81.1868 10.682 81.4988 11.246C81.8228 11.81 82.3868 12.092 83.1908 12.092ZM83.1908 8.78C82.7708 8.78 82.4768 8.696 82.3088 8.528C82.1528 8.36 82.0748 8.156 82.0748 7.916V7.52C82.0748 7.28 82.1528 7.076 82.3088 6.908C82.4768 6.74 82.7708 6.656 83.1908 6.656C83.6108 6.656 83.8988 6.74 84.0548 6.908C84.2228 7.076 84.3068 7.28 84.3068 7.52V7.916C84.3068 8.156 84.2228 8.36 84.0548 8.528C83.8988 8.696 83.6108 8.78 83.1908 8.78ZM114.262 8.402C114.262 7.526 114.358 6.686 114.55 5.882C114.754 5.066 115.024 4.31 115.36 3.614C115.708 2.918 116.11 2.294 116.566 1.742C117.022 1.178 117.502 0.703999 118.006 0.319999H120.67C120.106 0.703999 119.572 1.154 119.068 1.67C118.564 2.174 118.12 2.732 117.736 3.344C117.364 3.956 117.064 4.61 116.836 5.306C116.608 6.002 116.494 6.728 116.494 7.484V9.32C116.494 10.076 116.608 10.802 116.836 11.498C117.064 12.194 117.364 12.848 117.736 13.46C118.12 14.072 118.564 14.63 119.068 15.134C119.572 15.65 120.106 16.1 120.67 16.484H118.006C117.502 16.112 117.022 15.644 116.566 15.08C116.11 14.516 115.708 13.886 115.36 13.19C115.024 12.494 114.754 11.744 114.55 10.94C114.358 10.124 114.262 9.278 114.262 8.402ZM124.817 3.542C124.277 3.542 123.881 3.422 123.629 3.182C123.389 2.93 123.269 2.612 123.269 2.228V1.832C123.269 1.448 123.389 1.136 123.629 0.895999C123.881 0.644 124.277 0.518 124.817 0.518C125.357 0.518 125.747 0.644 125.987 0.895999C126.239 1.136 126.365 1.448 126.365 1.832V2.228C126.365 2.612 126.239 2.93 125.987 3.182C125.747 3.422 125.357 3.542 124.817 3.542ZM123.485 4.55H126.149V14H123.485V4.55ZM128.955 14V4.55H131.619V6.152H131.727C131.895 5.66 132.189 5.234 132.609 4.874C133.029 4.514 133.611 4.334 134.355 4.334C135.327 4.334 136.059 4.658 136.551 5.306C137.055 5.954 137.307 6.878 137.307 8.078V14H134.643V8.294C134.643 7.682 134.547 7.232 134.355 6.944C134.163 6.644 133.821 6.494 133.329 6.494C133.113 6.494 132.903 6.524 132.699 6.584C132.495 6.632 132.309 6.716 132.141 6.836C131.985 6.956 131.859 7.106 131.763 7.286C131.667 7.454 131.619 7.652 131.619 7.88V14H128.955ZM150.368 12.416H150.278C150.206 12.668 150.092 12.908 149.936 13.136C149.78 13.352 149.588 13.544 149.36 13.712C149.144 13.868 148.892 13.988 148.604 14.072C148.328 14.168 148.04 14.216 147.74 14.216C146.54 14.216 145.634 13.796 145.022 12.956C144.41 12.104 144.104 10.874 144.104 9.266C144.104 7.658 144.41 6.434 145.022 5.594C145.634 4.754 146.54 4.334 147.74 4.334C148.352 4.334 148.892 4.502 149.36 4.838C149.84 5.174 150.146 5.606 150.278 6.134H150.368V0.68H153.032V14H150.368V12.416ZM148.622 12.056C149.126 12.056 149.54 11.936 149.864 11.696C150.2 11.444 150.368 11.102 150.368 10.67V7.88C150.368 7.448 150.2 7.112 149.864 6.872C149.54 6.62 149.126 6.494 148.622 6.494C148.118 6.494 147.698 6.674 147.362 7.034C147.038 7.382 146.876 7.856 146.876 8.456V10.094C146.876 10.694 147.038 11.174 147.362 11.534C147.698 11.882 148.118 12.056 148.622 12.056ZM159.785 14.216C159.065 14.216 158.423 14.102 157.859 13.874C157.295 13.634 156.815 13.304 156.419 12.884C156.035 12.452 155.741 11.93 155.537 11.318C155.345 10.706 155.249 10.022 155.249 9.266C155.249 8.522 155.345 7.85 155.537 7.25C155.729 6.638 156.011 6.116 156.383 5.684C156.767 5.252 157.235 4.922 157.787 4.694C158.339 4.454 158.969 4.334 159.677 4.334C160.457 4.334 161.123 4.466 161.675 4.73C162.239 4.994 162.695 5.348 163.043 5.792C163.403 6.236 163.661 6.752 163.817 7.34C163.985 7.916 164.069 8.522 164.069 9.158V9.95H158.003V10.094C158.003 10.718 158.171 11.216 158.507 11.588C158.843 11.948 159.371 12.128 160.091 12.128C160.643 12.128 161.093 12.02 161.441 11.804C161.789 11.576 162.113 11.306 162.413 10.994L163.745 12.65C163.325 13.142 162.773 13.526 162.089 13.802C161.417 14.078 160.649 14.216 159.785 14.216ZM159.731 6.296C159.191 6.296 158.765 6.476 158.453 6.836C158.153 7.184 158.003 7.652 158.003 8.24V8.384H161.315V8.222C161.315 7.646 161.183 7.184 160.919 6.836C160.667 6.476 160.271 6.296 159.731 6.296ZM170.086 14.216C169.378 14.216 168.748 14.102 168.196 13.874C167.644 13.634 167.182 13.304 166.81 12.884C166.438 12.452 166.156 11.93 165.964 11.318C165.772 10.706 165.676 10.022 165.676 9.266C165.676 8.51 165.772 7.832 165.964 7.232C166.156 6.62 166.438 6.098 166.81 5.666C167.182 5.234 167.644 4.904 168.196 4.676C168.748 4.448 169.378 4.334 170.086 4.334C171.046 4.334 171.844 4.55 172.48 4.982C173.128 5.414 173.59 6.02 173.866 6.8L171.706 7.736C171.622 7.376 171.448 7.07 171.184 6.818C170.92 6.566 170.554 6.44 170.086 6.44C169.546 6.44 169.138 6.62 168.862 6.98C168.586 7.328 168.448 7.802 168.448 8.402V10.166C168.448 10.766 168.586 11.24 168.862 11.588C169.138 11.936 169.546 12.11 170.086 12.11C170.566 12.11 170.944 11.984 171.22 11.732C171.508 11.468 171.718 11.126 171.85 10.706L173.92 11.606C173.608 12.506 173.122 13.166 172.462 13.586C171.814 14.006 171.022 14.216 170.086 14.216ZM177.221 3.542C176.681 3.542 176.285 3.422 176.033 3.182C175.793 2.93 175.673 2.612 175.673 2.228V1.832C175.673 1.448 175.793 1.136 176.033 0.895999C176.285 0.644 176.681 0.518 177.221 0.518C177.761 0.518 178.151 0.644 178.391 0.895999C178.643 1.136 178.769 1.448 178.769 1.832V2.228C178.769 2.612 178.643 2.93 178.391 3.182C178.151 3.422 177.761 3.542 177.221 3.542ZM175.889 4.55H178.553V14H175.889V4.55ZM181.359 14V4.55H184.023V6.152H184.131C184.299 5.648 184.587 5.222 184.995 4.874C185.403 4.514 185.961 4.334 186.669 4.334C187.317 4.334 187.869 4.496 188.325 4.82C188.781 5.144 189.111 5.618 189.315 6.242H189.369C189.453 5.978 189.579 5.732 189.747 5.504C189.927 5.264 190.143 5.06 190.395 4.892C190.647 4.724 190.929 4.592 191.241 4.496C191.553 4.388 191.889 4.334 192.249 4.334C193.161 4.334 193.857 4.658 194.337 5.306C194.829 5.954 195.075 6.878 195.075 8.078V14H192.411V8.294C192.411 7.094 191.979 6.494 191.115 6.494C190.719 6.494 190.359 6.608 190.035 6.836C189.711 7.064 189.549 7.412 189.549 7.88V14H186.885V8.294C186.885 7.094 186.453 6.494 185.589 6.494C185.397 6.494 185.205 6.524 185.013 6.584C184.833 6.632 184.665 6.716 184.509 6.836C184.365 6.956 184.245 7.106 184.149 7.286C184.065 7.454 184.023 7.652 184.023 7.88V14H181.359ZM204.747 14C204.267 14 203.865 13.85 203.541 13.55C203.229 13.25 203.031 12.848 202.947 12.344H202.839C202.695 12.956 202.377 13.424 201.885 13.748C201.393 14.06 200.787 14.216 200.067 14.216C199.119 14.216 198.393 13.964 197.889 13.46C197.385 12.956 197.133 12.29 197.133 11.462C197.133 10.466 197.493 9.728 198.213 9.248C198.945 8.756 199.935 8.51 201.183 8.51H202.677V7.916C202.677 7.46 202.557 7.1 202.317 6.836C202.077 6.56 201.675 6.422 201.111 6.422C200.583 6.422 200.163 6.536 199.851 6.764C199.539 6.992 199.281 7.25 199.077 7.538L197.493 6.134C197.877 5.57 198.357 5.132 198.933 4.82C199.521 4.496 200.313 4.334 201.309 4.334C202.653 4.334 203.661 4.628 204.333 5.216C205.005 5.804 205.341 6.662 205.341 7.79V11.93H206.223V14H204.747ZM201.057 12.362C201.501 12.362 201.879 12.266 202.191 12.074C202.515 11.882 202.677 11.57 202.677 11.138V10.022H201.381C200.337 10.022 199.815 10.376 199.815 11.084V11.354C199.815 11.702 199.923 11.96 200.139 12.128C200.355 12.284 200.661 12.362 201.057 12.362ZM210.977 14C210.065 14 209.393 13.778 208.961 13.334C208.541 12.89 208.331 12.248 208.331 11.408V0.68H210.995V11.93H212.183V14H210.977ZM215.86 10.958C216.4 10.958 216.796 11.096 217.048 11.372C217.312 11.636 217.444 11.978 217.444 12.398V12.758C217.444 13.49 217.264 14.21 216.904 14.918C216.556 15.626 216.094 16.202 215.518 16.646H213.718C214.138 16.25 214.498 15.854 214.798 15.458C215.098 15.074 215.326 14.642 215.482 14.162C215.062 14.09 214.756 13.928 214.564 13.676C214.372 13.412 214.276 13.106 214.276 12.758V12.398C214.276 11.978 214.402 11.636 214.654 11.372C214.918 11.096 215.32 10.958 215.86 10.958ZM228.055 14C227.131 14 226.429 13.766 225.949 13.298C225.481 12.83 225.247 12.146 225.247 11.246V6.62H223.915V4.55H224.581C224.941 4.55 225.187 4.466 225.319 4.298C225.451 4.118 225.517 3.866 225.517 3.542V1.994H227.911V4.55H229.783V6.62H227.911V11.93H229.639V14H228.055ZM231.953 0.68H234.617V6.152H234.725C234.893 5.66 235.187 5.234 235.607 4.874C236.027 4.514 236.609 4.334 237.353 4.334C238.325 4.334 239.057 4.658 239.549 5.306C240.053 5.954 240.305 6.878 240.305 8.078V14H237.641V8.294C237.641 7.682 237.545 7.232 237.353 6.944C237.161 6.644 236.819 6.494 236.327 6.494C236.111 6.494 235.901 6.524 235.697 6.584C235.493 6.632 235.307 6.716 235.139 6.836C234.983 6.956 234.857 7.106 234.761 7.286C234.665 7.454 234.617 7.652 234.617 7.88V14H231.953V0.68ZM244.328 3.542C243.788 3.542 243.392 3.422 243.14 3.182C242.9 2.93 242.78 2.612 242.78 2.228V1.832C242.78 1.448 242.9 1.136 243.14 0.895999C243.392 0.644 243.788 0.518 244.328 0.518C244.868 0.518 245.258 0.644 245.498 0.895999C245.75 1.136 245.876 1.448 245.876 1.832V2.228C245.876 2.612 245.75 2.93 245.498 3.182C245.258 3.422 244.868 3.542 244.328 3.542ZM242.996 4.55H245.66V14H242.996V4.55ZM251.67 14.216C250.758 14.216 249.99 14.072 249.366 13.784C248.742 13.484 248.184 13.064 247.692 12.524L249.258 10.94C249.594 11.312 249.966 11.606 250.374 11.822C250.782 12.038 251.244 12.146 251.76 12.146C252.288 12.146 252.654 12.068 252.858 11.912C253.062 11.744 253.164 11.522 253.164 11.246C253.164 10.802 252.846 10.538 252.21 10.454L251.184 10.328C249.06 10.064 247.998 9.092 247.998 7.412C247.998 6.956 248.082 6.542 248.25 6.17C248.43 5.786 248.676 5.462 248.988 5.198C249.312 4.922 249.696 4.712 250.14 4.568C250.596 4.412 251.106 4.334 251.67 4.334C252.162 4.334 252.594 4.37 252.966 4.442C253.35 4.502 253.686 4.598 253.974 4.73C254.274 4.85 254.544 5.006 254.784 5.198C255.036 5.378 255.282 5.582 255.522 5.81L253.992 7.376C253.692 7.076 253.35 6.842 252.966 6.674C252.594 6.494 252.21 6.404 251.814 6.404C251.358 6.404 251.034 6.476 250.842 6.62C250.65 6.764 250.554 6.956 250.554 7.196C250.554 7.448 250.62 7.646 250.752 7.79C250.896 7.922 251.16 8.018 251.544 8.078L252.606 8.222C254.682 8.498 255.72 9.446 255.72 11.066C255.72 11.522 255.624 11.942 255.432 12.326C255.24 12.71 254.964 13.046 254.604 13.334C254.256 13.61 253.83 13.826 253.326 13.982C252.834 14.138 252.282 14.216 251.67 14.216ZM263.763 3.542C263.223 3.542 262.827 3.422 262.575 3.182C262.335 2.93 262.215 2.612 262.215 2.228V1.832C262.215 1.448 262.335 1.136 262.575 0.895999C262.827 0.644 263.223 0.518 263.763 0.518C264.303 0.518 264.693 0.644 264.933 0.895999C265.185 1.136 265.311 1.448 265.311 1.832V2.228C265.311 2.612 265.185 2.93 264.933 3.182C264.693 3.422 264.303 3.542 263.763 3.542ZM262.431 4.55H265.095V14H262.431V4.55ZM271.105 14.216C270.193 14.216 269.425 14.072 268.801 13.784C268.177 13.484 267.619 13.064 267.127 12.524L268.693 10.94C269.029 11.312 269.401 11.606 269.809 11.822C270.217 12.038 270.679 12.146 271.195 12.146C271.723 12.146 272.089 12.068 272.293 11.912C272.497 11.744 272.599 11.522 272.599 11.246C272.599 10.802 272.281 10.538 271.645 10.454L270.619 10.328C268.495 10.064 267.433 9.092 267.433 7.412C267.433 6.956 267.517 6.542 267.685 6.17C267.865 5.786 268.111 5.462 268.423 5.198C268.747 4.922 269.131 4.712 269.575 4.568C270.031 4.412 270.541 4.334 271.105 4.334C271.597 4.334 272.029 4.37 272.401 4.442C272.785 4.502 273.121 4.598 273.409 4.73C273.709 4.85 273.979 5.006 274.219 5.198C274.471 5.378 274.717 5.582 274.957 5.81L273.427 7.376C273.127 7.076 272.785 6.842 272.401 6.674C272.029 6.494 271.645 6.404 271.249 6.404C270.793 6.404 270.469 6.476 270.277 6.62C270.085 6.764 269.989 6.956 269.989 7.196C269.989 7.448 270.055 7.646 270.187 7.79C270.331 7.922 270.595 8.018 270.979 8.078L272.041 8.222C274.117 8.498 275.155 9.446 275.155 11.066C275.155 11.522 275.059 11.942 274.867 12.326C274.675 12.71 274.399 13.046 274.039 13.334C273.691 13.61 273.265 13.826 272.761 13.982C272.269 14.138 271.717 14.216 271.105 14.216ZM292.562 14.216C290.882 14.216 289.64 13.646 288.836 12.506C288.044 11.366 287.648 9.77 287.648 7.718C287.648 5.666 288.044 4.07 288.836 2.93C289.64 1.79 290.882 1.22 292.562 1.22C294.242 1.22 295.478 1.79 296.27 2.93C297.074 4.07 297.476 5.666 297.476 7.718C297.476 9.77 297.074 11.366 296.27 12.506C295.478 13.646 294.242 14.216 292.562 14.216ZM292.562 12.092C293.366 12.092 293.924 11.81 294.236 11.246C294.56 10.682 294.722 9.896 294.722 8.888V6.548C294.722 5.54 294.56 4.754 294.236 4.19C293.924 3.626 293.366 3.344 292.562 3.344C291.758 3.344 291.194 3.626 290.87 4.19C290.558 4.754 290.402 5.54 290.402 6.548V8.888C290.402 9.896 290.558 10.682 290.87 11.246C291.194 11.81 291.758 12.092 292.562 12.092ZM292.562 8.78C292.142 8.78 291.848 8.696 291.68 8.528C291.524 8.36 291.446 8.156 291.446 7.916V7.52C291.446 7.28 291.524 7.076 291.68 6.908C291.848 6.74 292.142 6.656 292.562 6.656C292.982 6.656 293.27 6.74 293.426 6.908C293.594 7.076 293.678 7.28 293.678 7.52V7.916C293.678 8.156 293.594 8.36 293.426 8.528C293.27 8.696 292.982 8.78 292.562 8.78ZM302.523 12.884V9.572H299.391V7.448H302.523V4.136H304.827V7.448H307.959V9.572H304.827V12.884H302.523ZM314.788 14.216C313.108 14.216 311.866 13.646 311.062 12.506C310.27 11.366 309.874 9.77 309.874 7.718C309.874 5.666 310.27 4.07 311.062 2.93C311.866 1.79 313.108 1.22 314.788 1.22C316.468 1.22 317.704 1.79 318.496 2.93C319.3 4.07 319.702 5.666 319.702 7.718C319.702 9.77 319.3 11.366 318.496 12.506C317.704 13.646 316.468 14.216 314.788 14.216ZM314.788 12.092C315.592 12.092 316.15 11.81 316.462 11.246C316.786 10.682 316.948 9.896 316.948 8.888V6.548C316.948 5.54 316.786 4.754 316.462 4.19C316.15 3.626 315.592 3.344 314.788 3.344C313.984 3.344 313.42 3.626 313.096 4.19C312.784 4.754 312.628 5.54 312.628 6.548V8.888C312.628 9.896 312.784 10.682 313.096 11.246C313.42 11.81 313.984 12.092 314.788 12.092ZM314.788 8.78C314.368 8.78 314.074 8.696 313.906 8.528C313.75 8.36 313.672 8.156 313.672 7.916V7.52C313.672 7.28 313.75 7.076 313.906 6.908C314.074 6.74 314.368 6.656 314.788 6.656C315.208 6.656 315.496 6.74 315.652 6.908C315.82 7.076 315.904 7.28 315.904 7.52V7.916C315.904 8.156 315.82 8.36 315.652 8.528C315.496 8.696 315.208 8.78 314.788 8.78ZM321.617 7.502V5.378H330.185V7.502H321.617ZM321.617 11.642V9.518H330.185V11.642H321.617ZM337.014 14.216C335.334 14.216 334.092 13.646 333.288 12.506C332.496 11.366 332.1 9.77 332.1 7.718C332.1 5.666 332.496 4.07 333.288 2.93C334.092 1.79 335.334 1.22 337.014 1.22C338.694 1.22 339.93 1.79 340.722 2.93C341.526 4.07 341.928 5.666 341.928 7.718C341.928 9.77 341.526 11.366 340.722 12.506C339.93 13.646 338.694 14.216 337.014 14.216ZM337.014 12.092C337.818 12.092 338.376 11.81 338.688 11.246C339.012 10.682 339.174 9.896 339.174 8.888V6.548C339.174 5.54 339.012 4.754 338.688 4.19C338.376 3.626 337.818 3.344 337.014 3.344C336.21 3.344 335.646 3.626 335.322 4.19C335.01 4.754 334.854 5.54 334.854 6.548V8.888C334.854 9.896 335.01 10.682 335.322 11.246C335.646 11.81 336.21 12.092 337.014 12.092ZM337.014 8.78C336.594 8.78 336.3 8.696 336.132 8.528C335.976 8.36 335.898 8.156 335.898 7.916V7.52C335.898 7.28 335.976 7.076 336.132 6.908C336.3 6.74 336.594 6.656 337.014 6.656C337.434 6.656 337.722 6.74 337.878 6.908C338.046 7.076 338.13 7.28 338.13 7.52V7.916C338.13 8.156 338.046 8.36 337.878 8.528C337.722 8.696 337.434 8.78 337.014 8.78ZM350.395 8.402C350.395 9.278 350.293 10.124 350.089 10.94C349.897 11.744 349.627 12.494 349.279 13.19C348.943 13.886 348.547 14.516 348.091 15.08C347.635 15.644 347.155 16.112 346.651 16.484H343.987C344.539 16.1 345.067 15.65 345.571 15.134C346.087 14.63 346.531 14.072 346.903 13.46C347.287 12.848 347.593 12.194 347.821 11.498C348.049 10.802 348.163 10.076 348.163 9.32V7.484C348.163 6.728 348.049 6.002 347.821 5.306C347.593 4.61 347.287 3.956 346.903 3.344C346.531 2.732 346.087 2.174 345.571 1.67C345.067 1.154 344.539 0.703999 343.987 0.319999H346.651C347.155 0.703999 347.635 1.178 348.091 1.742C348.547 2.294 348.943 2.918 349.279 3.614C349.627 4.31 349.897 5.066 350.089 5.882C350.293 6.686 350.395 7.526 350.395 8.402ZM5.4 37.216C3.72 37.216 2.478 36.646 1.674 35.506C0.882 34.366 0.486 32.77 0.486 30.718C0.486 28.666 0.882 27.07 1.674 25.93C2.478 24.79 3.72 24.22 5.4 24.22C7.08 24.22 8.316 24.79 9.108 25.93C9.912 27.07 10.314 28.666 10.314 30.718C10.314 32.77 9.912 34.366 9.108 35.506C8.316 36.646 7.08 37.216 5.4 37.216ZM5.4 35.092C6.204 35.092 6.762 34.81 7.074 34.246C7.398 33.682 7.56 32.896 7.56 31.888V29.548C7.56 28.54 7.398 27.754 7.074 27.19C6.762 26.626 6.204 26.344 5.4 26.344C4.596 26.344 4.032 26.626 3.708 27.19C3.396 27.754 3.24 28.54 3.24 29.548V31.888C3.24 32.896 3.396 33.682 3.708 34.246C4.032 34.81 4.596 35.092 5.4 35.092ZM5.4 31.78C4.98 31.78 4.686 31.696 4.518 31.528C4.362 31.36 4.284 31.156 4.284 30.916V30.52C4.284 30.28 4.362 30.076 4.518 29.908C4.686 29.74 4.98 29.656 5.4 29.656C5.82 29.656 6.108 29.74 6.264 29.908C6.432 30.076 6.516 30.28 6.516 30.52V30.916C6.516 31.156 6.432 31.36 6.264 31.528C6.108 31.696 5.82 31.78 5.4 31.78ZM15.361 35.884V32.572H12.229V30.448H15.361V27.136H17.665V30.448H20.797V32.572H17.665V35.884H15.361ZM23.9179 37V34.822H27.3019V26.398H27.1399L24.5839 29.746L22.8559 28.396L25.8619 24.436H30.0019V34.822H32.6659V37H23.9179ZM45.5679 30.502V28.378H54.1359V30.502H45.5679ZM45.5679 34.642V32.518H54.1359V34.642H45.5679ZM72.0778 37.216C70.3978 37.216 69.1558 36.646 68.3518 35.506C67.5598 34.366 67.1638 32.77 67.1638 30.718C67.1638 28.666 67.5598 27.07 68.3518 25.93C69.1558 24.79 70.3978 24.22 72.0778 24.22C73.7578 24.22 74.9938 24.79 75.7858 25.93C76.5898 27.07 76.9918 28.666 76.9918 30.718C76.9918 32.77 76.5898 34.366 75.7858 35.506C74.9938 36.646 73.7578 37.216 72.0778 37.216ZM72.0778 35.092C72.8818 35.092 73.4398 34.81 73.7518 34.246C74.0758 33.682 74.2378 32.896 74.2378 31.888V29.548C74.2378 28.54 74.0758 27.754 73.7518 27.19C73.4398 26.626 72.8818 26.344 72.0778 26.344C71.2738 26.344 70.7098 26.626 70.3858 27.19C70.0738 27.754 69.9178 28.54 69.9178 29.548V31.888C69.9178 32.896 70.0738 33.682 70.3858 34.246C70.7098 34.81 71.2738 35.092 72.0778 35.092ZM72.0778 31.78C71.6578 31.78 71.3638 31.696 71.1958 31.528C71.0398 31.36 70.9618 31.156 70.9618 30.916V30.52C70.9618 30.28 71.0398 30.076 71.1958 29.908C71.3638 29.74 71.6578 29.656 72.0778 29.656C72.4978 29.656 72.7858 29.74 72.9418 29.908C73.1098 30.076 73.1938 30.28 73.1938 30.52V30.916C73.1938 31.156 73.1098 31.36 72.9418 31.528C72.7858 31.696 72.4978 31.78 72.0778 31.78ZM79.4828 37V34.822H82.8668V26.398H82.7048L80.1488 29.746L78.4208 28.396L81.4268 24.436H85.5668V34.822H88.2308V37H79.4828ZM114.262 31.402C114.262 30.526 114.358 29.686 114.55 28.882C114.754 28.066 115.024 27.31 115.36 26.614C115.708 25.918 116.11 25.294 116.566 24.742C117.022 24.178 117.502 23.704 118.006 23.32H120.67C120.106 23.704 119.572 24.154 119.068 24.67C118.564 25.174 118.12 25.732 117.736 26.344C117.364 26.956 117.064 27.61 116.836 28.306C116.608 29.002 116.494 29.728 116.494 30.484V32.32C116.494 33.076 116.608 33.802 116.836 34.498C117.064 35.194 117.364 35.848 117.736 36.46C118.12 37.072 118.564 37.63 119.068 38.134C119.572 38.65 120.106 39.1 120.67 39.484H118.006C117.502 39.112 117.022 38.644 116.566 38.08C116.11 37.516 115.708 36.886 115.36 36.19C115.024 35.494 114.754 34.744 114.55 33.94C114.358 33.124 114.262 32.278 114.262 31.402ZM124.817 26.542C124.277 26.542 123.881 26.422 123.629 26.182C123.389 25.93 123.269 25.612 123.269 25.228V24.832C123.269 24.448 123.389 24.136 123.629 23.896C123.881 23.644 124.277 23.518 124.817 23.518C125.357 23.518 125.747 23.644 125.987 23.896C126.239 24.136 126.365 24.448 126.365 24.832V25.228C126.365 25.612 126.239 25.93 125.987 26.182C125.747 26.422 125.357 26.542 124.817 26.542ZM123.485 27.55H126.149V37H123.485V27.55ZM128.955 37V27.55H131.619V29.152H131.727C131.895 28.66 132.189 28.234 132.609 27.874C133.029 27.514 133.611 27.334 134.355 27.334C135.327 27.334 136.059 27.658 136.551 28.306C137.055 28.954 137.307 29.878 137.307 31.078V37H134.643V31.294C134.643 30.682 134.547 30.232 134.355 29.944C134.163 29.644 133.821 29.494 133.329 29.494C133.113 29.494 132.903 29.524 132.699 29.584C132.495 29.632 132.309 29.716 132.141 29.836C131.985 29.956 131.859 30.106 131.763 30.286C131.667 30.454 131.619 30.652 131.619 30.88V37H128.955ZM150.368 35.416H150.278C150.206 35.668 150.092 35.908 149.936 36.136C149.78 36.352 149.588 36.544 149.36 36.712C149.144 36.868 148.892 36.988 148.604 37.072C148.328 37.168 148.04 37.216 147.74 37.216C146.54 37.216 145.634 36.796 145.022 35.956C144.41 35.104 144.104 33.874 144.104 32.266C144.104 30.658 144.41 29.434 145.022 28.594C145.634 27.754 146.54 27.334 147.74 27.334C148.352 27.334 148.892 27.502 149.36 27.838C149.84 28.174 150.146 28.606 150.278 29.134H150.368V23.68H153.032V37H150.368V35.416ZM148.622 35.056C149.126 35.056 149.54 34.936 149.864 34.696C150.2 34.444 150.368 34.102 150.368 33.67V30.88C150.368 30.448 150.2 30.112 149.864 29.872C149.54 29.62 149.126 29.494 148.622 29.494C148.118 29.494 147.698 29.674 147.362 30.034C147.038 30.382 146.876 30.856 146.876 31.456V33.094C146.876 33.694 147.038 34.174 147.362 34.534C147.698 34.882 148.118 35.056 148.622 35.056ZM159.785 37.216C159.065 37.216 158.423 37.102 157.859 36.874C157.295 36.634 156.815 36.304 156.419 35.884C156.035 35.452 155.741 34.93 155.537 34.318C155.345 33.706 155.249 33.022 155.249 32.266C155.249 31.522 155.345 30.85 155.537 30.25C155.729 29.638 156.011 29.116 156.383 28.684C156.767 28.252 157.235 27.922 157.787 27.694C158.339 27.454 158.969 27.334 159.677 27.334C160.457 27.334 161.123 27.466 161.675 27.73C162.239 27.994 162.695 28.348 163.043 28.792C163.403 29.236 163.661 29.752 163.817 30.34C163.985 30.916 164.069 31.522 164.069 32.158V32.95H158.003V33.094C158.003 33.718 158.171 34.216 158.507 34.588C158.843 34.948 159.371 35.128 160.091 35.128C160.643 35.128 161.093 35.02 161.441 34.804C161.789 34.576 162.113 34.306 162.413 33.994L163.745 35.65C163.325 36.142 162.773 36.526 162.089 36.802C161.417 37.078 160.649 37.216 159.785 37.216ZM159.731 29.296C159.191 29.296 158.765 29.476 158.453 29.836C158.153 30.184 158.003 30.652 158.003 31.24V31.384H161.315V31.222C161.315 30.646 161.183 30.184 160.919 29.836C160.667 29.476 160.271 29.296 159.731 29.296ZM170.086 37.216C169.378 37.216 168.748 37.102 168.196 36.874C167.644 36.634 167.182 36.304 166.81 35.884C166.438 35.452 166.156 34.93 165.964 34.318C165.772 33.706 165.676 33.022 165.676 32.266C165.676 31.51 165.772 30.832 165.964 30.232C166.156 29.62 166.438 29.098 166.81 28.666C167.182 28.234 167.644 27.904 168.196 27.676C168.748 27.448 169.378 27.334 170.086 27.334C171.046 27.334 171.844 27.55 172.48 27.982C173.128 28.414 173.59 29.02 173.866 29.8L171.706 30.736C171.622 30.376 171.448 30.07 171.184 29.818C170.92 29.566 170.554 29.44 170.086 29.44C169.546 29.44 169.138 29.62 168.862 29.98C168.586 30.328 168.448 30.802 168.448 31.402V33.166C168.448 33.766 168.586 34.24 168.862 34.588C169.138 34.936 169.546 35.11 170.086 35.11C170.566 35.11 170.944 34.984 171.22 34.732C171.508 34.468 171.718 34.126 171.85 33.706L173.92 34.606C173.608 35.506 173.122 36.166 172.462 36.586C171.814 37.006 171.022 37.216 170.086 37.216ZM177.221 26.542C176.681 26.542 176.285 26.422 176.033 26.182C175.793 25.93 175.673 25.612 175.673 25.228V24.832C175.673 24.448 175.793 24.136 176.033 23.896C176.285 23.644 176.681 23.518 177.221 23.518C177.761 23.518 178.151 23.644 178.391 23.896C178.643 24.136 178.769 24.448 178.769 24.832V25.228C178.769 25.612 178.643 25.93 178.391 26.182C178.151 26.422 177.761 26.542 177.221 26.542ZM175.889 27.55H178.553V37H175.889V27.55ZM181.359 37V27.55H184.023V29.152H184.131C184.299 28.648 184.587 28.222 184.995 27.874C185.403 27.514 185.961 27.334 186.669 27.334C187.317 27.334 187.869 27.496 188.325 27.82C188.781 28.144 189.111 28.618 189.315 29.242H189.369C189.453 28.978 189.579 28.732 189.747 28.504C189.927 28.264 190.143 28.06 190.395 27.892C190.647 27.724 190.929 27.592 191.241 27.496C191.553 27.388 191.889 27.334 192.249 27.334C193.161 27.334 193.857 27.658 194.337 28.306C194.829 28.954 195.075 29.878 195.075 31.078V37H192.411V31.294C192.411 30.094 191.979 29.494 191.115 29.494C190.719 29.494 190.359 29.608 190.035 29.836C189.711 30.064 189.549 30.412 189.549 30.88V37H186.885V31.294C186.885 30.094 186.453 29.494 185.589 29.494C185.397 29.494 185.205 29.524 185.013 29.584C184.833 29.632 184.665 29.716 184.509 29.836C184.365 29.956 184.245 30.106 184.149 30.286C184.065 30.454 184.023 30.652 184.023 30.88V37H181.359ZM204.747 37C204.267 37 203.865 36.85 203.541 36.55C203.229 36.25 203.031 35.848 202.947 35.344H202.839C202.695 35.956 202.377 36.424 201.885 36.748C201.393 37.06 200.787 37.216 200.067 37.216C199.119 37.216 198.393 36.964 197.889 36.46C197.385 35.956 197.133 35.29 197.133 34.462C197.133 33.466 197.493 32.728 198.213 32.248C198.945 31.756 199.935 31.51 201.183 31.51H202.677V30.916C202.677 30.46 202.557 30.1 202.317 29.836C202.077 29.56 201.675 29.422 201.111 29.422C200.583 29.422 200.163 29.536 199.851 29.764C199.539 29.992 199.281 30.25 199.077 30.538L197.493 29.134C197.877 28.57 198.357 28.132 198.933 27.82C199.521 27.496 200.313 27.334 201.309 27.334C202.653 27.334 203.661 27.628 204.333 28.216C205.005 28.804 205.341 29.662 205.341 30.79V34.93H206.223V37H204.747ZM201.057 35.362C201.501 35.362 201.879 35.266 202.191 35.074C202.515 34.882 202.677 34.57 202.677 34.138V33.022H201.381C200.337 33.022 199.815 33.376 199.815 34.084V34.354C199.815 34.702 199.923 34.96 200.139 35.128C200.355 35.284 200.661 35.362 201.057 35.362ZM210.977 37C210.065 37 209.393 36.778 208.961 36.334C208.541 35.89 208.331 35.248 208.331 34.408V23.68H210.995V34.93H212.183V37H210.977ZM215.86 33.958C216.4 33.958 216.796 34.096 217.048 34.372C217.312 34.636 217.444 34.978 217.444 35.398V35.758C217.444 36.49 217.264 37.21 216.904 37.918C216.556 38.626 216.094 39.202 215.518 39.646H213.718C214.138 39.25 214.498 38.854 214.798 38.458C215.098 38.074 215.326 37.642 215.482 37.162C215.062 37.09 214.756 36.928 214.564 36.676C214.372 36.412 214.276 36.106 214.276 35.758V35.398C214.276 34.978 214.402 34.636 214.654 34.372C214.918 34.096 215.32 33.958 215.86 33.958ZM228.055 37C227.131 37 226.429 36.766 225.949 36.298C225.481 35.83 225.247 35.146 225.247 34.246V29.62H223.915V27.55H224.581C224.941 27.55 225.187 27.466 225.319 27.298C225.451 27.118 225.517 26.866 225.517 26.542V24.994H227.911V27.55H229.783V29.62H227.911V34.93H229.639V37H228.055ZM231.953 23.68H234.617V29.152H234.725C234.893 28.66 235.187 28.234 235.607 27.874C236.027 27.514 236.609 27.334 237.353 27.334C238.325 27.334 239.057 27.658 239.549 28.306C240.053 28.954 240.305 29.878 240.305 31.078V37H237.641V31.294C237.641 30.682 237.545 30.232 237.353 29.944C237.161 29.644 236.819 29.494 236.327 29.494C236.111 29.494 235.901 29.524 235.697 29.584C235.493 29.632 235.307 29.716 235.139 29.836C234.983 29.956 234.857 30.106 234.761 30.286C234.665 30.454 234.617 30.652 234.617 30.88V37H231.953V23.68ZM244.328 26.542C243.788 26.542 243.392 26.422 243.14 26.182C242.9 25.93 242.78 25.612 242.78 25.228V24.832C242.78 24.448 242.9 24.136 243.14 23.896C243.392 23.644 243.788 23.518 244.328 23.518C244.868 23.518 245.258 23.644 245.498 23.896C245.75 24.136 245.876 24.448 245.876 24.832V25.228C245.876 25.612 245.75 25.93 245.498 26.182C245.258 26.422 244.868 26.542 244.328 26.542ZM242.996 27.55H245.66V37H242.996V27.55ZM251.67 37.216C250.758 37.216 249.99 37.072 249.366 36.784C248.742 36.484 248.184 36.064 247.692 35.524L249.258 33.94C249.594 34.312 249.966 34.606 250.374 34.822C250.782 35.038 251.244 35.146 251.76 35.146C252.288 35.146 252.654 35.068 252.858 34.912C253.062 34.744 253.164 34.522 253.164 34.246C253.164 33.802 252.846 33.538 252.21 33.454L251.184 33.328C249.06 33.064 247.998 32.092 247.998 30.412C247.998 29.956 248.082 29.542 248.25 29.17C248.43 28.786 248.676 28.462 248.988 28.198C249.312 27.922 249.696 27.712 250.14 27.568C250.596 27.412 251.106 27.334 251.67 27.334C252.162 27.334 252.594 27.37 252.966 27.442C253.35 27.502 253.686 27.598 253.974 27.73C254.274 27.85 254.544 28.006 254.784 28.198C255.036 28.378 255.282 28.582 255.522 28.81L253.992 30.376C253.692 30.076 253.35 29.842 252.966 29.674C252.594 29.494 252.21 29.404 251.814 29.404C251.358 29.404 251.034 29.476 250.842 29.62C250.65 29.764 250.554 29.956 250.554 30.196C250.554 30.448 250.62 30.646 250.752 30.79C250.896 30.922 251.16 31.018 251.544 31.078L252.606 31.222C254.682 31.498 255.72 32.446 255.72 34.066C255.72 34.522 255.624 34.942 255.432 35.326C255.24 35.71 254.964 36.046 254.604 36.334C254.256 36.61 253.83 36.826 253.326 36.982C252.834 37.138 252.282 37.216 251.67 37.216ZM263.763 26.542C263.223 26.542 262.827 26.422 262.575 26.182C262.335 25.93 262.215 25.612 262.215 25.228V24.832C262.215 24.448 262.335 24.136 262.575 23.896C262.827 23.644 263.223 23.518 263.763 23.518C264.303 23.518 264.693 23.644 264.933 23.896C265.185 24.136 265.311 24.448 265.311 24.832V25.228C265.311 25.612 265.185 25.93 264.933 26.182C264.693 26.422 264.303 26.542 263.763 26.542ZM262.431 27.55H265.095V37H262.431V27.55ZM271.105 37.216C270.193 37.216 269.425 37.072 268.801 36.784C268.177 36.484 267.619 36.064 267.127 35.524L268.693 33.94C269.029 34.312 269.401 34.606 269.809 34.822C270.217 35.038 270.679 35.146 271.195 35.146C271.723 35.146 272.089 35.068 272.293 34.912C272.497 34.744 272.599 34.522 272.599 34.246C272.599 33.802 272.281 33.538 271.645 33.454L270.619 33.328C268.495 33.064 267.433 32.092 267.433 30.412C267.433 29.956 267.517 29.542 267.685 29.17C267.865 28.786 268.111 28.462 268.423 28.198C268.747 27.922 269.131 27.712 269.575 27.568C270.031 27.412 270.541 27.334 271.105 27.334C271.597 27.334 272.029 27.37 272.401 27.442C272.785 27.502 273.121 27.598 273.409 27.73C273.709 27.85 273.979 28.006 274.219 28.198C274.471 28.378 274.717 28.582 274.957 28.81L273.427 30.376C273.127 30.076 272.785 29.842 272.401 29.674C272.029 29.494 271.645 29.404 271.249 29.404C270.793 29.404 270.469 29.476 270.277 29.62C270.085 29.764 269.989 29.956 269.989 30.196C269.989 30.448 270.055 30.646 270.187 30.79C270.331 30.922 270.595 31.018 270.979 31.078L272.041 31.222C274.117 31.498 275.155 32.446 275.155 34.066C275.155 34.522 275.059 34.942 274.867 35.326C274.675 35.71 274.399 36.046 274.039 36.334C273.691 36.61 273.265 36.826 272.761 36.982C272.269 37.138 271.717 37.216 271.105 37.216ZM292.562 37.216C290.882 37.216 289.64 36.646 288.836 35.506C288.044 34.366 287.648 32.77 287.648 30.718C287.648 28.666 288.044 27.07 288.836 25.93C289.64 24.79 290.882 24.22 292.562 24.22C294.242 24.22 295.478 24.79 296.27 25.93C297.074 27.07 297.476 28.666 297.476 30.718C297.476 32.77 297.074 34.366 296.27 35.506C295.478 36.646 294.242 37.216 292.562 37.216ZM292.562 35.092C293.366 35.092 293.924 34.81 294.236 34.246C294.56 33.682 294.722 32.896 294.722 31.888V29.548C294.722 28.54 294.56 27.754 294.236 27.19C293.924 26.626 293.366 26.344 292.562 26.344C291.758 26.344 291.194 26.626 290.87 27.19C290.558 27.754 290.402 28.54 290.402 29.548V31.888C290.402 32.896 290.558 33.682 290.87 34.246C291.194 34.81 291.758 35.092 292.562 35.092ZM292.562 31.78C292.142 31.78 291.848 31.696 291.68 31.528C291.524 31.36 291.446 31.156 291.446 30.916V30.52C291.446 30.28 291.524 30.076 291.68 29.908C291.848 29.74 292.142 29.656 292.562 29.656C292.982 29.656 293.27 29.74 293.426 29.908C293.594 30.076 293.678 30.28 293.678 30.52V30.916C293.678 31.156 293.594 31.36 293.426 31.528C293.27 31.696 292.982 31.78 292.562 31.78ZM302.523 35.884V32.572H299.391V30.448H302.523V27.136H304.827V30.448H307.959V32.572H304.827V35.884H302.523ZM311.08 37V34.822H314.464V26.398H314.302L311.746 29.746L310.018 28.396L313.024 24.436H317.164V34.822H319.828V37H311.08ZM321.617 30.502V28.378H330.185V30.502H321.617ZM321.617 34.642V32.518H330.185V34.642H321.617ZM333.306 37V34.822H336.69V26.398H336.528L333.972 29.746L332.244 28.396L335.25 24.436H339.39V34.822H342.054V37H333.306ZM350.395 31.402C350.395 32.278 350.293 33.124 350.089 33.94C349.897 34.744 349.627 35.494 349.279 36.19C348.943 36.886 348.547 37.516 348.091 38.08C347.635 38.644 347.155 39.112 346.651 39.484H343.987C344.539 39.1 345.067 38.65 345.571 38.134C346.087 37.63 346.531 37.072 346.903 36.46C347.287 35.848 347.593 35.194 347.821 34.498C348.049 33.802 348.163 33.076 348.163 32.32V30.484C348.163 29.728 348.049 29.002 347.821 28.306C347.593 27.61 347.287 26.956 346.903 26.344C346.531 25.732 346.087 25.174 345.571 24.67C345.067 24.154 344.539 23.704 343.987 23.32H346.651C347.155 23.704 347.635 24.178 348.091 24.742C348.547 25.294 348.943 25.918 349.279 26.614C349.627 27.31 349.897 28.066 350.089 28.882C350.293 29.686 350.395 30.526 350.395 31.402ZM1.692 60V57.822H5.076V49.398H4.914L2.358 52.746L0.63 51.396L3.636 47.436H7.776V57.822H10.44V60H1.692ZM15.361 58.884V55.572H12.229V53.448H15.361V50.136H17.665V53.448H20.797V55.572H17.665V58.884H15.361ZM27.6259 60.216C25.9459 60.216 24.7039 59.646 23.8999 58.506C23.1079 57.366 22.7119 55.77 22.7119 53.718C22.7119 51.666 23.1079 50.07 23.8999 48.93C24.7039 47.79 25.9459 47.22 27.6259 47.22C29.3059 47.22 30.5419 47.79 31.3339 48.93C32.1379 50.07 32.5399 51.666 32.5399 53.718C32.5399 55.77 32.1379 57.366 31.3339 58.506C30.5419 59.646 29.3059 60.216 27.6259 60.216ZM27.6259 58.092C28.4299 58.092 28.9879 57.81 29.2999 57.246C29.6239 56.682 29.7859 55.896 29.7859 54.888V52.548C29.7859 51.54 29.6239 50.754 29.2999 50.19C28.9879 49.626 28.4299 49.344 27.6259 49.344C26.8219 49.344 26.2579 49.626 25.9339 50.19C25.6219 50.754 25.4659 51.54 25.4659 52.548V54.888C25.4659 55.896 25.6219 56.682 25.9339 57.246C26.2579 57.81 26.8219 58.092 27.6259 58.092ZM27.6259 54.78C27.2059 54.78 26.9119 54.696 26.7439 54.528C26.5879 54.36 26.5099 54.156 26.5099 53.916V53.52C26.5099 53.28 26.5879 53.076 26.7439 52.908C26.9119 52.74 27.2059 52.656 27.6259 52.656C28.0459 52.656 28.3339 52.74 28.4899 52.908C28.6579 53.076 28.7419 53.28 28.7419 53.52V53.916C28.7419 54.156 28.6579 54.36 28.4899 54.528C28.3339 54.696 28.0459 54.78 27.6259 54.78ZM45.5679 53.502V51.378H54.1359V53.502H45.5679ZM45.5679 57.642V55.518H54.1359V57.642H45.5679ZM72.0778 60.216C70.3978 60.216 69.1558 59.646 68.3518 58.506C67.5598 57.366 67.1638 55.77 67.1638 53.718C67.1638 51.666 67.5598 50.07 68.3518 48.93C69.1558 47.79 70.3978 47.22 72.0778 47.22C73.7578 47.22 74.9938 47.79 75.7858 48.93C76.5898 50.07 76.9918 51.666 76.9918 53.718C76.9918 55.77 76.5898 57.366 75.7858 58.506C74.9938 59.646 73.7578 60.216 72.0778 60.216ZM72.0778 58.092C72.8818 58.092 73.4398 57.81 73.7518 57.246C74.0758 56.682 74.2378 55.896 74.2378 54.888V52.548C74.2378 51.54 74.0758 50.754 73.7518 50.19C73.4398 49.626 72.8818 49.344 72.0778 49.344C71.2738 49.344 70.7098 49.626 70.3858 50.19C70.0738 50.754 69.9178 51.54 69.9178 52.548V54.888C69.9178 55.896 70.0738 56.682 70.3858 57.246C70.7098 57.81 71.2738 58.092 72.0778 58.092ZM72.0778 54.78C71.6578 54.78 71.3638 54.696 71.1958 54.528C71.0398 54.36 70.9618 54.156 70.9618 53.916V53.52C70.9618 53.28 71.0398 53.076 71.1958 52.908C71.3638 52.74 71.6578 52.656 72.0778 52.656C72.4978 52.656 72.7858 52.74 72.9418 52.908C73.1098 53.076 73.1938 53.28 73.1938 53.52V53.916C73.1938 54.156 73.1098 54.36 72.9418 54.528C72.7858 54.696 72.4978 54.78 72.0778 54.78ZM79.4828 60V57.822H82.8668V49.398H82.7048L80.1488 52.746L78.4208 51.396L81.4268 47.436H85.5668V57.822H88.2308V60H79.4828ZM114.262 54.402C114.262 53.526 114.358 52.686 114.55 51.882C114.754 51.066 115.024 50.31 115.36 49.614C115.708 48.918 116.11 48.294 116.566 47.742C117.022 47.178 117.502 46.704 118.006 46.32H120.67C120.106 46.704 119.572 47.154 119.068 47.67C118.564 48.174 118.12 48.732 117.736 49.344C117.364 49.956 117.064 50.61 116.836 51.306C116.608 52.002 116.494 52.728 116.494 53.484V55.32C116.494 56.076 116.608 56.802 116.836 57.498C117.064 58.194 117.364 58.848 117.736 59.46C118.12 60.072 118.564 60.63 119.068 61.134C119.572 61.65 120.106 62.1 120.67 62.484H118.006C117.502 62.112 117.022 61.644 116.566 61.08C116.11 60.516 115.708 59.886 115.36 59.19C115.024 58.494 114.754 57.744 114.55 56.94C114.358 56.124 114.262 55.278 114.262 54.402ZM124.817 49.542C124.277 49.542 123.881 49.422 123.629 49.182C123.389 48.93 123.269 48.612 123.269 48.228V47.832C123.269 47.448 123.389 47.136 123.629 46.896C123.881 46.644 124.277 46.518 124.817 46.518C125.357 46.518 125.747 46.644 125.987 46.896C126.239 47.136 126.365 47.448 126.365 47.832V48.228C126.365 48.612 126.239 48.93 125.987 49.182C125.747 49.422 125.357 49.542 124.817 49.542ZM123.485 50.55H126.149V60H123.485V50.55ZM128.955 60V50.55H131.619V52.152H131.727C131.895 51.66 132.189 51.234 132.609 50.874C133.029 50.514 133.611 50.334 134.355 50.334C135.327 50.334 136.059 50.658 136.551 51.306C137.055 51.954 137.307 52.878 137.307 54.078V60H134.643V54.294C134.643 53.682 134.547 53.232 134.355 52.944C134.163 52.644 133.821 52.494 133.329 52.494C133.113 52.494 132.903 52.524 132.699 52.584C132.495 52.632 132.309 52.716 132.141 52.836C131.985 52.956 131.859 53.106 131.763 53.286C131.667 53.454 131.619 53.652 131.619 53.88V60H128.955ZM150.368 58.416H150.278C150.206 58.668 150.092 58.908 149.936 59.136C149.78 59.352 149.588 59.544 149.36 59.712C149.144 59.868 148.892 59.988 148.604 60.072C148.328 60.168 148.04 60.216 147.74 60.216C146.54 60.216 145.634 59.796 145.022 58.956C144.41 58.104 144.104 56.874 144.104 55.266C144.104 53.658 144.41 52.434 145.022 51.594C145.634 50.754 146.54 50.334 147.74 50.334C148.352 50.334 148.892 50.502 149.36 50.838C149.84 51.174 150.146 51.606 150.278 52.134H150.368V46.68H153.032V60H150.368V58.416ZM148.622 58.056C149.126 58.056 149.54 57.936 149.864 57.696C150.2 57.444 150.368 57.102 150.368 56.67V53.88C150.368 53.448 150.2 53.112 149.864 52.872C149.54 52.62 149.126 52.494 148.622 52.494C148.118 52.494 147.698 52.674 147.362 53.034C147.038 53.382 146.876 53.856 146.876 54.456V56.094C146.876 56.694 147.038 57.174 147.362 57.534C147.698 57.882 148.118 58.056 148.622 58.056ZM159.785 60.216C159.065 60.216 158.423 60.102 157.859 59.874C157.295 59.634 156.815 59.304 156.419 58.884C156.035 58.452 155.741 57.93 155.537 57.318C155.345 56.706 155.249 56.022 155.249 55.266C155.249 54.522 155.345 53.85 155.537 53.25C155.729 52.638 156.011 52.116 156.383 51.684C156.767 51.252 157.235 50.922 157.787 50.694C158.339 50.454 158.969 50.334 159.677 50.334C160.457 50.334 161.123 50.466 161.675 50.73C162.239 50.994 162.695 51.348 163.043 51.792C163.403 52.236 163.661 52.752 163.817 53.34C163.985 53.916 164.069 54.522 164.069 55.158V55.95H158.003V56.094C158.003 56.718 158.171 57.216 158.507 57.588C158.843 57.948 159.371 58.128 160.091 58.128C160.643 58.128 161.093 58.02 161.441 57.804C161.789 57.576 162.113 57.306 162.413 56.994L163.745 58.65C163.325 59.142 162.773 59.526 162.089 59.802C161.417 60.078 160.649 60.216 159.785 60.216ZM159.731 52.296C159.191 52.296 158.765 52.476 158.453 52.836C158.153 53.184 158.003 53.652 158.003 54.24V54.384H161.315V54.222C161.315 53.646 161.183 53.184 160.919 52.836C160.667 52.476 160.271 52.296 159.731 52.296ZM170.086 60.216C169.378 60.216 168.748 60.102 168.196 59.874C167.644 59.634 167.182 59.304 166.81 58.884C166.438 58.452 166.156 57.93 165.964 57.318C165.772 56.706 165.676 56.022 165.676 55.266C165.676 54.51 165.772 53.832 165.964 53.232C166.156 52.62 166.438 52.098 166.81 51.666C167.182 51.234 167.644 50.904 168.196 50.676C168.748 50.448 169.378 50.334 170.086 50.334C171.046 50.334 171.844 50.55 172.48 50.982C173.128 51.414 173.59 52.02 173.866 52.8L171.706 53.736C171.622 53.376 171.448 53.07 171.184 52.818C170.92 52.566 170.554 52.44 170.086 52.44C169.546 52.44 169.138 52.62 168.862 52.98C168.586 53.328 168.448 53.802 168.448 54.402V56.166C168.448 56.766 168.586 57.24 168.862 57.588C169.138 57.936 169.546 58.11 170.086 58.11C170.566 58.11 170.944 57.984 171.22 57.732C171.508 57.468 171.718 57.126 171.85 56.706L173.92 57.606C173.608 58.506 173.122 59.166 172.462 59.586C171.814 60.006 171.022 60.216 170.086 60.216ZM177.221 49.542C176.681 49.542 176.285 49.422 176.033 49.182C175.793 48.93 175.673 48.612 175.673 48.228V47.832C175.673 47.448 175.793 47.136 176.033 46.896C176.285 46.644 176.681 46.518 177.221 46.518C177.761 46.518 178.151 46.644 178.391 46.896C178.643 47.136 178.769 47.448 178.769 47.832V48.228C178.769 48.612 178.643 48.93 178.391 49.182C178.151 49.422 177.761 49.542 177.221 49.542ZM175.889 50.55H178.553V60H175.889V50.55ZM181.359 60V50.55H184.023V52.152H184.131C184.299 51.648 184.587 51.222 184.995 50.874C185.403 50.514 185.961 50.334 186.669 50.334C187.317 50.334 187.869 50.496 188.325 50.82C188.781 51.144 189.111 51.618 189.315 52.242H189.369C189.453 51.978 189.579 51.732 189.747 51.504C189.927 51.264 190.143 51.06 190.395 50.892C190.647 50.724 190.929 50.592 191.241 50.496C191.553 50.388 191.889 50.334 192.249 50.334C193.161 50.334 193.857 50.658 194.337 51.306C194.829 51.954 195.075 52.878 195.075 54.078V60H192.411V54.294C192.411 53.094 191.979 52.494 191.115 52.494C190.719 52.494 190.359 52.608 190.035 52.836C189.711 53.064 189.549 53.412 189.549 53.88V60H186.885V54.294C186.885 53.094 186.453 52.494 185.589 52.494C185.397 52.494 185.205 52.524 185.013 52.584C184.833 52.632 184.665 52.716 184.509 52.836C184.365 52.956 184.245 53.106 184.149 53.286C184.065 53.454 184.023 53.652 184.023 53.88V60H181.359ZM204.747 60C204.267 60 203.865 59.85 203.541 59.55C203.229 59.25 203.031 58.848 202.947 58.344H202.839C202.695 58.956 202.377 59.424 201.885 59.748C201.393 60.06 200.787 60.216 200.067 60.216C199.119 60.216 198.393 59.964 197.889 59.46C197.385 58.956 197.133 58.29 197.133 57.462C197.133 56.466 197.493 55.728 198.213 55.248C198.945 54.756 199.935 54.51 201.183 54.51H202.677V53.916C202.677 53.46 202.557 53.1 202.317 52.836C202.077 52.56 201.675 52.422 201.111 52.422C200.583 52.422 200.163 52.536 199.851 52.764C199.539 52.992 199.281 53.25 199.077 53.538L197.493 52.134C197.877 51.57 198.357 51.132 198.933 50.82C199.521 50.496 200.313 50.334 201.309 50.334C202.653 50.334 203.661 50.628 204.333 51.216C205.005 51.804 205.341 52.662 205.341 53.79V57.93H206.223V60H204.747ZM201.057 58.362C201.501 58.362 201.879 58.266 202.191 58.074C202.515 57.882 202.677 57.57 202.677 57.138V56.022H201.381C200.337 56.022 199.815 56.376 199.815 57.084V57.354C199.815 57.702 199.923 57.96 200.139 58.128C200.355 58.284 200.661 58.362 201.057 58.362ZM210.977 60C210.065 60 209.393 59.778 208.961 59.334C208.541 58.89 208.331 58.248 208.331 57.408V46.68H210.995V57.93H212.183V60H210.977ZM215.86 56.958C216.4 56.958 216.796 57.096 217.048 57.372C217.312 57.636 217.444 57.978 217.444 58.398V58.758C217.444 59.49 217.264 60.21 216.904 60.918C216.556 61.626 216.094 62.202 215.518 62.646H213.718C214.138 62.25 214.498 61.854 214.798 61.458C215.098 61.074 215.326 60.642 215.482 60.162C215.062 60.09 214.756 59.928 214.564 59.676C214.372 59.412 214.276 59.106 214.276 58.758V58.398C214.276 57.978 214.402 57.636 214.654 57.372C214.918 57.096 215.32 56.958 215.86 56.958ZM228.055 60C227.131 60 226.429 59.766 225.949 59.298C225.481 58.83 225.247 58.146 225.247 57.246V52.62H223.915V50.55H224.581C224.941 50.55 225.187 50.466 225.319 50.298C225.451 50.118 225.517 49.866 225.517 49.542V47.994H227.911V50.55H229.783V52.62H227.911V57.93H229.639V60H228.055ZM231.953 46.68H234.617V52.152H234.725C234.893 51.66 235.187 51.234 235.607 50.874C236.027 50.514 236.609 50.334 237.353 50.334C238.325 50.334 239.057 50.658 239.549 51.306C240.053 51.954 240.305 52.878 240.305 54.078V60H237.641V54.294C237.641 53.682 237.545 53.232 237.353 52.944C237.161 52.644 236.819 52.494 236.327 52.494C236.111 52.494 235.901 52.524 235.697 52.584C235.493 52.632 235.307 52.716 235.139 52.836C234.983 52.956 234.857 53.106 234.761 53.286C234.665 53.454 234.617 53.652 234.617 53.88V60H231.953V46.68ZM244.328 49.542C243.788 49.542 243.392 49.422 243.14 49.182C242.9 48.93 242.78 48.612 242.78 48.228V47.832C242.78 47.448 242.9 47.136 243.14 46.896C243.392 46.644 243.788 46.518 244.328 46.518C244.868 46.518 245.258 46.644 245.498 46.896C245.75 47.136 245.876 47.448 245.876 47.832V48.228C245.876 48.612 245.75 48.93 245.498 49.182C245.258 49.422 244.868 49.542 244.328 49.542ZM242.996 50.55H245.66V60H242.996V50.55ZM251.67 60.216C250.758 60.216 249.99 60.072 249.366 59.784C248.742 59.484 248.184 59.064 247.692 58.524L249.258 56.94C249.594 57.312 249.966 57.606 250.374 57.822C250.782 58.038 251.244 58.146 251.76 58.146C252.288 58.146 252.654 58.068 252.858 57.912C253.062 57.744 253.164 57.522 253.164 57.246C253.164 56.802 252.846 56.538 252.21 56.454L251.184 56.328C249.06 56.064 247.998 55.092 247.998 53.412C247.998 52.956 248.082 52.542 248.25 52.17C248.43 51.786 248.676 51.462 248.988 51.198C249.312 50.922 249.696 50.712 250.14 50.568C250.596 50.412 251.106 50.334 251.67 50.334C252.162 50.334 252.594 50.37 252.966 50.442C253.35 50.502 253.686 50.598 253.974 50.73C254.274 50.85 254.544 51.006 254.784 51.198C255.036 51.378 255.282 51.582 255.522 51.81L253.992 53.376C253.692 53.076 253.35 52.842 252.966 52.674C252.594 52.494 252.21 52.404 251.814 52.404C251.358 52.404 251.034 52.476 250.842 52.62C250.65 52.764 250.554 52.956 250.554 53.196C250.554 53.448 250.62 53.646 250.752 53.79C250.896 53.922 251.16 54.018 251.544 54.078L252.606 54.222C254.682 54.498 255.72 55.446 255.72 57.066C255.72 57.522 255.624 57.942 255.432 58.326C255.24 58.71 254.964 59.046 254.604 59.334C254.256 59.61 253.83 59.826 253.326 59.982C252.834 60.138 252.282 60.216 251.67 60.216ZM263.763 49.542C263.223 49.542 262.827 49.422 262.575 49.182C262.335 48.93 262.215 48.612 262.215 48.228V47.832C262.215 47.448 262.335 47.136 262.575 46.896C262.827 46.644 263.223 46.518 263.763 46.518C264.303 46.518 264.693 46.644 264.933 46.896C265.185 47.136 265.311 47.448 265.311 47.832V48.228C265.311 48.612 265.185 48.93 264.933 49.182C264.693 49.422 264.303 49.542 263.763 49.542ZM262.431 50.55H265.095V60H262.431V50.55ZM271.105 60.216C270.193 60.216 269.425 60.072 268.801 59.784C268.177 59.484 267.619 59.064 267.127 58.524L268.693 56.94C269.029 57.312 269.401 57.606 269.809 57.822C270.217 58.038 270.679 58.146 271.195 58.146C271.723 58.146 272.089 58.068 272.293 57.912C272.497 57.744 272.599 57.522 272.599 57.246C272.599 56.802 272.281 56.538 271.645 56.454L270.619 56.328C268.495 56.064 267.433 55.092 267.433 53.412C267.433 52.956 267.517 52.542 267.685 52.17C267.865 51.786 268.111 51.462 268.423 51.198C268.747 50.922 269.131 50.712 269.575 50.568C270.031 50.412 270.541 50.334 271.105 50.334C271.597 50.334 272.029 50.37 272.401 50.442C272.785 50.502 273.121 50.598 273.409 50.73C273.709 50.85 273.979 51.006 274.219 51.198C274.471 51.378 274.717 51.582 274.957 51.81L273.427 53.376C273.127 53.076 272.785 52.842 272.401 52.674C272.029 52.494 271.645 52.404 271.249 52.404C270.793 52.404 270.469 52.476 270.277 52.62C270.085 52.764 269.989 52.956 269.989 53.196C269.989 53.448 270.055 53.646 270.187 53.79C270.331 53.922 270.595 54.018 270.979 54.078L272.041 54.222C274.117 54.498 275.155 55.446 275.155 57.066C275.155 57.522 275.059 57.942 274.867 58.326C274.675 58.71 274.399 59.046 274.039 59.334C273.691 59.61 273.265 59.826 272.761 59.982C272.269 60.138 271.717 60.216 271.105 60.216ZM288.854 60V57.822H292.238V49.398H292.076L289.52 52.746L287.792 51.396L290.798 47.436H294.938V57.822H297.602V60H288.854ZM302.523 58.884V55.572H299.391V53.448H302.523V50.136H304.827V53.448H307.959V55.572H304.827V58.884H302.523ZM314.788 60.216C313.108 60.216 311.866 59.646 311.062 58.506C310.27 57.366 309.874 55.77 309.874 53.718C309.874 51.666 310.27 50.07 311.062 48.93C311.866 47.79 313.108 47.22 314.788 47.22C316.468 47.22 317.704 47.79 318.496 48.93C319.3 50.07 319.702 51.666 319.702 53.718C319.702 55.77 319.3 57.366 318.496 58.506C317.704 59.646 316.468 60.216 314.788 60.216ZM314.788 58.092C315.592 58.092 316.15 57.81 316.462 57.246C316.786 56.682 316.948 55.896 316.948 54.888V52.548C316.948 51.54 316.786 50.754 316.462 50.19C316.15 49.626 315.592 49.344 314.788 49.344C313.984 49.344 313.42 49.626 313.096 50.19C312.784 50.754 312.628 51.54 312.628 52.548V54.888C312.628 55.896 312.784 56.682 313.096 57.246C313.42 57.81 313.984 58.092 314.788 58.092ZM314.788 54.78C314.368 54.78 314.074 54.696 313.906 54.528C313.75 54.36 313.672 54.156 313.672 53.916V53.52C313.672 53.28 313.75 53.076 313.906 52.908C314.074 52.74 314.368 52.656 314.788 52.656C315.208 52.656 315.496 52.74 315.652 52.908C315.82 53.076 315.904 53.28 315.904 53.52V53.916C315.904 54.156 315.82 54.36 315.652 54.528C315.496 54.696 315.208 54.78 314.788 54.78ZM321.617 53.502V51.378H330.185V53.502H321.617ZM321.617 57.642V55.518H330.185V57.642H321.617ZM333.306 60V57.822H336.69V49.398H336.528L333.972 52.746L332.244 51.396L335.25 47.436H339.39V57.822H342.054V60H333.306ZM350.395 54.402C350.395 55.278 350.293 56.124 350.089 56.94C349.897 57.744 349.627 58.494 349.279 59.19C348.943 59.886 348.547 60.516 348.091 61.08C347.635 61.644 347.155 62.112 346.651 62.484H343.987C344.539 62.1 345.067 61.65 345.571 61.134C346.087 60.63 346.531 60.072 346.903 59.46C347.287 58.848 347.593 58.194 347.821 57.498C348.049 56.802 348.163 56.076 348.163 55.32V53.484C348.163 52.728 348.049 52.002 347.821 51.306C347.593 50.61 347.287 49.956 346.903 49.344C346.531 48.732 346.087 48.174 345.571 47.67C345.067 47.154 344.539 46.704 343.987 46.32H346.651C347.155 46.704 347.635 47.178 348.091 47.742C348.547 48.294 348.943 48.918 349.279 49.614C349.627 50.31 349.897 51.066 350.089 51.882C350.293 52.686 350.395 53.526 350.395 54.402ZM1.692 83V80.822H5.076V72.398H4.914L2.358 75.746L0.63 74.396L3.636 70.436H7.776V80.822H10.44V83H1.692ZM15.361 81.884V78.572H12.229V76.448H15.361V73.136H17.665V76.448H20.797V78.572H17.665V81.884H15.361ZM23.9179 83V80.822H27.3019V72.398H27.1399L24.5839 75.746L22.8559 74.396L25.8619 70.436H30.0019V80.822H32.6659V83H23.9179ZM45.5679 76.502V74.378H54.1359V76.502H45.5679ZM45.5679 80.642V78.518H54.1359V80.642H45.5679ZM68.3698 83V80.822H71.7538V72.398H71.5918L69.0358 75.746L67.3078 74.396L70.3138 70.436H74.4538V80.822H77.1178V83H68.3698ZM83.1908 83.216C81.5108 83.216 80.2688 82.646 79.4648 81.506C78.6728 80.366 78.2768 78.77 78.2768 76.718C78.2768 74.666 78.6728 73.07 79.4648 71.93C80.2688 70.79 81.5108 70.22 83.1908 70.22C84.8708 70.22 86.1068 70.79 86.8988 71.93C87.7028 73.07 88.1048 74.666 88.1048 76.718C88.1048 78.77 87.7028 80.366 86.8988 81.506C86.1068 82.646 84.8708 83.216 83.1908 83.216ZM83.1908 81.092C83.9948 81.092 84.5528 80.81 84.8648 80.246C85.1888 79.682 85.3508 78.896 85.3508 77.888V75.548C85.3508 74.54 85.1888 73.754 84.8648 73.19C84.5528 72.626 83.9948 72.344 83.1908 72.344C82.3868 72.344 81.8228 72.626 81.4988 73.19C81.1868 73.754 81.0308 74.54 81.0308 75.548V77.888C81.0308 78.896 81.1868 79.682 81.4988 80.246C81.8228 80.81 82.3868 81.092 83.1908 81.092ZM83.1908 77.78C82.7708 77.78 82.4768 77.696 82.3088 77.528C82.1528 77.36 82.0748 77.156 82.0748 76.916V76.52C82.0748 76.28 82.1528 76.076 82.3088 75.908C82.4768 75.74 82.7708 75.656 83.1908 75.656C83.6108 75.656 83.8988 75.74 84.0548 75.908C84.2228 76.076 84.3068 76.28 84.3068 76.52V76.916C84.3068 77.156 84.2228 77.36 84.0548 77.528C83.8988 77.696 83.6108 77.78 83.1908 77.78ZM114.262 77.402C114.262 76.526 114.358 75.686 114.55 74.882C114.754 74.066 115.024 73.31 115.36 72.614C115.708 71.918 116.11 71.294 116.566 70.742C117.022 70.178 117.502 69.704 118.006 69.32H120.67C120.106 69.704 119.572 70.154 119.068 70.67C118.564 71.174 118.12 71.732 117.736 72.344C117.364 72.956 117.064 73.61 116.836 74.306C116.608 75.002 116.494 75.728 116.494 76.484V78.32C116.494 79.076 116.608 79.802 116.836 80.498C117.064 81.194 117.364 81.848 117.736 82.46C118.12 83.072 118.564 83.63 119.068 84.134C119.572 84.65 120.106 85.1 120.67 85.484H118.006C117.502 85.112 117.022 84.644 116.566 84.08C116.11 83.516 115.708 82.886 115.36 82.19C115.024 81.494 114.754 80.744 114.55 79.94C114.358 79.124 114.262 78.278 114.262 77.402ZM124.817 72.542C124.277 72.542 123.881 72.422 123.629 72.182C123.389 71.93 123.269 71.612 123.269 71.228V70.832C123.269 70.448 123.389 70.136 123.629 69.896C123.881 69.644 124.277 69.518 124.817 69.518C125.357 69.518 125.747 69.644 125.987 69.896C126.239 70.136 126.365 70.448 126.365 70.832V71.228C126.365 71.612 126.239 71.93 125.987 72.182C125.747 72.422 125.357 72.542 124.817 72.542ZM123.485 73.55H126.149V83H123.485V73.55ZM128.955 83V73.55H131.619V75.152H131.727C131.895 74.66 132.189 74.234 132.609 73.874C133.029 73.514 133.611 73.334 134.355 73.334C135.327 73.334 136.059 73.658 136.551 74.306C137.055 74.954 137.307 75.878 137.307 77.078V83H134.643V77.294C134.643 76.682 134.547 76.232 134.355 75.944C134.163 75.644 133.821 75.494 133.329 75.494C133.113 75.494 132.903 75.524 132.699 75.584C132.495 75.632 132.309 75.716 132.141 75.836C131.985 75.956 131.859 76.106 131.763 76.286C131.667 76.454 131.619 76.652 131.619 76.88V83H128.955ZM150.368 81.416H150.278C150.206 81.668 150.092 81.908 149.936 82.136C149.78 82.352 149.588 82.544 149.36 82.712C149.144 82.868 148.892 82.988 148.604 83.072C148.328 83.168 148.04 83.216 147.74 83.216C146.54 83.216 145.634 82.796 145.022 81.956C144.41 81.104 144.104 79.874 144.104 78.266C144.104 76.658 144.41 75.434 145.022 74.594C145.634 73.754 146.54 73.334 147.74 73.334C148.352 73.334 148.892 73.502 149.36 73.838C149.84 74.174 150.146 74.606 150.278 75.134H150.368V69.68H153.032V83H150.368V81.416ZM148.622 81.056C149.126 81.056 149.54 80.936 149.864 80.696C150.2 80.444 150.368 80.102 150.368 79.67V76.88C150.368 76.448 150.2 76.112 149.864 75.872C149.54 75.62 149.126 75.494 148.622 75.494C148.118 75.494 147.698 75.674 147.362 76.034C147.038 76.382 146.876 76.856 146.876 77.456V79.094C146.876 79.694 147.038 80.174 147.362 80.534C147.698 80.882 148.118 81.056 148.622 81.056ZM159.785 83.216C159.065 83.216 158.423 83.102 157.859 82.874C157.295 82.634 156.815 82.304 156.419 81.884C156.035 81.452 155.741 80.93 155.537 80.318C155.345 79.706 155.249 79.022 155.249 78.266C155.249 77.522 155.345 76.85 155.537 76.25C155.729 75.638 156.011 75.116 156.383 74.684C156.767 74.252 157.235 73.922 157.787 73.694C158.339 73.454 158.969 73.334 159.677 73.334C160.457 73.334 161.123 73.466 161.675 73.73C162.239 73.994 162.695 74.348 163.043 74.792C163.403 75.236 163.661 75.752 163.817 76.34C163.985 76.916 164.069 77.522 164.069 78.158V78.95H158.003V79.094C158.003 79.718 158.171 80.216 158.507 80.588C158.843 80.948 159.371 81.128 160.091 81.128C160.643 81.128 161.093 81.02 161.441 80.804C161.789 80.576 162.113 80.306 162.413 79.994L163.745 81.65C163.325 82.142 162.773 82.526 162.089 82.802C161.417 83.078 160.649 83.216 159.785 83.216ZM159.731 75.296C159.191 75.296 158.765 75.476 158.453 75.836C158.153 76.184 158.003 76.652 158.003 77.24V77.384H161.315V77.222C161.315 76.646 161.183 76.184 160.919 75.836C160.667 75.476 160.271 75.296 159.731 75.296ZM170.086 83.216C169.378 83.216 168.748 83.102 168.196 82.874C167.644 82.634 167.182 82.304 166.81 81.884C166.438 81.452 166.156 80.93 165.964 80.318C165.772 79.706 165.676 79.022 165.676 78.266C165.676 77.51 165.772 76.832 165.964 76.232C166.156 75.62 166.438 75.098 166.81 74.666C167.182 74.234 167.644 73.904 168.196 73.676C168.748 73.448 169.378 73.334 170.086 73.334C171.046 73.334 171.844 73.55 172.48 73.982C173.128 74.414 173.59 75.02 173.866 75.8L171.706 76.736C171.622 76.376 171.448 76.07 171.184 75.818C170.92 75.566 170.554 75.44 170.086 75.44C169.546 75.44 169.138 75.62 168.862 75.98C168.586 76.328 168.448 76.802 168.448 77.402V79.166C168.448 79.766 168.586 80.24 168.862 80.588C169.138 80.936 169.546 81.11 170.086 81.11C170.566 81.11 170.944 80.984 171.22 80.732C171.508 80.468 171.718 80.126 171.85 79.706L173.92 80.606C173.608 81.506 173.122 82.166 172.462 82.586C171.814 83.006 171.022 83.216 170.086 83.216ZM177.221 72.542C176.681 72.542 176.285 72.422 176.033 72.182C175.793 71.93 175.673 71.612 175.673 71.228V70.832C175.673 70.448 175.793 70.136 176.033 69.896C176.285 69.644 176.681 69.518 177.221 69.518C177.761 69.518 178.151 69.644 178.391 69.896C178.643 70.136 178.769 70.448 178.769 70.832V71.228C178.769 71.612 178.643 71.93 178.391 72.182C178.151 72.422 177.761 72.542 177.221 72.542ZM175.889 73.55H178.553V83H175.889V73.55ZM181.359 83V73.55H184.023V75.152H184.131C184.299 74.648 184.587 74.222 184.995 73.874C185.403 73.514 185.961 73.334 186.669 73.334C187.317 73.334 187.869 73.496 188.325 73.82C188.781 74.144 189.111 74.618 189.315 75.242H189.369C189.453 74.978 189.579 74.732 189.747 74.504C189.927 74.264 190.143 74.06 190.395 73.892C190.647 73.724 190.929 73.592 191.241 73.496C191.553 73.388 191.889 73.334 192.249 73.334C193.161 73.334 193.857 73.658 194.337 74.306C194.829 74.954 195.075 75.878 195.075 77.078V83H192.411V77.294C192.411 76.094 191.979 75.494 191.115 75.494C190.719 75.494 190.359 75.608 190.035 75.836C189.711 76.064 189.549 76.412 189.549 76.88V83H186.885V77.294C186.885 76.094 186.453 75.494 185.589 75.494C185.397 75.494 185.205 75.524 185.013 75.584C184.833 75.632 184.665 75.716 184.509 75.836C184.365 75.956 184.245 76.106 184.149 76.286C184.065 76.454 184.023 76.652 184.023 76.88V83H181.359ZM204.747 83C204.267 83 203.865 82.85 203.541 82.55C203.229 82.25 203.031 81.848 202.947 81.344H202.839C202.695 81.956 202.377 82.424 201.885 82.748C201.393 83.06 200.787 83.216 200.067 83.216C199.119 83.216 198.393 82.964 197.889 82.46C197.385 81.956 197.133 81.29 197.133 80.462C197.133 79.466 197.493 78.728 198.213 78.248C198.945 77.756 199.935 77.51 201.183 77.51H202.677V76.916C202.677 76.46 202.557 76.1 202.317 75.836C202.077 75.56 201.675 75.422 201.111 75.422C200.583 75.422 200.163 75.536 199.851 75.764C199.539 75.992 199.281 76.25 199.077 76.538L197.493 75.134C197.877 74.57 198.357 74.132 198.933 73.82C199.521 73.496 200.313 73.334 201.309 73.334C202.653 73.334 203.661 73.628 204.333 74.216C205.005 74.804 205.341 75.662 205.341 76.79V80.93H206.223V83H204.747ZM201.057 81.362C201.501 81.362 201.879 81.266 202.191 81.074C202.515 80.882 202.677 80.57 202.677 80.138V79.022H201.381C200.337 79.022 199.815 79.376 199.815 80.084V80.354C199.815 80.702 199.923 80.96 200.139 81.128C200.355 81.284 200.661 81.362 201.057 81.362ZM210.977 83C210.065 83 209.393 82.778 208.961 82.334C208.541 81.89 208.331 81.248 208.331 80.408V69.68H210.995V80.93H212.183V83H210.977ZM215.86 79.958C216.4 79.958 216.796 80.096 217.048 80.372C217.312 80.636 217.444 80.978 217.444 81.398V81.758C217.444 82.49 217.264 83.21 216.904 83.918C216.556 84.626 216.094 85.202 215.518 85.646H213.718C214.138 85.25 214.498 84.854 214.798 84.458C215.098 84.074 215.326 83.642 215.482 83.162C215.062 83.09 214.756 82.928 214.564 82.676C214.372 82.412 214.276 82.106 214.276 81.758V81.398C214.276 80.978 214.402 80.636 214.654 80.372C214.918 80.096 215.32 79.958 215.86 79.958ZM228.055 83C227.131 83 226.429 82.766 225.949 82.298C225.481 81.83 225.247 81.146 225.247 80.246V75.62H223.915V73.55H224.581C224.941 73.55 225.187 73.466 225.319 73.298C225.451 73.118 225.517 72.866 225.517 72.542V70.994H227.911V73.55H229.783V75.62H227.911V80.93H229.639V83H228.055ZM231.953 69.68H234.617V75.152H234.725C234.893 74.66 235.187 74.234 235.607 73.874C236.027 73.514 236.609 73.334 237.353 73.334C238.325 73.334 239.057 73.658 239.549 74.306C240.053 74.954 240.305 75.878 240.305 77.078V83H237.641V77.294C237.641 76.682 237.545 76.232 237.353 75.944C237.161 75.644 236.819 75.494 236.327 75.494C236.111 75.494 235.901 75.524 235.697 75.584C235.493 75.632 235.307 75.716 235.139 75.836C234.983 75.956 234.857 76.106 234.761 76.286C234.665 76.454 234.617 76.652 234.617 76.88V83H231.953V69.68ZM244.328 72.542C243.788 72.542 243.392 72.422 243.14 72.182C242.9 71.93 242.78 71.612 242.78 71.228V70.832C242.78 70.448 242.9 70.136 243.14 69.896C243.392 69.644 243.788 69.518 244.328 69.518C244.868 69.518 245.258 69.644 245.498 69.896C245.75 70.136 245.876 70.448 245.876 70.832V71.228C245.876 71.612 245.75 71.93 245.498 72.182C245.258 72.422 244.868 72.542 244.328 72.542ZM242.996 73.55H245.66V83H242.996V73.55ZM251.67 83.216C250.758 83.216 249.99 83.072 249.366 82.784C248.742 82.484 248.184 82.064 247.692 81.524L249.258 79.94C249.594 80.312 249.966 80.606 250.374 80.822C250.782 81.038 251.244 81.146 251.76 81.146C252.288 81.146 252.654 81.068 252.858 80.912C253.062 80.744 253.164 80.522 253.164 80.246C253.164 79.802 252.846 79.538 252.21 79.454L251.184 79.328C249.06 79.064 247.998 78.092 247.998 76.412C247.998 75.956 248.082 75.542 248.25 75.17C248.43 74.786 248.676 74.462 248.988 74.198C249.312 73.922 249.696 73.712 250.14 73.568C250.596 73.412 251.106 73.334 251.67 73.334C252.162 73.334 252.594 73.37 252.966 73.442C253.35 73.502 253.686 73.598 253.974 73.73C254.274 73.85 254.544 74.006 254.784 74.198C255.036 74.378 255.282 74.582 255.522 74.81L253.992 76.376C253.692 76.076 253.35 75.842 252.966 75.674C252.594 75.494 252.21 75.404 251.814 75.404C251.358 75.404 251.034 75.476 250.842 75.62C250.65 75.764 250.554 75.956 250.554 76.196C250.554 76.448 250.62 76.646 250.752 76.79C250.896 76.922 251.16 77.018 251.544 77.078L252.606 77.222C254.682 77.498 255.72 78.446 255.72 80.066C255.72 80.522 255.624 80.942 255.432 81.326C255.24 81.71 254.964 82.046 254.604 82.334C254.256 82.61 253.83 82.826 253.326 82.982C252.834 83.138 252.282 83.216 251.67 83.216ZM263.763 72.542C263.223 72.542 262.827 72.422 262.575 72.182C262.335 71.93 262.215 71.612 262.215 71.228V70.832C262.215 70.448 262.335 70.136 262.575 69.896C262.827 69.644 263.223 69.518 263.763 69.518C264.303 69.518 264.693 69.644 264.933 69.896C265.185 70.136 265.311 70.448 265.311 70.832V71.228C265.311 71.612 265.185 71.93 264.933 72.182C264.693 72.422 264.303 72.542 263.763 72.542ZM262.431 73.55H265.095V83H262.431V73.55ZM271.105 83.216C270.193 83.216 269.425 83.072 268.801 82.784C268.177 82.484 267.619 82.064 267.127 81.524L268.693 79.94C269.029 80.312 269.401 80.606 269.809 80.822C270.217 81.038 270.679 81.146 271.195 81.146C271.723 81.146 272.089 81.068 272.293 80.912C272.497 80.744 272.599 80.522 272.599 80.246C272.599 79.802 272.281 79.538 271.645 79.454L270.619 79.328C268.495 79.064 267.433 78.092 267.433 76.412C267.433 75.956 267.517 75.542 267.685 75.17C267.865 74.786 268.111 74.462 268.423 74.198C268.747 73.922 269.131 73.712 269.575 73.568C270.031 73.412 270.541 73.334 271.105 73.334C271.597 73.334 272.029 73.37 272.401 73.442C272.785 73.502 273.121 73.598 273.409 73.73C273.709 73.85 273.979 74.006 274.219 74.198C274.471 74.378 274.717 74.582 274.957 74.81L273.427 76.376C273.127 76.076 272.785 75.842 272.401 75.674C272.029 75.494 271.645 75.404 271.249 75.404C270.793 75.404 270.469 75.476 270.277 75.62C270.085 75.764 269.989 75.956 269.989 76.196C269.989 76.448 270.055 76.646 270.187 76.79C270.331 76.922 270.595 77.018 270.979 77.078L272.041 77.222C274.117 77.498 275.155 78.446 275.155 80.066C275.155 80.522 275.059 80.942 274.867 81.326C274.675 81.71 274.399 82.046 274.039 82.334C273.691 82.61 273.265 82.826 272.761 82.982C272.269 83.138 271.717 83.216 271.105 83.216ZM288.854 83V80.822H292.238V72.398H292.076L289.52 75.746L287.792 74.396L290.798 70.436H294.938V80.822H297.602V83H288.854ZM302.523 81.884V78.572H299.391V76.448H302.523V73.136H304.827V76.448H307.959V78.572H304.827V81.884H302.523ZM311.08 83V80.822H314.464V72.398H314.302L311.746 75.746L310.018 74.396L313.024 70.436H317.164V80.822H319.828V83H311.08ZM321.617 76.502V74.378H330.185V76.502H321.617ZM321.617 80.642V78.518H330.185V80.642H321.617ZM341.604 83H332.568V80.534L336.528 77.24C337.212 76.652 337.704 76.142 338.004 75.71C338.304 75.278 338.454 74.822 338.454 74.342V74.162C338.454 73.634 338.298 73.238 337.986 72.974C337.674 72.698 337.254 72.56 336.726 72.56C336.126 72.56 335.664 72.734 335.34 73.082C335.016 73.43 334.788 73.844 334.656 74.324L332.298 73.424C332.442 72.992 332.64 72.584 332.892 72.2C333.144 71.804 333.462 71.462 333.846 71.174C334.242 70.886 334.698 70.658 335.214 70.49C335.73 70.31 336.324 70.22 336.996 70.22C337.68 70.22 338.292 70.316 338.832 70.508C339.372 70.7 339.828 70.964 340.2 71.3C340.572 71.636 340.854 72.038 341.046 72.506C341.238 72.962 341.334 73.46 341.334 74C341.334 74.528 341.244 75.014 341.064 75.458C340.896 75.89 340.656 76.298 340.344 76.682C340.044 77.066 339.684 77.438 339.264 77.798C338.856 78.158 338.418 78.518 337.95 78.878L335.556 80.732H341.604V83ZM350.395 77.402C350.395 78.278 350.293 79.124 350.089 79.94C349.897 80.744 349.627 81.494 349.279 82.19C348.943 82.886 348.547 83.516 348.091 84.08C347.635 84.644 347.155 85.112 346.651 85.484H343.987C344.539 85.1 345.067 84.65 345.571 84.134C346.087 83.63 346.531 83.072 346.903 82.46C347.287 81.848 347.593 81.194 347.821 80.498C348.049 79.802 348.163 79.076 348.163 78.32V76.484C348.163 75.728 348.049 75.002 347.821 74.306C347.593 73.61 347.287 72.956 346.903 72.344C346.531 71.732 346.087 71.174 345.571 70.67C345.067 70.154 344.539 69.704 343.987 69.32H346.651C347.155 69.704 347.635 70.178 348.091 70.742C348.547 71.294 348.943 71.918 349.279 72.614C349.627 73.31 349.897 74.066 350.089 74.882C350.293 75.686 350.395 76.526 350.395 77.402Z" fill="#262626"/>
</svg>
