<svg width="200" height="69" viewBox="0 0 200 69" fill="none" xmlns="http://www.w3.org/2000/svg">
<path d="M170.534 62.5303C170.827 62.2374 170.827 61.7626 170.534 61.4697L165.761 56.6967C165.468 56.4038 164.993 56.4038 164.701 56.6967C164.408 56.9896 164.408 57.4645 164.701 57.7574L168.943 62L164.701 66.2426C164.408 66.5355 164.408 67.0104 164.701 67.3033C164.993 67.5962 165.468 67.5962 165.761 67.3033L170.534 62.5303ZM1.00391 62.75H170.004V61.25H1.00391V62.75Z" fill="black"/>
<path d="M154.97 12.2765C155.086 11.9408 154.824 11.5448 154.384 11.3919L147.216 8.90154C146.776 8.74872 146.325 8.89695 146.208 9.23262C146.091 9.5683 146.353 9.96431 146.793 10.1171L153.165 12.3308L151.476 17.1932C151.36 17.5289 151.622 17.9249 152.062 18.0777C152.501 18.2305 152.953 18.0823 153.069 17.7466L154.97 12.2765ZM1.41391 62.9526L154.587 12.6252L153.759 11.3743L0.586087 61.7017L1.41391 62.9526Z" fill="black"/>
<path d="M3.32652 61.625L100.381 29.446C107.059 39.5346 110.551 50.5122 110.628 61.625H3.32652Z" stroke="black" stroke-width="0.75"/>
<path d="M92.1055 49.25C92.1055 50.5039 91.875 51.4629 91.4141 52.127C90.9531 52.7871 90.2871 53.1172 89.416 53.1172C88.5605 53.1172 87.9004 52.793 87.4355 52.1445C86.9707 51.4961 86.7305 50.5703 86.7148 49.3672V48.166C86.7148 46.9277 86.9453 45.9824 87.4062 45.3301C87.8672 44.6777 88.5332 44.3516 89.4043 44.3516C90.2715 44.3516 90.9336 44.668 91.3906 45.3008C91.8516 45.9336 92.0898 46.8496 92.1055 48.0488V49.25ZM87.7988 48.3066H91.0156V47.9844C91.0156 47.0977 90.8789 46.4199 90.6055 45.9512C90.3359 45.4785 89.9355 45.2422 89.4043 45.2422C88.8809 45.2422 88.4824 45.4785 88.209 45.9512C87.9355 46.4199 87.7988 47.0977 87.7988 47.9844V48.3066ZM91.0156 49.1973H87.7988V49.4258C87.7988 50.3203 87.9414 51.0117 88.2266 51.5C88.5117 51.9883 88.9082 52.2324 89.416 52.2324C89.9238 52.2324 90.3145 51.998 90.5879 51.5293C90.8652 51.0605 91.0078 50.3828 91.0156 49.4961V49.1973Z" fill="black"/>
<path d="M166.18 14.656V3.88H167.02V14.656H166.18ZM174.187 13.144C173.539 13.144 172.979 13.036 172.507 12.82C172.043 12.596 171.647 12.3 171.319 11.932L171.967 11.368C172.263 11.68 172.587 11.92 172.939 12.088C173.291 12.256 173.715 12.34 174.211 12.34C174.691 12.34 175.083 12.256 175.387 12.088C175.699 11.912 175.855 11.64 175.855 11.272C175.855 11.112 175.823 10.98 175.759 10.876C175.703 10.764 175.623 10.676 175.519 10.612C175.415 10.548 175.299 10.5 175.171 10.468C175.043 10.428 174.907 10.396 174.763 10.372L173.791 10.228C173.575 10.196 173.339 10.152 173.083 10.096C172.835 10.04 172.607 9.952 172.399 9.832C172.191 9.704 172.015 9.536 171.871 9.328C171.735 9.12 171.667 8.848 171.667 8.512C171.667 8.2 171.727 7.932 171.847 7.708C171.975 7.476 172.151 7.284 172.375 7.132C172.599 6.972 172.863 6.856 173.167 6.784C173.471 6.704 173.803 6.664 174.163 6.664C174.723 6.664 175.207 6.752 175.615 6.928C176.031 7.104 176.387 7.348 176.683 7.66L176.059 8.248C175.987 8.16 175.895 8.072 175.783 7.984C175.679 7.888 175.547 7.804 175.387 7.732C175.235 7.652 175.055 7.588 174.847 7.54C174.639 7.492 174.399 7.468 174.127 7.468C173.639 7.468 173.263 7.552 172.999 7.72C172.743 7.888 172.615 8.132 172.615 8.452C172.615 8.612 172.643 8.748 172.699 8.86C172.763 8.964 172.847 9.048 172.951 9.112C173.055 9.176 173.171 9.228 173.299 9.268C173.435 9.3 173.571 9.328 173.707 9.352L174.679 9.496C174.903 9.528 175.139 9.572 175.387 9.628C175.635 9.684 175.863 9.776 176.071 9.904C176.279 10.024 176.451 10.188 176.587 10.396C176.731 10.604 176.803 10.876 176.803 11.212C176.803 11.828 176.563 12.304 176.083 12.64C175.611 12.976 174.979 13.144 174.187 13.144Z" fill="black"/>
<path d="M180.949 4L183.949 9.5L180.949 15" stroke="black" stroke-width="0.85"/>
<path d="M181.18 67.656V56.88H182.02V67.656H181.18ZM186.247 66L188.551 62.856L186.307 59.808H187.459L188.395 61.116L189.139 62.148H189.187L189.907 61.116L190.831 59.808H191.935L189.667 62.844L191.995 66H190.843L189.799 64.548L189.091 63.564H189.043L188.359 64.548L187.351 66H186.247Z" fill="black"/>
<path d="M195.949 57L198.949 62.5L195.949 68" stroke="black" stroke-width="0.85"/>
</svg>
