<svg width="576" height="276" viewBox="0 0 576 276" fill="none" xmlns="http://www.w3.org/2000/svg">
<rect opacity="0.4" x="1" width="191" height="276" fill="#F2F4F8"/>
<rect opacity="0.4" x="384" width="191" height="276" fill="#F2F4F8"/>
<rect x="0.5" y="0.5" width="575" height="275" stroke="#DDE1E6"/>
<path d="M210.148 12.228H213.704C214.339 12.228 214.913 12.3307 215.426 12.536C215.949 12.7413 216.392 13.0493 216.756 13.46C217.129 13.8613 217.414 14.37 217.61 14.986C217.815 15.5927 217.918 16.302 217.918 17.114C217.918 17.926 217.815 18.64 217.61 19.256C217.414 19.8627 217.129 20.3713 216.756 20.782C216.392 21.1833 215.949 21.4867 215.426 21.692C214.913 21.8973 214.339 22 213.704 22H210.148V12.228ZM213.704 20.362C214.395 20.362 214.941 20.1613 215.342 19.76C215.753 19.3493 215.958 18.724 215.958 17.884V16.344C215.958 15.504 215.753 14.8833 215.342 14.482C214.941 14.0713 214.395 13.866 213.704 13.866H211.996V20.362H213.704ZM225.224 22C224.832 22 224.52 21.888 224.286 21.664C224.062 21.4307 223.922 21.1227 223.866 20.74H223.782C223.661 21.216 223.414 21.5753 223.04 21.818C222.667 22.0513 222.205 22.168 221.654 22.168C220.908 22.168 220.334 21.972 219.932 21.58C219.531 21.188 219.33 20.6653 219.33 20.012C219.33 19.256 219.601 18.696 220.142 18.332C220.684 17.9587 221.454 17.772 222.452 17.772H223.698V17.24C223.698 16.8293 223.591 16.512 223.376 16.288C223.162 16.064 222.816 15.952 222.34 15.952C221.92 15.952 221.58 16.0453 221.318 16.232C221.066 16.4093 220.852 16.624 220.674 16.876L219.61 15.924C219.881 15.504 220.24 15.168 220.688 14.916C221.136 14.6547 221.729 14.524 222.466 14.524C223.456 14.524 224.207 14.748 224.72 15.196C225.234 15.644 225.49 16.288 225.49 17.128V20.572H226.218V22H225.224ZM222.256 20.866C222.658 20.866 222.998 20.7773 223.278 20.6C223.558 20.4227 223.698 20.1613 223.698 19.816V18.85H222.55C221.617 18.85 221.15 19.1487 221.15 19.746V19.984C221.15 20.2827 221.244 20.5067 221.43 20.656C221.626 20.796 221.902 20.866 222.256 20.866ZM230.056 22C229.44 22 228.969 21.8413 228.642 21.524C228.325 21.1973 228.166 20.7353 228.166 20.138V16.12H227.088V14.692H227.648C227.919 14.692 228.101 14.6313 228.194 14.51C228.297 14.3793 228.348 14.188 228.348 13.936V12.69H229.958V14.692H231.456V16.12H229.958V20.572H231.344V22H230.056ZM238.546 22C238.154 22 237.842 21.888 237.608 21.664C237.384 21.4307 237.244 21.1227 237.188 20.74H237.104C236.983 21.216 236.736 21.5753 236.362 21.818C235.989 22.0513 235.527 22.168 234.976 22.168C234.23 22.168 233.656 21.972 233.254 21.58C232.853 21.188 232.652 20.6653 232.652 20.012C232.652 19.256 232.923 18.696 233.464 18.332C234.006 17.9587 234.776 17.772 235.774 17.772H237.02V17.24C237.02 16.8293 236.913 16.512 236.698 16.288C236.484 16.064 236.138 15.952 235.662 15.952C235.242 15.952 234.902 16.0453 234.64 16.232C234.388 16.4093 234.174 16.624 233.996 16.876L232.932 15.924C233.203 15.504 233.562 15.168 234.01 14.916C234.458 14.6547 235.051 14.524 235.788 14.524C236.778 14.524 237.529 14.748 238.042 15.196C238.556 15.644 238.812 16.288 238.812 17.128V20.572H239.54V22H238.546ZM235.578 20.866C235.98 20.866 236.32 20.7773 236.6 20.6C236.88 20.4227 237.02 20.1613 237.02 19.816V18.85H235.872C234.939 18.85 234.472 19.1487 234.472 19.746V19.984C234.472 20.2827 234.566 20.5067 234.752 20.656C234.948 20.796 235.224 20.866 235.578 20.866ZM241.151 11.64H242.943V15.896H242.999C243.129 15.476 243.377 15.1447 243.741 14.902C244.105 14.65 244.529 14.524 245.015 14.524C245.948 14.524 246.657 14.8553 247.143 15.518C247.637 16.1713 247.885 17.1093 247.885 18.332C247.885 19.564 247.637 20.5113 247.143 21.174C246.657 21.8367 245.948 22.168 245.015 22.168C244.529 22.168 244.105 22.042 243.741 21.79C243.386 21.538 243.139 21.202 242.999 20.782H242.943V22H241.151V11.64ZM244.441 20.684C244.907 20.684 245.285 20.53 245.575 20.222C245.864 19.914 246.009 19.4987 246.009 18.976V17.716C246.009 17.1933 245.864 16.778 245.575 16.47C245.285 16.1527 244.907 15.994 244.441 15.994C244.011 15.994 243.652 16.1013 243.363 16.316C243.083 16.5307 242.943 16.8153 242.943 17.17V19.494C242.943 19.8767 243.083 20.1707 243.363 20.376C243.652 20.5813 244.011 20.684 244.441 20.684ZM255.081 22C254.689 22 254.376 21.888 254.143 21.664C253.919 21.4307 253.779 21.1227 253.723 20.74H253.639C253.518 21.216 253.27 21.5753 252.897 21.818C252.524 22.0513 252.062 22.168 251.511 22.168C250.764 22.168 250.19 21.972 249.789 21.58C249.388 21.188 249.187 20.6653 249.187 20.012C249.187 19.256 249.458 18.696 249.999 18.332C250.54 17.9587 251.31 17.772 252.309 17.772H253.555V17.24C253.555 16.8293 253.448 16.512 253.233 16.288C253.018 16.064 252.673 15.952 252.197 15.952C251.777 15.952 251.436 16.0453 251.175 16.232C250.923 16.4093 250.708 16.624 250.531 16.876L249.467 15.924C249.738 15.504 250.097 15.168 250.545 14.916C250.993 14.6547 251.586 14.524 252.323 14.524C253.312 14.524 254.064 14.748 254.577 15.196C255.09 15.644 255.347 16.288 255.347 17.128V20.572H256.075V22H255.081ZM252.113 20.866C252.514 20.866 252.855 20.7773 253.135 20.6C253.415 20.4227 253.555 20.1613 253.555 19.816V18.85H252.407C251.474 18.85 251.007 19.1487 251.007 19.746V19.984C251.007 20.2827 251.1 20.5067 251.287 20.656C251.483 20.796 251.758 20.866 252.113 20.866ZM260.079 22.168C259.379 22.168 258.791 22.0513 258.315 21.818C257.839 21.5753 257.419 21.244 257.055 20.824L258.147 19.76C258.418 20.068 258.712 20.3107 259.029 20.488C259.356 20.6653 259.729 20.754 260.149 20.754C260.579 20.754 260.887 20.6793 261.073 20.53C261.269 20.3807 261.367 20.1753 261.367 19.914C261.367 19.6993 261.297 19.5313 261.157 19.41C261.027 19.2793 260.798 19.1907 260.471 19.144L259.743 19.046C258.95 18.9433 258.343 18.7193 257.923 18.374C257.513 18.0193 257.307 17.506 257.307 16.834C257.307 16.4793 257.373 16.162 257.503 15.882C257.634 15.5927 257.821 15.35 258.063 15.154C258.306 14.9487 258.595 14.7947 258.931 14.692C259.277 14.58 259.659 14.524 260.079 14.524C260.434 14.524 260.747 14.552 261.017 14.608C261.297 14.6547 261.549 14.7293 261.773 14.832C261.997 14.9253 262.203 15.0467 262.389 15.196C262.576 15.336 262.758 15.4947 262.935 15.672L261.885 16.722C261.671 16.498 261.414 16.3113 261.115 16.162C260.817 16.0127 260.49 15.938 260.135 15.938C259.743 15.938 259.459 16.008 259.281 16.148C259.113 16.288 259.029 16.47 259.029 16.694C259.029 16.9367 259.099 17.1233 259.239 17.254C259.389 17.3753 259.636 17.464 259.981 17.52L260.723 17.618C262.301 17.842 263.089 18.5607 263.089 19.774C263.089 20.1287 263.015 20.4553 262.865 20.754C262.725 21.0433 262.525 21.2953 262.263 21.51C262.002 21.7153 261.685 21.8787 261.311 22C260.947 22.112 260.537 22.168 260.079 22.168ZM267.786 22.168C267.244 22.168 266.759 22.0793 266.33 21.902C265.91 21.7153 265.55 21.4587 265.252 21.132C264.962 20.796 264.738 20.3947 264.58 19.928C264.421 19.452 264.342 18.92 264.342 18.332C264.342 17.7533 264.416 17.2307 264.566 16.764C264.724 16.2973 264.948 15.9007 265.238 15.574C265.527 15.238 265.882 14.9813 266.302 14.804C266.722 14.6173 267.198 14.524 267.73 14.524C268.299 14.524 268.794 14.622 269.214 14.818C269.634 15.014 269.979 15.28 270.25 15.616C270.52 15.952 270.721 16.344 270.852 16.792C270.992 17.2307 271.062 17.702 271.062 18.206V18.794H266.204V18.976C266.204 19.508 266.353 19.9373 266.652 20.264C266.95 20.5813 267.394 20.74 267.982 20.74C268.43 20.74 268.794 20.6467 269.074 20.46C269.363 20.2733 269.62 20.0353 269.844 19.746L270.81 20.824C270.511 21.244 270.1 21.5753 269.578 21.818C269.064 22.0513 268.467 22.168 267.786 22.168ZM267.758 15.868C267.282 15.868 266.904 16.0267 266.624 16.344C266.344 16.6613 266.204 17.072 266.204 17.576V17.688H269.2V17.562C269.2 17.058 269.074 16.652 268.822 16.344C268.579 16.0267 268.224 15.868 267.758 15.868ZM282.861 22.616C282.861 22.9987 282.791 23.3347 282.651 23.624C282.52 23.9227 282.301 24.17 281.993 24.366C281.685 24.562 281.288 24.7113 280.803 24.814C280.318 24.9167 279.725 24.968 279.025 24.968C278.409 24.968 277.886 24.926 277.457 24.842C277.028 24.7673 276.673 24.6553 276.393 24.506C276.122 24.366 275.926 24.1887 275.805 23.974C275.684 23.7593 275.623 23.5167 275.623 23.246C275.623 22.8353 275.735 22.5133 275.959 22.28C276.192 22.056 276.514 21.9113 276.925 21.846V21.692C276.626 21.6173 276.393 21.4727 276.225 21.258C276.066 21.034 275.987 20.7727 275.987 20.474C275.987 20.2873 276.024 20.124 276.099 19.984C276.174 19.8347 276.272 19.7087 276.393 19.606C276.524 19.5033 276.668 19.4193 276.827 19.354C276.986 19.2793 277.154 19.2233 277.331 19.186V19.13C276.883 18.9247 276.547 18.64 276.323 18.276C276.108 17.912 276.001 17.4873 276.001 17.002C276.001 16.2553 276.258 15.658 276.771 15.21C277.284 14.7527 278.036 14.524 279.025 14.524C279.249 14.524 279.468 14.538 279.683 14.566C279.907 14.594 280.112 14.6407 280.299 14.706V14.468C280.299 13.7587 280.644 13.404 281.335 13.404H282.469V14.776H280.915V14.972C281.298 15.1867 281.582 15.4667 281.769 15.812C281.956 16.1573 282.049 16.554 282.049 17.002C282.049 17.7393 281.792 18.332 281.279 18.78C280.775 19.228 280.024 19.452 279.025 19.452C278.596 19.452 278.222 19.41 277.905 19.326C277.765 19.3913 277.644 19.48 277.541 19.592C277.438 19.6947 277.387 19.8253 277.387 19.984C277.387 20.348 277.704 20.53 278.339 20.53H280.299C281.195 20.53 281.844 20.7167 282.245 21.09C282.656 21.454 282.861 21.9627 282.861 22.616ZM281.181 22.826C281.181 22.5927 281.088 22.4107 280.901 22.28C280.714 22.1493 280.392 22.084 279.935 22.084H277.443C277.191 22.2707 277.065 22.5227 277.065 22.84C277.065 23.12 277.182 23.3393 277.415 23.498C277.648 23.6567 278.045 23.736 278.605 23.736H279.501C280.089 23.736 280.514 23.6613 280.775 23.512C281.046 23.3627 281.181 23.134 281.181 22.826ZM279.025 18.234C279.902 18.234 280.341 17.8607 280.341 17.114V16.876C280.341 16.1293 279.902 15.756 279.025 15.756C278.148 15.756 277.709 16.1293 277.709 16.876V17.114C277.709 17.8607 278.148 18.234 279.025 18.234ZM286.928 22.168C286.387 22.168 285.901 22.0793 285.472 21.902C285.052 21.7153 284.693 21.4587 284.394 21.132C284.105 20.796 283.881 20.3947 283.722 19.928C283.563 19.452 283.484 18.92 283.484 18.332C283.484 17.7533 283.559 17.2307 283.708 16.764C283.867 16.2973 284.091 15.9007 284.38 15.574C284.669 15.238 285.024 14.9813 285.444 14.804C285.864 14.6173 286.34 14.524 286.872 14.524C287.441 14.524 287.936 14.622 288.356 14.818C288.776 15.014 289.121 15.28 289.392 15.616C289.663 15.952 289.863 16.344 289.994 16.792C290.134 17.2307 290.204 17.702 290.204 18.206V18.794H285.346V18.976C285.346 19.508 285.495 19.9373 285.794 20.264C286.093 20.5813 286.536 20.74 287.124 20.74C287.572 20.74 287.936 20.6467 288.216 20.46C288.505 20.2733 288.762 20.0353 288.986 19.746L289.952 20.824C289.653 21.244 289.243 21.5753 288.72 21.818C288.207 22.0513 287.609 22.168 286.928 22.168ZM286.9 15.868C286.424 15.868 286.046 16.0267 285.766 16.344C285.486 16.6613 285.346 17.072 285.346 17.576V17.688H288.342V17.562C288.342 17.058 288.216 16.652 287.964 16.344C287.721 16.0267 287.367 15.868 286.9 15.868ZM294.223 22C293.607 22 293.135 21.8413 292.809 21.524C292.491 21.1973 292.333 20.7353 292.333 20.138V16.12H291.255V14.692H291.815C292.085 14.692 292.267 14.6313 292.361 14.51C292.463 14.3793 292.515 14.188 292.515 13.936V12.69H294.125V14.692H295.623V16.12H294.125V20.572H295.511V22H294.223ZM299.731 22.168C299.031 22.168 298.443 22.0513 297.967 21.818C297.491 21.5753 297.071 21.244 296.707 20.824L297.799 19.76C298.07 20.068 298.364 20.3107 298.681 20.488C299.008 20.6653 299.381 20.754 299.801 20.754C300.23 20.754 300.538 20.6793 300.725 20.53C300.921 20.3807 301.019 20.1753 301.019 19.914C301.019 19.6993 300.949 19.5313 300.809 19.41C300.678 19.2793 300.45 19.1907 300.123 19.144L299.395 19.046C298.602 18.9433 297.995 18.7193 297.575 18.374C297.164 18.0193 296.959 17.506 296.959 16.834C296.959 16.4793 297.024 16.162 297.155 15.882C297.286 15.5927 297.472 15.35 297.715 15.154C297.958 14.9487 298.247 14.7947 298.583 14.692C298.928 14.58 299.311 14.524 299.731 14.524C300.086 14.524 300.398 14.552 300.669 14.608C300.949 14.6547 301.201 14.7293 301.425 14.832C301.649 14.9253 301.854 15.0467 302.041 15.196C302.228 15.336 302.41 15.4947 302.587 15.672L301.537 16.722C301.322 16.498 301.066 16.3113 300.767 16.162C300.468 16.0127 300.142 15.938 299.787 15.938C299.395 15.938 299.11 16.008 298.933 16.148C298.765 16.288 298.681 16.47 298.681 16.694C298.681 16.9367 298.751 17.1233 298.891 17.254C299.04 17.3753 299.288 17.464 299.633 17.52L300.375 17.618C301.952 17.842 302.741 18.5607 302.741 19.774C302.741 20.1287 302.666 20.4553 302.517 20.754C302.377 21.0433 302.176 21.2953 301.915 21.51C301.654 21.7153 301.336 21.8787 300.963 22C300.599 22.112 300.188 22.168 299.731 22.168ZM210.932 31.628C210.559 31.628 210.288 31.544 210.12 31.376C209.961 31.208 209.882 30.9933 209.882 30.732V30.452C209.882 30.1907 209.961 29.976 210.12 29.808C210.288 29.64 210.559 29.556 210.932 29.556C211.296 29.556 211.562 29.64 211.73 29.808C211.898 29.976 211.982 30.1907 211.982 30.452V30.732C211.982 30.9933 211.898 31.208 211.73 31.376C211.562 31.544 211.296 31.628 210.932 31.628ZM210.036 32.692H211.828V40H210.036V32.692ZM214.065 40V32.692H215.857V33.91H215.927C216.076 33.518 216.31 33.1913 216.627 32.93C216.954 32.6593 217.402 32.524 217.971 32.524C218.727 32.524 219.306 32.7713 219.707 33.266C220.108 33.7607 220.309 34.4653 220.309 35.38V40H218.517V35.562C218.517 35.0393 218.424 34.6473 218.237 34.386C218.05 34.1247 217.742 33.994 217.313 33.994C217.126 33.994 216.944 34.022 216.767 34.078C216.599 34.1247 216.445 34.1993 216.305 34.302C216.174 34.3953 216.067 34.5167 215.983 34.666C215.899 34.806 215.857 34.974 215.857 35.17V40H214.065ZM222.82 34.106H221.742V32.692H222.82V31.642C222.82 30.998 222.988 30.5033 223.324 30.158C223.669 29.8127 224.173 29.64 224.836 29.64H226.11V31.068H224.612V32.692H226.11V34.106H224.612V40H222.82V34.106ZM230.353 40.168C229.831 40.168 229.359 40.0793 228.939 39.902C228.529 39.7247 228.174 39.468 227.875 39.132C227.586 38.796 227.362 38.3947 227.203 37.928C227.045 37.452 226.965 36.92 226.965 36.332C226.965 35.744 227.045 35.2167 227.203 34.75C227.362 34.2833 227.586 33.8867 227.875 33.56C228.174 33.224 228.529 32.9673 228.939 32.79C229.359 32.6127 229.831 32.524 230.353 32.524C230.876 32.524 231.347 32.6127 231.767 32.79C232.187 32.9673 232.542 33.224 232.831 33.56C233.13 33.8867 233.359 34.2833 233.517 34.75C233.676 35.2167 233.755 35.744 233.755 36.332C233.755 36.92 233.676 37.452 233.517 37.928C233.359 38.3947 233.13 38.796 232.831 39.132C232.542 39.468 232.187 39.7247 231.767 39.902C231.347 40.0793 230.876 40.168 230.353 40.168ZM230.353 38.726C230.829 38.726 231.203 38.5813 231.473 38.292C231.744 38.0027 231.879 37.578 231.879 37.018V35.66C231.879 35.1093 231.744 34.6893 231.473 34.4C231.203 34.1107 230.829 33.966 230.353 33.966C229.887 33.966 229.518 34.1107 229.247 34.4C228.977 34.6893 228.841 35.1093 228.841 35.66V37.018C228.841 37.578 228.977 38.0027 229.247 38.292C229.518 38.5813 229.887 38.726 230.353 38.726ZM235.504 40V32.692H237.296V34.204H237.366C237.413 34.008 237.483 33.8213 237.576 33.644C237.679 33.4573 237.809 33.294 237.968 33.154C238.127 33.014 238.313 32.902 238.528 32.818C238.752 32.734 239.009 32.692 239.298 32.692H239.69V34.386H239.13C238.523 34.386 238.066 34.4747 237.758 34.652C237.45 34.8293 237.296 35.1187 237.296 35.52V40H235.504ZM241.16 40V32.692H242.952V33.91H243.022C243.162 33.5273 243.386 33.2007 243.694 32.93C244.002 32.6593 244.432 32.524 244.982 32.524C245.486 32.524 245.92 32.6453 246.284 32.888C246.648 33.1307 246.919 33.4993 247.096 33.994H247.124C247.255 33.5833 247.512 33.238 247.894 32.958C248.286 32.6687 248.776 32.524 249.364 32.524C250.083 32.524 250.634 32.7713 251.016 33.266C251.408 33.7607 251.604 34.4653 251.604 35.38V40H249.812V35.562C249.812 34.5167 249.42 33.994 248.636 33.994C248.459 33.994 248.286 34.022 248.118 34.078C247.96 34.1247 247.815 34.1993 247.684 34.302C247.563 34.3953 247.465 34.5167 247.39 34.666C247.316 34.806 247.278 34.974 247.278 35.17V40H245.486V35.562C245.486 34.5167 245.094 33.994 244.31 33.994C244.142 33.994 243.974 34.022 243.806 34.078C243.648 34.1247 243.503 34.1993 243.372 34.302C243.251 34.3953 243.148 34.5167 243.064 34.666C242.99 34.806 242.952 34.974 242.952 35.17V40H241.16ZM259.124 40C258.732 40 258.419 39.888 258.186 39.664C257.962 39.4307 257.822 39.1227 257.766 38.74H257.682C257.561 39.216 257.313 39.5753 256.94 39.818C256.567 40.0513 256.105 40.168 255.554 40.168C254.807 40.168 254.233 39.972 253.832 39.58C253.431 39.188 253.23 38.6653 253.23 38.012C253.23 37.256 253.501 36.696 254.042 36.332C254.583 35.9587 255.353 35.772 256.352 35.772H257.598V35.24C257.598 34.8293 257.491 34.512 257.276 34.288C257.061 34.064 256.716 33.952 256.24 33.952C255.82 33.952 255.479 34.0453 255.218 34.232C254.966 34.4093 254.751 34.624 254.574 34.876L253.51 33.924C253.781 33.504 254.14 33.168 254.588 32.916C255.036 32.6547 255.629 32.524 256.366 32.524C257.355 32.524 258.107 32.748 258.62 33.196C259.133 33.644 259.39 34.288 259.39 35.128V38.572H260.118V40H259.124ZM256.156 38.866C256.557 38.866 256.898 38.7773 257.178 38.6C257.458 38.4227 257.598 38.1613 257.598 37.816V36.85H256.45C255.517 36.85 255.05 37.1487 255.05 37.746V37.984C255.05 38.2827 255.143 38.5067 255.33 38.656C255.526 38.796 255.801 38.866 256.156 38.866ZM263.956 40C263.34 40 262.868 39.8413 262.542 39.524C262.224 39.1973 262.066 38.7353 262.066 38.138V34.12H260.988V32.692H261.548C261.818 32.692 262 32.6313 262.094 32.51C262.196 32.3793 262.248 32.188 262.248 31.936V30.69H263.858V32.692H265.356V34.12H263.858V38.572H265.244V40H263.956ZM267.966 31.628C267.593 31.628 267.322 31.544 267.154 31.376C266.995 31.208 266.916 30.9933 266.916 30.732V30.452C266.916 30.1907 266.995 29.976 267.154 29.808C267.322 29.64 267.593 29.556 267.966 29.556C268.33 29.556 268.596 29.64 268.764 29.808C268.932 29.976 269.016 30.1907 269.016 30.452V30.732C269.016 30.9933 268.932 31.208 268.764 31.376C268.596 31.544 268.33 31.628 267.966 31.628ZM267.07 32.692H268.862V40H267.07V32.692ZM273.997 40.168C273.474 40.168 273.003 40.0793 272.583 39.902C272.172 39.7247 271.818 39.468 271.519 39.132C271.23 38.796 271.006 38.3947 270.847 37.928C270.688 37.452 270.609 36.92 270.609 36.332C270.609 35.744 270.688 35.2167 270.847 34.75C271.006 34.2833 271.23 33.8867 271.519 33.56C271.818 33.224 272.172 32.9673 272.583 32.79C273.003 32.6127 273.474 32.524 273.997 32.524C274.52 32.524 274.991 32.6127 275.411 32.79C275.831 32.9673 276.186 33.224 276.475 33.56C276.774 33.8867 277.002 34.2833 277.161 34.75C277.32 35.2167 277.399 35.744 277.399 36.332C277.399 36.92 277.32 37.452 277.161 37.928C277.002 38.3947 276.774 38.796 276.475 39.132C276.186 39.468 275.831 39.7247 275.411 39.902C274.991 40.0793 274.52 40.168 273.997 40.168ZM273.997 38.726C274.473 38.726 274.846 38.5813 275.117 38.292C275.388 38.0027 275.523 37.578 275.523 37.018V35.66C275.523 35.1093 275.388 34.6893 275.117 34.4C274.846 34.1107 274.473 33.966 273.997 33.966C273.53 33.966 273.162 34.1107 272.891 34.4C272.62 34.6893 272.485 35.1093 272.485 35.66V37.018C272.485 37.578 272.62 38.0027 272.891 38.292C273.162 38.5813 273.53 38.726 273.997 38.726ZM279.148 40V32.692H280.94V33.91H281.01C281.159 33.518 281.392 33.1913 281.71 32.93C282.036 32.6593 282.484 32.524 283.054 32.524C283.81 32.524 284.388 32.7713 284.79 33.266C285.191 33.7607 285.392 34.4653 285.392 35.38V40H283.6V35.562C283.6 35.0393 283.506 34.6473 283.32 34.386C283.133 34.1247 282.825 33.994 282.396 33.994C282.209 33.994 282.027 34.022 281.85 34.078C281.682 34.1247 281.528 34.1993 281.388 34.302C281.257 34.3953 281.15 34.5167 281.066 34.666C280.982 34.806 280.94 34.974 280.94 35.17V40H279.148ZM296.383 40C295.991 40 295.678 39.888 295.445 39.664C295.221 39.4307 295.081 39.1227 295.025 38.74H294.941C294.819 39.216 294.572 39.5753 294.199 39.818C293.825 40.0513 293.363 40.168 292.813 40.168C292.066 40.168 291.492 39.972 291.091 39.58C290.689 39.188 290.489 38.6653 290.489 38.012C290.489 37.256 290.759 36.696 291.301 36.332C291.842 35.9587 292.612 35.772 293.611 35.772H294.857V35.24C294.857 34.8293 294.749 34.512 294.535 34.288C294.32 34.064 293.975 33.952 293.499 33.952C293.079 33.952 292.738 34.0453 292.477 34.232C292.225 34.4093 292.01 34.624 291.833 34.876L290.769 33.924C291.039 33.504 291.399 33.168 291.847 32.916C292.295 32.6547 292.887 32.524 293.625 32.524C294.614 32.524 295.365 32.748 295.879 33.196C296.392 33.644 296.649 34.288 296.649 35.128V38.572H297.377V40H296.383ZM293.415 38.866C293.816 38.866 294.157 38.7773 294.437 38.6C294.717 38.4227 294.857 38.1613 294.857 37.816V36.85H293.709C292.775 36.85 292.309 37.1487 292.309 37.746V37.984C292.309 38.2827 292.402 38.5067 292.589 38.656C292.785 38.796 293.06 38.866 293.415 38.866ZM301.214 40C300.598 40 300.127 39.8413 299.8 39.524C299.483 39.1973 299.324 38.7353 299.324 38.138V34.12H298.246V32.692H298.806C299.077 32.692 299.259 32.6313 299.352 32.51C299.455 32.3793 299.506 32.188 299.506 31.936V30.69H301.116V32.692H302.614V34.12H301.116V38.572H302.502V40H301.214ZM310.079 40C309.463 40 308.992 39.8413 308.665 39.524C308.348 39.1973 308.189 38.7353 308.189 38.138V34.12H307.111V32.692H307.671C307.942 32.692 308.124 32.6313 308.217 32.51C308.32 32.3793 308.371 32.188 308.371 31.936V30.69H309.981V32.692H311.479V34.12H309.981V38.572H311.367V40H310.079ZM313.194 29.64H314.986V33.91H315.056C315.205 33.518 315.438 33.1913 315.756 32.93C316.082 32.6593 316.53 32.524 317.1 32.524C317.856 32.524 318.434 32.7713 318.836 33.266C319.237 33.7607 319.438 34.4653 319.438 35.38V40H317.646V35.562C317.646 35.0393 317.552 34.6473 317.366 34.386C317.179 34.1247 316.871 33.994 316.442 33.994C316.255 33.994 316.073 34.022 315.896 34.078C315.728 34.1247 315.574 34.1993 315.434 34.302C315.303 34.3953 315.196 34.5167 315.112 34.666C315.028 34.806 314.986 34.974 314.986 35.17V40H313.194V29.64ZM326.96 40C326.568 40 326.255 39.888 326.022 39.664C325.798 39.4307 325.658 39.1227 325.602 38.74H325.518C325.397 39.216 325.149 39.5753 324.776 39.818C324.403 40.0513 323.941 40.168 323.39 40.168C322.643 40.168 322.069 39.972 321.668 39.58C321.267 39.188 321.066 38.6653 321.066 38.012C321.066 37.256 321.337 36.696 321.878 36.332C322.419 35.9587 323.189 35.772 324.188 35.772H325.434V35.24C325.434 34.8293 325.327 34.512 325.112 34.288C324.897 34.064 324.552 33.952 324.076 33.952C323.656 33.952 323.315 34.0453 323.054 34.232C322.802 34.4093 322.587 34.624 322.41 34.876L321.346 33.924C321.617 33.504 321.976 33.168 322.424 32.916C322.872 32.6547 323.465 32.524 324.202 32.524C325.191 32.524 325.943 32.748 326.456 33.196C326.969 33.644 327.226 34.288 327.226 35.128V38.572H327.954V40H326.96ZM323.992 38.866C324.393 38.866 324.734 38.7773 325.014 38.6C325.294 38.4227 325.434 38.1613 325.434 37.816V36.85H324.286C323.353 36.85 322.886 37.1487 322.886 37.746V37.984C322.886 38.2827 322.979 38.5067 323.166 38.656C323.362 38.796 323.637 38.866 323.992 38.866ZM331.792 40C331.176 40 330.704 39.8413 330.378 39.524C330.06 39.1973 329.902 38.7353 329.902 38.138V34.12H328.824V32.692H329.384C329.654 32.692 329.836 32.6313 329.93 32.51C330.032 32.3793 330.084 32.188 330.084 31.936V30.69H331.694V32.692H333.192V34.12H331.694V38.572H333.08V40H331.792ZM215.412 58C215.02 58 214.707 57.888 214.474 57.664C214.25 57.4307 214.11 57.1227 214.054 56.74H213.97C213.849 57.216 213.601 57.5753 213.228 57.818C212.855 58.0513 212.393 58.168 211.842 58.168C211.095 58.168 210.521 57.972 210.12 57.58C209.719 57.188 209.518 56.6653 209.518 56.012C209.518 55.256 209.789 54.696 210.33 54.332C210.871 53.9587 211.641 53.772 212.64 53.772H213.886V53.24C213.886 52.8293 213.779 52.512 213.564 52.288C213.349 52.064 213.004 51.952 212.528 51.952C212.108 51.952 211.767 52.0453 211.506 52.232C211.254 52.4093 211.039 52.624 210.862 52.876L209.798 51.924C210.069 51.504 210.428 51.168 210.876 50.916C211.324 50.6547 211.917 50.524 212.654 50.524C213.643 50.524 214.395 50.748 214.908 51.196C215.421 51.644 215.678 52.288 215.678 53.128V56.572H216.406V58H215.412ZM212.444 56.866C212.845 56.866 213.186 56.7773 213.466 56.6C213.746 56.4227 213.886 56.1613 213.886 55.816V54.85H212.738C211.805 54.85 211.338 55.1487 211.338 55.746V55.984C211.338 56.2827 211.431 56.5067 211.618 56.656C211.814 56.796 212.089 56.866 212.444 56.866ZM222.552 56.782H222.482C222.352 57.202 222.104 57.538 221.74 57.79C221.376 58.042 220.952 58.168 220.466 58.168C219.542 58.168 218.833 57.8367 218.338 57.174C217.853 56.5113 217.61 55.564 217.61 54.332C217.61 53.1093 217.853 52.1713 218.338 51.518C218.833 50.8553 219.542 50.524 220.466 50.524C220.952 50.524 221.376 50.65 221.74 50.902C222.104 51.1447 222.352 51.476 222.482 51.896H222.552V47.64H224.344V58H222.552V56.782ZM221.04 56.684C221.47 56.684 221.829 56.5813 222.118 56.376C222.408 56.1707 222.552 55.8767 222.552 55.494V53.17C222.552 52.8153 222.408 52.5307 222.118 52.316C221.829 52.1013 221.47 51.994 221.04 51.994C220.574 51.994 220.196 52.1527 219.906 52.47C219.626 52.778 219.486 53.1933 219.486 53.716V54.976C219.486 55.4987 219.626 55.914 219.906 56.222C220.196 56.53 220.574 56.684 221.04 56.684ZM231.107 56.782H231.037C230.906 57.202 230.659 57.538 230.295 57.79C229.931 58.042 229.506 58.168 229.021 58.168C228.097 58.168 227.388 57.8367 226.893 57.174C226.408 56.5113 226.165 55.564 226.165 54.332C226.165 53.1093 226.408 52.1713 226.893 51.518C227.388 50.8553 228.097 50.524 229.021 50.524C229.506 50.524 229.931 50.65 230.295 50.902C230.659 51.1447 230.906 51.476 231.037 51.896H231.107V47.64H232.899V58H231.107V56.782ZM229.595 56.684C230.024 56.684 230.384 56.5813 230.673 56.376C230.962 56.1707 231.107 55.8767 231.107 55.494V53.17C231.107 52.8153 230.962 52.5307 230.673 52.316C230.384 52.1013 230.024 51.994 229.595 51.994C229.128 51.994 228.75 52.1527 228.461 52.47C228.181 52.778 228.041 53.1933 228.041 53.716V54.976C228.041 55.4987 228.181 55.914 228.461 56.222C228.75 56.53 229.128 56.684 229.595 56.684ZM235.125 58V50.692H236.917V52.204H236.987C237.034 52.008 237.104 51.8213 237.197 51.644C237.3 51.4573 237.431 51.294 237.589 51.154C237.748 51.014 237.935 50.902 238.149 50.818C238.373 50.734 238.63 50.692 238.919 50.692H239.311V52.386H238.751C238.145 52.386 237.687 52.4747 237.379 52.652C237.071 52.8293 236.917 53.1187 236.917 53.52V58H235.125ZM243.667 58.168C243.126 58.168 242.64 58.0793 242.211 57.902C241.791 57.7153 241.432 57.4587 241.133 57.132C240.844 56.796 240.62 56.3947 240.461 55.928C240.302 55.452 240.223 54.92 240.223 54.332C240.223 53.7533 240.298 53.2307 240.447 52.764C240.606 52.2973 240.83 51.9007 241.119 51.574C241.408 51.238 241.763 50.9813 242.183 50.804C242.603 50.6173 243.079 50.524 243.611 50.524C244.18 50.524 244.675 50.622 245.095 50.818C245.515 51.014 245.86 51.28 246.131 51.616C246.402 51.952 246.602 52.344 246.733 52.792C246.873 53.2307 246.943 53.702 246.943 54.206V54.794H242.085V54.976C242.085 55.508 242.234 55.9373 242.533 56.264C242.832 56.5813 243.275 56.74 243.863 56.74C244.311 56.74 244.675 56.6467 244.955 56.46C245.244 56.2733 245.501 56.0353 245.725 55.746L246.691 56.824C246.392 57.244 245.982 57.5753 245.459 57.818C244.946 58.0513 244.348 58.168 243.667 58.168ZM243.639 51.868C243.163 51.868 242.785 52.0267 242.505 52.344C242.225 52.6613 242.085 53.072 242.085 53.576V53.688H245.081V53.562C245.081 53.058 244.955 52.652 244.703 52.344C244.46 52.0267 244.106 51.868 243.639 51.868ZM251.074 58.168C250.374 58.168 249.786 58.0513 249.31 57.818C248.834 57.5753 248.414 57.244 248.05 56.824L249.142 55.76C249.412 56.068 249.706 56.3107 250.024 56.488C250.35 56.6653 250.724 56.754 251.144 56.754C251.573 56.754 251.881 56.6793 252.068 56.53C252.264 56.3807 252.362 56.1753 252.362 55.914C252.362 55.6993 252.292 55.5313 252.152 55.41C252.021 55.2793 251.792 55.1907 251.466 55.144L250.738 55.046C249.944 54.9433 249.338 54.7193 248.918 54.374C248.507 54.0193 248.302 53.506 248.302 52.834C248.302 52.4793 248.367 52.162 248.498 51.882C248.628 51.5927 248.815 51.35 249.058 51.154C249.3 50.9487 249.59 50.7947 249.926 50.692C250.271 50.58 250.654 50.524 251.074 50.524C251.428 50.524 251.741 50.552 252.012 50.608C252.292 50.6547 252.544 50.7293 252.768 50.832C252.992 50.9253 253.197 51.0467 253.384 51.196C253.57 51.336 253.752 51.4947 253.93 51.672L252.88 52.722C252.665 52.498 252.408 52.3113 252.11 52.162C251.811 52.0127 251.484 51.938 251.13 51.938C250.738 51.938 250.453 52.008 250.276 52.148C250.108 52.288 250.024 52.47 250.024 52.694C250.024 52.9367 250.094 53.1233 250.234 53.254C250.383 53.3753 250.63 53.464 250.976 53.52L251.718 53.618C253.295 53.842 254.084 54.5607 254.084 55.774C254.084 56.1287 254.009 56.4553 253.86 56.754C253.72 57.0433 253.519 57.2953 253.258 57.51C252.996 57.7153 252.679 57.8787 252.306 58C251.942 58.112 251.531 58.168 251.074 58.168ZM258.124 58.168C257.424 58.168 256.836 58.0513 256.36 57.818C255.884 57.5753 255.464 57.244 255.1 56.824L256.192 55.76C256.463 56.068 256.757 56.3107 257.074 56.488C257.401 56.6653 257.774 56.754 258.194 56.754C258.624 56.754 258.932 56.6793 259.118 56.53C259.314 56.3807 259.412 56.1753 259.412 55.914C259.412 55.6993 259.342 55.5313 259.202 55.41C259.072 55.2793 258.843 55.1907 258.516 55.144L257.788 55.046C256.995 54.9433 256.388 54.7193 255.968 54.374C255.558 54.0193 255.352 53.506 255.352 52.834C255.352 52.4793 255.418 52.162 255.548 51.882C255.679 51.5927 255.866 51.35 256.108 51.154C256.351 50.9487 256.64 50.7947 256.976 50.692C257.322 50.58 257.704 50.524 258.124 50.524C258.479 50.524 258.792 50.552 259.062 50.608C259.342 50.6547 259.594 50.7293 259.818 50.832C260.042 50.9253 260.248 51.0467 260.434 51.196C260.621 51.336 260.803 51.4947 260.98 51.672L259.93 52.722C259.716 52.498 259.459 52.3113 259.16 52.162C258.862 52.0127 258.535 51.938 258.18 51.938C257.788 51.938 257.504 52.008 257.326 52.148C257.158 52.288 257.074 52.47 257.074 52.694C257.074 52.9367 257.144 53.1233 257.284 53.254C257.434 53.3753 257.681 53.464 258.026 53.52L258.768 53.618C260.346 53.842 261.134 54.5607 261.134 55.774C261.134 56.1287 261.06 56.4553 260.91 56.754C260.77 57.0433 260.57 57.2953 260.308 57.51C260.047 57.7153 259.73 57.8787 259.356 58C258.992 58.112 258.582 58.168 258.124 58.168Z" fill="#121619"/>
<path d="M406.984 22.168C406.34 22.168 405.757 22.0607 405.234 21.846C404.711 21.6313 404.263 21.3093 403.89 20.88C403.526 20.4507 403.241 19.9233 403.036 19.298C402.831 18.6727 402.728 17.9447 402.728 17.114C402.728 16.2927 402.831 15.5693 403.036 14.944C403.241 14.3093 403.526 13.7773 403.89 13.348C404.263 12.9187 404.711 12.5967 405.234 12.382C405.757 12.1673 406.34 12.06 406.984 12.06C407.628 12.06 408.211 12.1673 408.734 12.382C409.257 12.5967 409.705 12.9187 410.078 13.348C410.451 13.7773 410.736 14.3093 410.932 14.944C411.137 15.5693 411.24 16.2927 411.24 17.114C411.24 17.9447 411.137 18.6727 410.932 19.298C410.736 19.9233 410.451 20.4507 410.078 20.88C409.705 21.3093 409.257 21.6313 408.734 21.846C408.211 22.0607 407.628 22.168 406.984 22.168ZM406.984 20.53C407.684 20.53 408.239 20.2967 408.65 19.83C409.07 19.3633 409.28 18.71 409.28 17.87V16.358C409.28 15.518 409.07 14.8647 408.65 14.398C408.239 13.9313 407.684 13.698 406.984 13.698C406.284 13.698 405.724 13.9313 405.304 14.398C404.893 14.8647 404.688 15.518 404.688 16.358V17.87C404.688 18.71 404.893 19.3633 405.304 19.83C405.724 20.2967 406.284 20.53 406.984 20.53ZM417.531 20.782H417.461C417.395 20.9687 417.307 21.146 417.195 21.314C417.092 21.4727 416.957 21.6173 416.789 21.748C416.63 21.8787 416.434 21.9813 416.201 22.056C415.977 22.1307 415.715 22.168 415.417 22.168C414.661 22.168 414.082 21.9207 413.681 21.426C413.279 20.9313 413.079 20.2267 413.079 19.312V14.692H414.871V19.13C414.871 19.634 414.969 20.0213 415.165 20.292C415.361 20.5533 415.673 20.684 416.103 20.684C416.28 20.684 416.453 20.6607 416.621 20.614C416.798 20.5673 416.952 20.4973 417.083 20.404C417.213 20.3013 417.321 20.18 417.405 20.04C417.489 19.8907 417.531 19.718 417.531 19.522V14.692H419.323V22H417.531V20.782ZM423.835 22C423.219 22 422.748 21.8413 422.421 21.524C422.104 21.1973 421.945 20.7353 421.945 20.138V16.12H420.867V14.692H421.427C421.698 14.692 421.88 14.6313 421.973 14.51C422.076 14.3793 422.127 14.188 422.127 13.936V12.69H423.737V14.692H425.235V16.12H423.737V20.572H425.123V22H423.835ZM426.95 14.692H428.742V15.896H428.798C428.928 15.476 429.176 15.1447 429.54 14.902C429.904 14.65 430.328 14.524 430.814 14.524C431.747 14.524 432.456 14.8553 432.942 15.518C433.436 16.1713 433.684 17.1093 433.684 18.332C433.684 19.564 433.436 20.5113 432.942 21.174C432.456 21.8367 431.747 22.168 430.814 22.168C430.328 22.168 429.904 22.042 429.54 21.79C429.185 21.538 428.938 21.202 428.798 20.782H428.742V24.8H426.95V14.692ZM430.24 20.684C430.706 20.684 431.084 20.53 431.374 20.222C431.663 19.914 431.808 19.4987 431.808 18.976V17.716C431.808 17.1933 431.663 16.778 431.374 16.47C431.084 16.1527 430.706 15.994 430.24 15.994C429.81 15.994 429.451 16.1013 429.162 16.316C428.882 16.5307 428.742 16.8153 428.742 17.17V19.494C428.742 19.8767 428.882 20.1707 429.162 20.376C429.451 20.5813 429.81 20.684 430.24 20.684ZM439.872 20.782H439.802C439.737 20.9687 439.648 21.146 439.536 21.314C439.433 21.4727 439.298 21.6173 439.13 21.748C438.971 21.8787 438.775 21.9813 438.542 22.056C438.318 22.1307 438.057 22.168 437.758 22.168C437.002 22.168 436.423 21.9207 436.022 21.426C435.621 20.9313 435.42 20.2267 435.42 19.312V14.692H437.212V19.13C437.212 19.634 437.31 20.0213 437.506 20.292C437.702 20.5533 438.015 20.684 438.444 20.684C438.621 20.684 438.794 20.6607 438.962 20.614C439.139 20.5673 439.293 20.4973 439.424 20.404C439.555 20.3013 439.662 20.18 439.746 20.04C439.83 19.8907 439.872 19.718 439.872 19.522V14.692H441.664V22H439.872V20.782ZM446.177 22C445.561 22 445.089 21.8413 444.763 21.524C444.445 21.1973 444.287 20.7353 444.287 20.138V16.12H443.209V14.692H443.769C444.039 14.692 444.221 14.6313 444.315 14.51C444.417 14.3793 444.469 14.188 444.469 13.936V12.69H446.079V14.692H447.577V16.12H446.079V20.572H447.465V22H446.177ZM457.296 20.782H457.226C457.095 21.202 456.848 21.538 456.484 21.79C456.12 22.042 455.695 22.168 455.21 22.168C454.286 22.168 453.576 21.8367 453.082 21.174C452.596 20.5113 452.354 19.564 452.354 18.332C452.354 17.1093 452.596 16.1713 453.082 15.518C453.576 14.8553 454.286 14.524 455.21 14.524C455.695 14.524 456.12 14.65 456.484 14.902C456.848 15.1447 457.095 15.476 457.226 15.896H457.296V11.64H459.088V22H457.296V20.782ZM455.784 20.684C456.213 20.684 456.572 20.5813 456.862 20.376C457.151 20.1707 457.296 19.8767 457.296 19.494V17.17C457.296 16.8153 457.151 16.5307 456.862 16.316C456.572 16.1013 456.213 15.994 455.784 15.994C455.317 15.994 454.939 16.1527 454.65 16.47C454.37 16.778 454.23 17.1933 454.23 17.716V18.976C454.23 19.4987 454.37 19.914 454.65 20.222C454.939 20.53 455.317 20.684 455.784 20.684ZM466.69 22C466.298 22 465.985 21.888 465.752 21.664C465.528 21.4307 465.388 21.1227 465.332 20.74H465.248C465.127 21.216 464.879 21.5753 464.506 21.818C464.133 22.0513 463.671 22.168 463.12 22.168C462.373 22.168 461.799 21.972 461.398 21.58C460.997 21.188 460.796 20.6653 460.796 20.012C460.796 19.256 461.067 18.696 461.608 18.332C462.149 17.9587 462.919 17.772 463.918 17.772H465.164V17.24C465.164 16.8293 465.057 16.512 464.842 16.288C464.627 16.064 464.282 15.952 463.806 15.952C463.386 15.952 463.045 16.0453 462.784 16.232C462.532 16.4093 462.317 16.624 462.14 16.876L461.076 15.924C461.347 15.504 461.706 15.168 462.154 14.916C462.602 14.6547 463.195 14.524 463.932 14.524C464.921 14.524 465.673 14.748 466.186 15.196C466.699 15.644 466.956 16.288 466.956 17.128V20.572H467.684V22H466.69ZM463.722 20.866C464.123 20.866 464.464 20.7773 464.744 20.6C465.024 20.4227 465.164 20.1613 465.164 19.816V18.85H464.016C463.083 18.85 462.616 19.1487 462.616 19.746V19.984C462.616 20.2827 462.709 20.5067 462.896 20.656C463.092 20.796 463.367 20.866 463.722 20.866ZM471.522 22C470.906 22 470.434 21.8413 470.108 21.524C469.79 21.1973 469.632 20.7353 469.632 20.138V16.12H468.554V14.692H469.114C469.384 14.692 469.566 14.6313 469.66 14.51C469.762 14.3793 469.814 14.188 469.814 13.936V12.69H471.424V14.692H472.922V16.12H471.424V20.572H472.81V22H471.522ZM480.012 22C479.62 22 479.307 21.888 479.074 21.664C478.85 21.4307 478.71 21.1227 478.654 20.74H478.57C478.449 21.216 478.201 21.5753 477.828 21.818C477.455 22.0513 476.993 22.168 476.442 22.168C475.695 22.168 475.121 21.972 474.72 21.58C474.319 21.188 474.118 20.6653 474.118 20.012C474.118 19.256 474.389 18.696 474.93 18.332C475.471 17.9587 476.241 17.772 477.24 17.772H478.486V17.24C478.486 16.8293 478.379 16.512 478.164 16.288C477.949 16.064 477.604 15.952 477.128 15.952C476.708 15.952 476.367 16.0453 476.106 16.232C475.854 16.4093 475.639 16.624 475.462 16.876L474.398 15.924C474.669 15.504 475.028 15.168 475.476 14.916C475.924 14.6547 476.517 14.524 477.254 14.524C478.243 14.524 478.995 14.748 479.508 15.196C480.021 15.644 480.278 16.288 480.278 17.128V20.572H481.006V22H480.012ZM477.044 20.866C477.445 20.866 477.786 20.7773 478.066 20.6C478.346 20.4227 478.486 20.1613 478.486 19.816V18.85H477.338C476.405 18.85 475.938 19.1487 475.938 19.746V19.984C475.938 20.2827 476.031 20.5067 476.218 20.656C476.414 20.796 476.689 20.866 477.044 20.866Z" fill="#121619"/>
<path d="M16.742 22V20.516H18.03V13.712H16.742V12.228H21.18V13.712H19.878V20.516H21.18V22H16.742ZM23.1159 22V14.692H24.9079V15.91H24.9779C25.1273 15.518 25.3606 15.1913 25.6779 14.93C26.0046 14.6593 26.4526 14.524 27.0219 14.524C27.7779 14.524 28.3566 14.7713 28.7579 15.266C29.1593 15.7607 29.3599 16.4653 29.3599 17.38V22H27.5679V17.562C27.5679 17.0393 27.4746 16.6473 27.2879 16.386C27.1013 16.1247 26.7933 15.994 26.3639 15.994C26.1773 15.994 25.9953 16.022 25.8179 16.078C25.6499 16.1247 25.4959 16.1993 25.3559 16.302C25.2253 16.3953 25.1179 16.5167 25.0339 16.666C24.9499 16.806 24.9079 16.974 24.9079 17.17V22H23.1159ZM31.5064 14.692H33.2984V15.896H33.3544C33.4851 15.476 33.7324 15.1447 34.0964 14.902C34.4604 14.65 34.8851 14.524 35.3704 14.524C36.3037 14.524 37.0131 14.8553 37.4984 15.518C37.9931 16.1713 38.2404 17.1093 38.2404 18.332C38.2404 19.564 37.9931 20.5113 37.4984 21.174C37.0131 21.8367 36.3037 22.168 35.3704 22.168C34.8851 22.168 34.4604 22.042 34.0964 21.79C33.7417 21.538 33.4944 21.202 33.3544 20.782H33.2984V24.8H31.5064V14.692ZM34.7964 20.684C35.2631 20.684 35.6411 20.53 35.9304 20.222C36.2197 19.914 36.3644 19.4987 36.3644 18.976V17.716C36.3644 17.1933 36.2197 16.778 35.9304 16.47C35.6411 16.1527 35.2631 15.994 34.7964 15.994C34.3671 15.994 34.0077 16.1013 33.7184 16.316C33.4384 16.5307 33.2984 16.8153 33.2984 17.17V19.494C33.2984 19.8767 33.4384 20.1707 33.7184 20.376C34.0077 20.5813 34.3671 20.684 34.7964 20.684ZM44.4289 20.782H44.3589C44.2936 20.9687 44.2049 21.146 44.0929 21.314C43.9903 21.4727 43.8549 21.6173 43.6869 21.748C43.5283 21.8787 43.3323 21.9813 43.0989 22.056C42.8749 22.1307 42.6136 22.168 42.3149 22.168C41.5589 22.168 40.9803 21.9207 40.5789 21.426C40.1776 20.9313 39.9769 20.2267 39.9769 19.312V14.692H41.7689V19.13C41.7689 19.634 41.8669 20.0213 42.0629 20.292C42.2589 20.5533 42.5716 20.684 43.0009 20.684C43.1783 20.684 43.3509 20.6607 43.5189 20.614C43.6963 20.5673 43.8503 20.4973 43.9809 20.404C44.1116 20.3013 44.2189 20.18 44.3029 20.04C44.3869 19.8907 44.4289 19.718 44.4289 19.522V14.692H46.2209V22H44.4289V20.782ZM50.7334 22C50.1174 22 49.6461 21.8413 49.3194 21.524C49.0021 21.1973 48.8434 20.7353 48.8434 20.138V16.12H47.7654V14.692H48.3254C48.5961 14.692 48.7781 14.6313 48.8714 14.51C48.9741 14.3793 49.0254 14.188 49.0254 13.936V12.69H50.6354V14.692H52.1334V16.12H50.6354V20.572H52.0214V22H50.7334ZM62.6923 22C62.3003 22 61.9876 21.888 61.7543 21.664C61.5303 21.4307 61.3903 21.1227 61.3343 20.74H61.2503C61.129 21.216 60.8816 21.5753 60.5083 21.818C60.135 22.0513 59.673 22.168 59.1223 22.168C58.3756 22.168 57.8016 21.972 57.4003 21.58C56.999 21.188 56.7983 20.6653 56.7983 20.012C56.7983 19.256 57.069 18.696 57.6103 18.332C58.1516 17.9587 58.9216 17.772 59.9203 17.772H61.1663V17.24C61.1663 16.8293 61.059 16.512 60.8443 16.288C60.6296 16.064 60.2843 15.952 59.8083 15.952C59.3883 15.952 59.0476 16.0453 58.7863 16.232C58.5343 16.4093 58.3196 16.624 58.1423 16.876L57.0783 15.924C57.349 15.504 57.7083 15.168 58.1563 14.916C58.6043 14.6547 59.197 14.524 59.9343 14.524C60.9236 14.524 61.675 14.748 62.1883 15.196C62.7016 15.644 62.9583 16.288 62.9583 17.128V20.572H63.6863V22H62.6923ZM59.7243 20.866C60.1256 20.866 60.4663 20.7773 60.7463 20.6C61.0263 20.4227 61.1663 20.1613 61.1663 19.816V18.85H60.0183C59.085 18.85 58.6183 19.1487 58.6183 19.746V19.984C58.6183 20.2827 58.7116 20.5067 58.8983 20.656C59.0943 20.796 59.3696 20.866 59.7243 20.866ZM69.8326 20.782H69.7626C69.632 21.202 69.3846 21.538 69.0206 21.79C68.6566 22.042 68.232 22.168 67.7466 22.168C66.8226 22.168 66.1133 21.8367 65.6186 21.174C65.1333 20.5113 64.8906 19.564 64.8906 18.332C64.8906 17.1093 65.1333 16.1713 65.6186 15.518C66.1133 14.8553 66.8226 14.524 67.7466 14.524C68.232 14.524 68.6566 14.65 69.0206 14.902C69.3846 15.1447 69.632 15.476 69.7626 15.896H69.8326V11.64H71.6246V22H69.8326V20.782ZM68.3206 20.684C68.75 20.684 69.1093 20.5813 69.3986 20.376C69.688 20.1707 69.8326 19.8767 69.8326 19.494V17.17C69.8326 16.8153 69.688 16.5307 69.3986 16.316C69.1093 16.1013 68.75 15.994 68.3206 15.994C67.854 15.994 67.476 16.1527 67.1866 16.47C66.9066 16.778 66.7666 17.1933 66.7666 17.716V18.976C66.7666 19.4987 66.9066 19.914 67.1866 20.222C67.476 20.53 67.854 20.684 68.3206 20.684ZM78.3872 20.782H78.3172C78.1865 21.202 77.9392 21.538 77.5752 21.79C77.2112 22.042 76.7865 22.168 76.3012 22.168C75.3772 22.168 74.6678 21.8367 74.1732 21.174C73.6878 20.5113 73.4452 19.564 73.4452 18.332C73.4452 17.1093 73.6878 16.1713 74.1732 15.518C74.6678 14.8553 75.3772 14.524 76.3012 14.524C76.7865 14.524 77.2112 14.65 77.5752 14.902C77.9392 15.1447 78.1865 15.476 78.3172 15.896H78.3872V11.64H80.1792V22H78.3872V20.782ZM76.8752 20.684C77.3045 20.684 77.6638 20.5813 77.9532 20.376C78.2425 20.1707 78.3872 19.8767 78.3872 19.494V17.17C78.3872 16.8153 78.2425 16.5307 77.9532 16.316C77.6638 16.1013 77.3045 15.994 76.8752 15.994C76.4085 15.994 76.0305 16.1527 75.7412 16.47C75.4612 16.778 75.3212 17.1933 75.3212 17.716V18.976C75.3212 19.4987 75.4612 19.914 75.7412 20.222C76.0305 20.53 76.4085 20.684 76.8752 20.684ZM82.4057 22V14.692H84.1977V16.204H84.2677C84.3144 16.008 84.3844 15.8213 84.4777 15.644C84.5804 15.4573 84.711 15.294 84.8697 15.154C85.0284 15.014 85.215 14.902 85.4297 14.818C85.6537 14.734 85.9104 14.692 86.1997 14.692H86.5917V16.386H86.0317C85.425 16.386 84.9677 16.4747 84.6597 16.652C84.3517 16.8293 84.1977 17.1187 84.1977 17.52V22H82.4057ZM90.9474 22.168C90.4061 22.168 89.9208 22.0793 89.4914 21.902C89.0714 21.7153 88.7121 21.4587 88.4134 21.132C88.1241 20.796 87.9001 20.3947 87.7414 19.928C87.5828 19.452 87.5034 18.92 87.5034 18.332C87.5034 17.7533 87.5781 17.2307 87.7274 16.764C87.8861 16.2973 88.1101 15.9007 88.3994 15.574C88.6888 15.238 89.0434 14.9813 89.4634 14.804C89.8834 14.6173 90.3594 14.524 90.8914 14.524C91.4608 14.524 91.9554 14.622 92.3754 14.818C92.7954 15.014 93.1408 15.28 93.4114 15.616C93.6821 15.952 93.8828 16.344 94.0134 16.792C94.1534 17.2307 94.2234 17.702 94.2234 18.206V18.794H89.3654V18.976C89.3654 19.508 89.5148 19.9373 89.8134 20.264C90.1121 20.5813 90.5554 20.74 91.1434 20.74C91.5914 20.74 91.9554 20.6467 92.2354 20.46C92.5248 20.2733 92.7814 20.0353 93.0054 19.746L93.9714 20.824C93.6728 21.244 93.2621 21.5753 92.7394 21.818C92.2261 22.0513 91.6288 22.168 90.9474 22.168ZM90.9194 15.868C90.4434 15.868 90.0654 16.0267 89.7854 16.344C89.5054 16.6613 89.3654 17.072 89.3654 17.576V17.688H92.3614V17.562C92.3614 17.058 92.2354 16.652 91.9834 16.344C91.7408 16.0267 91.3861 15.868 90.9194 15.868ZM98.3541 22.168C97.6541 22.168 97.0661 22.0513 96.5901 21.818C96.1141 21.5753 95.6941 21.244 95.3301 20.824L96.4221 19.76C96.6927 20.068 96.9867 20.3107 97.3041 20.488C97.6307 20.6653 98.0041 20.754 98.4241 20.754C98.8534 20.754 99.1614 20.6793 99.3481 20.53C99.5441 20.3807 99.6421 20.1753 99.6421 19.914C99.6421 19.6993 99.5721 19.5313 99.4321 19.41C99.3014 19.2793 99.0727 19.1907 98.7461 19.144L98.0181 19.046C97.2247 18.9433 96.6181 18.7193 96.1981 18.374C95.7874 18.0193 95.5821 17.506 95.5821 16.834C95.5821 16.4793 95.6474 16.162 95.7781 15.882C95.9087 15.5927 96.0954 15.35 96.3381 15.154C96.5807 14.9487 96.8701 14.7947 97.2061 14.692C97.5514 14.58 97.9341 14.524 98.3541 14.524C98.7087 14.524 99.0214 14.552 99.2921 14.608C99.5721 14.6547 99.8241 14.7293 100.048 14.832C100.272 14.9253 100.477 15.0467 100.664 15.196C100.851 15.336 101.033 15.4947 101.21 15.672L100.16 16.722C99.9454 16.498 99.6887 16.3113 99.3901 16.162C99.0914 16.0127 98.7647 15.938 98.4101 15.938C98.0181 15.938 97.7334 16.008 97.5561 16.148C97.3881 16.288 97.3041 16.47 97.3041 16.694C97.3041 16.9367 97.3741 17.1233 97.5141 17.254C97.6634 17.3753 97.9107 17.464 98.2561 17.52L98.9981 17.618C100.575 17.842 101.364 18.5607 101.364 19.774C101.364 20.1287 101.289 20.4553 101.14 20.754C101 21.0433 100.799 21.2953 100.538 21.51C100.277 21.7153 99.9594 21.8787 99.5861 22C99.2221 22.112 98.8114 22.168 98.3541 22.168ZM105.405 22.168C104.705 22.168 104.117 22.0513 103.641 21.818C103.165 21.5753 102.745 21.244 102.381 20.824L103.473 19.76C103.743 20.068 104.037 20.3107 104.355 20.488C104.681 20.6653 105.055 20.754 105.475 20.754C105.904 20.754 106.212 20.6793 106.399 20.53C106.595 20.3807 106.693 20.1753 106.693 19.914C106.693 19.6993 106.623 19.5313 106.483 19.41C106.352 19.2793 106.123 19.1907 105.797 19.144L105.069 19.046C104.275 18.9433 103.669 18.7193 103.249 18.374C102.838 18.0193 102.633 17.506 102.633 16.834C102.633 16.4793 102.698 16.162 102.829 15.882C102.959 15.5927 103.146 15.35 103.389 15.154C103.631 14.9487 103.921 14.7947 104.257 14.692C104.602 14.58 104.985 14.524 105.405 14.524C105.759 14.524 106.072 14.552 106.343 14.608C106.623 14.6547 106.875 14.7293 107.099 14.832C107.323 14.9253 107.528 15.0467 107.715 15.196C107.901 15.336 108.083 15.4947 108.261 15.672L107.211 16.722C106.996 16.498 106.739 16.3113 106.441 16.162C106.142 16.0127 105.815 15.938 105.461 15.938C105.069 15.938 104.784 16.008 104.607 16.148C104.439 16.288 104.355 16.47 104.355 16.694C104.355 16.9367 104.425 17.1233 104.565 17.254C104.714 17.3753 104.961 17.464 105.307 17.52L106.049 17.618C107.626 17.842 108.415 18.5607 108.415 19.774C108.415 20.1287 108.34 20.4553 108.191 20.754C108.051 21.0433 107.85 21.2953 107.589 21.51C107.327 21.7153 107.01 21.8787 106.637 22C106.273 22.112 105.862 22.168 105.405 22.168Z" fill="#121619"/>
<line x1="192.5" x2="192.5" y2="276" stroke="#DDE1E6"/>
<line x1="384.5" x2="384.5" y2="276" stroke="#DDE1E6"/>
<path d="M20.192 156.344C20.832 156.344 21.3013 156.216 21.6 155.96C21.9093 155.693 22.064 155.357 22.064 154.952V154.84C22.064 154.381 21.9147 154.024 21.616 153.768C21.328 153.501 20.928 153.368 20.416 153.368C19.9253 153.368 19.488 153.485 19.104 153.72C18.7307 153.955 18.4053 154.285 18.128 154.712L16.784 153.496C16.976 153.24 17.184 153 17.408 152.776C17.6427 152.541 17.9093 152.344 18.208 152.184C18.5067 152.013 18.8427 151.88 19.216 151.784C19.5893 151.688 20.0107 151.64 20.48 151.64C21.0453 151.64 21.5573 151.709 22.016 151.848C22.4853 151.976 22.8853 152.168 23.216 152.424C23.5573 152.68 23.8187 152.989 24 153.352C24.1813 153.704 24.272 154.104 24.272 154.552C24.272 154.915 24.2133 155.24 24.096 155.528C23.9893 155.816 23.8347 156.067 23.632 156.28C23.44 156.493 23.2107 156.669 22.944 156.808C22.688 156.936 22.416 157.032 22.128 157.096V157.192C22.448 157.256 22.752 157.357 23.04 157.496C23.328 157.635 23.5733 157.821 23.776 158.056C23.9893 158.28 24.1547 158.547 24.272 158.856C24.4 159.165 24.464 159.517 24.464 159.912C24.464 160.403 24.3627 160.851 24.16 161.256C23.968 161.661 23.6907 162.008 23.328 162.296C22.9653 162.584 22.5333 162.808 22.032 162.968C21.5307 163.117 20.9707 163.192 20.352 163.192C19.808 163.192 19.328 163.133 18.912 163.016C18.496 162.909 18.128 162.76 17.808 162.568C17.4987 162.376 17.2267 162.157 16.992 161.912C16.7573 161.656 16.5547 161.389 16.384 161.112L17.936 159.928C18.064 160.152 18.2027 160.36 18.352 160.552C18.5013 160.733 18.672 160.893 18.864 161.032C19.056 161.171 19.2747 161.277 19.52 161.352C19.7653 161.427 20.0427 161.464 20.352 161.464C20.9707 161.464 21.4453 161.315 21.776 161.016C22.1067 160.717 22.272 160.307 22.272 159.784V159.672C22.272 159.16 22.0907 158.771 21.728 158.504C21.376 158.237 20.864 158.104 20.192 158.104H19.088V156.344H20.192ZM31.1618 163V160.84H26.1058V159.048L30.5538 151.832H33.1618V159.208H34.6178V160.84H33.1618V163H31.1618ZM27.8338 159.208H31.1618V153.88H31.0338L27.8338 159.208ZM40.7555 163V160.84H35.6995V159.048L40.1475 151.832H42.7555V159.208H44.2115V160.84H42.7555V163H40.7555ZM37.4275 159.208H40.7555V153.88H40.6275L37.4275 159.208ZM46.2373 163V161.288H49.3093V153.352H49.1653L46.7333 156.232L45.4213 155.128L48.1893 151.832H51.3733V161.288H53.9333V163H46.2373Z" fill="black"/>
<path d="M405.424 153H403.312V141.832H408.352C408.864 141.832 409.323 141.912 409.728 142.072C410.133 142.232 410.475 142.467 410.752 142.776C411.04 143.075 411.259 143.437 411.408 143.864C411.568 144.291 411.648 144.765 411.648 145.288C411.648 146.056 411.472 146.717 411.12 147.272C410.779 147.827 410.261 148.221 409.568 148.456L411.856 153H409.504L407.424 148.696H405.424V153ZM408.144 146.92C408.549 146.92 408.869 146.813 409.104 146.6C409.339 146.376 409.456 146.061 409.456 145.656V144.92C409.456 144.515 409.339 144.205 409.104 143.992C408.869 143.779 408.549 143.672 408.144 143.672H405.424V146.92H408.144ZM414.833 143.432C414.406 143.432 414.097 143.336 413.905 143.144C413.724 142.952 413.633 142.707 413.633 142.408V142.088C413.633 141.789 413.724 141.544 413.905 141.352C414.097 141.16 414.406 141.064 414.833 141.064C415.249 141.064 415.553 141.16 415.745 141.352C415.937 141.544 416.033 141.789 416.033 142.088V142.408C416.033 142.707 415.937 142.952 415.745 143.144C415.553 143.336 415.249 143.432 414.833 143.432ZM413.809 144.648H415.857V153H413.809V144.648ZM421.527 153.192C420.908 153.192 420.359 153.091 419.879 152.888C419.399 152.685 418.994 152.392 418.663 152.008C418.343 151.624 418.098 151.165 417.927 150.632C417.756 150.088 417.671 149.48 417.671 148.808C417.671 148.136 417.756 147.533 417.927 147C418.098 146.467 418.343 146.013 418.663 145.64C418.994 145.256 419.399 144.963 419.879 144.76C420.359 144.557 420.908 144.456 421.527 144.456C422.37 144.456 423.063 144.643 423.607 145.016C424.162 145.389 424.562 145.907 424.807 146.568L423.127 147.32C423.031 146.968 422.85 146.68 422.583 146.456C422.327 146.221 421.975 146.104 421.527 146.104C420.951 146.104 420.519 146.285 420.231 146.648C419.954 147.011 419.815 147.485 419.815 148.072V149.592C419.815 150.179 419.954 150.653 420.231 151.016C420.519 151.368 420.951 151.544 421.527 151.544C422.018 151.544 422.396 151.421 422.663 151.176C422.93 150.92 423.138 150.605 423.287 150.232L424.855 150.984C424.578 151.72 424.156 152.275 423.591 152.648C423.026 153.011 422.338 153.192 421.527 153.192ZM426.434 141.16H428.482V146.04H428.562C428.733 145.592 428.999 145.219 429.362 144.92C429.735 144.611 430.247 144.456 430.898 144.456C431.762 144.456 432.423 144.739 432.882 145.304C433.341 145.869 433.57 146.675 433.57 147.72V153H431.522V147.928C431.522 147.331 431.415 146.883 431.202 146.584C430.989 146.285 430.637 146.136 430.146 146.136C429.933 146.136 429.725 146.168 429.522 146.232C429.33 146.285 429.154 146.371 428.994 146.488C428.845 146.595 428.722 146.733 428.626 146.904C428.53 147.064 428.482 147.256 428.482 147.48V153H426.434V141.16ZM441.984 153C441.536 153 441.179 152.872 440.912 152.616C440.656 152.349 440.496 151.997 440.432 151.56H440.336C440.198 152.104 439.915 152.515 439.488 152.792C439.062 153.059 438.534 153.192 437.904 153.192C437.051 153.192 436.395 152.968 435.936 152.52C435.478 152.072 435.248 151.475 435.248 150.728C435.248 149.864 435.558 149.224 436.176 148.808C436.795 148.381 437.675 148.168 438.816 148.168H440.24V147.56C440.24 147.091 440.118 146.728 439.872 146.472C439.627 146.216 439.232 146.088 438.688 146.088C438.208 146.088 437.819 146.195 437.52 146.408C437.232 146.611 436.987 146.856 436.784 147.144L435.568 146.056C435.878 145.576 436.288 145.192 436.8 144.904C437.312 144.605 437.99 144.456 438.832 144.456C439.963 144.456 440.822 144.712 441.408 145.224C441.995 145.736 442.288 146.472 442.288 147.432V151.368H443.12V153H441.984ZM438.592 151.704C439.051 151.704 439.44 151.603 439.76 151.4C440.08 151.197 440.24 150.899 440.24 150.504V149.4H438.928C437.862 149.4 437.328 149.741 437.328 150.424V150.696C437.328 151.037 437.435 151.293 437.648 151.464C437.872 151.624 438.187 151.704 438.592 151.704ZM444.778 153V144.648H446.826V146.376H446.906C446.959 146.152 447.039 145.939 447.146 145.736C447.263 145.523 447.412 145.336 447.594 145.176C447.775 145.016 447.988 144.888 448.234 144.792C448.49 144.696 448.783 144.648 449.114 144.648H449.562V146.584H448.922C448.228 146.584 447.706 146.685 447.354 146.888C447.002 147.091 446.826 147.421 446.826 147.88V153H444.778ZM456.165 151.608H456.085C455.936 152.088 455.653 152.472 455.237 152.76C454.821 153.048 454.336 153.192 453.781 153.192C452.725 153.192 451.914 152.813 451.349 152.056C450.794 151.299 450.517 150.216 450.517 148.808C450.517 147.411 450.794 146.339 451.349 145.592C451.914 144.835 452.725 144.456 453.781 144.456C454.336 144.456 454.821 144.6 455.237 144.888C455.653 145.165 455.936 145.544 456.085 146.024H456.165V141.16H458.213V153H456.165V151.608ZM454.437 151.496C454.928 151.496 455.338 151.379 455.669 151.144C456 150.909 456.165 150.573 456.165 150.136V147.48C456.165 147.075 456 146.749 455.669 146.504C455.338 146.259 454.928 146.136 454.437 146.136C453.904 146.136 453.472 146.317 453.141 146.68C452.821 147.032 452.661 147.507 452.661 148.104V149.544C452.661 150.141 452.821 150.616 453.141 150.968C453.472 151.32 453.904 151.496 454.437 151.496ZM464.484 153V141.832H471.668V143.704H466.596V146.408H471.012V148.28H466.596V153H464.484ZM476.482 153.192C475.863 153.192 475.309 153.091 474.818 152.888C474.338 152.675 473.927 152.381 473.586 152.008C473.255 151.624 472.999 151.165 472.818 150.632C472.637 150.088 472.546 149.48 472.546 148.808C472.546 148.147 472.631 147.549 472.802 147.016C472.983 146.483 473.239 146.029 473.57 145.656C473.901 145.272 474.306 144.979 474.786 144.776C475.266 144.563 475.81 144.456 476.418 144.456C477.069 144.456 477.634 144.568 478.114 144.792C478.594 145.016 478.989 145.32 479.298 145.704C479.607 146.088 479.837 146.536 479.986 147.048C480.146 147.549 480.226 148.088 480.226 148.664V149.336H474.674V149.544C474.674 150.152 474.845 150.643 475.186 151.016C475.527 151.379 476.034 151.56 476.706 151.56C477.218 151.56 477.634 151.453 477.954 151.24C478.285 151.027 478.578 150.755 478.834 150.424L479.938 151.656C479.597 152.136 479.127 152.515 478.53 152.792C477.943 153.059 477.261 153.192 476.482 153.192ZM476.45 145.992C475.906 145.992 475.474 146.173 475.154 146.536C474.834 146.899 474.674 147.368 474.674 147.944V148.072H478.098V147.928C478.098 147.352 477.954 146.888 477.666 146.536C477.389 146.173 476.983 145.992 476.45 145.992ZM487.054 144.648H488.974L485.614 154.488C485.507 154.787 485.385 155.043 485.246 155.256C485.118 155.48 484.963 155.661 484.782 155.8C484.601 155.939 484.382 156.04 484.126 156.104C483.87 156.168 483.571 156.2 483.23 156.2H481.998V154.568H483.502L483.886 153.4L480.894 144.648H482.926L484.382 149.064L484.926 151.176H485.022L485.598 149.064L487.054 144.648ZM490.325 153V144.648H492.373V146.04H492.453C492.623 145.592 492.89 145.219 493.253 144.92C493.626 144.611 494.138 144.456 494.789 144.456C495.653 144.456 496.314 144.739 496.773 145.304C497.231 145.869 497.461 146.675 497.461 147.72V153H495.413V147.928C495.413 147.331 495.306 146.883 495.093 146.584C494.879 146.285 494.527 146.136 494.037 146.136C493.823 146.136 493.615 146.168 493.413 146.232C493.221 146.285 493.045 146.371 492.885 146.488C492.735 146.595 492.613 146.733 492.517 146.904C492.421 147.064 492.373 147.256 492.373 147.48V153H490.325ZM499.731 153V144.648H501.779V146.04H501.859C502.019 145.603 502.275 145.229 502.627 144.92C502.979 144.611 503.47 144.456 504.099 144.456C504.675 144.456 505.171 144.595 505.587 144.872C506.003 145.149 506.312 145.571 506.515 146.136H506.547C506.696 145.667 506.99 145.272 507.427 144.952C507.875 144.621 508.435 144.456 509.107 144.456C509.928 144.456 510.558 144.739 510.995 145.304C511.443 145.869 511.667 146.675 511.667 147.72V153H509.619V147.928C509.619 146.733 509.171 146.136 508.275 146.136C508.072 146.136 507.875 146.168 507.683 146.232C507.502 146.285 507.336 146.371 507.187 146.488C507.048 146.595 506.936 146.733 506.851 146.904C506.766 147.064 506.723 147.256 506.723 147.48V153H504.675V147.928C504.675 146.733 504.227 146.136 503.331 146.136C503.139 146.136 502.947 146.168 502.755 146.232C502.574 146.285 502.408 146.371 502.259 146.488C502.12 146.595 502.003 146.733 501.907 146.904C501.822 147.064 501.779 147.256 501.779 147.48V153H499.731ZM520.078 153C519.63 153 519.273 152.872 519.006 152.616C518.75 152.349 518.59 151.997 518.526 151.56H518.43C518.291 152.104 518.009 152.515 517.582 152.792C517.155 153.059 516.627 153.192 515.998 153.192C515.145 153.192 514.489 152.968 514.03 152.52C513.571 152.072 513.342 151.475 513.342 150.728C513.342 149.864 513.651 149.224 514.27 148.808C514.889 148.381 515.769 148.168 516.91 148.168H518.334V147.56C518.334 147.091 518.211 146.728 517.966 146.472C517.721 146.216 517.326 146.088 516.782 146.088C516.302 146.088 515.913 146.195 515.614 146.408C515.326 146.611 515.081 146.856 514.878 147.144L513.662 146.056C513.971 145.576 514.382 145.192 514.894 144.904C515.406 144.605 516.083 144.456 516.926 144.456C518.057 144.456 518.915 144.712 519.502 145.224C520.089 145.736 520.382 146.472 520.382 147.432V151.368H521.214V153H520.078ZM516.686 151.704C517.145 151.704 517.534 151.603 517.854 151.4C518.174 151.197 518.334 150.899 518.334 150.504V149.4H517.022C515.955 149.4 515.422 149.741 515.422 150.424V150.696C515.422 151.037 515.529 151.293 515.742 151.464C515.966 151.624 516.281 151.704 516.686 151.704ZM522.872 153V144.648H524.92V146.04H525C525.17 145.592 525.437 145.219 525.799 144.92C526.173 144.611 526.685 144.456 527.336 144.456C528.2 144.456 528.861 144.739 529.32 145.304C529.778 145.869 530.008 146.675 530.008 147.72V153H527.96V147.928C527.96 147.331 527.853 146.883 527.64 146.584C527.426 146.285 527.074 146.136 526.584 146.136C526.37 146.136 526.162 146.168 525.96 146.232C525.768 146.285 525.592 146.371 525.432 146.488C525.282 146.595 525.16 146.733 525.064 146.904C524.968 147.064 524.92 147.256 524.92 147.48V153H522.872ZM406.8 175.192C406.085 175.192 405.467 175.064 404.944 174.808C404.421 174.541 403.989 174.163 403.648 173.672C403.307 173.181 403.051 172.579 402.88 171.864C402.72 171.149 402.64 170.333 402.64 169.416C402.64 168.509 402.72 167.699 402.88 166.984C403.051 166.259 403.307 165.651 403.648 165.16C403.989 164.669 404.421 164.296 404.944 164.04C405.467 163.773 406.085 163.64 406.8 163.64C408.219 163.64 409.264 164.147 409.936 165.16C410.619 166.173 410.96 167.592 410.96 169.416C410.96 171.24 410.619 172.659 409.936 173.672C409.264 174.685 408.219 175.192 406.8 175.192ZM406.8 173.416C407.515 173.416 408.011 173.149 408.288 172.616C408.576 172.072 408.72 171.341 408.72 170.424V168.408C408.72 167.491 408.576 166.765 408.288 166.232C408.011 165.688 407.515 165.416 406.8 165.416C406.085 165.416 405.584 165.688 405.296 166.232C405.019 166.765 404.88 167.491 404.88 168.408V170.424C404.88 171.341 405.019 172.072 405.296 172.616C405.584 173.149 406.085 173.416 406.8 173.416ZM414.298 175L418.186 165.544H414.33V167.592H412.538V163.832H420.282V165.64L416.506 175H414.298ZM422.644 175V173.288H425.716V165.352H425.572L423.14 168.232L421.828 167.128L424.596 163.832H427.78V173.288H430.34V175H422.644ZM435.629 175.192C434.989 175.192 434.419 175.091 433.917 174.888C433.416 174.675 432.989 174.381 432.637 174.008C432.285 173.624 432.019 173.165 431.837 172.632C431.656 172.088 431.565 171.48 431.565 170.808C431.565 170.008 431.683 169.256 431.917 168.552C432.163 167.837 432.477 167.187 432.861 166.6C433.245 166.003 433.672 165.475 434.141 165.016C434.621 164.547 435.096 164.152 435.565 163.832H438.413C437.752 164.301 437.16 164.755 436.637 165.192C436.125 165.629 435.672 166.072 435.277 166.52C434.893 166.968 434.573 167.437 434.317 167.928C434.072 168.408 433.885 168.931 433.757 169.496L433.885 169.528C433.992 169.315 434.115 169.112 434.253 168.92C434.403 168.717 434.579 168.541 434.781 168.392C434.984 168.232 435.219 168.109 435.485 168.024C435.752 167.928 436.061 167.88 436.413 167.88C436.872 167.88 437.299 167.96 437.693 168.12C438.099 168.28 438.445 168.515 438.733 168.824C439.032 169.123 439.261 169.485 439.421 169.912C439.592 170.339 439.677 170.813 439.677 171.336C439.677 171.901 439.581 172.419 439.389 172.888C439.197 173.357 438.925 173.763 438.573 174.104C438.221 174.445 437.795 174.712 437.293 174.904C436.803 175.096 436.248 175.192 435.629 175.192ZM435.629 173.528C436.216 173.528 436.675 173.368 437.005 173.048C437.347 172.717 437.517 172.248 437.517 171.64V171.4C437.517 170.792 437.347 170.328 437.005 170.008C436.675 169.677 436.216 169.512 435.629 169.512C435.032 169.512 434.568 169.677 434.237 170.008C433.907 170.328 433.741 170.792 433.741 171.4V171.64C433.741 172.248 433.907 172.717 434.237 173.048C434.568 173.368 435.032 173.528 435.629 173.528ZM444.567 168.344C445.207 168.344 445.676 168.216 445.975 167.96C446.284 167.693 446.439 167.357 446.439 166.952V166.84C446.439 166.381 446.29 166.024 445.991 165.768C445.703 165.501 445.303 165.368 444.791 165.368C444.3 165.368 443.863 165.485 443.479 165.72C443.106 165.955 442.78 166.285 442.503 166.712L441.159 165.496C441.351 165.24 441.559 165 441.783 164.776C442.018 164.541 442.284 164.344 442.583 164.184C442.882 164.013 443.218 163.88 443.591 163.784C443.964 163.688 444.386 163.64 444.855 163.64C445.42 163.64 445.932 163.709 446.391 163.848C446.86 163.976 447.26 164.168 447.591 164.424C447.932 164.68 448.194 164.989 448.375 165.352C448.556 165.704 448.647 166.104 448.647 166.552C448.647 166.915 448.588 167.24 448.471 167.528C448.364 167.816 448.21 168.067 448.007 168.28C447.815 168.493 447.586 168.669 447.319 168.808C447.063 168.936 446.791 169.032 446.503 169.096V169.192C446.823 169.256 447.127 169.357 447.415 169.496C447.703 169.635 447.948 169.821 448.151 170.056C448.364 170.28 448.53 170.547 448.647 170.856C448.775 171.165 448.839 171.517 448.839 171.912C448.839 172.403 448.738 172.851 448.535 173.256C448.343 173.661 448.066 174.008 447.703 174.296C447.34 174.584 446.908 174.808 446.407 174.968C445.906 175.117 445.346 175.192 444.727 175.192C444.183 175.192 443.703 175.133 443.287 175.016C442.871 174.909 442.503 174.76 442.183 174.568C441.874 174.376 441.602 174.157 441.367 173.912C441.132 173.656 440.93 173.389 440.759 173.112L442.311 171.928C442.439 172.152 442.578 172.36 442.727 172.552C442.876 172.733 443.047 172.893 443.239 173.032C443.431 173.171 443.65 173.277 443.895 173.352C444.14 173.427 444.418 173.464 444.727 173.464C445.346 173.464 445.82 173.315 446.151 173.016C446.482 172.717 446.647 172.307 446.647 171.784V171.672C446.647 171.16 446.466 170.771 446.103 170.504C445.751 170.237 445.239 170.104 444.567 170.104H443.463V168.344H444.567ZM458.705 175H450.961V173.048L454.465 169.976C455.062 169.453 455.499 168.984 455.777 168.568C456.054 168.141 456.193 167.683 456.193 167.192V166.984C456.193 166.493 456.033 166.12 455.713 165.864C455.393 165.597 455.003 165.464 454.545 165.464C453.969 165.464 453.531 165.629 453.233 165.96C452.934 166.28 452.721 166.669 452.593 167.128L450.769 166.424C450.886 166.051 451.051 165.699 451.265 165.368C451.478 165.027 451.745 164.728 452.065 164.472C452.395 164.216 452.779 164.013 453.217 163.864C453.654 163.715 454.155 163.64 454.721 163.64C455.307 163.64 455.83 163.725 456.289 163.896C456.747 164.056 457.131 164.285 457.441 164.584C457.761 164.883 458.001 165.235 458.161 165.64C458.331 166.045 458.417 166.488 458.417 166.968C458.417 167.437 458.342 167.864 458.193 168.248C458.043 168.632 457.841 169 457.585 169.352C457.329 169.693 457.03 170.024 456.689 170.344C456.347 170.653 455.985 170.968 455.601 171.288L453.249 173.224H458.705V175ZM468.378 168.024C468.378 168.824 468.256 169.581 468.01 170.296C467.776 171 467.467 171.651 467.083 172.248C466.699 172.835 466.267 173.363 465.787 173.832C465.317 174.291 464.848 174.68 464.379 175H461.531C462.181 174.531 462.768 174.077 463.291 173.64C463.813 173.203 464.267 172.76 464.651 172.312C465.045 171.864 465.365 171.4 465.611 170.92C465.867 170.429 466.059 169.901 466.187 169.336L466.059 169.304C465.952 169.517 465.824 169.725 465.675 169.928C465.536 170.131 465.365 170.307 465.163 170.456C464.96 170.605 464.725 170.728 464.459 170.824C464.192 170.909 463.883 170.952 463.531 170.952C463.061 170.952 462.629 170.872 462.235 170.712C461.84 170.552 461.493 170.323 461.195 170.024C460.907 169.715 460.677 169.352 460.507 168.936C460.347 168.509 460.267 168.029 460.267 167.496C460.267 166.931 460.363 166.413 460.555 165.944C460.747 165.475 461.019 165.069 461.371 164.728C461.723 164.387 462.144 164.12 462.635 163.928C463.136 163.736 463.696 163.64 464.315 163.64C464.955 163.64 465.525 163.747 466.027 163.96C466.528 164.163 466.955 164.456 467.307 164.84C467.659 165.213 467.925 165.672 468.107 166.216C468.288 166.749 468.378 167.352 468.378 168.024ZM464.315 169.32C464.912 169.32 465.376 169.16 465.707 168.84C466.037 168.509 466.203 168.04 466.203 167.432V167.192C466.203 166.584 466.037 166.12 465.707 165.8C465.376 165.469 464.912 165.304 464.315 165.304C463.728 165.304 463.264 165.469 462.923 165.8C462.592 166.12 462.427 166.584 462.427 167.192V167.432C462.427 168.04 462.592 168.509 462.923 168.84C463.264 169.16 463.728 169.32 464.315 169.32ZM474.004 175.192C473.364 175.192 472.794 175.091 472.292 174.888C471.791 174.675 471.364 174.381 471.012 174.008C470.66 173.624 470.394 173.165 470.212 172.632C470.031 172.088 469.94 171.48 469.94 170.808C469.94 170.008 470.058 169.256 470.292 168.552C470.538 167.837 470.852 167.187 471.236 166.6C471.62 166.003 472.047 165.475 472.516 165.016C472.996 164.547 473.471 164.152 473.94 163.832H476.788C476.127 164.301 475.535 164.755 475.012 165.192C474.5 165.629 474.047 166.072 473.652 166.52C473.268 166.968 472.948 167.437 472.692 167.928C472.447 168.408 472.26 168.931 472.132 169.496L472.26 169.528C472.367 169.315 472.49 169.112 472.628 168.92C472.778 168.717 472.954 168.541 473.156 168.392C473.359 168.232 473.594 168.109 473.86 168.024C474.127 167.928 474.436 167.88 474.788 167.88C475.247 167.88 475.674 167.96 476.068 168.12C476.474 168.28 476.82 168.515 477.108 168.824C477.407 169.123 477.636 169.485 477.796 169.912C477.967 170.339 478.052 170.813 478.052 171.336C478.052 171.901 477.956 172.419 477.764 172.888C477.572 173.357 477.3 173.763 476.948 174.104C476.596 174.445 476.17 174.712 475.668 174.904C475.178 175.096 474.623 175.192 474.004 175.192ZM474.004 173.528C474.591 173.528 475.05 173.368 475.38 173.048C475.722 172.717 475.892 172.248 475.892 171.64V171.4C475.892 170.792 475.722 170.328 475.38 170.008C475.05 169.677 474.591 169.512 474.004 169.512C473.407 169.512 472.943 169.677 472.612 170.008C472.282 170.328 472.116 170.792 472.116 171.4V171.64C472.116 172.248 472.282 172.717 472.612 173.048C472.943 173.368 473.407 173.528 474.004 173.528ZM483.55 175.192C482.835 175.192 482.217 175.064 481.694 174.808C481.171 174.541 480.739 174.163 480.398 173.672C480.057 173.181 479.801 172.579 479.63 171.864C479.47 171.149 479.39 170.333 479.39 169.416C479.39 168.509 479.47 167.699 479.63 166.984C479.801 166.259 480.057 165.651 480.398 165.16C480.739 164.669 481.171 164.296 481.694 164.04C482.217 163.773 482.835 163.64 483.55 163.64C484.969 163.64 486.014 164.147 486.686 165.16C487.369 166.173 487.71 167.592 487.71 169.416C487.71 171.24 487.369 172.659 486.686 173.672C486.014 174.685 484.969 175.192 483.55 175.192ZM483.55 173.416C484.265 173.416 484.761 173.149 485.038 172.616C485.326 172.072 485.47 171.341 485.47 170.424V168.408C485.47 167.491 485.326 166.765 485.038 166.232C484.761 165.688 484.265 165.416 483.55 165.416C482.835 165.416 482.334 165.688 482.046 166.232C481.769 166.765 481.63 167.491 481.63 168.408V170.424C481.63 171.341 481.769 172.072 482.046 172.616C482.334 173.149 482.835 173.416 483.55 173.416ZM493.912 175V172.84H488.856V171.048L493.304 163.832H495.912V171.208H497.368V172.84H495.912V175H493.912ZM490.584 171.208H493.912V165.88H493.784L490.584 171.208ZM502.738 175.192C502.023 175.192 501.404 175.064 500.882 174.808C500.359 174.541 499.927 174.163 499.586 173.672C499.244 173.181 498.988 172.579 498.818 171.864C498.658 171.149 498.578 170.333 498.578 169.416C498.578 168.509 498.658 167.699 498.818 166.984C498.988 166.259 499.244 165.651 499.586 165.16C499.927 164.669 500.359 164.296 500.882 164.04C501.404 163.773 502.023 163.64 502.738 163.64C504.156 163.64 505.202 164.147 505.874 165.16C506.556 166.173 506.898 167.592 506.898 169.416C506.898 171.24 506.556 172.659 505.874 173.672C505.202 174.685 504.156 175.192 502.738 175.192ZM502.738 173.416C503.452 173.416 503.948 173.149 504.226 172.616C504.514 172.072 504.658 171.341 504.658 170.424V168.408C504.658 167.491 504.514 166.765 504.226 166.232C503.948 165.688 503.452 165.416 502.738 165.416C502.023 165.416 501.522 165.688 501.234 166.232C500.956 166.765 500.818 167.491 500.818 168.408V170.424C500.818 171.341 500.956 172.072 501.234 172.616C501.522 173.149 502.023 173.416 502.738 173.416ZM512.331 175.192C511.617 175.192 510.998 175.064 510.475 174.808C509.953 174.541 509.521 174.163 509.179 173.672C508.838 173.181 508.582 172.579 508.411 171.864C508.251 171.149 508.171 170.333 508.171 169.416C508.171 168.509 508.251 167.699 508.411 166.984C508.582 166.259 508.838 165.651 509.179 165.16C509.521 164.669 509.953 164.296 510.475 164.04C510.998 163.773 511.617 163.64 512.331 163.64C513.75 163.64 514.795 164.147 515.467 165.16C516.15 166.173 516.491 167.592 516.491 169.416C516.491 171.24 516.15 172.659 515.467 173.672C514.795 174.685 513.75 175.192 512.331 175.192ZM512.331 173.416C513.046 173.416 513.542 173.149 513.819 172.616C514.107 172.072 514.251 171.341 514.251 170.424V168.408C514.251 167.491 514.107 166.765 513.819 166.232C513.542 165.688 513.046 165.416 512.331 165.416C511.617 165.416 511.115 165.688 510.827 166.232C510.55 166.765 510.411 167.491 510.411 168.408V170.424C510.411 171.341 510.55 172.072 510.827 172.616C511.115 173.149 511.617 173.416 512.331 173.416Z" fill="black"/>
<path d="M200 160L204 158.5L200 157V160Z" fill="#343A3F"/>
<line x1="200" y1="158.5" x2="65" y2="158.5" stroke="#343A3F"/>
<path d="M392 161L396 159.5L392 158V161Z" fill="#343A3F"/>
<line x1="392" y1="159.5" x2="345" y2="159.5" stroke="#343A3F"/>
<path d="M299 120.812H253C249.837 120.812 247.25 123.456 247.25 126.688V191.312C247.25 194.544 249.837 197.188 253 197.188H299C302.163 197.188 304.75 194.544 304.75 191.312V126.688C304.75 123.456 302.163 120.812 299 120.812ZM299 126.688V144.312H253V126.688H299ZM253 167.812V150.188H299V167.812H253ZM253 191.312V173.688H299V191.312H253Z" fill="black"/>
<path d="M261.625 138.438C263.213 138.438 264.5 137.122 264.5 135.5C264.5 133.878 263.213 132.562 261.625 132.562C260.037 132.562 258.75 133.878 258.75 135.5C258.75 137.122 260.037 138.438 261.625 138.438Z" fill="black"/>
<path d="M261.625 161.938C263.213 161.938 264.5 160.622 264.5 159C264.5 157.378 263.213 156.062 261.625 156.062C260.037 156.062 258.75 157.378 258.75 159C258.75 160.622 260.037 161.938 261.625 161.938Z" fill="black"/>
<path d="M261.625 185.438C263.213 185.438 264.5 184.122 264.5 182.5C264.5 180.878 263.213 179.562 261.625 179.562C260.037 179.562 258.75 180.878 258.75 182.5C258.75 184.122 260.037 185.438 261.625 185.438Z" fill="black"/>
</svg>
