<svg width="410" height="411" viewBox="0 0 410 411" fill="none" xmlns="http://www.w3.org/2000/svg">
<rect opacity="0.4" x="26.0002" y="336" width="384" height="48" fill="#F2F4F8"/>
<rect opacity="0.4" x="26.0002" y="240" width="384" height="48" fill="#F2F4F8"/>
<rect opacity="0.4" x="26.0002" y="144" width="384" height="48" fill="#F2F4F8"/>
<rect opacity="0.4" x="26.0002" y="48" width="384" height="48" fill="#F2F4F8"/>
<path d="M64.9482 401.988L63.9402 399.958H63.8982V407H62.1482V397.228H64.1782L67.1182 402.24L68.1262 404.27H68.1682V397.228H69.9182V407H67.8882L64.9482 401.988ZM76.6267 405.782H76.5567C76.4914 405.969 76.4027 406.146 76.2907 406.314C76.1881 406.473 76.0527 406.617 75.8847 406.748C75.7261 406.879 75.5301 406.981 75.2967 407.056C75.0727 407.131 74.8114 407.168 74.5127 407.168C73.7567 407.168 73.1781 406.921 72.7767 406.426C72.3754 405.931 72.1747 405.227 72.1747 404.312V399.692H73.9667V404.13C73.9667 404.634 74.0647 405.021 74.2607 405.292C74.4567 405.553 74.7694 405.684 75.1987 405.684C75.3761 405.684 75.5487 405.661 75.7167 405.614C75.8941 405.567 76.0481 405.497 76.1787 405.404C76.3094 405.301 76.4167 405.18 76.5007 405.04C76.5847 404.891 76.6267 404.718 76.6267 404.522V399.692H78.4187V407H76.6267V405.782ZM80.6492 407V399.692H82.4412V400.91H82.5112C82.6512 400.527 82.8752 400.201 83.1832 399.93C83.4912 399.659 83.9205 399.524 84.4712 399.524C84.9752 399.524 85.4092 399.645 85.7732 399.888C86.1372 400.131 86.4079 400.499 86.5852 400.994H86.6132C86.7439 400.583 87.0005 400.238 87.3832 399.958C87.7752 399.669 88.2652 399.524 88.8532 399.524C89.5719 399.524 90.1225 399.771 90.5052 400.266C90.8972 400.761 91.0932 401.465 91.0932 402.38V407H89.3012V402.562C89.3012 401.517 88.9092 400.994 88.1252 400.994C87.9479 400.994 87.7752 401.022 87.6072 401.078C87.4485 401.125 87.3039 401.199 87.1732 401.302C87.0519 401.395 86.9539 401.517 86.8792 401.666C86.8045 401.806 86.7672 401.974 86.7672 402.17V407H84.9752V402.562C84.9752 401.517 84.5832 400.994 83.7992 400.994C83.6312 400.994 83.4632 401.022 83.2952 401.078C83.1365 401.125 82.9919 401.199 82.8612 401.302C82.7399 401.395 82.6372 401.517 82.5532 401.666C82.4785 401.806 82.4412 401.974 82.4412 402.17V407H80.6492ZM93.2369 396.64H95.0289V400.896H95.0849C95.2156 400.476 95.4629 400.145 95.8269 399.902C96.1909 399.65 96.6156 399.524 97.1009 399.524C98.0343 399.524 98.7436 399.855 99.2289 400.518C99.7236 401.171 99.9709 402.109 99.9709 403.332C99.9709 404.564 99.7236 405.511 99.2289 406.174C98.7436 406.837 98.0343 407.168 97.1009 407.168C96.6156 407.168 96.1909 407.042 95.8269 406.79C95.4723 406.538 95.2249 406.202 95.0849 405.782H95.0289V407H93.2369V396.64ZM96.5269 405.684C96.9936 405.684 97.3716 405.53 97.6609 405.222C97.9503 404.914 98.0949 404.499 98.0949 403.976V402.716C98.0949 402.193 97.9503 401.778 97.6609 401.47C97.3716 401.153 96.9936 400.994 96.5269 400.994C96.0976 400.994 95.7383 401.101 95.4489 401.316C95.1689 401.531 95.0289 401.815 95.0289 402.17V404.494C95.0289 404.877 95.1689 405.171 95.4489 405.376C95.7383 405.581 96.0976 405.684 96.5269 405.684ZM104.745 407.168C104.204 407.168 103.719 407.079 103.289 406.902C102.869 406.715 102.51 406.459 102.211 406.132C101.922 405.796 101.698 405.395 101.539 404.928C101.381 404.452 101.301 403.92 101.301 403.332C101.301 402.753 101.376 402.231 101.525 401.764C101.684 401.297 101.908 400.901 102.197 400.574C102.487 400.238 102.841 399.981 103.261 399.804C103.681 399.617 104.157 399.524 104.689 399.524C105.259 399.524 105.753 399.622 106.173 399.818C106.593 400.014 106.939 400.28 107.209 400.616C107.48 400.952 107.681 401.344 107.811 401.792C107.951 402.231 108.021 402.702 108.021 403.206V403.794H103.163V403.976C103.163 404.508 103.313 404.937 103.611 405.264C103.91 405.581 104.353 405.74 104.941 405.74C105.389 405.74 105.753 405.647 106.033 405.46C106.323 405.273 106.579 405.035 106.803 404.746L107.769 405.824C107.471 406.244 107.06 406.575 106.537 406.818C106.024 407.051 105.427 407.168 104.745 407.168ZM104.717 400.868C104.241 400.868 103.863 401.027 103.583 401.344C103.303 401.661 103.163 402.072 103.163 402.576V402.688H106.159V402.562C106.159 402.058 106.033 401.652 105.781 401.344C105.539 401.027 105.184 400.868 104.717 400.868ZM109.758 407V399.692H111.55V401.204H111.62C111.667 401.008 111.737 400.821 111.83 400.644C111.933 400.457 112.063 400.294 112.222 400.154C112.381 400.014 112.567 399.902 112.782 399.818C113.006 399.734 113.263 399.692 113.552 399.692H113.944V401.386H113.384C112.777 401.386 112.32 401.475 112.012 401.652C111.704 401.829 111.55 402.119 111.55 402.52V407H109.758ZM121.781 407.168C121.258 407.168 120.787 407.079 120.367 406.902C119.956 406.725 119.601 406.468 119.303 406.132C119.013 405.796 118.789 405.395 118.631 404.928C118.472 404.452 118.393 403.92 118.393 403.332C118.393 402.744 118.472 402.217 118.631 401.75C118.789 401.283 119.013 400.887 119.303 400.56C119.601 400.224 119.956 399.967 120.367 399.79C120.787 399.613 121.258 399.524 121.781 399.524C122.303 399.524 122.775 399.613 123.195 399.79C123.615 399.967 123.969 400.224 124.259 400.56C124.557 400.887 124.786 401.283 124.945 401.75C125.103 402.217 125.183 402.744 125.183 403.332C125.183 403.92 125.103 404.452 124.945 404.928C124.786 405.395 124.557 405.796 124.259 406.132C123.969 406.468 123.615 406.725 123.195 406.902C122.775 407.079 122.303 407.168 121.781 407.168ZM121.781 405.726C122.257 405.726 122.63 405.581 122.901 405.292C123.171 405.003 123.307 404.578 123.307 404.018V402.66C123.307 402.109 123.171 401.689 122.901 401.4C122.63 401.111 122.257 400.966 121.781 400.966C121.314 400.966 120.945 401.111 120.675 401.4C120.404 401.689 120.269 402.109 120.269 402.66V404.018C120.269 404.578 120.404 405.003 120.675 405.292C120.945 405.581 121.314 405.726 121.781 405.726ZM127.213 401.106H126.135V399.692H127.213V398.642C127.213 397.998 127.381 397.503 127.717 397.158C128.063 396.813 128.567 396.64 129.229 396.64H130.503V398.068H129.005V399.692H130.503V401.106H129.005V407H127.213V401.106ZM135.373 399.692H137.165V400.896H137.221C137.351 400.476 137.599 400.145 137.963 399.902C138.327 399.65 138.751 399.524 139.237 399.524C140.17 399.524 140.879 399.855 141.365 400.518C141.859 401.171 142.107 402.109 142.107 403.332C142.107 404.564 141.859 405.511 141.365 406.174C140.879 406.837 140.17 407.168 139.237 407.168C138.751 407.168 138.327 407.042 137.963 406.79C137.608 406.538 137.361 406.202 137.221 405.782H137.165V409.8H135.373V399.692ZM138.663 405.684C139.129 405.684 139.507 405.53 139.797 405.222C140.086 404.914 140.231 404.499 140.231 403.976V402.716C140.231 402.193 140.086 401.778 139.797 401.47C139.507 401.153 139.129 400.994 138.663 400.994C138.233 400.994 137.874 401.101 137.585 401.316C137.305 401.531 137.165 401.815 137.165 402.17V404.494C137.165 404.877 137.305 405.171 137.585 405.376C137.874 405.581 138.233 405.684 138.663 405.684ZM146.825 407.168C146.302 407.168 145.831 407.079 145.411 406.902C145 406.725 144.646 406.468 144.347 406.132C144.058 405.796 143.834 405.395 143.675 404.928C143.516 404.452 143.437 403.92 143.437 403.332C143.437 402.744 143.516 402.217 143.675 401.75C143.834 401.283 144.058 400.887 144.347 400.56C144.646 400.224 145 399.967 145.411 399.79C145.831 399.613 146.302 399.524 146.825 399.524C147.348 399.524 147.819 399.613 148.239 399.79C148.659 399.967 149.014 400.224 149.303 400.56C149.602 400.887 149.83 401.283 149.989 401.75C150.148 402.217 150.227 402.744 150.227 403.332C150.227 403.92 150.148 404.452 149.989 404.928C149.83 405.395 149.602 405.796 149.303 406.132C149.014 406.468 148.659 406.725 148.239 406.902C147.819 407.079 147.348 407.168 146.825 407.168ZM146.825 405.726C147.301 405.726 147.674 405.581 147.945 405.292C148.216 405.003 148.351 404.578 148.351 404.018V402.66C148.351 402.109 148.216 401.689 147.945 401.4C147.674 401.111 147.301 400.966 146.825 400.966C146.358 400.966 145.99 401.111 145.719 401.4C145.448 401.689 145.313 402.109 145.313 402.66V404.018C145.313 404.578 145.448 405.003 145.719 405.292C145.99 405.581 146.358 405.726 146.825 405.726ZM154.37 407.168C153.67 407.168 153.082 407.051 152.606 406.818C152.13 406.575 151.71 406.244 151.346 405.824L152.438 404.76C152.708 405.068 153.002 405.311 153.32 405.488C153.646 405.665 154.02 405.754 154.44 405.754C154.869 405.754 155.177 405.679 155.364 405.53C155.56 405.381 155.658 405.175 155.658 404.914C155.658 404.699 155.588 404.531 155.448 404.41C155.317 404.279 155.088 404.191 154.762 404.144L154.034 404.046C153.24 403.943 152.634 403.719 152.214 403.374C151.803 403.019 151.598 402.506 151.598 401.834C151.598 401.479 151.663 401.162 151.794 400.882C151.924 400.593 152.111 400.35 152.354 400.154C152.596 399.949 152.886 399.795 153.222 399.692C153.567 399.58 153.95 399.524 154.37 399.524C154.724 399.524 155.037 399.552 155.308 399.608C155.588 399.655 155.84 399.729 156.064 399.832C156.288 399.925 156.493 400.047 156.68 400.196C156.866 400.336 157.048 400.495 157.226 400.672L156.176 401.722C155.961 401.498 155.704 401.311 155.406 401.162C155.107 401.013 154.78 400.938 154.426 400.938C154.034 400.938 153.749 401.008 153.572 401.148C153.404 401.288 153.32 401.47 153.32 401.694C153.32 401.937 153.39 402.123 153.53 402.254C153.679 402.375 153.926 402.464 154.272 402.52L155.014 402.618C156.591 402.842 157.38 403.561 157.38 404.774C157.38 405.129 157.305 405.455 157.156 405.754C157.016 406.043 156.815 406.295 156.554 406.51C156.292 406.715 155.975 406.879 155.602 407C155.238 407.112 154.827 407.168 154.37 407.168ZM161.42 407.168C160.72 407.168 160.132 407.051 159.656 406.818C159.18 406.575 158.76 406.244 158.396 405.824L159.488 404.76C159.759 405.068 160.053 405.311 160.37 405.488C160.697 405.665 161.07 405.754 161.49 405.754C161.92 405.754 162.228 405.679 162.414 405.53C162.61 405.381 162.708 405.175 162.708 404.914C162.708 404.699 162.638 404.531 162.498 404.41C162.368 404.279 162.139 404.191 161.812 404.144L161.084 404.046C160.291 403.943 159.684 403.719 159.264 403.374C158.854 403.019 158.648 402.506 158.648 401.834C158.648 401.479 158.714 401.162 158.844 400.882C158.975 400.593 159.162 400.35 159.404 400.154C159.647 399.949 159.936 399.795 160.272 399.692C160.618 399.58 161 399.524 161.42 399.524C161.775 399.524 162.088 399.552 162.358 399.608C162.638 399.655 162.89 399.729 163.114 399.832C163.338 399.925 163.544 400.047 163.73 400.196C163.917 400.336 164.099 400.495 164.276 400.672L163.226 401.722C163.012 401.498 162.755 401.311 162.456 401.162C162.158 401.013 161.831 400.938 161.476 400.938C161.084 400.938 160.8 401.008 160.622 401.148C160.454 401.288 160.37 401.47 160.37 401.694C160.37 401.937 160.44 402.123 160.58 402.254C160.73 402.375 160.977 402.464 161.322 402.52L162.064 402.618C163.642 402.842 164.43 403.561 164.43 404.774C164.43 405.129 164.356 405.455 164.206 405.754C164.066 406.043 163.866 406.295 163.604 406.51C163.343 406.715 163.026 406.879 162.652 407C162.288 407.112 161.878 407.168 161.42 407.168ZM167.069 398.628C166.695 398.628 166.425 398.544 166.257 398.376C166.098 398.208 166.019 397.993 166.019 397.732V397.452C166.019 397.191 166.098 396.976 166.257 396.808C166.425 396.64 166.695 396.556 167.069 396.556C167.433 396.556 167.699 396.64 167.867 396.808C168.035 396.976 168.119 397.191 168.119 397.452V397.732C168.119 397.993 168.035 398.208 167.867 398.376C167.699 398.544 167.433 398.628 167.069 398.628ZM166.173 399.692H167.965V407H166.173V399.692ZM170.202 396.64H171.994V400.896H172.05C172.181 400.476 172.428 400.145 172.792 399.902C173.156 399.65 173.581 399.524 174.066 399.524C174.999 399.524 175.709 399.855 176.194 400.518C176.689 401.171 176.936 402.109 176.936 403.332C176.936 404.564 176.689 405.511 176.194 406.174C175.709 406.837 174.999 407.168 174.066 407.168C173.581 407.168 173.156 407.042 172.792 406.79C172.437 406.538 172.19 406.202 172.05 405.782H171.994V407H170.202V396.64ZM173.492 405.684C173.959 405.684 174.337 405.53 174.626 405.222C174.915 404.914 175.06 404.499 175.06 403.976V402.716C175.06 402.193 174.915 401.778 174.626 401.47C174.337 401.153 173.959 400.994 173.492 400.994C173.063 400.994 172.703 401.101 172.414 401.316C172.134 401.531 171.994 401.815 171.994 402.17V404.494C171.994 404.877 172.134 405.171 172.414 405.376C172.703 405.581 173.063 405.684 173.492 405.684ZM180.548 407C179.932 407 179.48 406.846 179.19 406.538C178.901 406.23 178.756 405.796 178.756 405.236V396.64H180.548V405.572H181.514V407H180.548ZM185.986 407.168C185.444 407.168 184.959 407.079 184.53 406.902C184.11 406.715 183.75 406.459 183.452 406.132C183.162 405.796 182.938 405.395 182.78 404.928C182.621 404.452 182.542 403.92 182.542 403.332C182.542 402.753 182.616 402.231 182.766 401.764C182.924 401.297 183.148 400.901 183.438 400.574C183.727 400.238 184.082 399.981 184.502 399.804C184.922 399.617 185.398 399.524 185.93 399.524C186.499 399.524 186.994 399.622 187.414 399.818C187.834 400.014 188.179 400.28 188.45 400.616C188.72 400.952 188.921 401.344 189.052 401.792C189.192 402.231 189.262 402.702 189.262 403.206V403.794H184.404V403.976C184.404 404.508 184.553 404.937 184.852 405.264C185.15 405.581 185.594 405.74 186.182 405.74C186.63 405.74 186.994 405.647 187.274 405.46C187.563 405.273 187.82 405.035 188.044 404.746L189.01 405.824C188.711 406.244 188.3 406.575 187.778 406.818C187.264 407.051 186.667 407.168 185.986 407.168ZM185.958 400.868C185.482 400.868 185.104 401.027 184.824 401.344C184.544 401.661 184.404 402.072 184.404 402.576V402.688H187.4V402.562C187.4 402.058 187.274 401.652 187.022 401.344C186.779 401.027 186.424 400.868 185.958 400.868ZM195.363 398.628C194.99 398.628 194.719 398.544 194.551 398.376C194.392 398.208 194.313 397.993 194.313 397.732V397.452C194.313 397.191 194.392 396.976 194.551 396.808C194.719 396.64 194.99 396.556 195.363 396.556C195.727 396.556 195.993 396.64 196.161 396.808C196.329 396.976 196.413 397.191 196.413 397.452V397.732C196.413 397.993 196.329 398.208 196.161 398.376C195.993 398.544 195.727 398.628 195.363 398.628ZM194.467 399.692H196.259V407H194.467V399.692ZM198.496 407V399.692H200.288V400.91H200.358C200.507 400.518 200.741 400.191 201.058 399.93C201.385 399.659 201.833 399.524 202.402 399.524C203.158 399.524 203.737 399.771 204.138 400.266C204.539 400.761 204.74 401.465 204.74 402.38V407H202.948V402.562C202.948 402.039 202.855 401.647 202.668 401.386C202.481 401.125 202.173 400.994 201.744 400.994C201.557 400.994 201.375 401.022 201.198 401.078C201.03 401.125 200.876 401.199 200.736 401.302C200.605 401.395 200.498 401.517 200.414 401.666C200.33 401.806 200.288 401.974 200.288 402.17V407H198.496ZM206.886 399.692H208.678V400.896H208.734C208.865 400.476 209.112 400.145 209.476 399.902C209.84 399.65 210.265 399.524 210.75 399.524C211.684 399.524 212.393 399.855 212.878 400.518C213.373 401.171 213.62 402.109 213.62 403.332C213.62 404.564 213.373 405.511 212.878 406.174C212.393 406.837 211.684 407.168 210.75 407.168C210.265 407.168 209.84 407.042 209.476 406.79C209.122 406.538 208.874 406.202 208.734 405.782H208.678V409.8H206.886V399.692ZM210.176 405.684C210.643 405.684 211.021 405.53 211.31 405.222C211.6 404.914 211.744 404.499 211.744 403.976V402.716C211.744 402.193 211.6 401.778 211.31 401.47C211.021 401.153 210.643 400.994 210.176 400.994C209.747 400.994 209.388 401.101 209.098 401.316C208.818 401.531 208.678 401.815 208.678 402.17V404.494C208.678 404.877 208.818 405.171 209.098 405.376C209.388 405.581 209.747 405.684 210.176 405.684ZM219.809 405.782H219.739C219.674 405.969 219.585 406.146 219.473 406.314C219.37 406.473 219.235 406.617 219.067 406.748C218.908 406.879 218.712 406.981 218.479 407.056C218.255 407.131 217.994 407.168 217.695 407.168C216.939 407.168 216.36 406.921 215.959 406.426C215.558 405.931 215.357 405.227 215.357 404.312V399.692H217.149V404.13C217.149 404.634 217.247 405.021 217.443 405.292C217.639 405.553 217.952 405.684 218.381 405.684C218.558 405.684 218.731 405.661 218.899 405.614C219.076 405.567 219.23 405.497 219.361 405.404C219.492 405.301 219.599 405.18 219.683 405.04C219.767 404.891 219.809 404.718 219.809 404.522V399.692H221.601V407H219.809V405.782ZM226.113 407C225.497 407 225.026 406.841 224.699 406.524C224.382 406.197 224.223 405.735 224.223 405.138V401.12H223.145V399.692H223.705C223.976 399.692 224.158 399.631 224.251 399.51C224.354 399.379 224.405 399.188 224.405 398.936V397.69H226.015V399.692H227.513V401.12H226.015V405.572H227.401V407H226.113ZM231.622 407.168C230.922 407.168 230.334 407.051 229.858 406.818C229.382 406.575 228.962 406.244 228.598 405.824L229.69 404.76C229.96 405.068 230.254 405.311 230.572 405.488C230.898 405.665 231.272 405.754 231.692 405.754C232.121 405.754 232.429 405.679 232.616 405.53C232.812 405.381 232.91 405.175 232.91 404.914C232.91 404.699 232.84 404.531 232.7 404.41C232.569 404.279 232.34 404.191 232.014 404.144L231.286 404.046C230.492 403.943 229.886 403.719 229.466 403.374C229.055 403.019 228.85 402.506 228.85 401.834C228.85 401.479 228.915 401.162 229.046 400.882C229.176 400.593 229.363 400.35 229.606 400.154C229.848 399.949 230.138 399.795 230.474 399.692C230.819 399.58 231.202 399.524 231.622 399.524C231.976 399.524 232.289 399.552 232.56 399.608C232.84 399.655 233.092 399.729 233.316 399.832C233.54 399.925 233.745 400.047 233.932 400.196C234.118 400.336 234.3 400.495 234.478 400.672L233.428 401.722C233.213 401.498 232.956 401.311 232.658 401.162C232.359 401.013 232.032 400.938 231.678 400.938C231.286 400.938 231.001 401.008 230.824 401.148C230.656 401.288 230.572 401.47 230.572 401.694C230.572 401.937 230.642 402.123 230.782 402.254C230.931 402.375 231.178 402.464 231.524 402.52L232.266 402.618C233.843 402.842 234.632 403.561 234.632 404.774C234.632 405.129 234.557 405.455 234.408 405.754C234.268 406.043 234.067 406.295 233.806 406.51C233.544 406.715 233.227 406.879 232.854 407C232.49 407.112 232.079 407.168 231.622 407.168Z" fill="black"/>
<path d="M14.0002 345.804L11.5082 346.588L11.5082 350.06L14.0002 350.83L14.0002 352.706L4.22824 349.43L4.22824 347.134L14.0002 343.886L14.0002 345.804ZM5.90824 348.296L5.90824 348.366L9.92624 349.612L9.92624 347.036L5.90824 348.296ZM14.0002 341.213L6.69224 343.649L6.69224 341.885L9.84224 340.863L12.4462 340.149L12.4462 340.051L9.84224 339.337L6.69224 338.343L6.69224 336.635L14.0002 339.085L14.0002 341.213ZM14.1682 332.434C14.1682 332.975 14.0796 333.461 13.9022 333.89C13.7156 334.31 13.4589 334.669 13.1322 334.968C12.7962 335.257 12.3949 335.481 11.9282 335.64C11.4522 335.799 10.9202 335.878 10.3322 335.878C9.75358 335.878 9.23091 335.803 8.76424 335.654C8.29758 335.495 7.90091 335.271 7.57424 334.982C7.23824 334.693 6.98158 334.338 6.80424 333.918C6.61758 333.498 6.52424 333.022 6.52424 332.49C6.52424 331.921 6.62224 331.426 6.81824 331.006C7.01424 330.586 7.28024 330.241 7.61624 329.97C7.95224 329.699 8.34424 329.499 8.79224 329.368C9.23091 329.228 9.70224 329.158 10.2062 329.158L10.7942 329.158L10.7942 334.016L10.9762 334.016C11.5082 334.016 11.9376 333.867 12.2642 333.568C12.5816 333.269 12.7402 332.826 12.7402 332.238C12.7402 331.79 12.6469 331.426 12.4602 331.146C12.2736 330.857 12.0356 330.6 11.7462 330.376L12.8242 329.41C13.2442 329.709 13.5756 330.119 13.8182 330.642C14.0516 331.155 14.1682 331.753 14.1682 332.434ZM7.86824 332.462C7.86824 332.938 8.02691 333.316 8.34424 333.596C8.66158 333.876 9.07224 334.016 9.57624 334.016L9.68824 334.016L9.68824 331.02L9.56224 331.02C9.05824 331.02 8.65224 331.146 8.34424 331.398C8.02691 331.641 7.86824 331.995 7.86824 332.462ZM14.0002 327.421L6.69224 327.422L6.69224 325.63L8.20424 325.63L8.20424 325.559C8.00824 325.513 7.82158 325.443 7.64424 325.349C7.45758 325.247 7.29424 325.116 7.15424 324.958C7.01424 324.799 6.90224 324.612 6.81824 324.397C6.73424 324.173 6.69224 323.917 6.69224 323.627L6.69224 323.235L8.38624 323.235L8.38624 323.796C8.38624 324.402 8.47491 324.859 8.65224 325.167C8.82958 325.475 9.11891 325.629 9.52024 325.629L14.0002 325.629L14.0002 327.421ZM14.0002 316.54C14.0002 316.932 13.8882 317.244 13.6642 317.478C13.4309 317.702 13.1229 317.842 12.7402 317.898L12.7402 317.982C13.2162 318.103 13.5756 318.35 13.8182 318.724C14.0516 319.097 14.1682 319.559 14.1682 320.11C14.1682 320.856 13.9722 321.43 13.5802 321.832C13.1882 322.233 12.6656 322.434 12.0122 322.434C11.2562 322.434 10.6962 322.163 10.3322 321.622C9.95891 321.08 9.77224 320.31 9.77224 319.312L9.77224 318.066L9.24024 318.066C8.82958 318.066 8.51224 318.173 8.28824 318.388C8.06424 318.602 7.95224 318.948 7.95224 319.424C7.95224 319.844 8.04558 320.184 8.23224 320.446C8.40958 320.698 8.62424 320.912 8.87624 321.09L7.92424 322.154C7.50424 321.883 7.16824 321.524 6.91624 321.076C6.65491 320.628 6.52424 320.035 6.52424 319.298C6.52424 318.308 6.74824 317.557 7.19624 317.044C7.64424 316.53 8.28824 316.274 9.12824 316.274L12.5722 316.274L12.5722 315.546L14.0002 315.546L14.0002 316.54ZM12.8662 319.508C12.8662 319.106 12.7776 318.766 12.6002 318.486C12.4229 318.206 12.1616 318.066 11.8162 318.066L10.8502 318.066L10.8502 319.214C10.8502 320.147 11.1489 320.614 11.7462 320.614L11.9842 320.614C12.2829 320.614 12.5069 320.52 12.6562 320.334C12.7962 320.138 12.8662 319.862 12.8662 319.508ZM14.6162 307.341C14.9989 307.341 15.3349 307.411 15.6242 307.551C15.9229 307.682 16.1702 307.901 16.3662 308.209C16.5622 308.517 16.7116 308.914 16.8142 309.399C16.9169 309.885 16.9682 310.477 16.9682 311.177C16.9682 311.793 16.9262 312.316 16.8422 312.745C16.7676 313.175 16.6556 313.529 16.5062 313.809C16.3662 314.08 16.1889 314.276 15.9742 314.397C15.7596 314.519 15.5169 314.579 15.2462 314.579C14.8356 314.579 14.5136 314.467 14.2802 314.243C14.0562 314.01 13.9116 313.688 13.8462 313.277L13.6922 313.277C13.6176 313.576 13.4729 313.809 13.2582 313.977C13.0342 314.136 12.7729 314.215 12.4742 314.215C12.2876 314.215 12.1242 314.178 11.9842 314.103C11.8349 314.029 11.7089 313.931 11.6062 313.809C11.5036 313.679 11.4196 313.534 11.3542 313.375C11.2796 313.217 11.2236 313.049 11.1862 312.871L11.1302 312.871C10.9249 313.319 10.6402 313.655 10.2762 313.879C9.91224 314.094 9.48758 314.201 9.00224 314.201C8.25558 314.201 7.65824 313.945 7.21024 313.431C6.75291 312.918 6.52424 312.167 6.52424 311.177C6.52424 310.953 6.53824 310.734 6.56624 310.519C6.59424 310.295 6.64091 310.09 6.70624 309.903L6.46824 309.903C5.75891 309.903 5.40424 309.558 5.40424 308.867L5.40424 307.733L6.77624 307.733L6.77624 309.287L6.97224 309.287C7.18691 308.905 7.46691 308.62 7.81224 308.433C8.15758 308.247 8.55424 308.153 9.00224 308.153C9.73958 308.153 10.3322 308.41 10.7802 308.923C11.2282 309.427 11.4522 310.179 11.4522 311.177C11.4522 311.607 11.4102 311.98 11.3262 312.297C11.3916 312.437 11.4802 312.559 11.5922 312.661C11.6949 312.764 11.8256 312.815 11.9842 312.815C12.3482 312.815 12.5302 312.498 12.5302 311.863L12.5302 309.903C12.5302 309.007 12.7169 308.359 13.0902 307.957C13.4542 307.547 13.9629 307.341 14.6162 307.341ZM14.8262 309.021C14.5929 309.021 14.4109 309.115 14.2802 309.301C14.1496 309.488 14.0842 309.81 14.0842 310.267L14.0842 312.759C14.2709 313.011 14.5229 313.137 14.8402 313.137C15.1202 313.137 15.3396 313.021 15.4982 312.787C15.6569 312.554 15.7362 312.157 15.7362 311.597L15.7362 310.701C15.7362 310.113 15.6616 309.689 15.5122 309.427C15.3629 309.157 15.1342 309.021 14.8262 309.021ZM10.2342 311.177C10.2342 310.3 9.86091 309.861 9.11424 309.861L8.87624 309.861C8.12958 309.861 7.75624 310.3 7.75624 311.177C7.75624 312.055 8.12958 312.493 8.87624 312.493L9.11424 312.493C9.86091 312.493 10.2342 312.055 10.2342 311.177ZM14.1682 303.275C14.1682 303.816 14.0796 304.301 13.9022 304.731C13.7156 305.151 13.4589 305.51 13.1322 305.809C12.7962 306.098 12.3949 306.322 11.9282 306.481C11.4522 306.639 10.9202 306.719 10.3322 306.719C9.75358 306.719 9.23091 306.644 8.76424 306.495C8.29758 306.336 7.90091 306.112 7.57424 305.823C7.23824 305.533 6.98158 305.179 6.80424 304.759C6.61757 304.339 6.52424 303.863 6.52424 303.331C6.52424 302.761 6.62224 302.267 6.81824 301.847C7.01424 301.427 7.28024 301.081 7.61624 300.811C7.95224 300.54 8.34424 300.339 8.79224 300.209C9.23091 300.069 9.70224 299.999 10.2062 299.999L10.7942 299.999L10.7942 304.857L10.9762 304.857C11.5082 304.857 11.9376 304.707 12.2642 304.409C12.5816 304.11 12.7402 303.667 12.7402 303.079C12.7402 302.631 12.6469 302.267 12.4602 301.987C12.2736 301.697 12.0356 301.441 11.7462 301.217L12.8242 300.251C13.2442 300.549 13.5756 300.96 13.8182 301.483C14.0516 301.996 14.1682 302.593 14.1682 303.275ZM7.86824 303.303C7.86824 303.779 8.02691 304.157 8.34424 304.437C8.66158 304.717 9.07224 304.857 9.57624 304.857L9.68824 304.857L9.68824 301.861L9.56224 301.861C9.05824 301.861 8.65224 301.987 8.34424 302.239C8.02691 302.481 7.86824 302.836 7.86824 303.303ZM14.1682 292.399C14.1682 293.099 14.0516 293.687 13.8182 294.163C13.5756 294.639 13.2442 295.059 12.8242 295.423L11.7602 294.331C12.0682 294.061 12.3109 293.767 12.4882 293.449C12.6656 293.123 12.7542 292.749 12.7542 292.329C12.7542 291.9 12.6796 291.592 12.5302 291.405C12.3809 291.209 12.1756 291.111 11.9142 291.111C11.6996 291.111 11.5316 291.181 11.4102 291.321C11.2796 291.452 11.1909 291.681 11.1442 292.007L11.0462 292.735C10.9436 293.529 10.7196 294.135 10.3742 294.555C10.0196 294.966 9.50624 295.171 8.83424 295.171C8.47957 295.171 8.16224 295.106 7.88224 294.975C7.59291 294.845 7.35024 294.658 7.15424 294.415C6.94891 294.173 6.79491 293.883 6.69224 293.547C6.58024 293.202 6.52424 292.819 6.52424 292.399C6.52424 292.045 6.55224 291.732 6.60824 291.461C6.65491 291.181 6.72957 290.929 6.83224 290.705C6.92557 290.481 7.04691 290.276 7.19624 290.089C7.33624 289.903 7.49491 289.721 7.67224 289.543L8.72224 290.593C8.49824 290.808 8.31157 291.065 8.16224 291.363C8.01291 291.662 7.93824 291.989 7.93824 292.343C7.93824 292.735 8.00824 293.02 8.14824 293.197C8.28824 293.365 8.47024 293.449 8.69424 293.449C8.93691 293.449 9.12357 293.379 9.25424 293.239C9.37557 293.09 9.46424 292.843 9.52024 292.497L9.61824 291.755C9.84224 290.178 10.5609 289.389 11.7742 289.389C12.1289 289.389 12.4556 289.464 12.7542 289.613C13.0436 289.753 13.2956 289.954 13.5102 290.215C13.7156 290.477 13.8789 290.794 14.0002 291.167C14.1122 291.531 14.1682 291.942 14.1682 292.399ZM14.0002 285.474C14.0002 286.09 13.8416 286.562 13.5242 286.888C13.1976 287.206 12.7356 287.364 12.1382 287.364L8.12024 287.364L8.12024 288.442L6.69224 288.442L6.69224 287.882C6.69224 287.612 6.63157 287.43 6.51024 287.336C6.37957 287.234 6.18824 287.182 5.93624 287.182L4.69024 287.182L4.69024 285.572L6.69224 285.572L6.69224 284.074L8.12024 284.074L8.12024 285.572L12.5722 285.572L12.5722 284.186L14.0002 284.186L14.0002 285.474ZM14.1682 279.461C14.1682 280.002 14.0796 280.487 13.9022 280.917C13.7156 281.337 13.4589 281.696 13.1322 281.995C12.7962 282.284 12.3949 282.508 11.9282 282.667C11.4522 282.825 10.9202 282.905 10.3322 282.905C9.75357 282.905 9.23091 282.83 8.76424 282.681C8.29757 282.522 7.90091 282.298 7.57424 282.009C7.23824 281.719 6.98157 281.365 6.80424 280.945C6.61757 280.525 6.52424 280.049 6.52424 279.517C6.52424 278.947 6.62224 278.453 6.81824 278.033C7.01424 277.613 7.28024 277.267 7.61624 276.997C7.95224 276.726 8.34424 276.525 8.79224 276.395C9.23091 276.255 9.70224 276.185 10.2062 276.185L10.7942 276.185L10.7942 281.043L10.9762 281.043C11.5082 281.043 11.9376 280.893 12.2642 280.595C12.5816 280.296 12.7402 279.853 12.7402 279.265C12.7402 278.817 12.6469 278.453 12.4602 278.173C12.2736 277.883 12.0356 277.627 11.7462 277.403L12.8242 276.437C13.2442 276.735 13.5756 277.146 13.8182 277.669C14.0516 278.182 14.1682 278.779 14.1682 279.461ZM7.86824 279.489C7.86824 279.965 8.02691 280.343 8.34424 280.623C8.66157 280.903 9.07224 281.043 9.57624 281.043L9.68824 281.043L9.68824 278.047L9.56224 278.047C9.05824 278.047 8.65224 278.173 8.34424 278.425C8.02691 278.667 7.86824 279.022 7.86824 279.489ZM6.69224 274.448L6.69224 272.656L7.89624 272.656L7.89624 272.6C7.47624 272.469 7.14491 272.222 6.90224 271.858C6.65024 271.494 6.52424 271.069 6.52424 270.584C6.52424 269.651 6.85557 268.941 7.51824 268.456C8.17157 267.961 9.10957 267.714 10.3322 267.714C11.5642 267.714 12.5116 267.961 13.1742 268.456C13.8369 268.941 14.1682 269.651 14.1682 270.584C14.1682 271.069 14.0422 271.494 13.7902 271.858C13.5382 272.213 13.2022 272.46 12.7822 272.6L12.7822 272.656L16.8002 272.656L16.8002 274.448L6.69224 274.448ZM12.6842 271.158C12.6842 270.691 12.5302 270.313 12.2222 270.024C11.9142 269.735 11.4989 269.59 10.9762 269.59L9.71624 269.59C9.19357 269.59 8.77824 269.735 8.47024 270.024C8.15291 270.313 7.99424 270.691 7.99424 271.158C7.99424 271.587 8.10157 271.947 8.31624 272.236C8.53091 272.516 8.81557 272.656 9.17024 272.656L11.4942 272.656C11.8769 272.656 12.1709 272.516 12.3762 272.236C12.5816 271.947 12.6842 271.587 12.6842 271.158ZM14.1682 263.5C14.1682 264.2 14.0516 264.788 13.8182 265.264C13.5756 265.74 13.2442 266.16 12.8242 266.524L11.7602 265.432C12.0682 265.161 12.3109 264.867 12.4882 264.55C12.6656 264.223 12.7542 263.85 12.7542 263.43C12.7542 263 12.6796 262.692 12.5302 262.506C12.3809 262.31 12.1756 262.212 11.9142 262.212C11.6996 262.212 11.5316 262.282 11.4102 262.422C11.2796 262.552 11.1909 262.781 11.1442 263.108L11.0462 263.836C10.9436 264.629 10.7196 265.236 10.3742 265.656C10.0196 266.066 9.50624 266.272 8.83424 266.272C8.47957 266.272 8.16224 266.206 7.88224 266.076C7.59291 265.945 7.35024 265.758 7.15424 265.516C6.94891 265.273 6.79491 264.984 6.69224 264.648C6.58024 264.302 6.52424 263.92 6.52424 263.5C6.52424 263.145 6.55224 262.832 6.60824 262.562C6.65491 262.282 6.72957 262.03 6.83224 261.806C6.92557 261.582 7.04691 261.376 7.19624 261.19C7.33624 261.003 7.49491 260.821 7.67224 260.644L8.72224 261.694C8.49824 261.908 8.31157 262.165 8.16224 262.464C8.01291 262.762 7.93824 263.089 7.93824 263.444C7.93824 263.836 8.00824 264.12 8.14824 264.298C8.28824 264.466 8.47024 264.55 8.69424 264.55C8.93691 264.55 9.12357 264.48 9.25424 264.34C9.37557 264.19 9.46424 263.943 9.52024 263.598L9.61824 262.856C9.84224 261.278 10.5609 260.49 11.7742 260.49C12.1289 260.49 12.4556 260.564 12.7542 260.714C13.0436 260.854 13.2956 261.054 13.5102 261.316C13.7156 261.577 13.8789 261.894 14.0002 262.268C14.1122 262.632 14.1682 263.042 14.1682 263.5ZM14.0002 255.279L6.69224 255.279L6.69224 253.487L7.91024 253.487L7.91024 253.417C7.51824 253.267 7.19157 253.034 6.93024 252.717C6.65957 252.39 6.52424 251.942 6.52424 251.373C6.52424 250.617 6.77157 250.038 7.26624 249.637C7.76091 249.235 8.46557 249.035 9.38024 249.035L14.0002 249.035L14.0002 250.827L9.56224 250.827C9.03957 250.827 8.64757 250.92 8.38624 251.107C8.12491 251.293 7.99424 251.601 7.99424 252.031C7.99424 252.217 8.02224 252.399 8.07824 252.577C8.12491 252.745 8.19957 252.899 8.30224 253.039C8.39557 253.169 8.51691 253.277 8.66624 253.361C8.80624 253.445 8.97424 253.487 9.17024 253.487L14.0002 253.487L14.0002 255.279ZM14.1682 243.934C14.1682 244.476 14.0796 244.961 13.9022 245.39C13.7156 245.81 13.4589 246.17 13.1322 246.468C12.7962 246.758 12.3949 246.982 11.9282 247.14C11.4522 247.299 10.9202 247.378 10.3322 247.378C9.75357 247.378 9.23091 247.304 8.76424 247.154C8.29757 246.996 7.90091 246.772 7.57424 246.482C7.23824 246.193 6.98157 245.838 6.80424 245.418C6.61757 244.998 6.52424 244.522 6.52424 243.99C6.52424 243.421 6.62224 242.926 6.81824 242.506C7.01424 242.086 7.28024 241.741 7.61624 241.47C7.95224 241.2 8.34424 240.999 8.79224 240.868C9.23091 240.728 9.70224 240.658 10.2062 240.658L10.7942 240.658L10.7942 245.516L10.9762 245.516C11.5082 245.516 11.9376 245.367 12.2642 245.068C12.5816 244.77 12.7402 244.326 12.7402 243.738C12.7402 243.29 12.6469 242.926 12.4602 242.646C12.2736 242.357 12.0356 242.1 11.7462 241.876L12.8242 240.91C13.2442 241.209 13.5756 241.62 13.8182 242.142C14.0516 242.656 14.1682 243.253 14.1682 243.934ZM7.86824 243.962C7.86824 244.438 8.02691 244.816 8.34424 245.096C8.66157 245.376 9.07224 245.516 9.57624 245.516L9.68824 245.516L9.68824 242.52L9.56224 242.52C9.05824 242.52 8.65224 242.646 8.34424 242.898C8.02691 243.141 7.86824 243.496 7.86824 243.962ZM14.1682 235.968C14.1682 236.509 14.0796 236.994 13.9022 237.424C13.7156 237.844 13.4589 238.203 13.1322 238.502C12.7962 238.791 12.3949 239.015 11.9282 239.174C11.4522 239.332 10.9202 239.412 10.3322 239.412C9.75357 239.412 9.23091 239.337 8.76424 239.188C8.29757 239.029 7.90091 238.805 7.57424 238.516C7.23824 238.226 6.98157 237.872 6.80424 237.452C6.61757 237.032 6.52424 236.556 6.52424 236.024C6.52424 235.454 6.62224 234.96 6.81824 234.54C7.01424 234.12 7.28024 233.774 7.61624 233.504C7.95224 233.233 8.34424 233.032 8.79224 232.902C9.23091 232.762 9.70224 232.692 10.2062 232.692L10.7942 232.692L10.7942 237.55L10.9762 237.55C11.5082 237.55 11.9376 237.4 12.2642 237.102C12.5816 236.803 12.7402 236.36 12.7402 235.772C12.7402 235.324 12.6469 234.96 12.4602 234.68C12.2736 234.39 12.0356 234.134 11.7462 233.91L12.8242 232.944C13.2442 233.242 13.5756 233.653 13.8182 234.176C14.0516 234.689 14.1682 235.286 14.1682 235.968ZM7.86824 235.996C7.86824 236.472 8.02691 236.85 8.34424 237.13C8.66157 237.41 9.07224 237.55 9.57624 237.55L9.68824 237.55L9.68824 234.554L9.56224 234.554C9.05824 234.554 8.65224 234.68 8.34424 234.932C8.02691 235.174 7.86824 235.529 7.86824 235.996ZM12.7822 226.419L12.7822 226.489C13.2022 226.62 13.5382 226.867 13.7902 227.231C14.0422 227.595 14.1682 228.02 14.1682 228.505C14.1682 229.429 13.8369 230.138 13.1742 230.633C12.5116 231.118 11.5642 231.361 10.3322 231.361C9.10957 231.361 8.17157 231.118 7.51824 230.633C6.85557 230.138 6.52424 229.429 6.52424 228.505C6.52424 228.02 6.65024 227.595 6.90224 227.231C7.1449 226.867 7.47624 226.62 7.89624 226.489L7.89624 226.419L3.64024 226.419L3.64024 224.627L14.0002 224.627L14.0002 226.419L12.7822 226.419ZM12.6842 227.931C12.6842 227.502 12.5816 227.142 12.3762 226.853C12.1709 226.564 11.8769 226.419 11.4942 226.419L9.17024 226.419C8.81557 226.419 8.53091 226.564 8.31624 226.853C8.10157 227.142 7.99424 227.502 7.99424 227.931C7.99424 228.398 8.15291 228.776 8.47024 229.065C8.77824 229.345 9.19357 229.485 9.71624 229.485L10.9762 229.485C11.4989 229.485 11.9142 229.345 12.2222 229.065C12.5302 228.776 12.6842 228.398 12.6842 227.931ZM14.1682 219.446C14.1682 219.988 14.0796 220.473 13.9022 220.902C13.7156 221.322 13.4589 221.682 13.1322 221.98C12.7962 222.27 12.3949 222.494 11.9282 222.652C11.4522 222.811 10.9202 222.89 10.3322 222.89C9.75357 222.89 9.23091 222.816 8.76424 222.666C8.29757 222.508 7.9009 222.284 7.57424 221.994C7.23824 221.705 6.98157 221.35 6.80424 220.93C6.61757 220.51 6.52424 220.034 6.52424 219.502C6.52424 218.933 6.62224 218.438 6.81824 218.018C7.01424 217.598 7.28024 217.253 7.61624 216.982C7.95224 216.712 8.34424 216.511 8.79224 216.38C9.2309 216.24 9.70224 216.17 10.2062 216.17L10.7942 216.17L10.7942 221.028L10.9762 221.028C11.5082 221.028 11.9376 220.879 12.2642 220.58C12.5816 220.282 12.7402 219.838 12.7402 219.25C12.7402 218.802 12.6469 218.438 12.4602 218.158C12.2736 217.869 12.0356 217.612 11.7462 217.388L12.8242 216.422C13.2442 216.721 13.5756 217.132 13.8182 217.654C14.0516 218.168 14.1682 218.765 14.1682 219.446ZM7.86824 219.474C7.86824 219.95 8.0269 220.328 8.34424 220.608C8.66157 220.888 9.07224 221.028 9.57624 221.028L9.68824 221.028L9.68824 218.032L9.56224 218.032C9.05824 218.032 8.65224 218.158 8.34424 218.41C8.0269 218.653 7.86824 219.008 7.86824 219.474ZM12.7822 209.898L12.7822 209.968C13.2022 210.098 13.5382 210.346 13.7902 210.71C14.0422 211.074 14.1682 211.498 14.1682 211.984C14.1682 212.908 13.8369 213.617 13.1742 214.112C12.5116 214.597 11.5642 214.84 10.3322 214.84C9.10957 214.84 8.17157 214.597 7.51824 214.112C6.85557 213.617 6.52424 212.908 6.52424 211.984C6.52424 211.498 6.65024 211.074 6.90224 210.71C7.1449 210.346 7.47624 210.098 7.89624 209.968L7.89624 209.898L3.64024 209.898L3.64024 208.106L14.0002 208.106L14.0002 209.898L12.7822 209.898ZM12.6842 211.41C12.6842 210.98 12.5816 210.621 12.3762 210.332C12.1709 210.042 11.8769 209.898 11.4942 209.898L9.17024 209.898C8.81557 209.898 8.5309 210.042 8.31624 210.332C8.10157 210.621 7.99424 210.98 7.99424 211.41C7.99424 211.876 8.1529 212.254 8.47024 212.544C8.77824 212.824 9.19357 212.964 9.71624 212.964L10.9762 212.964C11.4989 212.964 11.9142 212.824 12.2222 212.544C12.5302 212.254 12.6842 211.876 12.6842 211.41ZM14.0002 200.129C14.0002 200.745 13.8416 201.216 13.5242 201.543C13.1976 201.86 12.7356 202.019 12.1382 202.019L8.12024 202.019L8.12024 203.097L6.69224 203.097L6.69224 202.537C6.69224 202.266 6.63157 202.084 6.51024 201.991C6.37957 201.888 6.18824 201.837 5.93624 201.837L4.69024 201.837L4.69024 200.227L6.69224 200.227L6.69224 198.729L8.12024 198.729L8.12024 200.227L12.5722 200.227L12.5722 198.841L14.0002 198.841L14.0002 200.129ZM14.1682 194.171C14.1682 194.694 14.0796 195.165 13.9022 195.585C13.7249 195.996 13.4682 196.35 13.1322 196.649C12.7962 196.938 12.3949 197.162 11.9282 197.321C11.4522 197.48 10.9202 197.559 10.3322 197.559C9.74424 197.559 9.2169 197.48 8.75024 197.321C8.28357 197.162 7.8869 196.938 7.56024 196.649C7.22424 196.35 6.96757 195.996 6.79024 195.585C6.6129 195.165 6.52424 194.694 6.52424 194.171C6.52424 193.648 6.6129 193.177 6.79024 192.757C6.96757 192.337 7.22424 191.982 7.56024 191.693C7.8869 191.394 8.28357 191.166 8.75024 191.007C9.2169 190.848 9.74424 190.769 10.3322 190.769C10.9202 190.769 11.4522 190.848 11.9282 191.007C12.3949 191.166 12.7962 191.394 13.1322 191.693C13.4682 191.982 13.7249 192.337 13.9022 192.757C14.0796 193.177 14.1682 193.648 14.1682 194.171ZM12.7262 194.171C12.7262 193.695 12.5816 193.322 12.2922 193.051C12.0029 192.78 11.5782 192.645 11.0182 192.645L9.66024 192.645C9.10957 192.645 8.68957 192.78 8.40024 193.051C8.1109 193.322 7.96624 193.695 7.96624 194.171C7.96624 194.638 8.1109 195.006 8.40024 195.277C8.68957 195.548 9.10957 195.683 9.66024 195.683L11.0182 195.683C11.5782 195.683 12.0029 195.548 12.2922 195.277C12.5816 195.006 12.7262 194.638 12.7262 194.171ZM14.1682 183.158C14.1682 183.858 14.0516 184.446 13.8182 184.922C13.5756 185.398 13.2442 185.818 12.8242 186.182L11.7602 185.09C12.0682 184.819 12.3109 184.525 12.4882 184.208C12.6656 183.881 12.7542 183.508 12.7542 183.088C12.7542 182.658 12.6796 182.35 12.5302 182.164C12.3809 181.968 12.1756 181.87 11.9142 181.87C11.6996 181.87 11.5316 181.94 11.4102 182.08C11.2796 182.21 11.1909 182.439 11.1442 182.766L11.0462 183.494C10.9436 184.287 10.7196 184.894 10.3742 185.314C10.0196 185.724 9.50624 185.93 8.83424 185.93C8.47957 185.93 8.16224 185.864 7.88224 185.734C7.5929 185.603 7.35024 185.416 7.15424 185.174C6.9489 184.931 6.7949 184.642 6.69224 184.306C6.58024 183.96 6.52424 183.578 6.52424 183.158C6.52424 182.803 6.55224 182.49 6.60824 182.22C6.6549 181.94 6.72957 181.688 6.83224 181.464C6.92557 181.24 7.0469 181.034 7.19624 180.848C7.33624 180.661 7.4949 180.479 7.67224 180.302L8.72224 181.352C8.49824 181.566 8.31157 181.823 8.16224 182.122C8.0129 182.42 7.93824 182.747 7.93824 183.102C7.93824 183.494 8.00824 183.778 8.14824 183.956C8.28824 184.124 8.47024 184.208 8.69424 184.208C8.9369 184.208 9.12357 184.138 9.25424 183.998C9.37557 183.848 9.46424 183.601 9.52024 183.256L9.61824 182.514C9.84224 180.936 10.5609 180.148 11.7742 180.148C12.1289 180.148 12.4556 180.222 12.7542 180.372C13.0436 180.512 13.2956 180.712 13.5102 180.974C13.7156 181.235 13.8789 181.552 14.0002 181.926C14.1122 182.29 14.1682 182.7 14.1682 183.158ZM14.1682 175.507C14.1682 176.03 14.0796 176.501 13.9022 176.921C13.7249 177.332 13.4682 177.687 13.1322 177.985C12.7962 178.275 12.3949 178.499 11.9282 178.657C11.4522 178.816 10.9202 178.895 10.3322 178.895C9.74424 178.895 9.2169 178.816 8.75024 178.657C8.28357 178.499 7.8869 178.275 7.56024 177.985C7.22424 177.687 6.96757 177.332 6.79024 176.921C6.6129 176.501 6.52424 176.03 6.52424 175.507C6.52424 174.985 6.6129 174.513 6.79024 174.093C6.96757 173.673 7.22424 173.319 7.56024 173.029C7.8869 172.731 8.28357 172.502 8.75024 172.343C9.2169 172.185 9.74424 172.105 10.3322 172.105C10.9202 172.105 11.4522 172.185 11.9282 172.343C12.3949 172.502 12.7962 172.731 13.1322 173.029C13.4682 173.319 13.7249 173.673 13.9022 174.093C14.0796 174.513 14.1682 174.985 14.1682 175.507ZM12.7262 175.507C12.7262 175.031 12.5816 174.658 12.2922 174.387C12.0029 174.117 11.5782 173.981 11.0182 173.981L9.66024 173.981C9.10957 173.981 8.68957 174.117 8.40024 174.387C8.1109 174.658 7.96624 175.031 7.96624 175.507C7.96624 175.974 8.1109 176.343 8.40024 176.613C8.68957 176.884 9.10957 177.019 9.66024 177.019L11.0182 177.019C11.5782 177.019 12.0029 176.884 12.2922 176.613C12.5816 176.343 12.7262 175.974 12.7262 175.507ZM14.0002 168.565C14.0002 169.181 13.8462 169.633 13.5382 169.923C13.2302 170.212 12.7962 170.357 12.2362 170.357L3.64024 170.357L3.64024 168.565L12.5722 168.565L12.5722 167.599L14.0002 167.599L14.0002 168.565ZM14.0002 164.609L6.69224 167.045L6.69224 165.281L9.84224 164.259L12.4462 163.545L12.4462 163.447L9.84224 162.733L6.69224 161.739L6.69224 160.031L14.0002 162.481L14.0002 164.609ZM14.1682 155.831C14.1682 156.372 14.0796 156.857 13.9022 157.287C13.7156 157.707 13.4589 158.066 13.1322 158.365C12.7962 158.654 12.3949 158.878 11.9282 159.037C11.4522 159.195 10.9202 159.275 10.3322 159.275C9.75357 159.275 9.2309 159.2 8.76424 159.051C8.29757 158.892 7.9009 158.668 7.57424 158.379C7.23824 158.089 6.98157 157.735 6.80424 157.315C6.61757 156.895 6.52424 156.419 6.52423 155.887C6.52423 155.317 6.62224 154.823 6.81824 154.403C7.01424 153.983 7.28024 153.637 7.61623 153.367C7.95224 153.096 8.34424 152.895 8.79224 152.765C9.2309 152.625 9.70224 152.555 10.2062 152.555L10.7942 152.555L10.7942 157.413L10.9762 157.413C11.5082 157.413 11.9376 157.263 12.2642 156.965C12.5816 156.666 12.7402 156.223 12.7402 155.635C12.7402 155.187 12.6469 154.823 12.4602 154.543C12.2736 154.253 12.0356 153.997 11.7462 153.773L12.8242 152.807C13.2442 153.105 13.5756 153.516 13.8182 154.039C14.0516 154.552 14.1682 155.149 14.1682 155.831ZM7.86824 155.859C7.86824 156.335 8.0269 156.713 8.34424 156.993C8.66157 157.273 9.07224 157.413 9.57624 157.413L9.68824 157.413L9.68824 154.417L9.56224 154.417C9.05824 154.417 8.65224 154.543 8.34424 154.795C8.0269 155.037 7.86824 155.392 7.86824 155.859ZM6.69223 147.35L6.69223 145.558L7.89623 145.558L7.89623 145.502C7.47623 145.371 7.1449 145.124 6.90223 144.76C6.65023 144.396 6.52423 143.971 6.52423 143.486C6.52423 142.552 6.85557 141.843 7.51823 141.358C8.17157 140.863 9.10957 140.616 10.3322 140.616C11.5642 140.616 12.5116 140.863 13.1742 141.358C13.8369 141.843 14.1682 142.552 14.1682 143.486C14.1682 143.971 14.0422 144.396 13.7902 144.76C13.5382 145.114 13.2022 145.362 12.7822 145.502L12.7822 145.558L16.8002 145.558L16.8002 147.35L6.69223 147.35ZM12.6842 144.06C12.6842 143.593 12.5302 143.215 12.2222 142.926C11.9142 142.636 11.4989 142.492 10.9762 142.492L9.71623 142.492C9.19357 142.492 8.77823 142.636 8.47023 142.926C8.1529 143.215 7.99423 143.593 7.99423 144.06C7.99423 144.489 8.10157 144.848 8.31623 145.138C8.5309 145.418 8.81557 145.558 9.17023 145.558L11.4942 145.558C11.8769 145.558 12.1709 145.418 12.3762 145.138C12.5816 144.848 12.6842 144.489 12.6842 144.06ZM14.0002 138.795L6.69223 138.795L6.69223 137.003L8.20423 137.003L8.20423 136.933C8.00823 136.886 7.82157 136.816 7.64423 136.723C7.45757 136.62 7.29423 136.49 7.15423 136.331C7.01423 136.172 6.90223 135.986 6.81823 135.771C6.73423 135.547 6.69223 135.29 6.69223 135.001L6.69223 134.609L8.38623 134.609L8.38623 135.169C8.38623 135.776 8.4749 136.233 8.65223 136.541C8.82957 136.849 9.1189 137.003 9.52023 137.003L14.0002 137.003L14.0002 138.795ZM14.1682 130.309C14.1682 130.832 14.0796 131.303 13.9022 131.723C13.7249 132.134 13.4682 132.489 13.1322 132.787C12.7962 133.077 12.3949 133.301 11.9282 133.459C11.4522 133.618 10.9202 133.697 10.3322 133.697C9.74423 133.697 9.2169 133.618 8.75023 133.459C8.28357 133.301 7.8869 133.077 7.56023 132.787C7.22423 132.489 6.96757 132.134 6.79023 131.723C6.6129 131.303 6.52423 130.832 6.52423 130.309C6.52423 129.787 6.6129 129.315 6.79023 128.895C6.96757 128.475 7.22423 128.121 7.56023 127.831C7.8869 127.533 8.28357 127.304 8.75023 127.145C9.2169 126.987 9.74423 126.907 10.3322 126.907C10.9202 126.907 11.4522 126.987 11.9282 127.145C12.3949 127.304 12.7962 127.533 13.1322 127.831C13.4682 128.121 13.7249 128.475 13.9022 128.895C14.0796 129.315 14.1682 129.787 14.1682 130.309ZM12.7262 130.309C12.7262 129.833 12.5816 129.46 12.2922 129.189C12.0029 128.919 11.5782 128.783 11.0182 128.783L9.66023 128.783C9.10957 128.783 8.68957 128.919 8.40023 129.189C8.1109 129.46 7.96623 129.833 7.96623 130.309C7.96623 130.776 8.1109 131.145 8.40023 131.415C8.68957 131.686 9.10957 131.821 9.66023 131.821L11.0182 131.821C11.5782 131.821 12.0029 131.686 12.2922 131.415C12.5816 131.145 12.7262 130.776 12.7262 130.309ZM3.64023 125.159L3.64023 123.367L7.89623 123.367L7.89623 123.311C7.47623 123.18 7.1449 122.933 6.90223 122.569C6.65023 122.205 6.52423 121.78 6.52423 121.295C6.52423 120.361 6.85557 119.652 7.51823 119.167C8.17157 118.672 9.10957 118.425 10.3322 118.425C11.5642 118.425 12.5116 118.672 13.1742 119.167C13.8369 119.652 14.1682 120.361 14.1682 121.295C14.1682 121.78 14.0422 122.205 13.7902 122.569C13.5382 122.923 13.2022 123.171 12.7822 123.311L12.7822 123.367L14.0002 123.367L14.0002 125.159L3.64023 125.159ZM12.6842 121.869C12.6842 121.402 12.5302 121.024 12.2222 120.735C11.9142 120.445 11.4989 120.301 10.9762 120.301L9.71623 120.301C9.19357 120.301 8.77823 120.445 8.47023 120.735C8.1529 121.024 7.99423 121.402 7.99423 121.869C7.99423 122.298 8.10157 122.657 8.31623 122.947C8.5309 123.227 8.81557 123.367 9.17023 123.367L11.4942 123.367C11.8769 123.367 12.1709 123.227 12.3762 122.947C12.5816 122.657 12.6842 122.298 12.6842 121.869ZM14.0002 114.812C14.0002 115.428 13.8462 115.881 13.5382 116.17C13.2302 116.459 12.7962 116.604 12.2362 116.604L3.64023 116.604L3.64023 114.812L12.5722 114.812L12.5722 113.846L14.0002 113.846L14.0002 114.812ZM14.1682 109.375C14.1682 109.916 14.0796 110.402 13.9022 110.831C13.7156 111.251 13.4589 111.61 13.1322 111.909C12.7962 112.198 12.3949 112.422 11.9282 112.581C11.4522 112.74 10.9202 112.819 10.3322 112.819C9.75357 112.819 9.2309 112.744 8.76423 112.595C8.29757 112.436 7.9009 112.212 7.57423 111.923C7.23823 111.634 6.98157 111.279 6.80423 110.859C6.61757 110.439 6.52423 109.963 6.52423 109.431C6.52423 108.862 6.62223 108.367 6.81823 107.947C7.01423 107.527 7.28023 107.182 7.61623 106.911C7.95223 106.64 8.34423 106.44 8.79223 106.309C9.2309 106.169 9.70223 106.099 10.2062 106.099L10.7942 106.099L10.7942 110.957L10.9762 110.957C11.5082 110.957 11.9376 110.808 12.2642 110.509C12.5816 110.21 12.7402 109.767 12.7402 109.179C12.7402 108.731 12.6469 108.367 12.4602 108.087C12.2736 107.798 12.0356 107.541 11.7462 107.317L12.8242 106.351C13.2442 106.65 13.5756 107.06 13.8182 107.583C14.0516 108.096 14.1682 108.694 14.1682 109.375ZM7.86823 109.403C7.86823 109.879 8.0269 110.257 8.34423 110.537C8.66157 110.817 9.07223 110.957 9.57623 110.957L9.68823 110.957L9.68823 107.961L9.56223 107.961C9.05823 107.961 8.65223 108.087 8.34423 108.339C8.0269 108.582 7.86823 108.936 7.86823 109.403ZM14.0002 104.362L6.69223 104.362L6.69223 102.57L7.91023 102.57L7.91023 102.5C7.52757 102.36 7.2009 102.136 6.93023 101.828C6.65957 101.52 6.52423 101.091 6.52423 100.54C6.52423 100.036 6.64557 99.6022 6.88823 99.2382C7.1309 98.8742 7.49957 98.6035 7.99423 98.4262L7.99423 98.3982C7.58357 98.2675 7.23823 98.0109 6.95823 97.6282C6.6689 97.2362 6.52423 96.7462 6.52423 96.1582C6.52423 95.4395 6.77157 94.8889 7.26623 94.5062C7.7609 94.1142 8.46557 93.9182 9.38023 93.9182L14.0002 93.9182L14.0002 95.7102L9.56223 95.7102C8.5169 95.7102 7.99423 96.1022 7.99423 96.8862C7.99423 97.0635 8.02223 97.2362 8.07823 97.4042C8.1249 97.5629 8.19957 97.7075 8.30223 97.8382C8.39557 97.9595 8.5169 98.0575 8.66623 98.1322C8.80623 98.2069 8.97423 98.2442 9.17023 98.2442L14.0002 98.2442L14.0002 100.036L9.56223 100.036C8.5169 100.036 7.99423 100.428 7.99423 101.212C7.99423 101.38 8.02223 101.548 8.07823 101.716C8.1249 101.875 8.19957 102.02 8.30223 102.15C8.39557 102.272 8.5169 102.374 8.66623 102.458C8.80623 102.533 8.97423 102.57 9.17023 102.57L14.0002 102.57L14.0002 104.362Z" fill="black"/>
<line x1="122.5" x2="122.5" y2="384" stroke="#DDE1E6"/>
<line x1="218.5" x2="218.5" y2="384" stroke="#DDE1E6"/>
<line x1="314.5" x2="314.5" y2="384" stroke="#DDE1E6"/>
<rect x="26.5002" y="0.5" width="383" height="383" stroke="#DDE1E6"/>
<path d="M28.0002 382C99.5 283.5 275.5 258.5 371.5 240" stroke="#6929C4"/>
<path d="M257.116 219.624H260.56C261.256 219.624 261.8 219.82 262.192 220.212C262.592 220.604 262.792 221.128 262.792 221.784C262.792 222.096 262.748 222.36 262.66 222.576C262.572 222.792 262.46 222.972 262.324 223.116C262.188 223.252 262.04 223.356 261.88 223.428C261.72 223.492 261.572 223.536 261.436 223.56V223.632C261.588 223.64 261.756 223.68 261.94 223.752C262.132 223.824 262.312 223.94 262.48 224.1C262.648 224.252 262.788 224.452 262.9 224.7C263.02 224.94 263.08 225.232 263.08 225.576C263.08 225.92 263.024 226.24 262.912 226.536C262.808 226.832 262.66 227.088 262.468 227.304C262.276 227.52 262.048 227.692 261.784 227.82C261.52 227.94 261.232 228 260.92 228H257.116V219.624ZM258.124 227.112H260.608C261.04 227.112 261.38 227.004 261.628 226.788C261.876 226.564 262 226.24 262 225.816V225.408C262 224.984 261.876 224.664 261.628 224.448C261.38 224.224 261.04 224.112 260.608 224.112H258.124V227.112ZM258.124 223.248H260.44C260.84 223.248 261.152 223.148 261.376 222.948C261.6 222.748 261.712 222.46 261.712 222.084V221.676C261.712 221.3 261.6 221.012 261.376 220.812C261.152 220.612 260.84 220.512 260.44 220.512H258.124V223.248ZM267.508 228.144C267.084 228.144 266.7 228.068 266.356 227.916C266.02 227.764 265.728 227.548 265.48 227.268C265.24 226.98 265.052 226.64 264.916 226.248C264.788 225.848 264.724 225.4 264.724 224.904C264.724 224.416 264.788 223.972 264.916 223.572C265.052 223.172 265.24 222.832 265.48 222.552C265.728 222.264 266.02 222.044 266.356 221.892C266.7 221.74 267.084 221.664 267.508 221.664C267.924 221.664 268.296 221.74 268.624 221.892C268.952 222.044 269.232 222.256 269.464 222.528C269.696 222.792 269.872 223.108 269.992 223.476C270.12 223.844 270.184 224.248 270.184 224.688V225.144H265.732V225.432C265.732 225.696 265.772 225.944 265.852 226.176C265.94 226.4 266.06 226.596 266.212 226.764C266.372 226.932 266.564 227.064 266.788 227.16C267.02 227.256 267.28 227.304 267.568 227.304C267.96 227.304 268.3 227.212 268.588 227.028C268.884 226.844 269.112 226.58 269.272 226.236L269.956 226.728C269.756 227.152 269.444 227.496 269.02 227.76C268.596 228.016 268.092 228.144 267.508 228.144ZM267.508 222.468C267.244 222.468 267.004 222.516 266.788 222.612C266.572 222.7 266.384 222.828 266.224 222.996C266.072 223.164 265.952 223.364 265.864 223.596C265.776 223.82 265.732 224.068 265.732 224.34V224.424H269.152V224.292C269.152 223.74 269 223.3 268.696 222.972C268.4 222.636 268.004 222.468 267.508 222.468ZM273.946 228.144C273.37 228.144 272.886 228.036 272.494 227.82C272.11 227.596 271.778 227.3 271.498 226.932L272.182 226.38C272.422 226.684 272.69 226.92 272.986 227.088C273.282 227.248 273.626 227.328 274.018 227.328C274.426 227.328 274.742 227.24 274.966 227.064C275.198 226.888 275.314 226.64 275.314 226.32C275.314 226.08 275.234 225.876 275.074 225.708C274.922 225.532 274.642 225.412 274.234 225.348L273.742 225.276C273.454 225.236 273.19 225.176 272.95 225.096C272.71 225.008 272.498 224.896 272.314 224.76C272.138 224.616 271.998 224.44 271.894 224.232C271.798 224.024 271.75 223.776 271.75 223.488C271.75 223.184 271.806 222.92 271.918 222.696C272.03 222.464 272.182 222.272 272.374 222.12C272.574 221.968 272.81 221.856 273.082 221.784C273.354 221.704 273.646 221.664 273.958 221.664C274.462 221.664 274.882 221.752 275.218 221.928C275.562 222.104 275.862 222.348 276.118 222.66L275.482 223.236C275.346 223.044 275.146 222.872 274.882 222.72C274.618 222.56 274.286 222.48 273.886 222.48C273.486 222.48 273.182 222.568 272.974 222.744C272.774 222.912 272.674 223.144 272.674 223.44C272.674 223.744 272.774 223.964 272.974 224.1C273.182 224.236 273.478 224.336 273.862 224.4L274.342 224.472C275.03 224.576 275.518 224.776 275.806 225.072C276.094 225.36 276.238 225.74 276.238 226.212C276.238 226.812 276.034 227.284 275.626 227.628C275.218 227.972 274.658 228.144 273.946 228.144ZM279.539 228C279.203 228 278.947 227.908 278.771 227.724C278.603 227.532 278.519 227.284 278.519 226.98V222.648H277.499V221.808H278.075C278.283 221.808 278.423 221.768 278.495 221.688C278.575 221.6 278.615 221.452 278.615 221.244V220.092H279.479V221.808H280.835V222.648H279.479V227.16H280.739V228H279.539ZM289.814 226.992H289.766C289.39 227.76 288.786 228.144 287.954 228.144C287.57 228.144 287.222 228.068 286.91 227.916C286.598 227.764 286.33 227.548 286.106 227.268C285.89 226.988 285.722 226.648 285.602 226.248C285.49 225.848 285.434 225.4 285.434 224.904C285.434 224.408 285.49 223.96 285.602 223.56C285.722 223.16 285.89 222.82 286.106 222.54C286.33 222.26 286.598 222.044 286.91 221.892C287.222 221.74 287.57 221.664 287.954 221.664C288.386 221.664 288.754 221.76 289.058 221.952C289.37 222.136 289.606 222.424 289.766 222.816H289.814V221.808H290.774V230.4H289.814V226.992ZM288.218 227.28C288.434 227.28 288.638 227.252 288.83 227.196C289.03 227.14 289.202 227.06 289.346 226.956C289.49 226.844 289.602 226.712 289.682 226.56C289.77 226.4 289.814 226.22 289.814 226.02V223.716C289.814 223.548 289.77 223.392 289.682 223.248C289.602 223.096 289.49 222.968 289.346 222.864C289.202 222.76 289.03 222.68 288.83 222.624C288.638 222.56 288.434 222.528 288.218 222.528C287.674 222.528 287.246 222.7 286.934 223.044C286.622 223.38 286.466 223.824 286.466 224.376V225.432C286.466 225.984 286.622 226.432 286.934 226.776C287.246 227.112 287.674 227.28 288.218 227.28ZM296.951 226.992H296.903C296.839 227.136 296.759 227.28 296.663 227.424C296.575 227.56 296.463 227.684 296.327 227.796C296.191 227.9 296.027 227.984 295.835 228.048C295.643 228.112 295.419 228.144 295.163 228.144C294.523 228.144 294.015 227.94 293.639 227.532C293.263 227.116 293.075 226.532 293.075 225.78V221.808H294.035V225.612C294.035 226.724 294.507 227.28 295.451 227.28C295.643 227.28 295.827 227.256 296.003 227.208C296.187 227.16 296.347 227.088 296.483 226.992C296.627 226.896 296.739 226.776 296.819 226.632C296.907 226.48 296.951 226.3 296.951 226.092V221.808H297.911V228H296.951V226.992ZM304.776 228C304.416 228 304.156 227.904 303.996 227.712C303.844 227.52 303.748 227.28 303.708 226.992H303.648C303.512 227.376 303.288 227.664 302.976 227.856C302.664 228.048 302.292 228.144 301.86 228.144C301.204 228.144 300.692 227.976 300.324 227.64C299.964 227.304 299.784 226.848 299.784 226.272C299.784 225.688 299.996 225.24 300.42 224.928C300.852 224.616 301.52 224.46 302.424 224.46H303.648V223.848C303.648 223.408 303.528 223.072 303.288 222.84C303.048 222.608 302.68 222.492 302.184 222.492C301.808 222.492 301.492 222.576 301.236 222.744C300.988 222.912 300.78 223.136 300.612 223.416L300.036 222.876C300.204 222.54 300.472 222.256 300.84 222.024C301.208 221.784 301.672 221.664 302.232 221.664C302.984 221.664 303.568 221.848 303.984 222.216C304.4 222.584 304.608 223.096 304.608 223.752V227.16H305.316V228H304.776ZM302.016 227.328C302.256 227.328 302.476 227.3 302.676 227.244C302.876 227.188 303.048 227.108 303.192 227.004C303.336 226.9 303.448 226.78 303.528 226.644C303.608 226.508 303.648 226.36 303.648 226.2V225.18H302.376C301.824 225.18 301.42 225.26 301.164 225.42C300.916 225.58 300.792 225.812 300.792 226.116V226.368C300.792 226.672 300.9 226.908 301.116 227.076C301.34 227.244 301.64 227.328 302.016 227.328ZM307.006 228V221.808H307.966V222.816H308.014C308.166 222.464 308.378 222.184 308.65 221.976C308.93 221.768 309.302 221.664 309.766 221.664C310.406 221.664 310.91 221.872 311.278 222.288C311.654 222.696 311.842 223.276 311.842 224.028V228H310.882V224.196C310.882 223.084 310.414 222.528 309.478 222.528C309.286 222.528 309.098 222.552 308.914 222.6C308.738 222.648 308.578 222.72 308.434 222.816C308.29 222.912 308.174 223.036 308.086 223.188C308.006 223.332 307.966 223.504 307.966 223.704V228H307.006ZM315.514 228C315.178 228 314.922 227.908 314.746 227.724C314.578 227.532 314.494 227.284 314.494 226.98V222.648H313.474V221.808H314.05C314.258 221.808 314.398 221.768 314.47 221.688C314.55 221.6 314.59 221.452 314.59 221.244V220.092H315.454V221.808H316.81V222.648H315.454V227.16H316.714V228H315.514ZM322.489 226.992H322.441C322.377 227.136 322.297 227.28 322.201 227.424C322.113 227.56 322.001 227.684 321.865 227.796C321.729 227.9 321.565 227.984 321.373 228.048C321.181 228.112 320.957 228.144 320.701 228.144C320.061 228.144 319.553 227.94 319.177 227.532C318.801 227.116 318.613 226.532 318.613 225.78V221.808H319.573V225.612C319.573 226.724 320.045 227.28 320.989 227.28C321.181 227.28 321.365 227.256 321.541 227.208C321.725 227.16 321.885 227.088 322.021 226.992C322.165 226.896 322.277 226.776 322.357 226.632C322.445 226.48 322.489 226.3 322.489 226.092V221.808H323.449V228H322.489V226.992ZM325.813 228V221.808H326.773V222.816H326.821C326.893 222.656 326.973 222.508 327.061 222.372C327.157 222.228 327.269 222.104 327.397 222C327.533 221.896 327.689 221.816 327.865 221.76C328.041 221.696 328.249 221.664 328.489 221.664C328.897 221.664 329.273 221.764 329.617 221.964C329.961 222.156 330.217 222.476 330.385 222.924H330.409C330.521 222.588 330.729 222.296 331.033 222.048C331.345 221.792 331.765 221.664 332.293 221.664C332.925 221.664 333.417 221.872 333.769 222.288C334.129 222.696 334.309 223.276 334.309 224.028V228H333.349V224.196C333.349 223.644 333.241 223.228 333.025 222.948C332.809 222.668 332.465 222.528 331.993 222.528C331.801 222.528 331.617 222.552 331.441 222.6C331.273 222.648 331.121 222.72 330.985 222.816C330.849 222.912 330.741 223.036 330.661 223.188C330.581 223.332 330.541 223.504 330.541 223.704V228H329.581V224.196C329.581 223.644 329.473 223.228 329.257 222.948C329.041 222.668 328.705 222.528 328.249 222.528C328.057 222.528 327.873 222.552 327.697 222.6C327.521 222.648 327.365 222.72 327.229 222.816C327.093 222.912 326.981 223.036 326.893 223.188C326.813 223.332 326.773 223.504 326.773 223.704V228H325.813ZM261.52 244C261.16 244 260.9 243.904 260.74 243.712C260.588 243.52 260.492 243.28 260.452 242.992H260.392C260.256 243.376 260.032 243.664 259.72 243.856C259.408 244.048 259.036 244.144 258.604 244.144C257.948 244.144 257.436 243.976 257.068 243.64C256.708 243.304 256.528 242.848 256.528 242.272C256.528 241.688 256.74 241.24 257.164 240.928C257.596 240.616 258.264 240.46 259.168 240.46H260.392V239.848C260.392 239.408 260.272 239.072 260.032 238.84C259.792 238.608 259.424 238.492 258.928 238.492C258.552 238.492 258.236 238.576 257.98 238.744C257.732 238.912 257.524 239.136 257.356 239.416L256.78 238.876C256.948 238.54 257.216 238.256 257.584 238.024C257.952 237.784 258.416 237.664 258.976 237.664C259.728 237.664 260.312 237.848 260.728 238.216C261.144 238.584 261.352 239.096 261.352 239.752V243.16H262.06V244H261.52ZM258.76 243.328C259 243.328 259.22 243.3 259.42 243.244C259.62 243.188 259.792 243.108 259.936 243.004C260.08 242.9 260.192 242.78 260.272 242.644C260.352 242.508 260.392 242.36 260.392 242.2V241.18H259.12C258.568 241.18 258.164 241.26 257.908 241.42C257.66 241.58 257.536 241.812 257.536 242.116V242.368C257.536 242.672 257.644 242.908 257.86 243.076C258.084 243.244 258.384 243.328 258.76 243.328ZM264.77 244C264.434 244 264.178 243.908 264.002 243.724C263.834 243.532 263.75 243.292 263.75 243.004V235.12H264.71V243.16H265.622V244H264.77ZM272.56 244.684C272.56 245.324 272.308 245.792 271.804 246.088C271.308 246.392 270.56 246.544 269.56 246.544C268.592 246.544 267.896 246.412 267.472 246.148C267.048 245.884 266.836 245.508 266.836 245.02C266.836 244.684 266.924 244.42 267.1 244.228C267.276 244.044 267.516 243.908 267.82 243.82V243.688C267.452 243.512 267.268 243.224 267.268 242.824C267.268 242.512 267.368 242.276 267.568 242.116C267.768 241.948 268.024 241.824 268.336 241.744V241.696C267.968 241.52 267.68 241.268 267.472 240.94C267.272 240.612 267.172 240.232 267.172 239.8C267.172 239.488 267.228 239.2 267.34 238.936C267.452 238.672 267.608 238.448 267.808 238.264C268.016 238.072 268.26 237.924 268.54 237.82C268.828 237.716 269.148 237.664 269.5 237.664C269.94 237.664 270.332 237.744 270.676 237.904V237.796C270.676 237.556 270.732 237.36 270.844 237.208C270.956 237.048 271.14 236.968 271.396 236.968H272.32V237.808H271.144V238.204C271.368 238.396 271.54 238.628 271.66 238.9C271.788 239.164 271.852 239.464 271.852 239.8C271.852 240.112 271.796 240.4 271.684 240.664C271.572 240.928 271.412 241.156 271.204 241.348C271.004 241.532 270.76 241.676 270.472 241.78C270.184 241.884 269.864 241.936 269.512 241.936C269.312 241.936 269.112 241.916 268.912 241.876C268.704 241.932 268.516 242.016 268.348 242.128C268.18 242.232 268.096 242.38 268.096 242.572C268.096 242.756 268.184 242.88 268.36 242.944C268.536 243.008 268.764 243.04 269.044 243.04H270.364C271.132 243.04 271.688 243.188 272.032 243.484C272.384 243.772 272.56 244.172 272.56 244.684ZM271.66 244.756C271.66 244.508 271.564 244.308 271.372 244.156C271.188 244.012 270.856 243.94 270.376 243.94H268.312C267.928 244.116 267.736 244.396 267.736 244.78C267.736 245.052 267.836 245.284 268.036 245.476C268.244 245.668 268.592 245.764 269.08 245.764H269.968C270.504 245.764 270.92 245.68 271.216 245.512C271.512 245.344 271.66 245.092 271.66 244.756ZM269.512 241.168C269.92 241.168 270.244 241.072 270.484 240.88C270.724 240.68 270.844 240.376 270.844 239.968V239.632C270.844 239.224 270.724 238.924 270.484 238.732C270.244 238.532 269.92 238.432 269.512 238.432C269.104 238.432 268.78 238.532 268.54 238.732C268.3 238.924 268.18 239.224 268.18 239.632V239.968C268.18 240.376 268.3 240.68 268.54 240.88C268.78 241.072 269.104 241.168 269.512 241.168ZM276.269 244.144C275.853 244.144 275.473 244.068 275.129 243.916C274.785 243.764 274.489 243.548 274.241 243.268C274.001 242.98 273.813 242.64 273.677 242.248C273.541 241.848 273.473 241.4 273.473 240.904C273.473 240.416 273.541 239.972 273.677 239.572C273.813 239.172 274.001 238.832 274.241 238.552C274.489 238.264 274.785 238.044 275.129 237.892C275.473 237.74 275.853 237.664 276.269 237.664C276.685 237.664 277.061 237.74 277.397 237.892C277.741 238.044 278.037 238.264 278.285 238.552C278.533 238.832 278.725 239.172 278.861 239.572C278.997 239.972 279.065 240.416 279.065 240.904C279.065 241.4 278.997 241.848 278.861 242.248C278.725 242.64 278.533 242.98 278.285 243.268C278.037 243.548 277.741 243.764 277.397 243.916C277.061 244.068 276.685 244.144 276.269 244.144ZM276.269 243.292C276.789 243.292 277.213 243.132 277.541 242.812C277.869 242.492 278.033 242.004 278.033 241.348V240.46C278.033 239.804 277.869 239.316 277.541 238.996C277.213 238.676 276.789 238.516 276.269 238.516C275.749 238.516 275.325 238.676 274.997 238.996C274.669 239.316 274.505 239.804 274.505 240.46V241.348C274.505 242.004 274.669 242.492 274.997 242.812C275.325 243.132 275.749 243.292 276.269 243.292ZM280.964 244V237.808H281.924V238.948H281.984C282.096 238.652 282.296 238.388 282.584 238.156C282.872 237.924 283.268 237.808 283.772 237.808H284.144V238.768H283.58C283.06 238.768 282.652 238.868 282.356 239.068C282.068 239.26 281.924 239.504 281.924 239.8V244H280.964ZM286.17 236.356C285.962 236.356 285.81 236.308 285.714 236.212C285.626 236.108 285.582 235.976 285.582 235.816V235.66C285.582 235.5 285.626 235.372 285.714 235.276C285.81 235.172 285.962 235.12 286.17 235.12C286.378 235.12 286.526 235.172 286.614 235.276C286.71 235.372 286.758 235.5 286.758 235.66V235.816C286.758 235.976 286.71 236.108 286.614 236.212C286.526 236.308 286.378 236.356 286.17 236.356ZM285.69 237.808H286.65V244H285.69V237.808ZM290.378 244C290.042 244 289.786 243.908 289.61 243.724C289.442 243.532 289.358 243.284 289.358 242.98V238.648H288.338V237.808H288.914C289.122 237.808 289.262 237.768 289.334 237.688C289.414 237.6 289.454 237.452 289.454 237.244V236.092H290.318V237.808H291.674V238.648H290.318V243.16H291.578V244H290.378ZM293.537 235.12H294.497V238.816H294.545C294.697 238.464 294.909 238.184 295.181 237.976C295.461 237.768 295.833 237.664 296.297 237.664C296.937 237.664 297.441 237.872 297.809 238.288C298.185 238.696 298.373 239.276 298.373 240.028V244H297.413V240.196C297.413 239.084 296.945 238.528 296.009 238.528C295.817 238.528 295.629 238.552 295.445 238.6C295.269 238.648 295.109 238.72 294.965 238.816C294.821 238.912 294.705 239.036 294.617 239.188C294.537 239.332 294.497 239.504 294.497 239.704V244H293.537V235.12ZM300.678 244V237.808H301.638V238.816H301.686C301.758 238.656 301.838 238.508 301.926 238.372C302.022 238.228 302.134 238.104 302.262 238C302.398 237.896 302.554 237.816 302.73 237.76C302.906 237.696 303.114 237.664 303.354 237.664C303.762 237.664 304.138 237.764 304.482 237.964C304.826 238.156 305.082 238.476 305.25 238.924H305.274C305.386 238.588 305.594 238.296 305.898 238.048C306.21 237.792 306.63 237.664 307.158 237.664C307.79 237.664 308.282 237.872 308.634 238.288C308.994 238.696 309.174 239.276 309.174 240.028V244H308.214V240.196C308.214 239.644 308.106 239.228 307.89 238.948C307.674 238.668 307.33 238.528 306.858 238.528C306.666 238.528 306.482 238.552 306.306 238.6C306.138 238.648 305.986 238.72 305.85 238.816C305.714 238.912 305.606 239.036 305.526 239.188C305.446 239.332 305.406 239.504 305.406 239.704V244H304.446V240.196C304.446 239.644 304.338 239.228 304.122 238.948C303.906 238.668 303.57 238.528 303.114 238.528C302.922 238.528 302.738 238.552 302.562 238.6C302.386 238.648 302.23 238.72 302.094 238.816C301.958 238.912 301.846 239.036 301.758 239.188C301.678 239.332 301.638 239.504 301.638 239.704V244H300.678Z" fill="#6929C4"/>
<path d="M224.116 83.624H227.56C228.256 83.624 228.8 83.82 229.192 84.212C229.592 84.604 229.792 85.128 229.792 85.784C229.792 86.096 229.748 86.36 229.66 86.576C229.572 86.792 229.46 86.972 229.324 87.116C229.188 87.252 229.04 87.356 228.88 87.428C228.72 87.492 228.572 87.536 228.436 87.56V87.632C228.588 87.64 228.756 87.68 228.94 87.752C229.132 87.824 229.312 87.94 229.48 88.1C229.648 88.252 229.788 88.452 229.9 88.7C230.02 88.94 230.08 89.232 230.08 89.576C230.08 89.92 230.024 90.24 229.912 90.536C229.808 90.832 229.66 91.088 229.468 91.304C229.276 91.52 229.048 91.692 228.784 91.82C228.52 91.94 228.232 92 227.92 92H224.116V83.624ZM225.124 91.112H227.608C228.04 91.112 228.38 91.004 228.628 90.788C228.876 90.564 229 90.24 229 89.816V89.408C229 88.984 228.876 88.664 228.628 88.448C228.38 88.224 228.04 88.112 227.608 88.112H225.124V91.112ZM225.124 87.248H227.44C227.84 87.248 228.152 87.148 228.376 86.948C228.6 86.748 228.712 86.46 228.712 86.084V85.676C228.712 85.3 228.6 85.012 228.376 84.812C228.152 84.612 227.84 84.512 227.44 84.512H225.124V87.248ZM234.508 92.144C234.084 92.144 233.7 92.068 233.356 91.916C233.02 91.764 232.728 91.548 232.48 91.268C232.24 90.98 232.052 90.64 231.916 90.248C231.788 89.848 231.724 89.4 231.724 88.904C231.724 88.416 231.788 87.972 231.916 87.572C232.052 87.172 232.24 86.832 232.48 86.552C232.728 86.264 233.02 86.044 233.356 85.892C233.7 85.74 234.084 85.664 234.508 85.664C234.924 85.664 235.296 85.74 235.624 85.892C235.952 86.044 236.232 86.256 236.464 86.528C236.696 86.792 236.872 87.108 236.992 87.476C237.12 87.844 237.184 88.248 237.184 88.688V89.144H232.732V89.432C232.732 89.696 232.772 89.944 232.852 90.176C232.94 90.4 233.06 90.596 233.212 90.764C233.372 90.932 233.564 91.064 233.788 91.16C234.02 91.256 234.28 91.304 234.568 91.304C234.96 91.304 235.3 91.212 235.588 91.028C235.884 90.844 236.112 90.58 236.272 90.236L236.956 90.728C236.756 91.152 236.444 91.496 236.02 91.76C235.596 92.016 235.092 92.144 234.508 92.144ZM234.508 86.468C234.244 86.468 234.004 86.516 233.788 86.612C233.572 86.7 233.384 86.828 233.224 86.996C233.072 87.164 232.952 87.364 232.864 87.596C232.776 87.82 232.732 88.068 232.732 88.34V88.424H236.152V88.292C236.152 87.74 236 87.3 235.696 86.972C235.4 86.636 235.004 86.468 234.508 86.468ZM240.946 92.144C240.37 92.144 239.886 92.036 239.494 91.82C239.11 91.596 238.778 91.3 238.498 90.932L239.182 90.38C239.422 90.684 239.69 90.92 239.986 91.088C240.282 91.248 240.626 91.328 241.018 91.328C241.426 91.328 241.742 91.24 241.966 91.064C242.198 90.888 242.314 90.64 242.314 90.32C242.314 90.08 242.234 89.876 242.074 89.708C241.922 89.532 241.642 89.412 241.234 89.348L240.742 89.276C240.454 89.236 240.19 89.176 239.95 89.096C239.71 89.008 239.498 88.896 239.314 88.76C239.138 88.616 238.998 88.44 238.894 88.232C238.798 88.024 238.75 87.776 238.75 87.488C238.75 87.184 238.806 86.92 238.918 86.696C239.03 86.464 239.182 86.272 239.374 86.12C239.574 85.968 239.81 85.856 240.082 85.784C240.354 85.704 240.646 85.664 240.958 85.664C241.462 85.664 241.882 85.752 242.218 85.928C242.562 86.104 242.862 86.348 243.118 86.66L242.482 87.236C242.346 87.044 242.146 86.872 241.882 86.72C241.618 86.56 241.286 86.48 240.886 86.48C240.486 86.48 240.182 86.568 239.974 86.744C239.774 86.912 239.674 87.144 239.674 87.44C239.674 87.744 239.774 87.964 239.974 88.1C240.182 88.236 240.478 88.336 240.862 88.4L241.342 88.472C242.03 88.576 242.518 88.776 242.806 89.072C243.094 89.36 243.238 89.74 243.238 90.212C243.238 90.812 243.034 91.284 242.626 91.628C242.218 91.972 241.658 92.144 240.946 92.144ZM246.539 92C246.203 92 245.947 91.908 245.771 91.724C245.603 91.532 245.519 91.284 245.519 90.98V86.648H244.499V85.808H245.075C245.283 85.808 245.423 85.768 245.495 85.688C245.575 85.6 245.615 85.452 245.615 85.244V84.092H246.479V85.808H247.835V86.648H246.479V91.16H247.739V92H246.539ZM255.158 92.144C254.726 92.144 254.338 92.068 253.994 91.916C253.65 91.764 253.358 91.548 253.118 91.268C252.886 90.988 252.706 90.648 252.578 90.248C252.458 89.848 252.398 89.4 252.398 88.904C252.398 88.408 252.458 87.96 252.578 87.56C252.706 87.16 252.886 86.82 253.118 86.54C253.358 86.26 253.65 86.044 253.994 85.892C254.338 85.74 254.726 85.664 255.158 85.664C255.774 85.664 256.266 85.8 256.634 86.072C257.01 86.336 257.29 86.684 257.474 87.116L256.67 87.524C256.558 87.204 256.374 86.956 256.118 86.78C255.862 86.604 255.542 86.516 255.158 86.516C254.87 86.516 254.618 86.564 254.402 86.66C254.186 86.748 254.006 86.876 253.862 87.044C253.718 87.204 253.61 87.4 253.538 87.632C253.466 87.856 253.43 88.104 253.43 88.376V89.432C253.43 89.976 253.574 90.424 253.862 90.776C254.158 91.12 254.59 91.292 255.158 91.292C255.934 91.292 256.494 90.932 256.838 90.212L257.534 90.68C257.334 91.128 257.034 91.484 256.634 91.748C256.242 92.012 255.75 92.144 255.158 92.144ZM260.23 92C259.894 92 259.638 91.908 259.462 91.724C259.294 91.532 259.21 91.292 259.21 91.004V83.12H260.17V91.16H261.082V92H260.23ZM267.299 92C266.939 92 266.679 91.904 266.519 91.712C266.367 91.52 266.271 91.28 266.231 90.992H266.171C266.035 91.376 265.811 91.664 265.499 91.856C265.187 92.048 264.815 92.144 264.383 92.144C263.727 92.144 263.215 91.976 262.847 91.64C262.487 91.304 262.307 90.848 262.307 90.272C262.307 89.688 262.519 89.24 262.943 88.928C263.375 88.616 264.043 88.46 264.947 88.46H266.171V87.848C266.171 87.408 266.051 87.072 265.811 86.84C265.571 86.608 265.203 86.492 264.707 86.492C264.331 86.492 264.015 86.576 263.759 86.744C263.511 86.912 263.303 87.136 263.135 87.416L262.559 86.876C262.727 86.54 262.995 86.256 263.363 86.024C263.731 85.784 264.195 85.664 264.755 85.664C265.507 85.664 266.091 85.848 266.507 86.216C266.923 86.584 267.131 87.096 267.131 87.752V91.16H267.839V92H267.299ZM264.539 91.328C264.779 91.328 264.999 91.3 265.199 91.244C265.399 91.188 265.571 91.108 265.715 91.004C265.859 90.9 265.971 90.78 266.051 90.644C266.131 90.508 266.171 90.36 266.171 90.2V89.18H264.899C264.347 89.18 263.943 89.26 263.687 89.42C263.439 89.58 263.315 89.812 263.315 90.116V90.368C263.315 90.672 263.423 90.908 263.639 91.076C263.863 91.244 264.163 91.328 264.539 91.328ZM271.389 92.144C270.813 92.144 270.329 92.036 269.937 91.82C269.553 91.596 269.221 91.3 268.941 90.932L269.625 90.38C269.865 90.684 270.133 90.92 270.429 91.088C270.725 91.248 271.069 91.328 271.461 91.328C271.869 91.328 272.185 91.24 272.409 91.064C272.641 90.888 272.757 90.64 272.757 90.32C272.757 90.08 272.677 89.876 272.517 89.708C272.365 89.532 272.085 89.412 271.677 89.348L271.185 89.276C270.897 89.236 270.633 89.176 270.393 89.096C270.153 89.008 269.941 88.896 269.757 88.76C269.581 88.616 269.441 88.44 269.337 88.232C269.241 88.024 269.193 87.776 269.193 87.488C269.193 87.184 269.249 86.92 269.361 86.696C269.473 86.464 269.625 86.272 269.817 86.12C270.017 85.968 270.253 85.856 270.525 85.784C270.797 85.704 271.089 85.664 271.401 85.664C271.905 85.664 272.325 85.752 272.661 85.928C273.005 86.104 273.305 86.348 273.561 86.66L272.925 87.236C272.789 87.044 272.589 86.872 272.325 86.72C272.061 86.56 271.729 86.48 271.329 86.48C270.929 86.48 270.625 86.568 270.417 86.744C270.217 86.912 270.117 87.144 270.117 87.44C270.117 87.744 270.217 87.964 270.417 88.1C270.625 88.236 270.921 88.336 271.305 88.4L271.785 88.472C272.473 88.576 272.961 88.776 273.249 89.072C273.537 89.36 273.681 89.74 273.681 90.212C273.681 90.812 273.477 91.284 273.069 91.628C272.661 91.972 272.101 92.144 271.389 92.144ZM277.487 92.144C276.911 92.144 276.427 92.036 276.035 91.82C275.651 91.596 275.319 91.3 275.039 90.932L275.723 90.38C275.963 90.684 276.231 90.92 276.527 91.088C276.823 91.248 277.167 91.328 277.559 91.328C277.967 91.328 278.283 91.24 278.507 91.064C278.739 90.888 278.855 90.64 278.855 90.32C278.855 90.08 278.775 89.876 278.615 89.708C278.463 89.532 278.183 89.412 277.775 89.348L277.283 89.276C276.995 89.236 276.731 89.176 276.491 89.096C276.251 89.008 276.039 88.896 275.855 88.76C275.679 88.616 275.539 88.44 275.435 88.232C275.339 88.024 275.291 87.776 275.291 87.488C275.291 87.184 275.347 86.92 275.459 86.696C275.571 86.464 275.723 86.272 275.915 86.12C276.115 85.968 276.351 85.856 276.623 85.784C276.895 85.704 277.187 85.664 277.499 85.664C278.003 85.664 278.423 85.752 278.759 85.928C279.103 86.104 279.403 86.348 279.659 86.66L279.023 87.236C278.887 87.044 278.687 86.872 278.423 86.72C278.159 86.56 277.827 86.48 277.427 86.48C277.027 86.48 276.723 86.568 276.515 86.744C276.315 86.912 276.215 87.144 276.215 87.44C276.215 87.744 276.315 87.964 276.515 88.1C276.723 88.236 277.019 88.336 277.403 88.4L277.883 88.472C278.571 88.576 279.059 88.776 279.347 89.072C279.635 89.36 279.779 89.74 279.779 90.212C279.779 90.812 279.575 91.284 279.167 91.628C278.759 91.972 278.199 92.144 277.487 92.144ZM282.274 84.356C282.066 84.356 281.914 84.308 281.818 84.212C281.73 84.108 281.686 83.976 281.686 83.816V83.66C281.686 83.5 281.73 83.372 281.818 83.276C281.914 83.172 282.066 83.12 282.274 83.12C282.482 83.12 282.63 83.172 282.718 83.276C282.814 83.372 282.862 83.5 282.862 83.66V83.816C282.862 83.976 282.814 84.108 282.718 84.212C282.63 84.308 282.482 84.356 282.274 84.356ZM281.794 85.808H282.754V92H281.794V85.808ZM287.418 92.144C286.986 92.144 286.598 92.068 286.254 91.916C285.91 91.764 285.618 91.548 285.378 91.268C285.146 90.988 284.966 90.648 284.838 90.248C284.718 89.848 284.658 89.4 284.658 88.904C284.658 88.408 284.718 87.96 284.838 87.56C284.966 87.16 285.146 86.82 285.378 86.54C285.618 86.26 285.91 86.044 286.254 85.892C286.598 85.74 286.986 85.664 287.418 85.664C288.034 85.664 288.526 85.8 288.894 86.072C289.27 86.336 289.55 86.684 289.734 87.116L288.93 87.524C288.818 87.204 288.634 86.956 288.378 86.78C288.122 86.604 287.802 86.516 287.418 86.516C287.13 86.516 286.878 86.564 286.662 86.66C286.446 86.748 286.266 86.876 286.122 87.044C285.978 87.204 285.87 87.4 285.798 87.632C285.726 87.856 285.69 88.104 285.69 88.376V89.432C285.69 89.976 285.834 90.424 286.122 90.776C286.418 91.12 286.85 91.292 287.418 91.292C288.194 91.292 288.754 90.932 289.098 90.212L289.794 90.68C289.594 91.128 289.294 91.484 288.894 91.748C288.502 92.012 288.01 92.144 287.418 92.144ZM295.969 92C295.609 92 295.349 91.904 295.189 91.712C295.037 91.52 294.941 91.28 294.901 90.992H294.841C294.705 91.376 294.481 91.664 294.169 91.856C293.857 92.048 293.485 92.144 293.053 92.144C292.397 92.144 291.885 91.976 291.517 91.64C291.157 91.304 290.977 90.848 290.977 90.272C290.977 89.688 291.189 89.24 291.613 88.928C292.045 88.616 292.713 88.46 293.617 88.46H294.841V87.848C294.841 87.408 294.721 87.072 294.481 86.84C294.241 86.608 293.873 86.492 293.377 86.492C293.001 86.492 292.685 86.576 292.429 86.744C292.181 86.912 291.973 87.136 291.805 87.416L291.229 86.876C291.397 86.54 291.665 86.256 292.033 86.024C292.401 85.784 292.865 85.664 293.425 85.664C294.177 85.664 294.761 85.848 295.177 86.216C295.593 86.584 295.801 87.096 295.801 87.752V91.16H296.509V92H295.969ZM293.209 91.328C293.449 91.328 293.669 91.3 293.869 91.244C294.069 91.188 294.241 91.108 294.385 91.004C294.529 90.9 294.641 90.78 294.721 90.644C294.801 90.508 294.841 90.36 294.841 90.2V89.18H293.569C293.017 89.18 292.613 89.26 292.357 89.42C292.109 89.58 291.985 89.812 291.985 90.116V90.368C291.985 90.672 292.093 90.908 292.309 91.076C292.533 91.244 292.833 91.328 293.209 91.328ZM299.22 92C298.884 92 298.628 91.908 298.452 91.724C298.284 91.532 298.2 91.292 298.2 91.004V83.12H299.16V91.16H300.072V92H299.22ZM228.52 108C228.16 108 227.9 107.904 227.74 107.712C227.588 107.52 227.492 107.28 227.452 106.992H227.392C227.256 107.376 227.032 107.664 226.72 107.856C226.408 108.048 226.036 108.144 225.604 108.144C224.948 108.144 224.436 107.976 224.068 107.64C223.708 107.304 223.528 106.848 223.528 106.272C223.528 105.688 223.74 105.24 224.164 104.928C224.596 104.616 225.264 104.46 226.168 104.46H227.392V103.848C227.392 103.408 227.272 103.072 227.032 102.84C226.792 102.608 226.424 102.492 225.928 102.492C225.552 102.492 225.236 102.576 224.98 102.744C224.732 102.912 224.524 103.136 224.356 103.416L223.78 102.876C223.948 102.54 224.216 102.256 224.584 102.024C224.952 101.784 225.416 101.664 225.976 101.664C226.728 101.664 227.312 101.848 227.728 102.216C228.144 102.584 228.352 103.096 228.352 103.752V107.16H229.06V108H228.52ZM225.76 107.328C226 107.328 226.22 107.3 226.42 107.244C226.62 107.188 226.792 107.108 226.936 107.004C227.08 106.9 227.192 106.78 227.272 106.644C227.352 106.508 227.392 106.36 227.392 106.2V105.18H226.12C225.568 105.18 225.164 105.26 224.908 105.42C224.66 105.58 224.536 105.812 224.536 106.116V106.368C224.536 106.672 224.644 106.908 224.86 107.076C225.084 107.244 225.384 107.328 225.76 107.328ZM231.77 108C231.434 108 231.178 107.908 231.002 107.724C230.834 107.532 230.75 107.292 230.75 107.004V99.12H231.71V107.16H232.622V108H231.77ZM239.56 108.684C239.56 109.324 239.308 109.792 238.804 110.088C238.308 110.392 237.56 110.544 236.56 110.544C235.592 110.544 234.896 110.412 234.472 110.148C234.048 109.884 233.836 109.508 233.836 109.02C233.836 108.684 233.924 108.42 234.1 108.228C234.276 108.044 234.516 107.908 234.82 107.82V107.688C234.452 107.512 234.268 107.224 234.268 106.824C234.268 106.512 234.368 106.276 234.568 106.116C234.768 105.948 235.024 105.824 235.336 105.744V105.696C234.968 105.52 234.68 105.268 234.472 104.94C234.272 104.612 234.172 104.232 234.172 103.8C234.172 103.488 234.228 103.2 234.34 102.936C234.452 102.672 234.608 102.448 234.808 102.264C235.016 102.072 235.26 101.924 235.54 101.82C235.828 101.716 236.148 101.664 236.5 101.664C236.94 101.664 237.332 101.744 237.676 101.904V101.796C237.676 101.556 237.732 101.36 237.844 101.208C237.956 101.048 238.14 100.968 238.396 100.968H239.32V101.808H238.144V102.204C238.368 102.396 238.54 102.628 238.66 102.9C238.788 103.164 238.852 103.464 238.852 103.8C238.852 104.112 238.796 104.4 238.684 104.664C238.572 104.928 238.412 105.156 238.204 105.348C238.004 105.532 237.76 105.676 237.472 105.78C237.184 105.884 236.864 105.936 236.512 105.936C236.312 105.936 236.112 105.916 235.912 105.876C235.704 105.932 235.516 106.016 235.348 106.128C235.18 106.232 235.096 106.38 235.096 106.572C235.096 106.756 235.184 106.88 235.36 106.944C235.536 107.008 235.764 107.04 236.044 107.04H237.364C238.132 107.04 238.688 107.188 239.032 107.484C239.384 107.772 239.56 108.172 239.56 108.684ZM238.66 108.756C238.66 108.508 238.564 108.308 238.372 108.156C238.188 108.012 237.856 107.94 237.376 107.94H235.312C234.928 108.116 234.736 108.396 234.736 108.78C234.736 109.052 234.836 109.284 235.036 109.476C235.244 109.668 235.592 109.764 236.08 109.764H236.968C237.504 109.764 237.92 109.68 238.216 109.512C238.512 109.344 238.66 109.092 238.66 108.756ZM236.512 105.168C236.92 105.168 237.244 105.072 237.484 104.88C237.724 104.68 237.844 104.376 237.844 103.968V103.632C237.844 103.224 237.724 102.924 237.484 102.732C237.244 102.532 236.92 102.432 236.512 102.432C236.104 102.432 235.78 102.532 235.54 102.732C235.3 102.924 235.18 103.224 235.18 103.632V103.968C235.18 104.376 235.3 104.68 235.54 104.88C235.78 105.072 236.104 105.168 236.512 105.168ZM243.269 108.144C242.853 108.144 242.473 108.068 242.129 107.916C241.785 107.764 241.489 107.548 241.241 107.268C241.001 106.98 240.813 106.64 240.677 106.248C240.541 105.848 240.473 105.4 240.473 104.904C240.473 104.416 240.541 103.972 240.677 103.572C240.813 103.172 241.001 102.832 241.241 102.552C241.489 102.264 241.785 102.044 242.129 101.892C242.473 101.74 242.853 101.664 243.269 101.664C243.685 101.664 244.061 101.74 244.397 101.892C244.741 102.044 245.037 102.264 245.285 102.552C245.533 102.832 245.725 103.172 245.861 103.572C245.997 103.972 246.065 104.416 246.065 104.904C246.065 105.4 245.997 105.848 245.861 106.248C245.725 106.64 245.533 106.98 245.285 107.268C245.037 107.548 244.741 107.764 244.397 107.916C244.061 108.068 243.685 108.144 243.269 108.144ZM243.269 107.292C243.789 107.292 244.213 107.132 244.541 106.812C244.869 106.492 245.033 106.004 245.033 105.348V104.46C245.033 103.804 244.869 103.316 244.541 102.996C244.213 102.676 243.789 102.516 243.269 102.516C242.749 102.516 242.325 102.676 241.997 102.996C241.669 103.316 241.505 103.804 241.505 104.46V105.348C241.505 106.004 241.669 106.492 241.997 106.812C242.325 107.132 242.749 107.292 243.269 107.292ZM247.964 108V101.808H248.924V102.948H248.984C249.096 102.652 249.296 102.388 249.584 102.156C249.872 101.924 250.268 101.808 250.772 101.808H251.144V102.768H250.58C250.06 102.768 249.652 102.868 249.356 103.068C249.068 103.26 248.924 103.504 248.924 103.8V108H247.964ZM253.17 100.356C252.962 100.356 252.81 100.308 252.714 100.212C252.626 100.108 252.582 99.976 252.582 99.816V99.66C252.582 99.5 252.626 99.372 252.714 99.276C252.81 99.172 252.962 99.12 253.17 99.12C253.378 99.12 253.526 99.172 253.614 99.276C253.71 99.372 253.758 99.5 253.758 99.66V99.816C253.758 99.976 253.71 100.108 253.614 100.212C253.526 100.308 253.378 100.356 253.17 100.356ZM252.69 101.808H253.65V108H252.69V101.808ZM257.378 108C257.042 108 256.786 107.908 256.61 107.724C256.442 107.532 256.358 107.284 256.358 106.98V102.648H255.338V101.808H255.914C256.122 101.808 256.262 101.768 256.334 101.688C256.414 101.6 256.454 101.452 256.454 101.244V100.092H257.318V101.808H258.674V102.648H257.318V107.16H258.578V108H257.378ZM260.537 99.12H261.497V102.816H261.545C261.697 102.464 261.909 102.184 262.181 101.976C262.461 101.768 262.833 101.664 263.297 101.664C263.937 101.664 264.441 101.872 264.809 102.288C265.185 102.696 265.373 103.276 265.373 104.028V108H264.413V104.196C264.413 103.084 263.945 102.528 263.009 102.528C262.817 102.528 262.629 102.552 262.445 102.6C262.269 102.648 262.109 102.72 261.965 102.816C261.821 102.912 261.705 103.036 261.617 103.188C261.537 103.332 261.497 103.504 261.497 103.704V108H260.537V99.12ZM267.678 108V101.808H268.638V102.816H268.686C268.758 102.656 268.838 102.508 268.926 102.372C269.022 102.228 269.134 102.104 269.262 102C269.398 101.896 269.554 101.816 269.73 101.76C269.906 101.696 270.114 101.664 270.354 101.664C270.762 101.664 271.138 101.764 271.482 101.964C271.826 102.156 272.082 102.476 272.25 102.924H272.274C272.386 102.588 272.594 102.296 272.898 102.048C273.21 101.792 273.63 101.664 274.158 101.664C274.79 101.664 275.282 101.872 275.634 102.288C275.994 102.696 276.174 103.276 276.174 104.028V108H275.214V104.196C275.214 103.644 275.106 103.228 274.89 102.948C274.674 102.668 274.33 102.528 273.858 102.528C273.666 102.528 273.482 102.552 273.306 102.6C273.138 102.648 272.986 102.72 272.85 102.816C272.714 102.912 272.606 103.036 272.526 103.188C272.446 103.332 272.406 103.504 272.406 103.704V108H271.446V104.196C271.446 103.644 271.338 103.228 271.122 102.948C270.906 102.668 270.57 102.528 270.114 102.528C269.922 102.528 269.738 102.552 269.562 102.6C269.386 102.648 269.23 102.72 269.094 102.816C268.958 102.912 268.846 103.036 268.758 103.188C268.678 103.332 268.638 103.504 268.638 103.704V108H267.678Z" fill="#1192E8"/>
<path d="M370.521 241.649L374.2 239.477L370 238.695L370.521 241.649Z" fill="#6929C4"/>
<path d="M342.121 68.4497L343.889 64.5607L340 66.3284L342.121 68.4497Z" fill="#1192E8"/>
<line x1="29.6448" y1="381.648" x2="341.645" y2="66.6481" stroke="#1192E8"/>
</svg>
