<svg width="503" height="359" viewBox="0 0 503 359" fill="none" xmlns="http://www.w3.org/2000/svg">
<g clip-path="url(#clip0_260_458)">
<path opacity="0.4" d="M485.468 271.406H4.28717V311.406H485.468V271.406Z" fill="#F2F4F8"/>
<path opacity="0.4" d="M485.468 191.406H4.28717V231.406H485.468V191.406Z" fill="#F2F4F8"/>
<path opacity="0.4" d="M485.468 111.406H4.28717V151.406H485.468V111.406Z" fill="#F2F4F8"/>
<path opacity="0.4" d="M485.468 31.4058H4.28717V71.4058H485.468V31.4058Z" fill="#F2F4F8"/>
<path d="M125.586 31.4058V350.288" stroke="#DDE1E6"/>
<path d="M245.378 31.4058V350.288" stroke="#DDE1E6"/>
<path d="M365.169 31.4058V350.288" stroke="#DDE1E6"/>
<path d="M484.968 31.9058H4.78717V349.788H484.968V31.9058Z" stroke="#DDE1E6"/>
<path d="M88.8653 93.125C128.154 173.296 139.726 223.421 171.729 297.713" stroke="#0F62FE"/>
<path d="M26.0032 103.411C54.3168 61.983 68.2123 58.5397 88.8653 93.6964" stroke="#0F62FE"/>
<path d="M171.729 297.712C187.588 327.2 200.254 325.249 228.305 295.427" stroke="#0F62FE"/>
<path d="M228.305 295.427C263.798 262.6 287.738 244.565 315.169 244.565" stroke="#0F62FE"/>
<path d="M315.169 244.565C341.457 245.137 356.315 224.564 391.746 195.99" stroke="#0F62FE"/>
<path d="M391.746 195.99C410.796 180.461 422.406 177.094 443.75 174.846" stroke="#0F62FE"/>
<path d="M196.874 321.715C199.083 321.715 200.874 319.923 200.874 317.714C200.874 315.505 199.083 313.714 196.874 313.714C194.665 313.714 192.874 315.505 192.874 317.714C192.874 319.923 194.665 321.715 196.874 321.715Z" fill="#A56EFF"/>
<path d="M206.017 318.285C208.226 318.285 210.017 316.494 210.017 314.285C210.017 312.076 208.226 310.285 206.017 310.285C203.808 310.285 202.017 312.076 202.017 314.285C202.017 316.494 203.808 318.285 206.017 318.285Z" fill="#A56EFF"/>
<path d="M205.611 315.329C205.872 315.237 206.009 314.952 205.918 314.692L204.431 310.444C204.34 310.184 204.055 310.046 203.794 310.137C203.533 310.229 203.396 310.514 203.487 310.775L204.809 314.55L201.033 315.871C200.773 315.963 200.635 316.248 200.727 316.508C200.818 316.769 201.103 316.906 201.364 316.815L205.611 315.329ZM174.369 300.449L176.298 301.378L176.732 300.477L174.803 299.548L174.369 300.449ZM180.156 303.235L184.013 305.092L184.447 304.191L180.589 302.334L180.156 303.235ZM187.87 306.949L191.728 308.807L192.162 307.906L188.304 306.048L187.87 306.949ZM195.585 310.664L199.443 312.521L199.877 311.62L196.019 309.763L195.585 310.664ZM203.3 314.379L205.229 315.307L205.663 314.406L203.734 313.478L203.3 314.379Z" fill="black"/>
<path d="M171.729 302.284C173.938 302.284 175.729 300.493 175.729 298.284C175.729 296.075 173.938 294.284 171.729 294.284C169.52 294.284 167.729 296.075 167.729 298.284C167.729 300.493 169.52 302.284 171.729 302.284Z" fill="#A56EFF"/>
<path d="M172.103 299.315C172.357 299.424 172.651 299.306 172.76 299.052L174.533 294.916C174.641 294.662 174.524 294.368 174.27 294.26C174.016 294.151 173.722 294.268 173.613 294.522L172.038 298.199L168.361 296.623C168.107 296.514 167.813 296.632 167.705 296.886C167.596 297.14 167.713 297.434 167.967 297.542L172.103 299.315ZM142.12 224.75L142.862 226.607L143.791 226.235L143.048 224.378L142.12 224.75ZM144.348 230.321L145.834 234.036L146.763 233.665L145.277 229.95L144.348 230.321ZM147.32 237.751L148.806 241.465L149.734 241.094L148.248 237.379L147.32 237.751ZM150.292 245.18L151.777 248.894L152.706 248.523L151.22 244.808L150.292 245.18ZM153.263 252.609L154.749 256.323L155.678 255.952L154.192 252.237L153.263 252.609ZM156.235 260.038L157.721 263.753L158.649 263.381L157.163 259.667L156.235 260.038ZM159.207 267.467L160.692 271.182L161.621 270.81L160.135 267.096L159.207 267.467ZM162.178 274.896L163.664 278.611L164.593 278.24L163.107 274.525L162.178 274.896ZM165.15 282.326L166.636 286.04L167.564 285.669L166.078 281.954L165.15 282.326ZM168.122 289.755L169.607 293.469L170.536 293.098L169.05 289.383L168.122 289.755ZM171.093 297.184L171.836 299.041L172.765 298.67L172.022 296.812L171.093 297.184Z" fill="black"/>
<path d="M144.298 233.707C146.507 233.707 148.298 231.916 148.298 229.707C148.298 227.498 146.507 225.707 144.298 225.707C142.089 225.707 140.298 227.498 140.298 229.707C140.298 231.916 142.089 233.707 144.298 233.707Z" fill="#A56EFF"/>
<path d="M144.665 229.592C144.917 229.705 145.213 229.592 145.326 229.34L147.167 225.234C147.28 224.982 147.167 224.686 146.915 224.573C146.663 224.46 146.367 224.573 146.254 224.825L144.618 228.475L140.968 226.839C140.716 226.726 140.42 226.838 140.307 227.09C140.194 227.342 140.307 227.638 140.559 227.751L144.665 229.592ZM116.972 157.308L117.657 159.108L118.592 158.752L117.906 156.952L116.972 157.308ZM119.029 162.708L120.401 166.309L121.335 165.953L119.963 162.352L119.029 162.708ZM121.772 169.909L123.144 173.509L124.078 173.153L122.707 169.553L121.772 169.909ZM124.515 177.11L125.887 180.71L126.821 180.354L125.45 176.754L124.515 177.11ZM127.258 184.31L128.63 187.91L129.564 187.554L128.193 183.954L127.258 184.31ZM130.001 191.511L131.373 195.111L132.307 194.755L130.936 191.155L130.001 191.511ZM132.744 198.711L134.116 202.312L135.05 201.956L133.679 198.355L132.744 198.711ZM135.487 205.912L136.859 209.512L137.793 209.156L136.422 205.556L135.487 205.912ZM138.231 213.112L139.602 216.713L140.537 216.357L139.165 212.756L138.231 213.112ZM140.974 220.313L142.345 223.913L143.28 223.557L141.908 219.957L140.974 220.313ZM143.717 227.514L144.402 229.314L145.337 228.958L144.651 227.158L143.717 227.514Z" fill="black"/>
<path d="M116.867 159.416C119.076 159.416 120.867 157.625 120.867 155.416C120.867 153.207 119.076 151.416 116.867 151.416C114.658 151.416 112.867 153.207 112.867 155.416C112.867 157.625 114.658 159.416 116.867 159.416Z" fill="#A56EFF"/>
<path d="M117.267 155.313C117.526 155.409 117.813 155.276 117.908 155.016L119.459 150.792C119.554 150.533 119.421 150.246 119.162 150.15C118.903 150.055 118.615 150.188 118.52 150.447L117.142 154.202L113.387 152.824C113.128 152.729 112.84 152.862 112.745 153.121C112.65 153.38 112.783 153.668 113.042 153.763L117.267 155.313ZM88.4115 93.3351L89.2052 95.0495L90.1127 94.6294L89.319 92.915L88.4115 93.3351ZM90.7927 98.4784L92.3801 101.907L93.2876 101.487L91.7001 98.0582L90.7927 98.4784ZM93.9675 105.336L95.5549 108.765L96.4624 108.345L94.875 104.916L93.9675 105.336ZM97.1424 112.194L98.7298 115.622L99.6373 115.202L98.0498 111.774L97.1424 112.194ZM100.317 119.051L101.905 122.48L102.812 122.06L101.225 118.631L100.317 119.051ZM103.492 125.909L105.08 129.338L105.987 128.918L104.4 125.489L103.492 125.909ZM106.667 132.767L108.254 136.196L109.162 135.775L107.574 132.347L106.667 132.767ZM109.842 139.624L111.429 143.053L112.337 142.633L110.749 139.204L109.842 139.624ZM113.017 146.482L114.604 149.911L115.512 149.491L113.924 146.062L113.017 146.482ZM116.191 153.34L116.985 155.054L117.893 154.634L117.099 152.92L116.191 153.34Z" fill="black"/>
<path d="M88.2938 96.5539C90.5031 96.5539 92.2941 94.7629 92.2941 92.5535C92.2941 90.3442 90.5031 88.5532 88.2938 88.5532C86.0845 88.5532 84.2935 90.3442 84.2935 92.5535C84.2935 94.7629 86.0845 96.5539 88.2938 96.5539Z" fill="#A56EFF"/>
<path d="M134.538 147.341C134.813 147.366 135.056 147.164 135.081 146.889L135.489 142.407C135.514 142.132 135.311 141.889 135.036 141.864C134.761 141.839 134.518 142.042 134.493 142.317L134.13 146.3L130.147 145.938C129.872 145.913 129.629 146.116 129.604 146.391C129.579 146.666 129.781 146.909 130.056 146.934L134.538 147.341ZM88.4811 92.3018L134.199 147.163L134.967 146.523L89.2494 91.6616L88.4811 92.3018Z" fill="#8A3FFC"/>
<path d="M4.6407 31.0522C4.44544 30.857 4.12886 30.857 3.93359 31.0522L0.75161 34.2342C0.556348 34.4295 0.556348 34.7461 0.75161 34.9413C0.946872 35.1366 1.26346 35.1366 1.45872 34.9413L4.28715 32.1129L7.11557 34.9413C7.31084 35.1366 7.62742 35.1366 7.82268 34.9413C8.01794 34.7461 8.01794 34.4295 7.82268 34.2342L4.6407 31.0522ZM4.78715 349.145V31.4058H3.78715V349.145H4.78715Z" fill="black"/>
<path d="M485.822 349.499C486.017 349.303 486.017 348.987 485.822 348.792L482.64 345.61C482.444 345.414 482.128 345.414 481.932 345.61C481.737 345.805 481.737 346.121 481.932 346.317L484.761 349.145L481.932 351.974C481.737 352.169 481.737 352.485 481.932 352.681C482.128 352.876 482.444 352.876 482.64 352.681L485.822 349.499ZM4.28717 349.645H485.468V348.645H4.28717V349.645Z" fill="black"/>
<path d="M75.264 108.793C74.5973 108.793 74.1093 108.539 73.8 108.033C73.496 107.526 73.344 106.817 73.344 105.905C73.344 104.993 73.496 104.283 73.8 103.777C74.1093 103.27 74.5973 103.017 75.264 103.017C75.9307 103.017 76.416 103.27 76.72 103.777C77.0293 104.283 77.184 104.993 77.184 105.905C77.184 106.817 77.0293 107.526 76.72 108.033C76.416 108.539 75.9307 108.793 75.264 108.793ZM75.264 108.209C75.4827 108.209 75.6693 108.163 75.824 108.073C75.9787 107.982 76.104 107.854 76.2 107.689C76.296 107.523 76.3653 107.329 76.408 107.105C76.456 106.881 76.48 106.633 76.48 106.361V105.449C76.48 105.177 76.456 104.929 76.408 104.705C76.3653 104.481 76.296 104.286 76.2 104.121C76.104 103.955 75.9787 103.827 75.824 103.737C75.6693 103.646 75.4827 103.601 75.264 103.601C75.0453 103.601 74.8587 103.646 74.704 103.737C74.5493 103.827 74.424 103.955 74.328 104.121C74.232 104.286 74.16 104.481 74.112 104.705C74.0693 104.929 74.048 105.177 74.048 105.449V106.361C74.048 106.633 74.0693 106.881 74.112 107.105C74.16 107.329 74.232 107.523 74.328 107.689C74.424 107.854 74.5493 107.982 74.704 108.073C74.8587 108.163 75.0453 108.209 75.264 108.209Z" fill="black"/>
<path d="M177.988 163.04C177.488 163.04 177.122 162.85 176.89 162.47C176.662 162.09 176.548 161.558 176.548 160.874C176.548 160.19 176.662 159.658 176.89 159.278C177.122 158.898 177.488 158.708 177.988 158.708C178.488 158.708 178.852 158.898 179.08 159.278C179.312 159.658 179.428 160.19 179.428 160.874C179.428 161.558 179.312 162.09 179.08 162.47C178.852 162.85 178.488 163.04 177.988 163.04ZM177.988 162.602C178.152 162.602 178.292 162.568 178.408 162.5C178.524 162.432 178.618 162.336 178.69 162.212C178.762 162.088 178.814 161.942 178.846 161.774C178.882 161.606 178.9 161.42 178.9 161.216V160.532C178.9 160.328 178.882 160.142 178.846 159.974C178.814 159.806 178.762 159.66 178.69 159.536C178.618 159.412 178.524 159.316 178.408 159.248C178.292 159.18 178.152 159.146 177.988 159.146C177.824 159.146 177.684 159.18 177.568 159.248C177.452 159.316 177.358 159.412 177.286 159.536C177.214 159.66 177.16 159.806 177.124 159.974C177.092 160.142 177.076 160.328 177.076 160.532V161.216C177.076 161.42 177.092 161.606 177.124 161.774C177.16 161.942 177.214 162.088 177.286 162.212C177.358 162.336 177.452 162.432 177.568 162.5C177.684 162.568 177.824 162.602 177.988 162.602Z" fill="#8A3FFC"/>
<path d="M96.4269 176.131V175.539H97.9869V171.043H97.9309L96.5229 172.355L96.1309 171.931L97.6109 170.547H98.6589V175.539H100.099V176.131H96.4269Z" fill="black"/>
<path d="M126.275 243.564H122.611V242.876L124.435 241.196C124.696 240.956 124.915 240.703 125.091 240.436C125.267 240.164 125.355 239.892 125.355 239.62V239.524C125.355 239.215 125.269 238.964 125.099 238.772C124.928 238.58 124.669 238.484 124.323 238.484C124.152 238.484 124.003 238.508 123.875 238.556C123.747 238.604 123.635 238.671 123.539 238.756C123.448 238.842 123.371 238.943 123.307 239.06C123.248 239.172 123.2 239.295 123.163 239.428L122.563 239.196C122.616 239.031 122.688 238.871 122.779 238.716C122.875 238.556 122.992 238.415 123.131 238.292C123.275 238.17 123.445 238.071 123.643 237.996C123.845 237.922 124.083 237.884 124.355 237.884C124.627 237.884 124.869 237.924 125.083 238.004C125.296 238.084 125.475 238.196 125.619 238.34C125.763 238.484 125.872 238.655 125.947 238.852C126.027 239.05 126.067 239.268 126.067 239.508C126.067 239.727 126.035 239.93 125.971 240.116C125.912 240.303 125.829 240.482 125.723 240.652C125.616 240.818 125.485 240.98 125.331 241.14C125.181 241.3 125.019 241.46 124.843 241.62L123.339 242.972H126.275V243.564Z" fill="black"/>
<path d="M144.672 315.783C145.05 315.783 145.333 315.698 145.52 315.527C145.712 315.351 145.808 315.127 145.808 314.855V314.799C145.808 314.506 145.714 314.287 145.528 314.143C145.346 313.994 145.106 313.919 144.808 313.919C144.52 313.919 144.285 313.983 144.104 314.111C143.922 314.234 143.773 314.402 143.656 314.615L143.16 314.231C143.229 314.119 143.312 314.01 143.408 313.903C143.509 313.791 143.626 313.692 143.76 313.607C143.893 313.522 144.048 313.452 144.224 313.399C144.4 313.346 144.6 313.319 144.824 313.319C145.058 313.319 145.28 313.351 145.488 313.415C145.696 313.474 145.874 313.564 146.024 313.687C146.178 313.804 146.298 313.951 146.384 314.127C146.474 314.303 146.52 314.503 146.52 314.727C146.52 314.908 146.49 315.071 146.432 315.215C146.378 315.359 146.304 315.484 146.208 315.591C146.112 315.698 145.997 315.788 145.864 315.863C145.736 315.938 145.597 315.994 145.448 316.031V316.063C145.597 316.095 145.741 316.148 145.88 316.223C146.024 316.292 146.149 316.386 146.256 316.503C146.368 316.615 146.456 316.754 146.52 316.919C146.589 317.079 146.624 317.263 146.624 317.471C146.624 317.711 146.578 317.932 146.488 318.135C146.397 318.332 146.269 318.503 146.104 318.647C145.938 318.786 145.738 318.895 145.504 318.975C145.269 319.055 145.01 319.095 144.728 319.095C144.488 319.095 144.274 319.068 144.088 319.015C143.901 318.962 143.736 318.89 143.592 318.799C143.448 318.708 143.32 318.607 143.208 318.495C143.101 318.383 143.005 318.266 142.92 318.143L143.424 317.759C143.493 317.871 143.568 317.972 143.648 318.063C143.733 318.154 143.826 318.231 143.928 318.295C144.029 318.359 144.144 318.41 144.272 318.447C144.4 318.479 144.549 318.495 144.72 318.495C145.114 318.495 145.413 318.407 145.616 318.231C145.818 318.05 145.92 317.794 145.92 317.463V317.399C145.92 317.068 145.818 316.815 145.616 316.639C145.413 316.458 145.114 316.367 144.72 316.367H144.064V315.783H144.672Z" fill="black"/>
<path d="M184.285 336.866H181.837L181.677 338.994H181.733C181.866 338.807 182.016 338.658 182.181 338.546C182.352 338.434 182.584 338.378 182.877 338.378C183.117 338.378 183.338 338.418 183.541 338.498C183.744 338.578 183.92 338.693 184.069 338.842C184.218 338.986 184.333 339.165 184.413 339.378C184.498 339.591 184.541 339.834 184.541 340.106C184.541 340.378 184.498 340.629 184.413 340.858C184.328 341.082 184.202 341.277 184.037 341.442C183.877 341.602 183.68 341.727 183.445 341.818C183.216 341.909 182.954 341.954 182.661 341.954C182.426 341.954 182.218 341.927 182.037 341.874C181.861 341.821 181.704 341.749 181.565 341.658C181.426 341.567 181.304 341.466 181.197 341.354C181.096 341.242 181.002 341.125 180.917 341.002L181.421 340.618C181.49 340.73 181.562 340.831 181.637 340.922C181.717 341.013 181.802 341.09 181.893 341.154C181.989 341.218 182.098 341.269 182.221 341.306C182.344 341.338 182.49 341.354 182.661 341.354C183.045 341.354 183.336 341.253 183.533 341.05C183.73 340.847 183.829 340.562 183.829 340.194V340.114C183.829 339.746 183.73 339.461 183.533 339.258C183.336 339.055 183.045 338.954 182.661 338.954C182.405 338.954 182.202 339.002 182.053 339.098C181.909 339.189 181.778 339.298 181.661 339.426L181.093 339.346L181.293 336.274H184.285V336.866Z" fill="black"/>
<path d="M237.02 327V325.904H234.324V325.312L236.66 321.416H237.66V325.344H238.468V325.904H237.66V327H237.02ZM234.956 325.344H237.02V321.936H236.98L234.956 325.344Z" fill="black"/>
<path d="M150.539 150.919C150.663 150.661 150.663 150.618 150.663 150.532C150.663 150.103 150.271 150.103 149.94 150.103H139.966C139.636 150.103 139.243 150.103 139.243 150.532C139.243 150.618 139.264 150.704 139.346 150.876L144.488 162.479C144.654 162.866 144.819 162.909 144.963 162.909C145.087 162.909 145.191 162.866 145.273 162.78L150.539 150.919ZM140.296 150.962H149.61L144.963 161.469L140.296 150.962Z" fill="#8A3FFC"/>
<path d="M167.641 164.278C167.641 164.23 167.641 164.198 167.38 163.926C165.844 162.312 164.983 159.674 164.983 156.414C164.983 153.313 165.705 150.644 167.487 148.757C167.641 148.614 167.641 148.582 167.641 148.534C167.641 148.438 167.564 148.406 167.503 148.406C167.303 148.406 166.043 149.557 165.291 151.123C164.507 152.737 164.154 154.448 164.154 156.414C164.154 157.836 164.369 159.738 165.168 161.449C166.074 163.367 167.334 164.406 167.503 164.406C167.564 164.406 167.641 164.374 167.641 164.278Z" fill="#8A3FFC"/>
<path d="M175.303 152.355C175.303 150.724 174.811 149.142 173.552 149.142C171.401 149.142 169.112 153.825 169.112 157.342C169.112 158.077 169.266 160.554 170.879 160.554C172.968 160.554 175.303 155.983 175.303 152.355ZM170.648 154.608C170.879 153.665 171.201 152.323 171.816 151.188C172.323 150.229 172.86 149.461 173.536 149.461C174.043 149.461 174.381 149.909 174.381 151.443C174.381 152.019 174.335 152.818 173.89 154.608H170.648ZM173.782 155.088C173.398 156.654 173.076 157.661 172.523 158.668C172.077 159.483 171.539 160.235 170.894 160.235C170.418 160.235 170.034 159.851 170.034 158.269C170.034 157.23 170.28 156.143 170.525 155.088H173.782Z" fill="#8A3FFC"/>
<path d="M183.669 156.414C183.669 155.199 183.515 153.217 182.655 151.363C181.748 149.445 180.489 148.406 180.32 148.406C180.258 148.406 180.181 148.438 180.181 148.534C180.181 148.582 180.181 148.614 180.443 148.885C181.979 150.5 182.839 153.137 182.839 156.398C182.839 159.499 182.117 162.168 180.335 164.054C180.181 164.198 180.181 164.23 180.181 164.278C180.181 164.374 180.258 164.406 180.32 164.406C180.519 164.406 181.779 163.255 182.532 161.688C183.315 160.058 183.669 158.332 183.669 156.414Z" fill="#8A3FFC"/>
<path d="M25.6737 23.0315C25.6737 22.962 25.6737 22.9156 25.247 22.5213C22.7368 20.1787 21.3311 16.3517 21.3311 11.6201C21.3311 7.12053 22.5109 3.24714 25.4227 0.510266C25.6737 0.30152 25.6737 0.255133 25.6737 0.185551C25.6737 0.0463874 25.5482 0 25.4478 0C25.1215 0 23.0631 1.66996 21.8331 3.94296C20.5529 6.28555 19.9756 8.76729 19.9756 11.6201C19.9756 13.6844 20.327 16.4445 21.6323 18.9262C23.1133 21.7095 25.1717 23.2171 25.4478 23.2171C25.5482 23.2171 25.6737 23.1707 25.6737 23.0315Z" fill="black"/>
<path d="M38.1939 5.72889C38.1939 3.3631 37.3906 1.06689 35.3322 1.06689C31.818 1.06689 28.0778 7.86274 28.0778 12.9654C28.0778 14.0323 28.3288 17.6274 30.9645 17.6274C34.3784 17.6274 38.1939 10.9939 38.1939 5.72889ZM30.588 8.99925C30.9645 7.6308 31.4917 5.6825 32.4957 4.03573C33.3241 2.64408 34.2027 1.53077 35.3071 1.53077C36.1355 1.53077 36.6877 2.18021 36.6877 4.40683C36.6877 5.24182 36.6124 6.40151 35.8845 8.99925H30.588ZM35.7088 9.69508C35.0812 11.9681 34.5541 13.4293 33.6504 14.8905C32.9225 16.0734 32.0439 17.1635 30.9896 17.1635C30.2115 17.1635 29.5839 16.6069 29.5839 14.3107C29.5839 12.803 29.9855 11.2259 30.3872 9.69508H35.7088Z" fill="black"/>
<path d="M46.2892 11.6201C46.2892 9.85741 46.0382 6.98137 44.6325 4.29087C43.1515 1.5076 41.0931 0 40.817 0C40.7166 0 40.5911 0.0463874 40.5911 0.185551C40.5911 0.255133 40.5911 0.30152 41.0178 0.695817C43.528 3.0384 44.9337 6.8654 44.9337 11.597C44.9337 16.0966 43.7539 19.9699 40.8421 22.7068C40.5911 22.9156 40.5911 22.962 40.5911 23.0315C40.5911 23.1707 40.7166 23.2171 40.817 23.2171C41.1433 23.2171 43.2017 21.5471 44.4317 19.2741C45.7119 16.9084 46.2892 14.4034 46.2892 11.6201Z" fill="black"/>
<path d="M502.387 346.151C502.387 343.743 501.661 341.406 499.8 341.406C496.624 341.406 493.243 348.323 493.243 353.516C493.243 354.602 493.47 358.262 495.852 358.262C498.938 358.262 502.387 351.51 502.387 346.151ZM495.512 349.48C495.852 348.087 496.329 346.104 497.236 344.428C497.985 343.011 498.779 341.878 499.778 341.878C500.526 341.878 501.025 342.539 501.025 344.805C501.025 345.655 500.957 346.836 500.299 349.48H495.512ZM500.141 350.188C499.573 352.501 499.097 353.989 498.28 355.476C497.622 356.68 496.828 357.789 495.875 357.789C495.172 357.789 494.604 357.223 494.604 354.886C494.604 353.351 494.968 351.746 495.331 350.188H500.141Z" fill="black"/>
<path d="M70.9224 92.91C70.9224 90.6242 70.2333 88.4058 68.4672 88.4058C65.4521 88.4058 62.2432 94.9716 62.2432 99.9016C62.2432 100.932 62.4585 104.406 64.7199 104.406C67.6489 104.406 70.9224 97.9968 70.9224 92.91ZM64.3968 96.0696C64.7199 94.7475 65.1721 92.8651 66.0336 91.2741C66.7443 89.9296 67.4981 88.8539 68.4457 88.8539C69.1564 88.8539 69.6302 89.4814 69.6302 91.6327C69.6302 92.4394 69.5656 93.5598 68.9411 96.0696H64.3968ZM68.7903 96.7419C68.2519 98.938 67.7996 100.35 67.0243 101.762C66.3997 102.904 65.646 103.958 64.7414 103.958C64.0738 103.958 63.5354 103.42 63.5354 101.201C63.5354 99.7447 63.8799 98.2209 64.2245 96.7419H68.7903Z" fill="black"/>
<path d="M94.9244 160.885C94.9244 158.599 94.2352 156.381 92.4692 156.381C89.4541 156.381 86.2451 162.947 86.2451 167.877C86.2451 168.907 86.4605 172.381 88.7218 172.381C91.6508 172.381 94.9244 165.972 94.9244 160.885ZM88.3988 164.045C88.7218 162.723 89.1741 160.84 90.0356 159.249C90.7463 157.905 91.5001 156.829 92.4477 156.829C93.1584 156.829 93.6322 157.456 93.6322 159.608C93.6322 160.414 93.5676 161.535 92.943 164.045H88.3988ZM92.7923 164.717C92.2538 166.913 91.8016 168.325 91.0262 169.737C90.4017 170.879 89.6479 171.933 88.7434 171.933C88.0757 171.933 87.5373 171.395 87.5373 169.176C87.5373 167.72 87.8819 166.196 88.2265 164.717H92.7923Z" fill="black"/>
<path d="M122.069 228.24C122.069 225.954 121.38 223.735 119.614 223.735C116.599 223.735 113.39 230.301 113.39 235.231C113.39 236.262 113.606 239.735 115.867 239.735C118.796 239.735 122.069 233.326 122.069 228.24ZM115.544 231.399C115.867 230.077 116.319 228.195 117.181 226.604C117.891 225.259 118.645 224.184 119.593 224.184C120.303 224.184 120.777 224.811 120.777 226.962C120.777 227.769 120.713 228.889 120.088 231.399H115.544ZM119.937 232.071C119.399 234.268 118.947 235.679 118.171 237.091C117.547 238.234 116.793 239.287 115.888 239.287C115.221 239.287 114.682 238.749 114.682 236.531C114.682 235.074 115.027 233.55 115.372 232.071H119.937Z" fill="black"/>
<path d="M143.25 301.54C143.25 299.254 142.523 297.036 140.663 297.036C137.487 297.036 134.106 303.601 134.106 308.531C134.106 309.562 134.333 313.036 136.715 313.036C139.801 313.036 143.25 306.627 143.25 301.54ZM136.375 304.7C136.715 303.377 137.192 301.495 138.099 299.904C138.848 298.559 139.642 297.484 140.64 297.484C141.389 297.484 141.888 298.111 141.888 300.263C141.888 301.069 141.82 302.19 141.162 304.7H136.375ZM141.003 305.372C140.436 307.568 139.96 308.98 139.143 310.391C138.485 311.534 137.691 312.587 136.738 312.587C136.035 312.587 135.467 312.05 135.467 309.831C135.467 308.375 135.83 306.851 136.193 305.372H141.003Z" fill="black"/>
<path d="M180.967 325.325C180.967 323.039 180.241 320.82 178.38 320.82C175.204 320.82 171.823 327.386 171.823 332.316C171.823 333.347 172.05 336.82 174.432 336.82C177.518 336.82 180.967 330.411 180.967 325.325ZM174.092 328.484C174.432 327.162 174.909 325.28 175.816 323.689C176.565 322.344 177.359 321.268 178.358 321.268C179.106 321.268 179.605 321.896 179.605 324.047C179.605 324.854 179.537 325.974 178.879 328.484H174.092ZM178.721 329.156C178.153 331.353 177.677 332.764 176.86 334.176C176.202 335.319 175.408 336.372 174.455 336.372C173.752 336.372 173.185 335.834 173.185 333.616C173.185 332.159 173.548 330.635 173.911 329.156H178.721Z" fill="black"/>
<path d="M235.828 309.865C235.828 307.579 235.102 305.36 233.242 305.36C230.065 305.36 226.685 311.926 226.685 316.856C226.685 317.887 226.912 321.36 229.294 321.36C232.38 321.36 235.828 314.951 235.828 309.865ZM228.954 313.024C229.294 311.702 229.77 309.82 230.678 308.229C231.427 306.884 232.221 305.809 233.219 305.809C233.968 305.809 234.467 306.436 234.467 308.587C234.467 309.394 234.399 310.514 233.741 313.024H228.954ZM233.582 313.696C233.015 315.893 232.538 317.304 231.722 318.716C231.064 319.859 230.27 320.912 229.317 320.912C228.613 320.912 228.046 320.374 228.046 318.156C228.046 316.699 228.409 315.175 228.772 313.696H233.582Z" fill="black"/>
<path d="M226.243 96.7598C226.243 95.3023 226.511 93.7661 227.047 92.1514C227.582 90.5367 228.31 89.1435 229.23 87.9717C230.15 86.8 231.105 86.1284 232.094 85.9569C232.107 85.9569 232.162 85.9569 232.258 85.9569C232.354 85.9569 232.437 85.9498 232.506 85.9355C233.247 85.9927 233.824 86.3428 234.236 86.9858C234.772 87.8431 235.039 88.9934 235.039 90.4367C235.039 92.0799 234.73 93.7518 234.112 95.4522C233.494 97.1527 232.705 98.546 231.743 99.632C230.782 100.718 229.862 101.261 228.983 101.261H228.839C228.344 101.261 227.919 101.118 227.562 100.832C227.204 100.547 226.937 100.168 226.758 99.6962C226.58 99.2246 226.449 98.746 226.367 98.2601C226.284 97.7743 226.243 97.2742 226.243 96.7598ZM233.412 88.9148C233.412 87.4573 233.048 86.7286 232.32 86.7286C231.826 86.7286 231.345 87.0501 230.878 87.6931C230.411 88.3361 230.027 89.0649 229.725 89.8794C229.422 90.6939 229.189 91.4084 229.024 92.0229C228.859 92.6373 228.77 92.9945 228.756 93.0945C229.429 93.1088 230.095 93.1159 230.755 93.1159L232.753 93.0945C232.766 93.0802 232.821 92.8444 232.918 92.3872C233.014 91.9299 233.124 91.3583 233.247 90.6724C233.371 89.9866 233.426 89.4007 233.412 88.9148ZM227.85 98.2172C227.85 99.7319 228.214 100.489 228.942 100.489C229.148 100.489 229.367 100.418 229.601 100.275C229.834 100.132 230.116 99.8605 230.446 99.4604C230.775 99.0603 231.105 98.4387 231.434 97.5957C231.764 96.7526 232.094 95.7095 232.423 94.4663L232.526 94.1019H228.509C228.509 94.1448 228.447 94.4163 228.324 94.9164C228.2 95.4165 228.09 95.9738 227.994 96.5883C227.898 97.2027 227.85 97.7457 227.85 98.2172Z" fill="black"/>
<path d="M234.686 80.8345C234.686 80.7202 234.72 80.6202 234.789 80.5344C234.858 80.4487 234.961 80.4058 235.098 80.4058C235.194 80.4058 235.277 80.4416 235.345 80.513C235.414 80.5702 235.483 80.7059 235.551 80.9203C235.689 81.449 235.97 81.8563 236.396 82.1421C236.547 82.2421 236.622 82.3707 236.622 82.5279C236.622 82.6565 236.602 82.7422 236.561 82.7851C236.519 82.828 236.423 82.8923 236.272 82.978C235.682 83.2924 235.167 83.7425 234.727 84.3284C234.7 84.357 234.665 84.3998 234.624 84.457C234.583 84.5142 234.549 84.557 234.521 84.5856C234.494 84.6142 234.459 84.6285 234.418 84.6285C234.377 84.6285 234.329 84.6356 234.274 84.6499C234.178 84.6499 234.089 84.6142 234.006 84.5427C233.924 84.4713 233.876 84.3641 233.862 84.2212C233.862 83.9497 234.185 83.5282 234.83 82.9566H231.308L227.785 82.9351C227.607 82.8065 227.517 82.6708 227.517 82.5279C227.517 82.4278 227.607 82.285 227.785 82.0992H235.18C234.851 81.5562 234.686 81.1346 234.686 80.8345Z" fill="black"/>
<path d="M237.522 99.9116C237.532 99.851 237.547 99.7702 237.566 99.6691C237.585 99.5681 237.644 99.3762 237.741 99.0933C237.838 98.8104 237.935 98.573 238.032 98.3811C238.129 98.1891 238.289 98.0023 238.513 97.8204C238.736 97.6386 238.959 97.5527 239.183 97.5628C239.532 97.5628 239.823 97.6537 240.056 97.8356C240.289 98.0174 240.435 98.1891 240.493 98.3508C240.552 98.5124 240.581 98.6185 240.581 98.669C240.581 98.6892 240.586 98.6993 240.595 98.6993L240.756 98.5326C241.348 97.8861 242.023 97.5628 242.78 97.5628C243.304 97.5628 243.727 97.6992 244.047 97.9719C244.367 98.2447 244.532 98.6437 244.542 99.1691C244.552 99.6944 244.367 100.487 243.989 101.548C243.61 102.609 243.426 103.25 243.435 103.473C243.435 103.735 243.518 103.867 243.683 103.867C243.741 103.867 243.785 103.862 243.814 103.851C244.096 103.801 244.348 103.609 244.571 103.276C244.795 102.942 244.965 102.538 245.081 102.063C245.1 101.983 245.198 101.942 245.372 101.942C245.567 101.942 245.664 101.983 245.664 102.063C245.664 102.073 245.644 102.149 245.605 102.291C245.528 102.584 245.421 102.872 245.285 103.154C245.149 103.437 244.926 103.72 244.615 104.003C244.304 104.286 243.969 104.422 243.61 104.412C243.154 104.412 242.824 104.276 242.62 104.003C242.416 103.73 242.314 103.447 242.314 103.154C242.314 102.962 242.489 102.356 242.838 101.336C243.188 100.316 243.367 99.5479 243.377 99.0327C243.377 98.4367 243.163 98.1386 242.736 98.1386H242.663C241.828 98.1386 241.124 98.6488 240.552 99.6691L240.45 99.851L239.969 101.882C239.649 103.205 239.464 103.917 239.416 104.018C239.289 104.291 239.081 104.427 238.789 104.427C238.663 104.427 238.561 104.397 238.484 104.336C238.406 104.276 238.352 104.215 238.323 104.155C238.294 104.094 238.284 104.043 238.294 104.003C238.294 103.872 238.479 103.048 238.848 101.533C239.217 100.018 239.411 99.1943 239.43 99.063C239.44 99.0125 239.445 98.8963 239.445 98.7145C239.445 98.3205 239.328 98.1235 239.095 98.1235C238.726 98.1235 238.42 98.6286 238.178 99.6388C238.119 99.8409 238.09 99.9469 238.09 99.957C238.071 100.018 237.979 100.048 237.814 100.048H237.61C237.551 99.9874 237.522 99.9419 237.522 99.9116Z" fill="black"/>
<path d="M246.771 100.669C246.771 100.669 246.771 100.603 246.771 100.472C246.771 100.34 246.839 100.239 246.975 100.169H251.33V97.8954L251.344 95.6223C251.442 95.491 251.534 95.4253 251.621 95.4253C251.747 95.4253 251.845 95.5011 251.912 95.6526V100.169H256.253C256.398 100.249 256.471 100.35 256.471 100.472C256.471 100.593 256.398 100.694 256.253 100.775H251.912V105.291C251.835 105.432 251.747 105.503 251.65 105.503H251.621H251.592C251.476 105.503 251.388 105.432 251.33 105.291V100.775H246.975C246.839 100.704 246.771 100.603 246.771 100.472V100.669Z" fill="black"/>
<path d="M260.388 95.5025L260.199 95.5782C260.063 95.6287 259.869 95.6793 259.616 95.7299C259.364 95.7804 259.082 95.8156 258.772 95.8358H258.495V95.1388H258.772C259.228 95.1185 259.65 95.0428 260.039 94.9114C260.427 94.7801 260.699 94.6589 260.854 94.5477C261.01 94.4366 261.146 94.3255 261.262 94.2144C261.282 94.184 261.34 94.1689 261.437 94.1689C261.524 94.1689 261.607 94.1992 261.684 94.2598V98.7909L261.699 103.337C261.767 103.408 261.825 103.454 261.874 103.474C261.922 103.494 262.039 103.514 262.223 103.534C262.408 103.555 262.709 103.565 263.126 103.565H263.505V104.262H263.345C263.141 104.231 262.369 104.216 261.029 104.216C259.709 104.216 258.946 104.231 258.743 104.262H258.568V103.565H258.946C259.16 103.565 259.345 103.565 259.5 103.565C259.655 103.565 259.777 103.56 259.864 103.549C259.951 103.539 260.029 103.524 260.097 103.504C260.165 103.484 260.204 103.474 260.213 103.474C260.223 103.474 260.252 103.448 260.301 103.398C260.349 103.347 260.379 103.327 260.388 103.337V95.5025Z" fill="black"/>
<path d="M272.479 93.6094C272.479 93.4236 272.576 93.2807 272.768 93.1807H285.89C286.096 93.295 286.199 93.4379 286.199 93.6094C286.199 93.7665 286.103 93.9023 285.911 94.0166L279.36 94.038H272.809C272.589 93.9666 272.479 93.8237 272.479 93.6094ZM272.479 97.7675C272.479 97.5531 272.589 97.4102 272.809 97.3388H285.911C286.103 97.4817 286.199 97.6246 286.199 97.7675C286.199 97.9532 286.096 98.0961 285.89 98.1961H272.768C272.576 98.0961 272.479 97.9532 272.479 97.7675Z" fill="black"/>
<path d="M294.117 96.7607C294.117 95.3032 294.384 93.7671 294.92 92.1524C295.456 90.5377 296.183 89.1444 297.104 87.9727C298.024 86.801 298.978 86.1294 299.967 85.9579C299.981 85.9579 300.036 85.9579 300.132 85.9579C300.228 85.9579 300.31 85.9508 300.379 85.9365C301.121 85.9936 301.697 86.3437 302.109 86.9867C302.645 87.8441 302.913 88.9944 302.913 90.4376C302.913 92.0809 302.604 93.7528 301.986 95.4532C301.368 97.1537 300.578 98.5469 299.617 99.6329C298.655 100.719 297.735 101.262 296.856 101.262H296.712C296.218 101.262 295.792 101.119 295.435 100.833C295.078 100.547 294.81 100.169 294.632 99.6972C294.453 99.2256 294.323 98.7469 294.24 98.2611C294.158 97.7752 294.117 97.2751 294.117 96.7607ZM301.285 88.9158C301.285 87.4583 300.921 86.7295 300.194 86.7295C299.699 86.7295 299.219 87.0511 298.752 87.6941C298.285 88.3371 297.9 89.0659 297.598 89.8804C297.296 90.6948 297.062 91.4093 296.898 92.0238C296.733 92.6382 296.644 92.9954 296.63 93.0955C297.303 93.1098 297.969 93.1169 298.628 93.1169L300.626 93.0955C300.64 93.0812 300.695 92.8454 300.791 92.3881C300.887 91.9309 300.997 91.3593 301.121 90.6734C301.244 89.9875 301.299 89.4017 301.285 88.9158ZM295.723 98.2182C295.723 99.7329 296.087 100.49 296.815 100.49C297.021 100.49 297.241 100.419 297.474 100.276C297.708 100.133 297.989 99.8615 298.319 99.4614C298.649 99.0613 298.978 98.4397 299.308 97.5966C299.637 96.7536 299.967 95.7104 300.297 94.4672L300.4 94.1029H296.383C296.383 94.1457 296.321 94.4172 296.197 94.9174C296.074 95.4175 295.964 95.9748 295.868 96.5892C295.771 97.2037 295.723 97.7467 295.723 98.2182Z" fill="black"/>
<path d="M302.557 80.8349C302.557 80.7206 302.591 80.6205 302.66 80.5348C302.729 80.449 302.832 80.4062 302.969 80.4062C303.065 80.4062 303.147 80.4419 303.216 80.5133C303.285 80.5705 303.353 80.7063 303.422 80.9206C303.559 81.4494 303.841 81.8566 304.267 82.1424C304.418 82.2425 304.493 82.3711 304.493 82.5283C304.493 82.6569 304.473 82.7426 304.432 82.7855C304.39 82.8284 304.294 82.8927 304.143 82.9784C303.553 83.2928 303.038 83.743 302.598 84.3289C302.571 84.3575 302.536 84.4004 302.495 84.4576C302.454 84.5148 302.42 84.5575 302.392 84.5861C302.365 84.6147 302.33 84.629 302.289 84.629C302.248 84.629 302.2 84.6361 302.145 84.6504C302.049 84.6504 301.96 84.6147 301.877 84.5432C301.795 84.4718 301.747 84.3646 301.733 84.2217C301.733 83.9502 302.056 83.5286 302.701 82.957H299.179L295.656 82.9356C295.477 82.807 295.388 82.6712 295.388 82.5283C295.388 82.4283 295.477 82.2854 295.656 82.0996H303.051C302.722 81.5565 302.557 81.135 302.557 80.8349Z" fill="black"/>
<path d="M305.398 99.9131C305.408 99.8525 305.422 99.7717 305.442 99.6706C305.461 99.5696 305.52 99.3777 305.617 99.0948C305.714 98.8119 305.811 98.5745 305.908 98.3826C306.005 98.1906 306.165 98.0037 306.389 97.8219C306.612 97.64 306.835 97.5542 307.058 97.5643C307.408 97.5643 307.699 97.6552 307.932 97.837C308.165 98.0189 308.311 98.1906 308.369 98.3523C308.427 98.5139 308.457 98.62 308.457 98.6705C308.457 98.6907 308.461 98.7008 308.471 98.7008L308.631 98.5341C309.224 97.8876 309.898 97.5643 310.656 97.5643C311.18 97.5643 311.602 97.7007 311.923 97.9734C312.243 98.2462 312.408 98.6452 312.418 99.1706C312.428 99.6959 312.243 100.489 311.865 101.55C311.486 102.611 311.301 103.252 311.311 103.474C311.311 103.737 311.394 103.868 311.559 103.868C311.617 103.868 311.661 103.863 311.69 103.853C311.971 103.803 312.224 103.611 312.447 103.277C312.671 102.944 312.84 102.54 312.957 102.065C312.976 101.984 313.073 101.944 313.248 101.944C313.442 101.944 313.539 101.984 313.539 102.065C313.539 102.075 313.52 102.151 313.481 102.292C313.404 102.585 313.297 102.873 313.161 103.156C313.025 103.439 312.802 103.722 312.491 104.005C312.18 104.288 311.845 104.424 311.486 104.414C311.03 104.414 310.699 104.278 310.496 104.005C310.292 103.732 310.19 103.449 310.19 103.156C310.19 102.964 310.365 102.358 310.714 101.338C311.064 100.317 311.243 99.5494 311.253 99.0342C311.253 98.4381 311.039 98.1401 310.612 98.1401H310.539C309.704 98.1401 309 98.6503 308.427 99.6706L308.326 99.8525L307.845 101.883C307.525 103.207 307.34 103.919 307.291 104.02C307.165 104.293 306.957 104.429 306.665 104.429C306.539 104.429 306.437 104.399 306.359 104.338C306.282 104.278 306.228 104.217 306.199 104.156C306.17 104.096 306.16 104.045 306.17 104.005C306.17 103.873 306.355 103.05 306.723 101.535C307.092 100.019 307.287 99.1958 307.306 99.0645C307.316 99.014 307.321 98.8978 307.321 98.716C307.321 98.322 307.204 98.125 306.971 98.125C306.602 98.125 306.296 98.6301 306.054 99.6403C305.995 99.8424 305.966 99.9485 305.966 99.9586C305.947 100.019 305.855 100.05 305.689 100.05H305.486C305.427 99.9889 305.398 99.9434 305.398 99.9131Z" fill="black"/>
<path d="M321.169 95.9673C321.169 95.9673 321.169 95.8743 321.169 95.6882C321.169 95.5021 321.266 95.359 321.458 95.2588H333.426C333.632 95.3733 333.735 95.5165 333.735 95.6882C333.735 95.8599 333.632 96.0031 333.426 96.1176H321.458C321.266 96.0174 321.169 95.8743 321.169 95.6882V95.9673Z" fill="black"/>
<path d="M340.474 94.8943C340.488 94.8514 340.502 94.7942 340.516 94.7228C340.529 94.6513 340.564 94.4942 340.619 94.2512C340.674 94.0083 340.742 93.7868 340.825 93.5868C340.907 93.3867 341.01 93.151 341.134 92.8795C341.257 92.608 341.395 92.3936 341.546 92.2364C341.697 92.0792 341.875 91.9221 342.081 91.7649C342.287 91.6077 342.514 91.5434 342.761 91.572C343.091 91.572 343.386 91.622 343.647 91.722C343.908 91.822 344.114 91.9506 344.265 92.1078C344.416 92.265 344.526 92.4222 344.594 92.5794C344.663 92.7366 344.718 92.8723 344.759 92.9866L344.8 93.1367C344.8 93.1652 344.807 93.1795 344.821 93.1795L345.048 92.9438C345.885 92.0292 346.84 91.572 347.911 91.572C348.653 91.572 349.25 91.7649 349.703 92.1507C350.156 92.5365 350.39 93.1009 350.404 93.844V94.0583C350.404 94.4013 349.964 96.3518 349.085 99.9098C348.289 103.268 347.863 104.997 347.808 105.097C347.629 105.483 347.32 105.676 346.881 105.676C346.702 105.676 346.551 105.619 346.428 105.504C346.304 105.39 346.229 105.233 346.201 105.033C346.201 104.904 346.606 103.168 347.417 99.8241L348.694 94.4656C348.735 94.2512 348.756 93.9797 348.756 93.6511C348.756 92.808 348.453 92.3865 347.849 92.3865H347.746C346.565 92.3865 345.569 93.1081 344.759 94.5513L344.615 94.8085L343.935 97.6807C343.482 99.5526 343.221 100.56 343.152 100.703C342.974 101.089 342.679 101.282 342.267 101.282C342.088 101.282 341.944 101.239 341.834 101.153C341.724 101.067 341.649 100.982 341.607 100.896C341.566 100.81 341.552 100.739 341.566 100.682C341.566 100.496 341.841 99.2668 342.39 96.9948C342.94 94.7228 343.214 93.4582 343.214 93.201C343.214 92.6437 343.036 92.365 342.679 92.365C342.39 92.365 342.143 92.5651 341.937 92.9652C341.731 93.3653 341.566 93.8011 341.443 94.2727C341.319 94.7442 341.243 95.0014 341.216 95.0443C341.189 95.0729 341.079 95.0872 340.886 95.0872H340.598C340.516 95.0014 340.474 94.9371 340.474 94.8943Z" fill="black"/>
<path d="M351.227 86.5577C351.227 86.5148 351.262 86.4648 351.33 86.4077H366.368C366.437 86.4648 366.471 86.5148 366.471 86.5577C366.471 86.5863 365.311 89.0869 362.99 94.0596C360.669 99.0323 359.481 101.547 359.426 101.604C359.357 101.704 359.165 101.754 358.849 101.754C358.533 101.754 358.341 101.704 358.273 101.604C358.231 101.547 357.05 99.0323 354.729 94.0596C352.408 89.0869 351.241 86.5863 351.227 86.5577ZM364.638 88.2724C364.638 88.2581 362.907 88.251 359.447 88.251C355.986 88.251 354.256 88.2581 354.256 88.2724C354.283 88.3439 355.148 90.2015 356.851 93.8453C358.554 97.489 359.419 99.3181 359.447 99.3324L364.638 88.2724Z" fill="black"/>
<path d="M361.476 81.3066C361.476 81.1923 361.511 81.0922 361.579 81.0065C361.648 80.9208 361.751 80.8779 361.888 80.8779C361.984 80.8779 362.067 80.9136 362.136 80.9851C362.204 81.0422 362.273 81.178 362.342 81.3923C362.479 81.921 362.76 82.3283 363.186 82.6141C363.337 82.7141 363.413 82.8427 363.413 82.9999C363.413 83.1285 363.392 83.2143 363.351 83.2571C363.31 83.3 363.214 83.3643 363.063 83.4501C362.472 83.7644 361.957 84.2146 361.518 84.8004C361.49 84.829 361.456 84.8719 361.415 84.9291C361.373 84.9862 361.339 85.0291 361.312 85.0577C361.284 85.0862 361.25 85.1005 361.209 85.1005C361.167 85.1005 361.119 85.1077 361.064 85.122C360.968 85.122 360.879 85.0862 360.797 85.0148C360.714 84.9433 360.666 84.8362 360.652 84.6933C360.652 84.4218 360.975 84.0002 361.621 83.4286H358.098L354.575 83.4072C354.397 83.2786 354.308 83.1428 354.308 82.9999C354.308 82.8999 354.397 82.757 354.575 82.5712H361.971C361.641 82.0282 361.476 81.6067 361.476 81.3066Z" fill="black"/>
<path d="M384.707 95.6888C384.707 94.7028 384.776 93.7669 384.913 92.8809C385.05 91.995 385.208 91.2305 385.387 90.5875C385.565 89.9444 385.819 89.3157 386.149 88.7012C386.479 88.0868 386.74 87.6081 386.932 87.2652C387.124 86.9222 387.412 86.5507 387.797 86.1506C388.182 85.7505 388.408 85.5075 388.477 85.4218C388.545 85.3361 388.717 85.186 388.992 84.9717H389.26H389.342C389.534 84.9717 389.63 85.036 389.63 85.1646C389.63 85.2075 389.514 85.3575 389.28 85.6147C389.047 85.8719 388.765 86.2506 388.436 86.7507C388.106 87.2509 387.77 87.8653 387.426 88.5941C387.083 89.3228 386.794 90.3088 386.561 91.552C386.328 92.7952 386.211 94.1741 386.211 95.6888C386.211 97.2035 386.328 98.5753 386.561 99.8042C386.794 101.033 387.076 102.026 387.406 102.783C387.735 103.541 388.072 104.155 388.415 104.627C388.758 105.098 389.047 105.477 389.28 105.763C389.514 106.049 389.63 106.199 389.63 106.213C389.63 106.341 389.527 106.406 389.321 106.406H389.26H388.992L388.415 105.891C387.124 104.677 386.183 103.162 385.593 101.347C385.002 99.5327 384.707 97.6465 384.707 95.6888Z" fill="black"/>
<path d="M391.826 96.7607C391.826 95.3032 392.094 93.7671 392.63 92.1524C393.165 90.5377 393.893 89.1444 394.813 87.9727C395.734 86.801 396.688 86.1294 397.677 85.9579C397.691 85.9579 397.745 85.9579 397.842 85.9579C397.938 85.9579 398.02 85.9508 398.089 85.9365C398.83 85.9936 399.407 86.3437 399.819 86.9867C400.355 87.8441 400.623 88.9944 400.623 90.4376C400.623 92.0809 400.314 93.7528 399.696 95.4532C399.078 97.1537 398.288 98.5469 397.327 99.6329C396.365 100.719 395.445 101.262 394.566 101.262H394.422C393.928 101.262 393.502 101.119 393.145 100.833C392.788 100.547 392.52 100.169 392.341 99.6972C392.163 99.2256 392.032 98.7469 391.95 98.2611C391.868 97.7752 391.826 97.2751 391.826 96.7607ZM398.995 88.9158C398.995 87.4583 398.631 86.7295 397.903 86.7295C397.409 86.7295 396.928 87.0511 396.461 87.6941C395.994 88.3371 395.61 89.0659 395.308 89.8804C395.006 90.6948 394.772 91.4093 394.607 92.0238C394.443 92.6382 394.353 92.9954 394.34 93.0955C395.013 93.1098 395.679 93.1169 396.338 93.1169L398.336 93.0955C398.35 93.0812 398.405 92.8454 398.501 92.3881C398.597 91.9309 398.707 91.3593 398.83 90.6734C398.954 89.9875 399.009 89.4017 398.995 88.9158ZM393.433 98.2182C393.433 99.7329 393.797 100.49 394.525 100.49C394.731 100.49 394.951 100.419 395.184 100.276C395.418 100.133 395.699 99.8615 396.029 99.4614C396.358 99.0613 396.688 98.4397 397.018 97.5966C397.347 96.7536 397.677 95.7104 398.006 94.4672L398.109 94.1029H394.092C394.092 94.1457 394.031 94.4172 393.907 94.9174C393.783 95.4175 393.674 95.9748 393.577 96.5892C393.481 97.2037 393.433 97.7467 393.433 98.2182Z" fill="black"/>
<path d="M400.268 80.8354C400.268 80.7211 400.302 80.621 400.371 80.5353C400.439 80.4495 400.542 80.4067 400.68 80.4067C400.776 80.4067 400.858 80.4424 400.927 80.5138C400.996 80.571 401.064 80.7068 401.133 80.9211C401.27 81.4499 401.552 81.8571 401.978 82.143C402.129 82.243 402.204 82.3716 402.204 82.5288C402.204 82.6574 402.184 82.7432 402.142 82.786C402.101 82.8289 402.005 82.8932 401.854 82.9789C401.263 83.2933 400.748 83.7435 400.309 84.3294C400.282 84.358 400.247 84.4008 400.206 84.458C400.165 84.5152 400.13 84.558 400.103 84.5866C400.076 84.6152 400.041 84.6295 400 84.6295C399.959 84.6295 399.911 84.6366 399.856 84.6509C399.76 84.6509 399.67 84.6152 399.588 84.5437C399.506 84.4723 399.458 84.3651 399.444 84.2222C399.444 83.9507 399.767 83.5291 400.412 82.9575H396.889L393.367 82.9361C393.188 82.8075 393.099 82.6717 393.099 82.5288C393.099 82.4288 393.188 82.2859 393.367 82.1001H400.762C400.433 81.557 400.268 81.1355 400.268 80.8354Z" fill="black"/>
<path d="M403.107 99.9131C403.117 99.8525 403.131 99.7717 403.151 99.6706C403.17 99.5696 403.228 99.3777 403.325 99.0948C403.422 98.8119 403.519 98.5745 403.617 98.3826C403.714 98.1906 403.874 98.0037 404.097 97.8219C404.32 97.64 404.544 97.5542 404.767 97.5643C405.117 97.5643 405.408 97.6552 405.641 97.837C405.874 98.0189 406.02 98.1906 406.078 98.3523C406.136 98.5139 406.165 98.62 406.165 98.6705C406.165 98.6907 406.17 98.7008 406.18 98.7008L406.34 98.5341C406.932 97.8876 407.607 97.5643 408.364 97.5643C408.889 97.5643 409.311 97.7007 409.632 97.9734C409.952 98.2462 410.117 98.6452 410.127 99.1706C410.136 99.6959 409.952 100.489 409.573 101.55C409.195 102.611 409.01 103.252 409.02 103.474C409.02 103.737 409.102 103.868 409.267 103.868C409.326 103.868 409.369 103.863 409.399 103.853C409.68 103.803 409.933 103.611 410.156 103.277C410.379 102.944 410.549 102.54 410.666 102.065C410.685 101.984 410.782 101.944 410.957 101.944C411.151 101.944 411.248 101.984 411.248 102.065C411.248 102.075 411.229 102.151 411.19 102.292C411.112 102.585 411.005 102.873 410.869 103.156C410.734 103.439 410.51 103.722 410.2 104.005C409.889 104.288 409.554 104.424 409.195 104.414C408.738 104.414 408.408 104.278 408.204 104.005C408 103.732 407.898 103.449 407.898 103.156C407.898 102.964 408.073 102.358 408.423 101.338C408.772 100.317 408.952 99.5494 408.962 99.0342C408.962 98.4381 408.748 98.1401 408.321 98.1401H408.248C407.413 98.1401 406.709 98.6503 406.136 99.6706L406.034 99.8525L405.554 101.883C405.233 103.207 405.049 103.919 405 104.02C404.874 104.293 404.665 104.429 404.374 104.429C404.248 104.429 404.146 104.399 404.068 104.338C403.99 104.278 403.937 104.217 403.908 104.156C403.879 104.096 403.869 104.045 403.879 104.005C403.879 103.873 404.063 103.05 404.432 101.535C404.801 100.019 404.995 99.1958 405.015 99.0645C405.024 99.014 405.029 98.8978 405.029 98.716C405.029 98.322 404.913 98.125 404.68 98.125C404.311 98.125 404.005 98.6301 403.762 99.6403C403.704 99.8424 403.675 99.9485 403.675 99.9586C403.655 100.019 403.563 100.05 403.398 100.05H403.194C403.136 99.9889 403.107 99.9434 403.107 99.9131Z" fill="black"/>
<path d="M413.807 84.9931L413.89 84.9717C413.958 84.9717 414.027 84.9717 414.096 84.9717H414.343L414.92 85.4861C416.211 86.7007 417.151 88.2154 417.742 90.0302C418.332 91.8449 418.628 93.7312 418.628 95.6888C418.628 96.6605 418.559 97.5965 418.422 98.4967C418.284 99.397 418.126 100.161 417.948 100.79C417.769 101.419 417.515 102.047 417.186 102.676C416.856 103.305 416.595 103.784 416.403 104.112C416.211 104.441 415.929 104.805 415.558 105.205C415.187 105.606 414.968 105.841 414.899 105.913C414.83 105.984 414.672 106.12 414.425 106.32C414.384 106.363 414.357 106.391 414.343 106.406H414.096C413.986 106.406 413.91 106.406 413.869 106.406C413.828 106.406 413.794 106.384 413.766 106.341C413.739 106.299 413.718 106.234 413.704 106.149C413.718 106.134 413.794 106.041 413.931 105.87C416.059 103.569 417.124 100.176 417.124 95.6888C417.124 91.2019 416.059 87.8082 413.931 85.5075C413.794 85.3361 413.718 85.2432 413.704 85.2289C413.704 85.1146 413.739 85.036 413.807 84.9931Z" fill="black"/>
<path d="M0.731079 11.4443C0.731079 16.8584 4.95569 20.96 9.83655 20.96C14.1022 20.96 16.6451 17.3096 16.6451 14.2744C16.6451 14.0283 16.6451 13.8232 16.317 13.8232C16.0299 13.8232 16.0299 13.9873 15.9889 14.2744C15.7838 18.0068 12.9948 20.1396 10.1237 20.1396C8.52405 20.1396 3.39709 19.2783 3.39709 11.4443C3.39709 3.65137 8.52405 2.74902 10.1237 2.74902C12.9537 2.74902 15.2916 5.12793 15.8248 8.94238C15.8658 9.31152 15.8658 9.39355 16.235 9.39355C16.6451 9.39355 16.6451 9.31152 16.6451 8.77832V2.58496C16.6451 2.13379 16.6451 1.92871 16.358 1.92871C16.276 1.92871 16.153 1.92871 15.9479 2.25684L14.6354 4.18457C13.692 3.24121 12.3385 1.92871 9.83655 1.92871C4.91467 1.92871 0.731079 6.1123 0.731079 11.4443Z" fill="black"/>
<g clip-path="url(#clip1_260_458)">
<path d="M367.679 94.627C367.679 99.6543 371.602 103.463 376.134 103.463C380.095 103.463 382.456 100.073 382.456 97.2549C382.456 97.0264 382.456 96.8359 382.151 96.8359C381.885 96.8359 381.885 96.9883 381.847 97.2549C381.656 100.721 379.067 102.701 376.401 102.701C374.915 102.701 370.154 101.901 370.154 94.627C370.154 87.3906 374.915 86.5527 376.401 86.5527C379.028 86.5527 381.199 88.7617 381.694 92.3037C381.733 92.6465 381.733 92.7227 382.075 92.7227C382.456 92.7227 382.456 92.6465 382.456 92.1514V86.4004C382.456 85.9814 382.456 85.791 382.19 85.791C382.113 85.791 381.999 85.791 381.809 86.0957L380.59 87.8857C379.714 87.0098 378.457 85.791 376.134 85.791C371.564 85.791 367.679 89.6758 367.679 94.627Z" fill="black"/>
</g>
<g clip-path="url(#clip2_260_458)">
<path d="M151.505 155.902C151.505 159.64 154.422 162.472 157.792 162.472C160.737 162.472 162.493 159.952 162.493 157.856C162.493 157.686 162.493 157.544 162.267 157.544C162.068 157.544 162.068 157.658 162.04 157.856C161.898 160.433 159.973 161.906 157.99 161.906C156.886 161.906 153.346 161.311 153.346 155.902C153.346 150.521 156.886 149.898 157.99 149.898C159.944 149.898 161.559 151.541 161.927 154.174C161.955 154.429 161.955 154.486 162.21 154.486C162.493 154.486 162.493 154.429 162.493 154.061V149.785C162.493 149.473 162.493 149.332 162.295 149.332C162.238 149.332 162.153 149.332 162.012 149.558L161.105 150.889C160.454 150.238 159.519 149.332 157.792 149.332C154.393 149.332 151.505 152.22 151.505 155.902Z" fill="#8A3FFC"/>
</g>
</g>
<defs>
<clipPath id="clip0_260_458">
<rect width="503" height="359" fill="white"/>
</clipPath>
<clipPath id="clip1_260_458">
<rect width="17.0625" height="19.5" fill="white" transform="translate(367 84)"/>
</clipPath>
<clipPath id="clip2_260_458">
<rect width="12.6875" height="14.5" fill="white" transform="translate(151 148)"/>
</clipPath>
</defs>
</svg>
