<svg width="453" height="603" viewBox="0 0 453 603" fill="none" xmlns="http://www.w3.org/2000/svg">
<line x1="232.121" y1="212.938" x2="233.121" y2="224.938" stroke="black" stroke-width="1.5"/>
<line x1="232.497" y1="212.26" x2="244.497" y2="214.26" stroke="black" stroke-width="1.5"/>
<path d="M307.554 131.656V120.88H308.394V131.656H307.554ZM317.001 129.22C317.681 129.156 318.225 128.924 318.633 128.524C319.049 128.116 319.257 127.488 319.257 126.64C319.257 126.088 319.225 125.58 319.161 125.116C319.097 124.644 319.001 124.128 318.873 123.568H319.917C320.045 124.104 320.137 124.612 320.193 125.092C320.257 125.572 320.289 126.076 320.289 126.604C320.289 127.428 320.141 128.092 319.845 128.596C319.549 129.092 319.153 129.46 318.657 129.7C318.161 129.932 317.609 130.068 317.001 130.108V132.88H315.969V130.108C315.361 130.084 314.821 129.96 314.349 129.736C313.877 129.512 313.505 129.16 313.233 128.68C312.969 128.192 312.837 127.552 312.837 126.76V123.568H313.881V126.796C313.881 127.396 313.977 127.868 314.169 128.212C314.361 128.556 314.617 128.804 314.937 128.956C315.257 129.108 315.601 129.2 315.969 129.232V120.892H317.001V129.22ZM324.65 121.12H326.198L324.818 124.444H324.014L324.65 121.12ZM332.166 121.12H333.714L332.334 124.444H331.53L332.166 121.12Z" fill="black"/>
<path d="M220.38 426C220.38 414.358 219.363 402.737 217.342 391.271L20.3799 426H220.38Z" fill="#A6C8FF"/>
<path d="M220.38 426.001C220.38 437.643 219.363 449.264 217.342 460.729L20.3799 426.001H220.38Z" fill="#A6C8FF"/>
<path d="M217.341 460.73C214.307 477.94 209.03 494.678 201.645 510.517L20.3799 426.001L217.341 460.73Z" fill="#D4BBFF"/>
<path d="M183.75 310.83C177.072 301.293 169.574 292.358 161.342 284.125L19.9195 425.546L183.75 310.83Z" fill="#A6C8FF"/>
<path d="M183.75 310.831C190.428 320.368 196.26 330.47 201.18 341.022L19.9193 425.546L183.75 310.831Z" fill="#A6C8FF"/>
<path d="M201.181 341.022C208.566 356.86 213.844 373.598 216.879 390.808L19.9191 425.546L201.181 341.022Z" fill="#D4BBFF"/>
<path d="M401.56 601.656V590.88H402.4V601.656H401.56ZM411.007 599.22C411.687 599.156 412.231 598.924 412.639 598.524C413.055 598.116 413.263 597.488 413.263 596.64C413.263 596.088 413.231 595.58 413.167 595.116C413.103 594.644 413.007 594.128 412.879 593.568H413.923C414.051 594.104 414.143 594.612 414.199 595.092C414.263 595.572 414.295 596.076 414.295 596.604C414.295 597.428 414.147 598.092 413.851 598.596C413.555 599.092 413.159 599.46 412.663 599.7C412.167 599.932 411.615 600.068 411.007 600.108V602.88H409.975V600.108C409.367 600.084 408.827 599.96 408.355 599.736C407.883 599.512 407.511 599.16 407.239 598.68C406.975 598.192 406.843 597.552 406.843 596.76V593.568H407.887V596.796C407.887 597.396 407.983 597.868 408.175 598.212C408.367 598.556 408.623 598.804 408.943 598.956C409.263 599.108 409.607 599.2 409.975 599.232V590.892H411.007V599.22ZM418.656 591.12H420.204L418.824 594.444H418.02L418.656 591.12Z" fill="#DDE1E6"/>
<path d="M420.733 426.354C420.929 426.158 420.929 425.842 420.733 425.646L417.551 422.464C417.356 422.269 417.04 422.269 416.844 422.464C416.649 422.66 416.649 422.976 416.844 423.172L419.673 426L416.844 428.828C416.649 429.024 416.649 429.34 416.844 429.536C417.04 429.731 417.356 429.731 417.551 429.536L420.733 426.354ZM220.38 426.5L420.38 426.5V425.5L220.38 425.5V426.5Z" fill="#DDE1E6"/>
<path d="M20.9102 25.4697C20.6173 25.1768 20.1424 25.1768 19.8496 25.4697L15.0766 30.2426C14.7837 30.5355 14.7837 31.0104 15.0766 31.3033C15.3695 31.5962 15.8443 31.5962 16.1372 31.3033L20.3799 27.0607L24.6225 31.3033C24.9154 31.5962 25.3903 31.5962 25.6832 31.3033C25.9761 31.0104 25.9761 30.5355 25.6832 30.2426L20.9102 25.4697ZM21.1299 426L21.1299 26H19.6299L19.6299 426H21.1299Z" fill="black"/>
<path d="M414.61 356.215C414.729 356.045 414.688 355.811 414.518 355.693L411.753 353.757C411.584 353.638 411.35 353.679 411.231 353.849C411.112 354.018 411.154 354.252 411.323 354.371L413.781 356.092L412.06 358.549C411.941 358.719 411.982 358.953 412.152 359.072C412.322 359.19 412.556 359.149 412.674 358.979L414.61 356.215ZM20.445 425.828L22.907 425.394L22.7768 424.656L20.3148 425.09L20.445 425.828ZM25.8614 424.873L30.7855 424.005L30.6552 423.266L25.7312 424.135L25.8614 424.873ZM33.7399 423.484L38.6639 422.616L38.5337 421.877L33.6097 422.745L33.7399 423.484ZM41.6184 422.095L46.5424 421.227L46.4122 420.488L41.4881 421.356L41.6184 422.095ZM49.4968 420.706L54.4209 419.837L54.2906 419.099L49.3666 419.967L49.4968 420.706ZM57.3753 419.316L62.2993 418.448L62.1691 417.71L57.2451 418.578L57.3753 419.316ZM65.2538 417.927L70.1778 417.059L70.0476 416.32L65.1235 417.189L65.2538 417.927ZM73.1322 416.538L78.0562 415.67L77.926 414.931L73.002 415.8L73.1322 416.538ZM81.0107 415.149L85.9347 414.281L85.8045 413.542L80.8804 414.41L81.0107 415.149ZM88.8891 413.76L93.8132 412.891L93.6829 412.153L88.7589 413.021L88.8891 413.76ZM96.7676 412.371L101.692 411.502L101.561 410.764L96.6374 411.632L96.7676 412.371ZM104.646 410.981L109.57 410.113L109.44 409.375L104.516 410.243L104.646 410.981ZM112.525 409.592L117.449 408.724L117.318 407.985L112.394 408.854L112.525 409.592ZM120.403 408.203L125.327 407.335L125.197 406.596L120.273 407.464L120.403 408.203ZM128.281 406.814L133.205 405.946L133.075 405.207L128.151 406.075L128.281 406.814ZM136.16 405.425L141.084 404.556L140.954 403.818L136.03 404.686L136.16 405.425ZM144.038 404.035L148.962 403.167L148.832 402.429L143.908 403.297L144.038 404.035ZM151.917 402.646L156.841 401.778L156.711 401.039L151.787 401.908L151.917 402.646ZM159.795 401.257L164.719 400.389L164.589 399.65L159.665 400.518L159.795 401.257ZM167.674 399.868L172.598 399L172.468 398.261L167.544 399.129L167.674 399.868ZM175.552 398.479L180.476 397.61L180.346 396.872L175.422 397.74L175.552 398.479ZM183.431 397.09L188.355 396.221L188.224 395.483L183.3 396.351L183.431 397.09ZM191.309 395.7L196.233 394.832L196.103 394.093L191.179 394.962L191.309 395.7ZM199.188 394.311L204.112 393.443L203.981 392.704L199.057 393.573L199.188 394.311ZM207.066 392.922L211.99 392.054L211.86 391.315L206.936 392.183L207.066 392.922ZM214.945 391.533L219.869 390.665L219.738 389.926L214.814 390.794L214.945 391.533ZM222.823 390.144L227.747 389.275L227.617 388.537L222.693 389.405L222.823 390.144ZM230.701 388.754L235.625 387.886L235.495 387.148L230.571 388.016L230.701 388.754ZM238.58 387.365L243.504 386.497L243.374 385.758L238.45 386.627L238.58 387.365ZM246.458 385.976L251.382 385.108L251.252 384.369L246.328 385.237L246.458 385.976ZM254.337 384.587L259.261 383.719L259.131 382.98L254.207 383.848L254.337 384.587ZM262.215 383.198L267.139 382.329L267.009 381.591L262.085 382.459L262.215 383.198ZM270.094 381.808L275.018 380.94L274.888 380.202L269.964 381.07L270.094 381.808ZM277.972 380.419L282.896 379.551L282.766 378.812L277.842 379.681L277.972 380.419ZM285.851 379.03L290.775 378.162L290.644 377.423L285.72 378.291L285.851 379.03ZM293.729 377.641L298.653 376.773L298.523 376.034L293.599 376.902L293.729 377.641ZM301.608 376.252L306.532 375.383L306.401 374.645L301.477 375.513L301.608 376.252ZM309.486 374.863L314.41 373.994L314.28 373.256L309.356 374.124L309.486 374.863ZM317.365 373.473L322.289 372.605L322.158 371.867L317.234 372.735L317.365 373.473ZM325.243 372.084L330.167 371.216L330.037 370.477L325.113 371.346L325.243 372.084ZM333.121 370.695L338.045 369.827L337.915 369.088L332.991 369.956L333.121 370.695ZM341 369.306L345.924 368.438L345.794 367.699L340.87 368.567L341 369.306ZM348.878 367.917L353.802 367.048L353.672 366.31L348.748 367.178L348.878 367.917ZM356.757 366.527L361.681 365.659L361.551 364.921L356.627 365.789L356.757 366.527ZM364.635 365.138L369.559 364.27L369.429 363.531L364.505 364.4L364.635 365.138ZM372.514 363.749L377.438 362.881L377.308 362.142L372.384 363.01L372.514 363.749ZM380.392 362.36L385.316 361.492L385.186 360.753L380.262 361.621L380.392 362.36ZM388.271 360.971L393.195 360.102L393.064 359.364L388.14 360.232L388.271 360.971ZM396.149 359.582L401.073 358.713L400.943 357.975L396.019 358.843L396.149 359.582ZM404.028 358.192L408.952 357.324L408.821 356.585L403.897 357.454L404.028 358.192ZM411.906 356.803L414.368 356.369L414.238 355.63L411.776 356.065L411.906 356.803ZM414.917 356.43C415.155 356.091 415.072 355.623 414.733 355.385L409.204 351.514C408.865 351.276 408.397 351.359 408.159 351.698C407.922 352.037 408.004 352.505 408.344 352.742L413.258 356.184L409.817 361.099C409.579 361.438 409.662 361.906 410.001 362.143C410.34 362.381 410.808 362.298 411.046 361.959L414.917 356.43ZM20.5101 426.198L22.9721 425.763L22.7117 424.286L20.2496 424.72L20.5101 426.198ZM25.9266 425.243L30.8506 424.374L30.5901 422.897L25.6661 423.765L25.9266 425.243ZM33.805 423.853L38.7291 422.985L38.4686 421.508L33.5446 422.376L33.805 423.853ZM41.6835 422.464L46.6075 421.596L46.347 420.119L41.423 420.987L41.6835 422.464ZM49.5619 421.075L54.486 420.207L54.2255 418.73L49.3015 419.598L49.5619 421.075ZM57.4404 419.686L62.3644 418.818L62.104 417.34L57.1799 418.209L57.4404 419.686ZM65.3189 418.297L70.2429 417.428L69.9824 415.951L65.0584 416.819L65.3189 418.297ZM73.1973 416.907L78.1214 416.039L77.8609 414.562L72.9369 415.43L73.1973 416.907ZM81.0758 415.518L85.9998 414.65L85.7394 413.173L80.8153 414.041L81.0758 415.518ZM88.9543 414.129L93.8783 413.261L93.6178 411.784L88.6938 412.652L88.9543 414.129ZM96.8327 412.74L101.757 411.872L101.496 410.394L96.5722 411.263L96.8327 412.74ZM104.711 411.351L109.635 410.482L109.375 409.005L104.451 409.873L104.711 411.351ZM112.59 409.961L117.514 409.093L117.253 407.616L112.329 408.484L112.59 409.961ZM120.468 408.572L125.392 407.704L125.132 406.227L120.208 407.095L120.468 408.572ZM128.347 407.183L133.271 406.315L133.01 404.838L128.086 405.706L128.347 407.183ZM136.225 405.794L141.149 404.926L140.889 403.448L135.965 404.317L136.225 405.794ZM144.103 404.405L149.028 403.537L148.767 402.059L143.843 402.928L144.103 404.405ZM151.982 403.016L156.906 402.147L156.646 400.67L151.721 401.538L151.982 403.016ZM159.86 401.626L164.784 400.758L164.524 399.281L159.6 400.149L159.86 401.626ZM167.739 400.237L172.663 399.369L172.402 397.892L167.478 398.76L167.739 400.237ZM175.617 398.848L180.541 397.98L180.281 396.503L175.357 397.371L175.617 398.848ZM183.496 397.459L188.42 396.591L188.159 395.113L183.235 395.982L183.496 397.459ZM191.374 396.07L196.298 395.201L196.038 393.724L191.114 394.592L191.374 396.07ZM199.253 394.68L204.177 393.812L203.916 392.335L198.992 393.203L199.253 394.68ZM207.131 393.291L212.055 392.423L211.795 390.946L206.871 391.814L207.131 393.291ZM215.01 391.902L219.934 391.034L219.673 389.557L214.749 390.425L215.01 391.902ZM222.888 390.513L227.812 389.645L227.552 388.167L222.628 389.036L222.888 390.513ZM230.767 389.124L235.691 388.255L235.43 386.778L230.506 387.646L230.767 389.124ZM238.645 387.735L243.569 386.866L243.309 385.389L238.385 386.257L238.645 387.735ZM246.523 386.345L251.448 385.477L251.187 384L246.263 384.868L246.523 386.345ZM254.402 384.956L259.326 384.088L259.066 382.611L254.141 383.479L254.402 384.956ZM262.28 383.567L267.204 382.699L266.944 381.222L262.02 382.09L262.28 383.567ZM270.159 382.178L275.083 381.31L274.822 379.832L269.898 380.701L270.159 382.178ZM278.037 380.789L282.961 379.92L282.701 378.443L277.777 379.311L278.037 380.789ZM285.916 379.399L290.84 378.531L290.579 377.054L285.655 377.922L285.916 379.399ZM293.794 378.01L298.718 377.142L298.458 375.665L293.534 376.533L293.794 378.01ZM301.673 376.621L306.597 375.753L306.336 374.276L301.412 375.144L301.673 376.621ZM309.551 375.232L314.475 374.364L314.215 372.886L309.291 373.755L309.551 375.232ZM317.43 373.843L322.354 372.974L322.093 371.497L317.169 372.365L317.43 373.843ZM325.308 372.453L330.232 371.585L329.972 370.108L325.048 370.976L325.308 372.453ZM333.187 371.064L338.111 370.196L337.85 368.719L332.926 369.587L333.187 371.064ZM341.065 369.675L345.989 368.807L345.729 367.33L340.805 368.198L341.065 369.675ZM348.943 368.286L353.868 367.418L353.607 365.94L348.683 366.809L348.943 368.286ZM356.822 366.897L361.746 366.028L361.486 364.551L356.561 365.42L356.822 366.897ZM364.7 365.508L369.624 364.639L369.364 363.162L364.44 364.03L364.7 365.508ZM372.579 364.118L377.503 363.25L377.242 361.773L372.318 362.641L372.579 364.118ZM380.457 362.729L385.381 361.861L385.121 360.384L380.197 361.252L380.457 362.729ZM388.336 361.34L393.26 360.472L392.999 358.995L388.075 359.863L388.336 361.34ZM396.214 359.951L401.138 359.083L400.878 357.605L395.954 358.474L396.214 359.951ZM404.093 358.562L409.017 357.693L408.756 356.216L403.832 357.084L404.093 358.562ZM411.971 357.172L414.433 356.738L414.173 355.261L411.711 355.695L411.971 357.172Z" fill="black"/>
<path d="M383.373 256.17C383.467 255.91 383.333 255.623 383.073 255.529L378.842 253.997C378.583 253.903 378.296 254.037 378.202 254.297C378.108 254.557 378.242 254.843 378.502 254.937L382.263 256.299L380.901 260.06C380.806 260.32 380.941 260.607 381.2 260.701C381.46 260.795 381.747 260.661 381.841 260.401L383.373 256.17ZM201.586 341.453L383.115 256.452L382.691 255.547L201.162 340.547L201.586 341.453Z" fill="#DDE1E6"/>
<path d="M383.16 595.752C383.549 595.61 383.749 595.18 383.608 594.791L381.299 588.448C381.157 588.059 380.727 587.858 380.338 588C379.949 588.141 379.748 588.572 379.89 588.961L381.942 594.599L376.304 596.651C375.914 596.793 375.714 597.223 375.855 597.612C375.997 598.002 376.427 598.202 376.817 598.061L383.16 595.752ZM20.0629 426.68L382.586 595.727L383.22 594.368L20.6968 425.32L20.0629 426.68Z" fill="#DDE1E6"/>
<path d="M302.973 143C302.973 142.586 302.637 142.25 302.223 142.25L295.473 142.25C295.058 142.25 294.723 142.586 294.723 143C294.723 143.414 295.058 143.75 295.473 143.75L301.473 143.75L301.473 149.75C301.473 150.164 301.808 150.5 302.223 150.5C302.637 150.5 302.973 150.164 302.973 149.75L302.973 143ZM19.9102 426.373L302.753 143.53L301.692 142.47L18.8496 425.312L19.9102 426.373Z" fill="black"/>
<path d="M15.5599 14.656V3.88H16.3999V14.656H15.5599Z" fill="black"/>
<path d="M434.56 432.656V421.88H435.4V432.656H434.56ZM439.627 431L441.931 427.856L439.687 424.808H440.839L441.775 426.116L442.519 427.148H442.567L443.287 426.116L444.211 424.808H445.315L443.047 427.844L445.375 431H444.223L443.179 429.548L442.471 428.564H442.423L441.739 429.548L440.731 431H439.627Z" fill="#DDE1E6"/>
<path d="M424.56 362.656V351.88H425.4V362.656H424.56ZM432.567 361.144C431.919 361.144 431.359 361.036 430.887 360.82C430.423 360.596 430.027 360.3 429.699 359.932L430.347 359.368C430.643 359.68 430.967 359.92 431.319 360.088C431.671 360.256 432.095 360.34 432.591 360.34C433.071 360.34 433.463 360.256 433.767 360.088C434.079 359.912 434.235 359.64 434.235 359.272C434.235 359.112 434.203 358.98 434.139 358.876C434.083 358.764 434.003 358.676 433.899 358.612C433.795 358.548 433.679 358.5 433.551 358.468C433.423 358.428 433.287 358.396 433.143 358.372L432.171 358.228C431.955 358.196 431.719 358.152 431.463 358.096C431.215 358.04 430.987 357.952 430.779 357.832C430.571 357.704 430.395 357.536 430.251 357.328C430.115 357.12 430.047 356.848 430.047 356.512C430.047 356.2 430.107 355.932 430.227 355.708C430.355 355.476 430.531 355.284 430.755 355.132C430.979 354.972 431.243 354.856 431.547 354.784C431.851 354.704 432.183 354.664 432.543 354.664C433.103 354.664 433.587 354.752 433.995 354.928C434.411 355.104 434.767 355.348 435.063 355.66L434.439 356.248C434.367 356.16 434.275 356.072 434.163 355.984C434.059 355.888 433.927 355.804 433.767 355.732C433.615 355.652 433.435 355.588 433.227 355.54C433.019 355.492 432.779 355.468 432.507 355.468C432.019 355.468 431.643 355.552 431.379 355.72C431.123 355.888 430.995 356.132 430.995 356.452C430.995 356.612 431.023 356.748 431.079 356.86C431.143 356.964 431.227 357.048 431.331 357.112C431.435 357.176 431.551 357.228 431.679 357.268C431.815 357.3 431.951 357.328 432.087 357.352L433.059 357.496C433.283 357.528 433.519 357.572 433.767 357.628C434.015 357.684 434.243 357.776 434.451 357.904C434.659 358.024 434.831 358.188 434.967 358.396C435.111 358.604 435.183 358.876 435.183 359.212C435.183 359.828 434.943 360.304 434.463 360.64C433.991 360.976 433.359 361.144 432.567 361.144Z" fill="black"/>
<path d="M192.818 434H187.226V432.968L190.022 430.448C190.43 430.08 190.766 429.704 191.03 429.32C191.294 428.928 191.426 428.516 191.426 428.084V427.94C191.426 427.436 191.294 427.048 191.03 426.776C190.766 426.496 190.374 426.356 189.854 426.356C189.342 426.356 188.946 426.488 188.666 426.752C188.394 427.008 188.19 427.352 188.054 427.784L187.154 427.448C187.234 427.2 187.342 426.96 187.478 426.728C187.622 426.488 187.802 426.276 188.018 426.092C188.234 425.908 188.494 425.76 188.798 425.648C189.11 425.536 189.47 425.48 189.878 425.48C190.294 425.48 190.662 425.54 190.982 425.66C191.31 425.78 191.582 425.948 191.798 426.164C192.022 426.38 192.19 426.636 192.302 426.932C192.422 427.228 192.482 427.552 192.482 427.904C192.482 428.224 192.434 428.524 192.338 428.804C192.25 429.084 192.122 429.352 191.954 429.608C191.794 429.864 191.598 430.116 191.366 430.364C191.142 430.604 190.89 430.844 190.61 431.084L188.27 433.124H192.818V434ZM200.369 429.476C200.369 430.444 200.269 431.276 200.069 431.972C199.877 432.66 199.565 433.192 199.133 433.568C198.709 433.936 198.145 434.12 197.441 434.12C196.449 434.12 195.717 433.708 195.245 432.884C194.781 432.06 194.549 430.924 194.549 429.476C194.549 428.5 194.645 427.664 194.837 426.968C195.029 426.272 195.337 425.74 195.761 425.372C196.193 425.004 196.753 424.82 197.441 424.82C198.441 424.82 199.177 425.228 199.649 426.044C200.129 426.852 200.369 427.996 200.369 429.476ZM197.441 425.684C196.833 425.684 196.385 425.956 196.097 426.5C195.817 427.036 195.657 427.84 195.617 428.912H199.289C199.249 427.84 199.085 427.036 198.797 426.5C198.509 425.956 198.057 425.684 197.441 425.684ZM197.441 433.256C198.065 433.256 198.525 432.968 198.821 432.392C199.117 431.816 199.277 430.948 199.301 429.788H195.617C195.633 430.932 195.781 431.796 196.061 432.38C196.349 432.964 196.809 433.256 197.441 433.256Z" fill="black"/>
<path d="M190.074 476.072C189.778 476.464 189.538 476.876 189.354 477.308C189.178 477.732 189.09 478.224 189.09 478.784C189.09 479.368 189.182 479.836 189.366 480.188C189.558 480.532 189.81 480.784 190.122 480.944C190.434 481.104 190.774 481.204 191.142 481.244V477.668C191.142 476.94 191.31 476.388 191.646 476.012C191.99 475.636 192.454 475.448 193.038 475.448C193.534 475.448 193.958 475.584 194.31 475.856C194.662 476.12 194.934 476.492 195.126 476.972C195.318 477.444 195.414 477.996 195.414 478.628C195.414 479.404 195.262 480.044 194.958 480.548C194.662 481.044 194.266 481.42 193.77 481.676C193.282 481.932 192.75 482.076 192.174 482.108V484.88H191.142V482.108C190.55 482.076 190.018 481.944 189.546 481.712C189.082 481.48 188.714 481.124 188.442 480.644C188.17 480.164 188.034 479.532 188.034 478.748C188.034 478.1 188.15 477.508 188.382 476.972C188.614 476.428 188.906 475.94 189.258 475.508L190.074 476.072ZM193.05 476.324C192.818 476.324 192.614 476.42 192.438 476.612C192.262 476.804 192.174 477.152 192.174 477.656V481.244C192.582 481.204 192.95 481.088 193.278 480.896C193.606 480.696 193.866 480.412 194.058 480.044C194.25 479.668 194.346 479.2 194.346 478.64C194.346 477.888 194.222 477.316 193.974 476.924C193.734 476.524 193.426 476.324 193.05 476.324Z" fill="black"/>
<path d="M163.818 332H158.226V330.968L161.022 328.448C161.43 328.08 161.766 327.704 162.03 327.32C162.294 326.928 162.426 326.516 162.426 326.084V325.94C162.426 325.436 162.294 325.048 162.03 324.776C161.766 324.496 161.374 324.356 160.854 324.356C160.342 324.356 159.946 324.488 159.666 324.752C159.394 325.008 159.19 325.352 159.054 325.784L158.154 325.448C158.234 325.2 158.342 324.96 158.478 324.728C158.622 324.488 158.802 324.276 159.018 324.092C159.234 323.908 159.494 323.76 159.798 323.648C160.11 323.536 160.47 323.48 160.878 323.48C161.294 323.48 161.662 323.54 161.982 323.66C162.31 323.78 162.582 323.948 162.798 324.164C163.022 324.38 163.19 324.636 163.302 324.932C163.422 325.228 163.482 325.552 163.482 325.904C163.482 326.224 163.434 326.524 163.338 326.804C163.25 327.084 163.122 327.352 162.954 327.608C162.794 327.864 162.598 328.116 162.366 328.364C162.142 328.604 161.89 328.844 161.61 329.084L159.27 331.124H163.818V332ZM171.369 327.476C171.369 328.444 171.269 329.276 171.069 329.972C170.877 330.66 170.565 331.192 170.133 331.568C169.709 331.936 169.145 332.12 168.441 332.12C167.449 332.12 166.717 331.708 166.245 330.884C165.781 330.06 165.549 328.924 165.549 327.476C165.549 326.5 165.645 325.664 165.837 324.968C166.029 324.272 166.337 323.74 166.761 323.372C167.193 323.004 167.753 322.82 168.441 322.82C169.441 322.82 170.177 323.228 170.649 324.044C171.129 324.852 171.369 325.996 171.369 327.476ZM168.441 323.684C167.833 323.684 167.385 323.956 167.097 324.5C166.817 325.036 166.657 325.84 166.617 326.912H170.289C170.249 325.84 170.085 325.036 169.797 324.5C169.509 323.956 169.057 323.684 168.441 323.684ZM168.441 331.256C169.065 331.256 169.525 330.968 169.821 330.392C170.117 329.816 170.277 328.948 170.301 327.788H166.617C166.633 328.932 166.781 329.796 167.061 330.38C167.349 330.964 167.809 331.256 168.441 331.256Z" fill="black"/>
<path d="M186.074 368.072C185.778 368.464 185.538 368.876 185.354 369.308C185.178 369.732 185.09 370.224 185.09 370.784C185.09 371.368 185.182 371.836 185.366 372.188C185.558 372.532 185.81 372.784 186.122 372.944C186.434 373.104 186.774 373.204 187.142 373.244V369.668C187.142 368.94 187.31 368.388 187.646 368.012C187.99 367.636 188.454 367.448 189.038 367.448C189.534 367.448 189.958 367.584 190.31 367.856C190.662 368.12 190.934 368.492 191.126 368.972C191.318 369.444 191.414 369.996 191.414 370.628C191.414 371.404 191.262 372.044 190.958 372.548C190.662 373.044 190.266 373.42 189.77 373.676C189.282 373.932 188.75 374.076 188.174 374.108V376.88H187.142V374.108C186.55 374.076 186.018 373.944 185.546 373.712C185.082 373.48 184.714 373.124 184.442 372.644C184.17 372.164 184.034 371.532 184.034 370.748C184.034 370.1 184.15 369.508 184.382 368.972C184.614 368.428 184.906 367.94 185.258 367.508L186.074 368.072ZM189.05 368.324C188.818 368.324 188.614 368.42 188.438 368.612C188.262 368.804 188.174 369.152 188.174 369.656V373.244C188.582 373.204 188.95 373.088 189.278 372.896C189.606 372.696 189.866 372.412 190.058 372.044C190.25 371.668 190.346 371.2 190.346 370.64C190.346 369.888 190.222 369.316 189.974 368.924C189.734 368.524 189.426 368.324 189.05 368.324Z" fill="black"/>
<path d="M392.56 257.656V246.88H393.4V257.656H392.56ZM402.007 255.22C402.687 255.156 403.231 254.924 403.639 254.524C404.055 254.116 404.263 253.488 404.263 252.64C404.263 252.088 404.231 251.58 404.167 251.116C404.103 250.644 404.007 250.128 403.879 249.568H404.923C405.051 250.104 405.143 250.612 405.199 251.092C405.263 251.572 405.295 252.076 405.295 252.604C405.295 253.428 405.147 254.092 404.851 254.596C404.555 255.092 404.159 255.46 403.663 255.7C403.167 255.932 402.615 256.068 402.007 256.108V258.88H400.975V256.108C400.367 256.084 399.827 255.96 399.355 255.736C398.883 255.512 398.511 255.16 398.239 254.68C397.975 254.192 397.843 253.552 397.843 252.76V249.568H398.887V252.796C398.887 253.396 398.983 253.868 399.175 254.212C399.367 254.556 399.623 254.804 399.943 254.956C400.263 255.108 400.607 255.2 400.975 255.232V246.892H402.007V255.22Z" fill="#E0E0E0"/>
<path d="M291.267 551.785C317.293 495.972 325.512 433.5 314.808 372.854C304.103 312.208 274.994 256.325 231.433 212.794" stroke="black" stroke-width="0.75" stroke-dasharray="5 5"/>
<path d="M338.474 406.992H338.426C338.026 407.76 337.39 408.144 336.518 408.144C335.758 408.144 335.162 407.86 334.73 407.292C334.306 406.724 334.094 405.928 334.094 404.904C334.094 403.88 334.306 403.084 334.73 402.516C335.162 401.948 335.758 401.664 336.518 401.664C337.39 401.664 338.026 402.048 338.426 402.816H338.474V399.12H339.434V408H338.474V406.992ZM336.89 407.292C337.106 407.292 337.31 407.264 337.502 407.208C337.694 407.152 337.862 407.072 338.006 406.968C338.15 406.856 338.262 406.724 338.342 406.572C338.43 406.412 338.474 406.228 338.474 406.02V403.788C338.474 403.58 338.43 403.4 338.342 403.248C338.262 403.088 338.15 402.956 338.006 402.852C337.862 402.74 337.694 402.656 337.502 402.6C337.31 402.544 337.106 402.516 336.89 402.516C336.33 402.516 335.894 402.688 335.582 403.032C335.278 403.368 335.126 403.816 335.126 404.376V405.432C335.126 405.992 335.278 406.444 335.582 406.788C335.894 407.124 336.33 407.292 336.89 407.292ZM344.873 400.44C344.593 400.44 344.397 400.384 344.285 400.272C344.173 400.152 344.117 400.004 344.117 399.828V399.636C344.117 399.46 344.173 399.316 344.285 399.204C344.397 399.084 344.593 399.024 344.873 399.024C345.153 399.024 345.349 399.084 345.461 399.204C345.573 399.316 345.629 399.46 345.629 399.636V399.828C345.629 400.004 345.573 400.152 345.461 400.272C345.349 400.384 345.153 400.44 344.873 400.44ZM342.161 407.184H344.393V402.624H342.161V401.808H345.353V407.184H347.441V408H342.161V407.184ZM349.401 407.184H351.489V402.624H349.281V401.808H351.489V400.536C351.489 400.12 351.597 399.78 351.813 399.516C352.037 399.252 352.385 399.12 352.857 399.12H354.933V399.936H352.449V401.808H354.933V402.624H352.449V407.184H354.657V408H349.401V407.184ZM356.916 407.184H359.004V402.624H356.796V401.808H359.004V400.536C359.004 400.12 359.112 399.78 359.328 399.516C359.552 399.252 359.9 399.12 360.372 399.12H362.448V399.936H359.964V401.808H362.448V402.624H359.964V407.184H362.172V408H356.916V407.184ZM368.499 406.992H368.451C368.387 407.144 368.307 407.292 368.211 407.436C368.115 407.572 367.995 407.692 367.851 407.796C367.715 407.9 367.551 407.984 367.359 408.048C367.167 408.112 366.943 408.144 366.687 408.144C366.039 408.144 365.519 407.94 365.127 407.532C364.735 407.116 364.539 406.532 364.539 405.78V401.808H365.499V405.612C365.499 406.18 365.623 406.604 365.871 406.884C366.119 407.156 366.483 407.292 366.963 407.292C367.155 407.292 367.343 407.268 367.527 407.22C367.711 407.172 367.875 407.1 368.019 407.004C368.163 406.908 368.279 406.788 368.367 406.644C368.455 406.492 368.499 406.312 368.499 406.104V401.808H369.459V408H368.499V406.992ZM374.623 408.144C373.975 408.144 373.415 408.036 372.943 407.82C372.479 407.596 372.083 407.3 371.755 406.932L372.403 406.368C372.699 406.68 373.023 406.92 373.375 407.088C373.727 407.256 374.151 407.34 374.647 407.34C375.127 407.34 375.519 407.256 375.823 407.088C376.135 406.912 376.291 406.64 376.291 406.272C376.291 406.112 376.259 405.98 376.195 405.876C376.139 405.764 376.059 405.676 375.955 405.612C375.851 405.548 375.735 405.5 375.607 405.468C375.479 405.428 375.343 405.396 375.199 405.372L374.227 405.228C374.011 405.196 373.775 405.152 373.519 405.096C373.271 405.04 373.043 404.952 372.835 404.832C372.627 404.704 372.451 404.536 372.307 404.328C372.171 404.12 372.103 403.848 372.103 403.512C372.103 403.2 372.163 402.932 372.283 402.708C372.411 402.476 372.587 402.284 372.811 402.132C373.035 401.972 373.299 401.856 373.603 401.784C373.907 401.704 374.239 401.664 374.599 401.664C375.159 401.664 375.643 401.752 376.051 401.928C376.467 402.104 376.823 402.348 377.119 402.66L376.495 403.248C376.423 403.16 376.331 403.072 376.219 402.984C376.115 402.888 375.983 402.804 375.823 402.732C375.671 402.652 375.491 402.588 375.283 402.54C375.075 402.492 374.835 402.468 374.563 402.468C374.075 402.468 373.699 402.552 373.435 402.72C373.179 402.888 373.051 403.132 373.051 403.452C373.051 403.612 373.079 403.748 373.135 403.86C373.199 403.964 373.283 404.048 373.387 404.112C373.491 404.176 373.607 404.228 373.735 404.268C373.871 404.3 374.007 404.328 374.143 404.352L375.115 404.496C375.339 404.528 375.575 404.572 375.823 404.628C376.071 404.684 376.299 404.776 376.507 404.904C376.715 405.024 376.887 405.188 377.023 405.396C377.167 405.604 377.239 405.876 377.239 406.212C377.239 406.828 376.999 407.304 376.519 407.64C376.047 407.976 375.415 408.144 374.623 408.144ZM382.174 408.144C381.726 408.144 381.322 408.068 380.962 407.916C380.61 407.764 380.306 407.548 380.05 407.268C379.802 406.98 379.61 406.64 379.474 406.248C379.338 405.848 379.27 405.404 379.27 404.916C379.27 404.42 379.338 403.972 379.474 403.572C379.618 403.172 379.814 402.832 380.062 402.552C380.31 402.264 380.606 402.044 380.95 401.892C381.302 401.74 381.69 401.664 382.114 401.664C382.53 401.664 382.906 401.74 383.242 401.892C383.586 402.044 383.878 402.256 384.118 402.528C384.358 402.792 384.542 403.108 384.67 403.476C384.798 403.844 384.862 404.248 384.862 404.688V405.144H380.278V405.432C380.278 405.704 380.322 405.956 380.41 406.188C380.498 406.42 380.622 406.62 380.782 406.788C380.95 406.956 381.15 407.088 381.382 407.184C381.622 407.272 381.886 407.316 382.174 407.316C382.59 407.316 382.95 407.22 383.254 407.028C383.558 406.836 383.79 406.572 383.95 406.236L384.658 406.716C384.474 407.132 384.166 407.476 383.734 407.748C383.31 408.012 382.79 408.144 382.174 408.144ZM382.114 402.456C381.85 402.456 381.606 402.504 381.382 402.6C381.158 402.696 380.962 402.828 380.794 402.996C380.634 403.164 380.506 403.364 380.41 403.596C380.322 403.82 380.278 404.068 380.278 404.34V404.424H383.83V404.292C383.83 404.02 383.786 403.772 383.698 403.548C383.618 403.324 383.502 403.132 383.35 402.972C383.206 402.804 383.026 402.676 382.81 402.588C382.602 402.5 382.37 402.456 382.114 402.456ZM386.905 407.184H388.717V402.624H386.905V401.808H389.677V403.368H389.737C389.865 402.88 390.105 402.5 390.457 402.228C390.817 401.948 391.273 401.808 391.825 401.808H392.689V402.768H391.525C390.973 402.768 390.525 402.928 390.181 403.248C389.845 403.568 389.677 403.988 389.677 404.508V407.184H392.077V408H386.905V407.184Z" fill="black"/>
<path d="M449.374 422L452.374 427.5L449.374 433" stroke="#DDE1E6" stroke-width="0.85"/>
<path d="M29.6611 4L32.6611 9.5L29.6611 15" stroke="black"/>
<path d="M18.374 10.5908L21.1606 14L27.1606 5" stroke="black"/>
<path d="M409.374 247L412.374 252.5L409.374 258" stroke="#DDE1E6" stroke-width="0.85"/>
<path d="M439.374 352L442.374 357.5L439.374 363" stroke="black" stroke-width="0.85"/>
<path d="M426.374 591L429.374 596.5L426.374 602" stroke="#DDE1E6" stroke-width="0.85"/>
<path d="M339.374 121L342.374 126.5L339.374 132" stroke="black" stroke-width="0.85"/>
</svg>
