<svg width="76" height="60" viewBox="0 0 76 60" fill="none" xmlns="http://www.w3.org/2000/svg">
<path d="M42.4549 5.206C42.4549 6.094 42.3169 6.928 42.0409 7.708C41.7649 8.488 41.4049 9.214 40.9609 9.886C40.5289 10.546 40.0369 11.14 39.4849 11.668C38.9449 12.196 38.4049 12.64 37.8649 13H34.1389C34.9189 12.46 35.6149 11.944 36.2269 11.452C36.8509 10.948 37.3909 10.45 37.8469 9.958C38.3149 9.454 38.6929 8.938 38.9809 8.41C39.2809 7.882 39.4969 7.312 39.6289 6.7L39.4669 6.646C39.3589 6.886 39.2209 7.12 39.0529 7.348C38.8969 7.576 38.7049 7.78 38.4769 7.96C38.2609 8.128 37.9969 8.266 37.6849 8.374C37.3849 8.482 37.0309 8.536 36.6229 8.536C36.0949 8.536 35.6029 8.446 35.1469 8.266C34.6909 8.074 34.2949 7.81 33.9589 7.474C33.6349 7.126 33.3769 6.712 33.1849 6.232C32.9929 5.752 32.8969 5.212 32.8969 4.612C32.8969 3.976 33.0109 3.388 33.2389 2.848C33.4669 2.308 33.7849 1.846 34.1929 1.462C34.6129 1.066 35.1169 0.76 35.7049 0.543999C36.2929 0.327999 36.9469 0.219999 37.6669 0.219999C38.4229 0.219999 39.0949 0.339999 39.6829 0.579999C40.2829 0.808 40.7869 1.144 41.1949 1.588C41.6029 2.02 41.9149 2.542 42.1309 3.154C42.3469 3.766 42.4549 4.45 42.4549 5.206ZM37.6849 6.466C38.2969 6.466 38.7769 6.304 39.1249 5.98C39.4729 5.644 39.6469 5.164 39.6469 4.54V4.288C39.6469 3.664 39.4789 3.184 39.1429 2.848C38.8189 2.5 38.3329 2.326 37.6849 2.326C37.0369 2.326 36.5449 2.5 36.2089 2.848C35.8729 3.184 35.7049 3.664 35.7049 4.288V4.54C35.7049 5.164 35.8729 5.644 36.2089 5.98C36.5569 6.304 37.0489 6.466 37.6849 6.466ZM53.4419 13H44.4059V10.534L48.3659 7.24C49.0499 6.652 49.5419 6.142 49.8419 5.71C50.1419 5.278 50.2919 4.822 50.2919 4.342V4.162C50.2919 3.634 50.1359 3.238 49.8239 2.974C49.5119 2.698 49.0919 2.56 48.5639 2.56C47.9639 2.56 47.5019 2.734 47.1779 3.082C46.8539 3.43 46.6259 3.844 46.4939 4.324L44.1359 3.424C44.2799 2.992 44.4779 2.584 44.7299 2.2C44.9819 1.804 45.2999 1.462 45.6839 1.174C46.0799 0.885999 46.5359 0.657999 47.0519 0.489999C47.5679 0.309999 48.1619 0.219999 48.8339 0.219999C49.5179 0.219999 50.1299 0.316 50.6699 0.508C51.2099 0.7 51.6659 0.963999 52.0379 1.3C52.4099 1.636 52.6919 2.038 52.8839 2.506C53.0759 2.962 53.1719 3.46 53.1719 4C53.1719 4.528 53.0819 5.014 52.9019 5.458C52.7339 5.89 52.4939 6.298 52.1819 6.682C51.8819 7.066 51.5219 7.438 51.1019 7.798C50.6939 8.158 50.2559 8.518 49.7879 8.878L47.3939 10.732H53.4419V13ZM56.2568 13V10.822H59.6408V2.398H59.4788L56.9228 5.746L55.1948 4.396L58.2008 0.436H62.3408V10.822H65.0048V13H56.2568ZM70.5918 5.404C71.2878 5.404 71.7918 5.272 72.1038 5.008C72.4278 4.744 72.5898 4.42 72.5898 4.036V3.91C72.5898 3.454 72.4338 3.094 72.1218 2.83C71.8218 2.554 71.3898 2.416 70.8258 2.416C70.3098 2.416 69.8238 2.548 69.3678 2.812C68.9238 3.064 68.5458 3.43 68.2338 3.91L66.5238 2.326C66.7638 2.014 67.0278 1.732 67.3158 1.48C67.6038 1.216 67.9218 0.993999 68.2698 0.813999C68.6178 0.622 69.0078 0.478 69.4398 0.381999C69.8838 0.273999 70.3818 0.219999 70.9338 0.219999C71.6178 0.219999 72.2358 0.297999 72.7878 0.454C73.3398 0.61 73.8078 0.838 74.1918 1.138C74.5878 1.426 74.8938 1.774 75.1098 2.182C75.3258 2.59 75.4338 3.046 75.4338 3.55C75.4338 3.946 75.3678 4.306 75.2358 4.63C75.1038 4.954 74.9238 5.236 74.6958 5.476C74.4798 5.716 74.2218 5.914 73.9218 6.07C73.6338 6.214 73.3218 6.316 72.9858 6.376V6.484C73.7538 6.616 74.3898 6.94 74.8938 7.456C75.4098 7.96 75.6678 8.644 75.6678 9.508C75.6678 10.072 75.5478 10.582 75.3078 11.038C75.0798 11.494 74.7498 11.884 74.3178 12.208C73.8978 12.532 73.3818 12.784 72.7698 12.964C72.1698 13.132 71.4978 13.216 70.7538 13.216C70.1178 13.216 69.5538 13.15 69.0618 13.018C68.5818 12.886 68.1558 12.712 67.7838 12.496C67.4118 12.268 67.0878 12.01 66.8118 11.722C66.5478 11.422 66.3138 11.116 66.1098 10.804L68.1078 9.256C68.3838 9.772 68.7258 10.198 69.1338 10.534C69.5538 10.858 70.1118 11.02 70.8078 11.02C71.4558 11.02 71.9538 10.87 72.3018 10.57C72.6498 10.27 72.8238 9.856 72.8238 9.328V9.202C72.8238 8.686 72.6258 8.302 72.2298 8.05C71.8338 7.786 71.2818 7.654 70.5738 7.654H69.4038V5.404H70.5918ZM3.248 34.884V31.572H0.116V29.448H3.248V26.136H5.552V29.448H8.684V31.572H5.552V34.884H3.248ZM34.0309 36V33.822H37.4149V25.398H37.2529L34.6969 28.746L32.9689 27.396L35.9749 23.436H40.1149V33.822H42.7789V36H34.0309ZM48.8519 36.216C48.0959 36.216 47.4239 36.126 46.8359 35.946C46.2479 35.754 45.7499 35.496 45.3419 35.172C44.9339 34.848 44.6219 34.464 44.4059 34.02C44.2019 33.564 44.0999 33.072 44.0999 32.544C44.0999 31.728 44.3339 31.074 44.8019 30.582C45.2699 30.078 45.8699 29.724 46.6019 29.52V29.376C45.9779 29.148 45.4679 28.8 45.0719 28.332C44.6759 27.864 44.4779 27.264 44.4779 26.532C44.4779 26.052 44.5739 25.608 44.7659 25.2C44.9579 24.792 45.2399 24.444 45.6119 24.156C45.9839 23.856 46.4399 23.628 46.9799 23.472C47.5199 23.304 48.1439 23.22 48.8519 23.22C49.5479 23.22 50.1659 23.304 50.7059 23.472C51.2579 23.628 51.7199 23.856 52.0919 24.156C52.4639 24.444 52.7459 24.792 52.9379 25.2C53.1299 25.608 53.2259 26.052 53.2259 26.532C53.2259 27.264 53.0279 27.864 52.6319 28.332C52.2359 28.8 51.7259 29.148 51.1019 29.376V29.52C51.8339 29.724 52.4339 30.078 52.9019 30.582C53.3699 31.074 53.6039 31.728 53.6039 32.544C53.6039 33.072 53.4959 33.564 53.2799 34.02C53.0759 34.464 52.7699 34.848 52.3619 35.172C51.9539 35.496 51.4559 35.754 50.8679 35.946C50.2799 36.126 49.6079 36.216 48.8519 36.216ZM48.8519 34.146C49.4759 34.146 49.9499 34.002 50.2739 33.714C50.6099 33.426 50.7779 33.036 50.7779 32.544V32.184C50.7779 31.68 50.6159 31.29 50.2919 31.014C49.9679 30.726 49.4879 30.582 48.8519 30.582C48.2159 30.582 47.7359 30.726 47.4119 31.014C47.0879 31.29 46.9259 31.68 46.9259 32.184V32.544C46.9259 33.036 47.0879 33.426 47.4119 33.714C47.7479 34.002 48.2279 34.146 48.8519 34.146ZM48.8519 28.602C49.4519 28.602 49.9079 28.464 50.2199 28.188C50.5319 27.912 50.6879 27.54 50.6879 27.072V26.802C50.6879 26.334 50.5259 25.968 50.2019 25.704C49.8899 25.428 49.4399 25.29 48.8519 25.29C48.2639 25.29 47.8079 25.428 47.4839 25.704C47.1719 25.968 47.0159 26.334 47.0159 26.802V27.072C47.0159 27.54 47.1719 27.912 47.4839 28.188C47.7959 28.464 48.2519 28.602 48.8519 28.602ZM64.0148 25.794H58.2008L57.9128 29.772H58.0748C58.2068 29.484 58.3568 29.22 58.5248 28.98C58.6928 28.728 58.8908 28.518 59.1188 28.35C59.3468 28.17 59.6108 28.032 59.9108 27.936C60.2108 27.84 60.5528 27.792 60.9368 27.792C61.4528 27.792 61.9388 27.882 62.3948 28.062C62.8628 28.242 63.2708 28.506 63.6188 28.854C63.9788 29.19 64.2608 29.61 64.4648 30.114C64.6688 30.606 64.7708 31.164 64.7708 31.788C64.7708 32.424 64.6628 33.012 64.4468 33.552C64.2308 34.092 63.9128 34.56 63.4928 34.956C63.0848 35.352 62.5748 35.664 61.9628 35.892C61.3508 36.108 60.6548 36.216 59.8748 36.216C59.2628 36.216 58.7168 36.15 58.2368 36.018C57.7568 35.886 57.3308 35.712 56.9588 35.496C56.5988 35.268 56.2808 35.01 56.0048 34.722C55.7408 34.422 55.5128 34.116 55.3208 33.804L57.2828 32.256C57.4268 32.496 57.5768 32.724 57.7328 32.94C57.9008 33.156 58.0868 33.348 58.2908 33.516C58.5068 33.672 58.7408 33.798 58.9928 33.894C59.2568 33.978 59.5568 34.02 59.8928 34.02C60.5648 34.02 61.0688 33.84 61.4048 33.48C61.7528 33.108 61.9268 32.616 61.9268 32.004V31.86C61.9268 31.272 61.7528 30.81 61.4048 30.474C61.0568 30.138 60.5768 29.97 59.9648 29.97C59.4608 29.97 59.0408 30.072 58.7048 30.276C58.3808 30.468 58.1348 30.66 57.9668 30.852L55.7528 30.546L56.2208 23.436H64.0148V25.794ZM71.7798 36V33.588H66.1278V31.284L71.1318 23.436H74.3718V31.5H75.9918V33.588H74.3718V36H71.7798ZM68.3058 31.5H71.7798V26.226H71.6178L68.3058 31.5ZM0.116 52.502V50.378H8.684V52.502H0.116ZM0.116 56.642V54.518H8.684V56.642H0.116ZM36.0829 54.806V52.052C36.9829 52.016 37.6969 51.86 38.2249 51.584C38.7529 51.308 39.0169 50.828 39.0169 50.144V49.892C39.0169 49.388 38.8669 49.028 38.5669 48.812C38.2789 48.596 37.9189 48.488 37.4869 48.488C36.9949 48.488 36.5929 48.632 36.2809 48.92C35.9689 49.196 35.7529 49.562 35.6329 50.018L33.4369 49.1C33.5449 48.74 33.7009 48.392 33.9049 48.056C34.1209 47.708 34.3969 47.402 34.7329 47.138C35.0689 46.862 35.4709 46.64 35.9389 46.472C36.4069 46.304 36.9529 46.22 37.5769 46.22C38.2129 46.22 38.7889 46.31 39.3049 46.49C39.8329 46.67 40.2829 46.922 40.6549 47.246C41.0269 47.57 41.3149 47.96 41.5189 48.416C41.7229 48.872 41.8249 49.37 41.8249 49.91C41.8249 50.414 41.7349 50.876 41.5549 51.296C41.3869 51.704 41.1529 52.064 40.8529 52.376C40.5649 52.676 40.2229 52.922 39.8269 53.114C39.4429 53.306 39.0349 53.438 38.6029 53.51V54.806H36.0829ZM37.3789 59.216C36.7429 59.216 36.2869 59.078 36.0109 58.802C35.7469 58.526 35.6149 58.196 35.6149 57.812V57.236C35.6149 56.852 35.7469 56.528 36.0109 56.264C36.2869 55.988 36.7429 55.85 37.3789 55.85C38.0149 55.85 38.4709 55.988 38.7469 56.264C39.0229 56.54 39.1609 56.864 39.1609 57.236V57.812C39.1609 58.196 39.0229 58.526 38.7469 58.802C38.4829 59.078 38.0269 59.216 37.3789 59.216ZM47.1959 54.806V52.052C48.0959 52.016 48.8099 51.86 49.3379 51.584C49.8659 51.308 50.1299 50.828 50.1299 50.144V49.892C50.1299 49.388 49.9799 49.028 49.6799 48.812C49.3919 48.596 49.0319 48.488 48.5999 48.488C48.1079 48.488 47.7059 48.632 47.3939 48.92C47.0819 49.196 46.8659 49.562 46.7459 50.018L44.5499 49.1C44.6579 48.74 44.8139 48.392 45.0179 48.056C45.2339 47.708 45.5099 47.402 45.8459 47.138C46.1819 46.862 46.5839 46.64 47.0519 46.472C47.5199 46.304 48.0659 46.22 48.6899 46.22C49.3259 46.22 49.9019 46.31 50.4179 46.49C50.9459 46.67 51.3959 46.922 51.7679 47.246C52.1399 47.57 52.4279 47.96 52.6319 48.416C52.8359 48.872 52.9379 49.37 52.9379 49.91C52.9379 50.414 52.8479 50.876 52.6679 51.296C52.4999 51.704 52.2659 52.064 51.9659 52.376C51.6779 52.676 51.3359 52.922 50.9399 53.114C50.5559 53.306 50.1479 53.438 49.7159 53.51V54.806H47.1959ZM48.4919 59.216C47.8559 59.216 47.3999 59.078 47.1239 58.802C46.8599 58.526 46.7279 58.196 46.7279 57.812V57.236C46.7279 56.852 46.8599 56.528 47.1239 56.264C47.3999 55.988 47.8559 55.85 48.4919 55.85C49.1279 55.85 49.5839 55.988 49.8599 56.264C50.1359 56.54 50.2739 56.864 50.2739 57.236V57.812C50.2739 58.196 50.1359 58.526 49.8599 58.802C49.5959 59.078 49.1399 59.216 48.4919 59.216ZM58.3088 54.806V52.052C59.2088 52.016 59.9228 51.86 60.4508 51.584C60.9788 51.308 61.2428 50.828 61.2428 50.144V49.892C61.2428 49.388 61.0928 49.028 60.7928 48.812C60.5048 48.596 60.1448 48.488 59.7128 48.488C59.2208 48.488 58.8188 48.632 58.5068 48.92C58.1948 49.196 57.9788 49.562 57.8588 50.018L55.6628 49.1C55.7708 48.74 55.9268 48.392 56.1308 48.056C56.3468 47.708 56.6228 47.402 56.9588 47.138C57.2948 46.862 57.6968 46.64 58.1648 46.472C58.6328 46.304 59.1788 46.22 59.8028 46.22C60.4388 46.22 61.0148 46.31 61.5308 46.49C62.0588 46.67 62.5088 46.922 62.8808 47.246C63.2528 47.57 63.5408 47.96 63.7448 48.416C63.9488 48.872 64.0508 49.37 64.0508 49.91C64.0508 50.414 63.9608 50.876 63.7808 51.296C63.6128 51.704 63.3788 52.064 63.0788 52.376C62.7908 52.676 62.4488 52.922 62.0528 53.114C61.6688 53.306 61.2608 53.438 60.8288 53.51V54.806H58.3088ZM59.6048 59.216C58.9688 59.216 58.5128 59.078 58.2368 58.802C57.9728 58.526 57.8408 58.196 57.8408 57.812V57.236C57.8408 56.852 57.9728 56.528 58.2368 56.264C58.5128 55.988 58.9688 55.85 59.6048 55.85C60.2408 55.85 60.6968 55.988 60.9728 56.264C61.2488 56.54 61.3868 56.864 61.3868 57.236V57.812C61.3868 58.196 61.2488 58.526 60.9728 58.802C60.7088 59.078 60.2528 59.216 59.6048 59.216ZM69.4218 54.806V52.052C70.3218 52.016 71.0358 51.86 71.5638 51.584C72.0918 51.308 72.3558 50.828 72.3558 50.144V49.892C72.3558 49.388 72.2058 49.028 71.9058 48.812C71.6178 48.596 71.2578 48.488 70.8258 48.488C70.3338 48.488 69.9318 48.632 69.6198 48.92C69.3078 49.196 69.0918 49.562 68.9718 50.018L66.7758 49.1C66.8838 48.74 67.0398 48.392 67.2438 48.056C67.4598 47.708 67.7358 47.402 68.0718 47.138C68.4078 46.862 68.8098 46.64 69.2778 46.472C69.7458 46.304 70.2918 46.22 70.9158 46.22C71.5518 46.22 72.1278 46.31 72.6438 46.49C73.1718 46.67 73.6218 46.922 73.9938 47.246C74.3658 47.57 74.6538 47.96 74.8578 48.416C75.0618 48.872 75.1638 49.37 75.1638 49.91C75.1638 50.414 75.0738 50.876 74.8938 51.296C74.7258 51.704 74.4918 52.064 74.1918 52.376C73.9038 52.676 73.5618 52.922 73.1658 53.114C72.7818 53.306 72.3738 53.438 71.9418 53.51V54.806H69.4218ZM70.7178 59.216C70.0818 59.216 69.6258 59.078 69.3498 58.802C69.0858 58.526 68.9538 58.196 68.9538 57.812V57.236C68.9538 56.852 69.0858 56.528 69.3498 56.264C69.6258 55.988 70.0818 55.85 70.7178 55.85C71.3538 55.85 71.8098 55.988 72.0858 56.264C72.3618 56.54 72.4998 56.864 72.4998 57.236V57.812C72.4998 58.196 72.3618 58.526 72.0858 58.802C71.8218 59.078 71.3658 59.216 70.7178 59.216Z" fill="#343A3F"/>
</svg>
